<?xml version="1.0" encoding="UTF-8"?>
<svg version="1.1" xmlns="http://www.w3.org/2000/svg" width="498" height="281">
<path d="M0 0 C164.34 0 328.68 0 498 0 C498 92.73 498 185.46 498 281 C333.66 281 169.32 281 0 281 C0 188.27 0 95.54 0 0 Z " fill="#FCFCFB" transform="translate(0,0)"/>
<path d="M0 0 C2.24375332 -0.30576198 3.77473744 -0.86236818 5.70703125 -2.04296875 C9.29345896 -3.53985936 12.84002643 -3.33998756 16.6875 -3.3125 C17.90252197 -3.30404053 17.90252197 -3.30404053 19.14208984 -3.29541016 C28.74304709 -3.10010367 35.96513507 -0.79503999 43 6 C47.68328272 11.9540515 50 19.54017724 50 27 C53.96 27 57.92 27 62 27 C62.02707139 29.24993359 62.04642829 31.49996095 62.0625 33.75 C62.07410156 35.00296875 62.08570313 36.2559375 62.09765625 37.546875 C62.02021027 40.28536501 61.82780815 42.41880293 61 45 C61.99 45.33 62.98 45.66 64 46 C63.57200134 51.13598389 62.40200068 54.58701956 59.7421875 59.0078125 C58.77485152 61.02826563 58.77485152 61.02826563 59.58203125 63.30859375 C60.17665612 67.13753334 58.58538379 69.66312816 56.8125 72.9375 C56.35520508 73.82985352 56.35520508 73.82985352 55.88867188 74.74023438 C54.39033923 77.61439447 52.77981295 80.32584303 50.96484375 83.01171875 C48.87103869 86.196134 47.30996093 89.40054157 45.75 92.875 C45.22921875 94.02742188 44.7084375 95.17984375 44.171875 96.3671875 C43.78515625 97.23601562 43.3984375 98.10484375 43 99 C36.5149696 93.08772157 35.18256269 84.32461893 34 76 C33.01 76 32.02 76 31 76 C30.92523438 76.61746094 30.85046875 77.23492187 30.7734375 77.87109375 C29.14296681 88.37324319 23.58271422 94.91300802 16 102 C14.99656164 102.99654977 13.99547859 103.99549894 13 105 C13.680625 105.185625 14.36125 105.37125 15.0625 105.5625 C22.97845254 109.43626401 27.74101482 117.0310327 31 125 C32.21900509 130.24823566 30.76573352 134.60901969 28.1875 139.18359375 C24.4115589 144.95929313 19.53287983 148.07485184 13 150 C9.90669955 150.29482289 7.11737432 150.19792853 4 150 C3.76216797 151.19882812 3.76216797 151.19882812 3.51953125 152.421875 C-0.54247392 171.54247392 -0.54247392 171.54247392 -6 177 C-5.58893309 180.28853531 -4.07310512 183.0511314 -2.625 186 C1.66842142 195.38330363 5.19122079 206.62053308 3 217 C0.55706944 219.59913926 -1.11945915 220.80915034 -4.61328125 221.56640625 C-12.61916547 221.55482031 -17.0032851 219.6820799 -22.8359375 214.30859375 C-29.32909211 207.51771807 -34.56704279 198.52505867 -35 189 C-35.59425781 189.144375 -36.18851562 189.28875 -36.80078125 189.4375 C-45.55674198 191.39839945 -53.46842006 192.14321366 -62 189 C-61.98428955 189.56920166 -61.9685791 190.13840332 -61.95239258 190.72485352 C-61.88951561 193.33729874 -61.85084468 195.9495841 -61.8125 198.5625 C-61.78736328 199.45775391 -61.76222656 200.35300781 -61.73632812 201.27539062 C-61.67343985 206.99822407 -62.25741174 210.94646569 -65 216 C-67.44951358 218.44951358 -68.30424538 218.3494214 -71.6875 218.4375 C-76.15972913 218.31523762 -78.96783145 217.61363491 -82.41015625 214.73828125 C-88.06340713 208.55720842 -91.18711045 200.77137733 -94 193 C-94.50236116 191.67048107 -95.00498622 190.34106184 -95.5078125 189.01171875 C-101.08776635 174.02087362 -104.43115059 160.48524483 -99 145 C-99.90878906 144.62101562 -99.90878906 144.62101562 -100.8359375 144.234375 C-105.27715201 141.70111907 -107.32439331 136.54424387 -109.3125 132 C-110.80276615 125.49702045 -110.55483073 120.70277229 -107.33984375 114.890625 C-104.1405769 110.37620764 -99.96714866 107.33107415 -95 105 C-95.26554687 103.9378125 -95.53109375 102.875625 -95.8046875 101.78125 C-97.9296875 93.28125 -97.9296875 93.28125 -98.46044922 91.1171875 C-98.80597139 89.76136476 -99.17534009 88.4112625 -99.57470703 87.0703125 C-101.2165154 81.35967469 -101.23101825 75.91255648 -101.125 70 C-101.11597656 69.03449219 -101.10695312 68.06898437 -101.09765625 67.07421875 C-101.07430791 64.71603674 -101.03844539 62.3579842 -101 60 C-104.63 59.34 -108.26 58.68 -112 58 C-112 57.34 -112 56.68 -112 56 C-110.85423404 54.95244255 -109.6560644 53.96190283 -108.4375 53 C-101.97726126 47.45779518 -97.89293801 40.70723852 -93.86474609 33.29833984 C-86.33062986 19.45444251 -76.55298168 3.61287041 -61 -2 C-58.67182036 -2.36760731 -56.3381615 -2.70241581 -54 -3 C-51.6485148 -3.95653635 -49.31254012 -4.95281202 -47 -6 C-33.16410585 -10.71823119 -12.38649736 -6.80042992 0 0 Z " fill="#893438" transform="translate(284,33)"/>
<path d="M0 0 C4.25042938 0.90598721 8.45242699 1.83950446 12.625 3.0625 C20.55652466 5.26570129 28.2512972 5.12055818 36.4375 5.0625 C37.64599609 5.05798828 38.85449219 5.05347656 40.09960938 5.04882812 C43.06645789 5.03710145 46.0332027 5.02068896 49 5 C49 5.66 49 6.32 49 7 C50.91864771 6.74357696 52.83490994 6.46926564 54.75 6.1875 C56.35101563 5.96126953 56.35101563 5.96126953 57.984375 5.73046875 C61.08114403 4.98034465 62.57861852 3.99055009 65 2 C65.66 2 66.32 2 67 2 C66.13271063 8.93831496 62.53853982 14.81309734 58 20 C65.53171922 19.82703776 70.70281864 18.12206799 77 14 C79.79029602 22.88430252 78.47198824 34.17147059 76 43 C75.74347656 43.91910156 75.48695313 44.83820313 75.22265625 45.78515625 C72.32468792 55.22531919 68.23839126 65.26363637 62 73 C62.66 73 63.32 73 64 73 C76.2718709 97.62555427 76.2718709 97.62555427 74 110 C72.625 112.625 72.625 112.625 70 114 C65.08095696 114.8041566 60.58342278 114.6717086 56.125 112.3125 C50.02046767 107.79514607 47.53259912 102.26677814 44.6875 95.4375 C44.31560547 94.58736328 43.94371094 93.73722656 43.56054688 92.86132812 C43.04137695 91.62866211 43.04137695 91.62866211 42.51171875 90.37109375 C42.19678467 89.62786865 41.88185059 88.88464355 41.55737305 88.11889648 C40.90092526 85.62335974 40.98709576 84.36658987 42 82 C45.0625 80.25 45.0625 80.25 48 79 C46.97519531 79.27714844 45.95039063 79.55429688 44.89453125 79.83984375 C43.53387669 80.20581291 42.17319834 80.57169365 40.8125 80.9375 C39.80219727 81.21110352 39.80219727 81.21110352 38.77148438 81.49023438 C30.17722495 83.79601129 21.10997096 85.91623911 12.5 82.6875 C10.27480976 81.18549659 8.08880597 79.68711251 6 78 C6.48726562 78.80695313 6.97453125 79.61390625 7.4765625 80.4453125 C9.34207856 84.79818331 9.44518899 88.20353253 9.375 92.875 C9.38660156 93.63941406 9.39820313 94.40382813 9.41015625 95.19140625 C9.38371822 100.38207321 8.88974701 107.11025299 5 111 C1.0875618 111.54911413 -1.52210437 111.76693827 -5.0625 109.9296875 C-16.7213211 100.86677578 -23.00807628 80.51550429 -25.671875 66.453125 C-27.7459867 44.62556855 -27.7459867 44.62556855 -21 35 C-20.34902344 33.99582031 -19.69804687 32.99164063 -19.02734375 31.95703125 C-15.17203753 26.27135535 -15.17203753 26.27135535 -13 24 C-11.68 24 -10.36 24 -9 24 C-9.33 23.01 -9.66 22.02 -10 21 C-9.67 20.34 -9.34 19.68 -9 19 C-7.68 19 -6.36 19 -5 19 C-5.66 15.7 -6.32 12.4 -7 9 C-6.30132812 9.3609375 -5.60265625 9.721875 -4.8828125 10.09375 C-3.97273438 10.5578125 -3.06265625 11.021875 -2.125 11.5 C-1.22007812 11.9640625 -0.31515625 12.428125 0.6171875 12.90625 C2.86596859 14.13905589 2.86596859 14.13905589 5 14 C4.6390625 13.15695313 4.278125 12.31390625 3.90625 11.4453125 C3.4421875 10.34960938 2.978125 9.25390625 2.5 8.125 C2.0359375 7.03445312 1.571875 5.94390625 1.09375 4.8203125 C0 2 0 2 0 0 Z " fill="#FBFBFA" transform="translate(211,138)"/>
<path d="M0 0 C-0.33 1.65 -0.66 3.3 -1 5 C-3.31 3.68 -5.62 2.36 -8 1 C-7.443125 1.47566406 -6.88625 1.95132813 -6.3125 2.44140625 C7.01909799 14.66954427 15.291096 35.29239012 16.16113281 53.34301758 C16.19889114 56.76124344 16.23116596 60.1789988 16.24023438 63.59741211 C16.24980305 65.76782639 16.28079313 67.93723502 16.3125 70.10742188 C16.43446527 85.99820727 14.54682556 103.70801892 4.4375 116.6875 C-0.79149252 121.64833905 -4.98632032 122.55686991 -12 123 C-11.60167969 122.39414063 -11.20335937 121.78828125 -10.79296875 121.1640625 C-7.07160481 115.27869374 -4.64080882 109.76473812 -3 103 C-3.64066406 103.42152344 -4.28132813 103.84304687 -4.94140625 104.27734375 C-10.04720636 107.51127079 -13.92130378 109.73570886 -20 110 C-19.319375 109.360625 -18.63875 108.72125 -17.9375 108.0625 C-11.07295921 101.10045153 -6.79416913 94.40218048 -4 85 C-3.64421875 83.93523437 -3.2884375 82.87046875 -2.921875 81.7734375 C0.23258936 68.86151983 -1.85193056 54.75142181 -4.1875 41.875 C-4.38351807 40.77446289 -4.57953613 39.67392578 -4.78149414 38.54003906 C-7.36470378 25.4089711 -11.70138134 13.90934627 -22.9375 6 C-27.09560516 3.57985286 -30.26143611 3.5012038 -35 4 C-35.33 4.33 -35.66 4.66 -36 5 C-34.845 4.9175 -33.69 4.835 -32.5 4.75 C-26.64677212 4.79129261 -22.51349387 6.83067749 -18.1171875 10.625 C-10.1729798 18.87872229 -7.28309981 30.05539028 -5 41 C-4.690625 42.46759766 -4.690625 42.46759766 -4.375 43.96484375 C-2.97767671 51.3493092 -2.78221214 58.49841803 -3 66 C-9.41267982 64.19361132 -12.27264222 61.392003 -16 56 C-19.49198728 49.73125176 -20.4823467 43.78389223 -20.7265625 36.6640625 C-21.00317388 33.96907733 -21.63063479 32.31148847 -23 30 C-22.67 30.99 -22.34 31.98 -22 33 C-21.08683591 42.85461498 -20.59831404 54.33062747 -26 63 C-26.70640625 63.5053125 -27.4128125 64.010625 -28.140625 64.53125 C-28.75421875 65.0159375 -29.3678125 65.500625 -30 66 C-30 67.32 -30 68.64 -30 70 C-30.99 70.66 -31.98 71.32 -33 72 C-33.0272616 69.95840905 -33.04651345 67.91671037 -33.0625 65.875 C-33.07410156 64.73804687 -33.08570313 63.60109375 -33.09765625 62.4296875 C-33.00507039 59.17807197 -32.5391266 56.20106422 -32 53 C-31.93539781 50.87588004 -31.91388921 48.74997095 -31.9375 46.625 C-31.94652344 45.56539062 -31.95554687 44.50578125 -31.96484375 43.4140625 C-31.97644531 42.61742187 -31.98804688 41.82078125 -32 41 C-32.02578125 41.95519531 -32.0515625 42.91039062 -32.078125 43.89453125 C-32.89795782 62.58299297 -32.89795782 62.58299297 -39.13671875 69.30078125 C-40.05904297 70.14189453 -40.05904297 70.14189453 -41 71 C-44.55007718 67.0949151 -45.81819916 64.02265357 -47 59 C-46.44894091 62.9492568 -45.61064629 66.34920174 -44 70 C-49.56064073 68.64073227 -49.56064073 68.64073227 -51.5 65.8125 C-51.995 64.884375 -52.49 63.95625 -53 63 C-54.04073187 62.01983982 -55.08249539 61.04077447 -56.125 60.0625 C-60.69947485 54.98981502 -59.87635 48.49162522 -60 42 C-60 46.62 -60 51.24 -60 56 C-62.31 55.34 -64.62 54.68 -67 54 C-66.5573189 48.10386453 -63.96258521 44.03504201 -60.9375 39.125 C-60.22883789 37.949375 -60.22883789 37.949375 -59.50585938 36.75 C-58.34563713 34.82801567 -57.17694224 32.91177465 -56 31 C-56.66 31 -57.32 31 -58 31 C-58.2475 31.85335937 -58.495 32.70671875 -58.75 33.5859375 C-60.10887913 37.29737613 -61.87846217 40.2944976 -64 43.625 C-66.73491853 47.88433174 -66.73491853 47.88433174 -69.125 52.3359375 C-70 54 -70 54 -72 55 C-72.0928125 56.11375 -72.0928125 56.11375 -72.1875 57.25 C-73.40885366 61.38381238 -76.44357649 62.81786025 -80 65 C-81.21635603 47.4642006 -75.97919125 29.85850604 -64.5625 16.375 C-60.68392873 12.35081684 -57.23414696 9.95171582 -52 8 C-50.68 8 -49.36 8 -48 8 C-48 7.34 -48 6.68 -48 6 C-61.06438436 10.52898658 -67.3329629 16.55828553 -73.2668457 28.78222656 C-77.48126801 37.89529254 -81.22021523 47.78077041 -80.91015625 57.9453125 C-80.87792969 59.01523438 -80.84570312 60.08515625 -80.8125 61.1875 C-80.75707031 62.19167969 -80.70164063 63.19585937 -80.64453125 64.23046875 C-81.09607202 67.74851716 -82.23760185 68.86054561 -85 71 C-85.66 71 -86.32 71 -87 71 C-87.28875 71.5775 -87.5775 72.155 -87.875 72.75 C-89 75 -89 75 -90.125 76.8125 C-91.64961137 80.62402842 -91.6107123 84.10935175 -90.34765625 88.01953125 C-87.55016578 94.29887682 -83.23953296 98.72959492 -76.8125 101.25 C-72.45950803 103.95852834 -71.34543784 108.18808115 -70 113 C-70 113.99 -70 114.98 -70 116 C-73.15330554 115.39305845 -75.18888867 114.3583335 -77.75 112.4375 C-78.36359375 111.98246094 -78.9771875 111.52742188 -79.609375 111.05859375 C-80.06828125 110.70925781 -80.5271875 110.35992187 -81 110 C-81 112.64 -81 115.28 -81 118 C-87.8295591 111.75583168 -91.50140547 104.63799225 -94.25 95.875 C-94.50523437 95.10285156 -94.76046875 94.33070313 -95.0234375 93.53515625 C-97.55592949 85.71108889 -98.15894761 78.56768889 -98.125 70.375 C-98.12886719 69.43398437 -98.13273438 68.49296875 -98.13671875 67.5234375 C-98.13542969 66.6159375 -98.13414062 65.7084375 -98.1328125 64.7734375 C-98.13168457 63.95278809 -98.13055664 63.13213867 -98.12939453 62.28662109 C-98 60 -98 60 -97 56 C-100.63 56 -104.26 56 -108 56 C-107.175 55.071875 -106.35 54.14375 -105.5 53.1875 C-99.23560608 45.8253735 -93.96846169 38.07059466 -89.1875 29.6875 C-82.28981698 17.68937992 -74.21508594 4.66360826 -61 -1 C-55.28762648 -1.79973229 -50.97118456 -1.0591905 -46 2 C-48.475 -0.475 -48.475 -0.475 -51 -3 C-37.54460622 -10.76272718 -13.01060183 -6.76814136 0 0 Z " fill="#FAA1C6" transform="translate(283,34)"/>
<path d="M0 0 C4.79619655 5.76338536 7 13.6609152 7 21 C10.96 21 14.92 21 19 21 C19.02707139 23.24993359 19.04642829 25.49996095 19.0625 27.75 C19.07410156 29.00296875 19.08570313 30.2559375 19.09765625 31.546875 C19.02021027 34.28536501 18.82780815 36.41880293 18 39 C18.99 39.33 19.98 39.66 21 40 C20.6414546 44.30254485 19.96786579 47.32897446 17.875 51.125 C16.02025758 54.54964939 15.9121757 56.19261494 17 60 C15 63 15 63 13.1953125 65.1171875 C10.31416029 68.90062226 8.13389867 72.94905379 5.875 77.125 C4.99848703 78.73236635 4.12092486 80.33916113 3.2421875 81.9453125 C2.8591748 82.65187988 2.47616211 83.35844727 2.08154297 84.08642578 C1.13027304 85.76950789 0.07240633 87.3913905 -1 89 C-1.99862559 86.77490707 -2.99185861 84.54770336 -3.9765625 82.31640625 C-4.72462856 80.62326437 -5.48403608 78.93512063 -6.25 77.25 C-7.09325275 74.72024175 -7.15138947 72.64931572 -7 70 C-8.32 69.67 -9.64 69.34 -11 69 C-11.8723255 65.22457523 -12.16344601 61.68519302 -12.1875 57.8125 C-12.20167969 56.76707031 -12.21585937 55.72164063 -12.23046875 54.64453125 C-12 52 -12 52 -10 50 C-9.01 50 -8.02 50 -7 50 C-6.86722656 50.95261719 -6.73445313 51.90523437 -6.59765625 52.88671875 C-6.42105469 54.14097656 -6.24445313 55.39523438 -6.0625 56.6875 C-5.88847656 57.92886719 -5.71445312 59.17023438 -5.53515625 60.44921875 C-5.10177103 63.32474548 -4.60350718 66.15644813 -4 69 C-3.34 68.67 -2.68 68.34 -2 68 C-2.28875 67.28714844 -2.5775 66.57429688 -2.875 65.83984375 C-5.01417038 60.32108128 -6.52679284 55.92641939 -6 50 C-4.40047143 52.39929286 -3.33127782 54.45858028 -2.1875 57.0625 C-0.72438275 60.07155246 -0.29073946 60.84141484 2.75 62.5 C3.4925 62.665 4.235 62.83 5 63 C5.28875 62.2575 5.5775 61.515 5.875 60.75 C6.82302644 58.43260203 7.84845911 56.22082885 9 54 C8.443125 53.773125 7.88625 53.54625 7.3125 53.3125 C4.37495279 51.64524348 2.38188562 49.38188562 0 47 C-2.16620544 45.70480005 -2.16620544 45.70480005 -4 45 C-2.02 44.505 -2.02 44.505 0 44 C-1.32 43.67 -2.64 43.34 -4 43 C-2.63016497 39.83884224 -2.0109362 39.0072908 1 37 C0.67 36.34 0.34 35.68 0 35 C0.30164063 34.24976563 0.60328125 33.49953125 0.9140625 32.7265625 C3.94009505 25.12882609 2.22290134 16.73516991 -0.8125 9.41015625 C-4.29367713 2.34474082 -8.85569227 -0.18828676 -16 -3 C-16.70769531 -3.37769531 -17.41539062 -3.75539063 -18.14453125 -4.14453125 C-20.00351335 -5.24053402 -20.00351335 -5.24053402 -22.125 -4.4375 C-24.61889838 -2.52551125 -25.06858436 -0.99383599 -26 2 C-26.556875 3.4540625 -26.556875 3.4540625 -27.125 4.9375 C-28.78372966 10.7430538 -28.14911312 17.02719099 -28 23 C-27.34 23.33 -26.68 23.66 -26 24 C-26.33 23.01 -26.66 22.02 -27 21 C-27.54309955 13.36527364 -27.39527774 6.92114309 -24 0 C-22 -2 -22 -2 -18.3125 -2.375 C-13.60314336 -2.2718754 -10.83448301 -0.66066168 -7 2 C-6.505 2.99 -6.505 2.99 -6 4 C-7.216875 4.20625 -8.43375 4.4125 -9.6875 4.625 C-14.53197516 5.8103503 -16.21794459 7.95337395 -19 12 C-19.33 12.66 -19.66 13.32 -20 14 C-19.34 13.67 -18.68 13.34 -18 13 C-15.94140625 12.83203125 -15.94140625 12.83203125 -13.5625 12.8125 C-12.78003906 12.79832031 -11.99757813 12.78414062 -11.19140625 12.76953125 C-9 13 -9 13 -6 15 C-6 15.66 -6 16.32 -6 17 C-5.34 17 -4.68 17 -4 17 C-5.86502588 14.37200898 -7.30410791 13.13634249 -10.4921875 12.51171875 C-12.9964272 12.27406427 -15.48653979 12.0959336 -18 12 C-12.52848101 5.23259494 -12.52848101 5.23259494 -8.125 4.5625 C-5 5 -5 5 -2.6875 7.8125 C-0.37434497 12.18179284 0.13687623 15.17543163 0.125 20.0625 C0.12886719 21.65771484 0.12886719 21.65771484 0.1328125 23.28515625 C0 26 0 26 -1 28 C-0.34 28 0.32 28 1 28 C0.49135273 32.37436651 -0.42926228 35.40096719 -3 39 C-3.99 39.495 -3.99 39.495 -5 40 C-5 42.31 -5 44.62 -5 47 C-7.475 47.495 -7.475 47.495 -10 48 C-9.67 46.35 -9.34 44.7 -9 43 C-9.99 43 -10.98 43 -12 43 C-12 43.99 -12 44.98 -12 46 C-14 47.6875 -14 47.6875 -16 49 C-14.68 49 -13.36 49 -12 49 C-12 49.66 -12 50.32 -12 51 C-17.34412955 54.03643725 -17.34412955 54.03643725 -20.25 53.875 C-22 53 -22 53 -24 50 C-23.625 47.3125 -23.625 47.3125 -23 45 C-23.33 45 -23.66 45 -24 45 C-24.23428313 49.7897321 -24.23428313 49.7897321 -22 54 C-17.545 53.505 -17.545 53.505 -13 53 C-12.61483555 66.26677552 -12.80282607 78.62397862 -21.8125 89.109375 C-23.48452001 90.85106251 -25.09925399 92.5110025 -27 94 C-27.66 94 -28.32 94 -29 94 C-28.0968005 86.51634703 -28.0968005 86.51634703 -27.49291992 83.29516602 C-26.66928928 77.78920132 -26.77504437 72.2551976 -26.75976562 66.69946289 C-26.75016841 64.59935197 -26.71914775 62.50026803 -26.6875 60.40039062 C-26.58852347 47.90802727 -28.45254922 36.02689553 -32.8125 24.25 C-33.06676758 23.54464111 -33.32103516 22.83928223 -33.58300781 22.11254883 C-35.82807893 16.07633768 -38.73089376 10.54369523 -42 5 C-42.67839967 3.67259798 -43.34934066 2.3412176 -44 1 C-40.11380154 -4.64125582 -36.67297364 -6.59516344 -30 -8 C-17.93116438 -10.08683037 -9.3030807 -8.24514914 0 0 Z " fill="#FAA3C6" transform="translate(327,39)"/>
<path d="M0 0 C0.04898438 0.81984375 0.09796875 1.6396875 0.1484375 2.484375 C0.22320312 3.56203125 0.29796875 4.6396875 0.375 5.75 C0.44460937 6.81734375 0.51421875 7.8846875 0.5859375 8.984375 C0.97915528 11.84818748 1.42857185 13.60207677 3 16 C6.44675746 18.32455736 8.44616045 19.00954896 12.625 18.9375 C16.38339533 17.8935013 17.71952152 17.12510013 20 14 C21.26784124 10.86649283 21.26784124 10.86649283 22 8 C22.68707031 8.22816406 23.37414062 8.45632812 24.08203125 8.69140625 C24.98308594 8.97886719 25.88414062 9.26632813 26.8125 9.5625 C27.70582031 9.85253906 28.59914062 10.14257812 29.51953125 10.44140625 C32.11215139 11.24979556 32.11215139 11.24979556 35 10 C36.66710346 8.50014391 36.66710346 8.50014391 38 7 C38.66 8.65 39.32 10.3 40 12 C40.43570313 11.43410156 40.87140625 10.86820313 41.3203125 10.28515625 C46.24528302 4.21955403 46.24528302 4.21955403 50.4375 3 C51.283125 3 52.12875 3 53 3 C52.21625 3.7425 51.4325 4.485 50.625 5.25 C45.94806728 10.14964381 45.61854967 13.74373253 45.7421875 20.3671875 C46.06000606 23.61278917 46.85624848 25.53865567 49 28 C52.72579089 30.48386059 54.58711402 30.3804212 59 30 C61.89299553 29.09762034 61.89299553 29.09762034 64 27 C65.94011145 22.28830076 67.14644819 17.05392577 66 12 C64.27800095 9.07160045 62.26058124 6.52969806 60 4 C63.75519057 4.51207144 66.66688525 5.2175082 70 7 C71.27438972 19.03590289 66.78658386 30.32826842 59.62109375 39.828125 C54.62212828 45.83348286 54.62212828 45.83348286 50.47900391 46.25878906 C49.48819824 46.26104492 48.49739258 46.26330078 47.4765625 46.265625 C45.83071167 46.27190918 45.83071167 46.27190918 44.15161133 46.27832031 C42.98782959 46.26897461 41.82404785 46.25962891 40.625 46.25 C39.43994873 46.24323242 38.25489746 46.23646484 37.03393555 46.22949219 C29.15339134 46.13616067 21.69263172 45.81603242 14 44 C12.73929688 43.70867187 11.47859375 43.41734375 10.1796875 43.1171875 C-1.27629582 40.33896101 -8.82911759 37.60274688 -16 28 C-17.85941996 24.28116009 -17.43285432 20.0587934 -17 16 C-14.92733462 11.59558607 -5.60452425 0 0 0 Z " fill="#F9F6F5" transform="translate(210,96)"/>
<path d="M0 0 C2.25544042 -0.30735461 3.78947266 -0.87197662 5.734375 -2.0546875 C9.16411891 -3.48571858 12.59951233 -3.20884512 16.25 -3.125 C16.99507813 -3.11597656 17.74015625 -3.10695313 18.5078125 -3.09765625 C20.33868059 -3.07418358 22.16938238 -3.03831525 24 -3 C24 -2.67 24 -2.34 24 -2 C22.37191406 -1.85304688 22.37191406 -1.85304688 20.7109375 -1.703125 C19.26553435 -1.55295324 17.82022647 -1.40186268 16.375 -1.25 C15.66214844 -1.188125 14.94929688 -1.12625 14.21484375 -1.0625 C9.22542045 -0.51320569 5.91531689 0.6372954 2 4 C0.33163295 6.37744327 0.33163295 6.37744327 0 9 C0.88964285 11.13592771 0.88964285 11.13592771 2.5625 13.0625 C8.19781172 20.86228372 11.02006917 29.67372683 13.75 38.8125 C14.06626343 39.87017578 14.06626343 39.87017578 14.38891602 40.94921875 C14.68366821 41.97402344 14.68366821 41.97402344 14.984375 43.01953125 C15.15678711 43.61870361 15.32919922 44.21787598 15.50683594 44.83520508 C17.21127061 52.31699826 17.21919892 59.80468018 17.24023438 67.4309082 C17.24986544 69.53312918 17.28091711 71.63433874 17.3125 73.73632812 C17.38195901 82.89886009 16.32241618 91.0877717 14 100 C22.86506282 93.00133297 27.173866 86.4558983 28.73046875 75.15234375 C29.1629012 70.09476417 29.16182108 65.07039382 29 60 C26.36 60.33 23.72 60.66 21 61 C18.72816581 58.53884629 18.0263798 57.26379801 17.6875 53.875 C18 51 18 51 20 49 C22.625 48.875 22.625 48.875 25 49 C22 51 22 51 20 52 C20.495 54.97 20.495 54.97 21 58 C24.81489674 59.46726798 27.29011622 58.43336419 31 57 C31 56.34 31 55.68 31 55 C29.02 55.33 27.04 55.66 25 56 C26.28965176 54.62437146 27.62689293 53.29233607 29 52 C29.66 52 30.32 52 31 52 C31 51.01 31 50.02 31 49 C32.32 48.67 33.64 48.34 35 48 C34.01 50.97 34.01 50.97 33 54 C34.32 53.67 35.64 53.34 37 53 C36.9175 51.9275 36.835 50.855 36.75 49.75 C37.04998887 45.25016688 37.85571131 44.96461505 41 42 C42.21216109 39.37787747 43.08404746 36.74785761 44 34 C43.34 34 42.68 34 42 34 C42.04640625 33.0821875 42.0928125 32.164375 42.140625 31.21875 C42.36535218 23.5780258 42.15109395 18.4860843 38 12 C35.03155565 11.64661377 32.84401782 11.4582318 30.265625 13.11328125 C28.79651181 14.35503168 27.39295186 15.67337918 26 17 C26.88751953 17.02126953 26.88751953 17.02126953 27.79296875 17.04296875 C32.35846843 17.31853725 34.44161431 17.53277932 38.0625 20.5625 C38.701875 21.366875 39.34125 22.17125 40 23 C39.505 24.485 39.505 24.485 39 26 C39 25.34 39 24.68 39 24 C37.35 24 35.7 24 34 24 C34.99 23.67 35.98 23.34 37 23 C35.85489241 21.3931662 35.85489241 21.3931662 34 20 C31.25756437 19.63729516 31.25756437 19.63729516 28.3125 19.8125 C27.31863281 19.83957031 26.32476562 19.86664063 25.30078125 19.89453125 C24.54152344 19.92933594 23.78226562 19.96414062 23 20 C24.71093633 15.16721302 26.7698266 12.98600476 31 10 C33.875 9.1875 33.875 9.1875 36 9 C30.7261808 5.48412053 27.37195954 4.04420607 21 5 C16.65057859 10.050941 16.86440596 15.88519607 16.9375 22.25 C16.94201172 22.99507812 16.94652344 23.74015625 16.95117188 24.5078125 C16.96290754 26.3385764 16.9808415 28.16929873 17 30 C15.515 29.505 15.515 29.505 14 29 C13.29192352 10.56378644 13.29192352 10.56378644 19.4375 3 C21.77815173 1.17314987 23.09104692 0.32321701 26 0 C26.495 0.99 26.495 0.99 27 2 C28.37532437 2.61093356 29.7761861 3.16505382 31.1875 3.6875 C38.19707416 6.73610845 41.48787369 11.20608656 44.375 18.1875 C47.02067554 26.19066851 47.10704337 34.12882346 44 42 C44.33 42.66 44.66 43.32 45 44 C44.195625 44.45375 43.39125 44.9075 42.5625 45.375 C39.91143428 46.74725665 39.91143428 46.74725665 39 49 C40.65 49 42.3 49 44 49 C43.505 49.99 43.505 49.99 43 51 C43.66 51.66 44.32 52.32 45 53 C45 53.66 45 54.32 45 55 C46.55855981 56.35712166 46.55855981 56.35712166 48.5 57.625 C49.47453125 58.29402344 49.47453125 58.29402344 50.46875 58.9765625 C50.9740625 59.31429687 51.479375 59.65203125 52 60 C50.94124926 63.40312738 49.99097846 66.01353231 48 69 C45.75 68.9375 45.75 68.9375 43 68 C41.30224235 65.77727782 40.24553731 63.53555809 39 61 C38.67 60.34 38.34 59.68 38 59 C38.60108576 64.65020618 40.07528683 69.66164461 42 75 C41.01 75 40.02 75 39 75 C36.36903961 68.51656189 35.60674181 62.97669157 36 56 C34.02 56.99 34.02 56.99 32 58 C32 63.61 32 69.22 32 75 C33.65 75 35.3 75 37 75 C36.92265625 76.27230469 36.92265625 76.27230469 36.84375 77.5703125 C37.0219554 81.48192109 38.02413061 84.25912 39.5 87.875 C40.19609375 89.60363281 40.19609375 89.60363281 40.90625 91.3671875 C41.2671875 92.23601562 41.628125 93.10484375 42 94 C42.34256836 93.35450195 42.68513672 92.70900391 43.03808594 92.04394531 C44.60128291 89.10859705 46.17550106 86.17930034 47.75 83.25 C48.28882813 82.23421875 48.82765625 81.2184375 49.3828125 80.171875 C49.91132813 79.1921875 50.43984375 78.2125 50.984375 77.203125 C51.46616211 76.30239258 51.94794922 75.40166016 52.44433594 74.47363281 C54.04444037 71.92933618 55.79927784 70.03462992 58 68 C57.43701079 72.43863958 55.75108697 75.28405795 53.3125 79 C49.20255397 85.40596886 46.02175675 92.00646449 43 99 C36.5149696 93.08772157 35.18256269 84.32461893 34 76 C33.01 76 32.02 76 31 76 C30.92523438 76.61746094 30.85046875 77.23492187 30.7734375 77.87109375 C29.14296681 88.37324319 23.58271422 94.91300802 16 102 C14.99656164 102.99654977 13.99547859 103.99549894 13 105 C13.680625 105.185625 14.36125 105.37125 15.0625 105.5625 C22.97845254 109.43626401 27.74101482 117.0310327 31 125 C32.21900509 130.24823566 30.76573352 134.60901969 28.1875 139.18359375 C24.4115589 144.95929313 19.53287983 148.07485184 13 150 C9.90669955 150.29482289 7.11737432 150.19792853 4 150 C3.505 152.97 3.505 152.97 3 156 C2.34 155.34 1.68 154.68 1 154 C1.20703125 152.08203125 1.20703125 152.08203125 1.8125 149.8125 C3.51587723 143.28479262 4.13854499 136.99540713 4.125 130.25 C4.12757813 128.95578125 4.13015625 127.6615625 4.1328125 126.328125 C4.15453157 123.00001449 4.15453157 123.00001449 3 120 C2.55011719 120.34933594 2.10023438 120.69867188 1.63671875 121.05859375 C-4.09941861 125.11642238 -9.05191569 125.85950565 -16 126 C-14.36177051 124.03829845 -13.46339554 123.09024932 -10.9140625 122.59375 C-9.78097656 122.54734375 -9.78097656 122.54734375 -8.625 122.5 C-4.59840547 122.13572004 -2.1495678 121.72395053 1 119 C12.69713951 104.51636914 14.63887174 85.87088705 14.5625 67.875 C14.5620166 67.16376984 14.5615332 66.45253967 14.56103516 65.71975708 C14.46452945 45.1430756 9.52270062 21.80692604 -5.45703125 6.578125 C-7.16066486 4.83567443 -8.5724453 2.97199749 -10 1 C-7.0280615 2.12451727 -4.66559313 3.22293791 -2 5 C-1.67 3.68 -1.34 2.36 -1 1 C-11.40117638 -2.81376467 -21.26946337 -4.17446623 -32.3125 -4.25 C-33.16046143 -4.25926514 -34.00842285 -4.26853027 -34.88208008 -4.27807617 C-39.96774512 -4.25255527 -44.18138024 -3.63872089 -49 -2 C-49 -1.34 -49 -0.68 -49 0 C-48.01 0.66 -47.02 1.32 -46 2 C-46.33 2.66 -46.66 3.32 -47 4 C-47.804375 3.505 -48.60875 3.01 -49.4375 2.5 C-53.83431529 0.64870935 -57.29711414 0.11026484 -62 1 C-64.26882746 2.13441373 -66.23671752 3.39756853 -68.2734375 4.90625 C-70 6 -70 6 -73 6 C-67.79526143 -0.072195 -61.72072838 -2.01736184 -54 -3 C-51.6485148 -3.95653635 -49.31254012 -4.95281202 -47 -6 C-33.16410585 -10.71823119 -12.38649736 -6.80042992 0 0 Z " fill="#782D2F" transform="translate(284,33)"/>
<path d="M0 0 C0.66 0.33 1.32 0.66 2 1 C1.44054687 1.59941406 0.88109375 2.19882812 0.3046875 2.81640625 C-6.49139444 10.49750851 -11.73810823 18.78994806 -16.91259766 27.63696289 C-21.75566644 35.86123963 -27.02221027 43.44510662 -34 50 C-30.7 50.33 -27.4 50.66 -24 51 C-24.01571045 51.69448242 -24.0314209 52.38896484 -24.04760742 53.10449219 C-24.11083134 56.31957509 -24.14926391 59.53452652 -24.1875 62.75 C-24.21263672 63.84183594 -24.23777344 64.93367188 -24.26367188 66.05859375 C-24.33254693 73.81851686 -23.23800983 80.58048861 -21 88 C-20.80108154 88.68964844 -20.60216309 89.37929687 -20.3972168 90.08984375 C-17.9015538 98.40947563 -14.41880613 105.2225883 -9 112 C-9 109.36 -9 106.72 -9 104 C-7.68 104.66 -6.36 105.32 -5 106 C-5.99 106.495 -5.99 106.495 -7 107 C-7 107.99 -7 108.98 -7 110 C-6.34 110 -5.68 110 -5 110 C-4.505 113.96 -4.505 113.96 -4 118 C-5.32 118 -6.64 118 -8 118 C-8 119.65 -8 121.3 -8 123 C-9.32 123 -10.64 123 -12 123 C-12.38865234 123.84111328 -12.38865234 123.84111328 -12.78515625 124.69921875 C-14.59855229 128.13359261 -16.94737546 131.14665047 -19.24609375 134.26953125 C-23.24161406 140.48972879 -24.46759658 145.52870311 -24.3125 152.75 C-24.31572266 153.48476562 -24.31894531 154.21953125 -24.32226562 154.9765625 C-24.21685855 166.05388739 -21.32019905 175.63027491 -17.125 185.8125 C-16.69058594 186.90498047 -16.25617188 187.99746094 -15.80859375 189.12304688 C-12.54121433 197.18356398 -9.52796266 204.07787057 -2 209 C0.81017982 209.40072961 3.14150405 209.24642206 6 209 C8.56880922 203.04903827 9.44849586 198.32664367 9.3125 191.875 C9.31572266 191.10285156 9.31894531 190.33070313 9.32226562 189.53515625 C9.27958744 184.98023047 8.71800826 181.28475367 7 177 C9.25808519 178.1290426 11.37734305 179.24527298 13.5 180.625 C22.75362326 184.260352 32.23542696 181.50956628 41.43359375 178.97265625 C44.28567332 178.19481637 47.09464041 177.53180956 50 177 C47.78065836 180.32901247 46.65316671 180.75023244 43 182 C43.60801383 187.4897481 45.4836638 192.05975078 47.6875 197.0625 C48.01427734 197.85205078 48.34105469 198.64160156 48.67773438 199.45507812 C50.9864235 204.72136135 53.24141409 207.73205546 58 211 C60.90541905 211.96847302 62.96637454 212.19582812 66 212.25 C66.86625 212.27578125 67.7325 212.3015625 68.625 212.328125 C71.03176464 212.17906071 71.03176464 212.17906071 72.78515625 210.75390625 C75.2447791 207.20287519 74.48179509 203.12202465 74 199 C72.27035755 190.94693353 69.57963784 183.49347945 65.953125 176.109375 C65 174 65 174 65 172 C64.34 172 63.68 172 63 172 C67 164 71 156 75 148 C75.33 148 75.66 148 76 148 C76.32744215 153.54516167 75.39248341 157.26219604 73.125 162.3125 C72.85558594 162.93189453 72.58617187 163.55128906 72.30859375 164.18945312 C71.10982366 166.88230009 70.10081924 168.89918076 68 171 C68.41106691 174.28853531 69.92689488 177.0511314 71.375 180 C75.66842142 189.38330363 79.19122079 200.62053308 77 211 C74.55706944 213.59913926 72.88054085 214.80915034 69.38671875 215.56640625 C61.38083453 215.55482031 56.9967149 213.6820799 51.1640625 208.30859375 C44.67090789 201.51771807 39.43295721 192.52505867 39 183 C38.40574219 183.144375 37.81148438 183.28875 37.19921875 183.4375 C28.44325802 185.39839945 20.53157994 186.14321366 12 183 C12.01571045 183.56920166 12.0314209 184.13840332 12.04760742 184.72485352 C12.11048439 187.33729874 12.14915532 189.9495841 12.1875 192.5625 C12.21263672 193.45775391 12.23777344 194.35300781 12.26367188 195.27539062 C12.32656015 200.99822407 11.74258826 204.94646569 9 210 C6.55048642 212.44951358 5.69575462 212.3494214 2.3125 212.4375 C-2.15972913 212.31523762 -4.96783145 211.61363491 -8.41015625 208.73828125 C-14.06340713 202.55720842 -17.18711045 194.77137733 -20 187 C-20.50236116 185.67048107 -21.00498622 184.34106184 -21.5078125 183.01171875 C-27.08776635 168.02087362 -30.43115059 154.48524483 -25 139 C-25.90878906 138.62101562 -25.90878906 138.62101562 -26.8359375 138.234375 C-31.27715201 135.70111907 -33.32439331 130.54424387 -35.3125 126 C-36.80276615 119.49702045 -36.55483073 114.70277229 -33.33984375 108.890625 C-30.1405769 104.37620764 -25.96714866 101.33107415 -21 99 C-21.26554687 97.9378125 -21.53109375 96.875625 -21.8046875 95.78125 C-23.9296875 87.28125 -23.9296875 87.28125 -24.46044922 85.1171875 C-24.80597139 83.76136476 -25.17534009 82.4112625 -25.57470703 81.0703125 C-27.2165154 75.35967469 -27.23101825 69.91255648 -27.125 64 C-27.11597656 63.03449219 -27.10695312 62.06898437 -27.09765625 61.07421875 C-27.07430791 58.71603674 -27.03844539 56.3579842 -27 54 C-30.63 53.34 -34.26 52.68 -38 52 C-38 51.34 -38 50.68 -38 50 C-36.85423404 48.95244255 -35.6560644 47.96190283 -34.4375 47 C-27.37190039 40.93845929 -23.14163862 33.32460677 -18.75 25.25 C-13.76189182 16.09189866 -7.62116143 7.19215566 0 0 Z " fill="#772525" transform="translate(210,39)"/>
<path d="M0 0 C8.15391409 1.18363269 15.02003145 4.21744111 20.4140625 10.69921875 C24.04147805 16.63876559 26 23.11109191 26 30 C29.96 30 33.92 30 38 30 C38.02707139 32.24993359 38.04642829 34.49996095 38.0625 36.75 C38.07410156 38.00296875 38.08570313 39.2559375 38.09765625 40.546875 C38.02021027 43.28536501 37.82780815 45.41880293 37 48 C37.99 48.33 38.98 48.66 40 49 C39.6414546 53.30254485 38.96786579 56.32897446 36.875 60.125 C35.02025758 63.54964939 34.9121757 65.19261494 36 69 C34 72 34 72 32.1953125 74.1171875 C29.31416029 77.90062226 27.13389867 81.94905379 24.875 86.125 C23.99848703 87.73236635 23.12092486 89.33916113 22.2421875 90.9453125 C21.8591748 91.65187988 21.47616211 92.35844727 21.08154297 93.08642578 C20.13027304 94.76950789 19.07240633 96.3913905 18 98 C17.00137441 95.77490707 16.00814139 93.54770336 15.0234375 91.31640625 C14.27537144 89.62326437 13.51596392 87.93512063 12.75 86.25 C11.90674725 83.72024175 11.84861053 81.64931572 12 79 C10.68 78.67 9.36 78.34 8 78 C7.1276745 74.22457523 6.83655399 70.68519302 6.8125 66.8125 C6.79832031 65.76707031 6.78414063 64.72164063 6.76953125 63.64453125 C7 61 7 61 9 59 C9.99 59 10.98 59 12 59 C12.13277344 59.95261719 12.26554687 60.90523437 12.40234375 61.88671875 C12.57894531 63.14097656 12.75554687 64.39523438 12.9375 65.6875 C13.11152344 66.92886719 13.28554688 68.17023438 13.46484375 69.44921875 C13.89822897 72.32474548 14.39649282 75.15644813 15 78 C15.99 77.505 15.99 77.505 17 77 C16.71125 76.28714844 16.4225 75.57429688 16.125 74.83984375 C13.98582962 69.32108128 12.47320716 64.92641939 13 59 C14.59952857 61.39929286 15.66872218 63.45858028 16.8125 66.0625 C18.27561725 69.07155246 18.70926054 69.84141484 21.75 71.5 C22.4925 71.665 23.235 71.83 24 72 C24.28875 71.2575 24.5775 70.515 24.875 69.75 C25.82302644 67.43260203 26.84845911 65.22082885 28 63 C27.443125 62.773125 26.88625 62.54625 26.3125 62.3125 C23.37495279 60.64524348 21.38188562 58.38188562 19 56 C16.83379456 54.70480005 16.83379456 54.70480005 15 54 C16.98 53.505 16.98 53.505 19 53 C17.68 52.67 16.36 52.34 15 52 C15.95823191 49.86240573 16.7582482 48.22953562 18.46875 46.60546875 C22.73012276 42.13754987 23.25612363 35.46430825 23.5 29.5625 C23.27695646 20.47082042 19.25578986 13.41218461 13 7 C10.06096475 4.83439508 7.79155546 3.94094071 4.25 2.9375 C2.64125 2.4734375 2.64125 2.4734375 1 2 C0.67 1.34 0.34 0.68 0 0 Z " fill="#823637" transform="translate(308,30)"/>
<path d="M0 0 C0.04898438 0.81984375 0.09796875 1.6396875 0.1484375 2.484375 C0.22320312 3.56203125 0.29796875 4.6396875 0.375 5.75 C0.44460937 6.81734375 0.51421875 7.8846875 0.5859375 8.984375 C0.97957741 11.85126192 1.39474094 13.61659842 3 16 C4.97522846 17.04808041 6.97481509 18.0520411 9 19 C11.33763605 23.67527211 10.50568831 29.92587755 10 35 C8.72808287 38.21816964 7.91027031 38.91219738 5 41 C0.00700993 41.22191067 -4.90897535 38.77717635 -9 36 C-13.64316259 31.49077479 -17.12200042 27.86735388 -17.3125 21.25 C-17.23442303 16.30275902 -16.36313791 13.78353015 -13 10 C-2.48275862 0 -2.48275862 0 0 0 Z " fill="#FACEC9" transform="translate(210,96)"/>
<path d="M0 0 C4.14729851 1.37022053 6.58232069 3.20185707 9.625 6.3125 C10.38039063 7.07175781 11.13578125 7.83101562 11.9140625 8.61328125 C15.98442486 13.27056852 17.74278567 17.17573696 18.19140625 23.30078125 C17.80724859 28.71818824 15.39081077 33.7403559 11.43359375 37.48046875 C7.31485152 40.33984619 3.72171261 41.12625601 -1.1875 41.0625 C-2.08855469 41.05347656 -2.98960937 41.04445312 -3.91796875 41.03515625 C-4.60503906 41.02355469 -5.29210937 41.01195312 -6 41 C-5.96699341 38.72854654 -5.89759995 36.45759874 -5.8125 34.1875 C-5.77769531 32.92292969 -5.74289062 31.65835938 -5.70703125 30.35546875 C-5 27 -5 27 -2.6484375 25.0625 C0.42929498 23.82777547 2.7108582 23.78072388 6 24 C6.66 24 7.32 24 8 24 C6.8448749 22.61822838 6.8448749 22.61822838 3.6875 22.875 C0.85351237 22.97106738 -1.33595099 23.14750432 -4 24 C-5.65176673 18.19173831 -6.21003056 11.94468976 -3.8828125 6.28125 C-2.67019727 4.11635501 -1.4106917 2.04046477 0 0 Z " fill="#F9F6F5" transform="translate(295,139)"/>
<path d="M0 0 C4.03252061 1.34417354 4.51301932 3.15176454 6.5625 6.8125 C7.46162109 8.39998047 7.46162109 8.39998047 8.37890625 10.01953125 C9.63436182 12.32775439 10.85043255 14.63795344 12 17 C11.01 17.66 10.02 18.32 9 19 C6.73828125 18.3203125 6.73828125 18.3203125 4.3125 17.125 C3.10013672 16.54105469 3.10013672 16.54105469 1.86328125 15.9453125 C1.24839844 15.63335937 0.63351563 15.32140625 0 15 C0 15.66 0 16.32 0 17 C0.94875 17.309375 1.8975 17.61875 2.875 17.9375 C6 19 6 19 8 20 C7.44151174 24.18358477 4.95553698 27.02629569 2.4375 30.25 C2.01275391 30.80429688 1.58800781 31.35859375 1.15039062 31.9296875 C0.10601659 33.29089411 -0.94622464 34.64605833 -2 36 C-5.39529917 34.58590577 -7.05912817 32.97643772 -9.1875 30 C-9.69667969 29.29875 -10.20585937 28.5975 -10.73046875 27.875 C-13.58126031 23.66460015 -13.5421435 19.97496391 -13 15 C-11.26325502 8.61628871 -7.23562201 5.0938942 -2.12109375 1.15234375 C-1.42113281 0.77207031 -0.72117188 0.39179688 0 0 Z " fill="#FAF7F6" transform="translate(189,139)"/>
<path d="M0 0 C5.41210437 6.5822891 5.60731151 12.7904498 5 21 C3.83639209 24.37446295 3.04973252 26.14466239 0.3125 28.375 C-4.14490015 29.57970274 -7.96186309 29.9118937 -12.19140625 28.01953125 C-15.83138097 25.84090918 -18.79724525 23.71714863 -21 20 C-20.34 20 -19.68 20 -19 20 C-18.87625 18.9275 -18.7525 17.855 -18.625 16.75 C-17.75609756 11.53658537 -17.75609756 11.53658537 -16 9 C-13.21398777 8.07132926 -11.38933911 7.83657783 -8.5 7.8125 C-7.7265625 7.79832031 -6.953125 7.78414062 -6.15625 7.76953125 C-4 8 -4 8 -1 10 C-1 10.66 -1 11.32 -1 12 C-0.34 12 0.32 12 1 12 C-0.86502588 9.37200898 -2.30410791 8.13634249 -5.4921875 7.51171875 C-7.9964272 7.27406427 -10.48653979 7.0959336 -13 7 C-6.5940367 -0.92316514 -6.5940367 -0.92316514 0 0 Z " fill="#9A3D46" transform="translate(322,44)"/>
<path d="M0 0 C2.2734375 -0.23828125 2.2734375 -0.23828125 5 0 C6.9140625 1.64453125 6.9140625 1.64453125 8.625 3.8125 C11.00353475 6.82296568 11.00353475 6.82296568 13.7734375 9.44921875 C15 11 15 11 14.74243164 13.2902832 C13.95269081 16.17266843 12.86417986 18.33544381 11.34765625 20.90625 C10.81849609 21.81503906 10.28933594 22.72382812 9.74414062 23.66015625 C9.18919922 24.59730469 8.63425781 25.53445312 8.0625 26.5 C6.96708689 28.36284288 5.87453774 30.22737345 4.78515625 32.09375 C4.29926025 32.91552734 3.81336426 33.73730469 3.31274414 34.58398438 C1.99905269 37.00174345 0.96888479 39.42699942 0 42 C-2.86469884 39.55392477 -3.92891276 37.14518652 -5.1875 33.625 C-5.70376953 32.22121094 -5.70376953 32.22121094 -6.23046875 30.7890625 C-6.98764758 28.04476969 -7.14916724 25.82903379 -7 23 C-8.32 22.67 -9.64 22.34 -11 22 C-11.8723255 18.22457523 -12.16344601 14.68519302 -12.1875 10.8125 C-12.20167969 9.76707031 -12.21585937 8.72164062 -12.23046875 7.64453125 C-12 5 -12 5 -10 3 C-9.01 3 -8.02 3 -7 3 C-6.86722656 3.95261719 -6.73445313 4.90523438 -6.59765625 5.88671875 C-6.42105469 7.14097656 -6.24445313 8.39523438 -6.0625 9.6875 C-5.88847656 10.92886719 -5.71445312 12.17023438 -5.53515625 13.44921875 C-5.10177103 16.32474548 -4.60350718 19.15644813 -4 22 C-3.34 21.67 -2.68 21.34 -2 21 C-2.28875 20.28714844 -2.5775 19.57429688 -2.875 18.83984375 C-5.01417038 13.32108128 -6.52679284 8.92641939 -6 3 C-4.40047143 5.39929286 -3.33127782 7.45858028 -2.1875 10.0625 C-0.72438275 13.07155246 -0.29073946 13.84141484 2.75 15.5 C3.4925 15.665 4.235 15.83 5 16 C5.433125 14.88625 5.433125 14.88625 5.875 13.75 C6.82302644 11.43260203 7.84845911 9.22082885 9 7 C8.443125 6.773125 7.88625 6.54625 7.3125 6.3125 C4.36753316 4.64103234 2.31843456 2.44723648 0 0 Z " fill="#F7F3F2" transform="translate(327,86)"/>
<path d="M0 0 C4.57627119 3.15254237 4.57627119 3.15254237 6 6 C6.15029677 8.49434832 6.23122109 10.94225298 6.25 13.4375 C6.270625 14.11876953 6.29125 14.80003906 6.3125 15.50195312 C6.35161725 20.49429167 6.35161725 20.49429167 4.671875 22.91015625 C0.89869362 25.36977682 -2.62535775 25.44487887 -7 25 C-10.47884669 22.99327106 -12.7062659 20.88120231 -14 17 C-14.39400565 12.10523751 -14.60186749 7.55218457 -12.8125 2.9375 C-8.95358466 -1.18754743 -5.30860173 -1.54834217 0 0 Z " fill="#9D709B" transform="translate(269,102)"/>
<path d="M0 0 C9.03562109 3.0118737 15.87157209 6.81157853 20.25 15.47265625 C23.87857755 24.22911943 24.51360649 33.09886357 21 42 C21.33 42.66 21.66 43.32 22 44 C20.7934375 44.680625 20.7934375 44.680625 19.5625 45.375 C16.91143428 46.74725665 16.91143428 46.74725665 16 49 C17.65 49 19.3 49 21 49 C20.67 49.66 20.34 50.32 20 51 C20.66 51.66 21.32 52.32 22 53 C22 53.66 22 54.32 22 55 C23.55855981 56.35712166 23.55855981 56.35712166 25.5 57.625 C26.47453125 58.29402344 26.47453125 58.29402344 27.46875 58.9765625 C27.9740625 59.31429687 28.479375 59.65203125 29 60 C27.94124926 63.40312738 26.99097846 66.01353231 25 69 C22.75 68.9375 22.75 68.9375 20 68 C18.30224235 65.77727782 17.24553731 63.53555809 16 61 C15.67 60.34 15.34 59.68 15 59 C14.66633796 56.88395526 14.40539682 54.75607876 14.1875 52.625 C14.05730469 51.48289063 13.92710937 50.34078125 13.79296875 49.1640625 C14 46 14 46 15.87890625 43.8515625 C16.57886719 43.24054688 17.27882813 42.62953125 18 42 C19.08409084 39.90324347 19.08409084 39.90324347 19.75 37.75 C20.1625 36.5125 20.575 35.275 21 34 C20.34 34 19.68 34 19 34 C19.06960938 32.62328125 19.06960938 32.62328125 19.140625 31.21875 C19.36535218 23.5780258 19.15109395 18.4860843 15 12 C12.03155565 11.64661377 9.84401782 11.4582318 7.265625 13.11328125 C5.79651181 14.35503168 4.39295186 15.67337918 3 17 C3.88751953 17.02126953 3.88751953 17.02126953 4.79296875 17.04296875 C9.35846843 17.31853725 11.44161431 17.53277932 15.0625 20.5625 C15.701875 21.366875 16.34125 22.17125 17 23 C16.67 23.99 16.34 24.98 16 26 C16 25.34 16 24.68 16 24 C14.35 24 12.7 24 11 24 C11.99 23.67 12.98 23.34 14 23 C12.85489241 21.3931662 12.85489241 21.3931662 11 20 C8.25756437 19.63729516 8.25756437 19.63729516 5.3125 19.8125 C4.31863281 19.83957031 3.32476562 19.86664063 2.30078125 19.89453125 C1.16189453 19.94673828 1.16189453 19.94673828 0 20 C1.71093633 15.16721302 3.7698266 12.98600476 8 10 C10.875 9.1875 10.875 9.1875 13 9 C7.7261808 5.48412053 4.37195954 4.04420607 -2 5 C-6.34942141 10.050941 -6.13559404 15.88519607 -6.0625 22.25 C-6.05798828 22.99507812 -6.05347656 23.74015625 -6.04882812 24.5078125 C-6.03709246 26.3385764 -6.0191585 28.16929873 -6 30 C-6.99 29.67 -7.98 29.34 -9 29 C-9.72007008 10.25150866 -9.72007008 10.25150866 -3.375 3 C-2.199375 2.01 -2.199375 2.01 -1 1 C-0.67 0.67 -0.34 0.34 0 0 Z " fill="#7D4252" transform="translate(307,33)"/>
<path d="M0 0 C0.38516445 13.26677552 0.19717393 25.62397862 -8.8125 36.109375 C-10.48452001 37.85106251 -12.09925399 39.5110025 -14 41 C-14.66 41 -15.32 41 -16 41 C-15.52581139 36.73230255 -14.93521 32.59724707 -14 28.40625 C-12.88133786 22.89844215 -12.56399489 17.48184833 -12.375 11.875 C-12.33632813 10.91851562 -12.29765625 9.96203125 -12.2578125 8.9765625 C-12.16479872 6.65121801 -12.07896229 4.32585665 -12 2 C-10.18769567 1.66560447 -8.3751509 1.33251176 -6.5625 1 C-5.04849609 0.7215625 -5.04849609 0.7215625 -3.50390625 0.4375 C-1 0 -1 0 0 0 Z " fill="#FAA2C6" transform="translate(314,92)"/>
<path d="M0 0 C2.8100346 1.79363911 4.50940468 3.01880935 6 6 C6.59876591 11.31190901 6.89147326 15.57921449 4 20.1875 C0.73803025 22.15827339 -1.22531819 22.87021011 -4.99609375 22.60546875 C-8.24735269 21.62311956 -9.93536915 19.82098231 -11.93359375 17.13671875 C-13.78791875 13.42127636 -13.77671911 10.02687385 -13 6 C-10.18109067 -0.15034762 -6.53379374 -0.93876347 0 0 Z " fill="#9E6F99" transform="translate(224,92)"/>
<path d="M0 0 C3.75519057 0.51207144 6.66688525 1.2175082 10 3 C11.27438972 15.03590289 6.78658386 26.32826842 -0.37890625 35.828125 C-2.47201683 38.34262087 -4.25761356 40.17174237 -7 42 C-10.1875 42.125 -10.1875 42.125 -13 42 C-15.68835204 35.97809143 -16.40122689 32.46720103 -15 26 C-13.9375 23.5 -13.9375 23.5 -13 22 C-11.9790625 22.99 -11.9790625 22.99 -10.9375 24 C-7.26383061 26.50122172 -5.36916255 26.54614532 -1 26 C1.89299553 25.09762034 1.89299553 25.09762034 4 23 C5.94011145 18.28830076 7.14644819 13.05392577 6 8 C4.27800095 5.07160045 2.26058124 2.52969806 0 0 Z " fill="#F9CCC8" transform="translate(270,100)"/>
<path d="M0 0 C2.25544042 -0.30735461 3.78947266 -0.87197662 5.734375 -2.0546875 C9.16411891 -3.48571858 12.59951233 -3.20884512 16.25 -3.125 C16.99507813 -3.11597656 17.74015625 -3.10695313 18.5078125 -3.09765625 C20.33868059 -3.07418358 22.16938238 -3.03831525 24 -3 C24 -2.67 24 -2.34 24 -2 C22.37191406 -1.85304688 22.37191406 -1.85304688 20.7109375 -1.703125 C19.26553435 -1.55295324 17.82022647 -1.40186268 16.375 -1.25 C15.66214844 -1.188125 14.94929688 -1.12625 14.21484375 -1.0625 C9.22542045 -0.51320569 5.91531689 0.6372954 2 4 C0.33163295 6.37744327 0.33163295 6.37744327 0 9 C0.88964285 11.13592771 0.88964285 11.13592771 2.5625 13.0625 C16.45897614 32.29648629 17.44315374 55.33138509 16 78 C15.67 78 15.34 78 15 78 C15.00112793 77.2972998 15.00225586 76.59459961 15.00341797 75.87060547 C14.91430918 52.03981689 12.25059358 24.58017589 -5.45703125 6.578125 C-7.16066486 4.83567443 -8.5724453 2.97199749 -10 1 C-7.0280615 2.12451727 -4.66559313 3.22293791 -2 5 C-1.67 3.68 -1.34 2.36 -1 1 C-11.40117638 -2.81376467 -21.26946337 -4.17446623 -32.3125 -4.25 C-33.16046143 -4.25926514 -34.00842285 -4.26853027 -34.88208008 -4.27807617 C-39.96774512 -4.25255527 -44.18138024 -3.63872089 -49 -2 C-49 -1.34 -49 -0.68 -49 0 C-48.01 0.66 -47.02 1.32 -46 2 C-46.33 2.66 -46.66 3.32 -47 4 C-47.804375 3.505 -48.60875 3.01 -49.4375 2.5 C-53.83431529 0.64870935 -57.29711414 0.11026484 -62 1 C-64.26882746 2.13441373 -66.23671752 3.39756853 -68.2734375 4.90625 C-70 6 -70 6 -73 6 C-67.79526143 -0.072195 -61.72072838 -2.01736184 -54 -3 C-51.6485148 -3.95653635 -49.31254012 -4.95281202 -47 -6 C-33.16410585 -10.71823119 -12.38649736 -6.80042992 0 0 Z " fill="#8E3339" transform="translate(284,33)"/>
<path d="M0 0 C0.33 0 0.66 0 1 0 C1.32744215 5.54516167 0.39248341 9.26219604 -1.875 14.3125 C-2.14441406 14.93189453 -2.41382813 15.55128906 -2.69140625 16.18945312 C-3.89017634 18.88230009 -4.89918076 20.89918076 -7 23 C-6.58893309 26.28853531 -5.07310512 29.0511314 -3.625 32 C0.66842142 41.38330363 4.19122079 52.62053308 2 63 C-0.44293056 65.59913926 -2.11945915 66.80915034 -5.61328125 67.56640625 C-13.61916547 67.55482031 -18.0032851 65.6820799 -23.8359375 60.30859375 C-29.62850392 54.2504293 -35.35968691 45.88658378 -35.375 37.25 C-35.189375 35.64125 -35.189375 35.64125 -35 34 C-32.36180806 36.31845379 -31.21420064 38.45308088 -29.94921875 41.7109375 C-29.57990234 42.62617188 -29.21058594 43.54140625 -28.83007812 44.484375 C-28.07260791 46.40070989 -27.32251219 48.31997726 -26.58007812 50.2421875 C-24.22377748 56.03730341 -22.276309 59.53942487 -17 63 C-14.09458095 63.96847302 -12.03362546 64.19582812 -9 64.25 C-8.13375 64.27578125 -7.2675 64.3015625 -6.375 64.328125 C-3.96823536 64.17906071 -3.96823536 64.17906071 -2.21484375 62.75390625 C0.2447791 59.20287519 -0.51820491 55.12202465 -1 51 C-2.72964245 42.94693353 -5.42036216 35.49347945 -9.046875 28.109375 C-10 26 -10 26 -10 24 C-10.66 24 -11.32 24 -12 24 C-8 16 -4 8 0 0 Z " fill="#701A18" transform="translate(285,187)"/>
<path d="M0 0 C2.86252413 2.61360899 3.91714475 4.52931934 4.140625 8.49609375 C4.19476563 9.95208984 4.19476563 9.95208984 4.25 11.4375 C4.98146095 20.86648882 8.39054166 29.20169999 15 36 C13.12690757 37.87309243 9.75576041 37.17721858 7.25 37.25 C1.65678294 37.52976219 1.65678294 37.52976219 -3.0625 40.3125 C-3.701875 41.199375 -4.34125 42.08625 -5 43 C-6.64864545 44.35555293 -8.31003995 45.69631653 -10 47 C-11.64697015 42.15597014 -12.16523643 38.97873749 -11 34 C-9.99953491 28.88223625 -9.69023227 23.82051247 -9.4375 18.625 C-9.39431641 17.79355469 -9.35113281 16.96210937 -9.30664062 16.10546875 C-9.20138195 14.07046772 -9.10026928 12.03525297 -9 10 C-5.01583378 15.97624932 -6.86618108 24.19708651 -8 31 C-8.08788599 35.00139762 -8.05827726 38.99829509 -8 43 C-7.01 41.68 -6.02 40.36 -5 39 C-5.66 38.67 -6.32 38.34 -7 38 C-5.8553125 37.0409375 -5.8553125 37.0409375 -4.6875 36.0625 C-0.20349977 31.53897924 1.1361177 25.36053575 1.328125 19.140625 C1.31769055 17.51024207 1.29159198 15.87988573 1.25 14.25 C1.24484375 13.42628906 1.2396875 12.60257813 1.234375 11.75390625 C1.18239647 7.71907285 0.99176029 3.93504887 0 0 Z " fill="#7C2827" transform="translate(259,62)"/>
<path d="M0 0 C4.70935664 0.1031246 7.47801699 1.71433832 11.3125 4.375 C11.6425 5.035 11.9725 5.695 12.3125 6.375 C11.095625 6.58125 9.87875 6.7875 8.625 7 C4.86699043 7.96104301 2.75246981 9.30129151 0.40625 12.52734375 C-2.36015748 17.20059639 -4.48819961 22.07409228 -5.6875 27.375 C-6.6775 27.045 -7.6675 26.715 -8.6875 26.375 C-9.24945662 9.22491657 -9.24945662 9.22491657 -5.6875 2.375 C-3.6875 0.375 -3.6875 0.375 0 0 Z " fill="#F9A3C5" transform="translate(308.6875,36.625)"/>
<path d="M0 0 C9.64928564 3.21642855 15.65829739 7.43049566 20.875 16.125 C22.95290501 21.41089871 22.22606615 27.43207452 22 33 C20.515 33.495 20.515 33.495 19 34 C19.06960938 32.62328125 19.06960938 32.62328125 19.140625 31.21875 C19.36535218 23.5780258 19.15109395 18.4860843 15 12 C12.03155565 11.64661377 9.84401782 11.4582318 7.265625 13.11328125 C5.79651181 14.35503168 4.39295186 15.67337918 3 17 C3.88751953 17.02126953 3.88751953 17.02126953 4.79296875 17.04296875 C9.35846843 17.31853725 11.44161431 17.53277932 15.0625 20.5625 C15.701875 21.366875 16.34125 22.17125 17 23 C16.67 23.99 16.34 24.98 16 26 C16 25.34 16 24.68 16 24 C14.35 24 12.7 24 11 24 C11.99 23.67 12.98 23.34 14 23 C12.85489241 21.3931662 12.85489241 21.3931662 11 20 C8.25756437 19.63729516 8.25756437 19.63729516 5.3125 19.8125 C4.31863281 19.83957031 3.32476562 19.86664063 2.30078125 19.89453125 C1.16189453 19.94673828 1.16189453 19.94673828 0 20 C1.71093633 15.16721302 3.7698266 12.98600476 8 10 C10.875 9.1875 10.875 9.1875 13 9 C7.7261808 5.48412053 4.37195954 4.04420607 -2 5 C-6.34942141 10.050941 -6.13559404 15.88519607 -6.0625 22.25 C-6.05798828 22.99507812 -6.05347656 23.74015625 -6.04882812 24.5078125 C-6.03709246 26.3385764 -6.0191585 28.16929873 -6 30 C-6.99 29.67 -7.98 29.34 -9 29 C-9.72007008 10.25150866 -9.72007008 10.25150866 -3.375 3 C-2.199375 2.01 -2.199375 2.01 -1 1 C-0.67 0.67 -0.34 0.34 0 0 Z " fill="#8F3238" transform="translate(307,33)"/>
<path d="M0 0 C0.33 0 0.66 0 1 0 C1.33 5.94 1.66 11.88 2 18 C3.32 18.66 4.64 19.32 6 20 C7.40742577 22.0006721 8.50275727 24.06765125 9.65625 26.22265625 C10.87839757 28.1819108 10.87839757 28.1819108 13.15625 28.74609375 C13.7646875 28.82988281 14.373125 28.91367188 15 29 C14.505 27.96875 14.01 26.9375 13.5 25.875 C12.02526098 22.47548422 11.72708894 19.72978451 12 16 C14.00999773 19.0149966 14.99443731 21.66321657 16.12109375 25.0625 C17.04138193 27.39321666 17.04138193 27.39321666 20 30 C21.65 27.36 23.3 24.72 25 22 C26 26 26 26 25.00390625 28.140625 C24.29041016 29.18476562 24.29041016 29.18476562 23.5625 30.25 C23.08941406 30.95640625 22.61632812 31.6628125 22.12890625 32.390625 C21.75636719 32.92171875 21.38382813 33.4528125 21 34 C19.5608866 33.71640113 18.12374482 33.42278601 16.6875 33.125 C15.88699219 32.96257812 15.08648437 32.80015625 14.26171875 32.6328125 C12 32 12 32 9 30 C8.896875 30.94875 8.79375 31.8975 8.6875 32.875 C8 36 8 36 5 38 C5.33 37.01 5.66 36.02 6 35 C6.57706178 29.67454416 6.90094499 25.43588107 4 20.8125 C-0.08574536 18.34402884 -2.27225763 18.54247654 -7 19 C-7.99 19.33 -8.98 19.66 -10 20 C-10.33 18.35 -10.66 16.7 -11 15 C-9.54176788 14.9729957 -8.08339325 14.95360213 -6.625 14.9375 C-5.81289062 14.92589844 -5.00078125 14.91429688 -4.1640625 14.90234375 C-2 15 -2 15 0 16 C-0.33 15.34 -0.66 14.68 -1 14 C-1.09649939 12.0018949 -1.12980872 10.0004282 -1.125 8 C-1.12757813 6.9275 -1.13015625 5.855 -1.1328125 4.75 C-1 2 -1 2 0 0 Z " fill="#832B2D" transform="translate(223,74)"/>
<path d="M0 0 C0.33 0 0.66 0 1 0 C1.61916858 30.5392995 1.61916858 30.5392995 -2 42 C0.64 39.69 3.28 37.38 6 35 C6 38 6 38 4.28515625 39.75390625 C3.55167969 40.35074219 2.81820313 40.94757813 2.0625 41.5625 C-0.92648955 43.91285524 -0.92648955 43.91285524 -3 47 C-1.9790625 47.2784375 -1.9790625 47.2784375 -0.9375 47.5625 C6.04619306 50.98005192 11.30415121 57.75490638 14 65 C13.67 65.99 13.34 66.98 13 68 C12.72414063 67.41863281 12.44828125 66.83726562 12.1640625 66.23828125 C8.41830339 59.03586524 2.35829269 51.67914635 -5 48 C-5.4021875 49.3921875 -5.4021875 49.3921875 -5.8125 50.8125 C-6.91148371 53.76240366 -7.62418561 55.05615186 -10 57 C-9.40346905 53.5297627 -8.48413102 50.55677999 -7.07421875 47.3359375 C-4.9614013 42.17084829 -3.76010001 37.1121028 -2.8125 31.625 C-2.56161621 30.22000244 -2.56161621 30.22000244 -2.30566406 28.78662109 C-0.69913108 19.22598622 -0.20996826 9.67953695 0 0 Z " fill="#741F20" transform="translate(300,91)"/>
<path d="M0 0 C0.47308594 0.38671875 0.94617188 0.7734375 1.43359375 1.171875 C18.04760342 14.25581244 38.69541069 14.85647231 59 16 C59 16.33 59 16.66 59 17 C43.33895673 18.1451751 30.80193972 17.84287094 16 12 C17.98 16.95 19.96 21.9 22 27 C16.3933458 26.06555763 14.36908502 25.22480085 10 22 C9.34 22.33 8.68 22.66 8 23 C8 22.01 8 21.02 8 20 C11.98124131 20.56874876 14.61272328 21.87654754 18 24 C17.71125 23.22914063 17.4225 22.45828125 17.125 21.6640625 C16.75375 20.66117188 16.3825 19.65828125 16 18.625 C15.62875 17.62726563 15.2575 16.62953125 14.875 15.6015625 C14 13 14 13 14 11 C13.175 10.814375 12.35 10.62875 11.5 10.4375 C6.87557549 8.53818279 3.39813374 5.65687488 0 2 C0 1.34 0 0.68 0 0 Z " fill="#893A3C" transform="translate(195,126)"/>
<path d="M0 0 C5.70709064 0.46588495 9.15939723 1.93757784 14 5 C12.50829734 9.9723422 10.39542583 14.41845739 8 19 C1.46380697 13.8847185 1.46380697 13.8847185 0 10 C-0.1953125 7.421875 -0.1953125 7.421875 -0.125 4.75 C-0.09792969 3.41195312 -0.09792969 3.41195312 -0.0703125 2.046875 C-0.04710937 1.37140625 -0.02390625 0.6959375 0 0 Z " fill="#F8F4F4" transform="translate(333,75)"/>
<path d="M0 0 C1.89510699 -0.08160748 3.79124504 -0.13946459 5.6875 -0.1875 C6.74324219 -0.22230469 7.79898437 -0.25710937 8.88671875 -0.29296875 C12.39584035 0.03724972 14.22052946 0.86467683 17 3 C17.5625 5.5 17.5625 5.5 17 8 C14.6513529 10.72443064 13.15153994 10.98346837 9.5625 11.375 C5.82326244 10.98139605 3.95986968 10.26342975 1 8 C-0.35439668 5.29120665 -0.06501451 2.99066732 0 0 Z " fill="#CCA2F8" transform="translate(257,114)"/>
<path d="M0 0 C2.63819194 2.31845379 3.78579936 4.45308088 5.05078125 7.7109375 C5.42009766 8.62617188 5.78941406 9.54140625 6.16992188 10.484375 C6.92739209 12.40070989 7.67748781 14.31997726 8.41992188 16.2421875 C10.77622252 22.03730341 12.723691 25.53942487 18 29 C20.90541905 29.96847302 22.96637454 30.19582812 26 30.25 C27.299375 30.28867188 27.299375 30.28867188 28.625 30.328125 C31.02978566 30.18488307 31.02978566 30.18488307 32.73828125 28.74609375 C34.17388033 26.75936685 34.67831325 25.20176093 35.1875 22.8125 C35.455625 21.554375 35.72375 20.29625 36 19 C36.33 19 36.66 19 37 19 C37.76378321 27.89383121 37.76378321 27.89383121 35.1875 31.625 C29.82561388 33.93797048 24.27640679 34.23648743 18.75390625 32.15234375 C9.55389611 26.86188957 3.64324619 17.76755608 0 8 C-0.4214781 5.10732928 -0.33757205 2.92562443 0 0 Z " fill="#701C1A" transform="translate(250,221)"/>
<path d="M0 0 C2.10388569 -0.05402274 4.20816714 -0.09280256 6.3125 -0.125 C8.07013672 -0.15980469 8.07013672 -0.15980469 9.86328125 -0.1953125 C13 0 13 0 16 2 C15.6875 4.875 15.6875 4.875 15 8 C11.31743985 10.4550401 8.27540289 10.81357181 4 10 C0.9375 7.8125 0.9375 7.8125 -1 5 C-0.62109375 2.32421875 -0.62109375 2.32421875 0 0 Z " fill="#CCA2F8" transform="translate(213,104)"/>
<path d="M0 0 C3.3 0 6.6 0 10 0 C10 4.29 10 8.58 10 13 C5.41405552 14.52864816 2.48674967 12.62563394 -2 11 C-1.34 7.37 -0.68 3.74 0 0 Z " fill="#F9F7F6" transform="translate(334,62)"/>
<path d="M0 0 C0.79390137 -0.00064453 1.58780273 -0.00128906 2.40576172 -0.00195312 C9.27418403 0.05886607 15.81693571 0.85268869 22.5625 2.1875 C22.5625 2.8475 22.5625 3.5075 22.5625 4.1875 C21.325 4.0225 20.0875 3.8575 18.8125 3.6875 C13.33391522 3.14514369 7.87581671 3.04019596 2.375 3 C1.5200293 2.98710937 0.66505859 2.97421875 -0.21582031 2.9609375 C-5.35324609 2.95295703 -9.57201539 3.52177929 -14.4375 5.1875 C-14.4375 5.8475 -14.4375 6.5075 -14.4375 7.1875 C-13.4475 7.8475 -12.4575 8.5075 -11.4375 9.1875 C-11.7675 9.8475 -12.0975 10.5075 -12.4375 11.1875 C-13.241875 10.6925 -14.04625 10.1975 -14.875 9.6875 C-19.27181529 7.83620935 -22.73461414 7.29776484 -27.4375 8.1875 C-29.70632746 9.32191373 -31.67421752 10.58506853 -33.7109375 12.09375 C-35.4375 13.1875 -35.4375 13.1875 -38.4375 13.1875 C-33.23276143 7.115305 -27.15822838 5.17013816 -19.4375 4.1875 C-17.0860148 3.23096365 -14.75004012 2.23468798 -12.4375 1.1875 C-8.32213364 -0.03396978 -4.2617636 -0.00355221 0 0 Z " fill="#914143" transform="translate(249.4375,25.8125)"/>
<path d="M0 0 C1 2 1 2 0.8125 5.375 C0.69727484 8.93459652 0.69727484 8.93459652 2.4375 11.25 C6.0283058 13.70225762 9.83975735 14.82659823 14 16 C14 16.66 14 17.32 14 18 C10.26982994 19.86508503 6.06043324 19.56882373 2 19 C-0.76262928 17.60650446 -2.63943925 16.05266152 -5 14 C-4.09068323 5.05838509 -4.09068323 5.05838509 -2 1 C-1.34 0.67 -0.68 0.34 0 0 Z " fill="#F89FC2" transform="translate(309,52)"/>
<path d="M0 0 C4.10786603 4.99605328 5.13063432 8.85100835 5.0625 15.1875 C5.05347656 16.27417969 5.04445313 17.36085938 5.03515625 18.48046875 C5.02355469 19.31191406 5.01195312 20.14335938 5 21 C3.9799754 18.97361184 2.97332505 16.94383673 2 14.89453125 C1.67 14.20746094 1.34 13.52039062 1 12.8125 C0.67 12.11769531 0.34 11.42289063 0 10.70703125 C-0.89345782 8.82589525 -0.89345782 8.82589525 -3 8 C-4.70363822 7.77377919 -6.41328701 7.59111527 -8.125 7.4375 C-9.03507812 7.35371094 -9.94515625 7.26992188 -10.8828125 7.18359375 C-11.58148438 7.12300781 -12.28015625 7.06242187 -13 7 C-6.5940367 -0.92316514 -6.5940367 -0.92316514 0 0 Z " fill="#F8A1C4" transform="translate(322,44)"/>
<path d="M0 0 C0.66 0.33 1.32 0.66 2 1 C1.44054687 1.59941406 0.88109375 2.19882812 0.3046875 2.81640625 C-6.49139444 10.49750851 -11.73810823 18.78994806 -16.91259766 27.63696289 C-21.75566644 35.86123963 -27.02221027 43.44510662 -34 50 C-32.02 50.33 -30.04 50.66 -28 51 C-28 51.33 -28 51.66 -28 52 C-31.3 52 -34.6 52 -38 52 C-38 51.34 -38 50.68 -38 50 C-36.85423404 48.95244255 -35.6560644 47.96190283 -34.4375 47 C-27.37190039 40.93845929 -23.14163862 33.32460677 -18.75 25.25 C-13.76189182 16.09189866 -7.62116143 7.19215566 0 0 Z " fill="#781F1F" transform="translate(210,39)"/>
<path d="M0 0 C0.495 0.99 0.495 0.99 1 2 C0.06725891 3.12894876 -0.87140122 4.25300876 -1.8125 5.375 C-2.33457031 6.00148437 -2.85664063 6.62796875 -3.39453125 7.2734375 C-5 9 -5 9 -8 11 C-2.36890761 9.8349464 1.25526817 8.38909416 6 5 C6.66 5 7.32 5 8 5 C7.05190239 11.90554677 5.46413864 17.51998366 1 23 C0.01 23.495 0.01 23.495 -1 24 C-0.72414063 23.46890625 -0.44828125 22.9378125 -0.1640625 22.390625 C1.21708904 19.55416613 2.42064641 16.66580343 3.625 13.75 C4.29402344 12.13351563 4.29402344 12.13351563 4.9765625 10.484375 C5.31429687 9.66453125 5.65203125 8.8446875 6 8 C5.071875 8.639375 4.14375 9.27875 3.1875 9.9375 C-0.68467408 12.4430244 -3.17925935 13.12783682 -7.6875 13.0625 C-8.89986328 13.04896484 -8.89986328 13.04896484 -10.13671875 13.03515625 C-11.05904297 13.01775391 -11.05904297 13.01775391 -12 13 C-12 12.34 -12 11.68 -12 11 C-12.57975586 11.16298584 -13.15951172 11.32597168 -13.75683594 11.49389648 C-17.22673123 12.27677556 -20.712623 12.10312359 -24.25 12.0625 C-24.99507812 12.05798828 -25.74015625 12.05347656 -26.5078125 12.04882812 C-28.3385764 12.03709246 -30.16929873 12.0191585 -32 12 C-32 11.67 -32 11.34 -32 11 C-31.3294458 10.96559814 -30.6588916 10.93119629 -29.96801758 10.89575195 C-26.91428215 10.72543986 -23.86396933 10.51934825 -20.8125 10.3125 C-19.75740234 10.25900391 -18.70230469 10.20550781 -17.61523438 10.15039062 C-11.27650658 9.73289196 -11.27650658 9.73289196 -5.90625 6.5625 C-5.2771875 5.716875 -4.648125 4.87125 -4 4 C-2.66666667 2.66666667 -1.33333333 1.33333333 0 0 Z " fill="#711817" transform="translate(272,132)"/>
<path d="M0 0 C0.99 0 1.98 0 3 0 C3.13277344 0.95261719 3.26554687 1.90523438 3.40234375 2.88671875 C3.57894531 4.14097656 3.75554687 5.39523438 3.9375 6.6875 C4.11152344 7.92886719 4.28554688 9.17023438 4.46484375 10.44921875 C5.07575797 14.75726398 5.07575797 14.75726398 6 19 C6.66 19.33 7.32 19.66 8 20 C5.03 19.67 2.06 19.34 -1 19 C-1.8723255 15.22457523 -2.16344601 11.68519302 -2.1875 7.8125 C-2.20167969 6.76707031 -2.21585937 5.72164063 -2.23046875 4.64453125 C-2 2 -2 2 0 0 Z " fill="#9B94C2" transform="translate(317,89)"/>
<path d="M0 0 C0.66 0.33 1.32 0.66 2 1 C0.88625 1.6496875 0.88625 1.6496875 -0.25 2.3125 C-4.00109039 4.61430547 -6.53927058 6.30890588 -9 10 C-9 8.68 -9 7.36 -9 6 C-9.59425781 6.144375 -10.18851563 6.28875 -10.80078125 6.4375 C-19.76410005 8.44483734 -27.212316 8.929228 -36 6 C-36 12.6 -36 19.2 -36 26 C-36.33 26 -36.66 26 -37 26 C-37 18.41 -37 10.82 -37 3 C-35.02 3.66 -33.04 4.32 -31 5 C-20.39645609 6.3449923 -9.98342901 3.32780967 0 0 Z " fill="#752A2A" transform="translate(258,216)"/>
<path d="M0 0 C3.63 0 7.26 0 11 0 C10.01 0.495 10.01 0.495 9 1 C9 1.99 9 2.98 9 4 C7 5.6875 7 5.6875 5 7 C6.32 7 7.64 7 9 7 C9 7.66 9 8.32 9 9 C3.65587045 12.03643725 3.65587045 12.03643725 0.75 11.875 C-1 11 -1 11 -3 8 C-2.6758631 4.67759676 -2.39223697 3.39223697 0 1 C0 0.67 0 0.34 0 0 Z " fill="#9E8BB5" transform="translate(306,81)"/>
<path d="M0 0 C7.33566206 1.71948908 14.35212766 8.27112501 18.31640625 14.54296875 C22.78433055 23.3294717 25.83995777 32.59548987 25.31640625 42.54296875 C23.39742566 39.28070174 22.58114271 35.93095081 21.66821289 32.29760742 C18.96275152 21.59978511 15.81310664 12.00880732 6.31640625 5.54296875 C1.62406155 2.80576767 -3.4146683 3.35881213 -8.68359375 3.54296875 C-6.04934777 0.53010026 -4.0941093 -0.15833572 0 0 Z " fill="#7E2125" transform="translate(253.68359375,36.45703125)"/>
<path d="M0 0 C0.66 2.97 1.32 5.94 2 9 C-3.39449293 9.27429625 -6.51925805 9.36055646 -11 6 C-10 3 -10 3 -7.75 1.3125 C-4.8635748 -0.06511203 -3.14826764 -0.26985151 0 0 Z " fill="#FAA5C7" transform="translate(323,57)"/>
<path d="M0 0 C1.77734375 0.07421875 1.77734375 0.07421875 4 1 C5.40462356 3.28666674 6.49778533 5.3734221 7.5625 7.8125 C7.86478516 8.48667969 8.16707031 9.16085938 8.47851562 9.85546875 C12.00590093 17.96615947 15.21140595 26.15437619 13 35 C12.67 35 12.34 35 12 35 C11.82984375 34.18917969 11.6596875 33.37835938 11.484375 32.54296875 C10.0578701 26.02505542 8.36404018 19.82273602 5.984375 13.58984375 C4.53164539 9.76778134 3.26682626 5.88685331 2 2 C1.34 2 0.68 2 0 2 C0 1.34 0 0.68 0 0 Z " fill="#7F3432" transform="translate(273,209)"/>
<path d="M0 0 C1 3 1 3 -0.15234375 5.35546875 C-0.74144531 6.29003906 -1.33054687 7.22460938 -1.9375 8.1875 C-5.02908964 13.26743056 -7.80407303 18.41836529 -10.4375 23.75 C-10.79126709 24.46567139 -11.14503418 25.18134277 -11.50952148 25.91870117 C-12.34292431 27.61087395 -13.1719561 29.30519845 -14 31 C-16.79233071 28.44722581 -17.48967606 26.77639718 -18 23 C-17.01 23.99 -16.02 24.98 -15 26 C-14.65219482 25.35450195 -14.30438965 24.70900391 -13.94604492 24.04394531 C-12.36319914 21.1108158 -10.77540651 18.18039264 -9.1875 15.25 C-8.64029297 14.23421875 -8.09308594 13.2184375 -7.52929688 12.171875 C-6.99755859 11.1921875 -6.46582031 10.2125 -5.91796875 9.203125 C-5.43094482 8.30239258 -4.9439209 7.40166016 -4.44213867 6.47363281 C-3.09973182 4.17106532 -1.64634098 2.09262537 0 0 Z " fill="#752827" transform="translate(341,101)"/>
<path d="M0 0 C0.57105469 0.12117187 1.14210937 0.24234375 1.73046875 0.3671875 C14.480813 3.00239378 27.01380819 4.40901163 40 5 C40 5.33 40 5.66 40 6 C25.88085138 7.03242786 13.30099749 7.62734509 0 2 C0 1.34 0 0.68 0 0 Z " fill="#8E4B49" transform="translate(214,137)"/>
<path d="M0 0 C5.35152885 0.32433508 8.28280043 3.49704824 12 7 C11.34 8.65 10.68 10.3 10 12 C8.68 12 7.36 12 6 12 C4.296875 9.8828125 4.296875 9.8828125 2.75 7.125 C1.96882813 5.76761719 1.96882813 5.76761719 1.171875 4.3828125 C0 2 0 2 0 0 Z " fill="#9A92C1" transform="translate(322,87)"/>
<path d="M0 0 C1.28046269 2.56092537 0.70340541 3.27729471 0 6 C-0.11555812 7.85161729 -0.17487975 9.70732319 -0.1875 11.5625 C-0.20167969 12.51253906 -0.21585937 13.46257812 -0.23046875 14.44140625 C-0.18358888 17.24225243 -0.18358888 17.24225243 2 20 C5.60572704 21.20190901 8.2102435 21.32670315 12 21 C14.90809543 19.14283813 14.90809543 19.14283813 17 17 C16.69611836 19.93752254 16.19330344 20.84080893 13.875 22.75 C10.21607333 24.34083768 7.95890249 24.55563544 4 24 C0.52758281 21.97248124 -1.70279738 19.89160785 -3 16 C-3.90782977 4.72196097 -3.90782977 4.72196097 0 0 Z " fill="#79262A" transform="translate(258,103)"/>
<path d="M0 0 C0.33 0.99 0.66 1.98 1 3 C3.31 3 5.62 3 8 3 C7.938125 3.78375 7.87625 4.5675 7.8125 5.375 C8.06207574 10.20013103 9.4848682 14.43656733 11 19 C10.34 19.66 9.68 20.32 9 21 C8.32844651 18.73050898 7.6626037 16.4596039 7 14.1875 C6.443125 12.29064453 6.443125 12.29064453 5.875 10.35546875 C5 7 5 7 5 4 C4.01 4 3.02 4 2 4 C1.91363281 4.6290625 1.82726562 5.258125 1.73828125 5.90625 C0.69437014 12.26548829 -1.19844236 16.80550521 -5 22 C-5.33 21.01 -5.66 20.02 -6 19 C-5.02207823 17.4150923 -4.04317425 15.83077976 -3.05859375 14.25 C-0.96700521 9.80440959 -0.60348137 4.8357915 0 0 Z " fill="#8B4445" transform="translate(313,105)"/>
<path d="M0 0 C1.32 0.66 2.64 1.32 4 2 C4.0872253 6.39570794 4.14046869 10.79119271 4.1875 15.1875 C4.21263672 16.43337891 4.23777344 17.67925781 4.26367188 18.96289062 C4.27817383 20.7659668 4.27817383 20.7659668 4.29296875 22.60546875 C4.31653442 24.26292114 4.31653442 24.26292114 4.34057617 25.95385742 C3.92479553 29.67263526 2.66404356 32.33595644 0 35 C-2.67058851 35.14115161 -5.32432238 35.04247107 -8 35 C-8.33 34.34 -8.66 33.68 -9 33 C-6.36 32.67 -3.72 32.34 -1 32 C1.56880922 26.04903827 2.44849586 21.32664367 2.3125 14.875 C2.31572266 14.10285156 2.31894531 13.33070313 2.32226562 12.53515625 C2.27958744 7.98023047 1.71800826 4.28475367 0 0 Z " fill="#6D1514" transform="translate(217,216)"/>
<path d="M0 0 C2.01803703 2.69071604 3.89679003 5.29643109 5.6875 8.125 C6.34298828 9.14980469 6.34298828 9.14980469 7.01171875 10.1953125 C8 12 8 12 8 14 C4.37 13.67 0.74 13.34 -3 13 C-2.01 8.71 -1.02 4.42 0 0 Z " fill="#F5EFEE" transform="translate(262,83)"/>
<path d="M0 0 C2.86252413 2.61360899 3.91714475 4.52931934 4.140625 8.49609375 C4.17671875 9.46675781 4.2128125 10.43742187 4.25 11.4375 C4.87755729 19.76781696 7.73321309 27.47041623 13 34 C12.34 34.66 11.68 35.32 11 36 C10.0204042 34.20856793 9.0413367 32.41684696 8.0625 30.625 C7.24458984 29.12839844 7.24458984 29.12839844 6.41015625 27.6015625 C5.5850241 26.07929654 4.77435609 24.54871217 4 23 C3.34 23.33 2.68 23.66 2 24 C1.93941406 22.68644531 1.87882812 21.37289062 1.81640625 20.01953125 C1.73196744 18.28384459 1.64732112 16.54816802 1.5625 14.8125 C1.52318359 13.94818359 1.48386719 13.08386719 1.44335938 12.19335938 C1.23652984 8.04085878 0.99896469 4.05462138 0 0 Z " fill="#9F4850" transform="translate(259,62)"/>
<path d="M0 0 C3.98416622 5.97624932 2.13381892 14.19708651 1 21 C0.9089371 25.00141098 0.94802876 28.99821476 1 33 C1 33.99 1 34.98 1 36 C0.01 36.495 0.01 36.495 -1 37 C-2.64697015 32.15597014 -3.16523643 28.97873749 -2 24 C-0.99953491 18.88223625 -0.69023227 13.82051247 -0.4375 8.625 C-0.39431641 7.79355469 -0.35113281 6.96210937 -0.30664062 6.10546875 C-0.20138195 4.07046772 -0.10026928 2.03525297 0 0 Z " fill="#943D41" transform="translate(250,72)"/>
<path d="M0 0 C0.125 2.875 0.125 2.875 0 6 C-2 8 -2 8 -3.9453125 8.1953125 C-5.96354167 8.13020833 -7.98177083 8.06510417 -10 8 C-8.68 7.34 -7.36 6.68 -6 6 C-7.32 5.67 -8.64 5.34 -10 5 C-9.01906046 2.54765115 -8.31296172 1.2190732 -6.125 -0.3125 C-3.64990694 -1.1132654 -2.41712366 -0.86325845 0 0 Z " fill="#9D97C9" transform="translate(333,77)"/>
<path d="M0 0 C3.34610491 3.34610491 2.56249756 7.87998113 2.75 12.4375 C2.80542969 13.40494141 2.86085937 14.37238281 2.91796875 15.36914062 C2.96050781 16.29791016 3.00304687 17.22667969 3.046875 18.18359375 C3.08651367 19.03493896 3.12615234 19.88628418 3.16699219 20.76342773 C3 23 3 23 1 26 C-0.64977828 17.29447355 -2.25445587 8.73601649 0 0 Z " fill="#874342" transform="translate(183,183)"/>
<path d="M0 0 C2.97 1.98 5.94 3.96 9 6 C7.94124926 9.40312738 6.99097846 12.01353231 5 15 C2.75 14.9375 2.75 14.9375 0 14 C-2.72537179 10.06335186 -4.41774746 6.80358345 -5 2 C-3.1834519 4.36151253 -1.53675437 6.72996282 0.0625 9.25 C0.701875 10.1575 1.34125 11.065 2 12 C2.66 12 3.32 12 4 12 C5.6446674 9.53673288 5.6446674 9.53673288 7 7 C6.401875 6.731875 5.80375 6.46375 5.1875 6.1875 C3.00152146 5.00082594 1.58667406 3.90400887 0 2 C0 1.34 0 0.68 0 0 Z " fill="#722322" transform="translate(327,87)"/>
<path d="M0 0 C3.91606575 0.53400897 6.39338934 1.19669467 10 3 C10 6.3 10 9.6 10 13 C9.01 13.33 8.02 13.66 7 14 C6.773125 12.80375 6.54625 11.6075 6.3125 10.375 C5.2051224 5.83232692 3.19168889 3.35967251 0 0 Z " fill="#F9F5F4" transform="translate(270,100)"/>
<path d="M0 0 C0.33 0 0.66 0 1 0 C1.33 4.62 1.66 9.24 2 14 C-0.31 13.34 -2.62 12.68 -5 12 C-4.52496041 7.01208429 -3.0298864 3.9767259 0 0 Z " fill="#F5EFEE" transform="translate(221,76)"/>
<path d="M0 0 C0.66 0 1.32 0 2 0 C2.56889726 7.96456157 0.67053415 12.86212237 -4.5 18.9375 C-6.82043581 20.85185954 -8.05724455 21.67302717 -11 22 C-11 21.34 -11 20.68 -11 20 C-7.53846154 17 -7.53846154 17 -5 17 C-4.71125 16.278125 -4.4225 15.55625 -4.125 14.8125 C-3.42804095 13.07010238 -2.70384778 11.33801269 -1.9375 9.625 C-0.80122035 6.44341697 -0.39377788 3.34711199 0 0 Z " fill="#7D3332" transform="translate(313,158)"/>
<path d="M0 0 C-0.94809761 6.90554677 -2.53586136 12.51998366 -7 18 C-7.66 18.33 -8.32 18.66 -9 19 C-8.72414063 18.46890625 -8.44828125 17.9378125 -8.1640625 17.390625 C-6.78291096 14.55416613 -5.57935359 11.66580343 -4.375 8.75 C-3.92898438 7.67234375 -3.48296875 6.5946875 -3.0234375 5.484375 C-2.51683594 4.25460938 -2.51683594 4.25460938 -2 3 C-2.886875 3.639375 -3.77375 4.27875 -4.6875 4.9375 C-7.69211428 6.80829757 -9.5510371 7.59423966 -13 8 C-13.33 7.34 -13.66 6.68 -14 6 C-12.7625 5.566875 -11.525 5.13375 -10.25 4.6875 C-6.80517593 3.40938506 -3.47187854 0 0 0 Z " fill="#812D2E" transform="translate(280,137)"/>
<path d="M0 0 C3.125 0.1875 3.125 0.1875 6.125 2.1875 C6.125 2.8475 6.125 3.5075 6.125 4.1875 C-0.5 7.0625 -0.5 7.0625 -3.875 8.1875 C-3.91741723 5.85455225 -3.91592937 3.52047433 -3.875 1.1875 C-2.875 0.1875 -2.875 0.1875 0 0 Z " fill="#F9A2C5" transform="translate(314.875,51.8125)"/>
<path d="M0 0 C6.62070742 1.56894075 12.62679711 7.0046488 16.32421875 12.55078125 C15.33421875 13.04578125 15.33421875 13.04578125 14.32421875 13.55078125 C13.33421875 12.18953125 13.33421875 12.18953125 12.32421875 10.80078125 C8.59597433 6.39372482 4.39791178 3.82263427 -1.4140625 3.30859375 C-3.84932191 3.30170476 -6.24768929 3.37165971 -8.67578125 3.55078125 C-6.04310546 0.53970863 -4.09067419 -0.14366508 0 0 Z " fill="#892C32" transform="translate(253.67578125,36.44921875)"/>
<path d="M0 0 C0.66 0.33 1.32 0.66 2 1 C0.88625 1.6496875 0.88625 1.6496875 -0.25 2.3125 C-4.00109039 4.61430547 -6.53927058 6.30890588 -9 10 C-9 8.68 -9 7.36 -9 6 C-10.27875 6.20625 -11.5575 6.4125 -12.875 6.625 C-15.0546875 6.9765625 -15.0546875 6.9765625 -17 7 C-17.66 6.34 -18.32 5.68 -19 5 C-17.87980469 4.72285156 -16.75960937 4.44570312 -15.60546875 4.16015625 C-14.13279698 3.79433333 -12.66014158 3.42844447 -11.1875 3.0625 C-10.08051758 2.78889648 -10.08051758 2.78889648 -8.95117188 2.50976562 C-5.92939016 1.7577385 -2.95543282 0.98514427 0 0 Z " fill="#843D3C" transform="translate(258,216)"/>
<path d="M0 0 C0.66 0.33 1.32 0.66 2 1 C1.46890625 1.3403125 0.9378125 1.680625 0.390625 2.03125 C-5.48089037 6.05988099 -8.89825204 10.01859255 -10.45703125 17.06640625 C-10.70487837 18.70219721 -10.86260452 20.35125419 -11 22 C-11.33 22 -11.66 22 -12 22 C-13.3174059 16.73037641 -13.03458426 13.69545913 -10.3828125 8.9296875 C-7.68175124 5.16040992 -4.15128324 2.07564162 0 0 Z " fill="#843E3C" transform="translate(187,139)"/>
<path d="M0 0 C1.98 0 3.96 0 6 0 C6.33 1.65 6.66 3.3 7 5 C4.6875 5.625 4.6875 5.625 2 6 C1.01 5.34 0.02 4.68 -1 4 C-0.67 2.68 -0.34 1.36 0 0 Z " fill="#F8F4F5" transform="translate(216,92)"/>
<path d="M0 0 C1.3448757 2.68975139 0.71921998 3.89291421 0.00390625 6.7890625 C-0.22490234 7.73007813 -0.45371094 8.67109375 -0.68945312 9.640625 C-0.93630859 10.62546875 -1.18316406 11.6103125 -1.4375 12.625 C-1.68048828 13.61757812 -1.92347656 14.61015625 -2.17382812 15.6328125 C-2.77634643 18.09014208 -3.38531647 20.54569033 -4 23 C-4.33 23 -4.66 23 -5 23 C-5.53894417 15.05057353 -3.75990572 8.44842026 -1 1 C-0.67 0.67 -0.34 0.34 0 0 Z " fill="#7F2125" transform="translate(207,68)"/>
<path d="M0 0 C-0.33 6.93 -0.66 13.86 -1 21 C-1.33 21 -1.66 21 -2 21 C-2.33 15.06 -2.66 9.12 -3 3 C-5.64 2.67 -8.28 2.34 -11 2 C-11 1.67 -11 1.34 -11 1 C-7.26513121 0.4254048 -3.78706732 0 0 0 Z " fill="#A04F55" transform="translate(186,90)"/>
<path d="M0 0 C3.96 0 7.92 0 12 0 C12 4.62 12 9.24 12 14 C9.64666204 9.29332409 9.82897962 7.1306114 10 2 C6.7 1.67 3.4 1.34 0 1 C0 0.67 0 0.34 0 0 Z " fill="#A2726F" transform="translate(334,60)"/>
<path d="M0 0 C2.71743027 2.71743027 3.50932886 5.86942046 4.6875 9.4375 C4.92533203 10.11876953 5.16316406 10.80003906 5.40820312 11.50195312 C7.12211809 16.63364573 7.12211809 16.63364573 6 20 C4.01458269 17.02187403 3.01174724 14.50156031 1.875 11.125 C1.52179688 10.09632813 1.16859375 9.06765625 0.8046875 8.0078125 C0.04623113 5.17280569 -0.16126892 2.91359176 0 0 Z " fill="#742423" transform="translate(185,206)"/>
<path d="M0 0 C0.33 0 0.66 0 1 0 C1.7717869 8.98702969 1.7717869 8.98702969 -1 12.625 C-4.97237244 14.4456707 -7.65958666 14.29426531 -12 14 C-12 13.67 -12 13.34 -12 13 C-11.38511719 12.89945313 -10.77023437 12.79890625 -10.13671875 12.6953125 C-7.44017753 12.06740976 -5.37721884 11.43729012 -3 10 C-1.31964963 6.77932846 -0.58290956 3.57115855 0 0 Z " fill="#6B1817" transform="translate(286,240)"/>
<path d="M0 0 C1.32 0.66 2.64 1.32 4 2 C3.01 2.495 3.01 2.495 2 3 C2.33 5.97 2.66 8.94 3 12 C2.01 12.33 1.02 12.66 0 13 C-1.5625 11.1875 -1.5625 11.1875 -3 9 C-2.67 8.01 -2.34 7.02 -2 6 C-1.34 6.66 -0.68 7.32 0 8 C0 5.36 0 2.72 0 0 Z " fill="#701212" transform="translate(201,143)"/>
<path d="M0 0 C1.82421875 0.19921875 1.82421875 0.19921875 4 1 C5.51953125 3.14453125 5.51953125 3.14453125 6.8125 5.8125 C7.25207031 6.68519531 7.69164062 7.55789062 8.14453125 8.45703125 C9.06404749 11.19038776 9.0076835 12.34787595 8 15 C4.57068046 11.2440786 3.43570917 6.76533255 2 2 C1.34 2 0.68 2 0 2 C0 1.34 0 0.68 0 0 Z " fill="#7A2A29" transform="translate(273,209)"/>
<path d="M0 0 C1.65 0 3.3 0 5 0 C4.938125 0.78375 4.87625 1.5675 4.8125 2.375 C5.06207574 7.20013103 6.4848682 11.43656733 8 16 C7.34 16.66 6.68 17.32 6 18 C5.32844651 15.73050898 4.6626037 13.4596039 4 11.1875 C3.443125 9.29064453 3.443125 9.29064453 2.875 7.35546875 C2 4 2 4 2 1 C1.34 0.67 0.68 0.34 0 0 Z " fill="#7D3A39" transform="translate(316,108)"/>
<path d="M0 0 C0.66 0 1.32 0 2 0 C3.051875 1.485 3.051875 1.485 4.125 3 C5.69879147 4.98475186 6.46475768 5.8818849 8.96484375 6.43359375 C12.38875903 6.43996976 15.74550466 6.08483178 19 5 C17.12195964 7.54087813 15.84290681 8.04531534 12.75 8.9375 C7.73957461 9.02100709 6.00363898 7.98310355 2 5 C0.5625 2.25 0.5625 2.25 0 0 Z " fill="#874247" transform="translate(210,107)"/>
<path d="M0 0 C0.33 0 0.66 0 1 0 C1 2.64 1 5.28 1 8 C1.66 8 2.32 8 3 8 C2.67 8.66 2.34 9.32 2 10 C1.41992188 9.73445313 0.83984375 9.46890625 0.2421875 9.1953125 C-4.11686745 7.22438666 -8.41910068 5.40950748 -13 4 C-12.67 3.34 -12.34 2.68 -12 2 C-6.555 3.485 -6.555 3.485 -1 5 C-0.67 3.35 -0.34 1.7 0 0 Z " fill="#843D3A" transform="translate(344,70)"/>
<path d="M0 0 C2.6732913 2.36933107 4.03732069 4.78708308 5.5625 8 C6.9221152 10.84629725 8.24415423 13.36623134 10 16 C9.34 16.66 8.68 17.32 8 18 C7.59007812 17.22914063 7.18015625 16.45828125 6.7578125 15.6640625 C6.21898437 14.66117188 5.68015625 13.65828125 5.125 12.625 C4.32449219 11.12839844 4.32449219 11.12839844 3.5078125 9.6015625 C2.1179862 6.94651605 2.1179862 6.94651605 0 5 C-0.125 2.375 -0.125 2.375 0 0 Z " fill="#812D2F" transform="translate(189,133)"/>
<path d="M0 0 C2 2 2 2 2.125 5.125 C2.08375 6.07375 2.0425 7.0225 2 8 C3.32 8.33 4.64 8.66 6 9 C4.68 9 3.36 9 2 9 C1.67 11.64 1.34 14.28 1 17 C0.34 16.67 -0.32 16.34 -1 16 C-0.67 10.72 -0.34 5.44 0 0 Z " fill="#7F3232" transform="translate(332,53)"/>
<path d="M0 0 C0.33 0 0.66 0 1 0 C1.35081374 12.04460518 1.35081374 12.04460518 -1 18 C-0.67 18.66 -0.34 19.32 0 20 C-1.65 20.33 -3.3 20.66 -5 21 C-4.505 19.948125 -4.01 18.89625 -3.5 17.8125 C-2.17220212 14.74547391 -1.69284994 12.37865064 -2 9 C-1.34 9 -0.68 9 0 9 C0 6.03 0 3.06 0 0 Z " fill="#9E444E" transform="translate(329,57)"/>
<path d="M0 0 C0.33 0.99 0.66 1.98 1 3 C0.67 3.66 0.34 4.32 0 5 C0.66 5 1.32 5 2 5 C3.20272819 7.40545638 3.10071472 8.94996953 3.0625 11.625 C3.05347656 12.44226563 3.04445313 13.25953125 3.03515625 14.1015625 C3.02355469 14.72804688 3.01195312 15.35453125 3 16 C1.35 16.33 -0.3 16.66 -2 17 C-1.505 16.62875 -1.01 16.2575 -0.5 15.875 C1.59755514 13.25305607 1.21743835 11.26157528 1 8 C-0.32 7.34 -1.64 6.68 -3 6 C-2.01 4.02 -1.02 2.04 0 0 Z " fill="#6F2122" transform="translate(331,69)"/>
<path d="M0 0 C10.93025271 0.21056529 10.93025271 0.21056529 14.1875 3.5625 C15.0846875 4.7690625 15.0846875 4.7690625 16 6 C15.67 6.99 15.34 7.98 15 9 C15 8.34 15 7.68 15 7 C13.35 7 11.7 7 10 7 C10.99 6.67 11.98 6.34 13 6 C11.85489241 4.3931662 11.85489241 4.3931662 10 3 C7.25756437 2.63729516 7.25756437 2.63729516 4.3125 2.8125 C3.31863281 2.83957031 2.32476562 2.86664063 1.30078125 2.89453125 C0.16189453 2.94673828 0.16189453 2.94673828 -1 3 C-0.67 2.01 -0.34 1.02 0 0 Z " fill="#8B2D33" transform="translate(308,50)"/>
<path d="M0 0 C1.98 0.99 1.98 0.99 4 2 C4 8.93 4 15.86 4 23 C3.67 23 3.34 23 3 23 C2.92652344 21.26363281 2.92652344 21.26363281 2.8515625 19.4921875 C2.77648522 17.9531033 2.70093957 16.4140419 2.625 14.875 C2.57859375 13.73417969 2.57859375 13.73417969 2.53125 12.5703125 C2.297631 8.05367842 1.67345883 4.25847653 0 0 Z " fill="#721E1C" transform="translate(217,216)"/>
<path d="M0 0 C0.33 1.32 0.66 2.64 1 4 C1.515625 3.67 2.03125 3.34 2.5625 3 C5.78026512 1.67989123 8.5570528 1.86757895 12 2 C12.66 3.32 13.32 4.64 14 6 C13.38511719 5.91621094 12.77023437 5.83242187 12.13671875 5.74609375 C11.32847656 5.64425781 10.52023437 5.54242188 9.6875 5.4375 C8.88699219 5.33308594 8.08648437 5.22867188 7.26171875 5.12109375 C4.83182884 4.85244822 4.83182884 4.85244822 2 6 C1.34 5.67 0.68 5.34 0 5 C0 3.35 0 1.7 0 0 Z " fill="#844442" transform="translate(290,159)"/>
<path d="M0 0 C0.66 0 1.32 0 2 0 C2.33 1.65 2.66 3.3 3 5 C7.455 4.505 7.455 4.505 12 4 C11.01 5.485 11.01 5.485 10 7 C6.375 7.6875 6.375 7.6875 3 8 C2.34 6.68 1.68 5.36 1 4 C0.34 4 -0.32 4 -1 4 C-0.67 2.68 -0.34 1.36 0 0 Z " fill="#854443" transform="translate(238,122)"/>
<path d="M0 0 C0.99 1.32 1.98 2.64 3 4 C2.01 4 1.02 4 0 4 C0 10.93 0 17.86 0 25 C-0.33 25 -0.66 25 -1 25 C-1.0289337 21.20834926 -1.04677601 17.41672673 -1.0625 13.625 C-1.07087891 12.54476562 -1.07925781 11.46453125 -1.08789062 10.3515625 C-1.09111328 9.3203125 -1.09433594 8.2890625 -1.09765625 7.2265625 C-1.10289307 6.27346191 -1.10812988 5.32036133 -1.11352539 4.33837891 C-1 2 -1 2 0 0 Z " fill="#E78EA7" transform="translate(302,90)"/>
<path d="M0 0 C0.66 0 1.32 0 2 0 C1.00956295 4.83628305 0.04301154 9.47618873 -2 14 C-2.33 13.34 -2.66 12.68 -3 12 C-3.66 11.67 -4.32 11.34 -5 11 C-4.319375 9.948125 -4.319375 9.948125 -3.625 8.875 C-1.98313057 5.97015409 -0.96322901 3.1860652 0 0 Z " fill="#E8B9B5" transform="translate(277,114)"/>
<path d="M0 0 C0.33 0 0.66 0 1 0 C1 5.28 1 10.56 1 16 C0.67 16 0.34 16 0 16 C0 13.36 0 10.72 0 8 C-1.175625 8.0928125 -1.175625 8.0928125 -2.375 8.1875 C-3.674375 8.0946875 -3.674375 8.0946875 -5 8 C-5.66 7.01 -6.32 6.02 -7 5 C-2.25 5.875 -2.25 5.875 0 7 C0 4.69 0 2.38 0 0 Z " fill="#6B0C0B" transform="translate(281,94)"/>
<path d="M0 0 C1.53445094 3.06890187 0.54984289 5.70094266 0 9 C-1.98 8.01 -3.96 7.02 -6 6 C-2.25 1.125 -2.25 1.125 0 0 Z " fill="#F7F2F1" transform="translate(209,96)"/>
<path d="M0 0 C0.66 0 1.32 0 2 0 C3.63831628 3.73172041 4.05788794 5.68424757 3.3125 9.75 C2 13 2 13 -1 15 C-0.67 14.01 -0.34 13.02 0 12 C0.068991 9.93854893 0.08467727 7.87498599 0.0625 5.8125 C0.05347656 4.72582031 0.04445312 3.63914062 0.03515625 2.51953125 C0.02355469 1.68808594 0.01195312 0.85664062 0 0 Z " fill="#762021" transform="translate(229,97)"/>
<path d="M0 0 C1.77128064 2.30266483 3.41000773 4.62782434 5 7.0625 C6.56063697 9.35468555 7.957621 11.1618589 10 13 C7.75 12.9375 7.75 12.9375 5 12 C2.27462821 8.06335186 0.58225254 4.80358345 0 0 Z " fill="#7A3436" transform="translate(322,89)"/>
<path d="M0 0 C0.99 0 1.98 0 3 0 C3.33 1.98 3.66 3.96 4 6 C2.35 6.33 0.7 6.66 -1 7 C-0.67 4.69 -0.34 2.38 0 0 Z " fill="#9C82A8" transform="translate(318,80)"/>
<path d="M0 0 C3.8063457 0.67170806 7.35206816 1.72746564 11 3 C11 3.66 11 4.32 11 5 C10.34 5 9.68 5 9 5 C8.67 5.66 8.34 6.32 8 7 C8 6.34 8 5.68 8 5 C7.05125 4.690625 6.1025 4.38125 5.125 4.0625 C2 3 2 3 0 2 C0 1.34 0 0.68 0 0 Z " fill="#813A38" transform="translate(189,154)"/>
<path d="M0 0 C-0.66 4.62 -1.32 9.24 -2 14 C-2.33 14 -2.66 14 -3 14 C-3.07347656 12.95199219 -3.07347656 12.95199219 -3.1484375 11.8828125 C-3.26058594 10.51769531 -3.26058594 10.51769531 -3.375 9.125 C-3.44460937 8.22007813 -3.51421875 7.31515625 -3.5859375 6.3828125 C-3.79568132 3.82058097 -3.79568132 3.82058097 -6 2 C-3 0 -3 0 0 0 Z " fill="#782A2B" transform="translate(213,93)"/>
<path d="M0 0 C0.33 0 0.66 0 1 0 C1.3669579 6.48292295 1.3669579 6.48292295 -0.375 8.9375 C-2 10 -2 10 -4 10 C-3.52449439 8.51965236 -3.04448784 7.04074979 -2.5625 5.5625 C-2.29566406 4.73878906 -2.02882813 3.91507813 -1.75390625 3.06640625 C-1 1 -1 1 0 0 Z " fill="#782524" transform="translate(285,187)"/>
<path d="M0 0 C2.97 0.495 2.97 0.495 6 1 C5.01 3.97 4.02 6.94 3 10 C2 6 2 6 3 3 C2.01 2.67 1.02 2.34 0 2 C0 1.34 0 0.68 0 0 Z " fill="#69110E" transform="translate(182,175)"/>
<path d="M0 0 C0.66 0 1.32 0 2 0 C0.74155722 3.88019859 -0.42416203 5.9411842 -4 8 C-4.99 8 -5.98 8 -7 8 C-7 7.34 -7 6.68 -7 6 C-3.53846154 3 -3.53846154 3 -1 3 C-0.67 2.01 -0.34 1.02 0 0 Z " fill="#732B2B" transform="translate(309,172)"/>
<path d="M0 0 C0.66 0.33 1.32 0.66 2 1 C-0.97 4.63 -3.94 8.26 -7 12 C-7.66 11.34 -8.32 10.68 -9 10 C-6.03 6.7 -3.06 3.4 0 0 Z " fill="#802C2C" transform="translate(210,39)"/>
<path d="M0 0 C1.50416548 3.00833096 0.60839737 5.34961578 0.0625 8.625 C-0.13214844 9.81351563 -0.32679688 11.00203125 -0.52734375 12.2265625 C-0.68332031 13.14179687 -0.83929688 14.05703125 -1 15 C-1.33 15 -1.66 15 -2 15 C-3.45295405 5.98468271 -3.45295405 5.98468271 -1.5625 1.875 C-1.046875 1.25625 -0.53125 0.6375 0 0 Z " fill="#803F4A" transform="translate(258,103)"/>
<path d="M0 0 C0.66 1.32 1.32 2.64 2 4 C-2.75 8.875 -2.75 8.875 -5 10 C-4.34 8.35 -3.68 6.7 -3 5 C-3.66 4.67 -4.32 4.34 -5 4 C-3.35 2.68 -1.7 1.36 0 0 Z " fill="#7D2828" transform="translate(257,96)"/>
<path d="M0 0 C2.31 0 4.62 0 7 0 C7 0.66 7 1.32 7 2 C5.02 2.99 3.04 3.98 1 5 C0.67 3.35 0.34 1.7 0 0 Z " fill="#6D0A07" transform="translate(212,89)"/>
<path d="M0 0 C0.33 0.66 0.66 1.32 1 2 C0.0919838 3.13199353 -0.82683826 4.25532363 -1.75 5.375 C-2.26046875 6.00148437 -2.7709375 6.62796875 -3.296875 7.2734375 C-5.08199481 9.08312318 -6.67949644 10.00117455 -9 11 C-7.75596862 7.26790586 -5.82756102 5.69291525 -3 3 C-2.401875 2.401875 -1.80375 1.80375 -1.1875 1.1875 C-0.795625 0.795625 -0.40375 0.40375 0 0 Z " fill="#7D2527" transform="translate(272,132)"/>
<path d="M0 0 C1 3 1 3 0.00390625 5.04296875 C-0.47175781 5.75066406 -0.94742187 6.45835938 -1.4375 7.1875 C-1.91058594 7.90292969 -2.38367188 8.61835937 -2.87109375 9.35546875 C-3.24363281 9.89816406 -3.61617188 10.44085938 -4 11 C-5 8 -5 8 -4.00390625 5.95703125 C-3.52824219 5.24933594 -3.05257813 4.54164062 -2.5625 3.8125 C-2.08941406 3.09707031 -1.61632812 2.38164063 -1.12890625 1.64453125 C-0.75636719 1.10183594 -0.38382812 0.55914062 0 0 Z " fill="#6B1B19" transform="translate(341,101)"/>
<path d="M0 0 C3.59391114 1.33488128 6.75490696 2.96022723 10 5 C9.01 5.99 8.02 6.98 7 8 C5.83035398 6.8572081 4.66435444 5.71068285 3.5 4.5625 C2.8503125 3.92441406 2.200625 3.28632812 1.53125 2.62890625 C0 1 0 1 0 0 Z " fill="#A1454F" transform="translate(274,34)"/>
<path d="M0 0 C1.125 3.75 1.125 3.75 0 6 C-2.32156597 6.40729228 -4.6568787 6.74438677 -7 7 C-4.66666667 4.66666667 -2.33333333 2.33333333 0 0 Z " fill="#F29BBA" transform="translate(270,137)"/>
<path d="M0 0 C1.98 0.495 1.98 0.495 4 1 C3.67 2.32 3.34 3.64 3 5 C1.68 5 0.36 5 -1 5 C-0.67 3.35 -0.34 1.7 0 0 Z " fill="#F3ECEB" transform="translate(263,101)"/>
<path d="M0 0 C0.66 0.33 1.32 0.66 2 1 C1.38125 1.2475 0.7625 1.495 0.125 1.75 C-2.40244047 3.23672969 -2.87410174 4.34609695 -4 7 C-4.99 8.485 -4.99 8.485 -6 10 C-6.66 9.67 -7.32 9.34 -8 9 C-7.04663979 7.68388323 -6.08714226 6.37221039 -5.125 5.0625 C-4.59132812 4.33160156 -4.05765625 3.60070313 -3.5078125 2.84765625 C-2 1 -2 1 0 0 Z " fill="#8C2F35" transform="translate(238,42)"/>
<path d="M0 0 C2.97 0 5.94 0 9 0 C8.67 1.32 8.34 2.64 8 4 C5.36 3.34 2.72 2.68 0 2 C0 1.34 0 0.68 0 0 Z " fill="#E58EAA" transform="translate(248,34)"/>
<path d="M0 0 C1.98567708 0.5859375 3.97135417 1.171875 5.95703125 1.7578125 C4.96703125 3.2428125 4.96703125 3.2428125 3.95703125 4.7578125 C2.96703125 4.7578125 1.97703125 4.7578125 0.95703125 4.7578125 C0.62703125 4.0978125 0.29703125 3.4378125 -0.04296875 2.7578125 C-2.5703011 2.10226131 -2.5703011 2.10226131 -5.04296875 1.7578125 C-2.04296875 -0.2421875 -2.04296875 -0.2421875 0 0 Z " fill="#EE97B4" transform="translate(271.04296875,29.2421875)"/>
<path d="M0 0 C0.33 0 0.66 0 1 0 C1.125 3.375 1.125 3.375 1 7 C0.34 7.66 -0.32 8.32 -1 9 C-1 7.68 -1 6.36 -1 5 C-1.66 5 -2.32 5 -3 5 C-1.125 1.125 -1.125 1.125 0 0 Z " fill="#883D3D" transform="translate(289,147)"/>
<path d="M0 0 C2.58464442 4.38008443 1.81479148 7.11125113 1 12 C0.34 11.34 -0.32 10.68 -1 10 C-0.9765625 7.6171875 -0.9765625 7.6171875 -0.625 4.875 C-0.51414062 3.96492188 -0.40328125 3.05484375 -0.2890625 2.1171875 C-0.19367188 1.41851562 -0.09828125 0.71984375 0 0 Z " fill="#862A2D" transform="translate(298,117)"/>
<path d="M0 0 C0.33 0 0.66 0 1 0 C1.33 3.96 1.66 7.92 2 12 C1.01 12.66 0.02 13.32 -1 14 C-0.67 9.38 -0.34 4.76 0 0 Z " fill="#791F21" transform="translate(262,72)"/>
<path d="M0 0 C0.66 0 1.32 0 2 0 C3.25664978 2.90600261 4 4.79604584 4 8 C3.34 8 2.68 8 2 8 C-0.1519437 4.77208445 -0.20086443 3.71599191 0 0 Z " fill="#7F3532" transform="translate(191,225)"/>
<path d="M0 0 C-3.5486135 2.36574234 -4.5764525 2.10865265 -8.6875 1.625 C-10.17830078 1.45871094 -10.17830078 1.45871094 -11.69921875 1.2890625 C-12.45847656 1.19367188 -13.21773438 1.09828125 -14 1 C-14 0.67 -14 0.34 -14 0 C-12.41773035 -0.19627391 -10.83410729 -0.38165538 -9.25 -0.5625 C-8.36828125 -0.66691406 -7.4865625 -0.77132812 -6.578125 -0.87890625 C-4.11567549 -0.99456676 -2.33461936 -0.73638695 0 0 Z " fill="#88413F" transform="translate(303,180)"/>
<path d="M0 0 C2.66666667 2.66666667 5.33333333 5.33333333 8 8 C7.67 8.66 7.34 9.32 7 10 C5.82438854 8.90536178 4.6597511 7.79892814 3.5 6.6875 C2.52546875 5.76517578 2.52546875 5.76517578 1.53125 4.82421875 C0 3 0 3 0 0 Z " fill="#864443" transform="translate(332,85)"/>
<path d="M0 0 C-5.75 4 -5.75 4 -8 4 C-5.97675095 -0.48005146 -4.79569304 -1.43870791 0 0 Z " fill="#E5D2D1" transform="translate(263,100)"/>
<path d="M0 0 C0.93065133 2.60582371 1.14917407 3.64198224 0.0625 6.25 C-0.4634375 7.11625 -0.4634375 7.11625 -1 8 C-1.99 7.67 -2.98 7.34 -4 7 C-2.68 4.69 -1.36 2.38 0 0 Z " fill="#741919" transform="translate(248,96)"/>
<path d="M0 0 C0.99 0 1.98 0 3 0 C3 0.66 3 1.32 3 2 C3.66 2.33 4.32 2.66 5 3 C3.02 3 1.04 3 -1 3 C-1.33 4.32 -1.66 5.64 -2 7 C-2.33 5.35 -2.66 3.7 -3 2 C-2.01 2 -1.02 2 0 2 C0 1.34 0 0.68 0 0 Z " fill="#8B3B3B" transform="translate(213,86)"/>
<path d="M0 0 C0 0.33 0 0.66 0 1 C-1.45463481 1.38909985 -2.91391207 1.76088029 -4.375 2.125 C-5.59316406 2.43824219 -5.59316406 2.43824219 -6.8359375 2.7578125 C-7.55007812 2.83773438 -8.26421875 2.91765625 -9 3 C-9.66 2.34 -10.32 1.68 -11 1 C-6.87831311 -0.62950412 -4.29299643 -1.26264601 0 0 Z " fill="#97484C" transform="translate(242,28)"/>
<path d="M0 0 C-3.08888522 2.05925681 -3.70935927 2.2390374 -7.1875 2.125 C-9.0746875 2.063125 -9.0746875 2.063125 -11 2 C-11 1.67 -11 1.34 -11 1 C-3.57142857 -1.42857143 -3.57142857 -1.42857143 0 0 Z " fill="#650C0B" transform="translate(285,252)"/>
<path d="M0 0 C0.33 1.32 0.66 2.64 1 4 C-0.65 4.33 -2.3 4.66 -4 5 C-2.25 1.125 -2.25 1.125 0 0 Z " fill="#6A1210" transform="translate(278,205)"/>
<path d="M0 0 C0.33 0 0.66 0 1 0 C1.33 2.64 1.66 5.28 2 8 C0.68 8 -0.64 8 -2 8 C-2.33 8.66 -2.66 9.32 -3 10 C-3.33 9.01 -3.66 8.02 -4 7 C-3.01 6.67 -2.02 6.34 -1 6 C-0.67 4.02 -0.34 2.04 0 0 Z " fill="#7E3D3B" transform="translate(204,149)"/>
</svg>
