<?xml version="1.0" encoding="UTF-8"?>
<svg version="1.1" xmlns="http://www.w3.org/2000/svg" width="498" height="281">
<path d="M0 0 C164.34 0 328.68 0 498 0 C498 92.73 498 185.46 498 281 C333.66 281 169.32 281 0 281 C0 188.27 0 95.54 0 0 Z " fill="#FCFAFB" transform="translate(0,0)"/>
<path d="M0 0 C0.76054687 0.29777344 1.52109375 0.59554688 2.3046875 0.90234375 C3.29082031 1.30259766 3.29082031 1.30259766 4.296875 1.7109375 C6.45636212 2.12458457 6.45636212 2.12458457 8.515625 0.4921875 C12.35909705 -1.69869923 15.5781575 -1.59228793 19.9296875 -1.53515625 C21.12911987 -1.52379639 21.12911987 -1.52379639 22.3527832 -1.51220703 C31.35030134 -1.26315966 39.20695207 0.88212071 45.875 7.19921875 C48.35014756 10.14775519 49.88374765 13.34642391 51.3046875 16.90234375 C51.9234375 18.44921875 51.9234375 18.44921875 52.5546875 20.02734375 C53.3046875 22.90234375 53.3046875 22.90234375 53.3046875 28.90234375 C57.2646875 28.90234375 61.2246875 28.90234375 65.3046875 28.90234375 C65.28148437 30.10632812 65.25828125 31.3103125 65.234375 32.55078125 C65.21561887 34.1262959 65.19741851 35.70181723 65.1796875 37.27734375 C65.15455078 38.4684375 65.15455078 38.4684375 65.12890625 39.68359375 C65.11133277 41.7572639 65.20133582 43.83117616 65.3046875 45.90234375 C65.9646875 46.56234375 66.6246875 47.22234375 67.3046875 47.90234375 C67.07637205 51.78370633 66.38662225 54.71799055 64.8046875 58.27734375 C63.49788534 61.43544898 63.14798335 62.90948205 62.9921875 66.15234375 C62.46006494 72.23082072 59.33458046 76.73141294 56.3046875 81.90234375 C54.86498186 84.53601804 53.45937609 87.18736472 52.0546875 89.83984375 C51.5431311 90.79818115 51.5431311 90.79818115 51.02124023 91.77587891 C49.40877272 94.79880459 47.81533053 97.82710616 46.3046875 100.90234375 C40.8855018 96.40220124 38.45412879 87.37919752 37.4921875 80.58984375 C37.4303125 79.70296875 37.3684375 78.81609375 37.3046875 77.90234375 C36.3146875 77.90234375 35.3246875 77.90234375 34.3046875 77.90234375 C34.22992188 78.51980469 34.15515625 79.13726562 34.078125 79.7734375 C32.45513518 90.22740136 26.93332596 96.88309357 19.3046875 103.90234375 C20.24828125 104.03189453 20.24828125 104.03189453 21.2109375 104.1640625 C28.83698385 105.41592854 34.37882913 107.74549656 39.6796875 113.46484375 C40.4840625 114.67140625 40.4840625 114.67140625 41.3046875 115.90234375 C41.9234375 116.79953125 41.9234375 116.79953125 42.5546875 117.71484375 C45.1408819 125.25791074 42.40856311 132.92113486 39.3046875 139.90234375 C36.95064769 143.34057855 34.01943705 145.1236713 30.3046875 146.90234375 C30.52125 147.90652344 30.7378125 148.91070312 30.9609375 149.9453125 C35.24563382 170.6114753 32.81402401 186.84918242 21.421875 204.8828125 C10.15460992 221.0538468 10.15460992 221.0538468 3.31640625 223.66015625 C-1.77297981 224.27285904 -6.71057525 224.6358336 -11.5703125 222.83984375 C-15.29311855 219.44552058 -17.36253601 216.31682206 -18.046875 211.3515625 C-18.34306377 201.8331325 -15.72843915 193.88592395 -10.6953125 185.90234375 C-15.54668132 186.55793413 -20.12778309 187.81863795 -24.81640625 189.18359375 C-27.6953125 189.90234375 -27.6953125 189.90234375 -31.28125 190.015625 C-34.6291103 190.53286949 -34.6291103 190.53286949 -35.93676758 192.38232422 C-37.05562837 194.41118486 -37.98757741 196.45301411 -38.8828125 198.58984375 C-39.51825829 200.0121552 -40.15753848 201.43276021 -40.80078125 202.8515625 C-41.11088135 203.53951904 -41.42098145 204.22747559 -41.74047852 204.9362793 C-44.53177596 210.68373988 -48.20775836 215.57329916 -53.6953125 218.90234375 C-56.79112756 219.95375264 -59.44879873 220.38263324 -62.6953125 219.90234375 C-66.01906453 217.40952973 -67.38466005 215.83430109 -68.6953125 211.90234375 C-70.0164368 200.05554059 -66.35806731 187.68746283 -61.4296875 177.015625 C-60.52495677 174.41211794 -60.35919669 172.64588907 -60.6953125 169.90234375 C-62.06862172 167.31619874 -62.06862172 167.31619874 -63.9453125 164.77734375 C-67.56306872 159.36905504 -71.6953125 152.63442286 -71.6953125 145.90234375 C-72.41976562 145.94875 -73.14421875 145.99515625 -73.890625 146.04296875 C-80.07036016 146.27367886 -83.90471491 146.23669395 -88.6953125 141.90234375 C-93.58897113 136.78997412 -96.26605601 132.4703796 -96.16015625 125.3515625 C-95.43644874 121.53841453 -93.41930658 118.89995297 -91.10546875 115.84765625 C-89.51261288 113.85551533 -89.51261288 113.85551533 -88.6953125 110.90234375 C-89.35747895 108.89214851 -89.35747895 108.89214851 -90.4609375 106.796875 C-92.64015124 102.15057377 -94.17455263 97.55676812 -95.4453125 92.58984375 C-95.6621167 91.74260742 -95.8789209 90.89537109 -96.10229492 90.02246094 C-98.28999296 80.65866565 -98.1526367 71.45533816 -97.6953125 61.90234375 C-101.3253125 61.24234375 -104.9553125 60.58234375 -108.6953125 59.90234375 C-108.6953125 59.24234375 -108.6953125 58.58234375 -108.6953125 57.90234375 C-107.54954654 56.8547863 -106.3513769 55.86424658 -105.1328125 54.90234375 C-98.820944 49.51443484 -94.71321609 42.94835058 -90.8828125 35.65234375 C-87.14399562 28.59570278 -82.47415113 22.27937718 -77.6953125 15.90234375 C-77.17066406 15.18820313 -76.64601562 14.4740625 -76.10546875 13.73828125 C-69.70682099 5.61478062 -61.61610147 0.47560557 -51.51171875 -1.51171875 C-48.97303074 -2.03987853 -46.88582966 -2.78629741 -44.5078125 -3.78515625 C-31.15810024 -8.3801659 -12.62565507 -5.08480029 0 0 Z " fill="#FBA4C7" transform="translate(277.6953125,31.09765625)"/>
<path d="M0 0 C14.55756422 0.48525214 14.55756422 0.48525214 20 5 C25.37496491 11.57259524 24.69291246 17.88048735 24 26 C23.37406623 29.95536874 22.00423929 32.20586751 18.796875 34.7421875 C16.57509204 36.25830983 14.3337678 37.66432157 12 39 C10.43809119 36.76186247 8.90116118 34.51230952 7.375 32.25 C6.92898438 31.61578125 6.48296875 30.9815625 6.0234375 30.328125 C4.7734375 28.453125 4.7734375 28.453125 3 25 C3.91996832 21.47833784 5.92079106 19.84752536 9 18 C11.75 17.3125 11.75 17.3125 14 17 C10.08014044 16.6353619 8.50281781 16.61411657 5.3125 19.0625 C4.1678125 20.0215625 4.1678125 20.0215625 3 21 C-0.39914975 19.86695008 -1.05254451 18.87481525 -3 16 C-2.66266846 16.57331055 -2.32533691 17.14662109 -1.9777832 17.73730469 C9.53012756 37.37064705 18.36544841 52.46580165 13.30078125 75.796875 C9.47330837 89.44808524 1.32031423 103.67968577 -8.6875 113.6875 C-14.05562888 115.81449446 -19.3262503 115.99345812 -25 115 C-28.43747473 112.76669157 -29.71554243 109.85337272 -31 106 C-31.85072164 93.87721658 -26.59051539 83.88577308 -20 74 C-21.093125 74.556875 -22.18625 75.11375 -23.3125 75.6875 C-35.64805062 81.11592054 -48.53700216 83.98831142 -62 83 C-59.36 83.66 -56.72 84.32 -54 85 C-54.90695075 87.54550843 -55.82511418 90.08601056 -56.75 92.625 C-57.00265625 93.33785156 -57.2553125 94.05070312 -57.515625 94.78515625 C-59.8921706 101.26124302 -62.83004625 107.43513783 -69 111 C-72.77463672 111.59249148 -76.36932749 111.98060712 -79.734375 109.95703125 C-81.71159664 106.89966076 -81.61466807 103.78160658 -81.625 100.25 C-81.63168701 99.47229248 -81.63837402 98.69458496 -81.64526367 97.89331055 C-81.43923354 89.77699604 -79.02968247 82.44881542 -76.22705078 74.88183594 C-74.17324372 69.15783054 -74.17324372 69.15783054 -75.07421875 63.2421875 C-75.70972656 62.17226562 -76.34523437 61.10234375 -77 60 C-77.5671875 58.90300781 -78.134375 57.80601562 -78.71875 56.67578125 C-79.3065625 55.56589844 -79.894375 54.45601562 -80.5 53.3125 C-87.11967794 40.19107394 -87.384339 28.40559525 -87 14 C-84.36 14.66 -81.72 15.32 -79 16 C-79.433125 15.08476562 -79.86625 14.16953125 -80.3125 13.2265625 C-81.1478125 11.44378906 -81.1478125 11.44378906 -82 9.625 C-82.556875 8.44164062 -83.11375 7.25828125 -83.6875 6.0390625 C-85 3 -85 3 -85 1 C-83.783125 1.268125 -82.56625 1.53625 -81.3125 1.8125 C-80.47203125 1.99296875 -79.6315625 2.1734375 -78.765625 2.359375 C-76.97124081 2.77502331 -75.18755649 3.2412711 -73.421875 3.765625 C-61.56786942 7.06920033 -49.2233644 6.75227534 -37 7 C-37 7.66 -37 8.32 -37 9 C-29.90970159 8.00944361 -24.24573162 6.53531978 -18 3 C-18.3562085 9.76796147 -22.26347226 16.26347226 -27 21 C-20.35881231 21.72186823 -15.47000696 19.78422632 -10 16 C-5.3299879 11.3299879 -2.23485659 6.17872117 0 0 Z " fill="#FBF9F9" transform="translate(293,137)"/>
<path d="M0 0 C0.66 0.33 1.32 0.66 2 1 C1.09121094 1.82177734 1.09121094 1.82177734 0.1640625 2.66015625 C-8.68777911 11.03536023 -14.6911428 20.63069025 -21.05078125 30.94140625 C-21.57236816 31.78131104 -22.09395508 32.62121582 -22.63134766 33.48657227 C-23.63961932 35.11508761 -24.6386211 36.74939374 -25.62646484 38.39038086 C-28.49994554 43.0502533 -31.5641217 46.85499734 -35.57543945 50.58984375 C-37.11545416 51.96337145 -37.11545416 51.96337145 -38 54 C-34.7 54 -31.4 54 -28 54 C-28.06960937 55.64484375 -28.13921875 57.2896875 -28.2109375 58.984375 C-28.81903681 79.71432466 -25.97114646 98.16429368 -13 115 C-13 112.36 -13 109.72 -13 107 C-9.01636642 108.32787786 -6.89369166 110.00985195 -4 113 C-3.01 113.33 -2.02 113.66 -1 114 C-2.62985888 106.14127538 -2.62985888 106.14127538 -7.38671875 99.97265625 C-9.11153313 98.98309121 -10.86935227 98.04802695 -12.66015625 97.18359375 C-14.93737925 96.03167627 -16.32292433 94.89702002 -18 93 C-17.67 92.34 -17.34 91.68 -17 91 C-16.55011719 91.38671875 -16.10023438 91.7734375 -15.63671875 92.171875 C-10.11505782 96.64231792 -4.80988306 99.06118623 2 101 C2.62680664 101.18336914 3.25361328 101.36673828 3.89941406 101.55566406 C14.46876904 104.53728162 24.84617568 105.42930865 35.8125 105.5625 C37.02284912 105.58924805 38.23319824 105.61599609 39.48022461 105.64355469 C46.52039711 105.75800588 46.52039711 105.75800588 52.6328125 102.734375 C61.58341653 92.39539344 65.60795287 79.44148739 67 66 C63.7 65.67 60.4 65.34 57 65 C57.99 66.010625 58.98 67.02125 60 68.0625 C62.58390806 71.03460082 62.98183084 71.80922385 63.375 75.9375 C63.189375 77.4534375 63.189375 77.4534375 63 79 C61.83023312 76.66046624 60.74029126 74.36371359 59.75 71.9375 C57.59568012 68.32132019 55.955344 67.34481696 52 66 C49.30371421 65.82221688 49.30371421 65.82221688 47 67 C44.248648 70.71498977 43.5683023 73.47288273 43.5625 78.0625 C43.53349609 79.59583984 43.53349609 79.59583984 43.50390625 81.16015625 C44.12289005 84.70347294 45.14378652 85.86662438 48 88 C50.74035031 88.72790555 53.23079943 88.5754923 56 88 C58.74526713 85.90492772 60.07880004 83.88179993 62 81 C61.74919159 84.67852334 61.38558753 86.55599012 58.9375 89.375 C55.14567214 91.4726069 52.24346109 91.85900022 48 91 C44.42843116 88.82600158 42.55691428 86.83765714 41 83 C40.34624331 77.96759385 39.98402824 72.80631927 42.875 68.4375 C44.20211362 66.91522261 45.57196656 65.42803344 47 64 C42.75177626 64.47202486 40.80010291 66.96655518 38 70 C38.66 68.35 39.32 66.7 40 65 C39.34 64.67 38.68 64.34 38 64 C38.7425 63.4225 39.485 62.845 40.25 62.25 C45.53432833 56.92050647 47.21991018 48.65388241 47.375 41.375 C47.1764836 36.1295858 46.23718848 31.09235616 45 26 C47.60575164 27.9137092 47.99578899 28.97699284 48.58984375 32.22265625 C48.70457031 33.48980469 48.81929688 34.75695312 48.9375 36.0625 C49.9968871 45.60157001 52.35749923 54.59728269 60 61 C61.98 61.99 63.96 62.98 66 64 C66 59.05 66 54.1 66 49 C66.33 49 66.66 49 67 49 C70.56638798 65.2651925 68.80664121 82.18436898 60.4765625 96.64453125 C57.56393226 100.79772623 54.0196754 103.93739017 50 107 C55.63109239 105.8349464 59.25526817 104.38909416 64 101 C64.66 101 65.32 101 66 101 C65.75428474 108.74003055 63.5769989 114.4230011 58 120 C64.53016548 119.15044449 68.77478043 118.43242516 73 113 C73.8146875 111.96875 74.629375 110.9375 75.46875 109.875 C78.30237091 105.88580041 79.51736951 101.89616944 80.6875 97.1875 C80.88666016 96.44435547 81.08582031 95.70121094 81.29101562 94.93554688 C81.89644724 92.63093671 82.45558073 90.31974137 83 88 C83.28580933 86.82606689 83.28580933 86.82606689 83.57739258 85.62841797 C85.07099793 78.98144133 85.34579611 72.54864866 85.3125 65.75 C85.31121094 64.65333008 85.30992187 63.55666016 85.30859375 62.42675781 C85.22305448 55.19655089 84.57238273 48.66221108 82.65625 41.671875 C82.00153819 39.00626265 81.88033822 36.73227739 82 34 C87.88065524 39.88065524 87.357932 52.50469584 87.41339111 60.50473022 C87.41122963 61.9593069 87.40377967 63.41388507 87.39111328 64.8684082 C87.37498462 67.0645936 87.39108709 69.2589468 87.41015625 71.45507812 C87.42143303 80.39869587 86.47331822 88.35277621 84 97 C91.55813974 91.104651 96.73306352 85.39638896 98.3125 75.6875 C98.57235147 73.46170158 98.8010772 71.2320688 99 69 C99.10957031 67.845 99.21914063 66.69 99.33203125 65.5 C99.58252212 62.66778324 99.80578583 59.83654904 100 57 C100.33 57 100.66 57 101 57 C101.33 61.62 101.66 66.24 102 71 C104.31 71 106.62 71 109 71 C108.68289063 70.31550781 108.36578125 69.63101563 108.0390625 68.92578125 C106.85883043 65.60249621 106.58802755 62.70245465 106.375 59.1875 C106.26285156 57.44533203 106.26285156 57.44533203 106.1484375 55.66796875 C106.09945312 54.78753906 106.05046875 53.90710938 106 53 C105.33613281 53.3609375 104.67226563 53.721875 103.98828125 54.09375 C103.10527344 54.5578125 102.22226562 55.021875 101.3125 55.5 C100.44238281 55.9640625 99.57226562 56.428125 98.67578125 56.90625 C95.84709602 58.0625009 94.02156878 58.34147866 91 58 C88.42590807 55.69219344 88.03260221 54.32602209 87.6875 50.875 C88 48 88 48 90 46 C93.625 45.875 93.625 45.875 97 46 C97 46.33 97 46.66 97 47 C93.535 47.495 93.535 47.495 90 48 C90.33 50.31 90.66 52.62 91 55 C93.31 55 95.62 55 98 55 C98.33 54.34 98.66 53.68 99 53 C97.68 52.67 96.36 52.34 95 52 C98.75 49 98.75 49 101 49 C101.20625 48.401875 101.4125 47.80375 101.625 47.1875 C103 45 103 45 105.875 43.6875 C110.55201565 41.16191155 112.1837132 37.65293209 113.75 32.5625 C113.8325 32.046875 113.915 31.53125 114 31 C113.34 31 112.68 31 112 31 C112.33 30.01 112.66 29.02 113 28 C114.06808402 20.53867022 111.72506964 15.37252985 108 9 C102.73840541 8.35834212 100.31407151 9.79422999 96.3203125 12.90625 C95.66675781 13.44765625 95.66675781 13.44765625 95 14 C96.39635618 10.62547256 97.8606353 8.88361882 101 7 C103.75 6.3125 103.75 6.3125 106 6 C105.01 4.515 105.01 4.515 104 3 C109.12699664 5.01417725 111.35582732 8.66393814 113.6875 13.5 C116.73607406 21.62953081 117.50720347 30.88959197 114 39 C115.65 39.33 117.3 39.66 119 40 C119.09765625 46.15234375 119.09765625 46.15234375 119 48 C118 49 118 49 116.15234375 49.09765625 C114.1015625 49.06510417 112.05078125 49.03255208 110 49 C109.25262812 54.97897503 111.6768102 58.32379721 115 63 C118.11332248 62.33131686 118.11332248 62.33131686 119.1875 59.9375 C119.455625 59.298125 119.72375 58.65875 120 58 C119.401875 57.731875 118.80375 57.46375 118.1875 57.1875 C116.02775192 56.01506533 114.64209744 54.80630718 113 53 C113.33 52.34 113.66 51.68 114 51 C116.64 52.98 119.28 54.96 122 57 C120.94124926 60.40312738 119.99097846 63.01353231 118 66 C115.75 65.9375 115.75 65.9375 113 65 C111.32150176 62.7691525 110.24000737 60.52594094 109 58 C109.55145271 63.23880078 110.42922093 67.97350697 112 73 C110.02 73 108.04 73 106 73 C107.98 78.94 109.96 84.88 112 91 C112.90363281 89.39769531 113.80726563 87.79539062 114.73828125 86.14453125 C115.92965239 84.03383435 117.12106058 81.92315836 118.3125 79.8125 C118.90740234 78.75740234 119.50230469 77.70230469 120.11523438 76.61523438 C120.69208984 75.59365234 121.26894531 74.57207031 121.86328125 73.51953125 C122.39219971 72.58214111 122.92111816 71.64475098 123.46606445 70.67895508 C124.94388517 68.09800223 126.46039414 65.54448622 128 63 C129 66 129 66 128.06640625 68.171875 C127.57011719 69.02265625 127.07382812 69.8734375 126.5625 70.75 C123.88594528 75.44494025 121.28377947 80.16460721 118.75 84.9375 C118.2386853 85.8951123 118.2386853 85.8951123 117.71704102 86.87207031 C116.10471137 89.89563904 114.51086596 92.92430857 113 96 C107.5808143 91.49985749 105.14944129 82.47685377 104.1875 75.6875 C104.125625 74.800625 104.06375 73.91375 104 73 C103.01 73 102.02 73 101 73 C100.92523438 73.61746094 100.85046875 74.23492187 100.7734375 74.87109375 C99.15044768 85.32505761 93.62863846 91.98074982 86 99 C86.94359375 99.12955078 86.94359375 99.12955078 87.90625 99.26171875 C95.53229635 100.51358479 101.07414163 102.84315281 106.375 108.5625 C107.179375 109.7690625 107.179375 109.7690625 108 111 C108.61875 111.8971875 108.61875 111.8971875 109.25 112.8125 C111.8361944 120.35556699 109.10387561 128.01879111 106 135 C103.64596019 138.4382348 100.71474955 140.22132755 97 142 C97.2165625 143.00417969 97.433125 144.00835937 97.65625 145.04296875 C101.94094632 165.70913155 99.50933651 181.94683867 88.1171875 199.98046875 C76.84992242 216.15150305 76.84992242 216.15150305 70.01171875 218.7578125 C64.92233269 219.37051529 59.98473725 219.73348985 55.125 217.9375 C51.40219395 214.54317683 49.33277649 211.41447831 48.6484375 206.44921875 C48.35224873 196.93078875 50.96687335 188.9835802 56 181 C51.14863118 181.65559038 46.56752941 182.9162942 41.87890625 184.28125 C39 185 39 185 35.4140625 185.11328125 C32.0662022 185.63052574 32.0662022 185.63052574 30.75854492 187.47998047 C29.63968413 189.50884111 28.70773509 191.55067036 27.8125 193.6875 C27.17705421 195.10981145 26.53777402 196.53041646 25.89453125 197.94921875 C25.58443115 198.63717529 25.27433105 199.32513184 24.95483398 200.03393555 C22.16353654 205.78139613 18.48755414 210.67095541 13 214 C9.90418494 215.05140889 7.24651377 215.48028949 4 215 C0.67624797 212.50718598 -0.68934755 210.93195734 -2 207 C-3.3211243 195.15319684 0.33724519 182.78511908 5.265625 172.11328125 C6.17035573 169.50977419 6.33611581 167.74354532 6 165 C4.62669078 162.41385499 4.62669078 162.41385499 2.75 159.875 C-0.86775622 154.46671129 -5 147.73207911 -5 141 C-5.72445312 141.04640625 -6.44890625 141.0928125 -7.1953125 141.140625 C-13.37504766 141.37133511 -17.20940241 141.3343502 -22 137 C-26.89365863 131.88763037 -29.57074351 127.56803585 -29.46484375 120.44921875 C-28.74113624 116.63607078 -26.72399408 113.99760922 -24.41015625 110.9453125 C-22.81730038 108.95317158 -22.81730038 108.95317158 -22 106 C-22.66216645 103.98980476 -22.66216645 103.98980476 -23.765625 101.89453125 C-25.94483874 97.24823002 -27.47924013 92.65442437 -28.75 87.6875 C-28.9668042 86.84026367 -29.1836084 85.99302734 -29.40698242 85.12011719 C-31.59468046 75.7563219 -31.4573242 66.55299441 -31 57 C-34.63 56.34 -38.26 55.68 -42 55 C-42 54.34 -42 53.68 -42 53 C-40.85423404 51.95244255 -39.6560644 50.96190283 -38.4375 50 C-32.1256315 44.61209109 -28.01790359 38.04600683 -24.1875 30.75 C-18.27529708 19.59131137 -10.22575849 7.51894007 0 0 Z M82 101 C81.70867187 101.64066406 81.41734375 102.28132813 81.1171875 102.94140625 C77.06156906 111.49901623 73.31290911 117.74877773 64.2578125 121.35546875 C61.01761959 122.28043732 58.34740055 122.28488515 55 122 C55.39832031 121.50371094 55.79664063 121.00742188 56.20703125 120.49609375 C59.5866988 116.1625541 62.25566973 112.23299081 64 107 C63.505 105.515 63.505 105.515 63 104 C62.071875 104.61875 61.14375 105.2375 60.1875 105.875 C55.44165819 108.62876006 50.37010661 109.2619745 45 110 C45 109.34 45 108.68 45 108 C43.92069214 107.97812622 43.92069214 107.97812622 42.81958008 107.95581055 C17.38007505 107.37953744 17.38007505 107.37953744 6 104 C4.232271 103.59052605 2.46159658 103.19344098 0.6875 102.8125 C-0.529375 102.544375 -1.74625 102.27625 -3 102 C-1.36041242 107.23272633 0.38952035 112.15196636 3 117 C0.36 116.34 -2.28 115.68 -5 115 C-5.45237455 131.95566835 -3.80496651 144.34217994 4.16015625 159.43359375 C4.47839355 160.05403564 4.79663086 160.67447754 5.12451172 161.3137207 C5.84799732 162.70722742 6.61218705 164.07951858 7.38671875 165.4453125 C8.3446387 169.43562873 7.01763541 172.61800167 5.75 176.4375 C5.51925781 177.17548828 5.28851563 177.91347656 5.05078125 178.67382812 C4.06374142 181.81060726 3.04074774 184.89529902 1.84765625 187.9609375 C0.70054898 192.07360781 0.67026946 195.93844895 0.6875 200.1875 C0.67138672 200.99380859 0.65527344 201.80011719 0.63867188 202.63085938 C0.63802734 203.40623047 0.63738281 204.18160156 0.63671875 204.98046875 C0.63373779 205.68067139 0.63075684 206.38087402 0.62768555 207.10229492 C1.11112351 209.56640202 2.06229459 210.45266832 4 212 C7.79093052 212.94773263 11.44135788 212.7607658 14.96875 211.0390625 C22.69455191 205.17694087 25.23433107 194.87925287 28 186 C25.36 185.34 22.72 184.68 20 184 C20.79019531 184.05800781 21.58039063 184.11601562 22.39453125 184.17578125 C36.14665393 184.72586616 49.74199955 181.24464174 62 175 C61.45730469 175.89460938 60.91460937 176.78921875 60.35546875 177.7109375 C54.80567082 187.02002593 49.88154277 195.81542768 51 207 C52.43728923 210.62744426 53.88527271 213.60931019 57 216 C62.87132251 217.03611574 69.20138119 217.19276184 74.3125 213.8125 C85.9535506 203.29171787 96.15749527 181.58633757 97 166 C97.09023438 165.04222656 97.18046875 164.08445313 97.2734375 163.09765625 C98.08283959 148.43206119 90.17954018 136.18437212 83.10449219 123.95703125 C81.63508569 121.35341444 80.30258175 118.69029957 79 116 C80.32 117.98 81.64 119.96 83 122 C85.49361571 120.79618552 87.68143083 119.54571278 90 118 C93.1875 117.875 93.1875 117.875 96 118 C94.9275 118.2475 93.855 118.495 92.75 118.75 C89.00350563 119.99883146 87.47926118 121.02488658 85 124 C86.43308135 127.95906817 88.33141949 131.28718181 90.625 134.8125 C91.25664062 135.78832031 91.88828125 136.76414063 92.5390625 137.76953125 C93.02117187 138.50558594 93.50328125 139.24164063 94 140 C101.2689694 136.04215231 101.2689694 136.04215231 105.6328125 129.3203125 C106.72703642 122.40574856 107.61010851 114.95592276 104.19140625 108.6796875 C100.44899322 104.10340347 96.64740561 102.38607998 90.8125 101.53515625 C87.87276083 101.28208908 84.94864 101.098288 82 101 Z " fill="#7E2A2A" transform="translate(211,36)"/>
<path d="M0 0 C0.01417969 0.79664062 0.02835938 1.59328125 0.04296875 2.4140625 C0.204264 9.55749547 0.204264 9.55749547 3.4375 15.6875 C6.24362429 18.21985606 7.10153478 18.92013643 10.8125 19.25 C14.5722389 18.95511852 16.14392467 18.47011921 19 16 C20.29820352 13.36724325 21.1215929 10.82014912 22 8 C27.94 9.485 27.94 9.485 34 11 C34.9590625 9.515 34.9590625 9.515 35.9375 8 C36.618125 7.01 37.29875 6.02 38 5 C38.33 5 38.66 5 39 5 C39 7.31 39 9.62 39 12 C43.26257415 8.52334801 43.26257415 8.52334801 47.125 4.625 C47.74375 4.08875 48.3625 3.5525 49 3 C51.25 3.25 51.25 3.25 53 4 C51.824375 4.86625 51.824375 4.86625 50.625 5.75 C47.40226872 8.5123411 46.21144837 10.37233929 45.6640625 14.5859375 C45.57794198 20.73494249 45.83873787 24.34917762 50 29 C53.21292058 30.60646029 56.5258652 30.62441428 60 30 C63.00333267 27.66663334 63.00333267 27.66663334 65 25 C64.34 25.66 63.68 26.32 63 27 C59.65038649 29.23307568 57.87258999 29.68663002 53.9375 29.42578125 C52 29 52 29 49 27.25 C46.01372413 22.39730171 46.11244491 17.5620119 47 12 C48.69887427 8.52323405 49.7391229 7.17391806 53 5 C56.96221074 5.31280611 59.8531363 6.59844612 63 9 C64.8125 12.1875 64.8125 12.1875 66 15 C65.55530671 9.96014269 63.28656638 7.62365012 60 4 C63.63 4.66 67.26 5.32 71 6 C71.29647054 12.21882242 70.41459218 17.07679685 68.375 22.9375 C68.10429687 23.72729248 67.83359375 24.51708496 67.5546875 25.33081055 C65.49828612 31.09361359 63.20435937 36.45500966 59 41 C58.21496094 41.88816406 57.42992187 42.77632812 56.62109375 43.69140625 C51.87230781 47.51653364 45.85897026 46.7367712 40.0625 46.625 C38.825 46.61098145 37.5875 46.59696289 36.3125 46.58251953 C20.58781066 46.17730638 0.21329435 44.31913434 -12.0078125 33.16796875 C-15.99927906 28.75879057 -17.39883414 25.14448141 -17.265625 19.0390625 C-16.36171359 12.10021316 -8.89404994 6.50649166 -4 2 C-1 0 -1 0 0 0 Z " fill="#F5EFEF" transform="translate(207,96)"/>
<path d="M0 0 C15.05454201 10.54083453 21.04940805 32.17286595 24.4296875 49.12890625 C28.09487637 70.11604973 26.03535444 94.90711141 14.8125 113.44921875 C11.45310269 117.86017255 8.77275836 121.34589703 3.02734375 122.31640625 C0.79792383 122.58114987 -1.41987728 122.78423857 -3.66015625 122.92578125 C-2.93699219 121.89130859 -2.93699219 121.89130859 -2.19921875 120.8359375 C1.82703555 114.84585713 4.28464861 110.07765939 5.33984375 102.92578125 C4.37884766 103.55806641 4.37884766 103.55806641 3.3984375 104.203125 C-1.70736261 107.43705204 -5.58146003 109.66149011 -11.66015625 109.92578125 C-10.95890625 109.24515625 -10.25765625 108.56453125 -9.53515625 107.86328125 C-9.07753906 107.3940625 -8.61992187 106.92484375 -8.1484375 106.44140625 C-7.19226896 105.4676703 -6.21170058 104.51700128 -5.203125 103.59765625 C4.39474259 93.97446447 6.63126809 78.56578375 6.65893555 65.66455078 C6.44878836 48.00405273 4.6977495 24.08888421 -8.66015625 10.92578125 C-13.35481756 7.09772167 -18.14842734 3.48757075 -23.66015625 0.92578125 C-16.25384204 -1.88429496 -7.51837614 -3.03605497 0 0 Z " fill="#FBA4C7" transform="translate(271.66015625,34.07421875)"/>
<path d="M0 0 C5.12699664 2.01417725 7.35582732 5.66393814 9.6875 10.5 C12.73607406 18.62953081 13.50720347 27.88959197 10 36 C11.65 36.33 13.3 36.66 15 37 C15.09765625 43.15234375 15.09765625 43.15234375 15 45 C14 46 14 46 12.15234375 46.09765625 C10.1015625 46.06510417 8.05078125 46.03255208 6 46 C5.25262812 51.97897503 7.6768102 55.32379721 11 60 C14.11332248 59.33131686 14.11332248 59.33131686 15.1875 56.9375 C15.455625 56.298125 15.72375 55.65875 16 55 C15.401875 54.731875 14.80375 54.46375 14.1875 54.1875 C12.02775192 53.01506533 10.64209744 51.80630718 9 50 C9.495 49.01 9.495 49.01 10 48 C12.64 49.98 15.28 51.96 18 54 C16.94124926 57.40312738 15.99097846 60.01353231 14 63 C11.75 62.9375 11.75 62.9375 9 62 C7.32150176 59.7691525 6.24000737 57.52594094 5 55 C5.55145271 60.23880078 6.42922093 64.97350697 8 70 C6.02 70 4.04 70 2 70 C3.98 75.94 5.96 81.88 8 88 C8.90363281 86.39769531 9.80726563 84.79539062 10.73828125 83.14453125 C11.92965239 81.03383435 13.12106058 78.92315836 14.3125 76.8125 C14.90740234 75.75740234 15.50230469 74.70230469 16.11523438 73.61523438 C16.69208984 72.59365234 17.26894531 71.57207031 17.86328125 70.51953125 C18.65665894 69.11344604 18.65665894 69.11344604 19.46606445 67.67895508 C20.94388517 65.09800223 22.46039414 62.54448622 24 60 C25 63 25 63 24.06640625 65.171875 C23.57011719 66.02265625 23.07382812 66.8734375 22.5625 67.75 C19.88594528 72.44494025 17.28377947 77.16460721 14.75 81.9375 C14.40912354 82.5759082 14.06824707 83.21431641 13.71704102 83.87207031 C12.10471137 86.89563904 10.51086596 89.92430857 9 93 C3.5808143 88.49985749 1.14944129 79.47685377 0.1875 72.6875 C0.125625 71.800625 0.06375 70.91375 0 70 C-0.99 70 -1.98 70 -3 70 C-3.07476562 70.61746094 -3.14953125 71.23492187 -3.2265625 71.87109375 C-4.84955232 82.32505761 -10.37136154 88.98074982 -18 96 C-17.05640625 96.12955078 -17.05640625 96.12955078 -16.09375 96.26171875 C-8.46770365 97.51358479 -2.92585837 99.84315281 2.375 105.5625 C2.91125 106.366875 3.4475 107.17125 4 108 C4.4125 108.598125 4.825 109.19625 5.25 109.8125 C7.8361944 117.35556699 5.10387561 125.01879111 2 132 C-0.35403981 135.4382348 -3.28525045 137.22132755 -7 139 C-6.7834375 140.00417969 -6.566875 141.00835937 -6.34375 142.04296875 C-2.05905368 162.70913155 -4.49066349 178.94683867 -15.8828125 196.98046875 C-27.15007758 213.15150305 -27.15007758 213.15150305 -33.98828125 215.7578125 C-39.07766731 216.37051529 -44.01526275 216.73348985 -48.875 214.9375 C-52.59780605 211.54317683 -54.66722351 208.41447831 -55.3515625 203.44921875 C-55.64775127 193.93078875 -53.03312665 185.9835802 -48 178 C-52.85136882 178.65559038 -57.43247059 179.9162942 -62.12109375 181.28125 C-65 182 -65 182 -68.58203125 182.1015625 C-71.94477581 182.62902933 -71.94477581 182.62902933 -73.25756836 184.52832031 C-74.38931388 186.60443456 -75.33926435 188.69302917 -76.25 190.875 C-76.89575804 192.33308066 -77.54663425 193.78890757 -78.203125 195.2421875 C-78.47801758 195.8904248 -78.75291016 196.53866211 -79.03613281 197.20654297 C-80.10011823 199.18628888 -81.34643053 200.49247062 -83 202 C-82.31583566 197.82423832 -80.98634991 194.11919593 -79.4375 190.1875 C-78.98246094 189.02605469 -78.52742187 187.86460937 -78.05859375 186.66796875 C-77.53458984 185.34732422 -77.53458984 185.34732422 -77 184 C-79.64 183.01 -82.28 182.02 -85 181 C-81.51855344 180.12963836 -79.85106848 180.0089133 -76.4375 180.25 C-64.77298388 180.39129293 -52.91938483 175.74225566 -42 172 C-43.80840001 176.79816687 -46.14375711 181.29543107 -48.52148438 185.828125 C-51.55314395 191.74983797 -52.7566861 197.33333456 -52 204 C-50.65059348 207.31217963 -49.5207227 209.4792773 -47 212 C-41.52810054 212.72703559 -35.06961483 213.28718392 -30.1875 210.3125 C-19.5100452 200.8418337 -9.59741996 179.86388231 -8.1484375 165.74609375 C-8.09945312 164.83988281 -8.05046875 163.93367187 -8 163 C-7.90976562 162.04222656 -7.81953125 161.08445313 -7.7265625 160.09765625 C-6.84209354 144.07192105 -16.47999704 129.13464896 -24.8671875 116.09765625 C-25.24101562 115.40542969 -25.61484375 114.71320313 -26 114 C-25.67 113.34 -25.34 112.68 -25 112 C-23.68 113.98 -22.36 115.96 -21 118 C-18.50638429 116.79618552 -16.31856917 115.54571278 -14 114 C-10.9375 113.75 -10.9375 113.75 -8 114 C-7.34 114.66 -6.68 115.32 -6 116 C-6.92232422 116.16435547 -6.92232422 116.16435547 -7.86328125 116.33203125 C-8.67152344 116.49058594 -9.47976563 116.64914063 -10.3125 116.8125 C-11.11300781 116.96332031 -11.91351563 117.11414063 -12.73828125 117.26953125 C-15.23445587 118.07572236 -16.32422106 119.02052002 -18 121 C-16.62712658 124.69876091 -14.93644547 127.9514476 -12.875 131.3125 C-12.33617187 132.19550781 -11.79734375 133.07851562 -11.2421875 133.98828125 C-10.83226562 134.65214844 -10.42234375 135.31601563 -10 136 C-8.52900404 135.14645914 -7.07356732 134.26607454 -5.625 133.375 C-4.81289063 132.88773438 -4.00078125 132.40046875 -3.1640625 131.8984375 C0.5543451 128.63644094 0.91067347 125.09628016 1.30078125 120.30859375 C1.30464844 119.03113281 1.30851562 117.75367188 1.3125 116.4375 C1.33763672 114.51744141 1.33763672 114.51744141 1.36328125 112.55859375 C0.97831194 108.78755031 0.3130403 106.96324979 -2 104 C-7.63107423 99.50870947 -15.08885561 98.87541162 -22 98 C-22.2784375 99.4540625 -22.2784375 99.4540625 -22.5625 100.9375 C-24.79096592 108.62025314 -30.42222432 114.21920121 -37.203125 118.125 C-40.30696442 119.63643485 -42.78590167 120.11826391 -46.1875 120.0625 C-47.445625 120.041875 -48.70375 120.02125 -50 120 C-48.36177051 118.03829845 -47.46339554 117.09024932 -44.9140625 116.59375 C-44.15867187 116.5628125 -43.40328125 116.531875 -42.625 116.5 C-37.73389259 116.29830485 -34.61409755 114.61751725 -31.15625 111.15234375 C-25.23860355 103.23888729 -23.13976897 94.48372946 -21 85 C-20.71854126 83.83259277 -20.71854126 83.83259277 -20.43139648 82.64160156 C-18.93454164 75.98802516 -18.65416764 69.55605107 -18.6875 62.75 C-18.68878906 61.65333008 -18.69007813 60.55666016 -18.69140625 59.42675781 C-18.77694552 52.19655089 -19.42761727 45.66221108 -21.34375 38.671875 C-21.99846181 36.00626265 -22.11966178 33.73227739 -22 31 C-16.11934476 36.88065524 -16.642068 49.50469584 -16.58660889 57.50473022 C-16.58877037 58.9593069 -16.59622033 60.41388507 -16.60888672 61.8684082 C-16.62501538 64.0645936 -16.60891291 66.2589468 -16.58984375 68.45507812 C-16.57856697 77.39869587 -17.52668178 85.35277621 -20 94 C-12.44186026 88.104651 -7.26693648 82.39638896 -5.6875 72.6875 C-5.42764853 70.46170158 -5.1989228 68.2320688 -5 66 C-4.89042969 64.845 -4.78085937 63.69 -4.66796875 62.5 C-4.41747788 59.66778324 -4.19421417 56.83654904 -4 54 C-3.67 54 -3.34 54 -3 54 C-2.505 60.93 -2.505 60.93 -2 68 C0.31 68 2.62 68 5 68 C4.68289063 67.31550781 4.36578125 66.63101563 4.0390625 65.92578125 C2.85883043 62.60249621 2.58802755 59.70245465 2.375 56.1875 C2.26285156 54.44533203 2.26285156 54.44533203 2.1484375 52.66796875 C2.09945312 51.78753906 2.05046875 50.90710938 2 50 C1.00419922 50.54140625 1.00419922 50.54140625 -0.01171875 51.09375 C-0.89472656 51.5578125 -1.77773438 52.021875 -2.6875 52.5 C-3.55761719 52.9640625 -4.42773438 53.428125 -5.32421875 53.90625 C-8.15290398 55.0625009 -9.97843122 55.34147866 -13 55 C-15.57409193 52.69219344 -15.96739779 51.32602209 -16.3125 47.875 C-16 45 -16 45 -14 43 C-10.375 42.875 -10.375 42.875 -7 43 C-7 43.33 -7 43.66 -7 44 C-10.465 44.495 -10.465 44.495 -14 45 C-13.505 48.465 -13.505 48.465 -13 52 C-10.69 52 -8.38 52 -6 52 C-5.505 51.01 -5.505 51.01 -5 50 C-6.98 49.505 -6.98 49.505 -9 49 C-5.25 46 -5.25 46 -3 46 C-2.79375 45.401875 -2.5875 44.80375 -2.375 44.1875 C-1 42 -1 42 1.875 40.6875 C6.55201565 38.16191155 8.1837132 34.65293209 9.75 29.5625 C9.8325 29.046875 9.915 28.53125 10 28 C9.34 28 8.68 28 8 28 C8.495 26.515 8.495 26.515 9 25 C10.06808402 17.53867022 7.72506964 12.37252985 4 6 C-1.26159459 5.35834212 -3.68592849 6.79422999 -7.6796875 9.90625 C-8.33324219 10.44765625 -8.33324219 10.44765625 -9 11 C-7.60364382 7.62547256 -6.1393647 5.88361882 -3 4 C-0.25 3.3125 -0.25 3.3125 2 3 C1.01 1.515 1.01 1.515 0 0 Z " fill="#782B2A" transform="translate(315,39)"/>
<path d="M0 0 C1.19943237 0.01135986 1.19943237 0.01135986 2.4230957 0.02294922 C11.42061384 0.27199659 19.27726457 2.41727696 25.9453125 8.734375 C28.42046006 11.68291144 29.95406015 14.88158016 31.375 18.4375 C31.7875 19.46875 32.2 20.5 32.625 21.5625 C33.375 24.4375 33.375 24.4375 33.375 30.4375 C37.335 30.4375 41.295 30.4375 45.375 30.4375 C45.35179687 31.64148438 45.32859375 32.84546875 45.3046875 34.0859375 C45.28593137 35.66145215 45.26773101 37.23697348 45.25 38.8125 C45.22486328 40.00359375 45.22486328 40.00359375 45.19921875 41.21875 C45.18164527 43.29242015 45.27164832 45.36633241 45.375 47.4375 C46.035 48.0975 46.695 48.7575 47.375 49.4375 C47.14200307 53.39844779 46.40973864 56.35829591 44.8125 60 C43.16602168 63.31623666 43.16602168 63.31623666 43.375 66.6875 C43.375 69.4375 43.375 69.4375 42.03710938 70.84667969 C41.48861328 71.37165039 40.94011719 71.89662109 40.375 72.4375 C39.46806236 73.81150372 38.60624702 75.2159138 37.78125 76.640625 C37.07162109 77.86458984 37.07162109 77.86458984 36.34765625 79.11328125 C35.86167969 79.96277344 35.37570312 80.81226562 34.875 81.6875 C34.38902344 82.52152344 33.90304687 83.35554688 33.40234375 84.21484375 C30.72708084 88.85828374 28.36551805 93.46120488 26.375 98.4375 C24.375 97.4375 24.375 97.4375 23.0859375 94.1640625 C22.63283875 92.79943566 22.18786206 91.4320918 21.75 90.0625 C21.52054687 89.37671875 21.29109375 88.6909375 21.0546875 87.984375 C20.08704999 85.023865 19.375 82.57141543 19.375 79.4375 C21.355 79.4375 23.335 79.4375 25.375 79.4375 C25.08625 78.79683594 24.7975 78.15617187 24.5 77.49609375 C22.22615713 72.19835568 20.87358488 68.20377391 21.375 62.4375 C23.18927944 64.66411567 24.35317493 66.37046585 25.25 69.125 C25.62125 69.888125 25.9925 70.65125 26.375 71.4375 C28.92275306 72.33136164 28.92275306 72.33136164 31.375 72.4375 C31.66375 71.695 31.9525 70.9525 32.25 70.1875 C33.19802644 67.87010203 34.22345911 65.65832885 35.375 63.4375 C34.7975 63.14875 34.22 62.86 33.625 62.5625 C31.54166667 61.52083333 29.45833333 60.47916667 27.375 59.4375 C29.355 61.0875 31.335 62.7375 33.375 64.4375 C32.715 66.0875 32.055 67.7375 31.375 69.4375 C30.055 69.4375 28.735 69.4375 27.375 69.4375 C24.11259136 66.13216493 22.05295098 62.10696969 22.0625 57.4375 C22.165625 56.4475 22.26875 55.4575 22.375 54.4375 C25.345 54.4375 28.315 54.4375 31.375 54.4375 C31.705 51.7975 32.035 49.1575 32.375 46.4375 C30.725 46.4375 29.075 46.4375 27.375 46.4375 C27.87 45.426875 28.365 44.41625 28.875 43.375 C31.72430311 35.71323757 31.86333502 26.0319532 28.75 18.4375 C24.85238181 11.13807371 20.02556376 6.20471423 12.25 3.25 C4.4750616 1.61977098 -3.1075463 1.84527459 -10.625 4.4375 C-13.99388522 6.65953068 -15.34389054 7.59417163 -16.625 11.4375 C-15.61763174 13.53380655 -15.61763174 13.53380655 -14.0625 15.75 C-11.42950192 19.94306485 -9.22106008 24.21303458 -7.25 28.75 C-6.74726563 29.90113281 -6.24453125 31.05226563 -5.7265625 32.23828125 C-4.69287605 35.24037063 -4.37798142 37.30271659 -4.625 40.4375 C-6.625 39.4375 -6.625 39.4375 -7.265625 37.57421875 C-7.56726563 36.36185547 -7.56726563 36.36185547 -7.875 35.125 C-10.98526381 24.23907667 -16.46561043 13.41910261 -25.3828125 6.20703125 C-29.24506763 4.09907755 -31.62889789 3.99431757 -36 4.125 C-37.96259766 4.17720703 -37.96259766 4.17720703 -39.96484375 4.23046875 C-43.90596286 4.45339224 -47.73072966 4.80170076 -51.625 5.4375 C-48.05076603 2.01219245 -44.35551922 1.73061307 -39.625 1.4375 C-38.82449219 1.34984375 -38.02398437 1.2621875 -37.19921875 1.171875 C-30.87709736 0.73925705 -27.50023987 2.23223027 -22.53515625 6.125 C-20.59917495 7.7206571 -20.59917495 7.7206571 -17.625 7.4375 C-17.39890663 5.31385519 -17.39890663 5.31385519 -19.125 3.8125 C-19.62 3.35875 -20.115 2.905 -20.625 2.4375 C-19.573125 2.664375 -18.52125 2.89125 -17.4375 3.125 C-13.71906726 3.82485415 -13.71906726 3.82485415 -11.42578125 1.984375 C-7.57285001 -0.14360376 -4.33337974 -0.05689339 0 0 Z " fill="#7D3837" transform="translate(297.625,29.5625)"/>
<path d="M0 0 C0 0.66 0 1.32 0 2 C-0.54527344 2.12375 -1.09054688 2.2475 -1.65234375 2.375 C-10.78618863 4.87314561 -16.60386101 10.14264706 -21.27294922 18.26293945 C-27.07143437 28.99789917 -31.21274992 40.55450621 -31.0625 52.875 C-31.04896484 54.32519531 -31.04896484 54.32519531 -31.03515625 55.8046875 C-31.02355469 56.52914062 -31.01195312 57.25359375 -31 58 C-30.030625 57.236875 -29.06125 56.47375 -28.0625 55.6875 C-27.51722656 55.25824219 -26.97195312 54.82898438 -26.41015625 54.38671875 C-24.72844923 52.94316909 -24.72844923 52.94316909 -24 50 C-24.33 49.34 -24.66 48.68 -25 48 C-24.01 48 -23.02 48 -22 48 C-21.6596875 46.77216797 -21.6596875 46.77216797 -21.3125 45.51953125 C-19.70035155 41.19647842 -17.47037508 37.56598887 -15 33.6875 C-14.32324219 32.59598633 -14.32324219 32.59598633 -13.6328125 31.48242188 C-10.26107568 26.13053784 -10.26107568 26.13053784 -8 25 C-9.86091605 30.06169166 -12.57088764 34.45672862 -15.34375 39.0625 C-16.81311833 41.66854949 -17.96952016 44.19709483 -19 47 C-16.69 47.99 -14.38 48.98 -12 50 C-12.33 49.01 -12.66 48.02 -13 47 C-13.11766176 45.33631742 -13.17509083 43.66779197 -13.1875 42 C-13.20167969 41.13375 -13.21585938 40.2675 -13.23046875 39.375 C-13 37 -13 37 -11 34 C-10.505 42.91 -10.505 42.91 -10 52 C-8.68 52.66 -7.36 53.32 -6 54 C-4 56 -4 56 -3.1875 58.5 C-2.20271537 61.23553696 -2.20271537 61.23553696 0.625 62.3125 C1.40875 62.539375 2.1925 62.76625 3 63 C2.525625 61.948125 2.05125 60.89625 1.5625 59.8125 C-0.86082999 54.09709907 -1.10426084 49.15138954 -1 43 C-0.34 43 0.32 43 1 43 C1.14695312 44.39412109 1.14695312 44.39412109 1.296875 45.81640625 C2.14110594 52.79586719 2.88063127 58.23288378 7 64 C11.61685957 60.1791507 13.56494294 55.30170963 14.33276367 49.47460938 C14.51369195 46.81474159 14.61971095 44.16507801 14.6875 41.5 C14.72166016 40.5821875 14.75582031 39.664375 14.79101562 38.71875 C14.87266264 36.4792891 14.94207538 34.2401785 15 32 C15.99 32.495 15.99 32.495 17 33 C17.2964981 44.16809528 16.42033442 54.92900046 15 66 C15.99 66.495 15.99 66.495 17 67 C16.01 67.33 15.02 67.66 14 68 C13.67 66.02 13.34 64.04 13 62 C11.02 64.97 11.02 64.97 9 68 C7.5608866 67.71640113 6.12374482 67.42278601 4.6875 67.125 C3.88699219 66.96257812 3.08648437 66.80015625 2.26171875 66.6328125 C-0 66 -0 66 -3 64 C-3.0928125 65.3303125 -3.0928125 65.3303125 -3.1875 66.6875 C-4.18995864 70.77444675 -5.84024514 72.30264829 -9 75 C-11.95793723 76.47896861 -13.70220224 76.4355582 -17 76 C-20.22254402 73.86259835 -23.25333994 71.49332012 -25 68 C-25.2275015 66.12943209 -25.40962811 64.25314042 -25.5625 62.375 C-25.68818359 60.87066406 -25.68818359 60.87066406 -25.81640625 59.3359375 C-25.87699219 58.56507812 -25.93757813 57.79421875 -26 57 C-27.58775549 58.39080108 -29.17000939 59.78788404 -30.75 61.1875 C-32.07257813 62.35345703 -32.07257813 62.35345703 -33.421875 63.54296875 C-38.9725284 68.69244577 -38.9725284 68.69244577 -41.09765625 75.6015625 C-41.08605469 76.59929687 -41.07445312 77.59703125 -41.0625 78.625 C-41.05347656 79.62789063 -41.04445312 80.63078125 -41.03515625 81.6640625 C-41.02355469 82.43492188 -41.01195312 83.20578125 -41 84 C-43 83 -43 83 -44 80 C-44.54395942 74.2340302 -43.62912242 71.48865141 -40 67 C-39.20722656 66.41605469 -39.20722656 66.41605469 -38.3984375 65.8203125 C-36.41776121 64.30899078 -35.24593612 63.17832539 -34 61 C-33.77175979 57.99606432 -33.83197901 55.0889301 -33.95800781 52.08203125 C-34.4477875 36.96465209 -27.26283104 20.80966481 -17.625 9.3125 C-12.92683934 4.47567835 -6.97234351 0 0 0 Z " fill="#8A2E34" transform="translate(232,40)"/>
<path d="M0 0 C0.66 0.33 1.32 0.66 2 1 C2.60714844 1.26296875 3.21429688 1.5259375 3.83984375 1.796875 C8.31724923 3.83130133 10.91457223 5.30778752 13 10 C10.98177083 10.42317708 8.96354167 10.84635417 6.9453125 11.26953125 C4.62953451 11.92308838 4.62953451 11.92308838 3 15 C3.70125 14.34 4.4025 13.68 5.125 13 C8 11 8 11 11 10.25 C14.55703747 11.13925937 14.90140119 11.82193327 16.8125 14.8125 C20.29259146 20.99557512 20.99973078 26.91019227 19.3125 33.8125 C17.51102851 36.81495249 16.06005926 38.24209361 13 40 C8.77347836 40.96020006 5.40323507 40.6765208 1.48828125 38.7890625 C-2.45725011 36.28577851 -5.17207578 34.40233058 -7 30 C-7.66 30 -8.32 30 -9 30 C-11.31577937 23.05266189 -10.69308174 14.80371056 -8.1328125 7.98046875 C-6.15068481 4.51516275 -3.2354611 2.26039063 0 0 Z " fill="#E189A5" transform="translate(305,33)"/>
<path d="M0 0 C2.60575164 1.9137092 2.99578899 2.97699284 3.58984375 6.22265625 C3.70457031 7.48980469 3.81929688 8.75695312 3.9375 10.0625 C4.9968871 19.60157001 7.35749923 28.59728269 15 35 C16.98 35.99 18.96 36.98 21 38 C21 33.05 21 28.1 21 23 C21.33 23 21.66 23 22 23 C25.56638798 39.2651925 23.80664121 56.18436898 15.4765625 70.64453125 C12.56393226 74.79772623 9.0196754 77.93739017 5 81 C10.63109239 79.8349464 14.25526817 78.38909416 19 75 C19.66 75 20.32 75 21 75 C20.7614615 82.5139627 18.86268236 87.22153395 14 93 C13.01 93.495 13.01 93.495 12 94 C12.28617187 93.43539062 12.57234375 92.87078125 12.8671875 92.2890625 C13.99876397 90.00249764 15.07517063 87.70017764 16.125 85.375 C16.47820312 84.59898437 16.83140625 83.82296875 17.1953125 83.0234375 C18.12317807 81.05318968 18.12317807 81.05318968 18 79 C16.9275 79.639375 15.855 80.27875 14.75 80.9375 C9.63114606 83.83477133 5.93535002 84.11414135 0 84 C0 83.34 0 82.68 0 82 C-0.71953857 82.01571045 -1.43907715 82.0314209 -2.18041992 82.04760742 C-28.45753833 82.54610074 -28.45753833 82.54610074 -39 79 C-39.91265625 78.71382813 -40.8253125 78.42765625 -41.765625 78.1328125 C-43.85623006 77.45945811 -45.93079523 76.73649661 -48 76 C-47.566875 76.91523438 -47.13375 77.83046875 -46.6875 78.7734375 C-46.130625 79.96195312 -45.57375 81.15046875 -45 82.375 C-44.443125 83.55835938 -43.88625 84.74171875 -43.3125 85.9609375 C-42 89 -42 89 -42 91 C-47.75 90.125 -47.75 90.125 -50 89 C-50 93.95 -50 98.9 -50 104 C-50.33 104 -50.66 104 -51 104 C-51.04898438 103.28972656 -51.09796875 102.57945312 -51.1484375 101.84765625 C-51.22320312 100.92855469 -51.29796875 100.00945312 -51.375 99.0625 C-51.44460937 98.14597656 -51.51421875 97.22945313 -51.5859375 96.28515625 C-51.72257813 95.53105469 -51.85921875 94.77695313 -52 94 C-52.66 93.67 -53.32 93.34 -54 93 C-54.625 90.9375 -54.625 90.9375 -55 89 C-55.99 89.99 -55.99 89.99 -57 91 C-57.33 87.7 -57.66 84.4 -58 81 C-54.01636642 82.32787786 -51.89369166 84.00985195 -49 87 C-48.01 87.33 -47.02 87.66 -46 88 C-47.62985888 80.14127538 -47.62985888 80.14127538 -52.38671875 73.97265625 C-54.11153313 72.98309121 -55.86935227 72.04802695 -57.66015625 71.18359375 C-59.93737925 70.03167627 -61.32292433 68.89702002 -63 67 C-62.505 66.01 -62.505 66.01 -62 65 C-61.32517578 65.58007812 -61.32517578 65.58007812 -60.63671875 66.171875 C-55.11505782 70.64231792 -49.80988306 73.06118623 -43 75 C-42.37319336 75.18336914 -41.74638672 75.36673828 -41.10058594 75.55566406 C-30.53123096 78.53728162 -20.15382432 79.42930865 -9.1875 79.5625 C-7.97715088 79.58924805 -6.76680176 79.61599609 -5.51977539 79.64355469 C1.52039711 79.75800588 1.52039711 79.75800588 7.6328125 76.734375 C16.58341653 66.39539344 20.60795287 53.44148739 22 40 C18.7 39.67 15.4 39.34 12 39 C12.99 40.010625 13.98 41.02125 15 42.0625 C17.58390806 45.03460082 17.98183084 45.80922385 18.375 49.9375 C18.25125 50.948125 18.1275 51.95875 18 53 C16.83023312 50.66046624 15.74029126 48.36371359 14.75 45.9375 C12.59568012 42.32132019 10.955344 41.34481696 7 40 C4.30371421 39.82221688 4.30371421 39.82221688 2 41 C-0.751352 44.71498977 -1.4316977 47.47288273 -1.4375 52.0625 C-1.45683594 53.08472656 -1.47617188 54.10695312 -1.49609375 55.16015625 C-0.87710995 58.70347294 0.14378652 59.86662438 3 62 C5.74035031 62.72790555 8.23079943 62.5754923 11 62 C13.74526713 59.90492772 15.07880004 57.88179993 17 55 C16.74919159 58.67852334 16.38558753 60.55599012 13.9375 63.375 C10.14567214 65.4726069 7.24346109 65.85900022 3 65 C-0.57156884 62.82600158 -2.44308572 60.83765714 -4 57 C-4.65375669 51.96759385 -5.01597176 46.80631927 -2.125 42.4375 C-0.79788638 40.91522261 0.57196656 39.42803344 2 38 C-2.24822374 38.47202486 -4.19989709 40.96655518 -7 44 C-6.34 42.35 -5.68 40.7 -5 39 C-5.99 38.505 -5.99 38.505 -7 38 C-6.2575 37.4225 -5.515 36.845 -4.75 36.25 C0.53432833 30.92050647 2.21991018 22.65388241 2.375 15.375 C2.1764836 10.1295858 1.23718848 5.09235616 0 0 Z " fill="#7B2021" transform="translate(256,62)"/>
<path d="M0 0 C2.95372812 2.82530516 3.92340267 4.17274889 4.3125 8.375 C4.21447525 15.07744237 2.24109598 23.1784076 -2.5 28.125 C-4.64063064 29.73047298 -6.60450594 30.85300496 -9 32 C-8.7834375 33.00417969 -8.566875 34.00835937 -8.34375 35.04296875 C-4.05905368 55.70913155 -6.49066349 71.94683867 -17.8828125 89.98046875 C-29.15007758 106.15150305 -29.15007758 106.15150305 -35.98828125 108.7578125 C-41.07766731 109.37051529 -46.01526275 109.73348985 -50.875 107.9375 C-54.59780605 104.54317683 -56.66722351 101.41447831 -57.3515625 96.44921875 C-57.64775127 86.93078875 -55.03312665 78.9835802 -50 71 C-54.85136882 71.65559038 -59.43247059 72.9162942 -64.12109375 74.28125 C-67 75 -67 75 -70.58203125 75.1015625 C-73.94477581 75.62902933 -73.94477581 75.62902933 -75.25756836 77.52832031 C-76.38931388 79.60443456 -77.33926435 81.69302917 -78.25 83.875 C-78.89575804 85.33308066 -79.54663425 86.78890757 -80.203125 88.2421875 C-80.61546387 89.21454346 -80.61546387 89.21454346 -81.03613281 90.20654297 C-82.10011823 92.18628888 -83.34643053 93.49247062 -85 95 C-84.31583566 90.82423832 -82.98634991 87.11919593 -81.4375 83.1875 C-80.98246094 82.02605469 -80.52742187 80.86460937 -80.05859375 79.66796875 C-79.53458984 78.34732422 -79.53458984 78.34732422 -79 77 C-81.64 76.01 -84.28 75.02 -87 74 C-83.51855344 73.12963836 -81.85106848 73.0089133 -78.4375 73.25 C-66.77298388 73.39129293 -54.91938483 68.74225566 -44 65 C-45.80840001 69.79816687 -48.14375711 74.29543107 -50.52148438 78.828125 C-53.55314395 84.74983797 -54.7566861 90.33333456 -54 97 C-52.65059348 100.31217963 -51.5207227 102.4792773 -49 105 C-43.52810054 105.72703559 -37.06961483 106.28718392 -32.1875 103.3125 C-21.5100452 93.8418337 -11.59741996 72.86388231 -10.1484375 58.74609375 C-10.07496094 57.38677734 -10.07496094 57.38677734 -10 56 C-9.90976562 55.04222656 -9.81953125 54.08445313 -9.7265625 53.09765625 C-8.84209354 37.07192105 -18.47999704 22.13464896 -26.8671875 9.09765625 C-27.24101562 8.40542969 -27.61484375 7.71320313 -28 7 C-27.67 6.34 -27.34 5.68 -27 5 C-25.02 7.97 -25.02 7.97 -23 11 C-20.50638429 9.79618552 -18.31856917 8.54571278 -16 7 C-12.9375 6.75 -12.9375 6.75 -10 7 C-9.01 7.99 -9.01 7.99 -8 9 C-8.61488281 9.10957031 -9.22976563 9.21914062 -9.86328125 9.33203125 C-10.67152344 9.49058594 -11.47976563 9.64914063 -12.3125 9.8125 C-13.51326172 10.03873047 -13.51326172 10.03873047 -14.73828125 10.26953125 C-17.23445587 11.07572236 -18.32422106 12.02052002 -20 14 C-18.62712658 17.69876091 -16.93644547 20.9514476 -14.875 24.3125 C-14.33617187 25.19550781 -13.79734375 26.07851562 -13.2421875 26.98828125 C-12.83226562 27.65214844 -12.42234375 28.31601563 -12 29 C-10.52900404 28.14645914 -9.07356732 27.26607454 -7.625 26.375 C-6.81289063 25.88773438 -6.00078125 25.40046875 -5.1640625 24.8984375 C-1.36142298 21.56254796 -0.96160638 17.52609684 -0.5859375 12.6953125 C-0.50716044 11.17228924 -0.43698505 9.64879904 -0.375 8.125 C-0.33632813 7.34125 -0.29765625 6.5575 -0.2578125 5.75 C-0.16433378 3.83368633 -0.08111505 1.91687681 0 0 Z " fill="#701918" transform="translate(317,146)"/>
<path d="M0 0 C0.01417969 0.79664062 0.02835938 1.59328125 0.04296875 2.4140625 C0.18295947 9.47485125 0.18295947 9.47485125 3.3125 15.5625 C5.77367644 17.97864125 5.77367644 17.97864125 8.1328125 19.19140625 C10 21 10 21 10.56640625 24.3984375 C10.56511719 25.71070312 10.56382812 27.02296875 10.5625 28.375 C10.58441406 29.68210937 10.60632813 30.98921875 10.62890625 32.3359375 C9.86397706 36.79248145 8.53433561 38.26796906 5 41 C-0.91884969 41.412943 -6.3591627 37.34140285 -11 34 C-15.0613474 30.16018064 -16.85049492 26.82396195 -17.3125 21.1875 C-17.14569196 13.54213137 -11.22666676 9.01564933 -6.12109375 3.953125 C-1.828 0 -1.828 0 0 0 Z " fill="#FBCFCA" transform="translate(207,96)"/>
<path d="M0 0 C0.19916016 1.32064453 0.19916016 1.32064453 0.40234375 2.66796875 C0.57894531 3.82941406 0.75554687 4.99085937 0.9375 6.1875 C1.11152344 7.33605469 1.28554688 8.48460938 1.46484375 9.66796875 C1.91379313 12.46325212 2.42082162 15.22933586 3 18 C0.69 18 -1.62 18 -4 18 C-4.33 16.68 -4.66 15.36 -5 14 C-6.33111854 16.66223709 -6.36551352 19.1023017 -6.6875 22.0625 C-8.20376686 32.1746621 -13.66280043 38.24890809 -21 45 C-21.66 44.67 -22.32 44.34 -23 44 C-22.79141357 43.23921143 -22.58282715 42.47842285 -22.36791992 41.69458008 C-20.14377368 32.9658428 -19.47156242 24.67225454 -19.3125 15.6875 C-19.27921029 14.34957858 -19.24471063 13.0116867 -19.20898438 11.67382812 C-19.1274982 8.44930362 -19.05803043 5.22501715 -19 2 C-18.34 1.67 -17.68 1.34 -17 1 C-16.34 1.99 -15.68 2.98 -15 4 C-9.41506256 3.53458855 -4.90012945 0 0 0 Z " fill="#F8A1C3" transform="translate(317,89)"/>
<path d="M0 0 C0.66 0 1.32 0 2 0 C3.47265625 1.8984375 3.47265625 1.8984375 5.0625 4.375 C5.58972656 5.18710938 6.11695313 5.99921875 6.66015625 6.8359375 C8 9 8 9 9 11 C7.35 11.66 5.7 12.32 4 13 C5.27875 12.979375 6.5575 12.95875 7.875 12.9375 C11.75 12.875 11.75 12.875 14 14 C14.31241455 16.71446979 14.51336592 19.33909361 14.625 22.0625 C14.66367188 22.82111328 14.70234375 23.57972656 14.7421875 24.36132812 C14.83673562 26.24047195 14.91946756 28.12020336 15 30 C10.37069408 30.37034447 6.97317976 30.48658988 2.75 28.375 C-2.09848497 24.18767207 -5.50039698 20.49722114 -6.4375 13.9375 C-5.82953113 8.46578018 -3.36061604 4.32701081 0 0 Z " fill="#F9F4F4" transform="translate(190,145)"/>
<path d="M0 0 C2.1640625 -0.32421875 2.1640625 -0.32421875 5 0 C7.7109375 2.23046875 7.7109375 2.23046875 10.375 5.1875 C11.26960938 6.15042969 12.16421875 7.11335938 13.0859375 8.10546875 C15 11 15 11 14.76953125 13.40600586 C13.98900595 16.03705956 13.01403518 18.05161597 11.6015625 20.3984375 C10.88226563 21.61273438 10.88226563 21.61273438 10.1484375 22.8515625 C9.64570313 23.68429688 9.14296875 24.51703125 8.625 25.375 C5.36387872 30.81020213 2.33780702 36.09982037 0 42 C-2 41 -2 41 -3.2890625 37.7265625 C-3.74216125 36.36193566 -4.18713794 34.9945918 -4.625 33.625 C-4.85445313 32.93921875 -5.08390625 32.2534375 -5.3203125 31.546875 C-6.28795001 28.586365 -7 26.13391543 -7 23 C-5.02 23 -3.04 23 -1 23 C-1.28875 22.35933594 -1.5775 21.71867187 -1.875 21.05859375 C-4.14884287 15.76085568 -5.50141512 11.76627391 -5 6 C-3.18572056 8.22661567 -2.02182507 9.93296585 -1.125 12.6875 C-0.568125 13.8321875 -0.568125 13.8321875 0 15 C2.54775306 15.89386164 2.54775306 15.89386164 5 16 C5.433125 14.88625 5.433125 14.88625 5.875 13.75 C6.82302644 11.43260203 7.84845911 9.22082885 9 7 C8.443125 6.773125 7.88625 6.54625 7.3125 6.3125 C4.36753316 4.64103234 2.31843456 2.44723648 0 0 Z " fill="#F8F4F4" transform="translate(324,86)"/>
<path d="M0 0 C4.38833076 1.35829285 6.9068652 2.65835479 9.375 6.625 C10.59184479 9.72795422 11.23200787 12.51136615 11.625 15.8125 C10.965 15.8125 10.305 15.8125 9.625 15.8125 C9.50125 16.9571875 9.50125 16.9571875 9.375 18.125 C8.625 20.8125 8.625 20.8125 7.0625 22.625 C3.55887049 24.33189643 0.3914368 24.55832907 -3.375 23.8125 C-6.375 22.0625 -6.375 22.0625 -8.375 18.8125 C-9.29471929 12.40983882 -9.30500379 7.15137307 -5.375 1.8125 C-2.375 -0.1875 -2.375 -0.1875 0 0 Z " fill="#9D6F98" transform="translate(262.375,101.1875)"/>
<path d="M0 0 C5.53846154 3.07692308 5.53846154 3.07692308 7 6 C7.43008598 10.6730496 7.56413789 14.74351106 5.625 19.0625 C3.34251749 21.78392146 2.3285444 21.96209103 -1.25 22.375 C-6.04749221 21.89525078 -7.77622087 20.53080572 -11 17 C-12.58076516 12.25770452 -12.02580518 7.81339353 -11 3 C-7.96932528 -0.73006119 -4.56567698 -0.55102998 0 0 Z " fill="#9C6F99" transform="translate(220,92)"/>
<path d="M0 0 C3.63 0.66 7.26 1.32 11 2 C11.29647054 8.21882242 10.41459218 13.07679685 8.375 18.9375 C8.10429687 19.72729248 7.83359375 20.51708496 7.5546875 21.33081055 C4.54061424 29.77736712 0.62985018 36.96754562 -7 42 C-9.6875 42.625 -9.6875 42.625 -12 42 C-15.08051321 38.36939515 -15.83814666 34.69374672 -16 30 C-15.22690009 27.47388372 -14.20889847 25.369441 -13 23 C-12.34 23.495 -11.68 23.99 -11 24.5 C-7.20252308 26.39873846 -4.17075504 26.90998292 0 26 C4.35512627 22.6641586 5.53435103 20.13576265 6.30859375 14.921875 C6.71355169 8.09894735 4.43947419 5.08689751 0 0 Z " fill="#F9CCC7" transform="translate(267,100)"/>
<path d="M0 0 C5.12699664 2.01417725 7.35582732 5.66393814 9.6875 10.5 C12.73607406 18.62953081 13.50720347 27.88959197 10 36 C11.65 36.33 13.3 36.66 15 37 C15.09765625 43.15234375 15.09765625 43.15234375 15 45 C14.67 45.33 14.34 45.66 14 46 C11.96925687 45.93553196 9.93806533 45.86732164 7.91015625 45.7421875 C7.27980469 45.82726562 6.64945312 45.91234375 6 46 C5.34 46.99 4.68 47.98 4 49 C2.35008418 49.70710678 0.6792238 50.36562656 -1 51 C-2.17413524 51.69588336 -3.34047586 52.40503403 -4.5 53.125 C-9.46596859 55.78534031 -9.46596859 55.78534031 -13 55 C-15.57409193 52.69219344 -15.96739779 51.32602209 -16.3125 47.875 C-16 45 -16 45 -14 43 C-10.375 42.875 -10.375 42.875 -7 43 C-7 43.33 -7 43.66 -7 44 C-10.465 44.495 -10.465 44.495 -14 45 C-13.67 47.31 -13.34 49.62 -13 52 C-10.69 52 -8.38 52 -6 52 C-5.67 51.34 -5.34 50.68 -5 50 C-6.32 49.67 -7.64 49.34 -9 49 C-5.25 46 -5.25 46 -3 46 C-2.79375 45.401875 -2.5875 44.80375 -2.375 44.1875 C-1 42 -1 42 1.875 40.6875 C6.55201565 38.16191155 8.1837132 34.65293209 9.75 29.5625 C9.8325 29.046875 9.915 28.53125 10 28 C9.34 28 8.68 28 8 28 C8.33 27.01 8.66 26.02 9 25 C10.06808402 17.53867022 7.72506964 12.37252985 4 6 C-1.26159459 5.35834212 -3.68592849 6.79422999 -7.6796875 9.90625 C-8.11539062 10.2671875 -8.55109375 10.628125 -9 11 C-7.60364382 7.62547256 -6.1393647 5.88361882 -3 4 C-0.25 3.3125 -0.25 3.3125 2 3 C1.34 2.01 0.68 1.02 0 0 Z " fill="#802F36" transform="translate(315,39)"/>
<path d="M0 0 C0.41378906 0.85851562 0.41378906 0.85851562 0.8359375 1.734375 C1.99467848 3.98964267 3.26875706 6.10856378 4.625 8.25 C5.07101562 8.95640625 5.51703125 9.6628125 5.9765625 10.390625 C6.31429688 10.92171875 6.65203125 11.4528125 7 12 C10.11332248 11.33131686 10.11332248 11.33131686 11.1875 8.9375 C11.455625 8.298125 11.72375 7.65875 12 7 C11.401875 6.731875 10.80375 6.46375 10.1875 6.1875 C8.02775192 5.01506533 6.64209744 3.80630718 5 2 C5.33 1.34 5.66 0.68 6 0 C8.64 1.98 11.28 3.96 14 6 C12.94124926 9.40312738 11.99097846 12.01353231 10 15 C7.75 14.9375 7.75 14.9375 5 14 C3.32150176 11.7691525 2.24000737 9.52594094 1 7 C1.55145271 12.23880078 2.42922093 16.97350697 4 22 C2.02 22 0.04 22 -2 22 C-0.02 27.94 1.96 33.88 4 40 C4.90363281 38.39769531 5.80726563 36.79539063 6.73828125 35.14453125 C7.92965239 33.03383435 9.12106058 30.92315836 10.3125 28.8125 C10.90740234 27.75740234 11.50230469 26.70230469 12.11523438 25.61523438 C12.69208984 24.59365234 13.26894531 23.57207031 13.86328125 22.51953125 C14.39219971 21.58214111 14.92111816 20.64475098 15.46606445 19.67895508 C16.94388517 17.09800223 18.46039414 14.54448622 20 12 C21 15 21 15 20.06640625 17.171875 C19.57011719 18.02265625 19.07382812 18.8734375 18.5625 19.75 C15.88594528 24.44494025 13.28377947 29.16460721 10.75 33.9375 C10.40912354 34.5759082 10.06824707 35.21431641 9.71704102 35.87207031 C8.10471137 38.89563904 6.51086596 41.92430857 5 45 C-0.4191857 40.49985749 -2.85055871 31.47685377 -3.8125 24.6875 C-3.874375 23.800625 -3.93625 22.91375 -4 22 C-4.99 22 -5.98 22 -7 22 C-7.33 22.99 -7.66 23.98 -8 25 C-9.31909709 18.5510809 -8.69508823 12.51244208 -8 6 C-7.67 6 -7.34 6 -7 6 C-6.67 10.62 -6.34 15.24 -6 20 C-3.69 20 -1.38 20 1 20 C0.6803125 19.31421875 0.360625 18.6284375 0.03125 17.921875 C-1.49781659 13.58951965 -1.45180187 9.32481833 -1.65625 4.765625 C-1.7696875 3.85296875 -1.883125 2.9403125 -2 2 C-2.66 1.67 -3.32 1.34 -4 1 C-2.68 0.67 -1.36 0.34 0 0 Z " fill="#86484E" transform="translate(319,87)"/>
<path d="M0 0 C0 0.66 0 1.32 0 2 C-0.54527344 2.12375 -1.09054688 2.2475 -1.65234375 2.375 C-10.78618863 4.87314561 -16.60386101 10.14264706 -21.27294922 18.26293945 C-27.07143437 28.99789917 -31.21274992 40.55450621 -31.0625 52.875 C-31.04896484 54.32519531 -31.04896484 54.32519531 -31.03515625 55.8046875 C-31.02355469 56.52914062 -31.01195312 57.25359375 -31 58 C-28.69 56.35 -26.38 54.7 -24 53 C-23.93941406 53.65226562 -23.87882812 54.30453125 -23.81640625 54.9765625 C-23.64330376 56.78215458 -23.46060947 58.58684665 -23.26953125 60.390625 C-23.063802 62.38232266 -22.89791288 64.37817605 -22.75 66.375 C-21.70211037 70.0426137 -20.29506296 71.13757311 -17 73 C-12.57331583 73.45793285 -10.7373856 73.4915904 -7 71 C-6.01 69.515 -6.01 69.515 -5 68 C-4.67 68.66 -4.34 69.32 -4 70 C-9.62863218 75.77675408 -9.62863218 75.77675408 -13.6875 76.4375 C-18.3452915 75.82231999 -20.84161622 73.35850176 -24 70 C-25.28446919 67.43106162 -25.32977144 65.23423663 -25.5625 62.375 C-25.68818359 60.87066406 -25.68818359 60.87066406 -25.81640625 59.3359375 C-25.87699219 58.56507812 -25.93757813 57.79421875 -26 57 C-27.58775549 58.39080108 -29.17000939 59.78788404 -30.75 61.1875 C-32.07257813 62.35345703 -32.07257813 62.35345703 -33.421875 63.54296875 C-38.9725284 68.69244577 -38.9725284 68.69244577 -41.09765625 75.6015625 C-41.08605469 76.59929687 -41.07445312 77.59703125 -41.0625 78.625 C-41.05347656 79.62789063 -41.04445312 80.63078125 -41.03515625 81.6640625 C-41.02355469 82.43492188 -41.01195312 83.20578125 -41 84 C-43 83 -43 83 -44 80 C-44.54395942 74.2340302 -43.62912242 71.48865141 -40 67 C-39.20722656 66.41605469 -39.20722656 66.41605469 -38.3984375 65.8203125 C-36.41776121 64.30899078 -35.24593612 63.17832539 -34 61 C-33.77175979 57.99606432 -33.83197901 55.0889301 -33.95800781 52.08203125 C-34.4477875 36.96465209 -27.26283104 20.80966481 -17.625 9.3125 C-12.92683934 4.47567835 -6.97234351 0 0 0 Z " fill="#873A3E" transform="translate(232,40)"/>
<path d="M0 0 C-1.80840001 4.79816687 -4.14375711 9.29543107 -6.52148438 13.828125 C-9.54942635 19.74257642 -10.76898866 25.3397762 -10 32 C-8.67570727 35.31805142 -8.67570727 35.31805142 -7 38 C-6.67 38.66 -6.34 39.32 -6 40 C-6.66 40.66 -7.32 41.32 -8 42 C-12.22344597 36.73577628 -13.69638693 32.56364905 -13.359375 25.8046875 C-12.412404 18.41419644 -9.95267714 12.26976373 -6 6 C-10.85136882 6.65559038 -15.43247059 7.9162942 -20.12109375 9.28125 C-23 10 -23 10 -26.58203125 10.1015625 C-29.94477581 10.62902933 -29.94477581 10.62902933 -31.25756836 12.52832031 C-32.38931388 14.60443456 -33.33926435 16.69302917 -34.25 18.875 C-34.89575804 20.33308066 -35.54663425 21.78890757 -36.203125 23.2421875 C-36.47801758 23.8904248 -36.75291016 24.53866211 -37.03613281 25.20654297 C-38.10011823 27.18628888 -39.34643053 28.49247062 -41 30 C-40.31583566 25.82423832 -38.98634991 22.11919593 -37.4375 18.1875 C-36.75494141 16.44533203 -36.75494141 16.44533203 -36.05859375 14.66796875 C-35.70925781 13.78753906 -35.35992187 12.90710938 -35 12 C-37.64 11.01 -40.28 10.02 -43 9 C-39.51855344 8.12963836 -37.85106848 8.0089133 -34.4375 8.25 C-28.76337902 8.31891645 -23.693929 7.13445422 -18.25 5.6875 C-17.44618896 5.47448242 -16.64237793 5.26146484 -15.81420898 5.04199219 C-12.11115737 4.01428145 -8.56701065 2.88005368 -5.046875 1.33203125 C-2 0 -2 0 0 0 Z " fill="#782B29" transform="translate(273,211)"/>
<path d="M0 0 C1.19943237 0.01135986 1.19943237 0.01135986 2.4230957 0.02294922 C11.52563307 0.27490348 19.27350655 2.46853387 26 8.85546875 C28.0484813 11.21238616 29.33162011 13.50299405 30.375 16.4375 C29.88 17.9225 29.88 17.9225 29.375 19.4375 C29.0346875 18.85742188 28.694375 18.27734375 28.34375 17.6796875 C24.06884903 10.78982052 19.61429491 6.19720732 12.0625 3.0625 C3.3541449 1.58650761 -5.96299741 1.36256212 -13.5625 6.375 C-15.84394832 8.34898898 -15.84394832 8.34898898 -16.625 11.4375 C-15.61763174 13.53380655 -15.61763174 13.53380655 -14.0625 15.75 C-11.42950192 19.94306485 -9.22106008 24.21303458 -7.25 28.75 C-6.74726563 29.90113281 -6.24453125 31.05226563 -5.7265625 32.23828125 C-4.69287605 35.24037063 -4.37798142 37.30271659 -4.625 40.4375 C-6.625 39.4375 -6.625 39.4375 -7.265625 37.57421875 C-7.56726563 36.36185547 -7.56726563 36.36185547 -7.875 35.125 C-10.98526381 24.23907667 -16.46561043 13.41910261 -25.3828125 6.20703125 C-29.24506763 4.09907755 -31.62889789 3.99431757 -36 4.125 C-37.96259766 4.17720703 -37.96259766 4.17720703 -39.96484375 4.23046875 C-43.90596286 4.45339224 -47.73072966 4.80170076 -51.625 5.4375 C-48.05076603 2.01219245 -44.35551922 1.73061307 -39.625 1.4375 C-38.82449219 1.34984375 -38.02398437 1.2621875 -37.19921875 1.171875 C-30.87709736 0.73925705 -27.50023987 2.23223027 -22.53515625 6.125 C-20.59917495 7.7206571 -20.59917495 7.7206571 -17.625 7.4375 C-17.39890663 5.31385519 -17.39890663 5.31385519 -19.125 3.8125 C-19.62 3.35875 -20.115 2.905 -20.625 2.4375 C-19.573125 2.664375 -18.52125 2.89125 -17.4375 3.125 C-13.71906726 3.82485415 -13.71906726 3.82485415 -11.42578125 1.984375 C-7.57285001 -0.14360376 -4.33337974 -0.05689339 0 0 Z " fill="#903A3F" transform="translate(297.625,29.5625)"/>
<path d="M0 0 C0.64324219 0.45890625 1.28648437 0.9178125 1.94921875 1.390625 C9.03692228 6.20338803 15.70117319 8.96782715 24 11 C25.72863281 11.43119141 25.72863281 11.43119141 27.4921875 11.87109375 C37.62413818 14.14805901 47.64807519 14.67685057 58 15 C58 15.33 58 15.66 58 16 C46.1510974 16.95954097 35.43762686 17.74764795 24 14 C22.62134766 13.56880859 22.62134766 13.56880859 21.21484375 13.12890625 C19.13107746 12.45578855 17.06300459 11.73428977 15 11 C15.6496875 12.37285156 15.6496875 12.37285156 16.3125 13.7734375 C16.869375 14.96195313 17.42625 16.15046875 18 17.375 C18.556875 18.55835938 19.11375 19.74171875 19.6875 20.9609375 C21 24 21 24 21 26 C15.25 25.125 15.25 25.125 13 24 C13 28.95 13 33.9 13 39 C12.67 39 12.34 39 12 39 C11.95101562 38.28972656 11.90203125 37.57945312 11.8515625 36.84765625 C11.77679688 35.92855469 11.70203125 35.00945312 11.625 34.0625 C11.55539063 33.14597656 11.48578125 32.22945312 11.4140625 31.28515625 C11.20910156 30.15400391 11.20910156 30.15400391 11 29 C10.34 28.67 9.68 28.34 9 28 C8.375 25.9375 8.375 25.9375 8 24 C7.34 24.66 6.68 25.32 6 26 C5.67 22.7 5.34 19.4 5 16 C8.98363358 17.32787786 11.10630834 19.00985195 14 22 C14.99 22.33 15.98 22.66 17 23 C15.37014112 15.14127538 15.37014112 15.14127538 10.61328125 8.97265625 C8.88846687 7.98309121 7.13064773 7.04802695 5.33984375 6.18359375 C3.04022275 5.0203464 1.61393926 3.99493476 0 2 C0 1.34 0 0.68 0 0 Z " fill="#833030" transform="translate(193,127)"/>
<path d="M0 0 C0.79148437 -0.01417969 1.58296875 -0.02835938 2.3984375 -0.04296875 C4.625 0.1875 4.625 0.1875 7.625 2.1875 C7.625 2.8475 7.625 3.5075 7.625 4.1875 C5.03710938 5.26171875 5.03710938 5.26171875 2.44921875 6.3359375 C0.35966068 7.25556692 0.35966068 7.25556692 -2.375 9.1875 C-2.045 10.1775 -1.715 11.1675 -1.375 12.1875 C2.55222404 14.15111202 6.2820138 15.52947179 10.625 16.1875 C8.93302484 18.26526754 8.02795429 19.11051562 5.35546875 19.62109375 C1.04937105 19.62770834 -1.97220231 19.35417491 -6 17.6875 C-8.375 15.1875 -8.375 15.1875 -8.9375 11.3125 C-8.46236878 4.95761999 -6.63600285 0.05368934 0 0 Z " fill="#F9A3C5" transform="translate(310.375,51.8125)"/>
<path d="M0 0 C0.66 0 1.32 0 2 0 C-0.21056245 11.85665315 -3.60456168 21.47117168 -12.20703125 30.171875 C-14.11670144 31.6922196 -14.11670144 31.6922196 -14 33 C-12.41579871 32.37720331 -10.83267469 31.75166599 -9.25 31.125 C-8.36828125 30.77695313 -7.4865625 30.42890625 -6.578125 30.0703125 C-4.3259752 29.1353291 -2.16350541 28.12219206 0 27 C-0.2385385 34.5139627 -2.13731764 39.22153395 -7 45 C-7.99 45.495 -7.99 45.495 -9 46 C-8.71382813 45.43539062 -8.42765625 44.87078125 -8.1328125 44.2890625 C-7.00123603 42.00249764 -5.92482937 39.70017764 -4.875 37.375 C-4.52179688 36.59898437 -4.16859375 35.82296875 -3.8046875 35.0234375 C-2.87682193 33.05318968 -2.87682193 33.05318968 -3 31 C-4.0725 31.639375 -5.145 32.27875 -6.25 32.9375 C-11.36885394 35.83477133 -15.06464998 36.11414135 -21 36 C-21 35.34 -21 34.68 -21 34 C-27.27 34 -33.54 34 -40 34 C-40 33.67 -40 33.34 -40 33 C-39.33468262 32.96559814 -38.66936523 32.93119629 -37.98388672 32.89575195 C-34.94571575 32.72514249 -31.91092297 32.51916223 -28.875 32.3125 C-27.30492187 32.23225586 -27.30492187 32.23225586 -25.703125 32.15039062 C-19.08440738 31.66864852 -15.52245021 30.9624334 -11 26 C-4.8858577 18.49943088 -2.5623526 9.13830175 0 0 Z " fill="#7A2324" transform="translate(277,110)"/>
<path d="M0 0 C2.06183633 -0.08150744 4.12461349 -0.1394194 6.1875 -0.1875 C7.33605469 -0.22230469 8.48460937 -0.25710937 9.66796875 -0.29296875 C13.27039199 0.02377421 15.09366839 0.91466602 18 3 C17.68762196 5.88949684 17.35661121 7.58633099 15.4375 9.8125 C11.95058601 11.51125297 8.74986306 11.78709997 5 11 C2 8.875 2 8.875 0 6 C-0.125 2.8203125 -0.125 2.8203125 0 0 Z " fill="#CBA1F5" transform="translate(254,114)"/>
<path d="M0 0 C5.70709064 0.46588495 9.15939723 1.93757784 14 5 C12.50829734 9.9723422 10.39542583 14.41845739 8 19 C1.46380697 13.8847185 1.46380697 13.8847185 0 10 C-0.1953125 7.421875 -0.1953125 7.421875 -0.125 4.75 C-0.09792969 3.41195312 -0.09792969 3.41195312 -0.0703125 2.046875 C-0.04710937 1.37140625 -0.02390625 0.6959375 0 0 Z " fill="#F6F0F0" transform="translate(330,75)"/>
<path d="M0 0 C2.49079999 0.80997819 4.64606575 1.82303287 7 3 C5.375 8.75 5.375 8.75 2 11 C-1.29781018 11.43555984 -3.80371852 11.65560404 -6.7890625 10.01953125 C-8.4375 8.75 -8.4375 8.75 -11 6 C-11 4.68 -11 3.36 -11 2 C-7.27649978 -0.48233348 -4.31433067 -0.54322777 0 0 Z " fill="#CBA1F4" transform="translate(220,103)"/>
<path d="M0 0 C0.66 0.66 1.32 1.32 2 2 C1.828125 3.953125 1.828125 3.953125 1.25 6.25 C0.97929687 7.37148437 0.97929687 7.37148437 0.703125 8.515625 C0 11 0 11 -1.0703125 13.6484375 C-2.35046482 18.2634404 -2.21331642 22.61270704 -2.125 27.375 C-2.11146484 28.76525391 -2.11146484 28.76525391 -2.09765625 30.18359375 C-2.07422937 32.45600077 -2.04142748 34.7278618 -2 37 C5.790899 37.8316691 5.790899 37.8316691 12.5625 34.625 C13.366875 33.75875 14.17125 32.8925 15 32 C15.66 31.34 16.32 30.68 17 30 C17 33 17 33 15.56640625 34.7890625 C11.31132212 38.68748266 7.93531842 41.09983136 2.05078125 41.34375 C-1.46905826 40.75375785 -2.97488521 38.78453284 -5 36 C-8.84406639 24.46780082 -3.77664241 10.97267726 0 0 Z " fill="#884B49" transform="translate(215,210)"/>
<path d="M0 0 C3.63 0 7.26 0 11 0 C10.67 4.62 10.34 9.24 10 14 C4.06 12.515 4.06 12.515 -2 11 C-1.34 7.37 -0.68 3.74 0 0 Z " fill="#F8F4F4" transform="translate(331,62)"/>
<path d="M0 0 C4.02426366 4.60221642 6.15095859 9.58385724 6.0625 15.6875 C6.05347656 16.49574219 6.04445313 17.30398437 6.03515625 18.13671875 C6.02355469 18.75160156 6.01195312 19.36648437 6 20 C5.34 20.33 4.68 20.66 4 21 C3.81824219 20.39671875 3.63648438 19.7934375 3.44921875 19.171875 C3.19785156 18.37265625 2.94648438 17.5734375 2.6875 16.75 C2.44386719 15.96109375 2.20023437 15.1721875 1.94921875 14.359375 C0.89765041 11.74560021 -0.00102204 9.99897796 -2 8 C-4.72489473 7.30250411 -4.72489473 7.30250411 -7.6875 7.25 C-8.68136719 7.19328125 -9.67523438 7.1365625 -10.69921875 7.078125 C-11.83810547 7.03945313 -11.83810547 7.03945313 -13 7 C-6.42387733 -1.13362541 -6.42387733 -1.13362541 0 0 Z " fill="#F49EBE" transform="translate(319,44)"/>
<path d="M0 0 C-3.69718984 1.23239661 -5.14082952 0.56992009 -8.875 -0.4375 C-15.2697532 -1.88964187 -21.32268744 -2.30846745 -27.875 -2.3125 C-28.75397949 -2.31757568 -29.63295898 -2.32265137 -30.53857422 -2.32788086 C-39.358295 -2.45056638 -39.358295 -2.45056638 -47 1 C-45.35 1.99 -43.7 2.98 -42 4 C-42.33 4.66 -42.66 5.32 -43 6 C-43.66 5.505 -44.32 5.01 -45 4.5 C-51.31710012 1.34144994 -57.53877817 3.15393662 -64 5 C-60.98973593 1.51781804 -58.79448019 0.36904882 -54.3125 -0.5625 C-50.6369789 -1.36652024 -47.27913067 -2.23855671 -43.8125 -3.6875 C-30.88220694 -8.13814435 -12.14965372 -5.34584764 0 0 Z " fill="#944649" transform="translate(277,31)"/>
<path d="M0 0 C0.2475 0.556875 0.495 1.11375 0.75 1.6875 C1.95245757 4.13786616 1.95245757 4.13786616 4.125 6.3125 C6.50553532 9.72460063 6.31934909 11.92829904 6 16 C4.83023312 13.66046624 3.74029126 11.36371359 2.75 8.9375 C0.59568012 5.32132019 -1.044656 4.34481696 -5 3 C-7.69628579 2.82221688 -7.69628579 2.82221688 -10 4 C-12.751352 7.71498977 -13.4316977 10.47288273 -13.4375 15.0625 C-13.45683594 16.08472656 -13.47617188 17.10695313 -13.49609375 18.16015625 C-12.87710995 21.70347294 -11.85621348 22.86662438 -9 25 C-6.25964969 25.72790555 -3.76920057 25.5754923 -1 25 C1.74526713 22.90492772 3.07880004 20.88179993 5 18 C4.74919159 21.67852334 4.38558753 23.55599012 1.9375 26.375 C-1.85432786 28.4726069 -4.75653891 28.85900022 -9 28 C-12.57156884 25.82600158 -14.44308572 23.83765714 -16 20 C-16.68781032 14.7054601 -16.65484652 10.30969305 -14.25 5.5 C-9.43779844 0.15310938 -7.09388451 -0.35469423 0 0 Z " fill="#7F3236" transform="translate(268,99)"/>
<path d="M0 0 C0 0.66 0 1.32 0 2 C-0.54527344 2.12375 -1.09054688 2.2475 -1.65234375 2.375 C-10.78671036 4.8732883 -16.60081727 10.14250153 -21.27270508 18.26098633 C-27.59262811 29.97042814 -30.49656817 41.80540749 -32 55 C-32.33 55 -32.66 55 -33 55 C-34.17700137 38.02502469 -28.68131109 22.69253561 -17.75 9.625 C-13.03534947 4.60669401 -7.14728999 0 0 0 Z " fill="#892B30" transform="translate(232,40)"/>
<path d="M0 0 C2.66735273 2.48952921 4.55746343 4.63408134 6 8 C5.01 8 4.02 8 3 8 C2.67 6.68 2.34 5.36 2 4 C-2.34733637 7.89761192 -4.69306102 11.58833662 -5.4375 17.4375 C-4.75091213 23.02828698 -2.6084795 26.51215646 1.5 30.3125 C6.07004089 33.3972776 9.45020443 34.35963897 15 35 C15 35.33 15 35.66 15 36 C10.07017894 36.35073826 6.19484365 36.58614972 1.6875 34.375 C-2.79586537 30.41295618 -7.19937456 26.02622219 -8.40625 19.95703125 C-8.66536271 14.02982793 -7.05433017 10.74595957 -3.5078125 6.04296875 C-2.07089791 4.09606116 -1.01419137 2.19085029 0 0 Z " fill="#762425" transform="translate(190,141)"/>
<path d="M0 0 C0.13277344 0.88042969 0.26554687 1.76085937 0.40234375 2.66796875 C0.57894531 3.82941406 0.75554687 4.99085937 0.9375 6.1875 C1.11152344 7.33605469 1.28554688 8.48460938 1.46484375 9.66796875 C1.91379313 12.46325212 2.42082162 15.22933586 3 18 C0.69 18 -1.62 18 -4 18 C-4.66 12.72 -5.32 7.44 -6 2 C-3 0 -3 0 0 0 Z " fill="#9C93C2" transform="translate(317,89)"/>
<path d="M0 0 C5.88065524 5.88065524 5.357932 18.50469584 5.41339111 26.50473022 C5.41122963 27.9593069 5.40377967 29.41388507 5.39111328 30.8684082 C5.37498462 33.0645936 5.39108709 35.2589468 5.41015625 37.45507812 C5.42310383 46.17283125 4.9687623 54.69282558 2 63 C1.01 63.495 1.01 63.495 0 64 C0.11795524 62.54107996 0.24491151 61.08288823 0.375 59.625 C0.44460938 58.81289062 0.51421875 58.00078125 0.5859375 57.1640625 C0.93309589 54.5112484 1.43589111 52.01940283 2.01953125 49.4140625 C3.22368012 43.51527117 3.34191024 37.75520361 3.3125 31.75 C3.31121094 30.65333008 3.30992187 29.55666016 3.30859375 28.42675781 C3.22305448 21.19655089 2.57238273 14.66221108 0.65625 7.671875 C0.00153819 5.00626265 -0.11966178 2.73227739 0 0 Z " fill="#7D2023" transform="translate(293,70)"/>
<path d="M0 0 C0.33 0.66 0.66 1.32 1 2 C-0.36957788 4.51039763 -1.78414616 6.901608 -3.3125 9.3125 C-7.14201765 15.40552811 -7.14201765 15.40552811 -10 22 C-8.02 22.99 -6.04 23.98 -4 25 C-4 25.66 -4 26.32 -4 27 C-5.258125 27.268125 -6.51625 27.53625 -7.8125 27.8125 C-10.99448801 28.59532537 -13.00244311 29.25335928 -15 32 C-14.979375 30.88625 -14.95875 29.7725 -14.9375 28.625 C-14.73619282 25.16784079 -14.73619282 25.16784079 -16 23 C-15.01 23 -14.02 23 -13 23 C-12.77441406 22.18144531 -12.54882812 21.36289063 -12.31640625 20.51953125 C-10.69507573 16.18475738 -8.43267771 12.56614257 -5.9375 8.6875 C-5.47794922 7.95982422 -5.01839844 7.23214844 -4.54492188 6.48242188 C-1.17900989 1.17900989 -1.17900989 1.17900989 0 0 Z " fill="#721615" transform="translate(223,65)"/>
<path d="M0 0 C2.95372812 2.82530516 3.92340267 4.17274889 4.3125 8.375 C4.24436039 14.56434828 2.39512645 21.93346343 -1.44921875 26.85546875 C-3 28 -3 28 -6 28 C-5.731875 27.484375 -5.46375 26.96875 -5.1875 26.4375 C-4.795625 25.633125 -4.40375 24.82875 -4 24 C-3.24203125 22.46859375 -3.24203125 22.46859375 -2.46875 20.90625 C-0.66065644 16.66671584 -0.44933754 12.62505471 -0.3125 8.0625 C-0.27833984 7.28326172 -0.24417969 6.50402344 -0.20898438 5.70117188 C-0.1273929 3.80125607 -0.06200115 1.90065597 0 0 Z " fill="#6C1413" transform="translate(317,146)"/>
<path d="M0 0 C0.90105469 0.02707031 1.80210937 0.05414063 2.73046875 0.08203125 C3.76107422 0.13423828 3.76107422 0.13423828 4.8125 0.1875 C3.1452868 3.95820649 1.47771894 5.2584374 -2.1875 7.1875 C-1.1975 7.5175 -0.2075 7.8475 0.8125 8.1875 C0.4825 9.1775 0.1525 10.1675 -0.1875 11.1875 C-2.52044775 11.22991723 -4.85452567 11.22842937 -7.1875 11.1875 C-8.1875 10.1875 -8.1875 10.1875 -8.4375 6.8125 C-8.1875 3.1875 -8.1875 3.1875 -6.99609375 1.47265625 C-4.55943991 -0.25878892 -2.95727715 -0.11521859 0 0 Z " fill="#9F8EBA" transform="translate(309.1875,80.8125)"/>
<path d="M0 0 C1.49821059 3.37097383 2 5.20442119 2 9 C-3.39449293 9.27429625 -6.51925805 9.36055646 -11 6 C-10 3 -10 3 -7.1875 1.3125 C-4 0 -4 0 0 0 Z " fill="#FAA4C6" transform="translate(320,57)"/>
<path d="M0 0 C0.33 0 0.66 0 1 0 C1.33 5.94 1.66 11.88 2 18 C3.32 18.66 4.64 19.32 6 20 C8 22 8 22 8.75 24.5625 C9.36875 25.7690625 9.36875 25.7690625 10 27 C13.05272465 27.89830839 13.05272465 27.89830839 16 28 C16 28.66 16 29.32 16 30 C15.34 30 14.68 30 14 30 C14 30.66 14 31.32 14 32 C11.525 31.01 11.525 31.01 9 30 C8.505 32.475 8.505 32.475 8 35 C7.67 35 7.34 35 7 35 C6.96132812 33.87851563 6.96132812 33.87851563 6.921875 32.734375 C6.71601112 26.69845376 6.71601112 26.69845376 4.125 21.4375 C2.42120334 20.28493167 0.71154521 19.14103014 -1 18 C-1.25011518 15.43036425 -1.32709594 13.12353073 -1.25 10.5625 C-1.24484375 9.88123047 -1.2396875 9.19996094 -1.234375 8.49804688 C-1.18605024 5.41432316 -0.98103119 2.94309358 0 0 Z " fill="#80292B" transform="translate(220,74)"/>
<path d="M0 0 C5.61 0.33 11.22 0.66 17 1 C15.02 1.99 15.02 1.99 13 3 C11.79611609 4.63769371 11.79611609 4.63769371 10.96484375 6.58984375 C10.63033203 7.29173828 10.29582031 7.99363281 9.95117188 8.71679688 C9.61666016 9.44962891 9.28214844 10.18246094 8.9375 10.9375 C8.26476978 12.38675311 7.58655905 13.83347743 6.90234375 15.27734375 C6.60835693 15.91921631 6.31437012 16.56108887 6.01147461 17.22241211 C4.90853975 19.16073428 3.63701858 20.49783217 2 22 C2.68416434 17.82423832 4.01365009 14.11919593 5.5625 10.1875 C6.24505859 8.44533203 6.24505859 8.44533203 6.94140625 6.66796875 C7.29074219 5.78753906 7.64007813 4.90710938 8 4 C5.36 3.01 2.72 2.02 0 1 C0 0.67 0 0.34 0 0 Z " fill="#6E1514" transform="translate(230,219)"/>
<path d="M0 0 C7.65224839 3.45585411 10.95745155 10.11460123 13.8984375 17.67578125 C16.63862676 25.94493394 18.52392799 34.26786685 18 43 C17.67 43 17.34 43 17 43 C16.87471924 42.39639648 16.74943848 41.79279297 16.62036133 41.17089844 C12.68559138 20.10958975 12.68559138 20.10958975 1.35546875 2.42578125 C0 1 0 1 0 0 Z " fill="#802225" transform="translate(259,42)"/>
<path d="M0 0 C3.875 3.75 3.875 3.75 5 6 C7.49361571 4.79618552 9.68143083 3.54571278 12 2 C15.0625 1.75 15.0625 1.75 18 2 C18.66 2.66 19.32 3.32 20 4 C19.07767578 4.16435547 19.07767578 4.16435547 18.13671875 4.33203125 C16.92435547 4.56986328 16.92435547 4.56986328 15.6875 4.8125 C14.48673828 5.03873047 14.48673828 5.03873047 13.26171875 5.26953125 C10.76554413 6.07572236 9.67577894 7.02052002 8 9 C9.76429199 13.97209562 12.3939166 18.43438061 15 23 C14.34 23.66 13.68 24.32 13 25 C12.71278076 24.48091064 12.42556152 23.96182129 12.12963867 23.42700195 C10.8165026 21.05499613 9.50201321 18.68374289 8.1875 16.3125 C7.73568359 15.49587891 7.28386719 14.67925781 6.81835938 13.83789062 C4.98702629 10.53614411 3.15851027 7.25694278 1.17578125 4.04296875 C0 2 0 2 0 0 Z " fill="#732525" transform="translate(289,151)"/>
<path d="M0 0 C3.33333333 1.66666667 6.66666667 3.33333333 10 5 C9.01 5.495 9.01 5.495 8 6 C7.01 5.67 6.02 5.34 5 5 C3.60560336 4.93334624 2.20830125 4.91461801 0.8125 4.9375 C-0.445625 4.958125 -1.70375 4.97875 -3 5 C-8.33574171 12.83687063 -7.37245444 20.89555825 -7 30 C-7.66 30 -8.32 30 -9 30 C-11.31577937 23.05266189 -10.69308174 14.80371056 -8.1328125 7.98046875 C-6.15068481 4.51516275 -3.2354611 2.26039063 0 0 Z " fill="#86292D" transform="translate(305,33)"/>
<path d="M0 0 C1 3 1 3 0.06640625 5.171875 C-0.67802734 6.44804688 -0.67802734 6.44804688 -1.4375 7.75 C-4.11405472 12.44494025 -6.71622053 17.16460721 -9.25 21.9375 C-9.59087646 22.5759082 -9.93175293 23.21431641 -10.28295898 23.87207031 C-11.89528863 26.89563904 -13.48913404 29.92430857 -15 33 C-15.99 32.01 -16.98 31.02 -18 30 C-17.505 28.515 -17.505 28.515 -17 27 C-16.34 27 -15.68 27 -15 27 C-14.67128906 26.30777344 -14.34257812 25.61554688 -14.00390625 24.90234375 C-9.8161383 16.2884796 -5.01258694 8.15380808 0 0 Z " fill="#70201F" transform="translate(339,99)"/>
<path d="M0 0 C-0.2385385 7.5139627 -2.13731764 12.22153395 -7 18 C-7.66 18.33 -8.32 18.66 -9 19 C-8.71382813 18.43539062 -8.42765625 17.87078125 -8.1328125 17.2890625 C-7.00123603 15.00249764 -5.92482937 12.70017764 -4.875 10.375 C-4.34519531 9.21097656 -4.34519531 9.21097656 -3.8046875 8.0234375 C-2.87682193 6.05318968 -2.87682193 6.05318968 -3 4 C-4.0725 4.639375 -5.145 5.27875 -6.25 5.9375 C-11.36885394 8.83477133 -15.06464998 9.11414135 -21 9 C-21 8.34 -21 7.68 -21 7 C-21.99 6.67 -22.98 6.34 -24 6 C-22 6 -20 6 -18 6 C-12.04346413 5.68649811 -8.54626182 4.49169407 -3.6640625 1.05859375 C-2 0 -2 0 0 0 Z " fill="#8C4041" transform="translate(277,137)"/>
<path d="M0 0 C1.93833996 0.08715017 3.8757429 0.19532964 5.8125 0.3125 C7.43091797 0.39951172 7.43091797 0.39951172 9.08203125 0.48828125 C12.17497517 1.03068507 13.13022903 1.55289624 15 4 C14.67 4.66 14.34 5.32 14 6 C13.525625 5.505 13.05125 5.01 12.5625 4.5 C8.79641649 2.29546331 5.26540621 2.75391887 1 3 C-2.00559652 8.00932754 -2.29341888 11.32723489 -2 17 C4.1999082 20.33247818 4.1999082 20.33247818 11 22 C11 22.33 11 22.66 11 23 C4.96231508 23.77076829 1.88598289 22.08924135 -3.08203125 18.703125 C-5.0851701 16.92437034 -5.99007488 15.4580188 -7 13 C-6.34 12.01 -5.68 11.02 -5 10 C-4.10634875 8.28039836 -3.23263717 6.55034374 -2.375 4.8125 C-1.92898438 3.91144531 -1.48296875 3.01039062 -1.0234375 2.08203125 C-0.68570312 1.39496094 -0.34796875 0.70789062 0 0 Z " fill="#8C2E35" transform="translate(305,50)"/>
<path d="M0 0 C1.32 0 2.64 0 4 0 C5.73473712 1.94125344 7.4045651 3.94272868 9 6 C9.66 6.33 10.32 6.66 11 7 C10.34 8.65 9.68 10.3 9 12 C7.68 12 6.36 12 5 12 C3.515625 10.390625 3.515625 10.390625 2.25 8.25 C1.60804688 7.20585938 1.60804688 7.20585938 0.953125 6.140625 C0 4 0 4 0 0 Z " fill="#9C92C2" transform="translate(320,87)"/>
<path d="M0 0 C3.13799699 2.56745208 3.94108081 5.1383245 5 9 C5.64446068 16.75863703 6.01342321 24.14373534 2 31 C1.34 30.67 0.68 30.34 0 30 C0.32355469 29.28199219 0.64710938 28.56398438 0.98046875 27.82421875 C3.86420211 19.83594588 1.77858615 11.71669522 -1 4 C-1.33 3.01 -1.66 2.02 -2 1 C-1.34 0.67 -0.68 0.34 0 0 Z " fill="#F6A2C0" transform="translate(324,44)"/>
<path d="M0 0 C4.45596642 1.36154529 6.54952923 3.02854737 9 7 C9.1272233 9.95215895 9.07580985 12.41899822 8.75 15.3125 C8.68425781 16.05306641 8.61851562 16.79363281 8.55078125 17.55664062 C8.38672618 19.37296459 8.19601656 21.18684686 8 23 C7.67 23 7.34 23 7 23 C6.95101562 22.28972656 6.90203125 21.57945312 6.8515625 20.84765625 C6.77679688 19.92855469 6.70203125 19.00945312 6.625 18.0625 C6.52058594 16.68771484 6.52058594 16.68771484 6.4140625 15.28515625 C6.20910156 14.15400391 6.20910156 14.15400391 6 13 C5.34 12.67 4.68 12.34 4 12 C3.375 9.9375 3.375 9.9375 3 8 C2.34 8.66 1.68 9.32 1 10 C0.67 6.7 0.34 3.4 0 0 Z " fill="#84393A" transform="translate(198,143)"/>
<path d="M0 0 C0.09765625 6.15234375 0.09765625 6.15234375 0 8 C-1 9 -1 9 -2.84765625 9.09765625 C-4.8984375 9.06510417 -6.94921875 9.03255208 -9 9 C-8.34 8.34 -7.68 7.68 -7 7 C-7.99 7 -8.98 7 -10 7 C-9.63206382 4.33246269 -9.18001672 3.18001672 -7.25 1.25 C-4.62056017 -0.21079991 -2.9625559 -0.24687966 0 0 Z " fill="#9C92C1" transform="translate(330,76)"/>
<path d="M0 0 C2.02274956 2.69699942 3.86041497 5.27784747 5.625 8.125 C6.05039062 8.80820313 6.47578125 9.49140625 6.9140625 10.1953125 C8 12 8 12 9 14 C5.04 13.67 1.08 13.34 -3 13 C-2.01 8.71 -1.02 4.42 0 0 Z " fill="#F7F1F0" transform="translate(259,83)"/>
<path d="M0 0 C3.63 0.66 7.26 1.32 11 2 C11.28571429 10.57142857 11.28571429 10.57142857 9 14 C8.34 14 7.68 14 7 14 C6.773125 12.80375 6.54625 11.6075 6.3125 10.375 C5.2051224 5.83232692 3.19168889 3.35967251 0 0 Z " fill="#F0E6E6" transform="translate(267,100)"/>
<path d="M0 0 C4.95744909 1.94756929 7.13903641 5.52406242 9.75 10 C11.94962042 15.3385382 11.22959087 21.34526187 11 27 C10.01 27.33 9.02 27.66 8 28 C8.33 27.01 8.66 26.02 9 25 C10.06808402 17.53867022 7.72506964 12.37252985 4 6 C-1.26159459 5.35834212 -3.68592849 6.79422999 -7.6796875 9.90625 C-8.11539062 10.2671875 -8.55109375 10.628125 -9 11 C-7.60364382 7.62547256 -6.1393647 5.88361882 -3 4 C-0.25 3.3125 -0.25 3.3125 2 3 C1.34 2.01 0.68 1.02 0 0 Z " fill="#721415" transform="translate(315,39)"/>
<path d="M0 0 C0.2475 0.556875 0.495 1.11375 0.75 1.6875 C1.95245757 4.13786616 1.95245757 4.13786616 4.125 6.3125 C6.50553532 9.72460063 6.31934909 11.92829904 6 16 C4.83023312 13.66046624 3.74029126 11.36371359 2.75 8.9375 C0.59568012 5.32132019 -1.044656 4.34481696 -5 3 C-7.69628579 2.82221688 -7.69628579 2.82221688 -10 4 C-11.7536564 6.33942344 -11.7536564 6.33942344 -13 9 C-13.66 9.99 -14.32 10.98 -15 12 C-14.82473367 7.53070868 -14.41954213 5.48093854 -11.4375 2.0625 C-7.71258464 -0.71079465 -4.50256945 -0.38815254 0 0 Z " fill="#782F2F" transform="translate(268,99)"/>
<path d="M0 0 C0.66 0.66 1.32 1.32 2 2 C1.828125 3.953125 1.828125 3.953125 1.25 6.25 C0.97929687 7.37148437 0.97929687 7.37148437 0.703125 8.515625 C0 11 0 11 -1.0390625 13.7421875 C-2.24062761 17.81578627 -2.45315497 21.65047629 -2.625 25.875 C-2.66367188 26.65875 -2.70234375 27.4425 -2.7421875 28.25 C-2.83566622 30.16631367 -2.91888495 32.08312319 -3 34 C-3.33 34 -3.66 34 -4 34 C-5.4699297 21.4255519 -4.64773922 11.80429269 0 0 Z " fill="#8C4F4E" transform="translate(215,210)"/>
<path d="M0 0 C0.33 0 0.66 0 1 0 C1.33 4.62 1.66 9.24 2 14 C-0.64 13.34 -3.28 12.68 -6 12 C-5.37853192 10.56096954 -4.75267941 9.12383207 -4.125 7.6875 C-3.77695313 6.88699219 -3.42890625 6.08648437 -3.0703125 5.26171875 C-2 3 -2 3 0 0 Z " fill="#F4EDED" transform="translate(218,76)"/>
<path d="M0 0 C0.33 0 0.66 0 1 0 C0 8.57142857 0 8.57142857 -1 12 C1.31 12.33 3.62 12.66 6 13 C6 13.33 6 13.66 6 14 C1.545 14.495 1.545 14.495 -3 15 C-2.67 15.66 -2.34 16.32 -2 17 C-6.75 21.875 -6.75 21.875 -9 23 C-8.34 21.35 -7.68 19.7 -7 18 C-7.66 17.67 -8.32 17.34 -9 17 C-8.2575 16.4225 -7.515 15.845 -6.75 15.25 C-2.62452891 11.21855674 -1.53920931 5.39153205 0 0 Z " fill="#8A4042" transform="translate(258,83)"/>
<path d="M0 0 C2.7115029 4.06725434 2.57867488 7.1547611 3 12 C6.96 12 10.92 12 15 12 C14.67 12.66 14.34 13.32 14 14 C10.37 14 6.74 14 3 14 C3 15.65 3 17.3 3 19 C0.83183018 15.74774526 0.68004096 14.36574864 0.4375 10.5625 C0.17332331 6.59927717 0.17332331 6.59927717 -0.58984375 2.71484375 C-0.72519531 2.14894531 -0.86054688 1.58304688 -1 1 C-0.67 0.67 -0.34 0.34 0 0 Z " fill="#945253" transform="translate(328,48)"/>
<path d="M0 0 C-2 1.33333333 -4 2.66666667 -6 4 C-4.35 4.99 -2.7 5.98 -1 7 C-1.33 7.66 -1.66 8.32 -2 9 C-2.66 8.505 -3.32 8.01 -4 7.5 C-10.31710012 4.34144994 -16.53877817 6.15393662 -23 8 C-19.90320944 4.37211734 -17.50731563 3.29700934 -12.875 2.3125 C-2.05958005 -0.05419948 -2.05958005 -0.05419948 0 0 Z " fill="#802527" transform="translate(236,28)"/>
<path d="M0 0 C0.33 0 0.66 0 1 0 C0.93039062 0.64066406 0.86078125 1.28132813 0.7890625 1.94140625 C0.47726762 6.92270061 0.50578053 10.14342507 3.8125 14.0625 C5.95804195 16.31399464 6.96347026 16.98782342 10 18 C10.33 19.65 10.66 21.3 11 23 C9 23 9 23 7.37890625 21.390625 C6.47978516 20.33101562 6.47978516 20.33101562 5.5625 19.25 C4.96566406 18.55390625 4.36882812 17.8578125 3.75390625 17.140625 C2 15 2 15 0.5703125 12.75 C-0.86932201 10.78197984 -0.86932201 10.78197984 -3.26171875 10.609375 C-4.46248047 10.67898437 -4.46248047 10.67898437 -5.6875 10.75 C-6.49574219 10.78609375 -7.30398438 10.8221875 -8.13671875 10.859375 C-8.75160156 10.90578125 -9.36648438 10.9521875 -10 11 C-9.67 10.01 -9.34 9.02 -9 8 C-6.36 8 -3.72 8 -1 8 C-0.67 5.36 -0.34 2.72 0 0 Z " fill="#783A43" transform="translate(330,76)"/>
<path d="M0 0 C4.5 3 4.5 3 9 6 C7.94124926 9.40312738 6.99097846 12.01353231 5 15 C2.75 14.9375 2.75 14.9375 0 14 C-1.86135162 11.75134851 -2.78061322 9.72017052 -4 7 C-3.67 6.01 -3.34 5.02 -3 4 C-1.35 6.64 0.3 9.28 2 12 C5.11332248 11.33131686 5.11332248 11.33131686 6.1875 8.9375 C6.455625 8.298125 6.72375 7.65875 7 7 C6.401875 6.731875 5.80375 6.46375 5.1875 6.1875 C3.00152146 5.00082594 1.58667406 3.90400887 0 2 C0 1.34 0 0.68 0 0 Z " fill="#702424" transform="translate(324,87)"/>
<path d="M0 0 C-0.42797202 5.70629354 -2.84345952 9.41078616 -6 14 C-6.66 13.34 -7.32 12.68 -8 12 C-7.65640895 7.87690737 -6.02675401 4.56708706 -4 1 C-2 0 -2 0 0 0 Z " fill="#701816" transform="translate(307,218)"/>
<path d="M0 0 C1.25039062 0.09667969 2.50078125 0.19335938 3.7890625 0.29296875 C5.09101563 0.40511719 6.39296875 0.51726562 7.734375 0.6328125 C9.06502072 0.73932891 10.39574981 0.8448092 11.7265625 0.94921875 C14.98013166 1.20856122 18.23247105 1.47848066 21.484375 1.7578125 C21.484375 2.0878125 21.484375 2.4178125 21.484375 2.7578125 C-1.31690486 4.36447558 -1.31690486 4.36447558 -10.515625 1.7578125 C-6.90806544 -0.54142611 -4.19578328 -0.34329136 0 0 Z " fill="#935250" transform="translate(229.515625,140.2421875)"/>
<path d="M0 0 C4.13276354 3.72661264 6.4724551 7.26206972 8.75 12.3125 C9.05292969 12.93833984 9.35585938 13.56417969 9.66796875 14.20898438 C11.79697621 18.82183387 12.57318644 22.94001288 13 28 C11 27 11 27 10.359375 25.13671875 C10.15828125 24.32847656 9.9571875 23.52023438 9.75 22.6875 C8.25384578 17.34738032 5.97324421 12.66147561 3.40234375 7.76171875 C2.10911805 5.21489265 1.01557514 2.66770694 0 0 Z " fill="#832529" transform="translate(280,42)"/>
<path d="M0 0 C0.33 0 0.66 0 1 0 C1 1.98 1 3.96 1 6 C1.66 6 2.32 6 3 6 C2.88590407 7.45922693 2.75834456 8.91740598 2.625 10.375 C2.55539062 11.18710938 2.48578125 11.99921875 2.4140625 12.8359375 C2 15 2 15 0 17 C-0.99 17 -1.98 17 -3 17 C-2.01 11.39 -1.02 5.78 0 0 Z " fill="#7B2926" transform="translate(307,202)"/>
<path d="M0 0 C5.625 -0.25 5.625 -0.25 9 2 C9 2.66 9 3.32 9 4 C6.36 4.99 3.72 5.98 1 7 C0.34 6.34 -0.32 5.68 -1 5 C-0.625 2.375 -0.625 2.375 0 0 Z " fill="#FAA5C8" transform="translate(309,52)"/>
<path d="M0 0 C1.134375 0.020625 2.26875 0.04125 3.4375 0.0625 C3.4375 2.0425 3.4375 4.0225 3.4375 6.0625 C1.1275 5.7325 -1.1825 5.4025 -3.5625 5.0625 C-4.125 3.125 -4.125 3.125 -4.5625 1.0625 C-3.5625 0.0625 -3.5625 0.0625 0 0 Z " fill="#F6F0F1" transform="translate(216.5625,91.9375)"/>
<path d="M0 0 C0.99 0.99 1.98 1.98 3 3 C0.69 6.63 -1.62 10.26 -4 14 C-4.99 13.34 -5.98 12.68 -7 12 C-6.57847656 11.30132812 -6.15695312 10.60265625 -5.72265625 9.8828125 C-5.17480469 8.97273437 -4.62695312 8.06265625 -4.0625 7.125 C-3.51722656 6.22007812 -2.97195313 5.31515625 -2.41015625 4.3828125 C-1.56101983 2.94798364 -0.74562276 1.49124552 0 0 Z " fill="#762220" transform="translate(298,229)"/>
<path d="M0 0 C0.33 0.66 0.66 1.32 1 2 C-0.36957788 4.51039763 -1.78414616 6.901608 -3.3125 9.3125 C-7.14201765 15.40552811 -7.14201765 15.40552811 -10 22 C-10.66 21.67 -11.32 21.34 -12 21 C-10.36530185 16.39068718 -7.97080462 12.40413934 -5.4375 8.25 C-5.02564453 7.56550781 -4.61378906 6.88101563 -4.18945312 6.17578125 C-1.14773261 1.14773261 -1.14773261 1.14773261 0 0 Z " fill="#7D292B" transform="translate(223,65)"/>
<path d="M0 0 C2.02037904 3.75337657 3.08673697 7.5689135 4.21875 11.66015625 C4.96225673 14.22790555 4.96225673 14.22790555 7 17 C6.34 17.66 5.68 18.32 5 19 C0.01356885 12.78476975 -0.64897681 7.84540858 0 0 Z " fill="#7C2E2D" transform="translate(260,234)"/>
<path d="M0 0 C0.53109375 0.40992188 1.0621875 0.81984375 1.609375 1.2421875 C2.31578125 1.78101563 3.0221875 2.31984375 3.75 2.875 C4.44609375 3.40867188 5.1421875 3.94234375 5.859375 4.4921875 C10.19029457 7.54279873 13.71341384 8.39000929 19 9 C19 9.33 19 9.66 19 10 C12.42931136 10.46747982 8.24350693 10.47616445 3 6 C2.38125 5.484375 1.7625 4.96875 1.125 4.4375 C0 3 0 3 0 0 Z " fill="#681514" transform="translate(186,167)"/>
<path d="M0 0 C4.20934535 6.31401802 4.27967756 14.58854456 4 22 C3.67 22 3.34 22 3 22 C2.2996047 19.2735685 1.6144225 16.54476473 0.9375 13.8125 C0.73833984 13.04357422 0.53917969 12.27464844 0.33398438 11.48242188 C-0.68159871 7.33100328 -1.3373939 4.19722993 0 0 Z " fill="#903238" transform="translate(273,63)"/>
<path d="M0 0 C3.80984844 2.77079887 4.06840752 6.62868145 5 11 C4.34 11 3.68 11 3 11 C2.67 11.99 2.34 12.98 2 14 C1.79503906 13.31292969 1.59007812 12.62585937 1.37890625 11.91796875 C1.10949219 11.01691406 0.84007812 10.11585937 0.5625 9.1875 C0.16224609 7.84751953 0.16224609 7.84751953 -0.24609375 6.48046875 C-0.80387873 4.64526945 -1.39344575 2.81966274 -2 1 C-1.34 0.67 -0.68 0.34 0 0 Z " fill="#EF98B6" transform="translate(324,44)"/>
<path d="M0 0 C0.66 0 1.32 0 2 0 C2.06058594 0.83144531 2.12117187 1.66289062 2.18359375 2.51953125 C2.26738281 3.60621094 2.35117188 4.69289062 2.4375 5.8125 C2.55931641 7.43091797 2.55931641 7.43091797 2.68359375 9.08203125 C2.90212461 12.05989905 2.90212461 12.05989905 4 15 C4.66 15.33 5.32 15.66 6 16 C5.01 16.33 4.02 16.66 3 17 C-0.61601216 11.42531458 -0.30720059 6.39432346 0 0 Z " fill="#772A29" transform="translate(209,232)"/>
<path d="M0 0 C3.94714588 3.94714588 3.94714588 3.94714588 4.09765625 6.9453125 C4.06510417 8.96354167 4.03255208 10.98177083 4 13 C3.34 12.01 2.68 11.02 2 10 C1.34 10.66 0.68 11.32 0 12 C0 8.04 0 4.08 0 0 Z " fill="#711F1D" transform="translate(317,146)"/>
<path d="M0 0 C0.99 0.33 1.98 0.66 3 1 C-3.24161903 4.58125682 -7.75420281 6.67090715 -15 6 C-13.33924491 4.00390013 -12.42714291 3.08744049 -9.84375 2.55859375 C-8.68359375 2.49865234 -8.68359375 2.49865234 -7.5 2.4375 C-3.99566274 2.24476145 -3.07050563 2.04700375 0 0 Z " fill="#853436" transform="translate(280,153)"/>
<path d="M0 0 C1 3 1 3 -0.109375 5.62890625 C-0.65078125 6.59699219 -1.1921875 7.56507812 -1.75 8.5625 C-2.54664063 10.01849609 -2.54664063 10.01849609 -3.359375 11.50390625 C-5 14 -5 14 -8 16 C-6.42986223 10.03347646 -3.24970218 5.17090975 0 0 Z " fill="#6C1F1F" transform="translate(339,99)"/>
<path d="M0 0 C2.22825644 2.22825644 2.69239369 3.65761628 3.625 6.625 C3.88539063 7.44226563 4.14578125 8.25953125 4.4140625 9.1015625 C4.60742188 9.72804687 4.80078125 10.35453125 5 11 C-0.75 10.25 -0.75 10.25 -3 8 C-1.68 8 -0.36 8 1 8 C0.34 5.69 -0.32 3.38 -1 1 C-0.67 0.67 -0.34 0.34 0 0 Z " fill="#904849" transform="translate(209,142)"/>
<path d="M0 0 C0.66 0.99 1.32 1.98 2 3 C-2.455 9.93 -2.455 9.93 -7 17 C-7.66 16.34 -8.32 15.68 -9 15 C-8.60167969 14.41992188 -8.20335937 13.83984375 -7.79296875 13.2421875 C-4.87248393 8.9360712 -2.18115554 4.725837 0 0 Z " fill="#863234" transform="translate(188,64)"/>
<path d="M0 0 C3.36720387 1.39332574 4.9859524 2.9789286 7 6 C4 6 4 6 1.25 5.6875 C-3.18707197 6.11414154 -5.63841594 8.21525581 -9 11 C-7.60364382 7.62547256 -6.1393647 5.88361882 -3 4 C-0.25 3.3125 -0.25 3.3125 2 3 C1.34 2.01 0.68 1.02 0 0 Z " fill="#963841" transform="translate(315,39)"/>
<path d="M0 0 C3.38937153 0.60638474 5.4094469 2.23927627 8.07421875 4.37109375 C7.08421875 4.86609375 7.08421875 4.86609375 6.07421875 5.37109375 C4.80578125 4.90703125 4.80578125 4.90703125 3.51171875 4.43359375 C-0.74231269 3.11871131 -4.51434989 3.1946365 -8.92578125 3.37109375 C-6.21238774 0.20406789 -4.20669217 -0.13218811 0 0 Z " fill="#882A30" transform="translate(250.92578125,36.62890625)"/>
<path d="M0 0 C2 1 2 1 3.10546875 3.6171875 C3.64107422 5.22980469 3.64107422 5.22980469 4.1875 6.875 C4.55230469 7.94492188 4.91710937 9.01484375 5.29296875 10.1171875 C6 13 6 13 5 16 C1.75709826 11.1356474 -0.55811184 5.95319301 0 0 Z " fill="#823C3A" transform="translate(316,111)"/>
<path d="M0 0 C4.88422674 1.39549335 7.13941697 3.86804673 10 8 C10.8125 11.375 10.8125 11.375 11 14 C10.484375 13.34 9.96875 12.68 9.4375 12 C6.84274087 8.8064503 4.13386893 5.73785351 1.390625 2.671875 C0 1 0 1 0 0 Z " fill="#762828" transform="translate(317,35)"/>
<path d="M0 0 C0.33 0 0.66 0 1 0 C1.99 4.62 2.98 9.24 4 14 C3.34 14 2.68 14 2 14 C1.01 11.36 0.02 8.72 -1 6 C-3.31 5.67 -5.62 5.34 -8 5 C-8 4.67 -8 4.34 -8 4 C-4.535 3.505 -4.535 3.505 -1 3 C-0.67 2.01 -0.34 1.02 0 0 Z " fill="#7E3B39" transform="translate(206,171)"/>
<path d="M0 0 C0.66 0.66 1.32 1.32 2 2 C1.39671875 2.10957031 0.7934375 2.21914062 0.171875 2.33203125 C-5.93684987 3.50797128 -5.93684987 3.50797128 -11 7 C-11.66 6.34 -12.32 5.68 -13 5 C-8.7670765 1.49343615 -5.76857292 -0.93907001 0 0 Z " fill="#813837" transform="translate(307,153)"/>
<path d="M0 0 C0.66 0 1.32 0 2 0 C2.13277344 0.77085937 2.26554688 1.54171875 2.40234375 2.3359375 C2.57894531 3.33882812 2.75554687 4.34171875 2.9375 5.375 C3.11152344 6.37273437 3.28554687 7.37046875 3.46484375 8.3984375 C3.87712062 10.96909656 3.87712062 10.96909656 5 13 C4.34 13.66 3.68 14.32 3 15 C-0.16727335 9.8531808 -0.35050464 5.841744 0 0 Z " fill="#813937" transform="translate(182,154)"/>
<path d="M0 0 C0 0.33 0 0.66 0 1 C-2.56149628 1.50567729 -5.12399465 2.00470132 -7.6875 2.5 C-8.7693457 2.71462891 -8.7693457 2.71462891 -9.87304688 2.93359375 C-13.63841359 3.65571887 -17.14473813 4.1824976 -21 4 C-15.54782369 -1.2250023 -7.06659547 -0.14722074 0 0 Z " fill="#7F2123" transform="translate(267,31)"/>
<path d="M0 0 C0.33 0.66 0.66 1.32 1 2 C1.66 2.33 2.32 2.66 3 3 C0.03 7.95 0.03 7.95 -3 13 C-4.23593891 9.29218328 -3.5678132 8.32489747 -2.0625 4.8125 C-1.68222656 3.91144531 -1.30195313 3.01039063 -0.91015625 2.08203125 C-0.60980469 1.39496094 -0.30945313 0.70789063 0 0 Z " fill="#792A28" transform="translate(236,228)"/>
<path d="M0 0 C2.1875 -0.4375 2.1875 -0.4375 5 0 C6.98441782 2.13995327 8.5023304 4.50175965 10 7 C5.50750368 6.14056592 3.34156181 4.03778347 0 1 C0 0.67 0 0.34 0 0 Z " fill="#EADBDA" transform="translate(324,86)"/>
<path d="M0 0 C0 0.66 0 1.32 0 2 C-6.93 3.485 -6.93 3.485 -14 5 C-8.95010195 -0.04989805 -6.85542591 -0.12934766 0 0 Z " fill="#904142" transform="translate(227,31)"/>
<path d="M0 0 C0.33 0.99 0.66 1.98 1 3 C-0.43359375 5.26171875 -0.43359375 5.26171875 -2.4375 7.6875 C-3.09621094 8.49574219 -3.75492187 9.30398437 -4.43359375 10.13671875 C-4.95050781 10.75160156 -5.46742188 11.36648437 -6 12 C-6.66 11.67 -7.32 11.34 -8 11 C-5.36 7.37 -2.72 3.74 0 0 Z " fill="#752425" transform="translate(290,141)"/>
<path d="M0 0 C3.33333333 1.66666667 6.66666667 3.33333333 10 5 C7.2780754 6.3609623 5.8168043 5.70366248 2.875 5.0625 C1.96492188 4.86785156 1.05484375 4.67320313 0.1171875 4.47265625 C-0.58148438 4.31667969 -1.28015625 4.16070312 -2 4 C-2 3.01 -2 2.02 -2 1 C-1.34 0.67 -0.68 0.34 0 0 Z " fill="#A34852" transform="translate(305,33)"/>
<path d="M0 0 C2.475 0.99 2.475 0.99 5 2 C5 3.32 5 4.64 5 6 C4.01 6 3.02 6 2 6 C0.3125 3.5 0.3125 3.5 -1 1 C-0.67 0.67 -0.34 0.34 0 0 Z " fill="#F59EC0" transform="translate(275,32)"/>
<path d="M0 0 C0.66 0.33 1.32 0.66 2 1 C2.125 4.375 2.125 4.375 2 8 C1.34 8.66 0.68 9.32 0 10 C-0.33 9.67 -0.66 9.34 -1 9 C-0.91062197 7.47480724 -0.75462854 5.95318071 -0.5625 4.4375 C-0.46066406 3.61121094 -0.35882813 2.78492188 -0.25390625 1.93359375 C-0.17011719 1.29550781 -0.08632813 0.65742188 0 0 Z " fill="#690704" transform="translate(318,155)"/>
<path d="M0 0 C1.98 0.495 1.98 0.495 4 1 C4 2.32 4 3.64 4 5 C2.35 5 0.7 5 -1 5 C-0.67 3.35 -0.34 1.7 0 0 Z " fill="#F2EAEA" transform="translate(260,101)"/>
<path d="M0 0 C0.33 0 0.66 0 1 0 C1.17942163 3.94727588 1.09350689 6.5980513 -1 10 C-0.34 10 0.32 10 1 10 C1 10.66 1 11.32 1 12 C-0.65 12 -2.3 12 -4 12 C-2.68 8.04 -1.36 4.08 0 0 Z " fill="#6E1716" transform="translate(329,64)"/>
<path d="M0 0 C1.98 0.99 1.98 0.99 4 2 C4 4.64 4 7.28 4 10 C3.34 9.67 2.68 9.34 2 9 C1.3671875 6.93359375 1.3671875 6.93359375 0.875 4.4375 C0.70742187 3.61121094 0.53984375 2.78492188 0.3671875 1.93359375 C0.24601563 1.29550781 0.12484375 0.65742188 0 0 Z " fill="#ECE0DF" transform="translate(200,146)"/>
<path d="M0 0 C1.33333333 0.66666667 2.66666667 1.33333333 4 2 C4.721875 2.268125 5.44375 2.53625 6.1875 2.8125 C8 4 8 4 8.75 6.625 C8.87375 7.800625 8.87375 7.800625 9 9 C7 9 7 9 5.2734375 7.28515625 C4.64695312 6.55167969 4.02046875 5.81820312 3.375 5.0625 C2.74335938 4.33160156 2.11171875 3.60070312 1.4609375 2.84765625 C0 1 0 1 0 0 Z " fill="#86403F" transform="translate(332,90)"/>
<path d="M0 0 C-0.33 1.65 -0.66 3.3 -1 5 C-3.97 4.505 -3.97 4.505 -7 4 C-3.375 0 -3.375 0 0 0 Z " fill="#8E6581" transform="translate(313,85)"/>
<path d="M0 0 C1.32 0 2.64 0 4 0 C3.67 1.65 3.34 3.3 3 5 C1.68 4.67 0.36 4.34 -1 4 C-0.67 2.68 -0.34 1.36 0 0 Z " fill="#A092BF" transform="translate(315,82)"/>
<path d="M0 0 C0.66 0.33 1.32 0.66 2 1 C-0.64 3.97 -3.28 6.94 -6 10 C-6.33 9.01 -6.66 8.02 -7 7 C-4.89921489 3.92385037 -3.11378405 2.07585603 0 0 Z " fill="#882B31" transform="translate(235,42)"/>
<path d="M0 0 C2.29633824 3.44450737 2.54016485 5.93812283 3 10 C2.01 10 1.02 10 0 10 C0 6.7 0 3.4 0 0 Z " fill="#7A312F" transform="translate(307,180)"/>
<path d="M0 0 C0.66 0.33 1.32 0.66 2 1 C-0.64 3.64 -3.28 6.28 -6 9 C-6.33 8.01 -6.66 7.02 -7 6 C-4.69 4.02 -2.38 2.04 0 0 Z " fill="#8F3A40" transform="translate(211,36)"/>
<path d="M0 0 C0.99 0.33 1.98 0.66 3 1 C2.625 3.4375 2.625 3.4375 2 6 C1.01 6.495 1.01 6.495 0 7 C-1.125 2.25 -1.125 2.25 0 0 Z " fill="#6B0F0D" transform="translate(300,225)"/>
<path d="M0 0 C0.66 0.66 1.32 1.32 2 2 C0.68 4.64 -0.64 7.28 -2 10 C-2.66 9.67 -3.32 9.34 -4 9 C-2.80100302 5.9168649 -1.52299523 2.93720508 0 0 Z " fill="#772C2B" transform="translate(330,114)"/>
<path d="M0 0 C0.33 0 0.66 0 1 0 C1 2.31 1 4.62 1 7 C-0.32 6.34 -1.64 5.68 -3 5 C-1.125 1.125 -1.125 1.125 0 0 Z " fill="#FCF9F8" transform="translate(205,98)"/>
<path d="M0 0 C0.99 0.33 1.98 0.66 3 1 C3.33 3.31 3.66 5.62 4 8 C3.01 8 2.02 8 1 8 C0.67 5.36 0.34 2.72 0 0 Z " fill="#DC849B" transform="translate(306,52)"/>
</svg>
