<?xml version="1.0" encoding="UTF-8"?>
<svg version="1.1" xmlns="http://www.w3.org/2000/svg" width="498" height="281">
<path d="M0 0 C164.34 0 328.68 0 498 0 C498 92.73 498 185.46 498 281 C333.66 281 169.32 281 0 281 C0 188.27 0 95.54 0 0 Z " fill="#FCFCFB" transform="translate(0,0)"/>
<path d="M0 0 C2.24300465 -0.30565995 3.77901428 -0.86609977 5.71484375 -2.0390625 C13.07302064 -5.13327022 24.85043219 -3.8334562 32.25 -1.3125 C39.24811626 1.75252488 43.90557567 5.84844154 47 13 C48.7140787 17.7670515 50 21.90682761 50 27 C53.96 27 57.92 27 62 27 C61.97679687 28.20398437 61.95359375 29.40796875 61.9296875 30.6484375 C61.91093137 32.22395215 61.89273101 33.79947348 61.875 35.375 C61.84986328 36.56609375 61.84986328 36.56609375 61.82421875 37.78125 C61.80664527 39.85492015 61.89664832 41.92883241 62 44 C62.66 44.66 63.32 45.32 64 46 C63.77168455 49.88136258 63.08193475 52.8156468 61.5 56.375 C60.19319784 59.53310523 59.84329585 61.0071383 59.6875 64.25 C59.18345752 70.2985098 56.06318935 74.8897398 53 80 C52.13921707 81.51709837 51.28460032 83.03771943 50.4375 84.5625 C50.04046875 85.2740625 49.6434375 85.985625 49.234375 86.71875 C47.04870696 90.75808588 45.02266981 94.87719643 43 99 C40.32861328 96.66348797 39.19003273 94.48870975 37.9375 91.1875 C37.60105469 90.30191406 37.26460937 89.41632813 36.91796875 88.50390625 C36.61503906 87.67761719 36.31210937 86.85132812 36 86 C35.38125 84.329375 35.38125 84.329375 34.75 82.625 C34 80 34 80 34 76 C33.01 76 32.02 76 31 76 C30.92523438 76.61746094 30.85046875 77.23492187 30.7734375 77.87109375 C29.18230612 88.11985178 23.74811824 95.29028936 16 102 C15.01 102.495 15.01 102.495 14 103 C15.98 104.32 17.96 105.64 20 107 C16.52176885 108.15941038 14.54104422 107.70820884 11 107 C10.79375 107.66 10.5875 108.32 10.375 109 C7.13284567 116.07379126 2.40429887 122.10867786 -5 125 C-8.67103957 125.64982735 -12.2753105 125.92468459 -16 126 C-15.27683594 124.93072266 -15.27683594 124.93072266 -14.5390625 123.83984375 C-11.10658541 118.63508768 -8.22866712 114.14333558 -7 108 C-8.0725 108.639375 -9.145 109.27875 -10.25 109.9375 C-15.36885394 112.83477133 -19.06464998 113.11414135 -25 113 C-25 112.34 -25 111.68 -25 111 C-25.69448242 111.01047363 -26.38896484 111.02094727 -27.10449219 111.03173828 C-30.31962307 111.07388819 -33.5346955 111.09951061 -36.75 111.125 C-37.84183594 111.14175781 -38.93367188 111.15851563 -40.05859375 111.17578125 C-51.88787227 111.24577698 -62.01421103 109.33649565 -73 105 C-71.02 109.62 -69.04 114.24 -67 119 C-67.99 119.33 -68.98 119.66 -70 120 C-73.51812879 118.17811188 -76.70675477 116.19549682 -80 114 C-79.7628125 114.53625 -79.525625 115.0725 -79.28125 115.625 C-77.44255092 121.21464521 -77.96082459 124.73578374 -80.51904297 129.86889648 C-81.99352146 132.6267897 -83.49200182 135.37076385 -85.00195312 138.109375 C-92.55013345 152.40808058 -93.72299822 166.68525968 -89.265625 182.08203125 C-85.76903248 193.15179917 -82.13949849 203.77489491 -73.0625 211.5 C-69.46605571 213.26152374 -66.95581929 213.31646554 -63 213 C-60.14032685 207.95982608 -59.5660294 202.73116726 -60 197 C-61.28960108 193.84501264 -62.80772279 191.13881727 -64.65234375 188.27734375 C-66 186 -66 186 -66 183 C-65.47543213 183.16081055 -64.95086426 183.32162109 -64.41040039 183.48730469 C-59.52639945 184.52613807 -54.45997887 184.22591991 -49.48510742 184.24023438 C-47.46815357 184.2498538 -45.45225818 184.28086144 -43.43554688 184.3125 C-36.28916512 184.3408446 -30.03730301 183.89140463 -23.22363281 181.66577148 C-20.43470712 180.83074729 -17.89119319 180.76557893 -15 181 C-17.96346786 183.47186455 -20.54041689 184.66248361 -24.25 185.6875 C-25.58804688 186.06455078 -25.58804688 186.06455078 -26.953125 186.44921875 C-27.96632812 186.72185547 -27.96632812 186.72185547 -29 187 C-28.04872467 193.65892732 -26.1820607 199.59712545 -23.6875 205.8125 C-23.26198853 206.90582642 -23.26198853 206.90582642 -22.82788086 208.02124023 C-20.9225507 212.6254793 -18.80987699 215.64960566 -15 219 C-14.67 219.33 -14.34 219.66 -14 220 C-8.95082202 220.65452307 -5.19480498 220.82904836 -0.9375 217.875 C1.25384539 214.62332619 1.77522942 212.89602343 2 209 C2.05027344 208.35289062 2.10054688 207.70578125 2.15234375 207.0390625 C2.55932789 198.02029392 -0.27902961 189.34893938 -3.546875 181.03515625 C-4.47953406 176.84623063 -2.65057945 172.78043119 -1.1875 168.875 C-0.83429688 167.92109375 -0.48109375 166.9671875 -0.1171875 165.984375 C0.62760417 163.99479167 1.37239583 162.00520833 2.1171875 160.015625 C2.47039062 159.06171875 2.82359375 158.1078125 3.1875 157.125 C3.51105469 156.26132813 3.83460938 155.39765625 4.16796875 154.5078125 C4.99542987 152.01377474 5.53418459 149.58355027 6 147 C6.185625 146.154375 6.37125 145.30875 6.5625 144.4375 C7.60199191 136.27006353 7.08449437 128.13370779 6 120 C6.66 120 7.32 120 8 120 C8.99 122.97 9.98 125.94 11 129 C11.66 128.34 12.32 127.68 13 127 C15.1640625 126.8046875 15.1640625 126.8046875 17.625 126.875 C18.44226563 126.89304688 19.25953125 126.91109375 20.1015625 126.9296875 C20.72804688 126.95289063 21.35453125 126.97609375 22 127 C22 127.66 22 128.32 22 129 C18.92382812 129.29296875 18.92382812 129.29296875 15.84765625 129.5859375 C15.23792969 129.72257813 14.62820313 129.85921875 14 130 C13.67 130.66 13.34 131.32 13 132 C12.01 132 11.02 132 10 132 C10 136.62 10 141.24 10 146 C18.26707246 145.43692747 18.26707246 145.43692747 25.1875 141.5 C27.58527525 138.1927238 28.12716424 136.58622345 28.1328125 132.5703125 C28.13474609 131.25353516 28.13474609 131.25353516 28.13671875 129.91015625 C28.13285156 128.99105469 28.12898437 128.07195312 28.125 127.125 C28.12886719 126.21363281 28.13273438 125.30226562 28.13671875 124.36328125 C28.13542969 123.48285156 28.13414062 122.60242188 28.1328125 121.6953125 C28.13112061 120.4889917 28.13112061 120.4889917 28.12939453 119.25830078 C28.0027734 117.04840365 27.61146326 115.12220865 27 113 C30.68004052 116.43470448 32.73410909 118.88406811 33.37109375 123.953125 C33.52034845 131.36318202 33.03783686 136.37604361 28 142 C23.32659075 146.67340925 17.03197579 149.78722977 10.4375 150.25 C9.633125 150.1675 8.82875 150.085 8 150 C7.90976562 151.14210937 7.81953125 152.28421875 7.7265625 153.4609375 C7.02984957 159.05187409 4.7110948 163.75902566 2.3515625 168.8203125 C0.33413939 173.38431888 -0.38996433 176.03851299 1 181 C1.39985873 182.58525307 1.7966921 184.17127065 2.19140625 185.7578125 C2.41449463 186.62510986 2.63758301 187.49240723 2.86743164 188.38598633 C8.50842484 210.61510565 8.50842484 210.61510565 3.265625 220.4765625 C1.03978493 223.15581443 -1.17830593 223.89325425 -4.5859375 224.3359375 C-10.59419376 224.42008675 -14.34271849 224.20291259 -19 220 C-26.37100603 211.66182419 -31 199.1149597 -31 188 C-31.85585693 188.24339111 -31.85585693 188.24339111 -32.72900391 188.49169922 C-35.01183157 189.00264818 -37.00076863 189.129238 -39.3359375 189.1328125 C-40.15320313 189.13410156 -40.97046875 189.13539063 -41.8125 189.13671875 C-42.658125 189.13285156 -43.50375 189.12898437 -44.375 189.125 C-45.63183594 189.13080078 -45.63183594 189.13080078 -46.9140625 189.13671875 C-51.38950693 189.12968189 -55.59540529 188.90387448 -60 188 C-59.71125 188.70125 -59.4225 189.4025 -59.125 190.125 C-54.28611473 202.49104014 -54.28611473 202.49104014 -56.8359375 209.19921875 C-58.29040447 212.24485072 -59.60206587 214.60206587 -62 217 C-67.04285105 217.97482623 -71.76159141 217.69736349 -76.125 214.875 C-85.81829877 206.63667914 -90.69781362 192.10108408 -93.6875 180.1875 C-94.02491211 178.92969727 -94.02491211 178.92969727 -94.36914062 177.64648438 C-96.26704048 170.14141534 -96.97461363 162.5926264 -95.0625 155 C-94.88847656 154.278125 -94.71445313 153.55625 -94.53515625 152.8125 C-94 151 -94 151 -93 149 C-93.680625 148.95875 -94.36125 148.9175 -95.0625 148.875 C-100.0974213 147.37523621 -103.54541325 143.90914511 -106.6875 139.78515625 C-108.3647479 136.22599627 -108.45428008 133.04294441 -108.375 129.1875 C-108.36339844 128.47408447 -108.35179687 127.76066895 -108.33984375 127.02563477 C-108.13944406 120.58263743 -107.7199442 115.83675162 -103.08984375 111.0078125 C-100.5322429 108.69622408 -98.09280731 106.54640365 -95 105 C-95.65755847 102.2984646 -96.39523287 99.63630374 -97.19140625 96.97265625 C-100.76175025 84.42673861 -101.58748058 73.00290351 -101 60 C-104.63 59.34 -108.26 58.68 -112 58 C-112 57.34 -112 56.68 -112 56 C-110.85423404 54.95244255 -109.6560644 53.96190283 -108.4375 53 C-102.1256315 47.61209109 -98.01790359 41.04600683 -94.1875 33.75 C-87.03929745 20.27544707 -76.11227533 3.03215432 -61.0078125 -1.99609375 C-58.96403925 -2.49793629 -56.90985734 -2.9591662 -54.84765625 -3.37890625 C-52.32208589 -3.92975081 -50.2406718 -4.68289965 -47.875 -5.6875 C-33.54429831 -10.5764939 -12.93223674 -7.10005155 0 0 Z " fill="#FAA0C5" transform="translate(283,33)"/>
<path d="M0 0 C0.79889648 0.00684814 1.59779297 0.01369629 2.42089844 0.02075195 C11.73125768 0.27205259 19.83014082 2.5733794 26.375 9.4375 C30.67159594 15.69825409 33.375 22.79830186 33.375 30.4375 C37.335 30.4375 41.295 30.4375 45.375 30.4375 C45.35179687 31.64148438 45.32859375 32.84546875 45.3046875 34.0859375 C45.28593137 35.66145215 45.26773101 37.23697348 45.25 38.8125 C45.22486328 40.00359375 45.22486328 40.00359375 45.19921875 41.21875 C45.18164527 43.29242015 45.27164832 45.36633241 45.375 47.4375 C46.035 48.0975 46.695 48.7575 47.375 49.4375 C47.14668455 53.31886258 46.45693475 56.2531468 44.875 59.8125 C43.56819784 62.97060523 43.21829585 64.4446383 43.0625 67.6875 C42.55845752 73.7360098 39.43818935 78.3272398 36.375 83.4375 C35.51421707 84.95459837 34.65960032 86.47521943 33.8125 88 C33.41546875 88.7115625 33.0184375 89.423125 32.609375 90.15625 C30.42370696 94.19558588 28.39766981 98.31469643 26.375 102.4375 C23.70361328 100.10098797 22.56503273 97.92620975 21.3125 94.625 C20.97605469 93.73941406 20.63960938 92.85382813 20.29296875 91.94140625 C19.99003906 91.11511719 19.68710937 90.28882812 19.375 89.4375 C18.9625 88.32375 18.55 87.21 18.125 86.0625 C17.375 83.4375 17.375 83.4375 17.375 79.4375 C16.385 79.4375 15.395 79.4375 14.375 79.4375 C14.30023438 80.05496094 14.22546875 80.67242187 14.1484375 81.30859375 C12.55730612 91.55735178 7.12311824 98.72778936 -0.625 105.4375 C-1.615 105.9325 -1.615 105.9325 -2.625 106.4375 C-0.645 107.7575 1.335 109.0775 3.375 110.4375 C-0.10323115 111.59691038 -2.08395578 111.14570884 -5.625 110.4375 C-5.934375 111.4275 -5.934375 111.4275 -6.25 112.4375 C-9.49215433 119.51129126 -14.22070113 125.54617786 -21.625 128.4375 C-25.29603957 129.08732735 -28.9003105 129.36218459 -32.625 129.4375 C-30.9967604 127.48878149 -30.11589918 126.52632938 -27.57421875 126.06640625 C-26.45466797 126.03353516 -26.45466797 126.03353516 -25.3125 126 C-19.26737018 125.48072629 -16.12783159 123.08694931 -12.0625 118.625 C-0.23008622 100.74321711 0.66241071 73.82818153 -2.6875 53.375 C-6.27541121 37.00199671 -10.91709981 20.08640851 -23.625 8.4375 C-24.65313611 7.12574014 -25.66584432 5.8005107 -26.625 4.4375 C-23.6530615 5.56201727 -21.29059313 6.66043791 -18.625 8.4375 C-18.295 7.4475 -17.965 6.4575 -17.625 5.4375 C-18.615 4.4475 -19.605 3.4575 -20.625 2.4375 C-19.0471875 2.7778125 -19.0471875 2.7778125 -17.4375 3.125 C-13.71906726 3.82485415 -13.71906726 3.82485415 -11.42578125 1.984375 C-7.57263447 -0.1437228 -4.33353586 -0.05644977 0 0 Z " fill="#7B3338" transform="translate(299.625,29.5625)"/>
<path d="M0 0 C0.70705078 0.11746582 1.41410156 0.23493164 2.14257812 0.35595703 C6.00102193 1.0913907 8.70924006 2.01845821 11.625 4.6875 C10.64660156 4.48833984 10.64660156 4.48833984 9.6484375 4.28515625 C8.77445312 4.10855469 7.90046875 3.93195312 7 3.75 C6.14148438 3.57597656 5.28296875 3.40195312 4.3984375 3.22265625 C3.48320312 3.04605469 2.56796875 2.86945312 1.625 2.6875 C0.7484375 2.50445313 -0.128125 2.32140625 -1.03125 2.1328125 C-5.77553499 1.50098015 -10.46902401 1.50320012 -15.25 1.5 C-16.20519531 1.48775391 -17.16039062 1.47550781 -18.14453125 1.46289062 C-23.9129404 1.45102147 -28.84466961 2.03363051 -34.375 3.6875 C-33.055 5.0075 -31.735 6.3275 -30.375 7.6875 C-30.705 8.3475 -31.035 9.0075 -31.375 9.6875 C-31.99375 9.1925 -32.6125 8.6975 -33.25 8.1875 C-37.70721097 6.04803874 -41.5188491 5.7666299 -46.375 6.6875 C-48.95545039 8.01934536 -51.16362389 9.51070854 -53.46484375 11.27734375 C-55.375 12.6875 -55.375 12.6875 -58.375 13.6875 C-59.08952204 14.99581207 -59.75003679 16.33411786 -60.375 17.6875 C-61.40123025 19.04413882 -62.45888298 20.37731735 -63.5390625 21.69140625 C-68.51008954 27.97783957 -72.49511807 34.8437732 -76.59375 41.71679688 C-81.11801791 49.13262094 -86.23041058 55.54291058 -92.375 61.6875 C-89.075 62.0175 -85.775 62.3475 -82.375 62.6875 C-82.45621094 64.29753906 -82.53742188 65.90757813 -82.62109375 67.56640625 C-83.29603204 87.00314559 -81.13136849 107.04833637 -68.375 122.6875 C-67.88 123.1825 -67.88 123.1825 -67.375 123.6875 C-67.375 121.0475 -67.375 118.4075 -67.375 115.6875 C-66.26125 116.285625 -65.1475 116.88375 -64 117.5 C-63.37351563 117.83644531 -62.74703125 118.17289062 -62.1015625 118.51953125 C-60.375 119.6875 -60.375 119.6875 -58.375 122.6875 C-60.375 121.6875 -62.375 120.6875 -64.375 119.6875 C-64.1378125 120.22375 -63.900625 120.76 -63.65625 121.3125 C-61.81755092 126.90214521 -62.33582459 130.42328374 -64.89404297 135.55639648 C-66.36852146 138.3142897 -67.86700182 141.05826385 -69.37695312 143.796875 C-76.92513345 158.09558058 -78.09799822 172.37275968 -73.640625 187.76953125 C-70.14403248 198.83929917 -66.51449849 209.46239491 -57.4375 217.1875 C-53.84105571 218.94902374 -51.33081929 219.00396554 -47.375 218.6875 C-44.51532685 213.64732608 -43.9410294 208.41866726 -44.375 202.6875 C-45.66460108 199.53251264 -47.18272279 196.82631727 -49.02734375 193.96484375 C-50.375 191.6875 -50.375 191.6875 -50.375 188.6875 C-49.85043213 188.84831055 -49.32586426 189.00912109 -48.78540039 189.17480469 C-43.90139945 190.21363807 -38.83497887 189.91341991 -33.86010742 189.92773438 C-31.84315357 189.9373538 -29.82725818 189.96836144 -27.81054688 190 C-20.66416512 190.0283446 -14.41230301 189.57890463 -7.59863281 187.35327148 C-4.80970712 186.51824729 -2.26619319 186.45307893 0.625 186.6875 C-2.33846786 189.15936455 -4.91541689 190.34998361 -8.625 191.375 C-9.96304688 191.75205078 -9.96304688 191.75205078 -11.328125 192.13671875 C-12.34132812 192.40935547 -12.34132812 192.40935547 -13.375 192.6875 C-12.42372467 199.34642732 -10.5570607 205.28462545 -8.0625 211.5 C-7.63698853 212.59332642 -7.63698853 212.59332642 -7.20288086 213.70874023 C-5.2975507 218.3129793 -3.18487699 221.33710566 0.625 224.6875 C0.955 225.0175 1.285 225.3475 1.625 225.6875 C6.67417798 226.34202307 10.43019502 226.51654836 14.6875 223.5625 C16.87884539 220.31082619 17.40022942 218.58352343 17.625 214.6875 C17.67527344 214.04039062 17.72554688 213.39328125 17.77734375 212.7265625 C18.18432789 203.70779392 15.34597039 195.03643938 12.078125 186.72265625 C11.14546594 182.53373063 12.97442055 178.46793119 14.4375 174.5625 C14.79070312 173.60859375 15.14390625 172.6546875 15.5078125 171.671875 C16.25260417 169.68229167 16.99739583 167.69270833 17.7421875 165.703125 C18.09539062 164.74921875 18.44859375 163.7953125 18.8125 162.8125 C19.13605469 161.94882813 19.45960938 161.08515625 19.79296875 160.1953125 C20.62042987 157.70127474 21.15918459 155.27105027 21.625 152.6875 C21.810625 151.841875 21.99625 150.99625 22.1875 150.125 C23.22699191 141.95756353 22.70949437 133.82120779 21.625 125.6875 C22.285 125.6875 22.945 125.6875 23.625 125.6875 C24.615 128.6575 25.605 131.6275 26.625 134.6875 C27.285 134.0275 27.945 133.3675 28.625 132.6875 C30.7890625 132.4921875 30.7890625 132.4921875 33.25 132.5625 C34.06726563 132.58054688 34.88453125 132.59859375 35.7265625 132.6171875 C36.35304688 132.64039063 36.97953125 132.66359375 37.625 132.6875 C37.625 133.3475 37.625 134.0075 37.625 134.6875 C34.54882812 134.98046875 34.54882812 134.98046875 31.47265625 135.2734375 C30.86292969 135.41007813 30.25320313 135.54671875 29.625 135.6875 C29.295 136.3475 28.965 137.0075 28.625 137.6875 C27.635 137.6875 26.645 137.6875 25.625 137.6875 C25.625 142.3075 25.625 146.9275 25.625 151.6875 C33.89207246 151.12442747 33.89207246 151.12442747 40.8125 147.1875 C43.21027525 143.8802238 43.75216424 142.27372345 43.7578125 138.2578125 C43.75974609 136.94103516 43.75974609 136.94103516 43.76171875 135.59765625 C43.75785156 134.67855469 43.75398437 133.75945312 43.75 132.8125 C43.75386719 131.90113281 43.75773438 130.98976562 43.76171875 130.05078125 C43.76042969 129.17035156 43.75914062 128.28992188 43.7578125 127.3828125 C43.75612061 126.1764917 43.75612061 126.1764917 43.75439453 124.94580078 C43.6277734 122.73590365 43.23646326 120.80970865 42.625 118.6875 C46.30504052 122.12220448 48.35910909 124.57156811 48.99609375 129.640625 C49.14534845 137.05068202 48.66283686 142.06354361 43.625 147.6875 C38.95159075 152.36090925 32.65697579 155.47472977 26.0625 155.9375 C25.258125 155.855 24.45375 155.7725 23.625 155.6875 C23.53476562 156.82960937 23.44453125 157.97171875 23.3515625 159.1484375 C22.65484957 164.73937409 20.3360948 169.44652566 17.9765625 174.5078125 C15.95913939 179.07181888 15.23503567 181.72601299 16.625 186.6875 C17.02485873 188.27275307 17.4216921 189.85877065 17.81640625 191.4453125 C18.03949463 192.31260986 18.26258301 193.17990723 18.49243164 194.07348633 C24.13342484 216.30260565 24.13342484 216.30260565 18.890625 226.1640625 C16.66478493 228.84331443 14.44669407 229.58075425 11.0390625 230.0234375 C5.03080624 230.10758675 1.28228151 229.89041259 -3.375 225.6875 C-10.74600603 217.34932419 -15.375 204.8024597 -15.375 193.6875 C-16.23085693 193.93089111 -16.23085693 193.93089111 -17.10400391 194.17919922 C-19.38683157 194.69014818 -21.37576863 194.816738 -23.7109375 194.8203125 C-24.52820313 194.82160156 -25.34546875 194.82289063 -26.1875 194.82421875 C-27.033125 194.82035156 -27.87875 194.81648437 -28.75 194.8125 C-30.00683594 194.81830078 -30.00683594 194.81830078 -31.2890625 194.82421875 C-35.76450693 194.81718189 -39.97040529 194.59137448 -44.375 193.6875 C-44.08625 194.38875 -43.7975 195.09 -43.5 195.8125 C-38.66111473 208.17854014 -38.66111473 208.17854014 -41.2109375 214.88671875 C-42.66540447 217.93235072 -43.97706587 220.28956587 -46.375 222.6875 C-51.41785105 223.66232623 -56.13659141 223.38486349 -60.5 220.5625 C-70.19329877 212.32417914 -75.07281362 197.78858408 -78.0625 185.875 C-78.39991211 184.61719727 -78.39991211 184.61719727 -78.74414062 183.33398438 C-80.64204048 175.82891534 -81.34961363 168.2801264 -79.4375 160.6875 C-79.26347656 159.965625 -79.08945313 159.24375 -78.91015625 158.5 C-78.375 156.6875 -78.375 156.6875 -77.375 154.6875 C-78.055625 154.64625 -78.73625 154.605 -79.4375 154.5625 C-84.4724213 153.06273621 -87.92041325 149.59664511 -91.0625 145.47265625 C-92.7397479 141.91349627 -92.82928008 138.73044441 -92.75 134.875 C-92.73839844 134.16158447 -92.72679687 133.44816895 -92.71484375 132.71313477 C-92.51444406 126.27013743 -92.0949442 121.52425162 -87.46484375 116.6953125 C-84.9072429 114.38372408 -82.46780731 112.23390365 -79.375 110.6875 C-80.03255847 107.9859646 -80.77023287 105.32380374 -81.56640625 102.66015625 C-85.13675025 90.11423861 -85.96248058 78.69040351 -85.375 65.6875 C-89.005 65.0275 -92.635 64.3675 -96.375 63.6875 C-96.375 63.0275 -96.375 62.3675 -96.375 61.6875 C-95.22923404 60.63994255 -94.0310644 59.64940283 -92.8125 58.6875 C-86.5006315 53.29959109 -82.39290359 46.73350683 -78.5625 39.4375 C-71.41429745 25.96294707 -60.48727533 8.71965432 -45.3828125 3.69140625 C-43.33903925 3.18956371 -41.28485734 2.7283338 -39.22265625 2.30859375 C-36.69708589 1.75774919 -34.6156718 1.00460035 -32.25 0 C-22.29738448 -3.39538688 -10.17662647 -1.720461 0 0 Z " fill="#711A18" transform="translate(267.375,27.3125)"/>
<path d="M0 0 C0.04898438 0.81984375 0.09796875 1.6396875 0.1484375 2.484375 C0.22320312 3.56203125 0.29796875 4.6396875 0.375 5.75 C0.44460937 6.81734375 0.51421875 7.8846875 0.5859375 8.984375 C0.97915528 11.84818748 1.42857185 13.60207677 3 16 C6.44675746 18.32455736 8.44616045 19.00954896 12.625 18.9375 C16.38339533 17.8935013 17.71952152 17.12510013 20 14 C21.26784124 10.86649283 21.26784124 10.86649283 22 8 C27.94 9.485 27.94 9.485 34 11 C34.9590625 9.515 34.9590625 9.515 35.9375 8 C36.618125 7.01 37.29875 6.02 38 5 C38.33 5 38.66 5 39 5 C39 7.31 39 9.62 39 12 C43.26257415 8.52334801 43.26257415 8.52334801 47.125 4.625 C47.74375 4.08875 48.3625 3.5525 49 3 C51.25 3.25 51.25 3.25 53 4 C51.824375 4.86625 51.824375 4.86625 50.625 5.75 C47.38506139 8.52709024 46.18682585 10.37194616 45.69921875 14.62109375 C45.54849729 21.84853381 45.54849729 21.84853381 49 28 C52.67682095 30.45121397 55.72920963 30.82418762 60 30 C64.35512627 26.6641586 65.53435103 24.13576265 66.30859375 18.921875 C66.66231521 12.96220437 65.13153068 9.96869269 61.3125 5.43359375 C60.879375 4.96050781 60.44625 4.48742187 60 4 C61.45903258 4.30921884 62.91720722 4.62248799 64.375 4.9375 C65.18710937 5.11152344 65.99921875 5.28554687 66.8359375 5.46484375 C69 6 69 6 71 7 C71.323697 12.81113181 70.26124016 17.39484821 68.375 22.875 C68.10429687 23.6693042 67.83359375 24.4636084 67.5546875 25.28198242 C65.50185377 31.0680511 63.21959583 36.43853876 59 41 C58.21496094 41.88816406 57.42992187 42.77632812 56.62109375 43.69140625 C51.87230781 47.51653364 45.85897026 46.7367712 40.0625 46.625 C38.825 46.61098145 37.5875 46.59696289 36.3125 46.58251953 C20.58781066 46.17730638 0.21329435 44.31913434 -12.0078125 33.16796875 C-15.99927906 28.75879057 -17.39883414 25.14448141 -17.265625 19.0390625 C-16.36171359 12.10021316 -8.89404994 6.50649166 -4 2 C-1 0 -1 0 0 0 Z " fill="#F5F1F0" transform="translate(209,96)"/>
<path d="M0 0 C5.12018489 0.14759252 8.29644724 0.81407716 12.03466797 4.31713867 C30.13415394 25.4009082 35.56695996 53.23107825 33.85888672 80.44213867 C32.15930547 95.35543954 28.56805806 112.30742754 16.54638672 122.37963867 C12.72591905 123.89005612 8.93674973 124.18449591 4.85888672 124.44213867 C5.25720703 123.92006836 5.65552734 123.39799805 6.06591797 122.86010742 C10.29529561 116.98425673 12.35505212 111.49960807 13.85888672 104.44213867 C12.89789063 105.07442383 12.89789063 105.07442383 11.91748047 105.71948242 C6.81168036 108.95340946 2.93758294 111.17784753 -3.14111328 111.44213867 C-2.46048828 110.80276367 -1.77986328 110.16338867 -1.07861328 109.50463867 C11.3906934 96.8233891 15.13031288 83.30403916 15.18017578 65.94482422 C14.98413135 48.8902832 12.60741917 26.72416378 0.85888672 13.44213867 C-1.7095504 11.25565427 -4.32067902 9.2244214 -7.06689453 7.26635742 C-9.29117849 5.31016042 -9.91053559 4.36486666 -10.14111328 1.44213867 C-7.84183472 -0.85713989 -3.09480685 0.00690643 0 0 Z " fill="#FBA1C6" transform="translate(265.14111328125,32.557861328125)"/>
<path d="M0 0 C5.71465472 5.37245983 9.41264808 11.97042202 9.953125 19.828125 C10.04962267 26.61512772 9.64993751 31.71263279 6.75 37.875 C5.76 37.38 5.76 37.38 4.75 36.875 C5.07226562 36.17761719 5.39453125 35.48023438 5.7265625 34.76171875 C8.48608043 26.97819298 7.33778476 18.43660236 3.97265625 11.04296875 C2.21817573 7.93198891 0.20455569 5.46591989 -2.25 2.875 C-1.755 4.36 -1.755 4.36 -1.25 5.875 C-3.26822917 6.29817708 -5.28645833 6.72135417 -7.3046875 7.14453125 C-9.62046549 7.79808838 -9.62046549 7.79808838 -11.25 10.875 C-10.54875 10.215 -9.8475 9.555 -9.125 8.875 C-6.25 6.875 -6.25 6.875 -3.1875 6.25 C-0.25 6.875 -0.25 6.875 2.0625 9.625 C4.39490863 14.11704624 4.88860264 17.45342096 4.875 22.5 C4.87886719 23.94246094 4.87886719 23.94246094 4.8828125 25.4140625 C4.75 27.875 4.75 27.875 3.75 29.875 C4.41 29.875 5.07 29.875 5.75 29.875 C5.27431821 34.86965883 3.9335207 37.98403025 0.75 41.875 C-3.66822089 44.07282027 -7.77673184 44.26205863 -12.62890625 44.53125 C-15.26097877 44.87643984 -16.97386985 45.54681112 -19.25 46.875 C-19.48428313 51.6647321 -19.48428313 51.6647321 -17.25 55.875 C-13.83410104 56.16571481 -11.51157733 55.96219244 -8.25 54.875 C-7.86483555 68.14177552 -8.05282607 80.49897862 -17.0625 90.984375 C-18.73452001 92.72606251 -20.34925399 94.3860025 -22.25 95.875 C-22.91 95.875 -23.57 95.875 -24.25 95.875 C-24.10704109 94.47886935 -23.96048442 93.08310692 -23.8125 91.6875 C-23.73128906 90.91019531 -23.65007812 90.13289063 -23.56640625 89.33203125 C-23.25 86.875 -23.25 86.875 -22.74731445 84.67504883 C-19.58207009 66.8536509 -20.9883405 45.76875548 -27.25 28.875 C-27.64574219 27.68648437 -28.04148437 26.49796875 -28.44921875 25.2734375 C-31.15414716 17.59898945 -34.94420522 10.76178993 -39.25 3.875 C-36.79743712 -0.49475805 -34.69855837 -2.68265423 -30.25 -5.125 C-19.86046343 -8.02440555 -8.47024692 -6.82369425 0 0 Z " fill="#F89FC3" transform="translate(321.25,37.125)"/>
<path d="M0 0 C7.36275885 1.72584061 14.31189439 8.27765139 18.31640625 14.54296875 C27.97144149 32.23914771 31.9088726 59.97921902 27.5625 79.65625 C26.64341809 82.7234606 25.59457216 85.60940046 24.31640625 88.54296875 C24.02765625 89.28160156 23.73890625 90.02023438 23.44140625 90.78125 C21.21206075 95.90675416 17.73028394 99.7103215 13.92578125 103.7578125 C12.20480741 105.26617142 12.20480741 105.26617142 12.31640625 106.54296875 C13.90060754 105.92017206 15.48373156 105.29463474 17.06640625 104.66796875 C17.948125 104.31992188 18.82984375 103.971875 19.73828125 103.61328125 C21.99043105 102.67829785 24.15290084 101.66516081 26.31640625 100.54296875 C25.81970482 107.49678872 24.46356334 113.74549579 19.06640625 118.54296875 C18.20015625 119.03796875 18.20015625 119.03796875 17.31640625 119.54296875 C17.60257812 118.97835937 17.88875 118.41375 18.18359375 117.83203125 C19.31517022 115.54546639 20.39157688 113.24314639 21.44140625 110.91796875 C21.79460937 110.14195312 22.1478125 109.3659375 22.51171875 108.56640625 C23.43958432 106.59615843 23.43958432 106.59615843 23.31640625 104.54296875 C22.24390625 105.18234375 21.17140625 105.82171875 20.06640625 106.48046875 C14.94755231 109.37774008 11.25175627 109.6571101 5.31640625 109.54296875 C5.31640625 108.88296875 5.31640625 108.22296875 5.31640625 107.54296875 C4.62192383 107.55344238 3.92744141 107.56391602 3.21191406 107.57470703 C-0.00321682 107.61685694 -3.21828925 107.64247936 -6.43359375 107.66796875 C-7.52542969 107.68472656 -8.61726563 107.70148438 -9.7421875 107.71875 C-21.57146602 107.78874573 -31.69780478 105.8794644 -42.68359375 101.54296875 C-39.71359375 108.47296875 -39.71359375 108.47296875 -36.68359375 115.54296875 C-39.68359375 116.54296875 -39.68359375 116.54296875 -41.87109375 115.60546875 C-42.46921875 115.25484375 -43.06734375 114.90421875 -43.68359375 114.54296875 C-42.19859375 114.04796875 -42.19859375 114.04796875 -40.68359375 113.54296875 C-42.31345263 105.68424413 -42.31345263 105.68424413 -47.0703125 99.515625 C-48.79512688 98.52605996 -50.55294602 97.5909957 -52.34375 96.7265625 C-54.620973 95.57464502 -56.00651808 94.43998877 -57.68359375 92.54296875 C-57.18859375 91.55296875 -57.18859375 91.55296875 -56.68359375 90.54296875 C-56.00876953 91.12304688 -56.00876953 91.12304688 -55.3203125 91.71484375 C-49.79865157 96.18528667 -44.49347681 98.60415498 -37.68359375 100.54296875 C-37.05678711 100.72633789 -36.42998047 100.90970703 -35.78417969 101.09863281 C-25.21482471 104.08025037 -14.83741807 104.9722774 -3.87109375 105.10546875 C-2.66074463 105.1322168 -1.45039551 105.15896484 -0.20336914 105.18652344 C6.83680336 105.30097463 6.83680336 105.30097463 12.94921875 102.27734375 C21.62939114 92.25074198 25.74208659 79.59458659 27.31640625 66.54296875 C24.01640625 65.88296875 20.71640625 65.22296875 17.31640625 64.54296875 C18.30640625 65.51234375 19.29640625 66.48171875 20.31640625 67.48046875 C23.40841662 71.09877875 24.05592269 73.63060517 23.7109375 78.33203125 C22.93513301 82.67960891 21.57837044 86.0940469 18.62890625 89.48046875 C15.17482566 91.06747875 11.9900538 91.31154377 8.31640625 90.54296875 C4.79455369 88.56618699 2.61683462 86.44425385 1.31640625 82.54296875 C0.33298016 72.27342094 0.33298016 72.27342094 3.19140625 67.98046875 C4.51851987 66.45819136 5.88837281 64.97100219 7.31640625 63.54296875 C5.99640625 62.88296875 4.67640625 62.22296875 3.31640625 61.54296875 C5.12756581 59.73180919 7.92918852 60.16097427 10.37890625 59.98046875 C11.48363281 59.89667969 12.58835937 59.81289062 13.7265625 59.7265625 C14.58121094 59.66597656 15.43585938 59.60539062 16.31640625 59.54296875 C15.32640625 57.56296875 15.32640625 57.56296875 14.31640625 55.54296875 C14.8475 55.95289063 15.37859375 56.3628125 15.92578125 56.78515625 C16.6321875 57.32398438 17.33859375 57.8628125 18.06640625 58.41796875 C18.7625 58.95164063 19.45859375 59.4853125 20.17578125 60.03515625 C22.16363228 61.43535789 24.11484011 62.5215214 26.31640625 63.54296875 C26.52947082 57.71920393 25.74698417 52.37699008 24.62890625 46.66796875 C24.44956543 45.75047852 24.27022461 44.83298828 24.08544922 43.88769531 C20.19466036 23.69339747 20.19466036 23.69339747 8.75390625 7.10546875 C2.89276017 3.34832383 -1.86404114 3.30461546 -8.68359375 3.54296875 C-6.04934777 0.53010026 -4.0941093 -0.15833572 0 0 Z " fill="#792628" transform="translate(252.68359375,36.45703125)"/>
<path d="M0 0 C0 0.66 0 1.32 0 2 C-0.54527344 2.12375 -1.09054688 2.2475 -1.65234375 2.375 C-9.55991984 4.53775585 -15.1380635 8.79613328 -19.7578125 15.58203125 C-27.02994571 28.35394359 -31.76440328 43.22153668 -31 58 C-30.030625 57.236875 -29.06125 56.47375 -28.0625 55.6875 C-27.51722656 55.25824219 -26.97195312 54.82898438 -26.41015625 54.38671875 C-24.72844923 52.94316909 -24.72844923 52.94316909 -24 50 C-24.33 49.34 -24.66 48.68 -25 48 C-24.01 48 -23.02 48 -22 48 C-21.6596875 46.77216797 -21.6596875 46.77216797 -21.3125 45.51953125 C-19.70035155 41.19647842 -17.47037508 37.56598887 -15 33.6875 C-14.32324219 32.59598633 -14.32324219 32.59598633 -13.6328125 31.48242188 C-10.26107568 26.13053784 -10.26107568 26.13053784 -8 25 C-9.80137193 29.99643687 -12.50454876 34.40193213 -15.25390625 38.91601562 C-17.2638477 42.32113621 -18 43.94022119 -18 48 C-16.02 48.66 -14.04 49.32 -12 50 C-12.33 49.01 -12.66 48.02 -13 47 C-13.11687338 45.52413385 -13.17501742 44.04293388 -13.1875 42.5625 C-13.20167969 41.80066406 -13.21585938 41.03882813 -13.23046875 40.25390625 C-13 38 -13 38 -11 34 C-10.505 42.91 -10.505 42.91 -10 52 C-8.68 52.66 -7.36 53.32 -6 54 C-4 56 -4 56 -3.1875 58.5 C-2.20271537 61.23553696 -2.20271537 61.23553696 0.625 62.3125 C1.40875 62.539375 2.1925 62.76625 3 63 C2.79503906 62.46890625 2.59007812 61.9378125 2.37890625 61.390625 C2.10949219 60.68421875 1.84007812 59.9778125 1.5625 59.25 C1.29566406 58.55390625 1.02882812 57.8578125 0.75390625 57.140625 C-0.96985184 52.24622381 -1.08611015 48.16660928 -1 43 C-0.34 43 0.32 43 1 43 C1.14695312 44.39412109 1.14695312 44.39412109 1.296875 45.81640625 C2.14110594 52.79586719 2.88063127 58.23288378 7 64 C11.94407369 60.07883811 13.52690342 54.57408328 14.33276367 48.48608398 C14.5114813 45.96818913 14.61898777 43.4607076 14.6875 40.9375 C14.72166016 40.07189453 14.75582031 39.20628906 14.79101562 38.31445312 C14.87240114 36.21005613 14.93789769 34.1050543 15 32 C17 34 17 34 17.265625 37.1328125 C17.22739234 46.90125712 16.43877974 56.33962176 15 66 C15.99 66.495 15.99 66.495 17 67 C16.01 67.33 15.02 67.66 14 68 C13.67 66.02 13.34 64.04 13 62 C11.02 64.97 11.02 64.97 9 68 C7.5608866 67.71640113 6.12374482 67.42278601 4.6875 67.125 C3.88699219 66.96257812 3.08648437 66.80015625 2.26171875 66.6328125 C-0 66 -0 66 -3 64 C-3.0928125 65.3303125 -3.0928125 65.3303125 -3.1875 66.6875 C-4.21900244 70.89285611 -5.56986521 72.39011484 -9 75 C-12.33155325 76.04882232 -14.59619451 76.51047472 -17.93359375 75.296875 C-21.55262207 73.40083521 -23.56596591 71.78184803 -25 68 C-25.4140625 65.203125 -25.4140625 65.203125 -25.625 62.25 C-25.69976562 61.26515625 -25.77453125 60.2803125 -25.8515625 59.265625 C-25.90054688 58.51796875 -25.94953125 57.7703125 -26 57 C-27.58775549 58.39080108 -29.17000939 59.78788404 -30.75 61.1875 C-32.07257813 62.35345703 -32.07257813 62.35345703 -33.421875 63.54296875 C-38.9725284 68.69244577 -38.9725284 68.69244577 -41.09765625 75.6015625 C-41.08605469 76.59929687 -41.07445312 77.59703125 -41.0625 78.625 C-41.05347656 79.62789063 -41.04445312 80.63078125 -41.03515625 81.6640625 C-41.02355469 82.43492188 -41.01195312 83.20578125 -41 84 C-43 83 -43 83 -44 80 C-44.54395942 74.2340302 -43.62912242 71.48865141 -40 67 C-39.47148437 66.59910156 -38.94296875 66.19820313 -38.3984375 65.78515625 C-36.47197876 64.28324885 -35.25177589 63.11392616 -34 61 C-33.71908149 57.60179218 -33.88746948 54.31260668 -34.0234375 50.90625 C-33.92913159 35.188598 -26.24154185 18.18334951 -15.375 6.99609375 C-10.94939506 3.27654749 -5.89896994 0 0 0 Z " fill="#852B2E" transform="translate(234,40)"/>
<path d="M0 0 C3.68004052 3.43470448 5.73410909 5.88406811 6.37109375 10.953125 C6.52034845 18.36318202 6.03783686 23.37604361 1 29 C-3.67340925 33.67340925 -9.96802421 36.78722977 -16.5625 37.25 C-17.366875 37.1675 -18.17125 37.085 -19 37 C-19.09023438 38.14210937 -19.18046875 39.28421875 -19.2734375 40.4609375 C-19.97015043 46.05187409 -22.2889052 50.75902566 -24.6484375 55.8203125 C-26.66586061 60.38431888 -27.38996433 63.03851299 -26 68 C-25.60014127 69.58525307 -25.2033079 71.17127065 -24.80859375 72.7578125 C-24.58550537 73.62510986 -24.36241699 74.49240723 -24.13256836 75.38598633 C-18.49157516 97.61510565 -18.49157516 97.61510565 -23.734375 107.4765625 C-25.96021507 110.15581443 -28.17830593 110.89325425 -31.5859375 111.3359375 C-37.59419376 111.42008675 -41.34271849 111.20291259 -46 107 C-53.37100603 98.66182419 -58 86.1149597 -58 75 C-58.5662207 75.16298584 -59.13244141 75.32597168 -59.71582031 75.49389648 C-62.07601117 76.01684172 -64.13282157 76.11396742 -66.546875 76.09765625 C-67.39121094 76.09443359 -68.23554688 76.09121094 -69.10546875 76.08789062 C-70.41451172 76.07532227 -70.41451172 76.07532227 -71.75 76.0625 C-72.63816406 76.05798828 -73.52632812 76.05347656 -74.44140625 76.04882812 C-76.62767329 76.037074 -78.81380179 76.02064249 -81 76 C-81 75.67 -81 75.34 -81 75 C-77.535 74.505 -77.535 74.505 -74 74 C-78.95 73.67 -83.9 73.34 -89 73 C-89 72.67 -89 72.34 -89 72 C-88.14881592 71.98541748 -87.29763184 71.97083496 -86.4206543 71.95581055 C-83.209041 71.89411164 -79.99801173 71.81984737 -76.78686523 71.73754883 C-75.40709051 71.70465502 -74.02719269 71.67651726 -72.6472168 71.65356445 C-64.82362787 71.51999791 -57.68998551 71.06339864 -50.21484375 68.65039062 C-47.43020659 67.83267971 -44.88262175 67.76627391 -42 68 C-44.96346786 70.47186455 -47.54041689 71.66248361 -51.25 72.6875 C-52.14203125 72.93886719 -53.0340625 73.19023437 -53.953125 73.44921875 C-54.62859375 73.63097656 -55.3040625 73.81273437 -56 74 C-55.04872467 80.65892732 -53.1820607 86.59712545 -50.6875 92.8125 C-50.26198853 93.90582642 -50.26198853 93.90582642 -49.82788086 95.02124023 C-47.9225507 99.6254793 -45.80987699 102.64960566 -42 106 C-41.67 106.33 -41.34 106.66 -41 107 C-35.95082202 107.65452307 -32.19480498 107.82904836 -27.9375 104.875 C-25.74615461 101.62332619 -25.22477058 99.89602343 -25 96 C-24.94972656 95.35289062 -24.89945312 94.70578125 -24.84765625 94.0390625 C-24.44067211 85.02029392 -27.27902961 76.34893938 -30.546875 68.03515625 C-31.47953406 63.84623063 -29.65057945 59.78043119 -28.1875 55.875 C-27.83429688 54.92109375 -27.48109375 53.9671875 -27.1171875 52.984375 C-26.37239583 50.99479167 -25.62760417 49.00520833 -24.8828125 47.015625 C-24.52960938 46.06171875 -24.17640625 45.1078125 -23.8125 44.125 C-23.48894531 43.26132813 -23.16539062 42.39765625 -22.83203125 41.5078125 C-22.00457013 39.01377474 -21.46581541 36.58355027 -21 34 C-20.7215625 32.7315625 -20.7215625 32.7315625 -20.4375 31.4375 C-19.39800809 23.27006353 -19.91550563 15.13370779 -21 7 C-20.34 7 -19.68 7 -19 7 C-18.01 9.97 -17.02 12.94 -16 16 C-15.34 15.34 -14.68 14.68 -14 14 C-11.8359375 13.8046875 -11.8359375 13.8046875 -9.375 13.875 C-8.14910156 13.90207031 -8.14910156 13.90207031 -6.8984375 13.9296875 C-5.95871094 13.96449219 -5.95871094 13.96449219 -5 14 C-5 14.66 -5 15.32 -5 16 C-8.07617188 16.29296875 -8.07617188 16.29296875 -11.15234375 16.5859375 C-11.76207031 16.72257812 -12.37179687 16.85921875 -13 17 C-13.33 17.66 -13.66 18.32 -14 19 C-14.99 19 -15.98 19 -17 19 C-17 23.62 -17 28.24 -17 33 C-8.73292754 32.43692747 -8.73292754 32.43692747 -1.8125 28.5 C0.58527525 25.1927238 1.12716424 23.58622345 1.1328125 19.5703125 C1.13410156 18.69246094 1.13539063 17.81460938 1.13671875 16.91015625 C1.13285156 15.99105469 1.12898438 15.07195312 1.125 14.125 C1.12886719 13.21363281 1.13273437 12.30226562 1.13671875 11.36328125 C1.13542969 10.48285156 1.13414062 9.60242188 1.1328125 8.6953125 C1.13112061 7.4889917 1.13112061 7.4889917 1.12939453 6.25830078 C1.0027734 4.04840365 0.61146326 2.12220865 0 0 Z " fill="#6F1614" transform="translate(310,146)"/>
<path d="M0 0 C0.04898438 0.81984375 0.09796875 1.6396875 0.1484375 2.484375 C0.22320312 3.56203125 0.29796875 4.6396875 0.375 5.75 C0.44460937 6.81734375 0.51421875 7.8846875 0.5859375 8.984375 C0.97944964 11.85033132 1.39247252 13.61867964 3 16 C4.99180409 17.01622658 6.99152635 18.01712992 9 19 C10.05336511 22.16009533 10.20032888 24.5553136 10.25 27.875 C10.27578125 28.90367188 10.3015625 29.93234375 10.328125 30.9921875 C9.85146422 35.36157798 8.0628387 37.9371613 5 41 C-1.60230609 41 -8.03335954 36.80482371 -12.71875 32.375 C-16.35270446 28.14947156 -17.38705151 24.60444406 -17.265625 19.0390625 C-16.36171359 12.10021316 -8.89404994 6.50649166 -4 2 C-1 0 -1 0 0 0 Z " fill="#FBCFCA" transform="translate(209,96)"/>
<path d="M0 0 C0.79889648 0.00684814 1.59779297 0.01369629 2.42089844 0.02075195 C11.73125768 0.27205259 19.83014082 2.5733794 26.375 9.4375 C30.85721122 15.96872207 33.65927743 23.44930415 33.375 31.4375 C35.355 31.9325 35.355 31.9325 37.375 32.4375 C36.055 32.4375 34.735 32.4375 33.375 32.4375 C33.189375 34.29375 33.189375 34.29375 33 36.1875 C32.61753695 39.3137197 32.06950477 41.72629237 30.375 44.4375 C31.035 44.4375 31.695 44.4375 32.375 44.4375 C32.375 45.0975 32.375 45.7575 32.375 46.4375 C25.75 48.4375 25.75 48.4375 22.375 48.4375 C23.014375 47.365 23.65375 46.2925 24.3125 45.1875 C25.78101273 42.62927818 26.90354542 40.38409114 27.375 37.4375 C26.715 37.4375 26.055 37.4375 25.375 37.4375 C25.40980469 36.591875 25.44460938 35.74625 25.48046875 34.875 C25.64597032 27.93969628 25.393744 22.71648752 22.375 16.4375 C21.29583333 15.15833333 21.29583333 15.15833333 18.75 15.0625 C14.25040948 15.5624545 11.79142899 17.60732214 8.375 20.4375 C9.77135618 17.06297256 11.2356353 15.32111882 14.375 13.4375 C17.125 12.75 17.125 12.75 19.375 12.4375 C18.715 11.4475 18.055 10.4575 17.375 9.4375 C20.8948582 10.86982325 22.44293624 12.52112961 24.5 15.6875 C24.99757813 16.43515625 25.49515625 17.1828125 26.0078125 17.953125 C28.75631604 22.94754858 29.65180825 27.32335203 29.625 33 C29.63273437 34.64162109 29.63273437 34.64162109 29.640625 36.31640625 C29.37662841 39.41836614 28.69001748 41.63526037 27.375 44.4375 C30.63281617 41.17968383 30.6967964 35.50763231 30.75 31.1875 C30.58793498 22.29418209 27.98293834 15.34089184 21.875 8.8359375 C15.6842892 3.06438941 8.25432316 2.07080704 0.08984375 2.25 C-6.12674373 2.67934705 -11.07330279 3.88580279 -15.625 8.4375 C-15.955 9.4275 -16.285 10.4175 -16.625 11.4375 C-15.18097554 14.20668237 -15.18097554 14.20668237 -13.125 17.3125 C-9.43684413 23.36110831 -6.95083975 29.52507983 -4.75 36.25 C-4.46447266 37.12060059 -4.17894531 37.99120117 -3.88476562 38.88818359 C-3.09017208 41.39439263 -2.34682276 43.90946303 -1.625 46.4375 C-1.41818604 47.11449951 -1.21137207 47.79149902 -0.99829102 48.48901367 C0.88402302 55.49015058 0.71182022 62.67852426 0.69067383 69.8737793 C0.68753072 72.10320778 0.710976 74.33128318 0.73632812 76.56054688 C0.77563205 85.92616544 -0.23120108 94.33418069 -2.625 103.4375 C3.54536626 98.12100388 3.54536626 98.12100388 9.375 92.4375 C8.03945565 96.41630922 6.38881696 98.78448513 3.375 101.6875 C2.67375 102.37328125 1.9725 103.0590625 1.25 103.765625 C-0.625 105.4375 -0.625 105.4375 -2.625 106.4375 C-0.645 107.7575 1.335 109.0775 3.375 110.4375 C-0.10323115 111.59691038 -2.08395578 111.14570884 -5.625 110.4375 C-5.934375 111.4275 -5.934375 111.4275 -6.25 112.4375 C-9.49215433 119.51129126 -14.22070113 125.54617786 -21.625 128.4375 C-25.29603957 129.08732735 -28.9003105 129.36218459 -32.625 129.4375 C-30.9967604 127.48878149 -30.11589918 126.52632938 -27.57421875 126.06640625 C-26.45466797 126.03353516 -26.45466797 126.03353516 -25.3125 126 C-19.26737018 125.48072629 -16.12783159 123.08694931 -12.0625 118.625 C-0.23008622 100.74321711 0.66241071 73.82818153 -2.6875 53.375 C-6.27541121 37.00199671 -10.91709981 20.08640851 -23.625 8.4375 C-24.65313611 7.12574014 -25.66584432 5.8005107 -26.625 4.4375 C-23.6530615 5.56201727 -21.29059313 6.66043791 -18.625 8.4375 C-18.295 7.4475 -17.965 6.4575 -17.625 5.4375 C-18.615 4.4475 -19.605 3.4575 -20.625 2.4375 C-19.0471875 2.7778125 -19.0471875 2.7778125 -17.4375 3.125 C-13.71906726 3.82485415 -13.71906726 3.82485415 -11.42578125 1.984375 C-7.57263447 -0.1437228 -4.33353586 -0.05644977 0 0 Z " fill="#873235" transform="translate(299.625,29.5625)"/>
<path d="M0 0 C5.38158555 6.39972336 5.66629967 12.92257764 5 21 C3.46696367 25.1610986 2.69096643 26.53935571 -1 29 C-6.37067481 30.12158671 -10.35029068 29.18462826 -14.9375 26.25 C-17.96555766 24.13516608 -19.5789157 22.42250669 -21 19 C-20.01 17.515 -20.01 17.515 -19 16 C-18.28831054 14.39731946 -17.5803302 12.79298937 -16.875 11.1875 C-13.71186373 4.81457354 -7.8706398 -2.14653813 0 0 Z " fill="#963940" transform="translate(321,44)"/>
<path d="M0 0 C2.96476713 1.47949393 3.96132364 3.61289421 5.62890625 6.4375 C7.99777346 10.46674946 7.99777346 10.46674946 11.00390625 14 C10.67419146 17.29714793 10.38122235 18.6226839 8.00390625 21 C7.44703125 20.360625 6.89015625 19.72125 6.31640625 19.0625 C3.78324064 16.80319013 2.32049201 16.36850953 -0.99609375 16 C-0.99609375 16.66 -0.99609375 17.32 -0.99609375 18 C-0.21234375 18.28875 0.57140625 18.5775 1.37890625 18.875 C4.00390625 20 4.00390625 20 6.00390625 22 C5.67629537 27.46018129 4.02735232 31.98537277 2.00390625 37 C-2.37514389 36.49080812 -5.45724872 35.67804488 -8.99609375 33 C-12.18112154 28.84795173 -12.45576594 25.12871907 -12.37109375 20.0625 C-12.38269531 19.37220703 -12.39429688 18.68191406 -12.40625 17.97070312 C-12.37401161 12.30212019 -11.03406205 8.34059004 -7.3125 4.06640625 C-6.73371094 3.57011719 -6.15492188 3.07382813 -5.55859375 2.5625 C-4.98238281 2.04816406 -4.40617188 1.53382813 -3.8125 1.00390625 C-1.99609375 0 -1.99609375 0 0 0 Z " fill="#FAF8F7" transform="translate(189.99609375,141)"/>
<path d="M0 0 C5.89019417 4.74518446 10.46099292 10.99580589 11.83984375 18.55859375 C12.36808899 26.23846686 12.13519233 32.55597803 8.83984375 39.55859375 C7.84984375 39.06359375 7.84984375 39.06359375 6.83984375 38.55859375 C7.16210938 37.86121094 7.484375 37.16382813 7.81640625 36.4453125 C10.5743334 28.6662737 9.44469787 20.09324212 6.04296875 12.71484375 C2.57119053 6.49269578 -1.59935679 2.91169754 -8.28515625 0.37109375 C-11.14337685 -0.57738475 -11.14337685 -0.57738475 -14.16015625 -0.44140625 C-20.67291224 6.23019745 -21.38935309 12.50012358 -21.62109375 21.6328125 C-22.16015625 24.55859375 -22.16015625 24.55859375 -24.19921875 26.453125 C-24.84632813 26.81792969 -25.4934375 27.18273437 -26.16015625 27.55859375 C-26.59714844 26.45064453 -26.59714844 26.45064453 -27.04296875 25.3203125 C-29.95844483 18.1049676 -33.29283869 11.30978729 -37.16015625 4.55859375 C-33.57593581 -0.02124348 -31.35999317 -2.66095822 -25.59765625 -4.06640625 C-16.44770287 -5.06458298 -7.90259494 -5.27316009 0 0 Z " fill="#F9A3C6" transform="translate(319.16015625,35.44140625)"/>
<path d="M0 0 C0.61488281 0.08378906 1.22976563 0.16757813 1.86328125 0.25390625 C2.67152344 0.35574219 3.47976563 0.45757812 4.3125 0.5625 C5.11300781 0.66691406 5.91351563 0.77132812 6.73828125 0.87890625 C9.16817116 1.14755178 9.16817116 1.14755178 12 0 C12.38516445 13.26677552 12.19717393 25.62397862 3.1875 36.109375 C1.51547999 37.85106251 -0.09925399 39.5110025 -2 41 C-2.66 41 -3.32 41 -4 41 C-3.88265487 39.66597118 -3.75557824 38.3327986 -3.625 37 C-3.55539062 36.2575 -3.48578125 35.515 -3.4140625 34.75 C-3 32 -3 32 -2 28.46875 C-0.55871272 22.88720437 -0.53965812 17.23559134 -0.375 11.5 C-0.33632813 10.39140625 -0.29765625 9.2828125 -0.2578125 8.140625 C-0.16424757 5.42724203 -0.07850517 2.71385339 0 0 Z " fill="#FAA1C6" transform="translate(301,92)"/>
<path d="M0 0 C4.3086718 0.48203729 5.98842969 1.58337442 8.6875 4.9375 C9.26886719 5.64777344 9.85023438 6.35804687 10.44921875 7.08984375 C10.96097656 7.72019531 11.47273438 8.35054687 12 9 C12.66 9.66 13.32 10.32 14 11 C13.81615747 16.13791483 10.68874001 20.4791643 8.1875 24.8125 C4.95698214 30.47183599 1.86402951 36.14509586 -1 42 C-4.12728423 39.12792784 -4.98520125 36.59057966 -6.1875 32.5 C-6.53167969 31.3553125 -6.87585938 30.210625 -7.23046875 29.03125 C-8 26 -8 26 -8 23 C-6.02 23 -4.04 23 -2 23 C-2.27714844 22.38253906 -2.55429687 21.76507813 -2.83984375 21.12890625 C-5.33138881 15.30347882 -6.59211431 10.32222824 -7 4 C-4.30662752 5.34668624 -4.23225073 6.65890762 -3.1875 9.4375 C-1.62574235 13.24490494 -1.62574235 13.24490494 1.75 15.5625 C2.4925 15.706875 3.235 15.85125 4 16 C4.433125 14.88625 4.433125 14.88625 4.875 13.75 C5.82302644 11.43260203 6.84845911 9.22082885 8 7 C7.4225 6.731875 6.845 6.46375 6.25 6.1875 C3.94449957 4.97070811 1.97943808 3.69666121 0 2 C0 1.34 0 0.68 0 0 Z " fill="#F9F6F5" transform="translate(327,86)"/>
<path d="M0 0 C3.55123139 0.99434479 5.4581827 2.36057226 8.125 4.875 C10.22813152 9.08126304 9.64832775 14.30501003 9.125 18.875 C7.125 22.125 7.125 22.125 4.125 23.875 C-0.23699405 24.91273245 -3.00982128 24.37968758 -6.875 22.125 C-9.86127587 17.27230171 -9.76255509 12.4370119 -8.875 6.875 C-6.82008523 2.66959303 -5.0691022 -0.22039575 0 0 Z " fill="#9C6F99" transform="translate(264.875,101.125)"/>
<path d="M0 0 C0.70705078 0.11746582 1.41410156 0.23493164 2.14257812 0.35595703 C6.00102193 1.0913907 8.70924006 2.01845821 11.625 4.6875 C10.64660156 4.48833984 10.64660156 4.48833984 9.6484375 4.28515625 C8.77445312 4.10855469 7.90046875 3.93195312 7 3.75 C6.14148438 3.57597656 5.28296875 3.40195312 4.3984375 3.22265625 C3.48320312 3.04605469 2.56796875 2.86945312 1.625 2.6875 C0.7484375 2.50445313 -0.128125 2.32140625 -1.03125 2.1328125 C-5.77553499 1.50098015 -10.46902401 1.50320012 -15.25 1.5 C-16.20519531 1.48775391 -17.16039062 1.47550781 -18.14453125 1.46289062 C-23.9129404 1.45102147 -28.84466961 2.03363051 -34.375 3.6875 C-33.055 5.0075 -31.735 6.3275 -30.375 7.6875 C-30.705 8.3475 -31.035 9.0075 -31.375 9.6875 C-31.99375 9.1925 -32.6125 8.6975 -33.25 8.1875 C-37.70721097 6.04803874 -41.5188491 5.7666299 -46.375 6.6875 C-48.95545039 8.01934536 -51.16362389 9.51070854 -53.46484375 11.27734375 C-55.375 12.6875 -55.375 12.6875 -58.375 13.6875 C-59.08952204 14.99581207 -59.75003679 16.33411786 -60.375 17.6875 C-61.40123025 19.04413882 -62.45888298 20.37731735 -63.5390625 21.69140625 C-68.51008954 27.97783957 -72.49511807 34.8437732 -76.59375 41.71679688 C-81.11801791 49.13262094 -86.23041058 55.54291058 -92.375 61.6875 C-89.075 62.0175 -85.775 62.3475 -82.375 62.6875 C-82.44460937 64.33234375 -82.51421875 65.9771875 -82.5859375 67.671875 C-82.97150129 81.06392475 -82.14954389 92.30137691 -77.58984375 104.93359375 C-76.375 108.6875 -76.375 108.6875 -77.375 111.6875 C-78.035 111.3575 -78.695 111.0275 -79.375 110.6875 C-79.92553711 108.87670898 -79.92553711 108.87670898 -80.375 106.6875 C-80.76811469 105.34386918 -81.16548083 104.00147715 -81.56640625 102.66015625 C-85.13675025 90.11423861 -85.96248058 78.69040351 -85.375 65.6875 C-89.005 65.0275 -92.635 64.3675 -96.375 63.6875 C-96.375 63.0275 -96.375 62.3675 -96.375 61.6875 C-95.22923404 60.63994255 -94.0310644 59.64940283 -92.8125 58.6875 C-86.5006315 53.29959109 -82.39290359 46.73350683 -78.5625 39.4375 C-71.41429745 25.96294707 -60.48727533 8.71965432 -45.3828125 3.69140625 C-43.33903925 3.18956371 -41.28485734 2.7283338 -39.22265625 2.30859375 C-36.69708589 1.75774919 -34.6156718 1.00460035 -32.25 0 C-22.29738448 -3.39538688 -10.17662647 -1.720461 0 0 Z " fill="#862F31" transform="translate(267.375,27.3125)"/>
<path d="M0 0 C5.53846154 3.07692308 5.53846154 3.07692308 7 6 C7.43008598 10.6730496 7.56413789 14.74351106 5.625 19.0625 C3.34251749 21.78392146 2.3285444 21.96209103 -1.25 22.375 C-6.19272958 21.88072704 -7.53828301 20.46171699 -11 17 C-12.96976116 13.06047768 -12.20557854 8.83812788 -11.1875 4.6875 C-8.84637113 -0.61084428 -5.26100158 -0.53501711 0 0 Z " fill="#9D709B" transform="translate(222,92)"/>
<path d="M0 0 C1.45903258 0.30921884 2.91720722 0.62248799 4.375 0.9375 C5.59316406 1.19853516 5.59316406 1.19853516 6.8359375 1.46484375 C9 2 9 2 11 3 C11.323697 8.81113181 10.26124016 13.39484821 8.375 18.875 C7.96894531 20.0664563 7.96894531 20.0664563 7.5546875 21.28198242 C4.54871649 29.75454134 0.6501594 36.95415018 -7 42 C-9.875 42.3125 -9.875 42.3125 -12 42 C-14.50519248 37.95728595 -16.42424124 34.54589865 -15.9375 29.6875 C-14.71799463 24.89077887 -14.71799463 24.89077887 -12 23 C-11.505 23.495 -11.01 23.99 -10.5 24.5 C-7.04749905 26.57150057 -3.87277805 26.82988101 0 26 C4.35512627 22.6641586 5.53435103 20.13576265 6.30859375 14.921875 C6.66231521 8.96220437 5.13153068 5.96869269 1.3125 1.43359375 C0.879375 0.96050781 0.44625 0.48742187 0 0 Z " fill="#F9CCC7" transform="translate(269,100)"/>
<path d="M0 0 C1.32 0.33 2.64 0.66 4 1 C4 1.66 4 2.32 4 3 C9.28 3 14.56 3 20 3 C19.67 3.66 19.34 4.32 19 5 C14.71 5 10.42 5 6 5 C6.66 6.65 7.32 8.3 8 10 C10.04744662 15.71091361 11.41222861 20.2846509 9.1640625 26.19921875 C7.70959553 29.24485072 6.39793413 31.60206587 4 34 C-1.04285105 34.97482623 -5.76159141 34.69736349 -10.125 31.875 C-16.54638636 26.36908624 -22.04967824 17.07081737 -23 8.625 C-23 7.42875 -23 6.2325 -23 5 C-20.0533442 6.4733279 -19.89294536 8.51845553 -18.75 11.5625 C-15.5916887 19.35176629 -11.81359695 26.17293211 -4 30 C-0.24870163 30.33524876 -0.24870163 30.33524876 3 30 C5.85967315 24.95982608 6.4339706 19.73116726 6 14 C4.71039892 10.84501264 3.19227721 8.13881727 1.34765625 5.27734375 C0 3 0 3 0 0 Z " fill="#731B18" transform="translate(217,216)"/>
<path d="M0 0 C0 0.66 0 1.32 0 2 C-0.54527344 2.12375 -1.09054688 2.2475 -1.65234375 2.375 C-9.55991984 4.53775585 -15.1380635 8.79613328 -19.7578125 15.58203125 C-27.02994571 28.35394359 -31.76440328 43.22153668 -31 58 C-28.69 56.35 -26.38 54.7 -24 53 C-23.40532134 56.64240681 -22.99632533 59.92895647 -23.1875 63.625 C-22.95979135 67.72375567 -21.86040045 69.13959955 -19 72 C-15.95016004 73.52491998 -13.3576631 73.23562548 -10 73 C-8.14397385 71.72840348 -8.14397385 71.72840348 -7 70 C-6.34 69.34 -5.68 68.68 -5 68 C-4.67 68.66 -4.34 69.32 -4 70 C-6.65214209 73.13434975 -8.4189795 74.81708614 -12.375 76.0625 C-17.2154558 75.97904387 -19.09188508 74.83529906 -23 72 C-25.05439189 68.838865 -25.35927861 65.97009944 -25.625 62.25 C-25.69976562 61.26515625 -25.77453125 60.2803125 -25.8515625 59.265625 C-25.90054688 58.51796875 -25.94953125 57.7703125 -26 57 C-27.58775549 58.39080108 -29.17000939 59.78788404 -30.75 61.1875 C-32.07257813 62.35345703 -32.07257813 62.35345703 -33.421875 63.54296875 C-38.9725284 68.69244577 -38.9725284 68.69244577 -41.09765625 75.6015625 C-41.08605469 76.59929687 -41.07445312 77.59703125 -41.0625 78.625 C-41.05347656 79.62789063 -41.04445312 80.63078125 -41.03515625 81.6640625 C-41.02355469 82.43492188 -41.01195312 83.20578125 -41 84 C-43 83 -43 83 -44 80 C-44.54395942 74.2340302 -43.62912242 71.48865141 -40 67 C-39.47148437 66.59910156 -38.94296875 66.19820313 -38.3984375 65.78515625 C-36.47197876 64.28324885 -35.25177589 63.11392616 -34 61 C-33.71908149 57.60179218 -33.88746948 54.31260668 -34.0234375 50.90625 C-33.92913159 35.188598 -26.24154185 18.18334951 -15.375 6.99609375 C-10.94939506 3.27654749 -5.89896994 0 0 0 Z " fill="#8A3436" transform="translate(234,40)"/>
<path d="M0 0 C0.09765625 6.15234375 0.09765625 6.15234375 0 8 C-1 9 -1 9 -3.06640625 9.09765625 C-3.89011719 9.08605469 -4.71382813 9.07445313 -5.5625 9.0625 C-6.38878906 9.05347656 -7.21507812 9.04445313 -8.06640625 9.03515625 C-8.70449219 9.02355469 -9.34257812 9.01195313 -10 9 C-8.68 8.34 -7.36 7.68 -6 7 C-8.475 6.505 -8.475 6.505 -11 6 C-11.0928125 7.175625 -11.0928125 7.175625 -11.1875 8.375 C-11.455625 9.24125 -11.72375 10.1075 -12 11 C-14.3125 12.125 -14.3125 12.125 -17 13 C-17.61875 13.53625 -18.2375 14.0725 -18.875 14.625 C-21.91239283 16.59037183 -24.46810707 16.20376305 -28 16 C-29.625 13.25 -29.625 13.25 -31 10 C-30.375 7.6875 -30.375 7.6875 -29 6 C-24.38154476 4.46051492 -19.58903656 4.22367564 -14.76171875 3.6953125 C-9.35320065 2.69560718 -5.59967503 -0.49408897 0 0 Z " fill="#8B414C" transform="translate(332,76)"/>
<path d="M0 0 C4.08283487 0.05131031 6.8366453 1.01552198 10.3125 3.25 C11.3025 4.735 11.3025 4.735 12.3125 6.25 C11.11625 6.415 9.92 6.58 8.6875 6.75 C4.15238659 7.91182234 2.20612319 9.99081314 -0.3671875 13.80859375 C-2.68419304 18.09299748 -4.23781878 22.61102009 -5.6875 27.25 C-7.6875 26.25 -7.6875 26.25 -8.6875 23.25 C-9.33647283 14.87718663 -9.309504 8.3930971 -4.6875 1.25 C-3.6875 0.25 -3.6875 0.25 0 0 Z " fill="#F9A1C5" transform="translate(307.6875,36.75)"/>
<path d="M0 0 C-2.96346786 2.47186455 -5.54041689 3.66248361 -9.25 4.6875 C-10.14203125 4.93886719 -11.0340625 5.19023437 -11.953125 5.44921875 C-12.62859375 5.63097656 -13.3040625 5.81273437 -14 6 C-13.04205362 12.70562469 -11.13725584 18.58398567 -8.5625 24.8125 C-8.26206787 25.54138428 -7.96163574 26.27026855 -7.65209961 27.02124023 C-6.02240147 30.87377752 -4.26840014 34.46906522 -2 38 C-2.99 38 -3.98 38 -5 38 C-11.71886399 28.98257728 -15.72050179 18.25615523 -16 7 C-16.84933105 7.24447876 -16.84933105 7.24447876 -17.71582031 7.49389648 C-20.07601117 8.01684172 -22.13282157 8.11396742 -24.546875 8.09765625 C-25.39121094 8.09443359 -26.23554688 8.09121094 -27.10546875 8.08789062 C-27.97816406 8.07951172 -28.85085937 8.07113281 -29.75 8.0625 C-30.63816406 8.05798828 -31.52632812 8.05347656 -32.44140625 8.04882812 C-34.62767329 8.037074 -36.81380179 8.02064249 -39 8 C-39 7.67 -39 7.34 -39 7 C-35.535 6.505 -35.535 6.505 -32 6 C-36.95 5.67 -41.9 5.34 -47 5 C-47 4.67 -47 4.34 -47 4 C-46.14881592 3.98541748 -45.29763184 3.97083496 -44.4206543 3.95581055 C-41.209041 3.89411164 -37.99801173 3.81984737 -34.78686523 3.73754883 C-33.40709051 3.70465502 -32.02719269 3.67651726 -30.6472168 3.65356445 C-22.82362787 3.51999791 -15.68998551 3.06339864 -8.21484375 0.65039062 C-5.43020659 -0.16732029 -2.88262175 -0.23372609 0 0 Z " fill="#711A18" transform="translate(268,214)"/>
<path d="M0 0 C0.33 0 0.66 0 1 0 C1.07551829 4.01602381 1.12922898 8.03175927 1.16479492 12.04833984 C1.18687167 14.06753112 1.22503657 16.08652642 1.26367188 18.10546875 C1.33096827 27.21291469 0.28402876 35.19520216 -2 44 C4.17036626 38.68350388 4.17036626 38.68350388 10 33 C8.66445565 36.97880922 7.01381696 39.34698513 4 42.25 C3.29875 42.93578125 2.5975 43.6215625 1.875 44.328125 C0 46 0 46 -2 47 C-0.02 48.32 1.96 49.64 4 51 C0.52176885 52.15941038 -1.45895578 51.70820884 -5 51 C-5.20625 51.66 -5.4125 52.32 -5.625 53 C-8.86715433 60.07379126 -13.59570113 66.10867786 -21 69 C-24.67103957 69.64982735 -28.2753105 69.92468459 -32 70 C-30.3717604 68.05128149 -29.49089918 67.08882938 -26.94921875 66.62890625 C-25.82966797 66.59603516 -25.82966797 66.59603516 -24.6875 66.5625 C-18.64237018 66.04322629 -15.50283159 63.64944931 -11.4375 59.1875 C-0.3257577 42.39483479 -0.4376083 19.30311958 0 0 Z " fill="#7E2D2D" transform="translate(299,89)"/>
<path d="M0 0 C2.5625 2 2.5625 2 4 4 C2.9275 4.268125 1.855 4.53625 0.75 4.8125 C-2.56508928 5.86227827 -4.43877646 6.74612328 -7 9 C-6.67 9.99 -6.34 10.98 -6 12 C-2.07277596 13.96361202 1.6570138 15.34197179 6 16 C4.32329911 18.04688161 3.39287593 18.91757848 0.765625 19.46875 C-5.84403789 19.55085761 -9.00494614 18.34352509 -14 14 C-13.68817931 12.58318366 -13.37551263 11.16655349 -13.0625 9.75 C-12.88847656 8.96109375 -12.71445312 8.1721875 -12.53515625 7.359375 C-12.35855469 6.58078125 -12.18195313 5.8021875 -12 5 C-11.85433594 4.26265625 -11.70867187 3.5253125 -11.55859375 2.765625 C-11.28208984 1.89164063 -11.28208984 1.89164063 -11 1 C-7.55789151 -0.72105424 -3.76366353 -0.51474617 0 0 Z " fill="#F8A0C3" transform="translate(317,52)"/>
<path d="M0 0 C2.83519781 2.58865887 3.91267071 4.49356975 4.140625 8.42578125 C4.17671875 9.37839844 4.2128125 10.33101562 4.25 11.3125 C4.8669164 19.60547452 7.36492111 28.04738166 12 35 C5.565 35.495 5.565 35.495 -1 36 C-0.67 36.66 -0.34 37.32 0 38 C-4.75 42.875 -4.75 42.875 -7 44 C-6.34 42.35 -5.68 40.7 -5 39 C-5.66 38.67 -6.32 38.34 -7 38 C-5.8553125 37.071875 -5.8553125 37.071875 -4.6875 36.125 C2.47357891 28.7197934 1.35554404 17.76179137 1.203125 8.1953125 C1.14686396 5.30702792 0.78062832 2.78382385 0 0 Z " fill="#913F42" transform="translate(258,62)"/>
<path d="M0 0 C12.66970387 -0.55353075 12.66970387 -0.55353075 18 3 C17.68762196 5.88949684 17.35661121 7.58633099 15.4375 9.8125 C11.95058601 11.51125297 8.74986306 11.78709997 5 11 C2 8.875 2 8.875 0 6 C-0.125 2.8203125 -0.125 2.8203125 0 0 Z " fill="#CCA1F6" transform="translate(256,114)"/>
<path d="M0 0 C5.70709064 0.46588495 9.15939723 1.93757784 14 5 C12.50829734 9.9723422 10.39542583 14.41845739 8 19 C1.46380697 13.8847185 1.46380697 13.8847185 0 10 C-0.1953125 7.421875 -0.1953125 7.421875 -0.125 4.75 C-0.09792969 3.41195312 -0.09792969 3.41195312 -0.0703125 2.046875 C-0.04710937 1.37140625 -0.02390625 0.6959375 0 0 Z " fill="#F7F2F1" transform="translate(332,75)"/>
<path d="M0 0 C0.70705078 0.11746582 1.41410156 0.23493164 2.14257812 0.35595703 C6.00102193 1.0913907 8.70924006 2.01845821 11.625 4.6875 C10.64660156 4.48833984 10.64660156 4.48833984 9.6484375 4.28515625 C8.77445312 4.10855469 7.90046875 3.93195312 7 3.75 C6.14148438 3.57597656 5.28296875 3.40195312 4.3984375 3.22265625 C3.48320312 3.04605469 2.56796875 2.86945312 1.625 2.6875 C0.7484375 2.50445313 -0.128125 2.32140625 -1.03125 2.1328125 C-5.77553499 1.50098015 -10.46902401 1.50320012 -15.25 1.5 C-16.20519531 1.48775391 -17.16039062 1.47550781 -18.14453125 1.46289062 C-23.9129404 1.45102147 -28.84466961 2.03363051 -34.375 3.6875 C-33.055 5.0075 -31.735 6.3275 -30.375 7.6875 C-30.705 8.3475 -31.035 9.0075 -31.375 9.6875 C-31.99375 9.1925 -32.6125 8.6975 -33.25 8.1875 C-37.70721097 6.04803874 -41.5188491 5.7666299 -46.375 6.6875 C-48.95545039 8.01934536 -51.16362389 9.51070854 -53.46484375 11.27734375 C-55.375 12.6875 -55.375 12.6875 -58.375 13.6875 C-59.58382096 15.68766466 -59.58382096 15.68766466 -60.375 17.6875 C-61.035 17.0275 -61.695 16.3675 -62.375 15.6875 C-54.96835584 8.62375603 -48.74047983 4.08805872 -38.625 2.19140625 C-36.40606818 1.69445798 -34.52928941 0.94088813 -32.4375 0.0625 C-22.38632087 -3.36364106 -10.28172706 -1.73822931 0 0 Z " fill="#8D3D3F" transform="translate(267.375,27.3125)"/>
<path d="M0 0 C0.68964844 0.47050781 1.37929687 0.94101563 2.08984375 1.42578125 C3.49943359 2.35970703 3.49943359 2.35970703 4.9375 3.3125 C5.85402344 3.92738281 6.77054688 4.54226562 7.71484375 5.17578125 C14.29161498 8.82780523 21.55724921 10.56175807 28.875 12.125 C29.67784424 12.29676758 30.48068848 12.46853516 31.30786133 12.64550781 C40.15205722 14.41314568 49.00291068 14.79849744 58 15 C58 15.33 58 15.66 58 16 C42.33895673 17.1451751 29.80193972 16.84287094 15 11 C16.98 15.62 18.96 20.24 21 25 C18 26 18 26 15.8125 25.0625 C14.9153125 24.5365625 14.9153125 24.5365625 14 24 C14.99 23.67 15.98 23.34 17 23 C15.37014112 15.14127538 15.37014112 15.14127538 10.61328125 8.97265625 C8.88846687 7.98309121 7.13064773 7.04802695 5.33984375 6.18359375 C3.04022275 5.0203464 1.61393926 3.99493476 0 2 C0 1.34 0 0.68 0 0 Z " fill="#8D4947" transform="translate(195,127)"/>
<path d="M0 0 C1.41732422 -0.02126953 1.41732422 -0.02126953 2.86328125 -0.04296875 C5.83156882 0.19925665 7.99617165 0.94723393 10.6875 2.1875 C9.0625 7.9375 9.0625 7.9375 5.6875 10.1875 C2.38968982 10.62305984 -0.11621852 10.84310404 -3.1015625 9.20703125 C-4.75 7.9375 -4.75 7.9375 -7.3125 5.1875 C-7.3125 3.8675 -7.3125 2.5475 -7.3125 1.1875 C-4.75330818 -0.09209591 -2.85765972 0.01933464 0 0 Z " fill="#CDA3F9" transform="translate(218.3125,103.8125)"/>
<path d="M0 0 C7.36275885 1.72584061 14.31189439 8.27765139 18.31640625 14.54296875 C25.08836501 26.95491663 27.68645997 42.52666398 28.31640625 56.54296875 C27.65640625 56.54296875 26.99640625 56.54296875 26.31640625 56.54296875 C26.22141846 55.99584229 26.12643066 55.44871582 26.02856445 54.88500977 C22.27789823 28.81310038 22.27789823 28.81310038 8.75390625 7.10546875 C2.89276017 3.34832383 -1.86404114 3.30461546 -8.68359375 3.54296875 C-6.04934777 0.53010026 -4.0941093 -0.15833572 0 0 Z " fill="#892C31" transform="translate(252.68359375,36.45703125)"/>
<path d="M0 0 C3.3 0 6.6 0 10 0 C10 4.62 10 9.24 10 14 C5.90399524 13.18079905 2.00064296 12.17665969 -2 11 C-1.34 7.37 -0.68 3.74 0 0 Z " fill="#F9F6F5" transform="translate(333,62)"/>
<path d="M0 0 C0.99 0.33 1.98 0.66 3 1 C3.84974093 15.16234888 3.84974093 15.16234888 -1 21 C-5.54156316 24.00472183 -10.76500087 23.51885346 -16 23 C-19.1875 21.625 -19.1875 21.625 -21 20 C-21 19.34 -21 18.68 -21 18 C-20.16275391 18.23589844 -20.16275391 18.23589844 -19.30859375 18.4765625 C-16.85394609 19.03311544 -14.57737122 19.27425015 -12.0625 19.375 C-11.22847656 19.42398438 -10.39445312 19.47296875 -9.53515625 19.5234375 C-5.73663574 18.73915129 -4.34304744 17.03384247 -2 14 C-0.97775307 10.44772381 -0.97775307 10.44772381 -0.6875 6.6875 C-0.54699219 5.43324219 -0.40648437 4.17898437 -0.26171875 2.88671875 C-0.17535156 1.93410156 -0.08898437 0.98148438 0 0 Z " fill="#731C1A" transform="translate(286,234)"/>
<path d="M0 0 C4.31656717 5.13321502 5.14014255 9.22802574 5.0625 15.75 C5.05347656 16.73484375 5.04445313 17.7196875 5.03515625 18.734375 C5.02355469 19.48203125 5.01195312 20.2296875 5 21 C4.67 21 4.34 21 4 21 C3.82984375 20.39671875 3.6596875 19.7934375 3.484375 19.171875 C1.65924943 12.61428354 1.65924943 12.61428354 -3 8 C-6.32874433 7.39191442 -9.6211985 7.12896189 -13 7 C-6.5940367 -0.92316514 -6.5940367 -0.92316514 0 0 Z " fill="#F8A0C3" transform="translate(321,44)"/>
<path d="M0 0 C0.33 0.66 0.66 1.32 1 2 C1.66 2 2.32 2 3 2 C2.835 2.928125 2.67 3.85625 2.5 4.8125 C1.2637754 14.09341004 2.2056167 22.09628457 4.66479492 31.07373047 C5.72280548 35.06777819 6.24329717 38.01206569 5 42 C2.34715546 38.02073319 1.52999028 34.04067347 0.375 29.4375 C0.14554688 28.58091797 -0.08390625 27.72433594 -0.3203125 26.84179688 C-2.25349186 19.19538207 -2.99422329 11.60261526 -1 3.875 C-0.814375 3.12992188 -0.62875 2.38484375 -0.4375 1.6171875 C-0.293125 1.08351562 -0.14875 0.54984375 0 0 Z " fill="#772725" transform="translate(189,184)"/>
<path d="M0 0 C0.99 0 1.98 0 3 0 C3.12117188 0.86882812 3.24234375 1.73765625 3.3671875 2.6328125 C3.53476562 3.78523438 3.70234375 4.93765625 3.875 6.125 C4.03742188 7.26195313 4.19984375 8.39890625 4.3671875 9.5703125 C4.97829548 12.88236685 5.74781418 15.87417317 7 19 C7.66 19.33 8.32 19.66 9 20 C5.7 19.67 2.4 19.34 -1 19 C-1.8723255 15.22457523 -2.16344601 11.68519302 -2.1875 7.8125 C-2.20167969 6.76707031 -2.21585937 5.72164063 -2.23046875 4.64453125 C-2 2 -2 2 0 0 Z " fill="#9C94C3" transform="translate(316,89)"/>
<path d="M0 0 C0 0.66 0 1.32 0 2 C-0.54527344 2.12375 -1.09054688 2.2475 -1.65234375 2.375 C-9.55991984 4.53775585 -15.1380635 8.79613328 -19.7578125 15.58203125 C-26.4614737 27.35554677 -29.2849906 39.87264072 -32 53 C-32.33 53 -32.66 53 -33 53 C-34.33829408 37.0296907 -27.92303528 21.78607563 -17.75 9.625 C-13.03534947 4.60669401 -7.14728999 0 0 0 Z " fill="#892B31" transform="translate(234,40)"/>
<path d="M0 0 C3.68004052 3.43470448 5.73410909 5.88406811 6.37109375 10.953125 C6.51986973 18.33941461 6.05584902 23.40688092 1 29 C-1.73519829 31.53982698 -3.46953778 32.82317926 -7 34 C-7.99 33.34 -8.98 32.68 -10 32 C-8.9275 31.79375 -7.855 31.5875 -6.75 31.375 C-2.06817724 29.65833166 -1.22463689 28.4200663 1 24 C1.48912714 20.60636528 1.4245375 17.29587819 1.3125 13.875 C1.29799805 12.53501953 1.29799805 12.53501953 1.28320312 11.16796875 C1.21627451 7.27446953 1.06427632 3.76326392 0 0 Z " fill="#701917" transform="translate(310,146)"/>
<path d="M0 0 C0 3.33579999 -0.44190755 4.01275441 -2.2734375 6.66796875 C-2.76360352 7.38871582 -3.25376953 8.10946289 -3.75878906 8.85205078 C-4.29213867 9.62274902 -4.82548828 10.39344727 -5.375 11.1875 C-9.05536702 16.57933585 -12.64617443 21.98728537 -16.01635742 27.57885742 C-19.65447229 33.61310256 -23.20615488 38.86306856 -28.50390625 43.6171875 C-30.12183154 44.94925989 -30.12183154 44.94925989 -31 47 C-31.99 47 -32.98 47 -34 47 C-34 46.34 -34 45.68 -34 45 C-32.85423404 43.95244255 -31.6560644 42.96190283 -30.4375 42 C-24.1256315 36.61209109 -20.01790359 30.04600683 -16.1875 22.75 C-13.71577711 18.07376751 -10.88490408 13.79348064 -7.8125 9.5 C-7.38412842 8.90026367 -6.95575684 8.30052734 -6.5144043 7.68261719 C-4.51049407 4.92375274 -2.52466657 2.30262749 0 0 Z " fill="#7A2121" transform="translate(205,44)"/>
<path d="M0 0 C3.5198582 1.43232325 5.06793624 3.08362961 7.125 6.25 C7.87136719 7.37148438 7.87136719 7.37148438 8.6328125 8.515625 C11.467513 13.66668076 12.24441969 18.02343519 12.125 23.875 C12.10695313 25.02742188 12.08890625 26.17984375 12.0703125 27.3671875 C12.04710937 28.23601562 12.02390625 29.10484375 12 30 C11.34 30 10.68 30 10 30 C10 29.34 10 28.68 10 28 C9.34 28 8.68 28 8 28 C8.03480469 27.154375 8.06960938 26.30875 8.10546875 25.4375 C8.27097032 18.50219628 8.018744 13.27898752 5 7 C3.92083333 5.72083333 3.92083333 5.72083333 1.375 5.625 C-3.12459052 6.1249545 -5.58357101 8.16982214 -9 11 C-7.60364382 7.62547256 -6.1393647 5.88361882 -3 4 C-0.25 3.3125 -0.25 3.3125 2 3 C1.34 2.01 0.68 1.02 0 0 Z " fill="#92353C" transform="translate(317,39)"/>
<path d="M0 0 C0.66 2.97 1.32 5.94 2 9 C-3.39449293 9.27429625 -6.51925805 9.36055646 -11 6 C-10 3 -10 3 -7.1875 1.3125 C-4 0 -4 0 0 0 Z " fill="#FAA4C6" transform="translate(322,57)"/>
<path d="M0 0 C0 3.18812327 -0.38708079 4.01318672 -1.96875 6.65234375 C-2.37480469 7.34650391 -2.78085938 8.04066406 -3.19921875 8.75585938 C-4.06468863 10.2074057 -4.93187052 11.65793266 -5.80078125 13.10742188 C-6.20683594 13.80287109 -6.61289063 14.49832031 -7.03125 15.21484375 C-7.59682617 16.16025024 -7.59682617 16.16025024 -8.17382812 17.12475586 C-9.26878251 19.26855384 -9.26878251 19.26855384 -9 23 C-8.34 23.33 -7.68 23.66 -7 24 C-7 24.66 -7 25.32 -7 26 C-8.97321053 27.3726682 -10.97543152 28.70427617 -13 30 C-13.66 30.66 -14.32 31.32 -15 32 C-14.979375 30.88625 -14.95875 29.7725 -14.9375 28.625 C-14.73619282 25.16784079 -14.73619282 25.16784079 -16 23 C-15.01 23 -14.02 23 -13 23 C-12.77441406 22.18144531 -12.54882812 21.36289063 -12.31640625 20.51953125 C-10.69507573 16.18475738 -8.43267771 12.56614257 -5.9375 8.6875 C-5.47794922 7.95982422 -5.01839844 7.23214844 -4.54492188 6.48242188 C-1.17900989 1.17900989 -1.17900989 1.17900989 0 0 Z " fill="#7A2224" transform="translate(225,65)"/>
<path d="M0 0 C3.33333333 1.66666667 6.66666667 3.33333333 10 5 C9.01 5.495 9.01 5.495 8 6 C7.01 5.67 6.02 5.34 5 5 C3.60560336 4.93334624 2.20830125 4.91461801 0.8125 4.9375 C-0.445625 4.958125 -1.70375 4.97875 -3 5 C-8.33574171 12.83687063 -7.37245444 20.89555825 -7 30 C-7.66 30 -8.32 30 -9 30 C-11.27601921 23.17194236 -11.03736057 14.36363752 -8.1328125 7.72265625 C-6.01584972 4.50341286 -3.09587485 2.23920811 0 0 Z " fill="#862A2F" transform="translate(307,33)"/>
<path d="M0 0 C0 0.99 0 1.98 0 3 C-2 4.6875 -2 4.6875 -4 6 C-3.01 6.33 -2.02 6.66 -1 7 C-1.99 8.485 -1.99 8.485 -3 10 C-6.5625 10.25 -6.5625 10.25 -10 10 C-11 9 -11 9 -11.0625 5.4375 C-11.041875 4.303125 -11.02125 3.16875 -11 2 C-9.5422647 1.664061 -8.08378894 1.33133376 -6.625 1 C-5.40683594 0.7215625 -5.40683594 0.7215625 -4.1640625 0.4375 C-2 0 -2 0 0 0 Z " fill="#9D97C8" transform="translate(314,82)"/>
<path d="M0 0 C1.5 1.375 1.5 1.375 3 3 C3 3.66 3 4.32 3 5 C3.70125 5.268125 4.4025 5.53625 5.125 5.8125 C6.07375 6.204375 7.0225 6.59625 8 7 C9.60875 7.6496875 9.60875 7.6496875 11.25 8.3125 C14 10 14 10 14.9375 12.5625 C15 15 15 15 14 17 C13.34 17 12.68 17 12 17 C12 15.68 12 14.36 12 13 C11.319375 12.95875 10.63875 12.9175 9.9375 12.875 C5.8139192 11.64669934 2.82009471 9.2370442 0 6 C-0.765625 3.92578125 -0.765625 3.92578125 -1 2 C-0.67 1.34 -0.34 0.68 0 0 Z " fill="#741F1C" transform="translate(178,169)"/>
<path d="M0 0 C-0.49670143 6.95381997 -1.85284291 13.20252704 -7.25 18 C-7.8275 18.33 -8.405 18.66 -9 19 C-8.71382813 18.43539062 -8.42765625 17.87078125 -8.1328125 17.2890625 C-7.00123603 15.00249764 -5.92482937 12.70017764 -4.875 10.375 C-4.34519531 9.21097656 -4.34519531 9.21097656 -3.8046875 8.0234375 C-2.87682193 6.05318968 -2.87682193 6.05318968 -3 4 C-4.0725 4.639375 -5.145 5.27875 -6.25 5.9375 C-11.36885394 8.83477133 -15.06464998 9.11414135 -21 9 C-21 8.34 -21 7.68 -21 7 C-21.99 6.67 -22.98 6.34 -24 6 C-22 6 -20 6 -18 6 C-12.04346413 5.68649811 -8.54626182 4.49169407 -3.6640625 1.05859375 C-2 0 -2 0 0 0 Z " fill="#8C3E3F" transform="translate(279,137)"/>
<path d="M0 0 C1 3 1 3 0.1796875 4.9453125 C-0.25085938 5.66460937 -0.68140625 6.38390625 -1.125 7.125 C-1.82496094 8.32189453 -1.82496094 8.32189453 -2.5390625 9.54296875 C-3.02117187 10.35378906 -3.50328125 11.16460937 -4 12 C-7.54614465 18.2329475 -10.84149961 24.56203537 -14 31 C-16.79233071 28.44722581 -17.48967606 26.77639718 -18 23 C-17.01 23.99 -16.02 24.98 -15 26 C-14.65219482 25.35450195 -14.30438965 24.70900391 -13.94604492 24.04394531 C-12.36319914 21.1108158 -10.77540651 18.18039264 -9.1875 15.25 C-8.64029297 14.23421875 -8.09308594 13.2184375 -7.52929688 12.171875 C-6.99755859 11.1921875 -6.46582031 10.2125 -5.91796875 9.203125 C-5.43094482 8.30239258 -4.9439209 7.40166016 -4.44213867 6.47363281 C-3.09973182 4.17106532 -1.64634098 2.09262537 0 0 Z " fill="#722120" transform="translate(340,101)"/>
<path d="M0 0 C1.32 0 2.64 0 4 0 C5.73473712 1.94125344 7.4045651 3.94272868 9 6 C9.66 6.33 10.32 6.66 11 7 C10.34 8.65 9.68 10.3 9 12 C7.68 12 6.36 12 5 12 C3.515625 10.390625 3.515625 10.390625 2.25 8.25 C1.60804688 7.20585938 1.60804688 7.20585938 0.953125 6.140625 C0 4 0 4 0 0 Z " fill="#9A93C3" transform="translate(322,87)"/>
<path d="M0 0 C0.71285156 0.47050781 1.42570313 0.94101563 2.16015625 1.42578125 C7.31769625 4.77852933 12.23958562 7.82384346 18 10 C17.01 10.33 16.02 10.66 15 11 C16.98 15.62 18.96 20.24 21 25 C18 26 18 26 15.8125 25.0625 C14.9153125 24.5365625 14.9153125 24.5365625 14 24 C14.99 23.67 15.98 23.34 17 23 C15.37014112 15.14127538 15.37014112 15.14127538 10.61328125 8.97265625 C8.88846687 7.98309121 7.13064773 7.04802695 5.33984375 6.18359375 C3.04022275 5.0203464 1.61393926 3.99493476 0 2 C0 1.34 0 0.68 0 0 Z " fill="#842F30" transform="translate(195,127)"/>
<path d="M0 0 C2.02274956 2.69699942 3.86041497 5.27784747 5.625 8.125 C6.05039062 8.80820313 6.47578125 9.49140625 6.9140625 10.1953125 C8 12 8 12 9 14 C5.04 13.67 1.08 13.34 -3 13 C-2.01 8.71 -1.02 4.42 0 0 Z " fill="#F6F0EF" transform="translate(261,83)"/>
<path d="M0 0 C3.96 0 7.92 0 12 0 C12 5.94 12 11.88 12 18 C11.34 18.33 10.68 18.66 10 19 C7.99074195 18.01873444 5.99242489 17.0150089 4 16 C1.68328955 15.22931075 -0.63473553 14.61496876 -3 14 C-2.67 13.34 -2.34 12.68 -2 12 C1.96 13.32 5.92 14.64 10 16 C10 11.38 10 6.76 10 2 C6.7 1.67 3.4 1.34 0 1 C0 0.67 0 0.34 0 0 Z " fill="#945856" transform="translate(333,60)"/>
<path d="M0 0 C0.09765625 6.15234375 0.09765625 6.15234375 0 8 C-1 9 -1 9 -3.06640625 9.09765625 C-3.89011719 9.08605469 -4.71382813 9.07445313 -5.5625 9.0625 C-6.38878906 9.05347656 -7.21507812 9.04445313 -8.06640625 9.03515625 C-8.70449219 9.02355469 -9.34257812 9.01195313 -10 9 C-8.68 8.34 -7.36 7.68 -6 7 C-7.32 6.67 -8.64 6.34 -10 6 C-7.82304683 0.97626191 -5.41372848 -0.29263397 0 0 Z " fill="#9E98C9" transform="translate(332,76)"/>
<path d="M0 0 C1.32 0.33 2.64 0.66 4 1 C4 1.66 4 2.32 4 3 C9.28 3 14.56 3 20 3 C19.67 3.66 19.34 4.32 19 5 C14.71 5 10.42 5 6 5 C6.33 6.98 6.66 8.96 7 11 C3.66428571 9.88809524 3.41582921 9.53679327 1.8125 6.625 C1.46832031 6.01914063 1.12414062 5.41328125 0.76953125 4.7890625 C0 3 0 3 0 0 Z " fill="#6B0B09" transform="translate(217,216)"/>
<path d="M0 0 C3.89577024 -0.05821935 7.79142802 -0.0936703 11.6875 -0.125 C12.79029297 -0.14175781 13.89308594 -0.15851563 15.02929688 -0.17578125 C16.09599609 -0.18222656 17.16269531 -0.18867188 18.26171875 -0.1953125 C19.73064575 -0.21102295 19.73064575 -0.21102295 21.22924805 -0.22705078 C24.17112772 0.01402315 26.33237726 0.76944458 29 2 C27 4 27 4 25.02880859 4.22705078 C24.24328613 4.21657715 23.45776367 4.20610352 22.6484375 4.1953125 C21.37226563 4.18564453 21.37226563 4.18564453 20.0703125 4.17578125 C18.73613281 4.15064453 18.73613281 4.15064453 17.375 4.125 C16.4778125 4.11597656 15.580625 4.10695312 14.65625 4.09765625 C12.43723414 4.0740497 10.21874923 4.0411231 8 4 C8 3.67 8 3.34 8 3 C11.465 2.505 11.465 2.505 15 2 C10.05 1.67 5.1 1.34 0 1 C0 0.67 0 0.34 0 0 Z " fill="#833533" transform="translate(221,218)"/>
<path d="M0 0 C0.33 0.99 0.66 1.98 1 3 C3.64 3 6.28 3 9 3 C8.01 3.495 8.01 3.495 7 4 C7.30035156 4.90363281 7.60070312 5.80726562 7.91015625 6.73828125 C8.48056641 8.50751953 8.48056641 8.50751953 9.0625 10.3125 C9.44535156 11.48425781 9.82820313 12.65601562 10.22265625 13.86328125 C11 17 11 17 10 20 C7.70311431 17.70311431 7.28148697 16.21071829 6.375 13.125 C5.98441406 11.82949219 5.98441406 11.82949219 5.5859375 10.5078125 C5 8 5 8 5 4 C4.01 4 3.02 4 2 4 C1.89042969 4.67546875 1.78085937 5.3509375 1.66796875 6.046875 C1.50941406 6.93890625 1.35085938 7.8309375 1.1875 8.75 C1.03667969 9.63171875 0.88585937 10.5134375 0.73046875 11.421875 C-0.05414248 14.1910911 -1.14595359 15.8259401 -3 18 C-3 15 -3 15 -2.0625 12.375 C-0.76823263 8.26379776 -0.36134064 4.27903388 0 0 Z " fill="#8A4444" transform="translate(312,105)"/>
<path d="M0 0 C0.33 0 0.66 0 1 0 C1.82555811 32.51428851 1.82555811 32.51428851 -3 46 C-3.33 46 -3.66 46 -4 46 C-3.88205295 44.39529935 -3.75509534 42.79126148 -3.625 41.1875 C-3.55539062 40.29417969 -3.48578125 39.40085938 -3.4140625 38.48046875 C-3.06730067 35.56570658 -2.57167485 32.78100985 -2 29.90625 C-0.84479571 23.71450219 -0.55975789 17.59811737 -0.375 11.3125 C-0.33632813 10.21744141 -0.29765625 9.12238281 -0.2578125 7.99414062 C-0.16472748 5.329582 -0.07890148 2.66500978 0 0 Z " fill="#701213" transform="translate(299,89)"/>
<path d="M0 0 C1.89908399 3.18722236 2.13511634 5.26759768 1.875 8.9375 C1.78682293 12.67400319 1.85322131 13.76026147 3.875 17.0625 C6.69507921 19.63374869 7.55657874 19.96775118 11.4375 20.25 C14.90404342 20.33319368 14.90404342 20.33319368 16.8125 18.625 C17.204375 18.08875 17.59625 17.5525 18 17 C18.66 16.34 19.32 15.68 20 15 C20.33 15.66 20.66 16.32 21 17 C18.34785791 20.13434975 16.5810205 21.81708614 12.625 23.0625 C7.7845442 22.97904387 5.90811492 21.83529906 2 19 C-0.05439189 15.838865 -0.35927861 12.97009944 -0.625 9.25 C-0.69976562 8.26515625 -0.77453125 7.2803125 -0.8515625 6.265625 C-0.90054688 5.51796875 -0.94953125 4.7703125 -1 4 C-1.99 4 -2.98 4 -4 4 C-2.68 2.68 -1.36 1.36 0 0 Z " fill="#833C3F" transform="translate(209,93)"/>
<path d="M0 0 C1.45903258 0.30921884 2.91720722 0.62248799 4.375 0.9375 C5.18710937 1.11152344 5.99921875 1.28554687 6.8359375 1.46484375 C9 2 9 2 11 3 C11.28571429 10.42857143 11.28571429 10.42857143 9 14 C8.34 14 7.68 14 7 14 C6.773125 12.80375 6.54625 11.6075 6.3125 10.375 C5.2051224 5.83232692 3.19168889 3.35967251 0 0 Z " fill="#F2EAE9" transform="translate(269,100)"/>
<path d="M0 0 C1.81089868 2.71634803 2.38623672 4.00484387 3.03515625 7.0625 C3.2043457 7.85487061 3.37353516 8.64724121 3.54785156 9.46362305 C3.80260254 10.71912964 3.80260254 10.71912964 4.0625 12 C4.2387793 12.85053955 4.41505859 13.7010791 4.59667969 14.57739258 C5.82761061 20.69423504 6.71949243 26.75870659 7 33 C6.34 33 5.68 33 5 33 C4.88930176 32.41621582 4.77860352 31.83243164 4.66455078 31.23095703 C4.15187533 28.52887466 3.63844086 25.82693703 3.125 23.125 C2.95097656 22.2071875 2.77695312 21.289375 2.59765625 20.34375 C2.42363281 19.42851563 2.24960937 18.51328125 2.0703125 17.5703125 C1.89661133 16.6515332 1.72291016 15.73275391 1.54394531 14.78613281 C1.17602969 12.90163862 0.78941189 11.02071505 0.38574219 9.14355469 C0.19399414 8.24797852 0.00224609 7.35240234 -0.1953125 6.4296875 C-0.37336426 5.62515137 -0.55141602 4.82061523 -0.73486328 3.99169922 C-1 2 -1 2 0 0 Z " fill="#94383F" transform="translate(274,60)"/>
<path d="M0 0 C8.19256018 -0.63019694 8.19256018 -0.63019694 11.5625 2 C12.036875 2.66 12.51125 3.32 13 4 C11.9275 4.268125 10.855 4.53625 9.75 4.8125 C6.43491072 5.86227827 4.56122354 6.74612328 2 9 C0 2.25 0 2.25 0 0 Z " fill="#F199B9" transform="translate(308,52)"/>
<path d="M0 0 C0.33 0 0.66 0 1 0 C1.33 4.62 1.66 9.24 2 14 C-0.64 13.34 -3.28 12.68 -6 12 C-4.26492136 7.78623759 -2.53903854 3.80855781 0 0 Z " fill="#F3EDEC" transform="translate(220,76)"/>
<path d="M0 0 C4.5 3 4.5 3 9 6 C7.94124926 9.40312738 6.99097846 12.01353231 5 15 C2.75 14.9375 2.75 14.9375 0 14 C-1.86135162 11.75134851 -2.78061322 9.72017052 -4 7 C-3.67 6.01 -3.34 5.02 -3 4 C-2.66226562 4.5775 -2.32453125 5.155 -1.9765625 5.75 C-1.53054688 6.4925 -1.08453125 7.235 -0.625 8 C-0.18414062 8.7425 0.25671875 9.485 0.7109375 10.25 C1.13632812 10.8275 1.56171875 11.405 2 12 C2.66 12 3.32 12 4 12 C5.6446674 9.53673288 5.6446674 9.53673288 7 7 C6.401875 6.731875 5.80375 6.46375 5.1875 6.1875 C3.00152146 5.00082594 1.58667406 3.90400887 0 2 C0 1.34 0 0.68 0 0 Z " fill="#712323" transform="translate(326,87)"/>
<path d="M0 0 C0.33 0.66 0.66 1.32 1 2 C1.66 2 2.32 2 3 2 C2.125 8.875 2.125 8.875 1 10 C0.76518307 12.18292774 0.58636677 14.37203174 0.4375 16.5625 C0.35371094 17.76003906 0.26992187 18.95757812 0.18359375 20.19140625 C0.12300781 21.11824219 0.06242188 22.04507813 0 23 C-3.81107464 16.39111263 -2.2030611 8.70395358 -0.4375 1.6171875 C-0.293125 1.08351562 -0.14875 0.54984375 0 0 Z " fill="#812F2C" transform="translate(189,184)"/>
<path d="M0 0 C2.05449993 3.0817499 2.74475809 5.3095757 3.625 8.875 C3.88539063 9.90367187 4.14578125 10.93234375 4.4140625 11.9921875 C4.95301116 14.75879061 5.11394368 17.19284196 5 20 C4.01 19.67 3.02 19.34 2 19 C1.015625 16.015625 1.015625 16.015625 0.25 12.25 C-0.01296875 11.01765625 -0.2759375 9.7853125 -0.546875 8.515625 C-0.96559022 5.26697246 -0.88092994 3.11896818 0 0 Z " fill="#7C3230" transform="translate(283,214)"/>
<path d="M0 0 C0.99 0.33 1.98 0.66 3 1 C2.61071452 4.8149977 2.06493736 7.85389093 0.5 11.375 C-1.25841765 15.62450932 -1.70074506 19.44926107 -2 24 C-4.66251421 21.33748579 -4.78513812 19.73322518 -5 16 C-3.75 12.9296875 -3.75 12.9296875 -2 9.875 C0.42407646 5.98672529 0.42407646 5.98672529 0.6875 1.6328125 C0.3471875 0.82457031 0.3471875 0.82457031 0 0 Z " fill="#782D2C" transform="translate(344,78)"/>
<path d="M0 0 C-3.72196912 3.13200665 -7.19559498 3.97379151 -11.85546875 5.05859375 C-12.56316406 5.36925781 -13.27085937 5.67992187 -14 6 C-14.87550091 8.0233006 -14.87550091 8.0233006 -15 10 C-15 8.02 -15 6.04 -15 4 C-15.66 3.67 -16.32 3.34 -17 3 C-5.47835991 -0.44419134 -5.47835991 -0.44419134 0 0 Z " fill="#7D3130" transform="translate(268,214)"/>
<path d="M0 0 C2.31 0 4.62 0 7 0 C7 1.98 7 3.96 7 6 C4.125 6.125 4.125 6.125 1 6 C0.34 5.34 -0.32 4.68 -1 4 C-0.625 1.875 -0.625 1.875 0 0 Z " fill="#F4EEEF" transform="translate(215,92)"/>
<path d="M0 0 C2.04119788 1.61594832 4.04072937 3.2856382 6 5 C6 5.66 6 6.32 6 7 C0.39 7 -5.22 7 -11 7 C-10.67 6.34 -10.34 5.68 -10 5 C-7.27734375 4.5859375 -7.27734375 4.5859375 -3.9375 4.375 C-2.83277344 4.30023438 -1.72804688 4.22546875 -0.58984375 4.1484375 C0.26480469 4.09945312 1.11945313 4.05046875 2 4 C1.34 2.68 0.68 1.36 0 0 Z " fill="#6D0D0C" transform="translate(267,92)"/>
<path d="M0 0 C1.485 0.99 1.485 0.99 3 2 C3.22137393 4.62697064 3.28162025 7.00893964 3.1875 9.625 C3.16719727 10.68460938 3.16719727 10.68460938 3.14648438 11.765625 C3.1111104 13.51074128 3.05730221 15.25546608 3 17 C2.01 16.67 1.02 16.34 0 16 C0 10.72 0 5.44 0 0 Z " fill="#853D3C" transform="translate(175,154)"/>
<path d="M0 0 C2.10900699 3.16351048 3.0584157 5.88040844 4.1875 9.5 C4.55230469 10.6446875 4.91710937 11.789375 5.29296875 12.96875 C6 16 6 16 5 19 C4.34 18.67 3.68 18.34 3 18 C2.4765625 16.35546875 2.4765625 16.35546875 2 14 C1.73960937 12.94425781 1.47921875 11.88851562 1.2109375 10.80078125 C0.93507812 9.64964844 0.65921875 8.49851563 0.375 7.3125 C0.09398437 6.15363281 -0.18703125 4.99476562 -0.4765625 3.80078125 C-0.64929688 2.87652344 -0.82203125 1.95226562 -1 1 C-0.67 0.67 -0.34 0.34 0 0 Z " fill="#903E41" transform="translate(185,120)"/>
<path d="M0 0 C1.125 4.75 1.125 4.75 0 7 C-0.66 7 -1.32 7 -2 7 C-2 5.68 -2 4.36 -2 3 C-2.804375 2.87625 -3.60875 2.7525 -4.4375 2.625 C-5.283125 2.41875 -6.12875 2.2125 -7 2 C-7.33 1.34 -7.66 0.68 -8 0 C-5.13822943 -1.43088528 -3.06624227 -0.59991697 0 0 Z " fill="#6D0B09" transform="translate(192,179)"/>
<path d="M0 0 C1 3 1 3 1 4 C1.99 2.68 2.98 1.36 4 0 C3.67 1.65 3.34 3.3 3 5 C3.66 5 4.32 5 5 5 C5 5.66 5 6.32 5 7 C-1.625 9 -1.625 9 -5 9 C-3.35 6.03 -1.7 3.06 0 0 Z " fill="#792022" transform="translate(327,69)"/>
<path d="M0 0 C3.465 1.485 3.465 1.485 7 3 C7 4.32 7 5.64 7 7 C3.46013806 7 2.50484597 6.41847197 0 4 C0 2.68 0 1.36 0 0 Z " fill="#F49DBE" transform="translate(275,31)"/>
<path d="M0 0 C2.64 0 5.28 0 8 0 C10.29612756 9.41002278 10.29612756 9.41002278 10 14 C9.34 13.67 8.68 13.34 8 13 C7.5859375 10.71484375 7.5859375 10.71484375 7.375 7.9375 C7.30023438 7.01839844 7.22546875 6.09929687 7.1484375 5.15234375 C7.09945312 4.44207031 7.05046875 3.73179687 7 3 C4.69 2.34 2.38 1.68 0 1 C0 0.67 0 0.34 0 0 Z " fill="#701615" transform="translate(245,218)"/>
<path d="M0 0 C0.66 0 1.32 0 2 0 C2.33 4.29 2.66 8.58 3 13 C2.01 12.67 1.02 12.34 0 12 C-0.80078125 10.0390625 -0.80078125 10.0390625 -1.3125 7.625 C-1.49425781 6.83351562 -1.67601562 6.04203125 -1.86328125 5.2265625 C-2 3 -2 3 0 0 Z " fill="#711715" transform="translate(281,206)"/>
<path d="M0 0 C2.75661088 2.48984209 4.60746455 4.20549066 5 8 C4.67 8.33 4.34 8.66 4 9 C3.76636119 10.84891946 3.58696365 12.70488031 3.4375 14.5625 C3.35371094 15.57441406 3.26992188 16.58632812 3.18359375 17.62890625 C3.12300781 18.41136719 3.06242187 19.19382813 3 20 C2.67 20 2.34 20 2 20 C1.93941406 18.89140625 1.87882812 17.7828125 1.81640625 16.640625 C1.73197049 15.1770718 1.64732401 13.71353075 1.5625 12.25 C1.52318359 11.52039063 1.48386719 10.79078125 1.44335938 10.0390625 C1.23852902 6.5727027 0.9147998 3.34666974 0 0 Z " fill="#975654" transform="translate(310,146)"/>
<path d="M0 0 C2.22825644 2.22825644 2.69239369 3.65761628 3.625 6.625 C3.88539063 7.44226563 4.14578125 8.25953125 4.4140625 9.1015625 C4.60742188 9.72804687 4.80078125 10.35453125 5 11 C2.0625 10.625 2.0625 10.625 -1 10 C-1.33 9.34 -1.66 8.68 -2 8 C-1.01 8 -0.02 8 1 8 C0.34 5.69 -0.32 3.38 -1 1 C-0.67 0.67 -0.34 0.34 0 0 Z " fill="#8B3F41" transform="translate(211,142)"/>
<path d="M0 0 C1.10844919 3.32534757 0.84454356 5.62182575 0 9 C-1.65 8.01 -3.3 7.02 -5 6 C-3.63016497 2.83884224 -3.0109362 2.0072908 0 0 Z " fill="#F8F3F2" transform="translate(208,96)"/>
<path d="M0 0 C2.31 0 4.62 0 7 0 C7 0.66 7 1.32 7 2 C5.02678947 3.3726682 3.02456848 4.70427617 1 6 C0.34 6.66 -0.32 7.32 -1 8 C-1.125 2.25 -1.125 2.25 0 0 Z " fill="#6C0C09" transform="translate(211,89)"/>
<path d="M0 0 C2 2 2 2 2 5 C3.98 5 5.96 5 8 5 C8 5.66 8 6.32 8 7 C8.66 7.33 9.32 7.66 10 8 C6.7 7.67 3.4 7.34 0 7 C0 4.69 0 2.38 0 0 Z " fill="#9D8BB1" transform="translate(315,101)"/>
<path d="M0 0 C-0.33 0.66 -0.66 1.32 -1 2 C-6.28 1.34 -11.56 0.68 -17 0 C-17 -0.33 -17 -0.66 -17 -1 C-5.47835991 -2.51708428 -5.47835991 -2.51708428 0 0 Z " fill="#863837" transform="translate(279,100)"/>
<path d="M0 0 C5.01830384 1.4338011 7.13712499 3.7898897 10 8 C9.6328125 10.1953125 9.6328125 10.1953125 9 12 C7.87370125 10.56351736 6.7490101 9.12577415 5.625 7.6875 C4.99851562 6.88699219 4.37203125 6.08648437 3.7265625 5.26171875 C2.42243282 3.55336788 1.19218183 1.78827274 0 0 Z " fill="#752323" transform="translate(319,35)"/>
<path d="M0 0 C1.79068573 2.6860286 2.66055791 4.6626589 3.625 7.6875 C3.88539063 8.49574219 4.14578125 9.30398437 4.4140625 10.13671875 C4.60742188 10.75160156 4.80078125 11.36648437 5 12 C4.01 12 3.02 12 2 12 C1.47026689 10.37787941 0.95146893 8.75218416 0.4375 7.125 C0.14746094 6.22007812 -0.14257812 5.31515625 -0.44140625 4.3828125 C-1 2 -1 2 0 0 Z " fill="#782B2A" transform="translate(255,230)"/>
<path d="M0 0 C3.34944548 5.02416822 3.09834146 9.09951257 3 15 C2.67 15 2.34 15 2 15 C1.566875 13.453125 1.566875 13.453125 1.125 11.875 C0.17691202 8.54992003 -0.88256594 5.27248547 -2 2 C-1.34 2 -0.68 2 0 2 C0 1.34 0 0.68 0 0 Z " fill="#803C3B" transform="translate(224,225)"/>
<path d="M0 0 C0.66 0 1.32 0 2 0 C2.99 3.63 3.98 7.26 5 11 C4.01 11 3.02 11 2 11 C0 3.375 0 3.375 0 0 Z " fill="#7A2E2D" transform="translate(289,153)"/>
<path d="M0 0 C1.8125 2.25 1.8125 2.25 2.8125 5.25 C1.8225 5.745 1.8225 5.745 0.8125 6.25 C0.5340625 5.2909375 0.5340625 5.2909375 0.25 4.3125 C-1.12996056 1.82873787 -1.12996056 1.82873787 -4.8125 1.5 C-5.92625 1.4175 -7.04 1.335 -8.1875 1.25 C-5.23617427 -1.70132573 -3.45909974 -2.76727979 0 0 Z " fill="#7D2927" transform="translate(192.1875,139.75)"/>
<path d="M0 0 C3.57983659 3.34118082 5.89716734 5.73768141 6.125 10.75 C6.08375 11.4925 6.0425 12.235 6 13 C3.19438607 11.59719304 2.99319493 9.9490995 1.875 7.0625 C1.52179688 6.16660156 1.16859375 5.27070312 0.8046875 4.34765625 C0 2 0 2 0 0 Z " fill="#7C2023" transform="translate(268,49)"/>
<path d="M0 0 C3.33333333 1.66666667 6.66666667 3.33333333 10 5 C7.2780754 6.3609623 5.8168043 5.70366248 2.875 5.0625 C1.96492188 4.86785156 1.05484375 4.67320313 0.1171875 4.47265625 C-0.58148438 4.31667969 -1.28015625 4.16070312 -2 4 C-2 3.01 -2 2.02 -2 1 C-1.34 0.67 -0.68 0.34 0 0 Z " fill="#A34953" transform="translate(307,33)"/>
<path d="M0 0 C0.33 0.66 0.66 1.32 1 2 C1.66 2 2.32 2 3 2 C2.34 4.64 1.68 7.28 1 10 C0.34 9.67 -0.32 9.34 -1 9 C-1 8.34 -1 7.68 -1 7 C-1.66 6.67 -2.32 6.34 -3 6 C-2.34 6 -1.68 6 -1 6 C-0.67 4.02 -0.34 2.04 0 0 Z " fill="#7C2926" transform="translate(193,172)"/>
<path d="M0 0 C3.59391114 1.33488128 6.75490696 2.96022723 10 5 C9.67 6.32 9.34 7.64 9 9 C7.87105124 8.06725891 6.74699124 7.12859878 5.625 6.1875 C4.99851562 5.66542969 4.37203125 5.14335938 3.7265625 4.60546875 C2 3 2 3 0 0 Z " fill="#9C404A" transform="translate(273,34)"/>
<path d="M0 0 C0.66 0.99 1.32 1.98 2 3 C0.90081184 3.98475214 -0.2045602 4.96260473 -1.3125 5.9375 C-1.92738281 6.48277344 -2.54226563 7.02804688 -3.17578125 7.58984375 C-5 9 -5 9 -8 10 C-8.99 9.34 -9.98 8.68 -11 8 C-9.39125 7.690625 -9.39125 7.690625 -7.75 7.375 C-3.29408826 5.7411657 -2.22222392 4.08889201 0 0 Z " fill="#7D3634" transform="translate(311,170)"/>
<path d="M0 0 C1.98 0.495 1.98 0.495 4 1 C4 2.32 4 3.64 4 5 C2.35 5 0.7 5 -1 5 C-0.67 3.35 -0.34 1.7 0 0 Z " fill="#F2EAEA" transform="translate(262,101)"/>
<path d="M0 0 C0.556875 0.70125 1.11375 1.4025 1.6875 2.125 C4.09124732 5.11344261 6.53810432 8.05940238 9 11 C6.75 10.9375 6.75 10.9375 4 10 C1.52994022 6.9301813 0 4.00503984 0 0 Z " fill="#762B2C" transform="translate(322,91)"/>
<path d="M0 0 C0.78375 0.04125 1.5675 0.0825 2.375 0.125 C2.375 2.765 2.375 5.405 2.375 8.125 C2.313125 7.196875 2.313125 7.196875 2.25 6.25 C1.96125 5.54875 1.6725 4.8475 1.375 4.125 C-1.62115946 2.8204344 -1.62115946 2.8204344 -4.625 2.125 C-2.625 0.125 -2.625 0.125 0 0 Z " fill="#9C8EB9" transform="translate(329.625,75.875)"/>
<path d="M0 0 C1.75091019 0.08754551 3.50079551 0.19573373 5.25 0.3125 C6.22453125 0.37050781 7.1990625 0.42851563 8.203125 0.48828125 C11.25341611 1.04636524 12.70711276 1.96369776 15 4 C14.67 4.66 14.34 5.32 14 6 C13.45859375 5.50886719 12.9171875 5.01773438 12.359375 4.51171875 C9.42758717 2.6332388 7.69700309 2.68939275 4.25 2.8125 C3.26515625 2.83957031 2.2803125 2.86664063 1.265625 2.89453125 C0.51796875 2.92933594 -0.2296875 2.96414062 -1 3 C-0.67 2.01 -0.34 1.02 0 0 Z " fill="#882A2E" transform="translate(307,50)"/>
<path d="M0 0 C0.66 0.66 1.32 1.32 2 2 C-2.75 6 -2.75 6 -5 6 C-5.66 7.32 -6.32 8.64 -7 10 C-7.66 9.34 -8.32 8.68 -9 8 C-6.03 5.36 -3.06 2.72 0 0 Z " fill="#954347" transform="translate(214,35)"/>
<path d="M0 0 C1.94268841 2.91403262 3.46395304 5.85808576 5 9 C3.68 9 2.36 9 1 9 C-1.09230769 4.56923077 -1.09230769 4.56923077 -0.625 1.6875 C-0.41875 1.130625 -0.2125 0.57375 0 0 Z " fill="#752623" transform="translate(198,229)"/>
<path d="M0 0 C2.375 0.3125 2.375 0.3125 5 1 C5.66 1.99 6.32 2.98 7 4 C6.67 4.99 6.34 5.98 6 7 C3.95880212 5.38405168 1.95927063 3.7143618 0 2 C0 1.34 0 0.68 0 0 Z " fill="#ECE0DE" transform="translate(327,86)"/>
<path d="M0 0 C1.32 0 2.64 0 4 0 C3.67 1.65 3.34 3.3 3 5 C1.68 4.67 0.36 4.34 -1 4 C-0.67 2.68 -0.34 1.36 0 0 Z " fill="#A092BF" transform="translate(317,82)"/>
<path d="M0 0 C0.66 0.33 1.32 0.66 2 1 C-0.64 3.97 -3.28 6.94 -6 10 C-6.33 9.01 -6.66 8.02 -7 7 C-4.89921489 3.92385037 -3.11378405 2.07585603 0 0 Z " fill="#8A2E35" transform="translate(237,42)"/>
<path d="M0 0 C0.66 0.33 1.32 0.66 2 1 C1.34 3.64 0.68 6.28 0 9 C-0.66 8.34 -1.32 7.68 -2 7 C-1.43181818 1.43181818 -1.43181818 1.43181818 0 0 Z " fill="#7F3534" transform="translate(289,184)"/>
<path d="M0 0 C1.11375 0.598125 2.2275 1.19625 3.375 1.8125 C4.00148437 2.14894531 4.62796875 2.48539063 5.2734375 2.83203125 C7 4 7 4 9 7 C7.6078125 6.505 7.6078125 6.505 6.1875 6 C3.07970709 4.85032996 3.07970709 4.85032996 0 5 C0 3.35 0 1.7 0 0 Z " fill="#8A3637" transform="translate(200,143)"/>
<path d="M0 0 C2.97 0.33 5.94 0.66 9 1 C7.35 2.98 5.7 4.96 4 7 C3.896875 6.401875 3.79375 5.80375 3.6875 5.1875 C3.05822228 2.59565628 3.05822228 2.59565628 0 0 Z " fill="#7A2425" transform="translate(279,32)"/>
<path d="M0 0 C2.64 0 5.28 0 8 0 C8.33 1.32 8.66 2.64 9 4 C4.545 3.01 4.545 3.01 0 2 C0 1.34 0 0.68 0 0 Z " fill="#E28AA4" transform="translate(247,34)"/>
<path d="M0 0 C2.31 0.33 4.62 0.66 7 1 C6.34 2.32 5.68 3.64 5 5 C2.5 3.625 2.5 3.625 0 2 C0 1.34 0 0.68 0 0 Z " fill="#884140" transform="translate(189,157)"/>
<path d="M0 0 C3.00617269 3.00617269 2.59585316 5.82381598 3 10 C2.34 10 1.68 10 1 10 C1 9.34 1 8.68 1 8 C0.34 7.67 -0.32 7.34 -1 7 C-0.34 7 0.32 7 1 7 C0.67 4.69 0.34 2.38 0 0 Z " fill="#680B0A" transform="translate(201,146)"/>
<path d="M0 0 C2 1 2 1 2.6328125 2.84765625 C2.79523438 3.57855469 2.95765625 4.30945313 3.125 5.0625 C3.29257812 5.79597656 3.46015625 6.52945313 3.6328125 7.28515625 C3.75398438 7.85105469 3.87515625 8.41695312 4 9 C3.01 9.495 3.01 9.495 2 10 C0.68373308 6.38026598 0 3.90432869 0 0 Z " fill="#803737" transform="translate(319,115)"/>
<path d="M0 0 C0.99 0.495 0.99 0.495 2 1 C2.73075648 3.3140622 3.40138258 5.64828869 4 8 C3.01 8.33 2.02 8.66 1 9 C0.67 6.03 0.34 3.06 0 0 Z " fill="#E2CFCD" transform="translate(320,90)"/>
<path d="M0 0 C2.64 0.66 5.28 1.32 8 2 C8 2.33 8 2.66 8 3 C4.625 3.625 4.625 3.625 1 4 C0.34 3.34 -0.32 2.68 -1 2 C-0.67 1.34 -0.34 0.68 0 0 Z " fill="#F59FBD" transform="translate(309,32)"/>
<path d="M0 0 C0.99 0.33 1.98 0.66 3 1 C2.67 2.32 2.34 3.64 2 5 C-0.97 4.505 -0.97 4.505 -4 4 C-2.68 2.68 -1.36 1.36 0 0 Z " fill="#895D78" transform="translate(312,85)"/>
</svg>
