<?xml version="1.0" encoding="UTF-8"?>
<svg version="1.1" xmlns="http://www.w3.org/2000/svg" width="498" height="281">
<path d="M0 0 C164.34 0 328.68 0 498 0 C498 92.73 498 185.46 498 281 C333.66 281 169.32 281 0 281 C0 188.27 0 95.54 0 0 Z " fill="#FCFCFB" transform="translate(0,0)"/>
<path d="M0 0 C2.24300465 -0.30565995 3.77901428 -0.86609977 5.71484375 -2.0390625 C13.03278104 -5.11634895 24.8058626 -3.84239969 32.1875 -1.375 C40.23264316 2.15400452 44.75896935 6.88928009 48 15 C48.61875 16.546875 48.61875 16.546875 49.25 18.125 C50 21 50 21 50 27 C53.96 27 57.92 27 62 27 C61.97679687 28.20398437 61.95359375 29.40796875 61.9296875 30.6484375 C61.91093137 32.22395215 61.89273101 33.79947348 61.875 35.375 C61.84986328 36.56609375 61.84986328 36.56609375 61.82421875 37.78125 C61.80664527 39.85492015 61.89664832 41.92883241 62 44 C62.66 44.66 63.32 45.32 64 46 C63.77168455 49.88136258 63.08193475 52.8156468 61.5 56.375 C60.19319784 59.53310523 59.84329585 61.0071383 59.6875 64.25 C59.15537744 70.32847697 56.02989296 74.82906919 53 80 C51.56029436 82.63367429 50.15468859 85.28502097 48.75 87.9375 C48.2384436 88.8958374 48.2384436 88.8958374 47.71655273 89.87353516 C46.10408522 92.89646084 44.51064303 95.92476241 43 99 C37.5808143 94.49985749 35.14944129 85.47685377 34.1875 78.6875 C34.125625 77.800625 34.06375 76.91375 34 76 C33.01 76 32.02 76 31 76 C30.92523438 76.61746094 30.85046875 77.23492187 30.7734375 77.87109375 C29.15044768 88.32505761 23.62863846 94.98074982 16 102 C16.94359375 102.12955078 16.94359375 102.12955078 17.90625 102.26171875 C25.53229635 103.51358479 31.07414163 105.84315281 36.375 111.5625 C37.179375 112.7690625 37.179375 112.7690625 38 114 C38.61875 114.8971875 38.61875 114.8971875 39.25 115.8125 C41.79972339 123.24919323 39.29774041 131.18466982 36 138 C33.40133013 141.06168454 30.57953645 143.21023178 27 145 C27.2165625 145.76441406 27.433125 146.52882812 27.65625 147.31640625 C32.14093113 164.56997115 30.81400273 181.22754297 21.96777344 196.81933594 C9.14238954 218.25399392 9.14238954 218.25399392 -0.01171875 221.7734375 C-5.10134391 222.35339479 -10.01602478 222.73320823 -14.875 220.9375 C-18.71346461 217.43772345 -20.66601268 214.36490011 -21.38671875 209.26171875 C-21.74435548 199.75351463 -18.99212134 191.99597658 -14 184 C-14.56750977 184.15654053 -15.13501953 184.31308105 -15.71972656 184.47436523 C-17.99898693 184.99976647 -20.1546534 185.22614059 -22.484375 185.41015625 C-31.81563322 186.16954864 -31.81563322 186.16954864 -39.65039062 190.65869141 C-42.22699287 194.52456052 -43.76179609 198.7079526 -45.25439453 203.08251953 C-47.47131746 208.78380071 -51.62102173 214.03088534 -57 217 C-60.4739056 217.70655707 -63.52887755 217.7256702 -67 217 C-69.57637471 215.11484777 -70.59667428 213.80665143 -72 211 C-73.2984467 198.69668537 -69.86592744 186.22506596 -64.734375 175.11328125 C-63.82964427 172.50977419 -63.66388419 170.74354532 -64 168 C-65.37330922 165.41385499 -65.37330922 165.41385499 -67.25 162.875 C-70.86775622 157.46671129 -75 150.73207911 -75 144 C-75.72445312 144.04640625 -76.44890625 144.0928125 -77.1953125 144.140625 C-83.37504766 144.37133511 -87.20940241 144.3343502 -92 140 C-95.92811868 135.89632294 -98.771273 132.42450622 -99.3125 126.6875 C-98.85711763 121.31398806 -97.30971043 117.45130075 -93.6875 113.4375 C-93.130625 112.633125 -92.57375 111.82875 -92 111 C-92.72713485 108.16834767 -92.72713485 108.16834767 -94 105 C-99.42634066 89.34709425 -101.28913579 76.54499219 -101 60 C-104.63 59.34 -108.26 58.68 -112 58 C-112 57.34 -112 56.68 -112 56 C-110.85423404 54.95244255 -109.6560644 53.96190283 -108.4375 53 C-102.1256315 47.61209109 -98.01790359 41.04600683 -94.1875 33.75 C-90.44868312 26.69335903 -85.77883863 20.37703343 -81 14 C-80.47535156 13.28585938 -79.95070312 12.57171875 -79.41015625 11.8359375 C-73.01078187 3.71151437 -64.91874837 -1.42890657 -54.8125 -3.4140625 C-52.28616384 -3.94038253 -50.23531464 -4.68252228 -47.875 -5.6875 C-33.54429831 -10.5764939 -12.93223674 -7.10005155 0 0 Z " fill="#FBA4C7" transform="translate(281,33)"/>
<path d="M0 0 C7.04700919 0.2634396 14.11462143 0.74621153 20 5 C25.41466042 11.51659131 24.68982695 17.91664322 24 26 C23.37406623 29.95536874 22.00423929 32.20586751 18.796875 34.7421875 C16.57509204 36.25830983 14.3337678 37.66432157 12 39 C10.43809119 36.76186247 8.90116118 34.51230952 7.375 32.25 C6.92898438 31.61578125 6.48296875 30.9815625 6.0234375 30.328125 C4.7734375 28.453125 4.7734375 28.453125 3 25 C3.91996832 21.47833784 5.92079106 19.84752536 9 18 C11.75 17.3125 11.75 17.3125 14 17 C11.21061788 16.58109782 11.21061788 16.58109782 8 17 C5.24958334 19.41666771 5.24958334 19.41666771 3 22 C2.34 22 1.68 22 1 22 C-0.32 19.69 -1.64 17.38 -3 15 C-0.18755837 20.80440082 2.63346342 26.53135465 6.0625 32 C7.05088477 33.66121663 8.0300549 35.32794987 9 37 C9.73669922 38.22783203 9.73669922 38.22783203 10.48828125 39.48046875 C14.05346859 46.44011616 14.46207617 52.94542375 14.5 60.625 C14.50942627 62.07362427 14.50942627 62.07362427 14.51904297 63.55151367 C14.32742094 74.45815594 10.82986535 83.03950174 5.75 92.5625 C5.29753906 93.44357422 4.84507812 94.32464844 4.37890625 95.23242188 C-3.92492219 110.9910879 -3.92492219 110.9910879 -10.875 114.0625 C-15.20292026 115.28944438 -19.54919127 115.76445188 -24 115 C-27.09098636 113.22432699 -28.52950156 111.80656876 -30.3125 108.75 C-33.23527822 97.0588871 -27.87150357 86.82945305 -22 77 C-21.01 75.515 -21.01 75.515 -20 74 C-20.73089844 74.36351562 -20.73089844 74.36351562 -21.4765625 74.734375 C-32.07766296 79.74580431 -43.55809411 83.17235426 -55.3125 83.0625 C-56.56675781 83.05347656 -57.82101563 83.04445313 -59.11328125 83.03515625 C-60.06589844 83.02355469 -61.01851562 83.01195312 -62 83 C-60.03177114 84.96822886 -56.65191291 84.66248381 -54 85 C-54.90695075 87.54550843 -55.82511418 90.08601056 -56.75 92.625 C-57.00265625 93.33785156 -57.2553125 94.05070312 -57.515625 94.78515625 C-59.8921706 101.26124302 -62.83004625 107.43513783 -69 111 C-72.77657132 111.59279515 -76.35344863 111.95987299 -79.7421875 109.984375 C-81.75683036 106.80599433 -81.52821966 103.46046266 -81.5 99.8125 C-81.49685791 98.61778076 -81.49685791 98.61778076 -81.49365234 97.39892578 C-81.31002882 90.32171071 -79.66597067 84.27876028 -77.2890625 77.6484375 C-74.43200482 70.60544985 -74.43200482 70.60544985 -74.90625 63.33984375 C-75.4321875 62.54707031 -75.958125 61.75429687 -76.5 60.9375 C-79.21969658 56.46094195 -81.38300957 52.04047888 -83.3125 47.1875 C-83.80363281 45.96417969 -84.29476562 44.74085938 -84.80078125 43.48046875 C-87.09593552 36.81928811 -87.12709343 30.59115259 -87.0625 23.625 C-87.05798828 22.69816406 -87.05347656 21.77132812 -87.04882812 20.81640625 C-87.03711574 18.54420291 -87.02071372 16.27213612 -87 14 C-84.36 14.66 -81.72 15.32 -79 16 C-79.433125 15.08476562 -79.86625 14.16953125 -80.3125 13.2265625 C-81.1478125 11.44378906 -81.1478125 11.44378906 -82 9.625 C-82.556875 8.44164062 -83.11375 7.25828125 -83.6875 6.0390625 C-85 3 -85 3 -85 1 C-83.783125 1.268125 -82.56625 1.53625 -81.3125 1.8125 C-80.47203125 1.99296875 -79.6315625 2.1734375 -78.765625 2.359375 C-76.97124081 2.77502331 -75.18755649 3.2412711 -73.421875 3.765625 C-61.56786942 7.06920033 -49.2233644 6.75227534 -37 7 C-37 7.66 -37 8.32 -37 9 C-29.90970159 8.00944361 -24.24573162 6.53531978 -18 3 C-18.3562085 9.76796147 -22.26347226 16.26347226 -27 21 C-20.35881231 21.72186823 -15.47000696 19.78422632 -10 16 C-5.3299879 11.3299879 -2.23485659 6.17872117 0 0 Z " fill="#FBFBFA" transform="translate(293,137)"/>
<path d="M0 0 C1.39398416 1.11878802 2.75081392 2.28576851 4.0625 3.5 C4.66320312 4.02207031 5.26390625 4.54414062 5.8828125 5.08203125 C19.20061426 18.31025138 25.15860174 42.62044944 25.265625 60.671875 C25.27132507 61.43493958 25.27702515 62.19800415 25.28289795 62.98419189 C25.29229167 64.59100991 25.29885936 66.1978467 25.30273438 67.8046875 C25.31241821 70.22951861 25.34348569 72.65349287 25.375 75.078125 C25.43184867 83.66227395 25.06084366 91.32804375 22.0625 99.5 C22.57063232 99.05897949 23.07876465 98.61795898 23.60229492 98.16357422 C26.35900364 95.77095911 29.01846128 93.52935915 32.0625 91.5 C30.41158222 95.79238623 27.32495434 98.3793915 24.0625 101.5 C25.00609375 101.62955078 25.00609375 101.62955078 25.96875 101.76171875 C33.59479635 103.01358479 39.13664163 105.34315281 44.4375 111.0625 C45.241875 112.2690625 45.241875 112.2690625 46.0625 113.5 C46.68125 114.3971875 46.68125 114.3971875 47.3125 115.3125 C49.86222339 122.74919323 47.36024041 130.68466982 44.0625 137.5 C41.46383013 140.56168454 38.64203645 142.71023178 35.0625 144.5 C35.2790625 145.26441406 35.495625 146.02882812 35.71875 146.81640625 C40.20343113 164.06997115 38.87650273 180.72754297 30.03027344 196.31933594 C17.20488954 217.75399392 17.20488954 217.75399392 8.05078125 221.2734375 C2.96115609 221.85339479 -1.95352478 222.23320823 -6.8125 220.4375 C-10.65096461 216.93772345 -12.60351268 213.86490011 -13.32421875 208.76171875 C-13.68185548 199.25351463 -10.92962134 191.49597658 -5.9375 183.5 C-6.50500977 183.65654053 -7.07251953 183.81308105 -7.65722656 183.97436523 C-9.93648693 184.49976647 -12.0921534 184.72614059 -14.421875 184.91015625 C-23.75313322 185.66954864 -23.75313322 185.66954864 -31.58789062 190.15869141 C-34.16449287 194.02456052 -35.69929609 198.2079526 -37.19189453 202.58251953 C-39.40881746 208.28380071 -43.55852173 213.53088534 -48.9375 216.5 C-52.4114056 217.20655707 -55.46637755 217.2256702 -58.9375 216.5 C-61.51387471 214.61484777 -62.53417428 213.30665143 -63.9375 210.5 C-65.2359467 198.19668537 -61.80342744 185.72506596 -56.671875 174.61328125 C-55.76714427 172.00977419 -55.60138419 170.24354532 -55.9375 167.5 C-57.31080922 164.91385499 -57.31080922 164.91385499 -59.1875 162.375 C-62.80525622 156.96671129 -66.9375 150.23207911 -66.9375 143.5 C-67.66195312 143.54640625 -68.38640625 143.5928125 -69.1328125 143.640625 C-75.31254766 143.87133511 -79.14690241 143.8343502 -83.9375 139.5 C-87.86561868 135.39632294 -90.708773 131.92450622 -91.25 126.1875 C-90.79461763 120.81398806 -89.24721043 116.95130075 -85.625 112.9375 C-85.068125 112.133125 -84.51125 111.32875 -83.9375 110.5 C-84.66463485 107.66834767 -84.66463485 107.66834767 -85.9375 104.5 C-91.36384066 88.84709425 -93.22663579 76.04499219 -92.9375 59.5 C-96.5675 58.84 -100.1975 58.18 -103.9375 57.5 C-103.9375 56.84 -103.9375 56.18 -103.9375 55.5 C-102.79173404 54.45244255 -101.5935644 53.46190283 -100.375 52.5 C-94.0631315 47.11209109 -89.95540359 40.54600683 -86.125 33.25 C-80.21279708 22.09131137 -72.16325849 10.01894007 -61.9375 2.5 C-61.2775 2.83 -60.6175 3.16 -59.9375 3.5 C-60.84628906 4.32177734 -60.84628906 4.32177734 -61.7734375 5.16015625 C-69.22190031 12.20754799 -74.5275955 19.85265712 -79.9375 28.5 C-81.51308686 31.01227249 -83.08872059 33.52450654 -84.66650391 36.03540039 C-85.69666663 37.67943591 -86.72138592 39.32689915 -87.73974609 40.97827148 C-91.32645492 46.74005519 -95.12188798 51.68438798 -99.9375 56.5 C-96.6375 56.5 -93.3375 56.5 -89.9375 56.5 C-90.00710937 58.14484375 -90.07671875 59.7896875 -90.1484375 61.484375 C-90.75653681 82.21432466 -87.90864646 100.66429368 -74.9375 117.5 C-74.9375 114.86 -74.9375 112.22 -74.9375 109.5 C-70.95386642 110.82787786 -68.83119166 112.50985195 -65.9375 115.5 C-64.9475 115.83 -63.9575 116.16 -62.9375 116.5 C-64.56735888 108.64127538 -64.56735888 108.64127538 -69.32421875 102.47265625 C-71.04903313 101.48309121 -72.80685227 100.54802695 -74.59765625 99.68359375 C-76.87487925 98.53167627 -78.26042433 97.39702002 -79.9375 95.5 C-79.6075 94.84 -79.2775 94.18 -78.9375 93.5 C-78.48761719 93.88671875 -78.03773438 94.2734375 -77.57421875 94.671875 C-72.0525308 99.14233979 -66.73164987 101.52381699 -59.9375 103.5 C-58.1121875 104.06074219 -58.1121875 104.06074219 -56.25 104.6328125 C-46.46666389 107.36187305 -36.82178051 107.9441177 -26.6875 108.0625 C-25.42566895 108.08924805 -24.16383789 108.11599609 -22.86376953 108.14355469 C-15.59645012 108.29643277 -15.59645012 108.29643277 -9.26953125 105.23046875 C-0.620833 95.10410347 3.1551266 82.54397296 5.0625 69.5 C-2.87590199 66.59169144 -10.52307044 65.85161161 -18.9375 65.5 C-18.6075 64.84 -18.2775 64.18 -17.9375 63.5 C-15.21484375 63.0859375 -15.21484375 63.0859375 -11.875 62.875 C-10.21791016 62.76285156 -10.21791016 62.76285156 -8.52734375 62.6484375 C-7.67269531 62.59945312 -6.81804687 62.55046875 -5.9375 62.5 C-6.515 61.84 -7.0925 61.18 -7.6875 60.5 C-13.6137228 52.59836961 -14.65538573 45.8950174 -15.54296875 36.328125 C-15.83037567 33.53942423 -16.21611784 31.17211511 -16.9375 28.5 C-14.33174836 30.4137092 -13.94171101 31.47699284 -13.34765625 34.72265625 C-13.23292969 35.98980469 -13.11820312 37.25695312 -13 38.5625 C-11.9406129 48.10157001 -9.58000077 57.09728269 -1.9375 63.5 C0.03876862 64.54611774 2.0361408 65.55455386 4.0625 66.5 C3.09959395 54.13425919 1.61564747 42.4004314 -1.9375 30.5 C-2.246875 29.45972656 -2.55625 28.41945313 -2.875 27.34765625 C-4.92307233 21.12663655 -7.79006054 16.52432666 -11.9375 11.5 C-12.9275 10.015 -12.9275 10.015 -13.9375 8.5 C-6.62589202 11.80201651 -2.9636908 18.22789805 -0.171875 25.515625 C6.84210791 47.01155322 11.28647488 73.62062188 1.21875 94.74609375 C-1.67542372 100.12118137 -5.54310488 104.28496795 -9.9375 108.5 C-9.9375 108.83 -9.9375 109.16 -9.9375 109.5 C-8.35329871 108.87720331 -6.77017469 108.25166599 -5.1875 107.625 C-4.30578125 107.27695313 -3.4240625 106.92890625 -2.515625 106.5703125 C-0.2634752 105.6353291 1.89899459 104.62219206 4.0625 103.5 C3.81678474 111.24003055 1.6394989 116.9230011 -3.9375 122.5 C-2.720625 122.396875 -1.50375 122.29375 -0.25 122.1875 C0.43449219 122.12949219 1.11898437 122.07148438 1.82421875 122.01171875 C8.0283815 120.59331505 11.06598646 116.46859302 14.42578125 111.41796875 C17.27192714 106.34381366 18.73406799 101.13968589 20.0625 95.5 C20.3615625 94.24574219 20.660625 92.99148437 20.96875 91.69921875 C26.39537933 66.71722332 23.8337647 36.87789921 10.01806641 14.83349609 C6.16842418 9.01971655 2.3505538 3.82942406 -3.9375 0.5 C-7.54923733 -0.01826029 -7.54923733 -0.01826029 -11.3125 0.1875 C-13.27509766 0.23970703 -13.27509766 0.23970703 -15.27734375 0.29296875 C-19.21846286 0.51589224 -23.04322966 0.86420076 -26.9375 1.5 C-19.84473272 -4.32620169 -7.76086859 -4.93751812 0 0 Z M20.0625 103.5 C19.77117187 104.14066406 19.47984375 104.78132813 19.1796875 105.44140625 C15.12406906 113.99901623 11.37540911 120.24877773 2.3203125 123.85546875 C-0.91988041 124.78043732 -3.59009945 124.78488515 -6.9375 124.5 C-6.53917969 124.00371094 -6.14085937 123.50742188 -5.73046875 122.99609375 C-2.3508012 118.6625541 0.31816973 114.73299081 2.0625 109.5 C1.5675 108.015 1.5675 108.015 1.0625 106.5 C0.134375 107.11875 -0.79375 107.7375 -1.75 108.375 C-6.49584181 111.12876006 -11.56739339 111.7619745 -16.9375 112.5 C-16.9375 111.84 -16.9375 111.18 -16.9375 110.5 C-18.01680786 110.47812622 -18.01680786 110.47812622 -19.11791992 110.45581055 C-44.55742495 109.87953744 -44.55742495 109.87953744 -55.9375 106.5 C-57.705229 106.09052605 -59.47590342 105.69344098 -61.25 105.3125 C-62.466875 105.044375 -63.68375 104.77625 -64.9375 104.5 C-63.29791242 109.73272633 -61.54797965 114.65196636 -58.9375 119.5 C-61.5775 118.84 -64.2175 118.18 -66.9375 117.5 C-67.38987455 134.45566835 -65.74246651 146.84217994 -57.77734375 161.93359375 C-57.45910645 162.55403564 -57.14086914 163.17447754 -56.81298828 163.8137207 C-56.08950268 165.20722742 -55.32531295 166.57951858 -54.55078125 167.9453125 C-53.5928613 171.93562873 -54.91986459 175.11800167 -56.1875 178.9375 C-56.41824219 179.67548828 -56.64898437 180.41347656 -56.88671875 181.17382812 C-57.87375858 184.31060726 -58.89675226 187.39529902 -60.08984375 190.4609375 C-61.23695102 194.57360781 -61.26723054 198.43844895 -61.25 202.6875 C-61.26611328 203.49380859 -61.28222656 204.30011719 -61.29882812 205.13085938 C-61.29947266 205.90623047 -61.30011719 206.68160156 -61.30078125 207.48046875 C-61.30376221 208.18067139 -61.30674316 208.88087402 -61.30981445 209.60229492 C-60.82637649 212.06640202 -59.87520541 212.95266832 -57.9375 214.5 C-54.14656948 215.44773263 -50.49614212 215.2607658 -46.96875 213.5390625 C-39.24294809 207.67694087 -36.70316893 197.37925287 -33.9375 188.5 C-35.6390625 188.2834375 -35.6390625 188.2834375 -37.375 188.0625 C-40.9375 187.5 -40.9375 187.5 -41.9375 186.5 C-41.12410156 186.54640625 -40.31070313 186.5928125 -39.47265625 186.640625 C-26.28637703 187.05594088 -13.73874652 184.50414297 -1.9375 178.5 C-1.2775 178.17 -0.6175 177.84 0.0625 177.5 C-0.48019531 178.39460938 -1.02289063 179.28921875 -1.58203125 180.2109375 C-7.13182918 189.52002593 -12.05595723 198.31542768 -10.9375 209.5 C-9.40037708 213.57337573 -7.94652774 216.60098686 -3.9375 218.5 C2.04980621 219.35194871 7.87203706 218.68299074 13.0625 215.5 C18.79339675 209.51128337 22.6273182 202.25577008 26.375 194.9375 C26.89900391 193.94814453 27.42300781 192.95878906 27.96289062 191.93945312 C34.86500014 178.62129814 36.55745713 163.67886131 33.2578125 148.89453125 C32.06654788 145.9163697 30.68343438 143.26863045 29.0625 140.5 C28.31627775 139.1486408 27.57300824 137.79564864 26.83203125 136.44140625 C25.30042469 133.66421416 23.73986531 130.90736777 22.1484375 128.1640625 C20.32342555 125.00302909 18.65860358 121.78370354 17.0625 118.5 C18.3825 120.81 19.7025 123.12 21.0625 125.5 C21.7225 125.5 22.3825 125.5 23.0625 125.5 C23.805 124.675 24.5475 123.85 25.3125 123 C28.0625 120.5 28.0625 120.5 31.375 120.1875 C32.261875 120.290625 33.14875 120.39375 34.0625 120.5 C32.99 120.7475 31.9175 120.995 30.8125 121.25 C27.06600563 122.49883146 25.54176118 123.52488658 23.0625 126.5 C24.49558135 130.45906817 26.39391949 133.78718181 28.6875 137.3125 C29.31914062 138.28832031 29.95078125 139.26414063 30.6015625 140.26953125 C31.08367187 141.00558594 31.56578125 141.74164063 32.0625 142.5 C39.3314694 138.54215231 39.3314694 138.54215231 43.6953125 131.8203125 C44.7890701 124.90869534 45.65261972 117.47709639 42.2890625 111.1796875 C37.73308727 105.69653134 31.91100375 104.40013308 25 103.75 C23.3550518 103.65071643 21.70929139 103.5615623 20.0625 103.5 Z " fill="#732323" transform="translate(272.9375,33.5)"/>
<path d="M0 0 C11.91925189 8.34557849 17.47312468 23.52791272 21.33984375 36.92578125 C21.55012207 37.63186523 21.76040039 38.33794922 21.97705078 39.06542969 C27.63492632 58.64176866 26.42286633 78.36807526 21.33984375 97.92578125 C21.03949219 99.11171875 20.73914063 100.29765625 20.4296875 101.51953125 C18.11669768 109.44978206 14.30713992 115.58490026 7.96484375 120.92578125 C4.16701221 122.37257422 0.37592824 122.67077809 -3.66015625 122.92578125 C-2.93699219 121.89130859 -2.93699219 121.89130859 -2.19921875 120.8359375 C1.82703555 114.84585713 4.28464861 110.07765939 5.33984375 102.92578125 C4.37884766 103.55806641 4.37884766 103.55806641 3.3984375 104.203125 C-1.70736261 107.43705204 -5.58146003 109.66149011 -11.66015625 109.92578125 C-10.97953125 109.28640625 -10.29890625 108.64703125 -9.59765625 107.98828125 C-8.6086766 106.97695178 -7.63068299 105.95483222 -6.66015625 104.92578125 C-6.10585938 104.34054688 -5.5515625 103.7553125 -4.98046875 103.15234375 C6.5923607 89.72786159 7.70987418 74.40669502 6.65136719 57.35107422 C5.16332305 40.98958581 2.5302096 20.26797684 -10.66015625 8.92578125 C-13.89376078 6.72082717 -17.23198966 4.8076769 -20.66015625 2.92578125 C-21.65015625 2.26578125 -22.64015625 1.60578125 -23.66015625 0.92578125 C-16.25384204 -1.88429496 -7.51837614 -3.03605497 0 0 Z " fill="#FBA3C7" transform="translate(271.66015625,34.07421875)"/>
<path d="M0 0 C0.66 0.33 1.32 0.66 2 1 C3.07507813 1.46792969 3.07507813 1.46792969 4.171875 1.9453125 C12.40072918 5.71063668 16.86212135 9.73312324 20.375 18.125 C22.9646452 25.93709637 23.49305429 34.4270583 20 42 C21.65 42.33 23.3 42.66 25 43 C25 45.64 25 48.28 25 51 C22.525 51.495 22.525 51.495 20 52 C21.11666174 55.34998521 21.74694925 55.79340222 24.5625 57.6875 C25.20316406 58.12449219 25.84382813 58.56148437 26.50390625 59.01171875 C26.99761719 59.33785156 27.49132812 59.66398437 28 60 C26.94124926 63.40312738 25.99097846 66.01353231 24 69 C21.75 68.9375 21.75 68.9375 19 68 C17.32150176 65.7691525 16.24000737 63.52594094 15 61 C15.55145271 66.23880078 16.42922093 70.97350697 18 76 C14.7 75.67 11.4 75.34 8 75 C7.34 70.05 6.68 65.1 6 60 C4.576875 60.2475 3.15375 60.495 1.6875 60.75 C-2.70146683 61.2261615 -2.70146683 61.2261615 -5.0625 59.4375 C-6.26303193 56.31611699 -6.56380829 54.31237373 -6 51 C-1.46286468 47.52317348 2.54240882 47.57523238 8.0625 47.40625 C11.418459 46.94212801 13.2892705 46.00584521 16 44 C17.96457553 40.74828878 19 38.81307353 19 35 C18.195625 35.825 17.39125 36.65 16.5625 37.5 C13.24180961 40.22047171 10.63516692 40.7964373 6.3828125 40.55859375 C1.94978329 39.51937543 -1.67777744 37.06234469 -5 34 C-6.25390625 31.796875 -6.25390625 31.796875 -7 30 C-7.66 30 -8.32 30 -9 30 C-11.27601921 23.17194236 -11.03736057 14.36363752 -8.1328125 7.72265625 C-6.01584972 4.50341286 -3.09587485 2.23920811 0 0 Z " fill="#E189A4" transform="translate(305,33)"/>
<path d="M0 0 C5.86592183 4.72563048 9.46774312 10.44229187 11.83984375 17.55859375 C12.77252754 32.84025894 12.77252754 32.84025894 8.83984375 39.55859375 C7.84984375 39.06359375 7.84984375 39.06359375 6.83984375 38.55859375 C7.16210938 38.02363281 7.484375 37.48867187 7.81640625 36.9375 C10.6304341 30.39649633 9.37166285 22.18021498 7.15234375 15.62109375 C4.51328958 9.23718454 1.20231907 4.66224025 -5.16015625 1.55859375 C-8.38513921 0.33310022 -10.70538183 -0.44140625 -14.16015625 -0.44140625 C-19.52259412 5.05182279 -21.40637245 10.09602835 -21.3359375 17.7734375 C-21.31917969 18.48628906 -21.30242187 19.19914062 -21.28515625 19.93359375 C-21.27162109 21.03767578 -21.27162109 21.03767578 -21.2578125 22.1640625 C-21.23445769 23.96238255 -21.19859461 25.76053286 -21.16015625 27.55859375 C-20.50015625 27.55859375 -19.84015625 27.55859375 -19.16015625 27.55859375 C-18.60328125 28.30109375 -18.04640625 29.04359375 -17.47265625 29.80859375 C-14.21271526 33.68528033 -10.91010574 36.03293969 -5.953125 36.98046875 C0.17461148 37.35627542 3.23354543 35.47884764 7.83984375 31.55859375 C7.36387445 36.5562714 5.96558033 39.62909633 2.83984375 43.55859375 C-1.25397008 46.20913397 -5.54498236 45.97783506 -10.28515625 46.21484375 C-13.06197509 46.5468547 -14.78083953 47.14015494 -17.16015625 48.55859375 C-17.39443938 53.34832585 -17.39443938 53.34832585 -15.16015625 57.55859375 C-10.70515625 57.06359375 -10.70515625 57.06359375 -6.16015625 56.55859375 C-5.73603761 70.95506527 -5.98772811 82.73106115 -16.109375 93.6640625 C-17.75789419 95.3393325 -19.43082634 96.96740558 -21.16015625 98.55859375 C-21.82015625 98.22859375 -22.48015625 97.89859375 -23.16015625 97.55859375 C-22.94794434 96.97118408 -22.73573242 96.38377441 -22.51708984 95.77856445 C-19.87575208 87.51800108 -19.69985575 79.69704566 -19.76904297 71.11694336 C-19.78505963 68.76030969 -19.76915719 66.40540842 -19.75 64.04882812 C-19.73644871 54.47828922 -20.66349537 45.84386762 -23.16015625 36.55859375 C-23.45817139 35.42949585 -23.45817139 35.42949585 -23.76220703 34.27758789 C-26.08697262 26.03130921 -29.35816182 18.83989806 -33.8046875 11.55859375 C-35.42675948 7.96853242 -35.54684451 5.45808858 -35.16015625 1.55859375 C-27.12715146 -7.72956804 -9.44397722 -6.30167739 0 0 Z " fill="#FAA3C6" transform="translate(317.16015625,35.44140625)"/>
<path d="M0 0 C1.32 0.33 2.64 0.66 4 1 C3.0409375 2.175625 3.0409375 2.175625 2.0625 3.375 C-0.80623737 7.02612029 -1.13738759 8.73528457 -1.125 13.3125 C-1.12757813 14.25738281 -1.13015625 15.20226562 -1.1328125 16.17578125 C-1.07714501 18.99339273 -1.07714501 18.99339273 -0.4296875 21.66796875 C0 24 0 24 -1 27 C-1.11820625 28.62189967 -1.1751432 30.24884547 -1.1875 31.875 C-1.20167969 32.71804687 -1.21585938 33.56109375 -1.23046875 34.4296875 C-0.97554039 37.27278688 -0.10254001 39.383072 1 42 C-13.609426 42.48363264 -26.89324238 41.98979003 -41 38 C-41 35 -41 35 -39.51171875 32.76953125 C-37.57252105 29.21684088 -37.69981095 26.7067428 -37.8125 22.6875 C-37.83957031 21.43324219 -37.86664063 20.17898437 -37.89453125 18.88671875 C-37.92933594 17.93410156 -37.96414062 16.98148438 -38 16 C-37.38511719 15.84144531 -36.77023438 15.68289062 -36.13671875 15.51953125 C-30.92827147 14.08397119 -30.92827147 14.08397119 -27 10.5625 C-25.86137019 7.80459798 -25.86137019 7.80459798 -25 4 C-19.06 5.485 -19.06 5.485 -13 7 C-12.360625 6.01 -11.72125 5.02 -11.0625 4 C-10.381875 3.01 -9.70125 2.02 -9 1 C-8.67 1 -8.34 1 -8 1 C-8 3.31 -8 5.62 -8 8 C-7.05125 7.236875 -6.1025 6.47375 -5.125 5.6875 C-4.59132812 5.25824219 -4.05765625 4.82898438 -3.5078125 4.38671875 C-1.74707893 2.87729455 -1.74707893 2.87729455 0 0 Z " fill="#F5F1F0" transform="translate(254,100)"/>
<path d="M0 0 C1.19943237 0.01135986 1.19943237 0.01135986 2.4230957 0.02294922 C11.42061384 0.27199659 19.27726457 2.41727696 25.9453125 8.734375 C28.42046006 11.68291144 29.95406015 14.88158016 31.375 18.4375 C31.7875 19.46875 32.2 20.5 32.625 21.5625 C33.375 24.4375 33.375 24.4375 33.375 30.4375 C37.335 30.4375 41.295 30.4375 45.375 30.4375 C45.35179687 31.64148438 45.32859375 32.84546875 45.3046875 34.0859375 C45.28593137 35.66145215 45.26773101 37.23697348 45.25 38.8125 C45.22486328 40.00359375 45.22486328 40.00359375 45.19921875 41.21875 C45.18164527 43.29242015 45.27164832 45.36633241 45.375 47.4375 C46.035 48.0975 46.695 48.7575 47.375 49.4375 C47.14668455 53.31886258 46.45693475 56.2531468 44.875 59.8125 C43.56819784 62.97060523 43.21829585 64.4446383 43.0625 67.6875 C42.53037744 73.76597697 39.40489296 78.26656919 36.375 83.4375 C34.93529436 86.07117429 33.52968859 88.72252097 32.125 91.375 C31.6134436 92.3333374 31.6134436 92.3333374 31.09155273 93.31103516 C29.47908522 96.33396084 27.88564303 99.36226241 26.375 102.4375 C20.9558143 97.93735749 18.52444129 88.91435377 17.5625 82.125 C17.500625 81.238125 17.43875 80.35125 17.375 79.4375 C16.385 79.4375 15.395 79.4375 14.375 79.4375 C14.27703125 80.07816406 14.1790625 80.71882813 14.078125 81.37890625 C13.06796191 87.22217725 11.61525175 91.46911399 8.375 96.4375 C8.045 95.4475 7.715 94.4575 7.375 93.4375 C7.98859375 92.2928125 8.6021875 91.148125 9.234375 89.96875 C11.99009599 84.78932259 12.26108788 79.71460486 12.625 73.9375 C12.70234375 72.92429687 12.7796875 71.91109375 12.859375 70.8671875 C13.04623352 68.39131209 13.21773384 65.91540092 13.375 63.4375 C13.705 63.4375 14.035 63.4375 14.375 63.4375 C14.87 70.8625 14.87 70.8625 15.375 78.4375 C18.675 78.7675 21.975 79.0975 25.375 79.4375 C24.715 77.931875 24.055 76.42625 23.375 74.875 C21.57624437 70.42244645 20.96139486 67.1939591 21.375 62.4375 C23.18927944 64.66411567 24.35317493 66.37046585 25.25 69.125 C25.62125 69.888125 25.9925 70.65125 26.375 71.4375 C28.92275306 72.33136164 28.92275306 72.33136164 31.375 72.4375 C31.66375 71.695 31.9525 70.9525 32.25 70.1875 C33.19802644 67.87010203 34.22345911 65.65832885 35.375 63.4375 C34.7975 63.169375 34.22 62.90125 33.625 62.625 C31.30136635 61.3986378 29.33675354 60.18906566 27.375 58.4375 C27.375 57.4475 27.375 56.4575 27.375 55.4375 C29.355 54.9425 29.355 54.9425 31.375 54.4375 C31.705 51.7975 32.035 49.1575 32.375 46.4375 C30.725 46.4375 29.075 46.4375 27.375 46.4375 C27.87 45.426875 28.365 44.41625 28.875 43.375 C31.72430311 35.71323757 31.86333502 26.0319532 28.75 18.4375 C24.85238181 11.13807371 20.02556376 6.20471423 12.25 3.25 C4.14762539 1.551115 -5.36613321 1.2360143 -12.671875 5.68359375 C-14.36424513 6.87840706 -16.0007387 8.15162647 -17.625 9.4375 C-17.625 8.1175 -17.625 6.7975 -17.625 5.4375 C-19.0416747 3.6863427 -19.0416747 3.6863427 -20.625 2.4375 C-19.0471875 2.7778125 -19.0471875 2.7778125 -17.4375 3.125 C-13.71906726 3.82485415 -13.71906726 3.82485415 -11.42578125 1.984375 C-7.57285001 -0.14360376 -4.33337974 -0.05689339 0 0 Z " fill="#78302F" transform="translate(297.625,29.5625)"/>
<path d="M0 0 C0 0.66 0 1.32 0 2 C-0.54527344 2.12375 -1.09054688 2.2475 -1.65234375 2.375 C-10.69669941 4.84866992 -16.45804141 9.9603157 -21.22241211 18.00756836 C-27.94778495 30.22956333 -32.23815375 43.9675908 -31 58 C-30.030625 57.236875 -29.06125 56.47375 -28.0625 55.6875 C-27.51722656 55.25824219 -26.97195312 54.82898438 -26.41015625 54.38671875 C-24.72844923 52.94316909 -24.72844923 52.94316909 -24 50 C-24.33 49.34 -24.66 48.68 -25 48 C-24.01 48 -23.02 48 -22 48 C-21.6596875 46.77216797 -21.6596875 46.77216797 -21.3125 45.51953125 C-19.70035155 41.19647842 -17.47037508 37.56598887 -15 33.6875 C-14.32324219 32.59598633 -14.32324219 32.59598633 -13.6328125 31.48242188 C-10.26107568 26.13053784 -10.26107568 26.13053784 -8 25 C-9.86091605 30.06169166 -12.57088764 34.45672862 -15.34375 39.0625 C-16.81311833 41.66854949 -17.96952016 44.19709483 -19 47 C-16.69 47.99 -14.38 48.98 -12 50 C-12.33 49.01 -12.66 48.02 -13 47 C-13.11766176 45.33631742 -13.17509083 43.66779197 -13.1875 42 C-13.20167969 41.13375 -13.21585938 40.2675 -13.23046875 39.375 C-13 37 -13 37 -11 34 C-10.505 42.91 -10.505 42.91 -10 52 C-8.68 52.66 -7.36 53.32 -6 54 C-4 56 -4 56 -3.1875 58.5 C-2.20271537 61.23553696 -2.20271537 61.23553696 0.625 62.3125 C1.40875 62.539375 2.1925 62.76625 3 63 C2.525625 61.948125 2.05125 60.89625 1.5625 59.8125 C-0.86082999 54.09709907 -1.10426084 49.15138954 -1 43 C-0.34 43 0.32 43 1 43 C1.14695312 44.39412109 1.14695312 44.39412109 1.296875 45.81640625 C2.14110594 52.79586719 2.88063127 58.23288378 7 64 C11.61685957 60.1791507 13.56494294 55.30170963 14.33276367 49.47460938 C14.51369195 46.81474159 14.61971095 44.16507801 14.6875 41.5 C14.72166016 40.5821875 14.75582031 39.664375 14.79101562 38.71875 C14.87266264 36.4792891 14.94207538 34.2401785 15 32 C15.99 32.495 15.99 32.495 17 33 C17.270766 44.17661864 16.53472832 54.92803142 15 66 C15.99 66.495 15.99 66.495 17 67 C16.01 67.33 15.02 67.66 14 68 C13.67 66.02 13.34 64.04 13 62 C11.02 64.97 11.02 64.97 9 68 C7.5608866 67.71640113 6.12374482 67.42278601 4.6875 67.125 C3.88699219 66.96257812 3.08648437 66.80015625 2.26171875 66.6328125 C-0 66 -0 66 -3 64 C-3.0928125 65.3303125 -3.0928125 65.3303125 -3.1875 66.6875 C-4.18995864 70.77444675 -5.84024514 72.30264829 -9 75 C-11.95793723 76.47896861 -13.70220224 76.4355582 -17 76 C-20.22254402 73.86259835 -23.25333994 71.49332012 -25 68 C-25.2275015 66.12943209 -25.40962811 64.25314042 -25.5625 62.375 C-25.68818359 60.87066406 -25.68818359 60.87066406 -25.81640625 59.3359375 C-25.87699219 58.56507812 -25.93757813 57.79421875 -26 57 C-27.58775549 58.39080108 -29.17000939 59.78788404 -30.75 61.1875 C-32.07257813 62.35345703 -32.07257813 62.35345703 -33.421875 63.54296875 C-38.9725284 68.69244577 -38.9725284 68.69244577 -41.09765625 75.6015625 C-41.08605469 76.59929687 -41.07445312 77.59703125 -41.0625 78.625 C-41.05347656 79.62789063 -41.04445312 80.63078125 -41.03515625 81.6640625 C-41.02355469 82.43492188 -41.01195312 83.20578125 -41 84 C-43.73324469 81.26675531 -43.75890927 79.0692128 -44.08984375 75.30859375 C-43.94552726 71.60028751 -42.3888143 69.75632419 -40 67 C-39.20529297 66.41992188 -39.20529297 66.41992188 -38.39453125 65.828125 C-36.41741086 64.30654066 -35.24603355 63.18364295 -34 61 C-33.74098584 57.9246629 -33.77089887 54.9521675 -33.88989258 51.87109375 C-34.38751743 37.80763415 -27.90887523 21.54073799 -18.75 10.828125 C-13.5406331 5.38619708 -7.99219872 0 0 0 Z " fill="#873236" transform="translate(232,40)"/>
<path d="M0 0 C1.39398416 1.11878802 2.75081392 2.28576851 4.0625 3.5 C4.66320312 4.02207031 5.26390625 4.54414062 5.8828125 5.08203125 C19.20061426 18.31025138 25.15860174 42.62044944 25.265625 60.671875 C25.27132507 61.43493958 25.27702515 62.19800415 25.28289795 62.98419189 C25.29229167 64.59100991 25.29885936 66.1978467 25.30273438 67.8046875 C25.31241821 70.22951861 25.34348569 72.65349287 25.375 75.078125 C25.43184867 83.66227395 25.06084366 91.32804375 22.0625 99.5 C22.57063232 99.05897949 23.07876465 98.61795898 23.60229492 98.16357422 C26.35900364 95.77095911 29.01846128 93.52935915 32.0625 91.5 C30.41158222 95.79238623 27.32495434 98.3793915 24.0625 101.5 C25.00609375 101.62955078 25.00609375 101.62955078 25.96875 101.76171875 C33.59479635 103.01358479 39.13664163 105.34315281 44.4375 111.0625 C44.97375 111.866875 45.51 112.67125 46.0625 113.5 C46.475 114.098125 46.8875 114.69625 47.3125 115.3125 C49.86222339 122.74919323 47.36024041 130.68466982 44.0625 137.5 C41.46383013 140.56168454 38.64203645 142.71023178 35.0625 144.5 C35.2790625 145.26441406 35.495625 146.02882812 35.71875 146.81640625 C40.20343113 164.06997115 38.87650273 180.72754297 30.03027344 196.31933594 C17.20904366 217.74705127 17.20904366 217.74705127 8.0546875 221.2734375 C5.71267809 221.53978367 3.42043886 221.70686697 1.0625 221.75 C-0.2059375 221.78867187 -0.2059375 221.78867187 -1.5 221.828125 C-4.44414796 221.43179739 -5.8038162 220.53490214 -7.9375 218.5 C-7.9375 217.84 -7.9375 217.18 -7.9375 216.5 C-7.36515625 216.65984375 -6.7928125 216.8196875 -6.203125 216.984375 C-0.53645303 218.27403138 5.74906929 218.1827449 11.109375 215.80859375 C21.46324627 208.8715 29.7764528 189.69893905 32.68432617 177.99780273 C34.60231423 165.32967114 34.61902275 151.71391477 28.0625 140.5 C27.31606167 139.13702742 26.57281089 137.77230635 25.83203125 136.40625 C23.09356225 131.40934227 20.3148121 126.442416 17.2265625 121.65234375 C16.84242188 120.94207031 16.45828125 120.23179687 16.0625 119.5 C16.3925 118.84 16.7225 118.18 17.0625 117.5 C21.0625 123.25 21.0625 123.25 21.0625 125.5 C21.7225 125.5 22.3825 125.5 23.0625 125.5 C23.330625 124.88125 23.59875 124.2625 23.875 123.625 C25.0625 121.5 25.0625 121.5 28.0625 119.5 C31.125 119.25 31.125 119.25 34.0625 119.5 C35.0525 120.49 35.0525 120.49 36.0625 121.5 C35.14017578 121.66435547 35.14017578 121.66435547 34.19921875 121.83203125 C33.39097656 121.99058594 32.58273437 122.14914063 31.75 122.3125 C30.94949219 122.46332031 30.14898437 122.61414063 29.32421875 122.76953125 C26.82804413 123.57572236 25.73827894 124.52052002 24.0625 126.5 C25.43537342 130.19876091 27.12605453 133.4514476 29.1875 136.8125 C29.72632813 137.69550781 30.26515625 138.57851562 30.8203125 139.48828125 C31.23023438 140.15214844 31.64015625 140.81601563 32.0625 141.5 C33.53349596 140.64645914 34.98893268 139.76607454 36.4375 138.875 C37.24960937 138.38773438 38.06171875 137.90046875 38.8984375 137.3984375 C42.6168451 134.13644094 42.97317347 130.59628016 43.36328125 125.80859375 C43.36714844 124.53113281 43.37101562 123.25367188 43.375 121.9375 C43.40013672 120.01744141 43.40013672 120.01744141 43.42578125 118.05859375 C43.03978851 114.27752507 42.41383142 112.45110671 40.0625 109.5 C34.22334052 105.47341294 26.93958511 104.47693172 20.0625 103.5 C19.7840625 104.9540625 19.7840625 104.9540625 19.5 106.4375 C17.27153408 114.12025314 11.64027568 119.71920121 4.859375 123.625 C1.75553558 125.13643485 -0.72340167 125.61826391 -4.125 125.5625 C-5.383125 125.541875 -6.64125 125.52125 -7.9375 125.5 C-6.29927051 123.53829845 -5.40089554 122.59024932 -2.8515625 122.09375 C-2.09617187 122.0628125 -1.34078125 122.031875 -0.5625 122 C4.39842981 121.79542557 7.55447179 120.12403037 10.94140625 116.4765625 C15.70403241 109.82435612 18.19240702 103.43923731 20.0625 95.5 C20.3615625 94.24574219 20.660625 92.99148437 20.96875 91.69921875 C26.39537933 66.71722332 23.8337647 36.87789921 10.01806641 14.83349609 C6.16842418 9.01971655 2.3505538 3.82942406 -3.9375 0.5 C-7.54923733 -0.01826029 -7.54923733 -0.01826029 -11.3125 0.1875 C-13.27509766 0.23970703 -13.27509766 0.23970703 -15.27734375 0.29296875 C-19.21846286 0.51589224 -23.04322966 0.86420076 -26.9375 1.5 C-19.84473272 -4.32620169 -7.76086859 -4.93751812 0 0 Z " fill="#721C1A" transform="translate(272.9375,33.5)"/>
<path d="M0 0 C4.699161 1.84609896 6.93912536 4.84555253 9.140625 9.31640625 C12.34775517 17.0744993 13.85139475 25.78500257 10.9765625 33.8828125 C10.65429688 34.58148438 10.33203125 35.28015625 10 36 C11.65 36.33 13.3 36.66 15 37 C15 39.64 15 42.28 15 45 C12.525 45.495 12.525 45.495 10 46 C11.11666174 49.34998521 11.74694925 49.79340222 14.5625 51.6875 C15.20316406 52.12449219 15.84382813 52.56148437 16.50390625 53.01171875 C16.99761719 53.33785156 17.49132812 53.66398437 18 54 C16.94124926 57.40312738 15.99097846 60.01353231 14 63 C11.75 62.9375 11.75 62.9375 9 62 C7.32150176 59.7691525 6.24000737 57.52594094 5 55 C5.55145271 60.23880078 6.42922093 64.97350697 8 70 C4.7 69.67 1.4 69.34 -2 69 C-2.66 64.05 -3.32 59.1 -4 54 C-5.423125 54.2475 -6.84625 54.495 -8.3125 54.75 C-12.70146683 55.2261615 -12.70146683 55.2261615 -15.0625 53.4375 C-16.26303193 50.31611699 -16.56380829 48.31237373 -16 45 C-11.46286468 41.52317348 -7.45759118 41.57523238 -1.9375 41.40625 C1.4799558 40.93362313 3.29597843 40.13622358 6 38 C7.43746656 35.54570043 7.43746656 35.54570043 8.3125 32.8125 C8.63863281 31.91144531 8.96476562 31.01039062 9.30078125 30.08203125 C9.53152344 29.39496094 9.76226562 28.70789063 10 28 C9.34 28 8.68 28 8 28 C8.33 27.01 8.66 26.02 9 25 C10.06808402 17.53867022 7.72506964 12.37252985 4 6 C-1.26159459 5.35834212 -3.68592849 6.79422999 -7.6796875 9.90625 C-8.11539062 10.2671875 -8.55109375 10.628125 -9 11 C-7.60364382 7.62547256 -6.1393647 5.88361882 -3 4 C-0.25 3.3125 -0.25 3.3125 2 3 C1.34 2.01 0.68 1.02 0 0 Z " fill="#957D9E" transform="translate(315,39)"/>
<path d="M0 0 C0.01417969 0.79664062 0.02835938 1.59328125 0.04296875 2.4140625 C0.35953821 9.44703803 0.80181697 13.1644809 6 18 C6.70640625 18.58910156 7.4128125 19.17820312 8.140625 19.78515625 C10.54130103 22.64478505 10.50732094 24.24629962 10.4375 27.9375 C10.43621094 28.95714844 10.43492187 29.97679688 10.43359375 31.02734375 C9.8065831 35.32603838 8.03610115 37.96389885 5 41 C-1.61739524 41 -7.98030479 36.79321807 -12.71875 32.41015625 C-15.00942859 29.79318914 -16.68300499 27.48694511 -17 24 C-17.103125 22.88625 -17.20625 21.7725 -17.3125 20.625 C-16.61514618 12.53569573 -9.68848664 7.23801717 -4 2 C-1 0 -1 0 0 0 Z " fill="#FBCFCA" transform="translate(207,96)"/>
<path d="M0 0 C3.27123222 2.10755277 6.2431288 4.48625759 8 8 C8.64215033 14.06338097 7.97941372 18.67961837 5 24 C2.4642991 26.9113603 1.02362385 26.99695176 -2.875 27.5 C-7.65776952 27.33014463 -9.75730635 25.40087383 -13 22 C-14.54199073 17.37402782 -14.51070589 12.83100166 -14 8 C-10.70386761 1.52139496 -7.34264768 -0.97901969 0 0 Z " fill="#9C6E98" transform="translate(266,100)"/>
<path d="M0 0 C0.66 0 1.32 0 2 0 C3.47265625 1.8984375 3.47265625 1.8984375 5.0625 4.375 C5.58972656 5.18710938 6.11695313 5.99921875 6.66015625 6.8359375 C8 9 8 9 9 11 C7.35 11.66 5.7 12.32 4 13 C5.27875 12.979375 6.5575 12.95875 7.875 12.9375 C11.75 12.875 11.75 12.875 14 14 C14.31241455 16.71446979 14.51336592 19.33909361 14.625 22.0625 C14.66367188 22.82111328 14.70234375 23.57972656 14.7421875 24.36132812 C14.83673562 26.24047195 14.91946756 28.12020336 15 30 C10.37069408 30.37034447 6.97317976 30.48658988 2.75 28.375 C-2.09848497 24.18767207 -5.50039698 20.49722114 -6.4375 13.9375 C-5.82953113 8.46578018 -3.36061604 4.32701081 0 0 Z " fill="#F9F6F5" transform="translate(190,145)"/>
<path d="M0 0 C4.3086718 0.48203729 5.98842969 1.58337442 8.6875 4.9375 C9.26886719 5.64777344 9.85023438 6.35804687 10.44921875 7.08984375 C10.96097656 7.72019531 11.47273438 8.35054687 12 9 C12.66 9.66 13.32 10.32 14 11 C13.64520248 14.86385154 12.23532928 17.79112143 10.3828125 21.16015625 C9.85816406 22.11857422 9.33351563 23.07699219 8.79296875 24.06445312 C8.24253906 25.05380859 7.69210937 26.04316406 7.125 27.0625 C6.58230469 28.05572266 6.03960937 29.04894531 5.48046875 30.07226562 C3.18190586 34.24508456 0.94239167 38.24172874 -2 42 C-5.09761199 35.77470211 -6.91081033 29.86476118 -8 23 C-6.02 23 -4.04 23 -2 23 C-2.28875 22.35933594 -2.5775 21.71867187 -2.875 21.05859375 C-5.14884287 15.76085568 -6.50141512 11.76627391 -6 6 C-4.18572056 8.22661567 -3.02182507 9.93296585 -2.125 12.6875 C-1.568125 13.8321875 -1.568125 13.8321875 -1 15 C1.54775306 15.89386164 1.54775306 15.89386164 4 16 C4.433125 14.88625 4.433125 14.88625 4.875 13.75 C5.82302644 11.43260203 6.84845911 9.22082885 8 7 C7.4225 6.731875 6.845 6.46375 6.25 6.1875 C3.94449957 4.97070811 1.97943808 3.69666121 0 2 C0 1.34 0 0.68 0 0 Z " fill="#F9F5F4" transform="translate(325,86)"/>
<path d="M0 0 C1.39398416 1.11878802 2.75081392 2.28576851 4.0625 3.5 C4.66320312 4.02207031 5.26390625 4.54414062 5.8828125 5.08203125 C19.20061426 18.31025138 25.15860174 42.62044944 25.265625 60.671875 C25.27132507 61.43493958 25.27702515 62.19800415 25.28289795 62.98419189 C25.29229167 64.59100991 25.29885936 66.1978467 25.30273438 67.8046875 C25.31241821 70.22951861 25.34348569 72.65349287 25.375 75.078125 C25.43184867 83.66227395 25.06084366 91.32804375 22.0625 99.5 C22.57063232 99.05897949 23.07876465 98.61795898 23.60229492 98.16357422 C26.35900364 95.77095911 29.01846128 93.52935915 32.0625 91.5 C30.41158222 95.79238623 27.32495434 98.3793915 24.0625 101.5 C25.00609375 101.62955078 25.00609375 101.62955078 25.96875 101.76171875 C33.27597228 102.96124771 39.12663566 105.10540685 44.0625 110.8125 C44.3925 111.369375 44.7225 111.92625 45.0625 112.5 C44.4025 113.16 43.7425 113.82 43.0625 114.5 C42.5984375 113.38625 42.5984375 113.38625 42.125 112.25 C37.44816561 106.01422081 29.47479345 104.96203846 22.15234375 103.796875 C21.46269531 103.69890625 20.77304687 103.6009375 20.0625 103.5 C19.7840625 104.9540625 19.7840625 104.9540625 19.5 106.4375 C17.27153408 114.12025314 11.64027568 119.71920121 4.859375 123.625 C1.75553558 125.13643485 -0.72340167 125.61826391 -4.125 125.5625 C-5.383125 125.541875 -6.64125 125.52125 -7.9375 125.5 C-6.29927051 123.53829845 -5.40089554 122.59024932 -2.8515625 122.09375 C-2.09617187 122.0628125 -1.34078125 122.031875 -0.5625 122 C4.39842981 121.79542557 7.55447179 120.12403037 10.94140625 116.4765625 C15.70403241 109.82435612 18.19240702 103.43923731 20.0625 95.5 C20.3615625 94.24574219 20.660625 92.99148437 20.96875 91.69921875 C26.39537933 66.71722332 23.8337647 36.87789921 10.01806641 14.83349609 C6.16842418 9.01971655 2.3505538 3.82942406 -3.9375 0.5 C-7.54923733 -0.01826029 -7.54923733 -0.01826029 -11.3125 0.1875 C-13.27509766 0.23970703 -13.27509766 0.23970703 -15.27734375 0.29296875 C-19.21846286 0.51589224 -23.04322966 0.86420076 -26.9375 1.5 C-19.84473272 -4.32620169 -7.76086859 -4.93751812 0 0 Z " fill="#742223" transform="translate(272.9375,33.5)"/>
<path d="M0 0 C7.31160798 3.30201651 10.9738092 9.72789805 13.765625 17.015625 C20.77960791 38.51155322 25.22397488 65.12062188 15.15625 86.24609375 C12.26207628 91.62118137 8.39439512 95.78496795 4 100 C4 100.33 4 100.66 4 101 C5.58420129 100.37720331 7.16732531 99.75166599 8.75 99.125 C9.63171875 98.77695313 10.5134375 98.42890625 11.421875 98.0703125 C13.6740248 97.1353291 15.83649459 96.12219206 18 95 C17.7614615 102.5139627 15.86268236 107.22153395 11 113 C10.01 113.495 10.01 113.495 9 114 C9.42925781 113.15308594 9.42925781 113.15308594 9.8671875 112.2890625 C10.99876397 110.00249764 12.07517063 107.70017764 13.125 105.375 C13.47820312 104.59898437 13.83140625 103.82296875 14.1953125 103.0234375 C15.12317807 101.05318968 15.12317807 101.05318968 15 99 C13.576875 99.99 13.576875 99.99 12.125 101 C7.64377361 103.56461225 3.05104211 103.93913848 -2 103 C-4.30078125 101.47265625 -4.30078125 101.47265625 -6 100 C-5.43152344 99.9484375 -4.86304688 99.896875 -4.27734375 99.84375 C1.75739277 98.95717769 4.77514201 97.06165464 8.5078125 92.25390625 C14.55851147 83.1144997 17.38746444 71.73394881 19 61 C11.06159801 58.09169144 3.41442956 57.35161161 -5 57 C-4.67 56.34 -4.34 55.68 -4 55 C-1.27734375 54.5859375 -1.27734375 54.5859375 2.0625 54.375 C3.16722656 54.30023438 4.27195312 54.22546875 5.41015625 54.1484375 C6.26480469 54.09945312 7.11945313 54.05046875 8 54 C7.4225 53.34 6.845 52.68 6.25 52 C0.3237772 44.09836961 -0.71788573 37.3950174 -1.60546875 27.828125 C-1.89287567 25.03942423 -2.27861784 22.67211511 -3 20 C-0.39424836 21.9137092 -0.00421101 22.97699284 0.58984375 26.22265625 C0.70457031 27.48980469 0.81929688 28.75695312 0.9375 30.0625 C1.9968871 39.60157001 4.35749923 48.59728269 12 55 C13.97626862 56.04611774 15.9736408 57.05455386 18 58 C17.03709395 45.63425919 15.55314747 33.9004314 12 22 C11.690625 20.95972656 11.38125 19.91945313 11.0625 18.84765625 C9.01442767 12.62663655 6.14743946 8.02432666 2 3 C1.34 2.01 0.68 1.02 0 0 Z " fill="#802729" transform="translate(259,42)"/>
<path d="M0 0 C5.53846154 3.07692308 5.53846154 3.07692308 7 6 C7.43008598 10.6730496 7.56413789 14.74351106 5.625 19.0625 C3.34251749 21.78392146 2.3285444 21.96209103 -1.25 22.375 C-6.19272958 21.88072704 -7.53828301 20.46171699 -11 17 C-12.38620934 14.22758132 -12.01039957 12.1430122 -11.8125 9.0625 C-11.75707031 8.00160156 -11.70164063 6.94070312 -11.64453125 5.84765625 C-11 3 -11 3 -9.16015625 1.1484375 C-5.91525876 -0.57669787 -3.62168096 -0.43709943 0 0 Z " fill="#9C6E99" transform="translate(220,92)"/>
<path d="M0 0 C1.45903258 0.30921884 2.91720722 0.62248799 4.375 0.9375 C5.59316406 1.19853516 5.59316406 1.19853516 6.8359375 1.46484375 C9 2 9 2 11 3 C10.66657733 15.88223962 6.31911771 29.14216551 -2.5390625 38.65234375 C-4.80392423 40.74879268 -6.67460573 41.92432691 -9.6875 42.625 C-12 42 -12 42 -13.8125 40.125 C-15.68449584 35.19869515 -16.14765964 29.59872355 -13.98046875 24.69140625 C-13.65691406 24.13324219 -13.33335937 23.57507813 -13 23 C-12.34 23.495 -11.68 23.99 -11 24.5 C-7.20252308 26.39873846 -4.17075504 26.90998292 0 26 C4.35512627 22.6641586 5.53435103 20.13576265 6.30859375 14.921875 C6.66231521 8.96220437 5.13153068 5.96869269 1.3125 1.43359375 C0.879375 0.96050781 0.44625 0.48742187 0 0 Z " fill="#F8CCC7" transform="translate(267,100)"/>
<path d="M0 0 C4.699161 1.84609896 6.93912536 4.84555253 9.140625 9.31640625 C12.3059553 16.97338484 13.93817325 25.77728887 10.9765625 33.7578125 C10.65429688 34.49773437 10.33203125 35.23765625 10 36 C10 36.66 10 37.32 10 38 C9.360625 38.474375 8.72125 38.94875 8.0625 39.4375 C5.71627037 40.9091365 5.71627037 40.9091365 5 44 C7.475 43.505 7.475 43.505 10 43 C9.67 43.66 9.34 44.32 9 45 C7.68 45 6.36 45 5 45 C4.9071875 45.928125 4.9071875 45.928125 4.8125 46.875 C4 49 4 49 1.875 50 C0.451875 50.495 0.451875 50.495 -1 51 C-2.17600658 51.69271621 -3.34231575 52.40207926 -4.5 53.125 C-9.46596859 55.78534031 -9.46596859 55.78534031 -13 55 C-15.50851732 52.75098447 -15.95647569 51.26658639 -16.5 47.9375 C-16 45 -16 45 -13.84375 43.34765625 C-9.8549215 41.45734604 -6.29137751 41.53953196 -1.9375 41.40625 C1.4799558 40.93362313 3.29597843 40.13622358 6 38 C7.43746656 35.54570043 7.43746656 35.54570043 8.3125 32.8125 C8.63863281 31.91144531 8.96476562 31.01039062 9.30078125 30.08203125 C9.53152344 29.39496094 9.76226562 28.70789063 10 28 C9.34 28 8.68 28 8 28 C8.33 27.01 8.66 26.02 9 25 C10.06808402 17.53867022 7.72506964 12.37252985 4 6 C-1.26159459 5.35834212 -3.68592849 6.79422999 -7.6796875 9.90625 C-8.11539062 10.2671875 -8.55109375 10.628125 -9 11 C-7.60364382 7.62547256 -6.1393647 5.88361882 -3 4 C-0.25 3.3125 -0.25 3.3125 2 3 C1.34 2.01 0.68 1.02 0 0 Z " fill="#903E49" transform="translate(315,39)"/>
<path d="M0 0 C1.19943237 0.01135986 1.19943237 0.01135986 2.4230957 0.02294922 C11.42061384 0.27199659 19.27726457 2.41727696 25.9453125 8.734375 C28.42046006 11.68291144 29.95406015 14.88158016 31.375 18.4375 C31.7875 19.46875 32.2 20.5 32.625 21.5625 C33.375 24.4375 33.375 24.4375 33.375 30.4375 C37.335 30.4375 41.295 30.4375 45.375 30.4375 C44.715 35.7175 44.055 40.9975 43.375 46.4375 C39.415 45.4475 35.455 44.4575 31.375 43.4375 C31.395625 42.179375 31.41625 40.92125 31.4375 39.625 C31.38111907 27.65344939 30.28338783 17.97317358 21.875 8.87109375 C16.54826154 3.78017444 10.13486862 2.336823 2.9375 2.1875 C-5.43887938 2.38229952 -11.02243014 4.21046553 -17.625 9.4375 C-17.625 8.1175 -17.625 6.7975 -17.625 5.4375 C-19.0416747 3.6863427 -19.0416747 3.6863427 -20.625 2.4375 C-19.0471875 2.7778125 -19.0471875 2.7778125 -17.4375 3.125 C-13.71906726 3.82485415 -13.71906726 3.82485415 -11.42578125 1.984375 C-7.57285001 -0.14360376 -4.33337974 -0.05689339 0 0 Z " fill="#8C3B3D" transform="translate(297.625,29.5625)"/>
<path d="M0 0 C0.66 0.33 1.32 0.66 2 1 C1.09121094 1.82177734 1.09121094 1.82177734 0.1640625 2.66015625 C-7.28440031 9.70754799 -12.5900955 17.35265712 -18 26 C-19.57558686 28.51227249 -21.15122059 31.02450654 -22.72900391 33.53540039 C-23.75916663 35.17943591 -24.78388592 36.82689915 -25.80224609 38.47827148 C-29.38895492 44.24005519 -33.18438798 49.18438798 -38 54 C-34.7 54 -31.4 54 -28 54 C-28.06960937 55.64484375 -28.13921875 57.2896875 -28.2109375 58.984375 C-28.70051153 75.85438595 -26.39221472 89.45388555 -20 105 C-20.99 105.495 -20.99 105.495 -22 106 C-26.99419225 95.83325149 -31.17146548 83.57714868 -31.09765625 72.13671875 C-31.09443359 71.25048828 -31.09121094 70.36425781 -31.08789062 69.45117188 C-31.07532227 68.0831543 -31.07532227 68.0831543 -31.0625 66.6875 C-31.05798828 65.75615234 -31.05347656 64.82480469 -31.04882812 63.86523438 C-31.03709254 61.57679513 -31.01915861 59.28838914 -31 57 C-34.63 56.34 -38.26 55.68 -42 55 C-42 54.34 -42 53.68 -42 53 C-40.85423404 51.95244255 -39.6560644 50.96190283 -38.4375 50 C-32.1256315 44.61209109 -28.01790359 38.04600683 -24.1875 30.75 C-18.27529708 19.59131137 -10.22575849 7.51894007 0 0 Z " fill="#7B2324" transform="translate(211,36)"/>
<path d="M0 0 C0.33 0 0.66 0 1 0 C2.18380253 21.00794176 -2.67815782 36.6087466 -16.46240234 52.70800781 C-25.42824725 62.6190206 -25.42824725 62.6190206 -32.4375 63.203125 C-33.283125 63.21859375 -34.12875 63.2340625 -35 63.25 C-35.845625 63.27578125 -36.69125 63.3015625 -37.5625 63.328125 C-40.50664796 62.93179739 -41.8663162 62.03490214 -44 60 C-44 59.34 -44 58.68 -44 58 C-43.42765625 58.15984375 -42.8553125 58.3196875 -42.265625 58.484375 C-36.59895303 59.77403138 -30.31343071 59.6827449 -24.953125 57.30859375 C-13.38840029 49.56022819 -5.09379194 28.45771805 -2.2199707 15.38378906 C-1.70984128 12.59811414 -1.32722856 9.81277316 -1 7 C-0.66862702 4.66638746 -0.33580752 2.33297854 0 0 Z " fill="#711715" transform="translate(309,192)"/>
<path d="M0 0 C0.64324219 0.45890625 1.28648437 0.9178125 1.94921875 1.390625 C9.04178928 6.20669286 15.71205534 8.92318403 24 11 C25.04414063 11.28746094 26.08828125 11.57492188 27.1640625 11.87109375 C37.23218517 14.38211718 47.30094518 14.61720512 57.63500977 14.84228516 C60.15884945 15.01059324 62.53262363 15.45388517 65 16 C65 16.33 65 16.66 65 17 C66.65 17.33 68.3 17.66 70 18 C70 18.33 70 18.66 70 19 C67.69 19 65.38 19 63 19 C63 18.34 63 17.68 63 17 C62.28046143 17.01571045 61.56092285 17.0314209 60.81958008 17.04760742 C34.54246167 17.54610074 34.54246167 17.54610074 24 14 C23.08734375 13.71382812 22.1746875 13.42765625 21.234375 13.1328125 C19.14376994 12.45945811 17.06920477 11.73649661 15 11 C15.6496875 12.37285156 15.6496875 12.37285156 16.3125 13.7734375 C16.869375 14.96195313 17.42625 16.15046875 18 17.375 C18.556875 18.55835938 19.11375 19.74171875 19.6875 20.9609375 C21 24 21 24 21 26 C15.25 25.125 15.25 25.125 13 24 C12.87625 24.61875 12.7525 25.2375 12.625 25.875 C12 28 12 28 10 30 C9.34 28.02 8.68 26.04 8 24 C7.34 24.66 6.68 25.32 6 26 C5.67 22.7 5.34 19.4 5 16 C8.98363358 17.32787786 11.10630834 19.00985195 14 22 C14.99 22.33 15.98 22.66 17 23 C15.37014112 15.14127538 15.37014112 15.14127538 10.61328125 8.97265625 C8.88846687 7.98309121 7.13064773 7.04802695 5.33984375 6.18359375 C3.04022275 5.0203464 1.61393926 3.99493476 0 2 C0 1.34 0 0.68 0 0 Z " fill="#8A413F" transform="translate(193,127)"/>
<path d="M0 0 C-1.80840001 4.79816687 -4.14375711 9.29543107 -6.52148438 13.828125 C-9.55356377 19.750658 -10.75444753 25.33571346 -10 32 C-9.19166304 34.49080575 -8.17667666 36.64664669 -7 39 C-7.66 39.66 -8.32 40.32 -9 41 C-13.47752209 34.84340712 -13.9432642 29.49941731 -13 22 C-11.46407603 16.16348892 -9.19157444 11.11200606 -6 6 C-6.56750977 6.15654053 -7.13501953 6.31308105 -7.71972656 6.47436523 C-9.99898693 6.99976647 -12.1546534 7.22614059 -14.484375 7.41015625 C-23.84520719 8.16235944 -23.84520719 8.16235944 -31.66650391 12.70703125 C-33.87237298 16.06431997 -35.30846894 19.57879789 -36.66015625 23.34765625 C-37.81879804 26.50605295 -38.39359927 28.01232941 -41 30 C-40.31583566 25.82423832 -38.98634991 22.11919593 -37.4375 18.1875 C-36.75494141 16.44533203 -36.75494141 16.44533203 -36.05859375 14.66796875 C-35.70925781 13.78753906 -35.35992187 12.90710938 -35 12 C-36.7015625 11.566875 -36.7015625 11.566875 -38.4375 11.125 C-39.613125 10.75375 -40.78875 10.3825 -42 10 C-42.33 9.34 -42.66 8.68 -43 8 C-41.67162109 8.06960937 -41.67162109 8.06960937 -40.31640625 8.140625 C-26.00495209 8.55760806 -12.90882915 0 0 0 Z " fill="#792B2A" transform="translate(273,211)"/>
<path d="M0 0 C2.68271649 4.02407474 4.38611544 8.40468088 6.2578125 12.84375 C6.55171875 13.52953125 6.845625 14.2153125 7.1484375 14.921875 C7.44186035 15.60967041 7.7352832 16.29746582 8.03759766 17.00610352 C8.98944143 18.97812484 10.11865347 20.64993882 11.359375 22.44921875 C13.62619884 27.35527321 12.55865265 30.11470704 10.875 35.0625 C10.63523438 35.83916016 10.39546875 36.61582031 10.1484375 37.41601562 C9.14552135 40.63461339 8.0878442 43.78185357 6.828125 46.91015625 C5.62305719 51.4064234 5.78912654 55.74443855 5.875 60.375 C5.88402344 61.30183594 5.89304688 62.22867188 5.90234375 63.18359375 C5.92577063 65.45600077 5.95857252 67.7278618 6 70 C13.790899 70.8316691 13.790899 70.8316691 20.5625 67.625 C21.366875 66.75875 22.17125 65.8925 23 65 C23.66 64.34 24.32 63.68 25 63 C25 66 25 66 23.6015625 67.82421875 C19.81068439 71.3978331 17.07916314 73.49773751 11.75 73.6875 C8.38490813 73.44455174 7.22025849 73.16116475 4.4375 71.125 C0.75614709 65.68300005 1.2600819 59.38083669 2.33251953 53.03125 C3.90088544 45.47110844 6.02168433 38.13766047 9.265625 31.11328125 C10.1700121 28.51076306 10.33647432 26.74226567 10 24 C8.62464952 21.44827622 8.62464952 21.44827622 6.75 18.9375 C2.93277441 13.25424729 0.84313646 7.55973409 -1 1 C-0.67 0.67 -0.34 0.34 0 0 Z " fill="#752B2B" transform="translate(207,177)"/>
<path d="M0 0 C2.06183633 -0.08150744 4.12461349 -0.1394194 6.1875 -0.1875 C7.33605469 -0.22230469 8.48460937 -0.25710937 9.66796875 -0.29296875 C13.27039199 0.02377421 15.09366839 0.91466602 18 3 C17.68762196 5.88949684 17.35661121 7.58633099 15.4375 9.8125 C11.95058601 11.51125297 8.74986306 11.78709997 5 11 C2 8.875 2 8.875 0 6 C-0.125 2.8203125 -0.125 2.8203125 0 0 Z " fill="#CBA1F5" transform="translate(254,114)"/>
<path d="M0 0 C5.70709064 0.46588495 9.15939723 1.93757784 14 5 C12.50829734 9.9723422 10.39542583 14.41845739 8 19 C1.16538113 13.47413793 1.16538113 13.47413793 0.68359375 9.1796875 C0.60238281 8.08914062 0.52117187 6.99859375 0.4375 5.875 C0.35371094 4.77929688 0.26992188 3.68359375 0.18359375 2.5546875 C0.12300781 1.71164063 0.06242187 0.86859375 0 0 Z " fill="#F7F2F1" transform="translate(330,75)"/>
<path d="M0 0 C0 2.64 0 5.28 0 8 C-1.65 8.33 -3.3 8.66 -5 9 C-4.69381595 12.67420866 -4.24228216 13.78135513 -1.4375 16.3125 C-0.633125 16.869375 0.17125 17.42625 1 18 C0.01 20.475 0.01 20.475 -1 23 C-2.32 23 -3.64 23 -5 23 C-8.26240864 19.69466493 -10.32204902 15.66946969 -10.3125 11 C-10.209375 10.01 -10.10625 9.02 -10 8 C-9.01 7.67 -8.02 7.34 -7 7 C-7.99 7 -8.98 7 -10 7 C-9.63206382 4.33246269 -9.18001672 3.18001672 -7.25 1.25 C-4.62056017 -0.21079991 -2.9625559 -0.24687966 0 0 Z " fill="#998CB8" transform="translate(330,76)"/>
<path d="M0 0 C2.49079999 0.80997819 4.64606575 1.82303287 7 3 C5.375 8.75 5.375 8.75 2 11 C-1.29781018 11.43555984 -3.80371852 11.65560404 -6.7890625 10.01953125 C-8.4375 8.75 -8.4375 8.75 -11 6 C-11 4.68 -11 3.36 -11 2 C-7.27649978 -0.48233348 -4.31433067 -0.54322777 0 0 Z " fill="#CCA1F5" transform="translate(220,103)"/>
<path d="M0 0 C1.39398416 1.11878802 2.75081392 2.28576851 4.0625 3.5 C4.66320312 4.02207031 5.26390625 4.54414062 5.8828125 5.08203125 C14.38283335 13.52487707 18.69873234 26.46024496 22.125 37.6875 C22.3410791 38.38157959 22.5571582 39.07565918 22.77978516 39.79077148 C23.98415915 44.03714772 24.12160147 47.21696702 23.0625 51.5 C22.7325 51.5 22.4025 51.5 22.0625 51.5 C21.94245605 50.93716309 21.82241211 50.37432617 21.69873047 49.79443359 C17.91286425 32.31819133 13.75902813 14.10670524 -0.7578125 2.18359375 C-4.57449766 0.16271991 -7.01815984 0.05911251 -11.3125 0.1875 C-13.27509766 0.23970703 -13.27509766 0.23970703 -15.27734375 0.29296875 C-19.21846286 0.51589224 -23.04322966 0.86420076 -26.9375 1.5 C-19.84473272 -4.32620169 -7.76086859 -4.93751812 0 0 Z " fill="#953840" transform="translate(272.9375,33.5)"/>
<path d="M0 0 C3.63 0 7.26 0 11 0 C10.67 4.62 10.34 9.24 10 14 C4.06 12.515 4.06 12.515 -2 11 C-1.34 7.37 -0.68 3.74 0 0 Z " fill="#F8F4F3" transform="translate(331,62)"/>
<path d="M0 0 C0.66 0 1.32 0 2 0 C2.40992188 0.75925781 2.81984375 1.51851563 3.2421875 2.30078125 C3.78101563 3.29464844 4.31984375 4.28851563 4.875 5.3125 C5.67550781 6.79169922 5.67550781 6.79169922 6.4921875 8.30078125 C8.00722126 11.09586458 8.00722126 11.09586458 10 14 C3.565 14.495 3.565 14.495 -3 15 C1.29 15.33 5.58 15.66 10 16 C8 18 8 18 5.35546875 18.01953125 C3.78732422 17.91705078 3.78732422 17.91705078 2.1875 17.8125 C-2.05670752 17.62922832 -2.05670752 17.62922832 -5.90234375 19.10546875 C-7.41808694 20.60094357 -7.41808694 20.60094357 -9 23 C-8.34 21.35 -7.68 19.7 -7 18 C-7.66 17.67 -8.32 17.34 -9 17 C-8.2575 16.4225 -7.515 15.845 -6.75 15.25 C-2.62452891 11.21855674 -1.53920931 5.39153205 0 0 Z " fill="#934D4E" transform="translate(258,83)"/>
<path d="M0 0 C0.33 0.66 0.66 1.32 1 2 C-0.36957788 4.51039763 -1.78414616 6.901608 -3.3125 9.3125 C-7.14201765 15.40552811 -7.14201765 15.40552811 -10 22 C-7.69 22.99 -5.38 23.98 -3 25 C-3.33 24.01 -3.66 23.02 -4 22 C-4.11766176 20.33631742 -4.17509083 18.66779197 -4.1875 17 C-4.20167969 16.13375 -4.21585938 15.2675 -4.23046875 14.375 C-4 12 -4 12 -2 9 C-1.67 14.94 -1.34 20.88 -1 27 C0.32 27.66 1.64 28.32 3 29 C3 29.99 3 30.98 3 32 C2.154375 31.34 1.30875 30.68 0.4375 30 C-3.53587593 27.68821764 -5.48009183 27.34255881 -10 28 C-12.90809543 29.85716187 -12.90809543 29.85716187 -15 32 C-14.979375 30.88625 -14.95875 29.7725 -14.9375 28.625 C-14.73619282 25.16784079 -14.73619282 25.16784079 -16 23 C-15.01 23 -14.02 23 -13 23 C-12.77441406 22.18144531 -12.54882812 21.36289063 -12.31640625 20.51953125 C-10.69507573 16.18475738 -8.43267771 12.56614257 -5.9375 8.6875 C-5.47794922 7.95982422 -5.01839844 7.23214844 -4.54492188 6.48242188 C-1.17900989 1.17900989 -1.17900989 1.17900989 0 0 Z " fill="#792020" transform="translate(223,65)"/>
<path d="M0 0 C4.02426366 4.60221642 6.15095859 9.58385724 6.0625 15.6875 C6.05347656 16.49574219 6.04445313 17.30398437 6.03515625 18.13671875 C6.02355469 18.75160156 6.01195312 19.36648437 6 20 C5.34 20.33 4.68 20.66 4 21 C3.81824219 20.39671875 3.63648438 19.7934375 3.44921875 19.171875 C3.19785156 18.37265625 2.94648438 17.5734375 2.6875 16.75 C2.44386719 15.96109375 2.20023437 15.1721875 1.94921875 14.359375 C0.89765041 11.74560021 -0.00102204 9.99897796 -2 8 C-4.72489473 7.30250411 -4.72489473 7.30250411 -7.6875 7.25 C-8.68136719 7.19328125 -9.67523438 7.1365625 -10.69921875 7.078125 C-11.83810547 7.03945313 -11.83810547 7.03945313 -13 7 C-6.42387733 -1.13362541 -6.42387733 -1.13362541 0 0 Z " fill="#FBA4C7" transform="translate(319,44)"/>
<path d="M0 0 C0.70705078 0.11746582 1.41410156 0.23493164 2.14257812 0.35595703 C6.00102193 1.0913907 8.70924006 2.01845821 11.625 4.6875 C10.98433594 4.55472656 10.34367187 4.42195313 9.68359375 4.28515625 C8.81863281 4.10855469 7.95367187 3.93195312 7.0625 3.75 C5.79212891 3.48896484 5.79212891 3.48896484 4.49609375 3.22265625 C-2.303823 1.95518877 -8.84900472 1.47693426 -15.75 1.4375 C-16.64460938 1.416875 -17.53921875 1.39625 -18.4609375 1.375 C-24.63231911 1.33911987 -29.65787033 2.36704884 -35.375 4.6875 C-33.725 5.6775 -32.075 6.6675 -30.375 7.6875 C-30.705 8.3475 -31.035 9.0075 -31.375 9.6875 C-32.220625 9.1925 -33.06625 8.6975 -33.9375 8.1875 C-40.38516863 5.37397187 -45.88218776 6.86495621 -52.375 8.6875 C-49.36473593 5.20531804 -47.16948019 4.05654882 -42.6875 3.125 C-39.02536337 2.32486931 -35.69596729 1.46027129 -32.25 0 C-22.29738448 -3.39538688 -10.17662647 -1.720461 0 0 Z " fill="#8F3F41" transform="translate(265.375,27.3125)"/>
<path d="M0 0 C0.66 0.33 1.32 0.66 2 1 C1.9175 2.0725 1.835 3.145 1.75 4.25 C1.70260406 7.90402132 1.70260406 7.90402132 3.375 10.25 C7.26732089 12.84488059 11.49485743 13.86511676 16 15 C13.63194089 17.74694857 13.17699174 17.97900098 9.3125 18.4375 C4.58664484 18.28844705 0.99858294 16.38213452 -3 14 C-3.29341888 8.32723489 -3.00559652 5.00932754 0 0 Z " fill="#F9A2C4" transform="translate(305,53)"/>
<path d="M0 0 C3.27123222 2.10755277 6.2431288 4.48625759 8 8 C8.04022391 10.3329866 8.04320247 12.66706666 8 15 C7.67 15 7.34 15 7 15 C6.84144531 14.38511719 6.68289063 13.77023438 6.51953125 13.13671875 C5.08498436 7.95397095 5.08498436 7.95397095 1.625 4 C-2.09234762 2.56695238 -2.09234762 2.56695238 -6 2 C-9.12056696 3.73364831 -9.85331791 4.55995373 -11 8 C-11.16941458 9.97465189 -11.26596621 11.95614037 -11.3125 13.9375 C-11.34988281 14.97777344 -11.38726562 16.01804687 -11.42578125 17.08984375 C-11.22411849 20.09336649 -11.22411849 20.09336649 -9.23046875 22.34765625 C-6.2425079 24.5611544 -4.50116885 24.57533747 -0.8984375 24.39453125 C3.21104169 23.54050368 4.81167635 20.28248547 7 17 C6.74919159 20.67852334 6.38558753 22.55599012 3.9375 25.375 C0.22465859 27.42891227 -2.899064 27.94513759 -7 27 C-10.5187794 25.01310301 -12.69792092 22.90623723 -14 19 C-14.51517313 13.62024121 -14.6689224 9.31477851 -12.1875 4.4375 C-8.30439195 0.11060817 -5.73085239 -0.76411365 0 0 Z " fill="#7F3337" transform="translate(266,100)"/>
<path d="M0 0 C0 0.66 0 1.32 0 2 C-0.54527344 2.12375 -1.09054688 2.2475 -1.65234375 2.375 C-10.69581079 4.84842688 -16.46022881 9.95998397 -21.22216797 18.00830078 C-27.54959571 29.49987145 -30.78205203 42.00000801 -32 55 C-32.33 55 -32.66 55 -33 55 C-34.41762116 38.43483428 -28.54688802 22.95702943 -18.3515625 9.88671875 C-13.75872803 4.85185092 -7.00040337 0 0 0 Z " fill="#872A2F" transform="translate(232,40)"/>
<path d="M0 0 C2.44807676 3.76135208 2.30617508 7.54503635 2.30078125 11.87890625 C2.30506638 12.64621567 2.3093515 13.41352509 2.31376648 14.2040863 C2.31950292 15.82883725 2.32001508 17.45361387 2.31567383 19.07836914 C2.31254162 21.52992377 2.33588274 23.98023754 2.36132812 26.43164062 C2.3945807 35.05261739 2.01082827 42.79683149 -1 51 C-0.49186768 50.55897949 0.01626465 50.11795898 0.53979492 49.66357422 C3.29650364 47.27095911 5.95596128 45.02935915 9 43 C7.6095501 46.10442031 5.98428402 48.3656443 3.625 50.8125 C3.03976562 51.43769531 2.45453125 52.06289062 1.8515625 52.70703125 C0 54 0 54 -2.2265625 53.69921875 C-2.81179688 53.46847656 -3.39703125 53.23773438 -4 53 C-3.70946625 51.22898044 -3.4174913 49.45819731 -3.125 47.6875 C-2.96257812 46.70136719 -2.80015625 45.71523437 -2.6328125 44.69921875 C-2.28837354 42.68573916 -1.92798993 40.67368937 -1.48779297 38.67895508 C0.22255079 30.54685479 0.23001455 22.59180746 0.125 14.3125 C0.11494059 12.9173242 0.10582002 11.5221413 0.09765625 10.12695312 C0.07429406 6.7511163 0.04153668 3.37565382 0 0 Z " fill="#761B1D" transform="translate(296,82)"/>
<path d="M0 0 C0.87428199 2.96338239 1.05951744 5.42232382 0.88671875 8.5 C0.28235384 23.95954095 3.09494719 36.75334346 9 51 C8.01 51.495 8.01 51.495 7 52 C2.00580775 41.83325149 -2.17146548 29.57714868 -2.09765625 18.13671875 C-2.09443359 17.25048828 -2.09121094 16.36425781 -2.08789062 15.45117188 C-2.07951172 14.53916016 -2.07113281 13.62714844 -2.0625 12.6875 C-2.05798828 11.75615234 -2.05347656 10.82480469 -2.04882812 9.86523438 C-2.03709234 7.57675627 -2.02067363 5.28841192 -2 3 C-4.97 2.505 -4.97 2.505 -8 2 C-8 1.67 -8 1.34 -8 1 C-5.36 0.67 -2.72 0.34 0 0 Z " fill="#812A2C" transform="translate(182,90)"/>
<path d="M0 0 C-2.50830863 2.50830863 -3.20346713 2.05084913 -6.625 2.125 C-9.59478406 2.61924771 -11.36464951 3.14985406 -13.20166016 5.60791016 C-15.5162927 9.65026842 -17.36074713 13.89892044 -19.08374023 18.22241211 C-20.11288518 20.21900267 -21.34599879 21.4965995 -23 23 C-22.31583566 18.82423832 -20.98634991 15.11919593 -19.4375 11.1875 C-18.75494141 9.44533203 -18.75494141 9.44533203 -18.05859375 7.66796875 C-17.70925781 6.78753906 -17.35992187 5.90710938 -17 5 C-18.134375 4.71125 -19.26875 4.4225 -20.4375 4.125 C-21.613125 3.75375 -22.78875 3.3825 -24 3 C-24.33 2.34 -24.66 1.68 -25 1 C-23.97519531 1.01160156 -22.95039063 1.02320313 -21.89453125 1.03515625 C-20.533856 1.04454022 -19.17317876 1.05363977 -17.8125 1.0625 C-17.13896484 1.07087891 -16.46542969 1.07925781 -15.77148438 1.08789062 C-10.40389472 1.11407399 -5.34255637 -0.15264447 0 0 Z " fill="#752322" transform="translate(255,218)"/>
<path d="M0 0 C1.32 0.99 2.64 1.98 4 3 C4.66 2.34 5.32 1.68 6 1 C6.66 2.98 7.32 4.96 8 7 C8.66 5.68 9.32 4.36 10 3 C11.43999482 7.31998445 11.41031541 11.59768093 11.625 16.125 C11.6765625 17.05699219 11.728125 17.98898438 11.78125 18.94921875 C11.82507813 19.83480469 11.86890625 20.72039062 11.9140625 21.6328125 C11.9548291 22.44637207 11.9955957 23.25993164 12.03759766 24.09814453 C12 26 12 26 11 27 C8.32941149 27.14115161 5.67567762 27.04247107 3 27 C3 26.67 3 26.34 3 26 C5.31 26 7.62 26 10 26 C9.67 25.01 9.34 24.02 9 23 C8.93062938 20.77181559 8.91542916 18.54165476 8.9375 16.3125 C8.94652344 15.13300781 8.95554688 13.95351562 8.96484375 12.73828125 C8.97644531 11.83464844 8.98804688 10.93101562 9 10 C5.04 10 1.08 10 -3 10 C0 7 0 7 3 6 C2.505 5.566875 2.01 5.13375 1.5 4.6875 C0 3 0 3 0 0 Z " fill="#7C2C2B" transform="translate(195,149)"/>
<path d="M0 0 C0.33 0.99 0.66 1.98 1 3 C-1.9839784 6.34803676 -4.98470927 9.68013444 -8 13 C-8.51820313 13.57492188 -9.03640625 14.14984375 -9.5703125 14.7421875 C-12.71530527 18.08497855 -14.94384873 18.82865406 -19.4375 19.203125 C-20.283125 19.21859375 -21.12875 19.2340625 -22 19.25 C-22.845625 19.27578125 -23.69125 19.3015625 -24.5625 19.328125 C-27.50664796 18.93179739 -28.8663162 18.03490214 -31 16 C-31 15.34 -31 14.68 -31 14 C-30.42765625 14.15984375 -29.8553125 14.3196875 -29.265625 14.484375 C-23.51019379 15.79423176 -17.40965623 15.55720602 -11.91796875 13.33203125 C-8.53865337 10.98509328 -6.63835152 7.56106345 -4.54296875 4.08203125 C-4.03378906 3.39496094 -3.52460938 2.70789063 -3 2 C-2.01 2 -1.02 2 0 2 C0 1.34 0 0.68 0 0 Z " fill="#752523" transform="translate(296,236)"/>
<path d="M0 0 C7.29746372 3.29562878 10.9289156 9.69259825 13.76171875 16.9453125 C15.56058644 22.43659281 16.70228937 28.09888551 17.875 33.75 C18.1026001 34.82749512 18.3302002 35.90499023 18.56469727 37.01513672 C19.73887371 43.04217183 20.18167163 47.96034498 19 54 C18.67 54 18.34 54 18 54 C17.92483154 53.42145264 17.84966309 52.84290527 17.7722168 52.24682617 C15.85295651 36.92069611 15.85295651 36.92069611 12 22 C11.71382813 21.07058594 11.42765625 20.14117187 11.1328125 19.18359375 C9.03904999 12.82443902 6.24044658 8.13699814 2 3 C1.34 2.01 0.68 1.02 0 0 Z " fill="#892C31" transform="translate(259,42)"/>
<path d="M0 0 C5.47026811 5.01441243 9.73424233 10.64566287 10.203125 18.328125 C10.35773548 31.26386855 10.35773548 31.26386855 7 37 C6.34 36.67 5.68 36.34 5 36 C5.32226562 35.46503906 5.64453125 34.93007812 5.9765625 34.37890625 C8.78241064 27.85691574 7.54553548 19.66137511 5.3125 13.125 C3.44361264 8.54991015 1.08070236 4.85087795 -2 1 C-1.34 0.67 -0.68 0.34 0 0 Z " fill="#F6A0BE" transform="translate(319,38)"/>
<path d="M0 0 C0.66 0 1.32 0 2 0 C2.33 5.28 2.66 10.56 3 16 C10.81621296 16.81776569 10.81621296 16.81776569 17.5625 13.625 C18.366875 12.75875 19.17125 11.8925 20 11 C20.66 10.34 21.32 9.68 22 9 C22 12 22 12 20.6015625 13.82421875 C16.81068439 17.3978331 14.07916314 19.49773751 8.75 19.6875 C5.38490813 19.44455174 4.22025849 19.16116475 1.4375 17.125 C-1.01631343 13.49762363 -1.13543864 11.31651022 -1.125 6.9375 C-1.12757813 5.85339844 -1.13015625 4.76929688 -1.1328125 3.65234375 C-1 1 -1 1 0 0 Z " fill="#905452" transform="translate(210,231)"/>
<path d="M0 0 C1.49821059 3.37097383 2 5.20442119 2 9 C-3.39449293 9.27429625 -6.51925805 9.36055646 -11 6 C-10 3 -10 3 -7.1875 1.3125 C-4 0 -4 0 0 0 Z " fill="#FAA4C6" transform="translate(320,57)"/>
<path d="M0 0 C2 1 2 1 2.8515625 3.4140625 C4.95709127 12.15519709 5.33365017 20.06558992 5 29 C4.67 29 4.34 29 4 29 C3.67 26.69 3.34 24.38 3 22 C2.67 24.31 2.34 26.62 2 29 C1.67 29 1.34 29 1 29 C0.98018066 28.42032471 0.96036133 27.84064941 0.93994141 27.2434082 C0.84427399 24.59934063 0.73476547 21.9560183 0.625 19.3125 C0.5940625 18.40048828 0.563125 17.48847656 0.53125 16.54882812 C0.32926122 11.91991867 -0.00097204 8.24996594 -2 4 C-2 3.01 -2 2.02 -2 1 C-1.34 0.67 -0.68 0.34 0 0 Z " fill="#8A4846" transform="translate(306,177)"/>
<path d="M0 0 C3.33333333 1.66666667 6.66666667 3.33333333 10 5 C9.01 5.495 9.01 5.495 8 6 C7.01 5.67 6.02 5.34 5 5 C2.26649966 4.61422374 -0.27756782 4.49416187 -3 5 C-7.44546189 10.01906988 -7.14186551 16.43273415 -7.0625 22.8125 C-7.05798828 23.50537109 -7.05347656 24.19824219 -7.04882812 24.91210938 C-7.03713156 26.60811068 -7.01919924 28.30406703 -7 30 C-7.66 30 -8.32 30 -9 30 C-11.27601921 23.17194236 -11.03736057 14.36363752 -8.1328125 7.72265625 C-6.01584972 4.50341286 -3.09587485 2.23920811 0 0 Z " fill="#8B2E33" transform="translate(305,33)"/>
<path d="M0 0 C0.33 0 0.66 0 1 0 C1.33 4.95 1.66 9.9 2 15 C3.98 15 5.96 15 8 15 C7.01 15.495 7.01 15.495 6 16 C6.16757812 16.62648438 6.33515625 17.25296875 6.5078125 17.8984375 C6.71148437 18.71570313 6.91515625 19.53296875 7.125 20.375 C7.33382813 21.18710938 7.54265625 21.99921875 7.7578125 22.8359375 C7.83773438 23.55007812 7.91765625 24.26421875 8 25 C7.34 25.66 6.68 26.32 6 27 C4.80712589 23.12315913 4 20.08378077 4 16 C3.01 16 2.02 16 1 16 C0.90203125 16.64066406 0.8040625 17.28132813 0.703125 17.94140625 C-0.30703809 23.78467725 -1.75974825 28.03161399 -5 33 C-5.33 32.01 -5.66 31.02 -6 30 C-5.07960938 28.28296875 -5.07960938 28.28296875 -4.140625 26.53125 C-1.38490401 21.35182259 -1.11391212 16.27710486 -0.75 10.5 C-0.67265625 9.48679687 -0.5953125 8.47359375 -0.515625 7.4296875 C-0.32876648 4.95381209 -0.15726616 2.47790092 0 0 Z " fill="#823B3C" transform="translate(311,93)"/>
<path d="M0 0 C2.79872437 2.52788007 4.45773019 4.20411134 5 8 C5.66 8 6.32 8 7 8 C7.268125 7.38125 7.53625 6.7625 7.8125 6.125 C9 4 9 4 12 2 C15.0625 1.75 15.0625 1.75 18 2 C18.66 2.66 19.32 3.32 20 4 C19.07767578 4.16435547 19.07767578 4.16435547 18.13671875 4.33203125 C16.92435547 4.56986328 16.92435547 4.56986328 15.6875 4.8125 C14.48673828 5.03873047 14.48673828 5.03873047 13.26171875 5.26953125 C10.76554413 6.07572236 9.67577894 7.02052002 8 9 C9.76429199 13.97209562 12.3939166 18.43438061 15 23 C14.34 23.66 13.68 24.32 13 25 C12.47212891 24.01773438 12.47212891 24.01773438 11.93359375 23.015625 C8.53491542 16.73295069 4.99900569 10.55678652 1.3203125 4.43359375 C0 2 0 2 0 0 Z " fill="#712726" transform="translate(289,151)"/>
<path d="M0 0 C0.33 0.99 0.66 1.98 1 3 C-0.32 3.99 -1.64 4.98 -3 6 C-2.01 6.33 -1.02 6.66 0 7 C-0.99 8.485 -0.99 8.485 -2 10 C-5.5625 10.25 -5.5625 10.25 -9 10 C-10 9 -10 9 -10.0625 5.4375 C-10.041875 4.303125 -10.02125 3.16875 -10 2 C-6.7 1.34 -3.4 0.68 0 0 Z " fill="#9C97C7" transform="translate(311,82)"/>
<path d="M0 0 C1.93833996 0.08715017 3.8757429 0.19532964 5.8125 0.3125 C7.43091797 0.39951172 7.43091797 0.39951172 9.08203125 0.48828125 C12.17497517 1.03068507 13.13022903 1.55289624 15 4 C14.67 4.66 14.34 5.32 14 6 C13.525625 5.505 13.05125 5.01 12.5625 4.5 C8.79641649 2.29546331 5.26540621 2.75391887 1 3 C-2.00559652 8.00932754 -2.29341888 11.32723489 -2 17 C4.1999082 20.33247818 4.1999082 20.33247818 11 22 C11 22.33 11 22.66 11 23 C4.96231508 23.77076829 1.88598289 22.08924135 -3.08203125 18.703125 C-5.0851701 16.92437034 -5.99007488 15.4580188 -7 13 C-6.34 12.01 -5.68 11.02 -5 10 C-4.10634875 8.28039836 -3.23263717 6.55034374 -2.375 4.8125 C-1.92898438 3.91144531 -1.48296875 3.01039062 -1.0234375 2.08203125 C-0.68570312 1.39496094 -0.34796875 0.70789062 0 0 Z " fill="#93363E" transform="translate(305,50)"/>
<path d="M0 0 C1.32 0 2.64 0 4 0 C5.73473712 1.94125344 7.4045651 3.94272868 9 6 C9.66 6.33 10.32 6.66 11 7 C10.34 8.65 9.68 10.3 9 12 C7.68 12 6.36 12 5 12 C3.515625 10.390625 3.515625 10.390625 2.25 8.25 C1.60804688 7.20585938 1.60804688 7.20585938 0.953125 6.140625 C0 4 0 4 0 0 Z " fill="#9B93C1" transform="translate(320,87)"/>
<path d="M0 0 C2.02274956 2.69699942 3.86041497 5.27784747 5.625 8.125 C6.05039062 8.80820313 6.47578125 9.49140625 6.9140625 10.1953125 C8 12 8 12 9 14 C5.04 13.67 1.08 13.34 -3 13 C-2.01 8.71 -1.02 4.42 0 0 Z " fill="#F7F2F1" transform="translate(259,83)"/>
<path d="M0 0 C4.95744909 1.94756929 7.13903641 5.52406242 9.75 10 C11.94962042 15.3385382 11.22959087 21.34526187 11 27 C10.01 27.33 9.02 27.66 8 28 C8.33 27.01 8.66 26.02 9 25 C10.06808402 17.53867022 7.72506964 12.37252985 4 6 C-1.26159459 5.35834212 -3.68592849 6.79422999 -7.6796875 9.90625 C-8.11539062 10.2671875 -8.55109375 10.628125 -9 11 C-7.60364382 7.62547256 -6.1393647 5.88361882 -3 4 C-0.25 3.3125 -0.25 3.3125 2 3 C1.34 2.01 0.68 1.02 0 0 Z " fill="#731416" transform="translate(315,39)"/>
<path d="M0 0 C1.45903258 0.30921884 2.91720722 0.62248799 4.375 0.9375 C5.18710937 1.11152344 5.99921875 1.28554687 6.8359375 1.46484375 C9 2 9 2 11 3 C10.67 6.3 10.34 9.6 10 13 C9.01 13.33 8.02 13.66 7 14 C6.773125 12.80375 6.54625 11.6075 6.3125 10.375 C5.2051224 5.83232692 3.19168889 3.35967251 0 0 Z " fill="#F4EDEC" transform="translate(267,100)"/>
<path d="M0 0 C-0.2385385 7.5139627 -2.13731764 12.22153395 -7 18 C-7.66 18.33 -8.32 18.66 -9 19 C-8.71382813 18.43539062 -8.42765625 17.87078125 -8.1328125 17.2890625 C-7.00123603 15.00249764 -5.92482937 12.70017764 -4.875 10.375 C-4.34519531 9.21097656 -4.34519531 9.21097656 -3.8046875 8.0234375 C-2.87682193 6.05318968 -2.87682193 6.05318968 -3 4 C-3.99 4.66 -4.98 5.32 -6 6 C-10.1507982 8.41068853 -13.27319955 8.33170529 -18 8 C-17.67 7.34 -17.34 6.68 -17 6 C-15.14453125 5.5078125 -15.14453125 5.5078125 -12.8125 5.125 C-8.3962768 4.25300688 -3.99689904 0 0 0 Z " fill="#833032" transform="translate(277,137)"/>
<path d="M0 0 C3.36240701 1.15299774 6.16594699 2.86494734 9.17578125 4.74609375 C9.17578125 5.73609375 9.17578125 6.72609375 9.17578125 7.74609375 C9.83578125 7.74609375 10.49578125 7.74609375 11.17578125 7.74609375 C10.84578125 9.39609375 10.51578125 11.04609375 10.17578125 12.74609375 C9.53640625 12.04484375 8.89703125 11.34359375 8.23828125 10.62109375 C3.66122688 6.03096208 -1.99809259 2.53365071 -7.82421875 -0.25390625 C-4.9889862 -1.67152252 -2.95270085 -0.78270863 0 0 Z " fill="#F39DBC" transform="translate(271.82421875,30.25390625)"/>
<path d="M0 0 C4.3845105 1.33971154 6.6161966 3.05755591 9 7 C8.9375 9.6875 8.9375 9.6875 8 12 C7.01 12.66 6.02 13.32 5 14 C4.34 12.02 3.68 10.04 3 8 C2.34 8.66 1.68 9.32 1 10 C0.67 6.7 0.34 3.4 0 0 Z " fill="#7F2C2D" transform="translate(198,143)"/>
<path d="M0 0 C0.33 0 0.66 0 1 0 C1.33 4.62 1.66 9.24 2 14 C-0.64 13.34 -3.28 12.68 -6 12 C-5.37853192 10.56096954 -4.75267941 9.12383207 -4.125 7.6875 C-3.77695313 6.88699219 -3.42890625 6.08648437 -3.0703125 5.26171875 C-2 3 -2 3 0 0 Z " fill="#F4EEED" transform="translate(218,76)"/>
<path d="M0 0 C3.125 0.1875 3.125 0.1875 6.125 2.1875 C6.125 2.8475 6.125 3.5075 6.125 4.1875 C3.53710938 5.26171875 3.53710938 5.26171875 0.94921875 6.3359375 C-1.14033932 7.25556692 -1.14033932 7.25556692 -3.875 9.1875 C-4.205 8.8575 -4.535 8.5275 -4.875 8.1875 C-4.02589914 0.26255864 -4.02589914 0.26255864 0 0 Z " fill="#F7A1C2" transform="translate(311.875,51.8125)"/>
<path d="M0 0 C2.7115029 4.06725434 2.57867488 7.1547611 3 12 C6.96 12 10.92 12 15 12 C14.67 12.66 14.34 13.32 14 14 C10.37 14 6.74 14 3 14 C3 15.65 3 17.3 3 19 C0.83183018 15.74774526 0.68004096 14.36574864 0.4375 10.5625 C0.17332331 6.59927717 0.17332331 6.59927717 -0.58984375 2.71484375 C-0.72519531 2.14894531 -0.86054688 1.58304688 -1 1 C-0.67 0.67 -0.34 0.34 0 0 Z " fill="#945353" transform="translate(328,48)"/>
<path d="M0 0 C0.33 0.66 0.66 1.32 1 2 C-0.36957788 4.51039763 -1.78414616 6.901608 -3.3125 9.3125 C-7.23775216 15.37096822 -7.23775216 15.37096822 -10 22 C-9.67 22.66 -9.34 23.32 -9 24 C-10.98 24.33 -12.96 24.66 -15 25 C-15.33 24.34 -15.66 23.68 -16 23 C-15.01 23 -14.02 23 -13 23 C-12.77441406 22.18144531 -12.54882812 21.36289063 -12.31640625 20.51953125 C-10.69507573 16.18475738 -8.43267771 12.56614257 -5.9375 8.6875 C-5.47794922 7.95982422 -5.01839844 7.23214844 -4.54492188 6.48242188 C-1.17900989 1.17900989 -1.17900989 1.17900989 0 0 Z " fill="#7D2729" transform="translate(223,65)"/>
<path d="M0 0 C3.26627962 2.12567404 6.23969188 4.47938376 8 8 C8.04022391 10.3329866 8.04320247 12.66706666 8 15 C7.67 15 7.34 15 7 15 C6.84144531 14.38511719 6.68289063 13.77023438 6.51953125 13.13671875 C5.08498436 7.95397095 5.08498436 7.95397095 1.625 4 C-2.09234762 2.56695238 -2.09234762 2.56695238 -6 2 C-9.24860005 3.57789145 -9.91983834 4.79558777 -11.25 8.1875 C-11.4975 9.115625 -11.745 10.04375 -12 11 C-12.33 11 -12.66 11 -13 11 C-12.76683515 6.95847594 -12.5771041 4.66197236 -9.875 1.5625 C-6.13308636 -0.47114871 -4.20970279 -0.72581083 0 0 Z " fill="#6F2322" transform="translate(266,100)"/>
<path d="M0 0 C4.5 3 4.5 3 9 6 C7.94124926 9.40312738 6.99097846 12.01353231 5 15 C2.75 14.9375 2.75 14.9375 0 14 C-1.86135162 11.75134851 -2.78061322 9.72017052 -4 7 C-3.67 6.01 -3.34 5.02 -3 4 C-1.35 6.64 0.3 9.28 2 12 C5.11332248 11.33131686 5.11332248 11.33131686 6.1875 8.9375 C6.455625 8.298125 6.72375 7.65875 7 7 C6.401875 6.731875 5.80375 6.46375 5.1875 6.1875 C3.00152146 5.00082594 1.58667406 3.90400887 0 2 C0 1.34 0 0.68 0 0 Z " fill="#702424" transform="translate(324,87)"/>
<path d="M0 0 C1.98 0 3.96 0 6 0 C5.67 0.66 5.34 1.32 5 2 C3.68 2 2.36 2 1 2 C0.9071875 2.928125 0.9071875 2.928125 0.8125 3.875 C0 6 0 6 -2.125 7 C-3.548125 7.495 -3.548125 7.495 -5 8 C-6.17600658 8.69271621 -7.34231575 9.40207926 -8.5 10.125 C-11.83918146 11.91384721 -13.32776178 12.44511978 -17 12 C-17.66 10.68 -18.32 9.36 -19 8 C-18.01 8.495 -18.01 8.495 -17 9 C-11.67032792 9.34092041 -11.67032792 9.34092041 -7 7 C-5.80767387 4.94996045 -5.80767387 4.94996045 -5 3 C-3.68 3.33 -2.36 3.66 -1 4 C-0.67 2.68 -0.34 1.36 0 0 Z " fill="#732529" transform="translate(319,82)"/>
<path d="M0 0 C0.66 0.33 1.32 0.66 2 1 C1.54543566 3.04250911 1.08617174 5.0839726 0.625 7.125 C0.36976563 8.26195312 0.11453125 9.39890625 -0.1484375 10.5703125 C-0.94636477 13.78398288 -1.90790559 16.87566034 -3 20 C-3.66 20 -4.32 20 -5 20 C-4.35346673 13.04976736 -2.13972752 6.61822697 0 0 Z " fill="#823E3C" transform="translate(215,211)"/>
<path d="M0 0 C0.53109375 0.40992188 1.0621875 0.81984375 1.609375 1.2421875 C2.31578125 1.78101563 3.0221875 2.31984375 3.75 2.875 C4.44609375 3.40867188 5.1421875 3.94234375 5.859375 4.4921875 C9.61370847 7.13666327 12.11490141 8.26132643 16.75 8.125 C17.94882813 8.09792969 17.94882813 8.09792969 19.171875 8.0703125 C20.07679688 8.03550781 20.07679688 8.03550781 21 8 C20.67 8.99 20.34 9.98 20 11 C13.28431765 10.76100775 8.3207817 10.52266445 3 6 C2.38125 5.484375 1.7625 4.96875 1.125 4.4375 C0 3 0 3 0 0 Z " fill="#691413" transform="translate(186,167)"/>
<path d="M0 0 C1.134375 0.020625 2.26875 0.04125 3.4375 0.0625 C3.4375 2.0425 3.4375 4.0225 3.4375 6.0625 C1.1275 5.7325 -1.1825 5.4025 -3.5625 5.0625 C-4.125 3.125 -4.125 3.125 -4.5625 1.0625 C-3.5625 0.0625 -3.5625 0.0625 0 0 Z " fill="#F6F0F1" transform="translate(216.5625,91.9375)"/>
<path d="M0 0 C0.66 0 1.32 0 2 0 C4.3992233 4.64849515 4.19957409 8.91086074 4 14 C3.01 14.495 3.01 14.495 2 15 C-0.08989546 9.68670645 -1.6112798 5.71271928 0 0 Z " fill="#EB95B1" transform="translate(321,50)"/>
<path d="M0 0 C1.98 1.65 3.96 3.3 6 5 C5.67 5.66 5.34 6.32 5 7 C-0.28 7 -5.56 7 -11 7 C-10.67 6.34 -10.34 5.68 -10 5 C-7.27734375 4.5859375 -7.27734375 4.5859375 -3.9375 4.375 C-2.83277344 4.30023438 -1.72804688 4.22546875 -0.58984375 4.1484375 C0.26480469 4.09945312 1.11945313 4.05046875 2 4 C1.34 2.68 0.68 1.36 0 0 Z " fill="#6E0E0C" transform="translate(265,92)"/>
<path d="M0 0 C-0.5625 1.8125 -0.5625 1.8125 -2 4 C-5.50990464 5.78686054 -8.04124604 7 -12 7 C-11.67 5.68 -11.34 4.36 -11 3 C-10.01 3 -9.02 3 -8 3 C-7.175 2.505 -6.35 2.01 -5.5 1.5 C-3 0 -3 0 0 0 Z " fill="#6F1310" transform="translate(315,171)"/>
<path d="M0 0 C6.08630247 0.3803939 10.17835097 2.26430796 15 6 C17 8.3125 17 8.3125 18 10 C17.34 10.66 16.68 11.32 16 12 C15.5359375 10.88625 15.5359375 10.88625 15.0625 9.75 C11.5972412 5.12965493 6.42614392 3.59415769 0.9375 2.25 C0.298125 2.1675 -0.34125 2.085 -1 2 C-0.67 1.34 -0.34 0.68 0 0 Z " fill="#7E3735" transform="translate(300,136)"/>
<path d="M0 0 C0.82514784 2.83384108 1.07936233 5.16935251 0.87890625 8.109375 C0.83056641 8.86347656 0.78222656 9.61757812 0.73242188 10.39453125 C0.64831055 11.56048828 0.64831055 11.56048828 0.5625 12.75 C0.51029297 13.54277344 0.45808594 14.33554688 0.40429688 15.15234375 C0.27510676 17.10193997 0.13830035 19.05102886 0 21 C-0.33 21 -0.66 21 -1 21 C-1.33 15.06 -1.66 9.12 -2 3 C-4.97 2.505 -4.97 2.505 -8 2 C-8 1.67 -8 1.34 -8 1 C-5.36 0.67 -2.72 0.34 0 0 Z " fill="#98464A" transform="translate(182,90)"/>
<path d="M0 0 C0.33 0 0.66 0 1 0 C1 6.27 1 12.54 1 19 C0.01 19 -0.98 19 -2 19 C-1.50873071 12.63440427 -1.00344253 6.30735307 0 0 Z " fill="#650503" transform="translate(309,192)"/>
<path d="M0 0 C0.33 0 0.66 0 1 0 C1.19592461 3.31205884 1.38032746 6.62465854 1.5625 9.9375 C1.61857422 10.88302734 1.67464844 11.82855469 1.73242188 12.80273438 C1.78076172 13.70185547 1.82910156 14.60097656 1.87890625 15.52734375 C1.9260376 16.35999756 1.97316895 17.19265137 2.02172852 18.05053711 C2 20 2 20 1 21 C-1.67058851 21.14115161 -4.32432238 21.04247107 -7 21 C-7 20.67 -7 20.34 -7 20 C-4.69 20 -2.38 20 0 20 C-0.185625 19.113125 -0.37125 18.22625 -0.5625 17.3125 C-1.41838507 11.55905036 -0.56226754 5.75242941 0 0 Z " fill="#894847" transform="translate(205,155)"/>
<path d="M0 0 C0 3.58912412 -0.66436554 4.10857029 -3 6.6875 C-3.99 7.780625 -4.98 8.87375 -6 10 C-3.03 10 -0.06 10 3 10 C3 10.33 3 10.66 3 11 C-1.29 11 -5.58 11 -10 11 C-10 10.34 -10 9.68 -10 9 C-8.3203125 7.34375 -8.3203125 7.34375 -6.125 5.5 C-4.00964496 3.71066742 -1.95980876 1.95980876 0 0 Z " fill="#761C1C" transform="translate(179,80)"/>
<path d="M0 0 C1.75570313 0.01353516 1.75570313 0.01353516 3.546875 0.02734375 C4.43890625 0.03894531 5.3309375 0.05054687 6.25 0.0625 C6.25 0.3925 6.25 0.7225 6.25 1.0625 C3.68850372 1.56817729 1.12600535 2.06720132 -1.4375 2.5625 C-2.5193457 2.77712891 -2.5193457 2.77712891 -3.62304688 2.99609375 C-7.38841359 3.71821887 -10.89473813 4.2449976 -14.75 4.0625 C-9.89822415 0.0771127 -6.20790867 -0.06207909 0 0 Z " fill="#87292E" transform="translate(260.75,30.9375)"/>
<path d="M0 0 C0.99 0.33 1.98 0.66 3 1 C-3.24161903 4.58125682 -7.75420281 6.67090715 -15 6 C-13.33924491 4.00390013 -12.42714291 3.08744049 -9.84375 2.55859375 C-8.68359375 2.49865234 -8.68359375 2.49865234 -7.5 2.4375 C-3.99566274 2.24476145 -3.07050563 2.04700375 0 0 Z " fill="#823234" transform="translate(280,153)"/>
<path d="M0 0 C2.22825644 2.22825644 2.69239369 3.65761628 3.625 6.625 C3.88539063 7.44226563 4.14578125 8.25953125 4.4140625 9.1015625 C4.60742188 9.72804687 4.80078125 10.35453125 5 11 C-0.75 10.25 -0.75 10.25 -3 8 C-1.68 8 -0.36 8 1 8 C0.34 5.69 -0.32 3.38 -1 1 C-0.67 0.67 -0.34 0.34 0 0 Z " fill="#90484A" transform="translate(209,142)"/>
<path d="M0 0 C0.66 0.99 1.32 1.98 2 3 C-2.455 9.93 -2.455 9.93 -7 17 C-7.66 16.34 -8.32 15.68 -9 15 C-8.60167969 14.41992188 -8.20335937 13.83984375 -7.79296875 13.2421875 C-4.87248393 8.9360712 -2.18115554 4.725837 0 0 Z " fill="#853234" transform="translate(188,64)"/>
<path d="M0 0 C3.36720387 1.39332574 4.9859524 2.9789286 7 6 C4 6 4 6 1.25 5.6875 C-3.18707197 6.11414154 -5.63841594 8.21525581 -9 11 C-7.60364382 7.62547256 -6.1393647 5.88361882 -3 4 C-0.25 3.3125 -0.25 3.3125 2 3 C1.34 2.01 0.68 1.02 0 0 Z " fill="#963941" transform="translate(315,39)"/>
<path d="M0 0 C4.88422674 1.39549335 7.13941697 3.86804673 10 8 C10.8125 11.375 10.8125 11.375 11 14 C10.484375 13.34 9.96875 12.68 9.4375 12 C6.84274087 8.8064503 4.13386893 5.73785351 1.390625 2.671875 C0 1 0 1 0 0 Z " fill="#782929" transform="translate(317,35)"/>
<path d="M0 0 C3 1 3 1 4.8125 2.875 C8.60513243 6.55927151 12.81356906 8.23728957 18 9 C18 9.33 18 9.66 18 10 C11.96231508 10.77076829 8.88598289 9.08924135 3.91796875 5.703125 C1.9148299 3.92437034 1.00992512 2.4580188 0 0 Z " fill="#85282D" transform="translate(298,63)"/>
<path d="M0 0 C3.38937153 0.60638474 5.4094469 2.23927627 8.07421875 4.37109375 C7.08421875 4.86609375 7.08421875 4.86609375 6.07421875 5.37109375 C5.41421875 5.06171875 4.75421875 4.75234375 4.07421875 4.43359375 C-0.24533786 2.90375079 -4.3875924 3.21247744 -8.92578125 3.37109375 C-6.21238774 0.20406789 -4.20669217 -0.13218811 0 0 Z " fill="#86282D" transform="translate(250.92578125,36.62890625)"/>
<path d="M0 0 C1.97760532 1.71647786 3.92284858 3.45876598 5.84375 5.23828125 C5.18375 5.89828125 4.52375 6.55828125 3.84375 7.23828125 C3.3075 6.49578125 2.77125 5.75328125 2.21875 4.98828125 C-1.48157985 0.7036888 -4.8848521 -1.79344905 -10.53125 -2.51171875 C-11.7275 -2.59421875 -12.92375 -2.67671875 -14.15625 -2.76171875 C-14.15625 -3.09171875 -14.15625 -3.42171875 -14.15625 -3.76171875 C-8.00622166 -5.37244046 -4.84600931 -3.95933007 0 0 Z " fill="#9E414B" transform="translate(275.15625,35.76171875)"/>
<path d="M0 0 C1.10844919 3.32534757 0.84454356 5.62182575 0 9 C-1.65 8.01 -3.3 7.02 -5 6 C-3.63016497 2.83884224 -3.0109362 2.0072908 0 0 Z " fill="#F7F2F1" transform="translate(206,96)"/>
<path d="M0 0 C0.66 0.33 1.32 0.66 2 1 C2.1953125 7.0546875 2.1953125 7.0546875 2 9 C1.34 9.66 0.68 10.32 0 11 C-1 10 -1 10 -1.1328125 7.96875 C-1.13023437 7.1540625 -1.12765625 6.339375 -1.125 5.5 C-1.12757813 4.6853125 -1.13015625 3.870625 -1.1328125 3.03125 C-1 1 -1 1 0 0 Z " fill="#6B100D" transform="translate(319,150)"/>
<path d="M0 0 C4.15422634 3.69264564 7.27087259 7.63296818 9 13 C8.67 13.99 8.34 14.98 8 16 C7.03810003 14.27281484 6.08063492 12.54315942 5.125 10.8125 C4.59132813 9.84957031 4.05765625 8.88664062 3.5078125 7.89453125 C2.1576322 5.30260482 1.02901671 2.73238902 0 0 Z " fill="#7C1E22" transform="translate(280,42)"/>
<path d="M0 0 C0.33 0.66 0.66 1.32 1 2 C1.99 2 2.98 2 4 2 C3.34 4.64 2.68 7.28 2 10 C0.4375 8.9375 0.4375 8.9375 -1 7 C-0.6875 3.3125 -0.6875 3.3125 0 0 Z " fill="#7A2926" transform="translate(306,209)"/>
<path d="M0 0 C0.66 0.66 1.32 1.32 2 2 C1.38511719 2.12117187 0.77023437 2.24234375 0.13671875 2.3671875 C-0.67152344 2.53476563 -1.47976563 2.70234375 -2.3125 2.875 C-3.11300781 3.03742188 -3.91351563 3.19984375 -4.73828125 3.3671875 C-7.25301118 3.94478999 -7.25301118 3.94478999 -10 6 C-10 3 -10 3 -8.375 1.3125 C-5.36640438 -0.35014495 -3.39011269 -0.36849051 0 0 Z " fill="#7F3432" transform="translate(307,153)"/>
<path d="M0 0 C0.66 0.33 1.32 0.66 2 1 C1.67 1.33 1.34 1.66 1 2 C2.98 2.66 4.96 3.32 7 4 C7 4.33 7 4.66 7 5 C3.37 5 -0.26 5 -4 5 C-2.68 3.35 -1.36 1.7 0 0 Z " fill="#F29CBB" transform="translate(310,46)"/>
<path d="M0 0 C0.66 0 1.32 0 2 0 C2.13277344 0.62648437 2.26554688 1.25296875 2.40234375 1.8984375 C2.57894531 2.71570313 2.75554687 3.53296875 2.9375 4.375 C3.11152344 5.18710938 3.28554687 5.99921875 3.46484375 6.8359375 C3.92330693 9.029463 3.92330693 9.029463 5 11 C4.34 11.66 3.68 12.32 3 13 C0.33409063 8.44573816 -0.31563182 5.26053037 0 0 Z " fill="#7F3533" transform="translate(182,156)"/>
<path d="M0 0 C2.25 0.125 2.25 0.125 5 1 C7.3125 4.0625 7.3125 4.0625 9 7 C5.13066838 6.42676569 2.84777943 4.61046448 0 2 C0 1.34 0 0.68 0 0 Z " fill="#EEE2E1" transform="translate(325,86)"/>
<path d="M0 0 C3.33333333 1.66666667 6.66666667 3.33333333 10 5 C7.2780754 6.3609623 5.8168043 5.70366248 2.875 5.0625 C1.96492188 4.86785156 1.05484375 4.67320313 0.1171875 4.47265625 C-0.58148438 4.31667969 -1.28015625 4.16070312 -2 4 C-2 3.01 -2 2.02 -2 1 C-1.34 0.67 -0.68 0.34 0 0 Z " fill="#A34951" transform="translate(305,33)"/>
<path d="M0 0 C1.98 0.99 1.98 0.99 4 2 C4 4.97 4 7.94 4 11 C3.34 10.67 2.68 10.34 2 10 C1.3671875 7.71484375 1.3671875 7.71484375 0.875 4.9375 C0.70742187 4.01839844 0.53984375 3.09929687 0.3671875 2.15234375 C0.24601563 1.44207031 0.12484375 0.73179687 0 0 Z " fill="#E8D8D6" transform="translate(200,146)"/>
<path d="M0 0 C2.02907167 3.3146667 2.12742133 5.4315979 1.625 9.25 C1.51414062 10.14203125 1.40328125 11.0340625 1.2890625 11.953125 C1.19367188 12.62859375 1.09828125 13.3040625 1 14 C-1.36574234 10.4513865 -1.10865265 9.4235475 -0.625 5.3125 C-0.51414062 4.31863281 -0.40328125 3.32476562 -0.2890625 2.30078125 C-0.19367188 1.54152344 -0.09828125 0.78226562 0 0 Z " fill="#892B2F" transform="translate(296,112)"/>
<path d="M0 0 C0.33 0 0.66 0 1 0 C1.17942163 3.94727588 1.09350689 6.5980513 -1 10 C-0.34 10 0.32 10 1 10 C1 10.66 1 11.32 1 12 C-0.65 12 -2.3 12 -4 12 C-2.68 8.04 -1.36 4.08 0 0 Z " fill="#6E1617" transform="translate(329,64)"/>
<path d="M0 0 C0.66 0.33 1.32 0.66 2 1 C2 1.66 2 2.32 2 3 C6.455 3.99 6.455 3.99 11 5 C11 5.33 11 5.66 11 6 C3.61538462 6.49230769 3.61538462 6.49230769 0.5 4 C0.005 3.34 -0.49 2.68 -1 2 C-0.67 1.34 -0.34 0.68 0 0 Z " fill="#6A1918" transform="translate(211,244)"/>
<path d="M0 0 C1.98 0.495 1.98 0.495 4 1 C3.67 2.32 3.34 3.64 3 5 C1.68 5 0.36 5 -1 5 C-0.67 3.35 -0.34 1.7 0 0 Z " fill="#F3ECEB" transform="translate(260,101)"/>
<path d="M0 0 C1.32 0 2.64 0 4 0 C3.67 1.65 3.34 3.3 3 5 C1.68 4.67 0.36 4.34 -1 4 C-0.67 2.68 -0.34 1.36 0 0 Z " fill="#9E92C0" transform="translate(315,82)"/>
<path d="M0 0 C0.66 0.309375 1.32 0.61875 2 0.9375 C5.70476015 2.24960255 9.09263991 2.60264135 13 3 C13 3.33 13 3.66 13 4 C9.37 4 5.74 4 2 4 C1.34 2.68 0.68 1.36 0 0 Z " fill="#680E0C" transform="translate(265,250)"/>
<path d="M0 0 C2 2 2 2 2.125 4.625 C2.08375 5.40875 2.0425 6.1925 2 7 C-0.475 6.01 -0.475 6.01 -3 5 C-1.125 1.125 -1.125 1.125 0 0 Z " fill="#EE99B8" transform="translate(276,94)"/>
<path d="M0 0 C0.33 0.99 0.66 1.98 1 3 C0.00390625 4.82421875 0.00390625 4.82421875 -1.4375 6.6875 C-1.91058594 7.31011719 -2.38367188 7.93273438 -2.87109375 8.57421875 C-3.24363281 9.04472656 -3.61617187 9.51523438 -4 10 C-4.33 9.01 -4.66 8.02 -5 7 C-4.00390625 5.17578125 -4.00390625 5.17578125 -2.5625 3.3125 C-2.08941406 2.68988281 -1.61632812 2.06726562 -1.12890625 1.42578125 C-0.75636719 0.95527344 -0.38382813 0.48476563 0 0 Z " fill="#771C1E" transform="translate(194,56)"/>
<path d="M0 0 C0.66 0.33 1.32 0.66 2 1 C-0.64 3.97 -3.28 6.94 -6 10 C-6.33 9.01 -6.66 8.02 -7 7 C-4.89921489 3.92385037 -3.11378405 2.07585603 0 0 Z " fill="#872B31" transform="translate(235,42)"/>
<path d="M0 0 C2.97 0.33 5.94 0.66 9 1 C7.35 2.98 5.7 4.96 4 7 C3.896875 6.401875 3.79375 5.80375 3.6875 5.1875 C3.05822228 2.59565628 3.05822228 2.59565628 0 0 Z " fill="#7B2425" transform="translate(277,32)"/>
<path d="M0 0 C3.24732932 1.62366466 3.70155136 4.75387839 5 8 C4.34 8.66 3.68 9.32 3 10 C0.59185923 6.48812804 -0.36629408 4.27343092 0 0 Z " fill="#732725" transform="translate(261,242)"/>
<path d="M0 0 C0.66 0.33 1.32 0.66 2 1 C2 2.65 2 4.3 2 6 C1.34 6 0.68 6 0 6 C-0.33 6.66 -0.66 7.32 -1 8 C-1.33 5.69 -1.66 3.38 -2 1 C-1.34 0.67 -0.68 0.34 0 0 Z " fill="#813432" transform="translate(306,177)"/>
<path d="M0 0 C3.29714793 0.32971479 4.6226839 0.6226839 7 3 C4.21176345 4.0326802 3.1322726 4.04509293 0.25 3.0625 C-0.4925 2.711875 -1.235 2.36125 -2 2 C-1.34 1.34 -0.68 0.68 0 0 Z " fill="#781F1E" transform="translate(270,98)"/>
<path d="M0 0 C0.66 0.33 1.32 0.66 2 1 C-0.64 3.64 -3.28 6.28 -6 9 C-6.33 8.01 -6.66 7.02 -7 6 C-4.69 4.02 -2.38 2.04 0 0 Z " fill="#903C41" transform="translate(211,36)"/>
<path d="M0 0 C0 2 0 4 0 6 C-2.31 6.33 -4.62 6.66 -7 7 C-4.66666667 4.66666667 -2.33333333 2.33333333 0 0 Z " fill="#F09AB5" transform="translate(267,137)"/>
<path d="M0 0 C-0.33 1.65 -0.66 3.3 -1 5 C-3.97 4.505 -3.97 4.505 -7 4 C-3.375 0 -3.375 0 0 0 Z " fill="#8C6079" transform="translate(313,85)"/>
<path d="M0 0 C1.98 0.99 1.98 0.99 4 2 C3.34 3.65 2.68 5.3 2 7 C1.34 7 0.68 7 0 7 C0 4.69 0 2.38 0 0 Z " fill="#E891AA" transform="translate(247,99)"/>
<path d="M0 0 C2.31 0.66 4.62 1.32 7 2 C5.25 3.125 5.25 3.125 3 4 C0.75 3.125 0.75 3.125 -1 2 C-0.67 1.34 -0.34 0.68 0 0 Z " fill="#F59FBE" transform="translate(307,32)"/>
<path d="M0 0 C0.33 0 0.66 0 1 0 C0.67 2.97 0.34 5.94 0 9 C-0.66 9 -1.32 9 -2 9 C-1.125 2.25 -1.125 2.25 0 0 Z " fill="#722525" transform="translate(212,222)"/>
<path d="M0 0 C-2.75924185 1.80411967 -3.88972103 2.0127245 -7.25 1.625 C-8.1575 1.41875 -9.065 1.2125 -10 1 C-6.42181037 -1.33958553 -4.07775191 -0.9267618 0 0 Z " fill="#8E4E4C" transform="translate(263,217)"/>
<path d="M0 0 C-0.8125 1.9375 -0.8125 1.9375 -2 4 C-2.99 4.33 -3.98 4.66 -5 5 C-5 3.68 -5 2.36 -5 1 C-3 0 -3 0 0 0 Z " fill="#660B09" transform="translate(315,171)"/>
</svg>
