<?xml version="1.0" encoding="UTF-8"?>
<svg version="1.1" xmlns="http://www.w3.org/2000/svg" width="498" height="281">
<path d="M0 0 C164.34 0 328.68 0 498 0 C498 92.73 498 185.46 498 281 C333.66 281 169.32 281 0 281 C0 188.27 0 95.54 0 0 Z " fill="#FCFCFB" transform="translate(0,0)"/>
<path d="M0 0 C4.24984582 1.29449327 7.14924858 -0.38712429 10.96875 -2.296875 C19.77849575 -5.09997592 28.37845345 -2.39857607 36.71875 0.828125 C40.15625 2.640625 40.15625 2.640625 42.71875 4.828125 C43.48251953 5.47974609 43.48251953 5.47974609 44.26171875 6.14453125 C49.70484398 11.50701759 51.11518053 18.5554658 52.71875 25.828125 C52.71875 26.488125 52.71875 27.148125 52.71875 27.828125 C56.34875 27.828125 59.97875 27.828125 63.71875 27.828125 C63.68394531 29.03210937 63.64914062 30.23609375 63.61328125 31.4765625 C63.5851472 33.05206942 63.55784663 34.62759138 63.53125 36.203125 C63.50611328 36.9971875 63.48097656 37.79125 63.45507812 38.609375 C63.42870595 40.68398648 63.56388538 42.75913365 63.71875 44.828125 C64.70875 45.488125 65.69875 46.148125 66.71875 46.828125 C66.12005068 50.34548349 65.16534742 53.3232808 63.71875 56.578125 C62.32652707 59.92044743 61.51231628 62.65441654 61.34375 66.265625 C60.91178712 72.21828416 57.74960578 76.82262075 54.71875 81.828125 C51.26479754 87.64146752 48.44908615 93.64010905 45.71875 99.828125 C45.05875 99.828125 44.39875 99.828125 43.71875 99.828125 C42.92433928 97.95428597 42.13335026 96.07899614 41.34375 94.203125 C40.90289062 93.15898438 40.46203125 92.11484375 40.0078125 91.0390625 C36.40998134 82.07719216 36.40998134 82.07719216 36.71875 76.828125 C35.39875 76.828125 34.07875 76.828125 32.71875 76.828125 C32.821875 77.611875 32.925 78.395625 33.03125 79.203125 C32.2407639 88.37276375 26.1248662 95.61999031 19.71875 101.828125 C18.72875 102.323125 18.72875 102.323125 17.71875 102.828125 C18.50378906 103.09625 19.28882813 103.364375 20.09765625 103.640625 C28.31380706 106.70529966 33.93589851 110.15900524 37.875 118.18359375 C39.89075768 124.50150091 39.87284447 132.24885584 37.09375 138.328125 C34.84632151 142.07120132 32.36355597 144.42255306 28.71875 146.828125 C25.34375 147.640625 25.34375 147.640625 22.71875 147.828125 C22.88375 148.983125 23.04875 150.138125 23.21875 151.328125 C25.04590998 168.75432244 21.79609334 183.06659413 16.21875 199.453125 C15.93443115 200.29456055 15.6501123 201.13599609 15.35717773 202.00292969 C13.67111671 206.77634084 11.72882896 210.70388593 8.71875 214.828125 C8.038125 215.900625 7.3575 216.973125 6.65625 218.078125 C4.71875 220.828125 4.71875 220.828125 1.71875 222.828125 C-3.76669747 223.38596712 -7.45277565 222.69673394 -12.421875 220.38671875 C-16.03189135 217.36067563 -17.99715971 213.96047575 -18.61279297 209.33959961 C-18.70989546 206.57469428 -18.68003966 203.84322918 -18.59375 201.078125 C-18.58408203 200.13324219 -18.57441406 199.18835938 -18.56445312 198.21484375 C-18.45199724 191.34036673 -18.45199724 191.34036673 -17.28125 187.828125 C-20.7030406 188.23873987 -23.82202798 188.65785167 -27.0625 189.859375 C-30.74729084 190.96838972 -33.81690279 191.02556551 -37.65625 190.953125 C-38.90148437 190.93507812 -40.14671875 190.91703125 -41.4296875 190.8984375 C-42.37070313 190.87523437 -43.31171875 190.85203125 -44.28125 190.828125 C-44.343125 192.045 -44.405 193.261875 -44.46875 194.515625 C-45.52240993 203.66658934 -48.9667284 212.82903342 -55.45703125 219.48828125 C-57.28125 220.828125 -57.28125 220.828125 -60.84375 221.578125 C-65.6971148 220.51920904 -68.71689497 219.17707915 -71.54296875 214.93359375 C-77.82056087 202.00395664 -74.21803102 186.88628706 -70.28125 173.828125 C-70.94125 173.828125 -71.60125 173.828125 -72.28125 173.828125 C-76.51552435 164.90737225 -78.28125 155.69913857 -78.28125 145.828125 C-79.43625 145.910625 -80.59125 145.993125 -81.78125 146.078125 C-87.78062435 146.06748781 -92.23759004 143.8354209 -96.4765625 139.671875 C-98.73894535 136.10690808 -98.96863085 133.1198054 -98.90625 129.015625 C-98.90020752 127.95202759 -98.90020752 127.95202759 -98.89404297 126.86694336 C-98.68454328 121.40803377 -97.42512398 118.10943578 -93.7890625 114.11328125 C-92.28125 112.828125 -92.28125 112.828125 -90.28125 111.828125 C-90.87724271 108.385963 -91.77412795 105.40664821 -93.15625 102.203125 C-97.37410829 91.91155077 -99.468441 81.68958409 -99.40625 70.578125 C-99.41011719 69.87171875 -99.41398438 69.1653125 -99.41796875 68.4375 C-99.41202317 65.29823196 -99.28116484 62.82786951 -98.28125 59.828125 C-99.89 59.8590625 -99.89 59.8590625 -101.53125 59.890625 C-104.42915424 59.8423266 -106.56737141 59.69656615 -109.28125 58.828125 C-108.62125 57.508125 -107.96125 56.188125 -107.28125 54.828125 C-106.62125 54.828125 -105.96125 54.828125 -105.28125 54.828125 C-105.00893555 54.23370605 -104.73662109 53.63928711 -104.45605469 53.02685547 C-103.31244299 50.8865049 -102.13198701 49.41342412 -100.484375 47.6484375 C-96.99106434 43.67029766 -94.56170346 39.33136371 -92.03125 34.703125 C-84.32960038 21.03071197 -74.41095733 4.26464711 -58.71484375 -1.0390625 C-56.85751443 -1.55161142 -54.99085445 -2.03130201 -53.1171875 -2.48046875 C-50.30290062 -3.12776683 -50.30290062 -3.12776683 -47.6953125 -4.01953125 C-32.62292399 -8.88524226 -13.96665165 -7.1402545 0 0 Z " fill="#FBA1C7" transform="translate(279.28125,32.171875)"/>
<path d="M0 0 C8.48170749 0.70828455 13.34717996 3.70318781 19 10 C23.02640005 15.36853339 22.72017411 21.55232352 22 28 C20.96736568 32.46010142 19.429732 35.05683808 15.578125 37.59765625 C9.0198468 41 9.0198468 41 6 41 C5.67386719 40.04738281 5.34773438 39.09476563 5.01171875 38.11328125 C4.57060497 36.84625231 4.12918229 35.57933087 3.6875 34.3125 C3.25824219 33.07113281 2.82898438 31.82976562 2.38671875 30.55078125 C1.16938209 27.43371357 -0.17822703 24.79409755 -2 22 C-1.0429738 24.72963132 -0.08442654 27.45871242 0.875 30.1875 C1.14441406 30.95642578 1.41382813 31.72535156 1.69140625 32.51757812 C2.79685653 35.65867465 3.91062515 38.77837452 5.15625 41.8671875 C9.59317591 53.08275021 7.20577946 66.82447401 4 78 C3.81775879 78.63728027 3.63551758 79.27456055 3.44775391 79.93115234 C-0.10725795 92.20589253 -3.8322371 104.91604639 -12 115 C-15.07194908 116.53597454 -17.60244293 116.2265038 -21 116 C-26.17310011 114.17419996 -28.37163287 111.76999961 -31 107 C-33.7688528 98.01498099 -32.154483 86.308966 -28 78 C-28.60585938 78.18175781 -29.21171875 78.36351562 -29.8359375 78.55078125 C-31.6104811 79.08314433 -33.38666723 79.61004919 -35.1640625 80.1328125 C-36.92179737 80.67030167 -38.66987711 81.24220313 -40.3984375 81.8671875 C-47.44693411 84.32596539 -54.57978814 84.92412895 -62 84 C-64.91796875 82.4765625 -64.91796875 82.4765625 -67 81 C-67 81.66 -67 82.32 -67 83 C-65.02 83.66 -63.04 84.32 -61 85 C-61.9762777 95.49498528 -64.78427602 106.83803192 -73 114 C-76.125 114.875 -76.125 114.875 -79 114 C-83.5618403 110.6051421 -85.92398122 106.52080403 -87 101 C-88.02299157 89.78451929 -87.12721568 77.25443135 -82 67 C-82.61488281 66.96132812 -83.22976562 66.92265625 -83.86328125 66.8828125 C-86 66 -86 66 -87.23046875 63.3046875 C-87.54628906 62.17289063 -87.86210937 61.04109375 -88.1875 59.875 C-88.51105469 58.75867188 -88.83460938 57.64234375 -89.16796875 56.4921875 C-90.62043954 50.39590165 -91.12280002 44.57720614 -91.09765625 38.31640625 C-91.0962413 37.61603745 -91.09482635 36.91566864 -91.09336853 36.19407654 C-91.08782477 33.98350534 -91.07528326 31.77303996 -91.0625 29.5625 C-91.05747771 28.05273585 -91.05291609 26.54297009 -91.04882812 25.03320312 C-91.03787387 21.35543507 -91.0206489 17.67772788 -91 14 C-91.66 14 -92.32 14 -93 14 C-93 12.35 -93 10.7 -93 9 C-92.2884375 9.6496875 -92.2884375 9.6496875 -91.5625 10.3125 C-87.96669395 12.68046984 -84.10008613 13.76471764 -80 15 C-80.26554688 14.40832031 -80.53109375 13.81664062 -80.8046875 13.20703125 C-82.61136615 9.1650823 -84.40126853 5.1300563 -86 1 C-84.824375 1.268125 -83.64875 1.53625 -82.4375 1.8125 C-81.18453125 2.08320313 -81.18453125 2.08320313 -79.90625 2.359375 C-77.90021079 2.80156644 -75.90029329 3.27214964 -73.90625 3.765625 C-62.03031348 6.49388069 -50.14209737 6.72695743 -38 7 C-38 7.66 -38 8.32 -38 9 C-27.23362124 7.30537954 -27.23362124 7.30537954 -18 2 C-18.59970046 5.69046437 -19.6296435 8.66554749 -21.3125 12 C-21.92544922 13.2375 -21.92544922 13.2375 -22.55078125 14.5 C-24.13508441 17.23302972 -25.97412963 19.5810503 -28 22 C-19.31334631 20.60960574 -12.62501592 19.07425584 -7 12 C-4.45697467 8.10264317 -2.16412882 4.11860766 0 0 Z " fill="#FBFAF9" transform="translate(294,137)"/>
<path d="M0 0 C6.26730937 -0.71219425 10.44574784 1.32522035 16.03515625 4.1015625 C20.47157041 5.44593043 23.26020609 3.86989695 27.25 1.875 C36.05974575 -0.92810092 44.65970345 1.77329893 53 5 C56.4375 6.8125 56.4375 6.8125 59 9 C59.76376953 9.65162109 59.76376953 9.65162109 60.54296875 10.31640625 C65.98609398 15.67889259 67.39643053 22.7273408 69 30 C69 30.66 69 31.32 69 32 C72.63 32 76.26 32 80 32 C79.96519531 33.20398437 79.93039062 34.40796875 79.89453125 35.6484375 C79.8663972 37.22394442 79.83909663 38.79946638 79.8125 40.375 C79.78736328 41.1690625 79.76222656 41.963125 79.73632812 42.78125 C79.70995595 44.85586148 79.84513538 46.93100865 80 49 C80.99 49.66 81.98 50.32 83 51 C82.40130068 54.51735849 81.44659742 57.4951558 80 60.75 C78.60777707 64.09232243 77.79356628 66.82629154 77.625 70.4375 C77.19303712 76.39015916 74.03085578 80.99449575 71 86 C67.54604754 91.81334252 64.73033615 97.81198405 62 104 C61.34 104 60.68 104 60 104 C59.20558928 102.12616097 58.41460026 100.25087114 57.625 98.375 C57.18414062 97.33085938 56.74328125 96.28671875 56.2890625 95.2109375 C52.69123134 86.24906716 52.69123134 86.24906716 53 81 C51.68 81 50.36 81 49 81 C49.103125 81.78375 49.20625 82.5675 49.3125 83.375 C48.5220139 92.54463875 42.4061162 99.79186531 36 106 C35.01 106.495 35.01 106.495 34 107 C34.78503906 107.268125 35.57007813 107.53625 36.37890625 107.8125 C44.59505706 110.87717466 50.21714851 114.33088024 54.15625 122.35546875 C56.17200768 128.67337591 56.15409447 136.42073084 53.375 142.5 C51.12757151 146.24307632 48.64480597 148.59442806 45 151 C41.625 151.8125 41.625 151.8125 39 152 C39.165 153.155 39.33 154.31 39.5 155.5 C41.32715998 172.92619744 38.07734334 187.23846913 32.5 203.625 C32.21568115 204.46643555 31.9313623 205.30787109 31.63842773 206.17480469 C29.95236671 210.94821584 28.01007896 214.87576093 25 219 C24.319375 220.0725 23.63875 221.145 22.9375 222.25 C21 225 21 225 18 227 C12.51455253 227.55784212 8.82847435 226.86860894 3.859375 224.55859375 C0.24935865 221.53255063 -1.71590971 218.13235075 -2.33154297 213.51147461 C-2.42864546 210.74656928 -2.39878966 208.01510418 -2.3125 205.25 C-2.30283203 204.30511719 -2.29316406 203.36023438 -2.28320312 202.38671875 C-2.17074724 195.51224173 -2.17074724 195.51224173 -1 192 C-4.4217906 192.41061487 -7.54077798 192.82972667 -10.78125 194.03125 C-14.46604084 195.14026472 -17.53565279 195.19744051 -21.375 195.125 C-22.62023437 195.10695312 -23.86546875 195.08890625 -25.1484375 195.0703125 C-26.08945313 195.04710937 -27.03046875 195.02390625 -28 195 C-28.061875 196.216875 -28.12375 197.43375 -28.1875 198.6875 C-29.24115993 207.83846434 -32.6854784 217.00090842 -39.17578125 223.66015625 C-41 225 -41 225 -44.5625 225.75 C-49.4158648 224.69108404 -52.43564497 223.34895415 -55.26171875 219.10546875 C-61.53931087 206.17583164 -57.93678102 191.05816206 -54 178 C-54.66 178 -55.32 178 -56 178 C-60.23427435 169.07924725 -62 159.87101357 -62 150 C-63.155 150.0825 -64.31 150.165 -65.5 150.25 C-71.49937435 150.23936281 -75.95634004 148.0072959 -80.1953125 143.84375 C-82.45769535 140.27878308 -82.68738085 137.2916804 -82.625 133.1875 C-82.61895752 132.12390259 -82.61895752 132.12390259 -82.61279297 131.03881836 C-82.40329328 125.57990877 -81.14387398 122.28131078 -77.5078125 118.28515625 C-76 117 -76 117 -74 116 C-74.59599271 112.557838 -75.49287795 109.57852321 -76.875 106.375 C-81.09285829 96.08342577 -83.187191 85.86145909 -83.125 74.75 C-83.12886719 74.04359375 -83.13273438 73.3371875 -83.13671875 72.609375 C-83.13077317 69.47010696 -82.99991484 66.99974451 -82 64 C-83.60875 64.0309375 -83.60875 64.0309375 -85.25 64.0625 C-88.14790424 64.0142016 -90.28612141 63.86844115 -93 63 C-92.34 61.68 -91.68 60.36 -91 59 C-90.34 59 -89.68 59 -89 59 C-88.72768555 58.40558105 -88.45537109 57.81116211 -88.17480469 57.19873047 C-87.03119299 55.0583799 -85.85073701 53.58529912 -84.203125 51.8203125 C-80.70981434 47.84217266 -78.28045346 43.50323871 -75.75 38.875 C-69.46517436 27.71781468 -62.40421592 17.79089749 -53 9 C-52.34 9.33 -51.68 9.66 -51 10 C-51.46148437 10.40347656 -51.92296875 10.80695312 -52.3984375 11.22265625 C-60.60814177 18.8644956 -66.17019009 28.41435776 -72.0234375 37.87890625 C-82.27250294 54.41101023 -82.27250294 54.41101023 -89 61 C-86.03 61.33 -83.06 61.66 -80 62 C-80.06960937 63.48886719 -80.13921875 64.97773437 -80.2109375 66.51171875 C-80.82497378 85.62734694 -78.40700149 107.10333168 -65 122 C-65 119.69 -65 117.38 -65 115 C-60.98590546 116.37626099 -58.27690874 118.34304697 -55 121 C-54.34 121 -53.68 121 -53 121 C-53.2165625 120.38511719 -53.433125 119.77023438 -53.65625 119.13671875 C-53.9346875 118.32847656 -54.213125 117.52023438 -54.5 116.6875 C-54.7784375 115.88699219 -55.056875 115.08648437 -55.34375 114.26171875 C-56 112 -56 112 -56 109 C-57.051875 108.79375 -58.10375 108.5875 -59.1875 108.375 C-63.64407236 107.14310195 -65.35843582 104.68218037 -68 101 C-65.56570238 102.16846286 -63.33603874 103.42212107 -61.05078125 104.875 C-45.24402318 113.87700913 -22.67287896 115.14966829 -5 113 C0.70480901 111.05128215 3.66886065 107.97002942 7 103 C8.98822085 98.76263693 10.54648896 94.44603378 12 90 C12.23589844 89.30390625 12.47179687 88.6078125 12.71484375 87.890625 C14.0470402 83.65093409 14.53671274 79.40122898 15 75 C11.7 74.34 8.4 73.68 5 73 C5.804375 73.804375 6.60875 74.60875 7.4375 75.4375 C11.03779054 79.03779054 11.17415227 79.54881615 11.25 84.6875 C11.20963878 89.53661211 10.88510861 92.93947677 8 97 C4.29444345 99.47037103 1.29821421 99.67311656 -3 99 C-8.66176471 96.01470588 -8.66176471 96.01470588 -10 92 C-10.17143087 89.71238153 -10.26643463 87.41857031 -10.3125 85.125 C-10.36857422 83.30355469 -10.36857422 83.30355469 -10.42578125 81.4453125 C-9.93216102 77.45106437 -8.75442353 75.85764651 -6 73 C-7.485 72.505 -7.485 72.505 -9 72 C-9.37125 72.86625 -9.37125 72.86625 -9.75 73.75 C-11.16683317 76.3002997 -12.87627537 78.01785701 -15 80 C-15.66 79.67 -16.32 79.34 -17 79 C-17.625 76.9375 -17.625 76.9375 -18 75 C-18.99 76.65 -19.98 78.3 -21 80 C-22.45903258 79.69078116 -23.91720722 79.37751201 -25.375 79.0625 C-26.18710938 78.88847656 -26.99921875 78.71445313 -27.8359375 78.53515625 C-30 78 -30 78 -32 77 C-32.47179687 77.81404297 -32.47179687 77.81404297 -32.953125 78.64453125 C-37.54848881 86.32654003 -37.54848881 86.32654003 -41 88 C-44.90299432 88.59393392 -46.67707807 88.17095867 -50.1875 86.3125 C-53.18746963 83.8458583 -54.61408608 82.61877522 -56 79 C-56.23398604 75.31861966 -56.17415011 71.68295229 -56 68 C-58.11460833 69.86423387 -60.21621478 71.74034825 -62.3125 73.625 C-62.90740234 74.14707031 -63.50230469 74.66914062 -64.11523438 75.20703125 C-67.72287209 78.47204415 -70.32326345 81.31500082 -72 86 C-72.15256441 88.98238848 -72.15256441 88.98238848 -71.6875 91.875 C-71.56761719 92.84179688 -71.44773438 93.80859375 -71.32421875 94.8046875 C-71.21722656 95.52914062 -71.11023438 96.25359375 -71 97 C-73.07776754 95.30802484 -73.92301562 94.40295429 -74.43359375 91.73046875 C-74.44250632 85.92838862 -73.92385772 82.56015897 -70 78 C-69.14019531 77.28714844 -68.28039062 76.57429688 -67.39453125 75.83984375 C-64.34710382 72.2256843 -64.3419434 69.39023147 -64.375 64.875 C-63.89147219 47.99987927 -57.57143771 30.00704883 -45.09765625 18.19921875 C-40.41858748 14.31698149 -35.98855743 12.80401928 -30 12 C-31.38080403 14.76160806 -32.81175451 14.80233529 -35.6875 15.8125 C-46.57671108 20.05665908 -51.53103822 28.25494254 -56.125 38.5625 C-60.3287622 48.84003024 -61.48786033 60.0743158 -63 71 C-62.05125 70.175 -61.1025 69.35 -60.125 68.5 C-57.25 66 -57.25 66 -55 66 C-54.67 64.35 -54.34 62.7 -54 61 C-54.99 60.505 -54.99 60.505 -56 60 C-55.01 59.67 -54.02 59.34 -53 59 C-51.40899614 56.45966787 -49.96396458 53.95399167 -48.5625 51.3125 C-45.90062507 46.37927817 -43.18963815 41.6137135 -40 37 C-39 40 -39 40 -39.78857422 41.85351562 C-40.2063916 42.53091797 -40.62420898 43.20832031 -41.0546875 43.90625 C-41.72951172 45.02193359 -41.72951172 45.02193359 -42.41796875 46.16015625 C-43.13919922 47.31837891 -43.13919922 47.31837891 -43.875 48.5 C-44.81228349 50.02978967 -45.74727759 51.560985 -46.6796875 53.09375 C-47.09976074 53.77115234 -47.51983398 54.44855469 -47.95263672 55.14648438 C-49.14707888 57.12223732 -49.14707888 57.12223732 -50 60 C-47.69 60.33 -45.38 60.66 -43 61 C-43 56.38 -43 51.76 -43 47 C-42.67 47 -42.34 47 -42 47 C-41.91363281 48.09699219 -41.82726562 49.19398437 -41.73828125 50.32421875 C-41.59751928 51.77875906 -41.45552705 53.23318067 -41.3125 54.6875 C-41.23225586 55.7693457 -41.23225586 55.7693457 -41.15039062 56.87304688 C-40.5913352 62.19622676 -39.15818594 64.39842163 -35 68 C-34.505 69.3303125 -34.505 69.3303125 -34 70.6875 C-33.18143319 73.26117134 -33.18143319 73.26117134 -30.375 74.3125 C-29.59125 74.539375 -28.8075 74.76625 -28 75 C-28.2165625 74.47792969 -28.433125 73.95585938 -28.65625 73.41796875 C-31.02473189 67.156843 -31.33571664 61.652163 -31 55 C-30.67 55 -30.34 55 -30 55 C-29.90203125 55.85722656 -29.8040625 56.71445313 -29.703125 57.59765625 C-28.81592573 64.38167135 -27.79533768 69.30699349 -24 75 C-24 75.66 -24 76.32 -24 77 C-23.34 77 -22.68 77 -22 77 C-21.731875 76.319375 -21.46375 75.63875 -21.1875 74.9375 C-20 72 -20 72 -18.5 68.96875 C-16.49907885 64.31135965 -16.2055424 59.57108613 -15.8125 54.5625 C-15.73064453 53.64017578 -15.64878906 52.71785156 -15.56445312 51.76757812 C-15.36581083 49.51240384 -15.17793147 47.25688658 -15 45 C-14.67 45 -14.34 45 -14 45 C-13.81632653 63.73469388 -13.81632653 63.73469388 -14.87890625 71.0546875 C-15.01452111 73.23327464 -14.62934909 74.9208171 -14 77 C-11.7226499 74.18490007 -11.7226499 74.18490007 -12 71 C-11.01 70.67 -10.02 70.34 -9 70 C-8.00251246 67.57570146 -8.00251246 67.57570146 -7.375 64.6875 C-7.13523437 63.72199219 -6.89546875 62.75648437 -6.6484375 61.76171875 C-6.43445313 60.85035156 -6.22046875 59.93898437 -6 59 C-5.81050781 58.36320312 -5.62101562 57.72640625 -5.42578125 57.0703125 C-3.88907159 49.59823802 -4.28416874 41.12905706 -7 34 C-6.34 34 -5.68 34 -5 34 C-2.66950157 39.1906556 -1.74535432 43.69868854 -1.1875 49.375 C-0.33700119 56.3672156 1.30481719 61.65537014 6 67 C8.30459041 68.79192685 10.29683931 69.80437123 13 71 C13.66 71.33 14.32 71.66 15 72 C11.80255215 43.592382 11.80255215 43.592382 0 18 C-0.495 17.01 -0.495 17.01 -1 16 C4.53014363 18.22874323 6.45919398 22.86345161 9 28 C17.8393043 48.84856601 19.98453603 74.50390367 13 96 C9.80616421 103.88887514 5.86606891 109.85044831 -1 115 C4.81261371 113.26017005 9.83169994 111.1889511 15 108 C14.20171199 115.82322246 11.46932996 121.68129212 7 128 C13.14551238 127.68212867 16.72947978 126.64768867 21 122 C26.22788852 116.02527027 28.06546768 109.62238803 30 102 C30.30164063 100.87335938 30.60328125 99.74671875 30.9140625 98.5859375 C37.07902947 71.67902556 33.3780651 42.86132295 19.34765625 18.99609375 C15.75816512 13.67948514 11.88970514 8.78101626 6 6 C-1.80578572 5.18707943 -9.53002298 5.56082383 -17 8 C-17 7.34 -17 6.68 -17 6 C-10.95942424 3.72942897 -5.43681228 2.51085812 1 2 C0.505 1.01 0.505 1.01 0 0 Z M31 109 C30.5875 109.78503906 30.175 110.57007813 29.75 111.37890625 C25.40084729 119.29086934 21.55842581 126.22385934 12.6015625 129.0859375 C9.40920508 129.84074652 6.23837728 130.48166217 3 131 C3.70576172 130.03900391 3.70576172 130.03900391 4.42578125 129.05859375 C7.91784471 124.20730062 11.13591906 119.70874787 13 114 C12.505 112.515 12.505 112.515 12 111 C10.98873047 111.93585938 10.98873047 111.93585938 9.95703125 112.890625 C6.50743022 115.35137078 3.83302129 115.97513621 -0.3125 116.75 C-2.19388672 117.11351562 -2.19388672 117.11351562 -4.11328125 117.484375 C-5.54220703 117.73960937 -5.54220703 117.73960937 -7 118 C-7 117.34 -7 116.68 -7 116 C-7.648479 115.98541748 -8.29695801 115.97083496 -8.96508789 115.95581055 C-21.63677907 115.63831709 -33.6570807 115.05456084 -46 112 C-47.81172642 111.60064095 -49.62411948 111.20427974 -51.4375 110.8125 C-52.613125 110.544375 -53.78875 110.27625 -55 110 C-53.35 114.29 -51.7 118.58 -50 123 C-54.51952959 123 -57.41130581 122.42434651 -60.8125 119.375 C-61.204375 118.92125 -61.59625 118.4675 -62 118 C-62 119.65 -62 121.3 -62 123 C-61.34 123 -60.68 123 -60 123 C-60.01571045 123.89082275 -60.0314209 124.78164551 -60.04760742 125.69946289 C-60.09948327 129.08233745 -60.1367052 132.46477483 -60.16479492 135.84790039 C-60.17965701 137.29751354 -60.19995267 138.74708365 -60.22631836 140.1965332 C-60.44551875 152.57920613 -60.03651088 164.86387853 -54 176 C-53.01 176 -52.02 176 -51 176 C-51.27714844 176.79664063 -51.55429688 177.59328125 -51.83984375 178.4140625 C-52.20207031 179.47367187 -52.56429687 180.53328125 -52.9375 181.625 C-53.29714844 182.66914063 -53.65679687 183.71328125 -54.02734375 184.7890625 C-56.71173042 193.65077272 -57.84081817 205.73941862 -54.8125 214.6875 C-52.86713459 218.24282299 -51.25849421 220.57507408 -48 223 C-45.0610383 223.55753235 -45.0610383 223.55753235 -42 223 C-35.10217495 216.87541868 -31.78251098 207.84219263 -30 199 C-29.87350378 196.24441592 -29.87350378 196.24441592 -30 194 C-31.98 193.34 -33.96 192.68 -36 192 C-36 191.34 -36 190.68 -36 190 C-35.3090625 190.48597656 -34.618125 190.97195312 -33.90625 191.47265625 C-26.69198892 195.26402195 -17.54114881 193.43343842 -10.0625 191.125 C-8.04032678 190.42050094 -6.01949144 189.71215013 -4 189 C-1.67401417 188.30355486 0.66040186 187.65005105 3 187 C2.71125 187.96679688 2.4225 188.93359375 2.125 189.9296875 C-1.72542475 202.82482234 -1.72542475 202.82482234 0.25 215.875 C2.64610717 220.1537628 5.27138253 223.37875973 10 225 C14.86520902 225.54855416 14.86520902 225.54855416 19.125 223.5 C19.74375 222.675 20.3625 221.85 21 221 C21.37640625 220.49855469 21.7528125 219.99710937 22.140625 219.48046875 C33.37069174 203.16844143 40.95364176 177.48637122 37.64477539 157.89697266 C36.48030737 152.33347056 34.78568951 146.99419287 32.9375 141.625 C32.66873047 140.83222656 32.39996094 140.03945312 32.12304688 139.22265625 C31.6283318 137.76441881 31.13175215 136.30681141 30.63256836 134.85009766 C30.08069298 133.23600593 29.53943105 131.61829314 29 130 C30.14973839 132.581658 31.29490359 135.16518307 32.4375 137.75 C32.76298828 138.47960937 33.08847656 139.20921875 33.42382812 139.9609375 C33.73642578 140.66992188 34.04902344 141.37890625 34.37109375 142.109375 C34.65911865 142.75874023 34.94714355 143.40810547 35.24389648 144.07714844 C36.01208157 146.03072471 36.53642793 147.95471205 37 150 C42.89565886 148.42011756 47.09592554 146.96882204 51 142 C53.66379956 136.43624844 53.75622061 131.05764216 53 125 C51.82194433 121.83923456 50.21920045 119.52335482 48 117 C47.49210937 116.4225 46.98421875 115.845 46.4609375 115.25 C41.91502216 110.76871853 37.22557186 109.72652549 31 109 Z " fill="#843737" transform="translate(263,28)"/>
<path d="M0 0 C0.86431641 -0.01160156 1.72863281 -0.02320312 2.61914062 -0.03515625 C9.64722244 -0.00333097 15.45604607 1.01601706 20.9375 5.75 C22.05125 7.049375 22.05125 7.049375 23.1875 8.375 C24.2084375 9.426875 24.2084375 9.426875 25.25 10.5 C31.0134238 19.05217725 32.13456592 27.31515942 30.1875 37.375 C29.38501862 39.68213396 28.53477558 41.32479804 27.1875 43.375 C26.8575 42.715 26.5275 42.055 26.1875 41.375 C26.6825 40.385 26.6825 40.385 27.1875 39.375 C27.94978668 29.49026621 28.06894834 19.25001748 21.421875 11.25 C16.56892503 6.66453546 11.02883427 3.375 4.1875 3.375 C0.6404019 7.02958592 -1.8125 11.1575128 -1.8125 16.375 C-1.63074219 15.83230469 -1.44898438 15.28960937 -1.26171875 14.73046875 C-1.01035156 14.01503906 -0.75898438 13.29960938 -0.5 12.5625 C-0.25636719 11.85480469 -0.01273437 11.14710937 0.23828125 10.41796875 C1.28271258 8.17007745 2.24335827 6.90660434 4.1875 5.375 C9.39420286 4.78556194 12.76140789 5.59582588 17.1875 8.375 C17.8475 9.365 18.5075 10.355 19.1875 11.375 C18.135625 11.601875 17.08375 11.82875 16 12.0625 C11.28926383 13.43963053 8.61181054 16.0209312 6.0625 20.234375 C3.81887679 24.4906602 2.35242574 28.71529702 1.1875 33.375 C4.1780167 36.71057632 7.11934627 38.52583921 11.1875 40.375 C9.95869784 39.0808258 9.95869784 39.0808258 7.1875 37.375 C4.1875 35.375 4.1875 35.375 3.1875 34.375 C3.22202958 30.19692022 3.89291147 26.27717737 5.1875 22.3125 C7.53361231 20.0397037 8.37951003 19.95620699 11.5625 19.75 C15.01911522 19.96323276 16.11896348 20.32732242 19.0625 22.375 C22.13761177 26.71633427 24.1875 31.00098016 24.1875 36.375 C25.1775 35.715 26.1675 35.055 27.1875 34.375 C26.64410208 38.93954251 25.39286179 42.3478176 23.1875 46.375 C27.08570022 44.93731191 27.08570022 44.93731191 30.1875 42.375 C31.4132961 38.41878253 31.87002224 34.49573168 32.1875 30.375 C35.8175 30.375 39.4475 30.375 43.1875 30.375 C43.35553599 35.92018774 43.32593222 40.16257146 41.1875 45.375 C42.5075 46.365 43.8275 47.355 45.1875 48.375 C44.73304036 49.79291408 44.27375056 51.20928046 43.8125 52.625 C43.55726563 53.41390625 43.30203125 54.2028125 43.0390625 55.015625 C42.22259883 57.27775371 41.44830065 59.32506514 40.1875 61.375 C39.1975 61.705 38.2075 62.035 37.1875 62.375 C38.5075 63.365 39.8275 64.355 41.1875 65.375 C39.55504912 71.50439105 36.31086582 76.64093887 33.125 82.0625 C32.02755537 83.9400098 30.93239601 85.8188578 29.83984375 87.69921875 C29.35507568 88.52510498 28.87030762 89.35099121 28.37084961 90.2019043 C27.06585949 92.44663117 27.06585949 92.44663117 26.1875 95.375 C25.1975 95.045 24.2075 94.715 23.1875 94.375 C22.14235926 91.88138252 21.28648584 89.51080564 20.5 86.9375 C20.27505859 86.24333984 20.05011719 85.54917969 19.81835938 84.83398438 C18.1875 79.71338336 18.1875 79.71338336 18.1875 77.375 C17.548125 77.08625 16.90875 76.7975 16.25 76.5 C14.1875 75.375 14.1875 75.375 13.1875 73.375 C13.00316406 74.41398437 12.81882812 75.45296875 12.62890625 76.5234375 C10.3024954 88.17366681 6.02989523 95.28400162 -3.8125 102.375 C-3.48765625 100.80878906 -3.48765625 100.80878906 -3.15625 99.2109375 C3.07109412 67.15397433 -1.7093726 36.2074185 -18.8125 8.375 C-13.3600651 0.90314477 -8.84563208 -0.11716069 0 0 Z " fill="#F9A1C5" transform="translate(298.8125,31.625)"/>
<path d="M0 0 C1.2452606 2.4905212 0.96761907 3.98301117 0.8125 6.75 C0.76306742 11.63676378 1.64872151 14.27635723 5 18 C8.19879429 20.34578248 11.10652889 20.47675156 15 20 C19.79417622 17.21268824 21.17067648 14.00656963 23 9 C26.96 10.32 30.92 11.64 35 13 C35.66 11.35 36.32 9.7 37 8 C37.66 7.34 38.32 6.68 39 6 C39.495 8.97 39.495 8.97 40 12 C43.99996286 10.66667905 44.83782337 8.5042173 47 5 C48.32 5.33 49.64 5.66 51 6 C50.34773438 6.67933594 49.69546875 7.35867187 49.0234375 8.05859375 C46.5302835 11.68281183 46.52252497 13.7073113 46.625 18.0625 C46.63789063 19.27035156 46.65078125 20.47820312 46.6640625 21.72265625 C46.97466969 24.75288216 47.35101559 26.48470132 49 29 C52.05087827 31.34682943 55.37063841 31.41444451 59.09765625 31.32421875 C62.06377883 30.81869888 63.29399373 29.38840878 65 27 C66.6345135 22.09645951 66.64231088 17.11086074 66 12 C63.77009471 8.84777425 63.77009471 8.84777425 61 7 C60.505 6.01 60.505 6.01 60 5 C64.05606165 5.46800711 67.46588679 5.87953208 71 8 C71.29748039 14.23292252 70.40926221 19.12171809 68.375 25 C68.10574707 25.79164551 67.83649414 26.58329102 67.55908203 27.39892578 C65.54966587 33.03953557 63.21881577 37.67331678 59 42 C57.948125 43.2065625 57.948125 43.2065625 56.875 44.4375 C49.5700831 50.52493075 32.77782619 47.65420514 24 47 C19.3716108 46.33826135 14.85626152 45.40889302 10.3125 44.3125 C9.29325439 44.06878662 8.27400879 43.82507324 7.22387695 43.57397461 C-1.1991159 41.34599346 -8.33883833 37.793394 -14 31 C-16.42593981 26.71417301 -17.71176416 23.07113661 -16.828125 18.10546875 C-13.89134692 10.63884901 -6.02583295 4.98413311 0 0 Z " fill="#F5F0EF" transform="translate(207,95)"/>
<path d="M0 0 C6.26730937 -0.71219425 10.44574784 1.32522035 16.03515625 4.1015625 C20.47157041 5.44593043 23.26020609 3.86989695 27.25 1.875 C36.05974575 -0.92810092 44.65970345 1.77329893 53 5 C56.4375 6.8125 56.4375 6.8125 59 9 C59.50917969 9.43441406 60.01835937 9.86882813 60.54296875 10.31640625 C65.98609398 15.67889259 67.39643053 22.7273408 69 30 C69 30.66 69 31.32 69 32 C72.63 32 76.26 32 80 32 C79.96519531 33.20398437 79.93039062 34.40796875 79.89453125 35.6484375 C79.8663972 37.22394442 79.83909663 38.79946638 79.8125 40.375 C79.78736328 41.1690625 79.76222656 41.963125 79.73632812 42.78125 C79.70995595 44.85586148 79.84513538 46.93100865 80 49 C80.99 49.66 81.98 50.32 83 51 C82.40130068 54.51735849 81.44659742 57.4951558 80 60.75 C78.60777707 64.09232243 77.79356628 66.82629154 77.625 70.4375 C77.19303712 76.39015916 74.03085578 80.99449575 71 86 C67.54604754 91.81334252 64.73033615 97.81198405 62 104 C61.34 104 60.68 104 60 104 C59.20558928 102.12616097 58.41460026 100.25087114 57.625 98.375 C57.18414062 97.33085938 56.74328125 96.28671875 56.2890625 95.2109375 C52.69123134 86.24906716 52.69123134 86.24906716 53 81 C51.68 81 50.36 81 49 81 C49.103125 81.78375 49.20625 82.5675 49.3125 83.375 C48.5220139 92.54463875 42.4061162 99.79186531 36 106 C35.01 106.495 35.01 106.495 34 107 C34.78503906 107.268125 35.57007813 107.53625 36.37890625 107.8125 C44.59505706 110.87717466 50.21714851 114.33088024 54.15625 122.35546875 C56.17200768 128.67337591 56.15409447 136.42073084 53.375 142.5 C51.12757151 146.24307632 48.64480597 148.59442806 45 151 C41.625 151.8125 41.625 151.8125 39 152 C39.165 153.155 39.33 154.31 39.5 155.5 C41.32715998 172.92619744 38.07734334 187.23846913 32.5 203.625 C32.21568115 204.46643555 31.9313623 205.30787109 31.63842773 206.17480469 C29.95236671 210.94821584 28.01007896 214.87576093 25 219 C24.319375 220.0725 23.63875 221.145 22.9375 222.25 C21 225 21 225 18 227 C12.51455253 227.55784212 8.82847435 226.86860894 3.859375 224.55859375 C0.24935865 221.53255063 -1.71590971 218.13235075 -2.33154297 213.51147461 C-2.42864546 210.74656928 -2.39878966 208.01510418 -2.3125 205.25 C-2.29799805 203.83267578 -2.29799805 203.83267578 -2.28320312 202.38671875 C-2.17074724 195.51224173 -2.17074724 195.51224173 -1 192 C-4.4217906 192.41061487 -7.54077798 192.82972667 -10.78125 194.03125 C-14.46604084 195.14026472 -17.53565279 195.19744051 -21.375 195.125 C-22.62023437 195.10695312 -23.86546875 195.08890625 -25.1484375 195.0703125 C-26.08945313 195.04710937 -27.03046875 195.02390625 -28 195 C-28.061875 196.216875 -28.12375 197.43375 -28.1875 198.6875 C-29.24115993 207.83846434 -32.6854784 217.00090842 -39.17578125 223.66015625 C-41 225 -41 225 -44.5625 225.75 C-49.4158648 224.69108404 -52.43564497 223.34895415 -55.26171875 219.10546875 C-61.53931087 206.17583164 -57.93678102 191.05816206 -54 178 C-54.66 178 -55.32 178 -56 178 C-59.09866202 171.37384327 -60.47266289 166.32627475 -60 159 C-57.2675405 163.09868925 -56.38578307 167.43919245 -55.09765625 172.1640625 C-54.55431641 173.56785156 -54.55431641 173.56785156 -54 175 C-53.01 175.33 -52.02 175.66 -51 176 C-51.28875 177.11375 -51.5775 178.2275 -51.875 179.375 C-54.94334728 191.75490052 -58.38422446 206.14358315 -52 218 C-49.66715645 221.13727235 -48.58648524 221.86465725 -44.75 222.75 C-43.8425 222.8325 -42.935 222.915 -42 223 C-41.773125 222.484375 -41.54625 221.96875 -41.3125 221.4375 C-40 219 -40 219 -37.59375 215.9375 C-34.59004038 211.76885357 -33.40182126 207.50339406 -32.1875 202.5625 C-31.97158203 201.73556641 -31.75566406 200.90863281 -31.53320312 200.05664062 C-31.0089416 198.04114631 -30.50257922 196.02101005 -30 194 C-30.61875 193.855625 -31.2375 193.71125 -31.875 193.5625 C-34 193 -34 193 -36 192 C-36 191.34 -36 190.68 -36 190 C-35.3090625 190.32226562 -34.618125 190.64453125 -33.90625 190.9765625 C-23.90391618 194.49888973 -13.56362542 191.41371915 -4 188 C-2.5665816 187.5695014 -1.12981583 187.14967788 0.3125 186.75 C1.6428125 186.37875 1.6428125 186.37875 3 186 C3 189.2882462 2.31942989 191.87962188 1.5 195.0625 C-0.57949455 203.96471716 -1.20272455 210.76265988 3 219 C3.33 219.99 3.66 220.98 4 222 C8.93791838 224.34551123 13.66444505 224.2134222 19 224 C19.2475 223.29875 19.495 222.5975 19.75 221.875 C21 219 21 219 22.890625 216.26171875 C33.49911573 199.85784883 40.21582299 174.91772877 36.171875 155.65234375 C35.04429173 150.90684624 33.57070275 146.30241129 32 141.6875 C31.60941406 140.5109082 31.60941406 140.5109082 31.2109375 139.31054688 C29.79009181 135.01218953 29.79009181 135.01218953 27.84765625 130.93676758 C27 129 27 129 28 126 C29.32448399 128.6821555 30.6346159 131.36987287 31.9375 134.0625 C32.49727539 135.19075195 32.49727539 135.19075195 33.06835938 136.34179688 C35.29105065 140.96739764 36.57150667 144.87848444 37 150 C45.09892929 146.74340719 45.09892929 146.74340719 51.25 140.875 C52.5997584 133.90124826 53.61523428 126.93296355 49.875 120.5625 C45.12290627 114.19548863 40.75124316 111.51163054 32.9765625 110.26171875 C31.99816406 110.13216797 31.99816406 110.13216797 31 110 C30.64808594 110.71285156 30.29617188 111.42570312 29.93359375 112.16015625 C25.72626539 120.32215357 21.96246431 127.01171401 12.875 129.9375 C9.50258963 130.83716858 6.4873682 131.10548979 3 131 C4.75 127.125 4.75 127.125 7 126 C7 126.66 7 127.32 7 128 C13.14551238 127.68212867 16.72947978 126.64768867 21 122 C26.22788852 116.02527027 28.06546768 109.62238803 30 102 C30.30164063 100.87335938 30.60328125 99.74671875 30.9140625 98.5859375 C37.07902947 71.67902556 33.3780651 42.86132295 19.34765625 18.99609375 C15.75816512 13.67948514 11.88970514 8.78101626 6 6 C-1.80578572 5.18707943 -9.53002298 5.56082383 -17 8 C-17 7.34 -17 6.68 -17 6 C-10.95942424 3.72942897 -5.43681228 2.51085812 1 2 C0.505 1.01 0.505 1.01 0 0 Z M19 9 C17.54949504 11.13375737 17.54949504 11.13375737 17 13 C17.36351562 13.48726562 17.72703125 13.97453125 18.1015625 14.4765625 C34.362662 37.40888231 38.23914815 68.61249044 33.92260742 95.94970703 C33.33658287 99.31283119 32.69330259 102.6572911 32 106 C34.39513149 104.06547072 36.70637472 102.05364839 39 100 C39.54785156 99.53980469 40.09570312 99.07960938 40.66015625 98.60546875 C46.53305556 92.91281188 47.42622524 84.71149632 49 77 C49.99 78.485 49.99 78.485 51 80 C51.99 80.33 52.98 80.66 54 81 C54.84375 83.51171875 54.84375 83.51171875 55.5 86.6875 C56.52618398 91.24288812 57.65372073 94.97780696 60 99 C60.66 99 61.32 99 62 99 C62.49628906 97.98421875 62.99257813 96.9684375 63.50390625 95.921875 C64.18925475 94.53083118 64.87551837 93.140238 65.5625 91.75 C65.91876465 91.02651367 66.2750293 90.30302734 66.64208984 89.55761719 C69.43218813 83.96261248 72.5331354 78.69586921 75.9453125 73.453125 C77.28602615 71.07067245 77.28602615 71.07067245 76.3046875 68.796875 C74.98472682 66.88024081 74.98472682 66.88024081 73 65 C73.99 65 74.98 65 76 65 C76.89415055 63.25970698 77.76475178 61.5072985 78.625 59.75 C79.11226562 58.77546875 79.59953125 57.8009375 80.1015625 56.796875 C81.2704598 54.08453779 81.2704598 54.08453779 80.2734375 51.703125 C79.09384113 49.86003411 79.09384113 49.86003411 77 49 C77.33 48.195625 77.66 47.39125 78 46.5625 C79.23354399 42.16799953 79.13798918 38.55364304 79 34 C75.37 34 71.74 34 68 34 C67.90525391 35.22976562 67.90525391 35.22976562 67.80859375 36.484375 C66.82026995 45.18162444 66.82026995 45.18162444 64.30859375 47.6875 C62.375 48.75 62.375 48.75 59 50 C59.30035156 49.38511719 59.60070312 48.77023438 59.91015625 48.13671875 C60.48056641 46.92435547 60.48056641 46.92435547 61.0625 45.6875 C61.44535156 44.88699219 61.82820313 44.08648437 62.22265625 43.26171875 C63.29735514 40.87971247 63.29735514 40.87971247 62 38 C61.01 38.495 61.01 38.495 60 39 C59.90203125 38.40832031 59.8040625 37.81664062 59.703125 37.20703125 C58.74648024 32.15165852 57.75233265 28.75233265 54 25 C50.53168398 23.26584199 46.78458678 23.40974335 43 24 C39.7407428 27.15740541 39.17099952 31.50366584 38.8046875 35.9140625 C38.8207878 38.27340841 38.8207878 38.27340841 41.125 40.4375 C43.71539694 41.84532443 46.21233722 43.0442299 49 44 C44.97488434 42.78310457 41.40742883 41.50546238 38 39 C38 31.63353939 40.75516592 24.94511292 45 19 C48.24057317 16.15965698 50.71842526 15.48654258 55 15 C51.17843801 10.97186709 49.16601905 9.23629299 43.5625 8.625 C39.91905492 8.65082939 39.91905492 8.65082939 37.6875 11.125 C35.97785435 14.03772963 34.90610342 16.75312943 34 20 C34 17.76866266 34.46705085 16.23460249 35.1875 14.125 C35.40792969 13.44695313 35.62835938 12.76890625 35.85546875 12.0703125 C37.38561144 9.30247761 39.47056908 7.84636038 42 6 C51.08439588 10.01300983 57.98570238 13.53426652 61.875 23 C63.98419619 30.18367407 64.23753542 39.83627774 62 47 C66.62045415 42.999826 66.73091574 37.42175834 67.375 31.625 C66.57106387 23.85361741 63.58881541 15.63282184 58 10 C50.88624381 4.54754017 44.9521836 3.76482816 36.1875 3.625 C35.31029297 3.58761719 34.43308594 3.55023437 33.52929688 3.51171875 C27.3499821 3.42852678 23.38725962 4.50589081 19 9 Z " fill="#732523" transform="translate(263,28)"/>
<path d="M0 0 C3.63 0 7.26 0 11 0 C11.16803599 5.54518774 11.13843222 9.78757146 9 15 C10.32 15.99 11.64 16.98 13 18 C12.54554036 19.41791408 12.08625056 20.83428046 11.625 22.25 C11.24214844 23.43335938 11.24214844 23.43335938 10.8515625 24.640625 C10.03509883 26.90275371 9.26080065 28.95006514 8 31 C7.01 31.33 6.02 31.66 5 32 C6.32 32.99 7.64 33.98 9 35 C7.36754912 41.12939105 4.12336582 46.26593887 0.9375 51.6875 C-0.15994463 53.5650098 -1.25510399 55.4438578 -2.34765625 57.32421875 C-2.83242432 58.15010498 -3.31719238 58.97599121 -3.81665039 59.8269043 C-5.12164051 62.07163117 -5.12164051 62.07163117 -6 65 C-7.485 64.505 -7.485 64.505 -9 64 C-10.04514074 61.50638252 -10.90101416 59.13580564 -11.6875 56.5625 C-11.91244141 55.86833984 -12.13738281 55.17417969 -12.36914062 54.45898438 C-14 49.33838336 -14 49.33838336 -14 47 C-14.61875 46.71125 -15.2375 46.4225 -15.875 46.125 C-18 45 -18 45 -20 43 C-20.23046875 40.46875 -20.23046875 40.46875 -20.1875 37.5 C-20.18105469 36.5203125 -20.17460937 35.540625 -20.16796875 34.53125 C-20 32 -20 32 -19 30 C-19.53625 30.33 -20.0725 30.66 -20.625 31 C-23.61641148 32.25954167 -25.78432784 32.34952958 -29 32 C-31.46943529 28.29584707 -31.46913089 26.37855495 -31 22 C-27.93534457 18.87752088 -25.38944464 18.63021205 -21.125 18.5 C-16.32631228 18.21464114 -13.18252599 17.48959881 -9 15 C-7.9275 14.7525 -6.855 14.505 -5.75 14.25 C-2.65671867 13.22509823 -2.65671867 13.22509823 -1.6875 9.75 C-0.78511152 4.88469752 -0.78511152 4.88469752 0 0 Z " fill="#85444D" transform="translate(331,62)"/>
<path d="M0 0 C6.26730937 -0.71219425 10.44574784 1.32522035 16.03515625 4.1015625 C20.47157041 5.44593043 23.26020609 3.86989695 27.25 1.875 C36.05974575 -0.92810092 44.65970345 1.77329893 53 5 C56.4375 6.8125 56.4375 6.8125 59 9 C59.50917969 9.43441406 60.01835937 9.86882813 60.54296875 10.31640625 C65.98609398 15.67889259 67.39643053 22.7273408 69 30 C69 30.66 69 31.32 69 32 C72.63 32 76.26 32 80 32 C79.96519531 33.20398437 79.93039062 34.40796875 79.89453125 35.6484375 C79.8663972 37.22394442 79.83909663 38.79946638 79.8125 40.375 C79.78736328 41.1690625 79.76222656 41.963125 79.73632812 42.78125 C79.70995595 44.85586148 79.84513538 46.93100865 80 49 C81.485 49.99 81.485 49.99 83 51 C82.40130068 54.51735849 81.44659742 57.4951558 80 60.75 C78.60777707 64.09232243 77.79356628 66.82629154 77.625 70.4375 C77.19303712 76.39015916 74.03085578 80.99449575 71 86 C67.54604754 91.81334252 64.73033615 97.81198405 62 104 C61.34 104 60.68 104 60 104 C59.20558928 102.12616097 58.41460026 100.25087114 57.625 98.375 C57.18414062 97.33085938 56.74328125 96.28671875 56.2890625 95.2109375 C52.69123134 86.24906716 52.69123134 86.24906716 53 81 C51.68 81 50.36 81 49 81 C49.061875 81.9075 49.12375 82.815 49.1875 83.75 C48.98327924 87.28982642 48.35448165 88.44931155 46 91 C46.47986031 85.43109483 47.29915181 80.32932432 49 75 C49.226875 75.639375 49.45375 76.27875 49.6875 76.9375 C50.85250896 79.27193661 50.85250896 79.27193661 53.625 79.75 C54.40875 79.8325 55.1925 79.915 56 80 C55.01 80.495 55.01 80.495 54 81 C54.9495346 83.81575825 55.90908625 86.62736489 56.875 89.4375 C57.14441406 90.23994141 57.41382813 91.04238281 57.69140625 91.86914062 C57.95566406 92.63291016 58.21992188 93.39667969 58.4921875 94.18359375 C58.73308105 94.89056396 58.97397461 95.59753418 59.22216797 96.32592773 C59.88185759 98.20038805 59.88185759 98.20038805 62 99 C62.1554126 97.92999756 62.1554126 97.92999756 62.31396484 96.83837891 C63.08326412 93.65550581 64.30539101 91.39786733 65.9765625 88.5859375 C66.564375 87.57789062 67.1521875 86.56984375 67.7578125 85.53125 C69.00805388 83.41787126 70.26068011 81.30590164 71.515625 79.1953125 C72.10085938 78.18984375 72.68609375 77.184375 73.2890625 76.1484375 C73.83256348 75.23239746 74.37606445 74.31635742 74.93603516 73.37255859 C76.35270232 70.93022412 76.35270232 70.93022412 75 68 C73.515 67.01 73.515 67.01 72 66 C72.33 65.34 72.66 64.68 73 64 C74.485 64.495 74.485 64.495 76 65 C77.46939453 60.69677317 78.77443263 56.37702633 80 52 C78.68 50.68 77.36 49.36 76 48 C76.66 48 77.32 48 78 48 C78.33 43.38 78.66 38.76 79 34 C75.37 34 71.74 34 68 34 C67.99742187 34.90363281 67.99484375 35.80726562 67.9921875 36.73828125 C67.87699086 40.25177889 67.68393675 43.54982224 67 47 C64.09516913 49.28678175 62.65178542 50 59 50 C59.99 46.37 60.98 42.74 62 39 C61.01 39.66 60.02 40.32 59 41 C58.77213542 39.01432292 58.54427083 37.02864583 58.31640625 35.04296875 C58.02829265 32.80603607 58.02829265 32.80603607 57 30 C54.99983534 28.79117904 54.99983534 28.79117904 53 28 C53.99 27.505 53.99 27.505 55 27 C51.79619983 24.86413322 50.98060033 24.76867825 47.3125 24.875 C46.10013672 24.90207031 46.10013672 24.90207031 44.86328125 24.9296875 C44.24839844 24.95289062 43.63351562 24.97609375 43 25 C40.0981556 31.31897632 40.0981556 31.31897632 40 38 C44.30028584 41.76275011 48.54826913 42.87205568 54 44 C54 44.33 54 44.66 54 45 C47.6563085 45.6748608 43.06085939 43.91675472 38 40 C36.73828125 37.828125 36.73828125 37.828125 36 36 C36.66 36 37.32 36 38 36 C37.9175 35.175 37.835 34.35 37.75 33.5 C38.21217742 27.02951611 41.67988021 21.7381959 46 17 C48.91765 15.0549 50.62537285 14.54723683 54 14 C50.52196927 11.24156184 48.02956736 10.13103585 43.5625 9.5625 C39.78991628 9.62107805 39.78991628 9.62107805 37.625 12.75 C35.06777608 17.86444784 34.86780188 22.07764503 34.9375 27.75 C34.94201172 28.44738281 34.94652344 29.14476563 34.95117188 29.86328125 C34.9628998 31.57555803 34.98083347 33.28779033 35 35 C34.01 34.505 34.01 34.505 33 34 C32.42078697 16.32327636 32.42078697 16.32327636 36 10 C37.89875946 8.04326316 39.76142517 6.59187543 42 5 C42.58136719 5.29648437 43.16273438 5.59296875 43.76171875 5.8984375 C45.12093936 6.5673733 46.49606644 7.20660911 47.89453125 7.7890625 C54.93218599 10.85639063 60.03884981 15.88359999 62.9375 23.0625 C64.79099763 29.48193082 64.2351169 36.3906028 64 43 C66.73867603 33.24346666 66.25248413 26.29512579 62 17 C59.91690066 14.05685185 59.91690066 14.05685185 58 12 C58 11.34 58 10.68 58 10 C50.55268304 5.96603664 44.25725178 4.49338098 35.875 4.5625 C35.00746094 4.54251953 34.13992188 4.52253906 33.24609375 4.50195312 C27.67482368 4.50619306 24.37603959 5.23060764 20 9 C19.34 9.99 18.68 10.98 18 12 C15.50221157 10.88987181 13.87896037 9.88121857 11.90625 7.9453125 C7.92093671 5.27772376 4.8691529 5.47809429 0.1875 5.625 C-0.58142578 5.62628906 -1.35035156 5.62757812 -2.14257812 5.62890625 C-7.37584057 5.70839884 -11.96947148 6.56598389 -17 8 C-17 7.34 -17 6.68 -17 6 C-10.95942424 3.72942897 -5.43681228 2.51085812 1 2 C0.67 1.34 0.34 0.68 0 0 Z " fill="#792022" transform="translate(263,28)"/>
<path d="M0 0 C-1.39412109 0.60134766 -1.39412109 0.60134766 -2.81640625 1.21484375 C-10.85474617 4.84187307 -16.4422766 8.16218994 -21 16 C-21.52980469 16.88429688 -22.05960938 17.76859375 -22.60546875 18.6796875 C-29.26933413 30.82273109 -31.3848718 44.39892046 -33 58 C-32.05125 57.175 -31.1025 56.35 -30.125 55.5 C-27.25 53 -27.25 53 -25 53 C-24.67 51.35 -24.34 49.7 -24 48 C-24.66 47.67 -25.32 47.34 -26 47 C-24.515 46.505 -24.515 46.505 -23 46 C-21.40899614 43.45966787 -19.96396458 40.95399167 -18.5625 38.3125 C-15.90062507 33.37927817 -13.18963815 28.6137135 -10 24 C-9 27 -9 27 -9.78857422 28.85351562 C-10.41530029 29.86961914 -10.41530029 29.86961914 -11.0546875 30.90625 C-11.72951172 32.02193359 -11.72951172 32.02193359 -12.41796875 33.16015625 C-13.13919922 34.31837891 -13.13919922 34.31837891 -13.875 35.5 C-14.81228349 37.02978967 -15.74727759 38.560985 -16.6796875 40.09375 C-17.09976074 40.77115234 -17.51983398 41.44855469 -17.95263672 42.14648438 C-19.14707888 44.12223732 -19.14707888 44.12223732 -20 47 C-16.535 47.495 -16.535 47.495 -13 48 C-13 43.38 -13 38.76 -13 34 C-12.67 34 -12.34 34 -12 34 C-11.91363281 35.09699219 -11.82726562 36.19398437 -11.73828125 37.32421875 C-11.59751928 38.77875906 -11.45552705 40.23318067 -11.3125 41.6875 C-11.23225586 42.7693457 -11.23225586 42.7693457 -11.15039062 43.87304688 C-10.5913352 49.19622676 -9.15818594 51.39842163 -5 55 C-4.67 55.886875 -4.34 56.77375 -4 57.6875 C-3.18143319 60.26117134 -3.18143319 60.26117134 -0.375 61.3125 C0.40875 61.539375 1.1925 61.76625 2 62 C1.7834375 61.47792969 1.566875 60.95585938 1.34375 60.41796875 C-1.02473189 54.156843 -1.33571664 48.652163 -1 42 C-0.67 42 -0.34 42 0 42 C0.09796875 42.85722656 0.1959375 43.71445313 0.296875 44.59765625 C1.18407427 51.38167135 2.20466232 56.30699349 6 62 C6 62.66 6 63.32 6 64 C6.66 64 7.32 64 8 64 C8.268125 63.319375 8.53625 62.63875 8.8125 61.9375 C10 59 10 59 11.5 55.96875 C13.50092115 51.31135965 13.7944576 46.57108613 14.1875 41.5625 C14.26935547 40.64017578 14.35121094 39.71785156 14.43554688 38.76757812 C14.63418917 36.51240384 14.82206853 34.25688658 15 32 C15.33 32 15.66 32 16 32 C16.18367347 50.73469388 16.18367347 50.73469388 15.12109375 58.0546875 C14.98547889 60.23327464 15.37065091 61.9208171 16 64 C18.2773501 61.18490007 18.2773501 61.18490007 18 58 C18.99 57.67 19.98 57.34 21 57 C22.22520264 53.99152582 22.22520264 53.99152582 23 51 C23.33 51.99 23.66 52.98 24 54 C23.505 54.99 23.505 54.99 23 56 C24.15628906 55.96519531 24.15628906 55.96519531 25.3359375 55.9296875 C26.33882813 55.91164062 27.34171875 55.89359375 28.375 55.875 C29.37273437 55.85179687 30.37046875 55.82859375 31.3984375 55.8046875 C34 56 34 56 36 58 C34.57107422 57.98646484 34.57107422 57.98646484 33.11328125 57.97265625 C26.13756684 57.8204452 26.13756684 57.8204452 20.0625 60.58984375 C18.62775344 62.71182297 18.62775344 62.71182297 17 66 C16.01 66.33 15.02 66.66 14 67 C13.34 65.35 12.68 63.7 12 62 C11.01 63.65 10.02 65.3 9 67 C7.54096742 66.69078116 6.08279278 66.37751201 4.625 66.0625 C3.81289062 65.88847656 3.00078125 65.71445313 2.1640625 65.53515625 C-0 65 -0 65 -2 64 C-2.47179687 64.81404297 -2.47179687 64.81404297 -2.953125 65.64453125 C-7.54848881 73.32654003 -7.54848881 73.32654003 -11 75 C-14.90299432 75.59393392 -16.67707807 75.17095867 -20.1875 73.3125 C-23.18746963 70.8458583 -24.61408608 69.61877522 -26 66 C-26.23398604 62.31861966 -26.17415011 58.68295229 -26 55 C-28.11460833 56.86423387 -30.21621478 58.74034825 -32.3125 60.625 C-33.20485352 61.40810547 -33.20485352 61.40810547 -34.11523438 62.20703125 C-37.72287209 65.47204415 -40.32326345 68.31500082 -42 73 C-42.15256441 75.98238848 -42.15256441 75.98238848 -41.6875 78.875 C-41.56761719 79.84179688 -41.44773438 80.80859375 -41.32421875 81.8046875 C-41.21722656 82.52914062 -41.11023438 83.25359375 -41 84 C-43.07776754 82.30802484 -43.92301562 81.40295429 -44.43359375 78.73046875 C-44.44250632 72.92838862 -43.92385772 69.56015897 -40 65 C-39.14019531 64.28714844 -38.28039062 63.57429688 -37.39453125 62.83984375 C-34.34710382 59.2256843 -34.3419434 56.39023147 -34.375 51.875 C-33.9250238 36.17083049 -28.33533964 18.40831393 -17 7 C-12.24598792 2.73618761 -6.64340662 -2.21446887 0 0 Z " fill="#832E32" transform="translate(233,41)"/>
<path d="M0 0 C1.2452606 2.4905212 0.96761907 3.98301117 0.8125 6.75 C0.77002271 11.65612648 1.62951273 14.26513573 5 18 C7.58443323 19.73490246 7.58443323 19.73490246 10 21 C11.43216269 23.86432537 10.96601565 26.13346964 10.75 29.3125 C10.68296875 30.44300781 10.6159375 31.57351562 10.546875 32.73828125 C9.96192096 36.2271143 9.19483282 38.2363229 7 41 C4.47377551 42.2342261 3.31402156 42.08322848 0.59765625 41.36328125 C-6.81254967 38.29187078 -12.12414719 35.33643567 -16 28 C-17.37039106 23.18606217 -17.57740612 20.23770719 -15.421875 15.6171875 C-12.96703113 11.59775949 -9.76987967 8.64529571 -6.25 5.5625 C-5.64800781 5.02173828 -5.04601562 4.48097656 -4.42578125 3.92382812 C-2.95800653 2.60749048 -1.48004547 1.30252556 0 0 Z " fill="#FBCFCA" transform="translate(207,95)"/>
<path d="M0 0 C0.66 0 1.32 0 2 0 C4.33049843 5.1906556 5.25464568 9.69868854 5.8125 15.375 C6.90612761 24.59271842 10.36393406 30.63684586 17 37 C15.35 37.66 13.7 38.32 12 39 C12.804375 39.804375 13.60875 40.60875 14.4375 41.4375 C18.03779054 45.03779054 18.17415227 45.54881615 18.25 50.6875 C18.20963878 55.53661211 17.88510861 58.93947677 15 63 C11.29444345 65.47037103 8.29821421 65.67311656 4 65 C-1.66176471 62.01470588 -1.66176471 62.01470588 -3 58 C-3.17143087 55.71238153 -3.26643463 53.41857031 -3.3125 51.125 C-3.34988281 49.91070312 -3.38726562 48.69640625 -3.42578125 47.4453125 C-2.93216102 43.45106437 -1.75442353 41.85764651 1 39 C0.34 38.34 -0.32 37.68 -1 37 C4.94 36.505 4.94 36.505 11 36 C7.37 35.67 3.74 35.34 0 35 C-0.14875691 31.35545577 -0.13867117 28.42468047 1 24.9375 C3.47481505 17.14183259 2.89299718 7.59411759 0 0 Z " fill="#9E6F98" transform="translate(256,62)"/>
<path d="M0 0 C9.59453303 1.74259681 9.59453303 1.74259681 13 5 C12.54554036 6.41791408 12.08625056 7.83428046 11.625 9.25 C11.24214844 10.43335937 11.24214844 10.43335937 10.8515625 11.640625 C10.03509883 13.90275371 9.26080065 15.95006514 8 18 C7.01 18.33 6.02 18.66 5 19 C6.32 19.99 7.64 20.98 9 22 C7.36754912 28.12939105 4.12336582 33.26593887 0.9375 38.6875 C-0.15994463 40.5650098 -1.25510399 42.4438578 -2.34765625 44.32421875 C-2.83242432 45.15010498 -3.31719238 45.97599121 -3.81665039 46.8269043 C-5.12164051 49.07163117 -5.12164051 49.07163117 -6 52 C-6.99 51.67 -7.98 51.34 -9 51 C-10.04514074 48.50638252 -10.90101416 46.13580564 -11.6875 43.5625 C-11.91244141 42.86833984 -12.13738281 42.17417969 -12.36914062 41.45898438 C-14 36.33838336 -14 36.33838336 -14 34 C-12.02 34 -10.04 34 -8 34 C-8.28875 33.20335937 -8.5775 32.40671875 -8.875 31.5859375 C-9.431875 29.99652344 -9.431875 29.99652344 -10 28.375 C-10.556875 26.80878906 -10.556875 26.80878906 -11.125 25.2109375 C-12.00483564 21.98225494 -12.15988262 19.32755706 -12 16 C-10.18389613 18.36093503 -8.56491438 20.70701413 -7 23.25 C-6.34 24.1575 -5.68 25.065 -5 26 C-4.01 26 -3.02 26 -2 26 C0.10770759 23.11165997 1 21.61537605 1 18 C-0.53353564 16.32154581 -0.53353564 16.32154581 -2.5 14.8125 C-3.1496875 14.28269531 -3.799375 13.75289062 -4.46875 13.20703125 C-4.9740625 12.80871094 -5.479375 12.41039063 -6 12 C-4.1875 11.375 -4.1875 11.375 -2 11 C-1.01 11.66 -0.02 12.32 1 13 C0.67 12.01 0.34 11.02 0 10 C-0.06802967 8.27204648 -0.08495645 6.54164635 -0.0625 4.8125 C-0.05347656 3.91144531 -0.04445313 3.01039062 -0.03515625 2.08203125 C-0.02355469 1.39496094 -0.01195312 0.70789063 0 0 Z " fill="#F9F6F5" transform="translate(331,75)"/>
<path d="M0 0 C1.75390625 2.1171875 1.75390625 2.1171875 3.5625 4.875 C6.03942159 8.63444788 6.03942159 8.63444788 9 12 C5.7 12.33 2.4 12.66 -1 13 C2.3 13 5.6 13 9 13 C9 18.94 9 24.88 9 31 C1.03162055 31 1.03162055 31 -2.25 29.3125 C-2.89453125 28.99925781 -3.5390625 28.68601563 -4.203125 28.36328125 C-7.53425143 25.83597011 -8.82251515 23.06215739 -9.50390625 18.984375 C-9.63330148 11.84175842 -8.83747608 7.332035 -4.60546875 1.51171875 C-3 0 -3 0 0 0 Z " fill="#F9F6F5" transform="translate(192,145)"/>
<path d="M0 0 C0.43441406 0.48984375 0.86882812 0.9796875 1.31640625 1.484375 C2.9889869 3.29672851 2.9889869 3.29672851 5.9375 3.25 C8.45288335 3.04466258 10.5814084 2.64774375 13 2 C12.15170163 28.58976615 12.15170163 28.58976615 2.25390625 38.90625 C0.25073682 40.76707984 -1.77352865 42.41763312 -4 44 C-3.79503906 43.00226563 -3.59007812 42.00453125 -3.37890625 40.9765625 C-0.76710001 27.37064909 -0.2908213 13.82766914 0 0 Z " fill="#FBA2C7" transform="translate(299,90)"/>
<path d="M0 0 C2.87305972 1.40460697 4.74510999 2.74510999 7 5 C7.67764725 10.33450217 7.76881272 15.33423911 5.5 20.25 C2.62269922 22.26411055 0.47364234 22.64938003 -3.03125 22.43359375 C-6.09238364 21.75941551 -7.85294855 20.21211361 -10 18 C-11.34283649 15.31432703 -11.24287519 13.12253147 -11.3125 10.125 C-11.34988281 9.07570313 -11.38726562 8.02640625 -11.42578125 6.9453125 C-10.4570929 0.2444775 -6.09520776 -0.74853429 0 0 Z " fill="#9D6F9A" transform="translate(220,92)"/>
<path d="M0 0 C6.95677606 1.89730256 11.3349011 7.64513263 15.0625 13.5 C29.86214865 39.66577882 32.46306679 70.99314074 26 100 C32.87249799 93.33641956 32.87249799 93.33641956 39 86 C37.72671179 92.79087047 32.4877817 98.12627174 27 102 C30.3 103.32 33.6 104.64 37 106 C36.34 106.66 35.68 107.32 35 108 C34.37351562 107.7834375 33.74703125 107.566875 33.1015625 107.34375 C32.28429687 107.0653125 31.46703125 106.786875 30.625 106.5 C29.81289063 106.2215625 29.00078125 105.943125 28.1640625 105.65625 C26.05790758 104.90326695 26.05790758 104.90326695 24 105 C23.64808594 105.71285156 23.29617188 106.42570312 22.93359375 107.16015625 C18.72626539 115.32215357 14.96246431 122.01171401 5.875 124.9375 C2.50258963 125.83716858 -0.5126318 126.10548979 -4 126 C-2.25 122.125 -2.25 122.125 0 121 C0 121.66 0 122.32 0 123 C6.14551238 122.68212867 9.72947978 121.64768867 14 117 C19.22788852 111.02527027 21.06546768 104.62238803 23 97 C23.30164063 95.87335938 23.60328125 94.74671875 23.9140625 93.5859375 C30.08870062 66.63681601 26.33956235 37.90715499 12.3515625 13.9921875 C8.85129832 8.83283856 4.48790255 4.30838644 0 0 Z " fill="#852D31" transform="translate(270,33)"/>
<path d="M0 0 C3.45661522 0.21323276 4.55646348 0.57732242 7.5 2.625 C10.82041216 7.31264069 13.03167527 11.1849484 12.0625 17 C10.44014523 19.96256088 9.75267478 20.54573194 6.625 21.625 C1.92586089 20.99844812 -2.36389769 19.14046392 -6.5625 17 C-8.66062445 14.25073348 -8.62416139 13.52626259 -8.375 10.1875 C-7.29911605 4.36619932 -6.51956324 0.42236373 0 0 Z " fill="#A64955" transform="translate(310.375,51.375)"/>
<path d="M0 0 C4.05606165 0.46800711 7.46588679 0.87953208 11 3 C11.29748039 9.23292252 10.40926221 14.12171809 8.375 20 C8.10574707 20.79164551 7.83649414 21.58329102 7.55908203 22.39892578 C5.54600873 28.0498015 3.2044544 32.65097983 -1 37 C-1.639375 37.804375 -2.27875 38.60875 -2.9375 39.4375 C-5.81707517 41.61899634 -8.4587002 41.72759232 -12 42 C-15.02584887 36.95691856 -15.45458358 33.72775311 -15 28 C-14 25 -14 25 -13 23 C-12.175 23.495 -11.35 23.99 -10.5 24.5 C-6.09841265 26.38639458 -3.75243289 26.536565 1 26 C3.96858157 23.79259319 4.82865791 22.51402627 6 19 C6.90025528 10.90518567 6.90025528 10.90518567 3.5625 3.875 C2.716875 3.25625 1.87125 2.6375 1 2 C0.67 1.34 0.34 0.68 0 0 Z " fill="#F9CECA" transform="translate(267,100)"/>
<path d="M0 0 C0.66 0 1.32 0 2 0 C4.33049843 5.1906556 5.25464568 9.69868854 5.8125 15.375 C6.90612761 24.59271842 10.36393406 30.63684586 17 37 C15.35 37.66 13.7 38.32 12 39 C12.804375 39.804375 13.60875 40.60875 14.4375 41.4375 C18 45 18 45 18.09765625 47.50390625 C18.08605469 48.51324219 18.07445312 49.52257812 18.0625 50.5625 C18.05347656 51.57441406 18.04445313 52.58632812 18.03515625 53.62890625 C18.02355469 54.41136719 18.01195312 55.19382813 18 56 C17.67 56 17.34 56 17 56 C16.91363281 55.25234375 16.82726562 54.5046875 16.73828125 53.734375 C15.94058625 47.55414909 15.94058625 47.55414909 12.75 42.375 C9.64463527 40.82231764 7.48753631 40 4 40 C1.68721883 41.72937829 1.68721883 41.72937829 0 44 C-0.66 44.66 -1.32 45.32 -2 46 C-1.25 41.25 -1.25 41.25 1 39 C0.34 38.34 -0.32 37.68 -1 37 C4.94 36.505 4.94 36.505 11 36 C7.37 35.67 3.74 35.34 0 35 C-0.14875691 31.35545577 -0.13867117 28.42468047 1 24.9375 C3.47481505 17.14183259 2.89299718 7.59411759 0 0 Z " fill="#934145" transform="translate(256,62)"/>
<path d="M0 0 C6.26730937 -0.71219425 10.44574784 1.32522035 16.03515625 4.1015625 C20.47157041 5.44593043 23.26020609 3.86989695 27.25 1.875 C35.32031264 -0.69282675 43.18139184 1.50280196 51 4 C50.67 4.66 50.34 5.32 50 6 C49.43394043 5.83991455 48.86788086 5.6798291 48.28466797 5.51489258 C44.27236436 4.61064506 40.22282036 4.73184871 36.125 4.6875 C35.23941406 4.65849609 34.35382813 4.62949219 33.44140625 4.59960938 C27.77740589 4.54474201 24.44493319 5.13332615 20 9 C19.34 9.99 18.68 10.98 18 12 C15.50221157 10.88987181 13.87896037 9.88121857 11.90625 7.9453125 C7.92093671 5.27772376 4.8691529 5.47809429 0.1875 5.625 C-0.58142578 5.62628906 -1.35035156 5.62757812 -2.14257812 5.62890625 C-7.37584057 5.70839884 -11.96947148 6.56598389 -17 8 C-17 7.34 -17 6.68 -17 6 C-10.95942424 3.72942897 -5.43681228 2.51085812 1 2 C0.67 1.34 0.34 0.68 0 0 Z " fill="#97484C" transform="translate(263,28)"/>
<path d="M0 0 C4.67535094 0.02435079 7.81043596 0.65406657 11.8125 3.25 C11.5 6.125 11.5 6.125 10.8125 9.25 C6.79191131 11.93039246 3.53567518 11.93328032 -1.1875 11.25 C-4.45223125 9.12792469 -5.03962088 7.83014115 -6 4.0625 C-6.061875 3.134375 -6.12375 2.20625 -6.1875 1.25 C-4.48191557 -0.45558443 -2.32755782 0.03769324 0 0 Z " fill="#CBA1F6" transform="translate(260.1875,113.75)"/>
<path d="M0 0 C0.99 0.66 1.98 1.32 3 2 C2.65447612 4.55687669 2.24912987 6.57501375 0.9375 8.8125 C-2.22540658 10.75105565 -5.45859365 10.62129936 -9 10 C-12.38186376 8.0572272 -13.70264591 7.00642921 -14.8125 3.25 C-14.874375 2.5075 -14.93625 1.765 -15 1 C-10.17155748 -1.73611743 -5.25512513 -1.10446698 0 0 Z " fill="#CBA0F4" transform="translate(224,104)"/>
<path d="M0 0 C1 3 1 3 -0.1875 5.390625 C-0.785625 6.33421875 -1.38375 7.2778125 -2 8.25 C-6.2610978 15.24608814 -9.64526027 22.53595903 -13 30 C-13.66 30 -14.32 30 -15 30 C-15.79441072 28.12616097 -16.58539974 26.25087114 -17.375 24.375 C-17.81585938 23.33085938 -18.25671875 22.28671875 -18.7109375 21.2109375 C-22.30876866 12.24906716 -22.30876866 12.24906716 -22 7 C-23.32 7 -24.64 7 -26 7 C-25.938125 7.9075 -25.87625 8.815 -25.8125 9.75 C-26.01672076 13.28982642 -26.64551835 14.44931155 -29 17 C-28.52013969 11.43109483 -27.70084819 6.32932432 -26 1 C-25.773125 1.639375 -25.54625 2.27875 -25.3125 2.9375 C-24.14749104 5.27193661 -24.14749104 5.27193661 -21.375 5.75 C-20.59125 5.8325 -19.8075 5.915 -19 6 C-19.99 6.495 -19.99 6.495 -21 7 C-20.0504654 9.81575825 -19.09091375 12.62736489 -18.125 15.4375 C-17.85558594 16.23994141 -17.58617187 17.04238281 -17.30859375 17.86914062 C-17.04433594 18.63291016 -16.78007812 19.39667969 -16.5078125 20.18359375 C-16.26691895 20.89056396 -16.02602539 21.59753418 -15.77783203 22.32592773 C-15.11814241 24.20038805 -15.11814241 24.20038805 -13 25 C-12.88591797 24.27006836 -12.77183594 23.54013672 -12.65429688 22.78808594 C-11.9797967 19.91390983 -11.02298435 17.9257173 -9.53125 15.390625 C-9.04269531 14.55402344 -8.55414063 13.71742187 -8.05078125 12.85546875 C-7.53902344 11.99566406 -7.02726562 11.13585937 -6.5 10.25 C-5.98824219 9.37472656 -5.47648437 8.49945313 -4.94921875 7.59765625 C-1.17569314 1.17569314 -1.17569314 1.17569314 0 0 Z " fill="#7A3230" transform="translate(338,102)"/>
<path d="M0 0 C3.63 0 7.26 0 11 0 C11.0749534 5.02187812 10.99276881 9.03615596 10 14 C4.06 12.515 4.06 12.515 -2 11 C-1.34 7.37 -0.68 3.74 0 0 Z " fill="#F9F6F5" transform="translate(331,62)"/>
<path d="M0 0 C4.07063514 6.83285184 5.76258253 12.03524914 5 20 C3 19 3 19 2.32421875 17.29296875 C2.11410156 16.59816406 1.90398437 15.90335938 1.6875 15.1875 C0.24461887 11.1818897 -1.19760326 9.1604527 -5 7 C-8.689748 6.19777849 -8.689748 6.19777849 -12 6 C-9.40401988 0.00927665 -6.20086134 -0.23399477 0 0 Z " fill="#F79FC3" transform="translate(320,44)"/>
<path d="M0 0 C0.33 0 0.66 0 1 0 C1.18367347 18.73469388 1.18367347 18.73469388 0.12109375 26.0546875 C-0.01452111 28.23327464 0.37065091 29.9208171 1 32 C3.2773501 29.18490007 3.2773501 29.18490007 3 26 C3.99 25.67 4.98 25.34 6 25 C7.22520264 21.99152582 7.22520264 21.99152582 8 19 C8.33 19.99 8.66 20.98 9 22 C8.67 22.66 8.34 23.32 8 24 C8.77085937 23.97679688 9.54171875 23.95359375 10.3359375 23.9296875 C11.33882813 23.91164063 12.34171875 23.89359375 13.375 23.875 C14.37273437 23.85179688 15.37046875 23.82859375 16.3984375 23.8046875 C19 24 19 24 21 26 C19.57107422 25.98646484 19.57107422 25.98646484 18.11328125 25.97265625 C11.13756684 25.8204452 11.13756684 25.8204452 5.0625 28.58984375 C3.62775344 30.71182297 3.62775344 30.71182297 2 34 C0.515 34.495 0.515 34.495 -1 35 C-1.66 33.35 -2.32 31.7 -3 30 C-3.66 30.66 -4.32 31.32 -5 32 C-5.66 31.34 -6.32 30.68 -7 30 C-6.66226563 29.51015625 -6.32453125 29.0203125 -5.9765625 28.515625 C-0.7248336 19.71214881 -0.62119659 9.9944275 0 0 Z " fill="#7C2023" transform="translate(248,73)"/>
<path d="M0 0 C0.66 0 1.32 0 2 0 C1.9175 1.051875 1.835 2.10375 1.75 3.1875 C1.74875284 6.94177955 1.74875284 6.94177955 3.375 9.75 C7.1387241 12.97604923 11.23725049 13.88202636 16 15 C15.01 16.485 15.01 16.485 14 18 C9.27122992 18.94405302 4.51165503 18.77860335 0.4375 16.0625 C-2 14 -2 14 -3 13 C-2.94921875 11.07421875 -2.94921875 11.07421875 -2.6875 8.6875 C-2.60886719 7.90761719 -2.53023438 7.12773438 -2.44921875 6.32421875 C-1.98413721 3.91792729 -1.19341444 2.12866168 0 0 Z " fill="#F9A2C5" transform="translate(305,53)"/>
<path d="M0 0 C6.21024966 2.41509709 9.21024163 8.47217302 12.08203125 14.1328125 C14.88153786 21.06127179 14.6840713 29.11531153 12.25390625 36.1640625 C11.4375 37.8125 11.4375 37.8125 10 40 C9.67 39.34 9.34 38.68 9 38 C9.33 37.34 9.66 36.68 10 36 C10.6951779 26.98548003 10.77039692 17.981241 6 10 C3.98607198 7.87461413 1.95415419 6.08987056 -0.390625 4.33984375 C-0.92171875 3.89769531 -1.4528125 3.45554688 -2 3 C-2 2.34 -2 1.68 -2 1 C-1.34 0.67 -0.68 0.34 0 0 Z " fill="#EF9AB6" transform="translate(316,35)"/>
<path d="M0 0 C1 3 1 3 0.21142578 4.85351562 C-0.2063916 5.53091797 -0.62420898 6.20832031 -1.0546875 6.90625 C-1.50457031 7.65003906 -1.95445312 8.39382812 -2.41796875 9.16015625 C-3.13919922 10.31837891 -3.13919922 10.31837891 -3.875 11.5 C-4.81228349 13.02978967 -5.74727759 14.560985 -6.6796875 16.09375 C-7.09976074 16.77115234 -7.51983398 17.44855469 -7.95263672 18.14648438 C-9.14707888 20.12223732 -9.14707888 20.12223732 -10 23 C-7.69 23.66 -5.38 24.32 -3 25 C-3 25.66 -3 26.32 -3 27 C-4.093125 27.103125 -5.18625 27.20625 -6.3125 27.3125 C-10.44724636 28.04642044 -10.44724636 28.04642044 -13 31 C-14.17574711 33.09989652 -14.17574711 33.09989652 -15 35 C-15.33 33.68 -15.66 32.36 -16 31 C-17.485 32.485 -17.485 32.485 -19 34 C-19.66 33.67 -20.32 33.34 -21 33 C-19.71034824 31.62437146 -18.37310707 30.29233607 -17 29 C-16.34 29 -15.68 29 -15 29 C-14.67 27.35 -14.34 25.7 -14 24 C-14.66 23.67 -15.32 23.34 -16 23 C-15.01 22.67 -14.02 22.34 -13 22 C-11.40899614 19.45966787 -9.96396458 16.95399167 -8.5625 14.3125 C-5.90062507 9.37927817 -3.18963815 4.6137135 0 0 Z " fill="#761F1F" transform="translate(223,65)"/>
<path d="M0 0 C0.66 0.33 1.32 0.66 2 1 C1.01 2.32 0.02 3.64 -1 5 C0.03125 4.896875 1.0625 4.79375 2.125 4.6875 C5.98501845 4.99879181 7.80319749 5.59461296 10.64453125 8.22265625 C13.31091438 11.71892231 14.63330017 15.85970346 16 20 C15.01 20 14.02 20 13 20 C12.7525 18.88625 12.505 17.7725 12.25 16.625 C11.38994661 12.95384802 11.38994661 12.95384802 8.875 11.5625 C8.25625 11.376875 7.6375 11.19125 7 11 C7.66 10.67 8.32 10.34 9 10 C5.79619983 7.86413322 4.98060033 7.76867825 1.3125 7.875 C0.10013672 7.90207031 0.10013672 7.90207031 -1.13671875 7.9296875 C-1.75160156 7.95289063 -2.36648438 7.97609375 -3 8 C-5.9018444 14.31897632 -5.9018444 14.31897632 -6 21 C-1.69971416 24.76275011 2.54826913 25.87205568 8 27 C8 27.33 8 27.66 8 28 C1.6563085 28.6748608 -2.93914061 26.91675472 -8 23 C-9.26171875 20.828125 -9.26171875 20.828125 -10 19 C-9.34 19 -8.68 19 -8 19 C-8.0825 18.175 -8.165 17.35 -8.25 16.5 C-7.78149659 9.94095224 -4.26597313 4.87539786 0 0 Z " fill="#A0434E" transform="translate(309,45)"/>
<path d="M0 0 C0.11069824 0.57032959 0.22139648 1.14065918 0.33544922 1.72827148 C0.83974239 4.2998518 1.35718237 6.86861043 1.875 9.4375 C2.04902344 10.33533203 2.22304688 11.23316406 2.40234375 12.15820312 C2.57636719 13.01220703 2.75039063 13.86621094 2.9296875 14.74609375 C3.08679199 15.53685303 3.24389648 16.3276123 3.40576172 17.14233398 C3.60186035 17.75536377 3.79795898 18.36839355 4 19 C4.66 19.33 5.32 19.66 6 20 C4.52031676 19.85950482 3.04125484 19.71245174 1.5625 19.5625 C0.73878906 19.48128906 -0.08492188 19.40007812 -0.93359375 19.31640625 C-3 19 -3 19 -4 18 C-4.07325168 15.13732433 -4.09238205 12.299281 -4.0625 9.4375 C-4.05798828 8.63119141 -4.05347656 7.82488281 -4.04882812 6.99414062 C-4.03700518 4.99606244 -4.01906914 2.99802217 -4 1 C-2 0 -2 0 0 0 Z " fill="#9D94C2" transform="translate(317,89)"/>
<path d="M0 0 C0.33 0.66 0.66 1.32 1 2 C4.63 2 8.26 2 12 2 C11.96519531 3.20398437 11.93039062 4.40796875 11.89453125 5.6484375 C11.8663972 7.22394442 11.83909663 8.79946638 11.8125 10.375 C11.78736328 11.1690625 11.76222656 11.963125 11.73632812 12.78125 C11.70995595 14.85586148 11.84513538 16.93100865 12 19 C12.99 19.66 13.98 20.32 15 21 C14.40130068 24.51735849 13.44659742 27.4951558 12 30.75 C10.00130134 35.57294677 9.33518485 39.80463481 9 45 C8.34 44.34 7.68 43.68 7 43 C7.375 40.875 7.375 40.875 8 39 C6.68 38.01 5.36 37.02 4 36 C4.33 35.34 4.66 34.68 5 34 C5.99 34.33 6.98 34.66 8 35 C9.46939453 30.69677317 10.77443263 26.37702633 12 22 C10.68 20.68 9.36 19.36 8 18 C8.66 18 9.32 18 10 18 C10.33 13.38 10.66 8.76 11 4 C8.02148438 4.04882812 8.02148438 4.04882812 5.04296875 4.09765625 C3 4 3 4 0 3 C0 2.01 0 1.02 0 0 Z " fill="#874745" transform="translate(331,58)"/>
<path d="M0 0 C0.66 0.33 1.32 0.66 2 1 C1.6390625 1.42667969 1.278125 1.85335937 0.90625 2.29296875 C-3.70255643 8.50205519 -3.91829436 14.45065373 -3 22 C-1.89669321 25.79228392 -1.89669321 25.79228392 1 28.1875 C5.298443 29.35166165 9.62186655 30.18274842 14 31 C14 27.37 14 23.74 14 20 C14.33 20 14.66 20 15 20 C15 23.96 15 27.92 15 32 C7.11769108 32.53743015 2.51856875 32.73020179 -3.57421875 27.5078125 C-7.39025125 23.47222745 -6.52351947 17.26752657 -6.43359375 12.0234375 C-6.10300504 6.79940937 -3.83763357 3.47214466 0 0 Z " fill="#711E1D" transform="translate(187,145)"/>
<path d="M0 0 C0 0.33 0 0.66 0 1 C-1.0355603 1.029729 -1.0355603 1.029729 -2.09204102 1.06005859 C-5.24921471 1.15588293 -8.40577822 1.26532814 -11.5625 1.375 C-12.64853516 1.4059375 -13.73457031 1.436875 -14.85351562 1.46875 C-20.56870137 1.67720662 -25.59508366 2.09238247 -31 4 C-29.35 5.98 -27.7 7.96 -26 10 C-26.598125 9.690625 -27.19625 9.38125 -27.8125 9.0625 C-32.55374257 6.75961075 -36.81397313 6.46015761 -42 7 C-45.33443944 8.45723885 -45.33443944 8.45723885 -48 10 C-48.66 9.67 -49.32 9.34 -50 9 C-45.53782065 5.50261619 -41.39519423 4.06928811 -35.90625 2.7265625 C-33.03296152 2.04538987 -33.03296152 2.04538987 -30.40625 1.1484375 C-20.57816365 -2.01904816 -10.1082186 -1.94328544 0 0 Z " fill="#873535" transform="translate(262,27)"/>
<path d="M0 0 C-0.73898199 7.24202348 -2.34940369 13.12879628 -8 18 C-7.731875 17.360625 -7.46375 16.72125 -7.1875 16.0625 C-5.64635858 12.08797739 -4.32390688 8.05115505 -3 4 C-3.66 4.61875 -4.32 5.2375 -5 5.875 C-10.23035821 9.57983706 -15.64382437 10.31780878 -22 10 C-22 9.34 -22 8.68 -22 8 C-27.94 7.67 -33.88 7.34 -40 7 C-40 6.67 -40 6.34 -40 6 C-36.22918278 5.97100401 -32.45839417 5.95320271 -28.6875 5.9375 C-27.61564453 5.92912109 -26.54378906 5.92074219 -25.43945312 5.91210938 C-23.89741211 5.90727539 -23.89741211 5.90727539 -22.32421875 5.90234375 C-21.37635498 5.89710693 -20.42849121 5.89187012 -19.4519043 5.88647461 C-17 6 -17 6 -14 7 C-9.95733293 5.71944984 -3.62209322 0 0 0 Z " fill="#842F32" transform="translate(278,136)"/>
<path d="M0 0 C3.4375 1.4375 3.4375 1.4375 6 3 C6.495 4.485 6.495 4.485 7 6 C6.34 6.99 5.68 7.98 5 9 C4.21625 8.01 3.4325 7.02 2.625 6 C-2.9469702 1.14883909 -10.81418723 2.28934364 -17.76513672 2.73828125 C-21.28808247 3.15084383 -24.58874372 4.03755227 -28 5 C-28 4.34 -28 3.68 -28 3 C-22.6071967 0.97291791 -17.60410172 -0.36265913 -11.84765625 -0.7890625 C-7.34894467 -1.30265748 -4.60370251 -1.46054384 0 0 Z " fill="#F59EBD" transform="translate(274,31)"/>
<path d="M0 0 C2.43236153 1.16753353 4.64356093 2.41525618 6.91796875 3.8828125 C11.87524407 6.71443802 17.22712405 7.84929344 22.75 9.125 C24.39053345 9.51292725 24.39053345 9.51292725 26.06420898 9.90869141 C35.65709799 12.09165501 45.19568433 13.32222848 55 14 C55 14.33 55 14.66 55 15 C43.47667134 15.35639161 33.25697231 14.70433773 22 12 C20.2085744 11.64461597 18.41694701 11.29024548 16.625 10.9375 C15.42875 10.628125 14.2325 10.31875 13 10 C12.67 9.34 12.34 8.68 12 8 C10.9275 7.7525 9.855 7.505 8.75 7.25 C4.01942882 5.67314294 2.8483417 3.97041571 0 0 Z " fill="#7A2625" transform="translate(195,129)"/>
<path d="M0 0 C0.66 0.33 1.32 0.66 2 1 C1.53851563 1.40347656 1.07703125 1.80695312 0.6015625 2.22265625 C-7.67418258 9.92596837 -13.28004882 19.57372401 -19.1640625 29.125 C-19.69805664 29.98633545 -20.23205078 30.8476709 -20.78222656 31.73510742 C-21.82787089 33.42714715 -22.86402406 35.12509656 -23.88964844 36.8293457 C-24.36692383 37.60366943 -24.84419922 38.37799316 -25.3359375 39.17578125 C-25.75407715 39.86583252 -26.1722168 40.55588379 -26.60302734 41.2668457 C-28.2049479 43.25426863 -29.66293032 44.03000716 -32 45 C-31.5875 44.36835937 -31.175 43.73671875 -30.75 43.0859375 C-27.37289586 37.85444136 -24.1905689 32.5806771 -21.1875 27.125 C-15.52019468 16.98857181 -8.49359873 7.93966838 0 0 Z " fill="#7A2425" transform="translate(210,37)"/>
<path d="M0 0 C5.52251397 2.22566835 7.47510303 6.86173258 10 12 C12.89368789 19.22938077 14.45948111 26.73368709 15.8125 34.375 C15.94873779 35.12394531 16.08497559 35.87289062 16.2253418 36.64453125 C16.99765055 41.38939323 16.9159426 45.27697623 16 50 C15.67 50 15.34 50 15 50 C14.93530518 49.45287354 14.87061035 48.90574707 14.80395508 48.34204102 C12.80312399 31.89400729 10.62446491 15.91892552 1 2 C0.67 1.34 0.34 0.68 0 0 Z " fill="#983B44" transform="translate(262,44)"/>
<path d="M0 0 C0.99 0.33 1.98 0.66 3 1 C1.02 2.98 -0.96 4.96 -3 7 C-0.03 7.33 2.94 7.66 6 8 C5.67 16.25 5.34 24.5 5 33 C2.84232162 28.68464325 2.73267409 25.60521533 2.8125 20.9375 C2.81314453 20.21755859 2.81378906 19.49761719 2.81445312 18.75585938 C2.84097138 15.58250863 2.99016465 13.02950606 4 10 C2.9275 10.020625 1.855 10.04125 0.75 10.0625 C-2.14790424 10.0142016 -4.28612141 9.86844115 -7 9 C-6.34 7.68 -5.68 6.36 -5 5 C-4.34 5 -3.68 5 -3 5 C-2.690625 4.360625 -2.38125 3.72125 -2.0625 3.0625 C-1 1 -1 1 0 0 Z " fill="#813130" transform="translate(177,82)"/>
<path d="M0 0 C0.63679687 0.33 1.27359375 0.66 1.9296875 1 C6.06831731 2.34795068 9.80925074 2.13854733 14.125 2 C15.7314991 1.94891895 17.33831759 1.90687428 18.9453125 1.875 C19.65187988 1.85179687 20.35844727 1.82859375 21.08642578 1.8046875 C23 2 23 2 26 4 C22.24600202 5.2039337 18.66782588 5.09877617 14.75 5.0625 C13.48671875 5.05347656 12.2234375 5.04445312 10.921875 5.03515625 C9.95765625 5.02355469 8.9934375 5.01195312 8 5 C7.95101562 5.58007812 7.90203125 6.16015625 7.8515625 6.7578125 C7.40350595 11.43923092 6.701979 15.57485459 5 20 C4.34 19.67 3.68 19.34 3 19 C3.55145271 13.76119922 4.42922093 9.02649303 6 4 C5.071875 3.7834375 5.071875 3.7834375 4.125 3.5625 C2 3 2 3 0 2 C0 1.34 0 0.68 0 0 Z " fill="#7A312F" transform="translate(227,218)"/>
<path d="M0 0 C1.21816406 0.03480469 1.21816406 0.03480469 2.4609375 0.0703125 C3.68683594 0.09738281 3.68683594 0.09738281 4.9375 0.125 C5.87722656 0.15980469 5.87722656 0.15980469 6.8359375 0.1953125 C6.8359375 0.8553125 6.8359375 1.5153125 6.8359375 2.1953125 C6.1759375 2.8553125 5.5159375 3.5153125 4.8359375 4.1953125 C6.1559375 4.5253125 7.4759375 4.8553125 8.8359375 5.1953125 C5.63119374 8.03379983 3.22672009 10.07976559 -1.1640625 10.1953125 C-2.9765625 9.0703125 -2.9765625 9.0703125 -4.1640625 7.1953125 C-4.4765625 4.6328125 -4.4765625 4.6328125 -4.1640625 2.1953125 C-2.1640625 0.1953125 -2.1640625 0.1953125 0 0 Z " fill="#9C94C3" transform="translate(305.1640625,82.8046875)"/>
<path d="M0 0 C0.57492187 0.28875 1.14984375 0.5775 1.7421875 0.875 C3.18071939 1.59177713 4.62307894 2.30095889 6.0703125 3 C6.74835938 3.33 7.42640625 3.66 8.125 4 C8.80820312 4.33 9.49140625 4.66 10.1953125 5 C12 6 12 6 14 8 C14 8.99 14 9.98 14 11 C11.36 11.33 8.72 11.66 6 12 C6.33 11.34 6.66 10.68 7 10 C9.5625 9.375 9.5625 9.375 12 9 C8.52196927 6.24156184 6.02956736 5.13103585 1.5625 4.5625 C-2.21008372 4.62107805 -2.21008372 4.62107805 -4.375 7.75 C-6.93222392 12.86444784 -7.13219812 17.07764503 -7.0625 22.75 C-7.05798828 23.44738281 -7.05347656 24.14476563 -7.04882812 24.86328125 C-7.0371002 26.57555803 -7.01916653 28.28779033 -7 30 C-7.66 29.67 -8.32 29.34 -9 29 C-9.57921303 11.32327636 -9.57921303 11.32327636 -6 5 C-4.10124054 3.04326316 -2.23857483 1.59187543 0 0 Z " fill="#8D3137" transform="translate(305,33)"/>
<path d="M0 0 C0.66 2.64 1.32 5.28 2 8 C-3.39449293 8.27429625 -6.51925805 8.36055646 -11 5 C-10.03558469 2.58896173 -9.31202953 1.22595242 -7.1875 -0.3125 C-4.45808824 -1.17031512 -2.72321308 -0.75644808 0 0 Z " fill="#FBA4C8" transform="translate(321,58)"/>
<path d="M0 0 C3.1948843 4.0849547 5.5243672 8.45018836 8 13 C4.04 13 0.08 13 -4 13 C-3.52511102 11.01980257 -3.04497141 9.04086365 -2.5625 7.0625 C-2.29566406 5.96035156 -2.02882813 4.85820313 -1.75390625 3.72265625 C-1 1 -1 1 0 0 Z " fill="#EEE6E5" transform="translate(260,84)"/>
<path d="M0 0 C0.33 0 0.66 0 1 0 C1.09796875 0.85722656 1.1959375 1.71445313 1.296875 2.59765625 C2.18407427 9.38167135 3.20466232 14.30699349 7 20 C7 20.66 7 21.32 7 22 C8.32 21.67 9.64 21.34 11 21 C10.67 22.32 10.34 23.64 10 25 C8.54096742 24.69078116 7.08279278 24.37751201 5.625 24.0625 C4.40683594 23.80146484 4.40683594 23.80146484 3.1640625 23.53515625 C1 23 1 23 -1 22 C-1.66 22.66 -2.32 23.32 -3 24 C-3 22.68 -3 21.36 -3 20 C-1.02 20 0.96 20 3 20 C2.7834375 19.47792969 2.566875 18.95585938 2.34375 18.41796875 C-0.02473189 12.156843 -0.33571664 6.652163 0 0 Z " fill="#852D30" transform="translate(232,83)"/>
<path d="M0 0 C1.32 0 2.64 0 4 0 C5.73473712 1.94125344 7.4045651 3.94272868 9 6 C9.66 6.33 10.32 6.66 11 7 C10.49396008 9.16874252 10.00016187 10.99967627 9 13 C5.6227555 11.60724746 4.12929695 10.17726069 2.25 7.0625 C1.82203125 6.37285156 1.3940625 5.68320313 0.953125 4.97265625 C0 3 0 3 0 0 Z " fill="#9D96C6" transform="translate(320,87)"/>
<path d="M0 0 C0.66 0 1.32 0 2 0 C1.41735906 6.11772991 -1.16782169 9.59921462 -4.8125 14.375 C-7.98997612 16.73541083 -10.13478762 16.4746752 -14 16 C-16.9375 14.625 -16.9375 14.625 -19 13 C-19 12.34 -19 11.68 -19 11 C-18.29875 11.309375 -17.5975 11.61875 -16.875 11.9375 C-13.91063343 13.03302678 -11.12301892 13.56422992 -8 14 C-7.773125 13.484375 -7.54625 12.96875 -7.3125 12.4375 C-5.81178222 9.65045269 -4.01855144 7.21166052 -2.12109375 4.68359375 C-0.81448821 2.88113235 -0.81448821 2.88113235 0 0 Z " fill="#73221F" transform="translate(229,237)"/>
<path d="M0 0 C0.33 0 0.66 0 1 0 C1.33 4.95 1.66 9.9 2 15 C-4 14 -4 14 -6 13 C-5.52467862 7.92990529 -2.95637706 4.02506742 0 0 Z " fill="#ECE0DF" transform="translate(219,75)"/>
<path d="M0 0 C0.09765625 6.15234375 0.09765625 6.15234375 0 8 C-1 9 -1 9 -2.84765625 9.09765625 C-4.8984375 9.06510417 -6.94921875 9.03255208 -9 9 C-7.68 8.34 -6.36 7.68 -5 7 C-6.32 7 -7.64 7 -9 7 C-9.33 6.01 -9.66 5.02 -10 4 C-4.5 0 -4.5 0 0 0 Z " fill="#9D97C7" transform="translate(330,76)"/>
<path d="M0 0 C4.05606165 0.46800711 7.46588679 0.87953208 11 3 C11.16682272 7.92127034 11.24828052 11.50343896 9 16 C8.67 16 8.34 16 8 16 C7.91363281 15.40832031 7.82726562 14.81664063 7.73828125 14.20703125 C6.74154618 8.60153953 5.48247747 5.79286555 1 2 C0.67 1.34 0.34 0.68 0 0 Z " fill="#F6F0EF" transform="translate(267,100)"/>
<path d="M0 0 C0.33 0 0.66 0 1 0 C1.75641811 6.05134485 -0.69176613 9.25914063 -4 14 C-4.72980686 15.14542568 -5.45904495 16.29121413 -6.1875 17.4375 C-8 20 -8 20 -10 21 C-10.66 20.34 -11.32 19.68 -12 19 C-11.34 19 -10.68 19 -10 19 C-9.7525 18.29875 -9.505 17.5975 -9.25 16.875 C-7.83520345 13.62096793 -5.96784222 10.95176333 -4 8 C-2.59912152 5.36501428 -1.28505344 2.6931439 0 0 Z " fill="#73201D" transform="translate(292,233)"/>
<path d="M0 0 C1.42091052 2.70613324 2.51939752 5.3518167 3.4375 8.265625 C3.69273437 9.07386719 3.94796875 9.88210937 4.2109375 10.71484375 C4.47132813 11.55144531 4.73171875 12.38804688 5 13.25 C5.26039063 14.07113281 5.52078125 14.89226562 5.7890625 15.73828125 C7.37441164 20.79058079 8.76603818 25.8505824 10 31 C9.01 30.67 8.02 30.34 7 30 C6.87367188 29.27039063 6.74734375 28.54078125 6.6171875 27.7890625 C6.02685429 25.12135419 5.20473039 22.8776309 4.125 20.375 C-1.91390269 5.59849086 -1.91390269 5.59849086 0 0 Z " fill="#8C3C3E" transform="translate(182,114)"/>
<path d="M0 0 C0.268125 0.5775 0.53625 1.155 0.8125 1.75 C1.95053246 4.05747896 1.95053246 4.05747896 3.625 6.125 C5 8 5 8 5 10 C9.98229776 11.91626837 14.72684667 12.5547115 20 13 C19.67 13.66 19.34 14.32 19 15 C12.75475487 15.44608894 8.10013093 14.86168854 3 11 C1.0339178 8.67840705 0.18601418 6.8876867 -1 4 C-0.75 1.5625 -0.75 1.5625 0 0 Z " fill="#772C2B" transform="translate(262,240)"/>
<path d="M0 0 C0.33 0 0.66 0 1 0 C1.10957031 0.83144531 1.21914062 1.66289063 1.33203125 2.51953125 C1.49058594 3.60621094 1.64914063 4.69289063 1.8125 5.8125 C1.96332031 6.89144531 2.11414063 7.97039062 2.26953125 9.08203125 C3.02883578 12.11518893 3.42127195 13.28281496 6 15 C8.17495081 15.47307456 8.17495081 15.47307456 10.5 15.375 C11.66015625 15.38660156 11.66015625 15.38660156 12.84375 15.3984375 C15.49723092 14.90812037 16.29091121 14.03699537 18 12 C18.66 11.34 19.32 10.68 20 10 C19.68762196 12.88949684 19.35661121 14.58633099 17.4375 16.8125 C13.95266234 18.51024142 10.75544374 18.66314937 7 18 C1.33823529 15.01470588 1.33823529 15.01470588 0 11 C-0.0685495 9.10529184 -0.08480372 7.2083166 -0.0625 5.3125 C-0.05347656 4.31863281 -0.04445312 3.32476562 -0.03515625 2.30078125 C-0.02355469 1.54152344 -0.01195312 0.78226562 0 0 Z " fill="#792A2E" transform="translate(253,109)"/>
<path d="M0 0 C2.95409701 1.37154504 5.44008376 2.98863724 8 5 C7.46930939 8.82097239 6.50298434 11.06171403 4 14 C1.36997598 13.62830496 0.25479631 13.2921315 -1.51953125 11.2578125 C-1.94621094 10.55398437 -2.37289063 9.85015625 -2.8125 9.125 C-3.25207031 8.42632812 -3.69164062 7.72765625 -4.14453125 7.0078125 C-5 5 -5 5 -4 2 C-3.67386719 2.55429688 -3.34773438 3.10859375 -3.01171875 3.6796875 C-2.35623047 4.76636719 -2.35623047 4.76636719 -1.6875 5.875 C-1.04361328 6.95394531 -1.04361328 6.95394531 -0.38671875 8.0546875 C1.01752375 10.26846333 1.01752375 10.26846333 4 12 C4.66 10.02 5.32 8.04 6 6 C5.38125 5.7525 4.7625 5.505 4.125 5.25 C1.64931313 3.79371361 1.04874998 2.62187494 0 0 Z " fill="#712729" transform="translate(325,88)"/>
<path d="M0 0 C2.75 -0.25 2.75 -0.25 6 0 C8.375 2 8.375 2 10 4 C9.45730469 4.19335938 8.91460937 4.38671875 8.35546875 4.5859375 C7.28232422 4.97652344 7.28232422 4.97652344 6.1875 5.375 C5.47980469 5.63023438 4.77210938 5.88546875 4.04296875 6.1484375 C1.75226641 7.0265769 1.75226641 7.0265769 -1 9 C-1.125 2.25 -1.125 2.25 0 0 Z " fill="#FAA3C7" transform="translate(309,52)"/>
<path d="M0 0 C0.33 0 0.66 0 1 0 C1.19865739 8.89543642 1.33447255 17.32910197 -1 26 C-1.99 26.33 -2.98 26.66 -4 27 C-3.87882812 26.30777344 -3.75765625 25.61554688 -3.6328125 24.90234375 C-2.21487344 16.62376108 -1.06963142 8.32947023 0 0 Z " fill="#7D2023" transform="translate(297,106)"/>
<path d="M0 0 C0.66 0.33 1.32 0.66 2 1 C0.03145141 9.81159847 -3.69452218 18.41408602 -11.4375 23.625 C-12.7059375 24.305625 -12.7059375 24.305625 -14 25 C-14.99 24.34 -15.98 23.68 -17 23 C-15.9790625 22.7525 -15.9790625 22.7525 -14.9375 22.5 C-5.98992891 17.93102753 -2.99312336 9.04833606 0 0 Z " fill="#852E30" transform="translate(275,118)"/>
<path d="M0 0 C3.70390021 2.02666238 5.65363011 3.48044516 8 7 C8.1953125 9.69921875 8.1953125 9.69921875 8.125 12.6875 C8.10695313 13.68136719 8.08890625 14.67523438 8.0703125 15.69921875 C8.04710937 16.45847656 8.02390625 17.21773437 8 18 C7.67 18 7.34 18 7 18 C6.91363281 17.25234375 6.82726562 16.5046875 6.73828125 15.734375 C5.94058625 9.55414909 5.94058625 9.55414909 2.75 4.375 C-0.35536473 2.82231764 -2.51246369 2 -6 2 C-8.31278117 3.72937829 -8.31278117 3.72937829 -10 6 C-10.66 6.66 -11.32 7.32 -12 8 C-11.68306247 5.06832781 -11.36774166 3.41017339 -9.375 1.1875 C-6.00253484 -0.49873258 -3.73136685 -0.45033738 0 0 Z " fill="#702526" transform="translate(266,100)"/>
<path d="M0 0 C5.6903013 0.99580273 8.62734026 4.10587843 12.23046875 8.3359375 C15.04545898 12.57395811 16.10966978 17.03826387 17 22 C16.34 22.33 15.68 22.66 15 23 C14.75765625 22.26394531 14.5153125 21.52789062 14.265625 20.76953125 C12.43867459 15.45029487 10.82426402 11.2340066 7 7 C7 6.34 7 5.68 7 5 C6.401875 4.731875 5.80375 4.46375 5.1875 4.1875 C3.02775192 3.01506533 1.64209744 1.80630718 0 0 Z " fill="#823739" transform="translate(314,33)"/>
<path d="M0 0 C0.33 0 0.66 0 1 0 C1.08040527 0.57443848 1.16081055 1.14887695 1.24365234 1.74072266 C1.61497859 4.3696701 1.99491616 6.997305 2.375 9.625 C2.50132812 10.52863281 2.62765625 11.43226563 2.7578125 12.36328125 C3.45010771 17.10550344 4.27961979 21.49709181 6 26 C5.34 26.33 4.68 26.66 4 27 C-0.84730223 18.19262496 -0.40658197 9.73537941 0 0 Z " fill="#7D3432" transform="translate(205,222)"/>
<path d="M0 0 C5.56746574 2.16512556 8.02801841 7.1284013 11 12 C10.67 12.66 10.34 13.32 10 14 C9.34 14 8.68 14 8 14 C7.06242975 12.56015998 6.12845953 11.11775902 5.21875 9.66015625 C3.89640561 7.85888584 2.49967215 6.63240606 0.75 5.25 C-0.1575 4.5075 -1.065 3.765 -2 3 C-2 2.34 -2 1.68 -2 1 C-1.34 0.67 -0.68 0.34 0 0 Z " fill="#F49EBE" transform="translate(316,35)"/>
<path d="M0 0 C3.19629792 1.75083835 6.10361308 3.79322902 9 6 C5.74678807 6 3.77376771 5.05247607 0.8515625 3.734375 C-1.71099279 2.71800286 -4.27411446 2.33242507 -7 2 C-7.33 3.98 -7.66 5.96 -8 8 C-8.99 7.67 -9.98 7.34 -11 7 C-11 5 -11 5 -10 4 C-10.33 3.34 -10.66 2.68 -11 2 C-7.28717598 -0.37620737 -4.3381213 -0.56893394 0 0 Z " fill="#7C1E22" transform="translate(253,37)"/>
<path d="M0 0 C3.74985325 -0.0871747 7.49944555 -0.14045003 11.25 -0.1875 C12.31347656 -0.21263672 13.37695312 -0.23777344 14.47265625 -0.26367188 C15.49746094 -0.27333984 16.52226562 -0.28300781 17.578125 -0.29296875 C18.52075195 -0.3086792 19.46337891 -0.32438965 20.43457031 -0.34057617 C23.42310174 0.05616929 24.77689217 1.01704271 27 3 C22.545 3.495 22.545 3.495 18 4 C18 3.34 18 2.68 18 2 C12.06 1.67 6.12 1.34 0 1 C0 0.67 0 0.34 0 0 Z " fill="#965453" transform="translate(238,142)"/>
<path d="M0 0 C3.05300315 3.62779695 4.84638399 7.64065481 6.75 11.9375 C7.07871094 12.64068359 7.40742188 13.34386719 7.74609375 14.06835938 C9.52581303 18.0746051 10.53030063 20.65564654 9 25 C7.37653057 22.56479586 6.47525299 20.85051088 5.52734375 18.1640625 C5.26759766 17.42929688 5.00785156 16.69453125 4.74023438 15.9375 C4.47533203 15.174375 4.21042969 14.41125 3.9375 13.625 C3.66873047 12.86960938 3.39996094 12.11421875 3.12304688 11.3359375 C1.80682335 7.58092575 0.63612069 3.94237763 0 0 Z " fill="#7A3231" transform="translate(290,154)"/>
<path d="M0 0 C2.31 0 4.62 0 7 0 C7.33 1.65 7.66 3.3 8 5 C5.08517222 5.80967438 3.53886783 6.21845993 0.6875 5.0625 C0.130625 4.711875 -0.42625 4.36125 -1 4 C-0.67 2.68 -0.34 1.36 0 0 Z " fill="#F1EAEB" transform="translate(213,92)"/>
<path d="M0 0 C5.48382249 2.13655422 7.39035058 7.01863977 10 12 C11.60045573 15.85564336 12.24504978 18.83415372 12 23 C10 22 10 22 9.140625 19.62890625 C8.84671875 18.61699219 8.5528125 17.60507812 8.25 16.5625 C6.31247568 10.43434543 3.54203061 5.33665945 0 0 Z " fill="#822529" transform="translate(262,44)"/>
<path d="M0 0 C0.66 0 1.32 0 2 0 C2.34933594 0.84304687 2.69867188 1.68609375 3.05859375 2.5546875 C3.51363281 3.65039062 3.96867188 4.74609375 4.4375 5.875 C5.11619141 7.51082031 5.11619141 7.51082031 5.80859375 9.1796875 C6.49543463 10.80558624 7.21065887 12.42131774 8 14 C3.80530429 13.40075776 -0.00999834 12.42500059 -4 11 C-4 10.34 -4 9.68 -4 9 C-1.69 9.33 0.62 9.66 3 10 C2.01 6.7 1.02 3.4 0 0 Z " fill="#8A4042" transform="translate(207,139)"/>
<path d="M0 0 C0.33 0.66 0.66 1.32 1 2 C-0.485 2.07347656 -0.485 2.07347656 -2 2.1484375 C-8.85523329 2.52403107 -15.39631865 2.97846489 -22 5 C-22 4.34 -22 3.68 -22 3 C-14.49783264 -0.0517291 -8.05364285 -0.33608711 0 0 Z " fill="#93363C" transform="translate(268,31)"/>
<path d="M0 0 C0.33 0.99 0.66 1.98 1 3 C0.67 3.66 0.34 4.32 0 5 C1.15628906 4.96519531 1.15628906 4.96519531 2.3359375 4.9296875 C3.33882813 4.91164063 4.34171875 4.89359375 5.375 4.875 C6.37273437 4.85179688 7.37046875 4.82859375 8.3984375 4.8046875 C11 5 11 5 13 7 C12.01257813 7.06058594 11.02515625 7.12117188 10.0078125 7.18359375 C8.72648437 7.26738281 7.44515625 7.35117188 6.125 7.4375 C4.84882813 7.51871094 3.57265625 7.59992188 2.2578125 7.68359375 C-0.88300152 7.79206027 -0.88300152 7.79206027 -3 9 C-3.66 8.34 -4.32 7.68 -5 7 C-4.01 6.67 -3.02 6.34 -2 6 C-0.77479736 2.99152582 -0.77479736 2.99152582 0 0 Z " fill="#660604" transform="translate(256,92)"/>
<path d="M0 0 C3.53659092 0.56002416 4.95559692 1.67774324 7.1875 4.4375 C7.95126953 5.36369141 7.95126953 5.36369141 8.73046875 6.30859375 C11.20157254 9.60086434 11.08825194 11.94041097 11 16 C9.48680431 13.73020646 8.04603984 11.45116076 6.625 9.125 C4.61622118 5.89426373 2.45720726 2.91224565 0 0 Z " fill="#702120" transform="translate(306,140)"/>
<path d="M0 0 C0.33 0 0.66 0 1 0 C1.165 1.0725 1.33 2.145 1.5 3.25 C2.19311019 5.7132837 2.67984645 6.75682719 4.73828125 8.3203125 C8.37416546 10.16906718 11.92698064 11.49087258 16 12 C16 12.33 16 12.66 16 13 C9.6563085 13.6748608 5.06085939 11.91675472 0 8 C-1.26171875 5.828125 -1.26171875 5.828125 -2 4 C-1.34 4 -0.68 4 0 4 C0 2.68 0 1.36 0 0 Z " fill="#7F2125" transform="translate(301,60)"/>
<path d="M0 0 C2.46440366 2.28837483 4.27242244 4.41664609 6.125 7.25 C6.74375 8.1575 7.3625 9.065 8 10 C8.66 10 9.32 10 10 10 C9.67 11.32 9.34 12.64 9 14 C4.9918197 10.32583472 2.47408385 6.85653496 0 2 C0 1.34 0 0.68 0 0 Z " fill="#7B2324" transform="translate(191,142)"/>
<path d="M0 0 C0.94875 0.04125 1.8975 0.0825 2.875 0.125 C2.875 0.455 2.875 0.785 2.875 1.125 C0.895 1.785 -1.085 2.445 -3.125 3.125 C-3.29187448 5.54145782 -3.29187448 5.54145782 -3.125 8.125 C-2.465 8.785 -1.805 9.445 -1.125 10.125 C2.47179066 9.80173447 2.47179066 9.80173447 5.875 9.125 C4.75 10.625 4.75 10.625 2.875 12.125 C-0.1875 12.5 -0.1875 12.5 -3.125 12.125 C-5.57397847 8.45153229 -5.44037716 6.46143601 -5.125 2.125 C-3.125 0.125 -3.125 0.125 0 0 Z " fill="#752327" transform="translate(305.125,81.875)"/>
<path d="M0 0 C0.66 0 1.32 0 2 0 C3.00496852 3.01490557 3.10335303 5.04181692 3.0625 8.1875 C3.05347656 9.08855469 3.04445313 9.98960938 3.03515625 10.91796875 C3.02355469 11.60503906 3.01195312 12.29210938 3 13 C1 12 1 12 0.33203125 10.0390625 C0.07486328 8.84410156 0.07486328 8.84410156 -0.1875 7.625 C-0.36667969 6.83351563 -0.54585938 6.04203125 -0.73046875 5.2265625 C-1 3 -1 3 0 0 Z " fill="#F39DBA" transform="translate(322,51)"/>
<path d="M0 0 C0.66 0.33 1.32 0.66 2 1 C1.47599609 1.69222656 1.47599609 1.69222656 0.94140625 2.3984375 C-2.86921327 7.86068531 -3.85094606 12.38742532 -4 19 C-4.33 19 -4.66 19 -5 19 C-6.87443946 9.73004484 -6.87443946 9.73004484 -4.73046875 5.48828125 C-3.24075162 3.54502027 -1.72068214 1.74063207 0 0 Z " fill="#874746" transform="translate(187,145)"/>
<path d="M0 0 C0.33 0.99 0.66 1.98 1 3 C-0.29296875 5.15625 -0.29296875 5.15625 -2.1875 7.5 C-2.79980469 8.2734375 -3.41210938 9.046875 -4.04296875 9.84375 C-5.89463225 11.88390619 -7.74034447 13.43677933 -10 15 C-9.43364626 11.12401658 -7.63666633 9.19058297 -5 6.375 C-2.16503895 3.41969243 -2.16503895 3.41969243 0 0 Z " fill="#7F3434" transform="translate(308,119)"/>
<path d="M0 0 C1.6415049 3.2830098 0.51888624 6.42545033 0 10 C-1.98 9.01 -3.96 8.02 -6 7 C-4.02 4.69 -2.04 2.38 0 0 Z " fill="#F9F4F3" transform="translate(207,95)"/>
<path d="M0 0 C4.40114397 0.50298788 6.71195019 2.08772731 10 5 C9.34 6.32 8.68 7.64 8 9 C5.06799526 6.14723863 2.35684596 3.34920216 0 0 Z " fill="#E0CFCD" transform="translate(325,86)"/>
<path d="M0 0 C0.33 0.66 0.66 1.32 1 2 C2.258125 1.835 3.51625 1.67 4.8125 1.5 C7.26456585 1.17841759 9.51650694 1 12 1 C8.59141414 4.40858586 3.67798535 4.93008394 -1 5.125 C-1.66 5.08375 -2.32 5.0425 -3 5 C-1.125 1.125 -1.125 1.125 0 0 Z " fill="#853436" transform="translate(269,154)"/>
<path d="M0 0 C0.99 0.33 1.98 0.66 3 1 C-0.66666667 4.66666667 -4.33333333 8.33333333 -8 12 C-7.41463247 8.33939179 -5.916761 6.45464836 -3.4375 3.75 C-2.79683594 3.04359375 -2.15617188 2.3371875 -1.49609375 1.609375 C-0.75552734 0.81273438 -0.75552734 0.81273438 0 0 Z " fill="#F4C9C5" transform="translate(199,102)"/>
<path d="M0 0 C0.99 0.33 1.98 0.66 3 1 C3.6875 3.0625 3.6875 3.0625 4 5 C4.66 4.01 5.32 3.02 6 2 C5.67 1.34 5.34 0.68 5 0 C6.32 0.33 7.64 0.66 9 1 C5.375 6.875 5.375 6.875 2 8 C0 1.125 0 1.125 0 0 Z " fill="#863437" transform="translate(245,100)"/>
<path d="M0 0 C0.99 0.33 1.98 0.66 3 1 C0.78071806 3.90802461 -0.92969143 5.95312762 -4 8 C-6.1875 7.625 -6.1875 7.625 -8 7 C-7.50628906 6.66226563 -7.01257813 6.32453125 -6.50390625 5.9765625 C-5.86324219 5.53054687 -5.22257812 5.08453125 -4.5625 4.625 C-3.92441406 4.18414062 -3.28632813 3.74328125 -2.62890625 3.2890625 C-0.86259072 2.07839147 -0.86259072 2.07839147 0 0 Z " fill="#F29BBA" transform="translate(268,136)"/>
<path d="M0 0 C2.23551759 3.35327639 2.17283528 3.90743657 1.625 7.6875 C1.51414062 8.49574219 1.40328125 9.30398437 1.2890625 10.13671875 C1.19367188 10.75160156 1.09828125 11.36648437 1 12 C0.34 11.34 -0.32 10.68 -1 10 C-0.625 7.875 -0.625 7.875 0 6 C-1.32 5.01 -2.64 4.02 -4 3 C-3.67 2.34 -3.34 1.68 -3 1 C-2.01 1.33 -1.02 1.66 0 2 C0 1.34 0 0.68 0 0 Z " fill="#813C3A" transform="translate(339,91)"/>
<path d="M0 0 C-3.44175522 2.14699969 -5.7720292 2.09856795 -9.75 1.625 C-10.73484375 1.51414063 -11.7196875 1.40328125 -12.734375 1.2890625 C-13.48203125 1.19367188 -14.2296875 1.09828125 -15 1 C-15 0.67 -15 0.34 -15 0 C-9.62374766 -0.84888195 -5.34629602 -1.0024305 0 0 Z " fill="#894441" transform="translate(253,221)"/>
<path d="M0 0 C3.65316671 1.24976756 4.78065836 1.67098753 7 5 C5.68 5 4.36 5 3 5 C2.67 6.65 2.34 8.3 2 10 C0 8 0 8 -0.1953125 6.0546875 C-0.13020833 4.03645833 -0.06510417 2.01822917 0 0 Z " fill="#8B3033" transform="translate(198,143)"/>
<path d="M0 0 C1 3 1 3 0.00390625 5.04296875 C-0.47175781 5.75066406 -0.94742187 6.45835938 -1.4375 7.1875 C-1.91058594 7.90292969 -2.38367188 8.61835937 -2.87109375 9.35546875 C-3.24363281 9.89816406 -3.61617188 10.44085938 -4 11 C-5 8 -5 8 -4.00390625 5.95703125 C-3.52824219 5.24933594 -3.05257813 4.54164062 -2.5625 3.8125 C-2.08941406 3.09707031 -1.61632812 2.38164063 -1.12890625 1.64453125 C-0.75636719 1.10183594 -0.38382812 0.55914062 0 0 Z " fill="#6B1F1D" transform="translate(338,102)"/>
<path d="M0 0 C1.32 0 2.64 0 4 0 C4 1.65 4 3.3 4 5 C2.35 5 0.7 5 -1 5 C-0.67 3.35 -0.34 1.7 0 0 Z " fill="#EADFE2" transform="translate(260,101)"/>
<path d="M0 0 C1.50433594 0.29197266 1.50433594 0.29197266 3.0390625 0.58984375 C4.19535156 0.82380859 4.19535156 0.82380859 5.375 1.0625 C4.715 1.7225 4.055 2.3825 3.375 3.0625 C-3.80921053 2.60635965 -3.80921053 2.60635965 -7.625 0.0625 C-4.81015955 -1.34492022 -3.05563887 -0.60402164 0 0 Z " fill="#843836" transform="translate(221.625,138.9375)"/>
<path d="M0 0 C0.86625 0.556875 0.86625 0.556875 1.75 1.125 C0.43 1.125 -0.89 1.125 -2.25 1.125 C-2.58 3.105 -2.91 5.085 -3.25 7.125 C-4.24 6.795 -5.23 6.465 -6.25 6.125 C-6.25 4.125 -6.25 4.125 -5.25 3.125 C-5.58 2.465 -5.91 1.805 -6.25 1.125 C-2.80384615 -1.09038462 -2.80384615 -1.09038462 0 0 Z " fill="#BB6072" transform="translate(248.25,37.875)"/>
<path d="M0 0 C0.70125 0.309375 1.4025 0.61875 2.125 0.9375 C5.08936657 2.03302678 7.87698108 2.56422992 11 3 C10.34 3.66 9.68 4.32 9 5 C5.19090105 4.67582137 3.21627837 4.14418558 0 2 C0 1.34 0 0.68 0 0 Z " fill="#732221" transform="translate(210,248)"/>
<path d="M0 0 C0.66 0 1.32 0 2 0 C1.43628586 3.26954202 0.50037734 4.82575883 -2 7 C-2.99 6.67 -3.98 6.34 -5 6 C-4.34 6 -3.68 6 -3 6 C-2.87625 5.38125 -2.7525 4.7625 -2.625 4.125 C-2 2 -2 2 0 0 Z " fill="#68110F" transform="translate(224,246)"/>
<path d="M0 0 C-0.33 0.66 -0.66 1.32 -1 2 C-3.97 2 -6.94 2 -10 2 C-9 0 -9 0 -7.25 -0.6875 C-4.60760177 -1.05449975 -2.57327078 -0.64331769 0 0 Z " fill="#6A0E0C" transform="translate(309,177)"/>
<path d="M0 0 C1.32 0 2.64 0 4 0 C3.67 1.65 3.34 3.3 3 5 C2.01 5 1.02 5 0 5 C-0.5625 3.0625 -0.5625 3.0625 -1 1 C-0.67 0.67 -0.34 0.34 0 0 Z " fill="#A196C5" transform="translate(315,82)"/>
<path d="M0 0 C0 0.33 0 0.66 0 1 C-4.29 1.99 -8.58 2.98 -13 4 C-13 3.34 -13 2.68 -13 2 C-8.50343896 -0.24828052 -4.92127034 -0.16682272 0 0 Z " fill="#86292D" transform="translate(259,32)"/>
<path d="M0 0 C0.268125 0.556875 0.53625 1.11375 0.8125 1.6875 C2.10122647 4.19712523 3.52926478 6.59334236 5 9 C4.01 9.33 3.02 9.66 2 10 C-1.07692308 4.58461538 -1.07692308 4.58461538 -0.6875 1.625 C-0.460625 1.08875 -0.23375 0.5525 0 0 Z " fill="#7F3836" transform="translate(262,240)"/>
<path d="M0 0 C1.32 0 2.64 0 4 0 C3.6875 3.375 3.6875 3.375 3 7 C2.01 7.66 1.02 8.32 0 9 C0.185625 7.88625 0.37125 6.7725 0.5625 5.625 C1.31680657 2.17431139 1.31680657 2.17431139 0 0 Z " fill="#8B4644" transform="translate(261,218)"/>
<path d="M0 0 C1.98 0 3.96 0 6 0 C5.01 0.33 4.02 0.66 3 1 C2.67 3.64 2.34 6.28 2 9 C1.67 9 1.34 9 1 9 C0.67 6.03 0.34 3.06 0 0 Z " fill="#8D4745" transform="translate(299,179)"/>
<path d="M0 0 C1.0448029 3.13440869 1.15317663 4.02096037 0 7 C-0.99 7.66 -1.98 8.32 -3 9 C-3.66 8.34 -4.32 7.68 -5 7 C-4.01 6.67 -3.02 6.34 -2 6 C-0.77479736 2.99152582 -0.77479736 2.99152582 0 0 Z " fill="#711615" transform="translate(256,92)"/>
<path d="M0 0 C0.33 0 0.66 0 1 0 C1 3.33333333 1 6.66666667 1 10 C-0.65 8.35 -2.3 6.7 -4 5 C-3.01 4.34 -2.02 3.68 -1 3 C-0.67 2.01 -0.34 1.02 0 0 Z " fill="#732A29" transform="translate(331,80)"/>
<path d="M0 0 C0.99 0.33 1.98 0.66 3 1 C1.02 2.98 -0.96 4.96 -3 7 C-3.66 6.67 -4.32 6.34 -5 6 C-3.35 4.02 -1.7 2.04 0 0 Z " fill="#F49DBE" transform="translate(235,44)"/>
<path d="M0 0 C0.66 0 1.32 0 2 0 C1.6875 1.875 1.6875 1.875 1 4 C0.01 4.66 -0.98 5.32 -2 6 C-2.66 5.34 -3.32 4.68 -4 4 C-3.34 4 -2.68 4 -2 4 C-1.34 2.68 -0.68 1.36 0 0 Z " fill="#6D1716" transform="translate(284,248)"/>
<path d="M0 0 C1.32 0.33 2.64 0.66 4 1 C1.36 2.98 -1.28 4.96 -4 7 C-2 3 -2 3 0 0 Z " fill="#8B3B3C" transform="translate(199,99)"/>
<path d="M0 0 C0.99 0.33 1.98 0.66 3 1 C2.67 1.33 2.34 1.66 2 2 C3.32 2.66 4.64 3.32 6 4 C3.36 4 0.72 4 -2 4 C-1.34 2.68 -0.68 1.36 0 0 Z " fill="#FBA7CC" transform="translate(310,46)"/>
</svg>
