<?xml version="1.0" encoding="UTF-8"?>
<svg version="1.1" xmlns="http://www.w3.org/2000/svg" width="498" height="281">
<path d="M0 0 C164.34 0 328.68 0 498 0 C498 92.73 498 185.46 498 281 C333.66 281 169.32 281 0 281 C0 188.27 0 95.54 0 0 Z " fill="#FCFCFB" transform="translate(0,0)"/>
<path d="M0 0 C2.94718509 1.31082674 2.94718509 1.31082674 6.0859375 1.90234375 C7.42785156 1.20625 7.42785156 1.20625 8.796875 0.49609375 C12.9285486 -1.50595237 16.18219135 -1.63601514 20.7109375 -1.59765625 C21.89973511 -1.58798828 21.89973511 -1.58798828 23.11254883 -1.578125 C32.08036663 -1.3016044 39.72704757 0.98998536 46.0859375 7.58984375 C50.95069597 13.87843397 53.40227341 21.04020674 54.0859375 28.90234375 C57.7159375 28.90234375 61.3459375 28.90234375 65.0859375 28.90234375 C65.05113281 30.10632812 65.01632812 31.3103125 64.98046875 32.55078125 C64.9523347 34.12628817 64.92503413 35.70181013 64.8984375 37.27734375 C64.87330078 38.07140625 64.84816406 38.86546875 64.82226562 39.68359375 C64.79589345 41.75820523 64.93107288 43.8333524 65.0859375 45.90234375 C66.0759375 46.56234375 67.0659375 47.22234375 68.0859375 47.90234375 C67.48723818 51.41970224 66.53253492 54.39749955 65.0859375 57.65234375 C63.69371457 60.99466618 62.87950378 63.72863529 62.7109375 67.33984375 C62.27897462 73.29250291 59.11679328 77.8968395 56.0859375 82.90234375 C52.63198504 88.71568627 49.81627365 94.7143278 47.0859375 100.90234375 C46.4259375 100.90234375 45.7659375 100.90234375 45.0859375 100.90234375 C41.23667062 93.60201001 37.43480251 86.36709861 38.0859375 77.90234375 C36.7659375 77.90234375 35.4459375 77.90234375 34.0859375 77.90234375 C34.0034375 79.05734375 33.9209375 80.21234375 33.8359375 81.40234375 C32.53526208 91.38590643 25.99223008 98.08001825 19.0859375 104.90234375 C20.2409375 105.37671875 21.3959375 105.85109375 22.5859375 106.33984375 C28.81001663 109.42973357 34.57795945 115.340207 37.0859375 121.90234375 C37.98730362 128.37657926 38.05093455 134.30203515 34.5234375 139.96484375 C31.52594612 143.84520671 28.51081057 145.86009464 24.0859375 147.90234375 C23.4259375 148.23234375 22.7659375 148.56234375 22.0859375 148.90234375 C19.7529509 148.94256766 17.41887084 148.94554622 15.0859375 148.90234375 C15.09379272 149.77802002 15.09379272 149.77802002 15.10180664 150.67138672 C15.12287831 153.37336099 15.13569209 156.07531786 15.1484375 158.77734375 C15.15681641 159.69515625 15.16519531 160.61296875 15.17382812 161.55859375 C15.18968418 166.061712 15.08071753 170.46432431 14.578125 174.94140625 C13.90226278 180.98532356 14.06493167 186.9760744 14.21289062 193.046875 C14.33096619 202.42346377 13.46829807 211.57444828 7.0859375 218.90234375 C3.28614521 222.18314002 -0.92883979 223.69544367 -5.92578125 223.4140625 C-9.8396162 222.40676903 -12.37298201 219.94620487 -14.9140625 216.90234375 C-16.2731656 214.43582332 -17.08848126 212.53948612 -17.9140625 209.90234375 C-18.25308594 208.88269531 -18.59210938 207.86304688 -18.94140625 206.8125 C-20.7495853 201.19491881 -22.36667718 195.78673594 -22.9140625 189.90234375 C-23.62522217 190.06532959 -24.33638184 190.22831543 -25.0690918 190.39624023 C-27.92967046 190.90512031 -30.53125608 191.01621418 -33.43359375 191 C-34.45517578 190.99677734 -35.47675781 190.99355469 -36.52929688 190.99023438 C-37.58439453 190.98185547 -38.63949219 190.97347656 -39.7265625 190.96484375 C-40.80099609 190.96033203 -41.87542969 190.95582031 -42.98242188 190.95117188 C-45.62635933 190.93942104 -48.27018202 190.92299162 -50.9140625 190.90234375 C-50.87925781 191.94132813 -50.84445313 192.9803125 -50.80859375 194.05078125 C-50.36616309 212.76312777 -50.36616309 212.76312777 -56.1640625 219.52734375 C-59.89718281 221.3939039 -61.77779824 221.67351166 -65.9140625 220.90234375 C-75.29046532 215.70534529 -78.58586959 205.68129489 -81.39453125 195.96484375 C-85.27233259 181.18594984 -88.84561199 160.69699222 -83.9140625 145.90234375 C-84.9659375 145.98484375 -86.0178125 146.06734375 -87.1015625 146.15234375 C-91.59711516 145.85755341 -92.88936761 145.17909655 -95.9140625 141.90234375 C-99.94518368 135.50815153 -99.83196199 128.26253781 -98.9140625 120.90234375 C-97.68980563 117.78340363 -96.07477864 115.44256244 -93.9140625 112.90234375 C-93.1509375 111.91234375 -92.3878125 110.92234375 -91.6015625 109.90234375 C-91.0446875 109.24234375 -90.4878125 108.58234375 -89.9140625 107.90234375 C-90.27757812 107.13277344 -90.27757812 107.13277344 -90.6484375 106.34765625 C-96.43009394 93.138795 -101.23948835 75.17976566 -96.9140625 60.90234375 C-98.5228125 60.93328125 -98.5228125 60.93328125 -100.1640625 60.96484375 C-103.06196674 60.91654535 -105.20018391 60.7707849 -107.9140625 59.90234375 C-106.51806218 56.67321171 -104.91440805 54.83890298 -102.2890625 52.52734375 C-97.72609229 48.09615607 -94.92913779 43.01128497 -91.91796875 37.5 C-84.29309135 23.58748554 -73.25163509 5.40910344 -57.34765625 0.03515625 C-55.49032693 -0.47739267 -53.62366695 -0.95708326 -51.75 -1.40625 C-48.93571312 -2.05354808 -48.93571312 -2.05354808 -46.328125 -2.9453125 C-31.96064853 -7.58346181 -13.65978617 -6.17720706 0 0 Z " fill="#FAA3C6" transform="translate(278.9140625,31.09765625)"/>
<path d="M0 0 C1.175625 0.268125 2.35125 0.53625 3.5625 0.8125 C4.81546875 1.08320313 4.81546875 1.08320313 6.09375 1.359375 C8.09978921 1.80156644 10.09970671 2.27214964 12.09375 2.765625 C23.96968652 5.49388069 35.85790263 5.72695743 48 6 C48 6.66 48 7.32 48 8 C50.23143965 7.57424494 52.46009775 7.13389613 54.6875 6.6875 C55.92886719 6.44386719 57.17023438 6.20023438 58.44921875 5.94921875 C61.80618134 5.05181291 64.14909024 3.94603209 67 2 C66.71473028 8.7038385 63.89100506 12.67438035 60 18 C59.01 19.485 59.01 19.485 58 21 C66.86595391 19.58090677 72.88094534 17.74759803 79 11 C84.55730568 19.33595852 83.31600635 31.62486023 83.25 41.25 C83.24734131 42.28078674 83.24734131 42.28078674 83.24462891 43.33239746 C83.21857699 51.95207528 82.80569046 60.24916265 81.43359375 68.765625 C80.49825417 75.93473848 80.95770113 83.30429869 81.16210938 90.51269531 C81.28104817 97.11763502 80.94593411 102.03832291 78 108 C75.5625 110.375 75.5625 110.375 73 112 C72.401875 112.4125 71.80375 112.825 71.1875 113.25 C67.80417808 114.40999609 64.42150842 115.07041604 61 114 C56.63103001 109.73017456 54.85702388 105.68832801 53.25 99.875 C53.04246094 99.17246094 52.83492188 98.46992188 52.62109375 97.74609375 C52.06150113 95.83625829 51.52949417 93.91839811 51 92 C50.78859375 91.32195312 50.5771875 90.64390625 50.359375 89.9453125 C49.80884329 86.96526041 49.94191612 84.02036152 50 81 C48.25976562 81.2165625 48.25976562 81.2165625 46.484375 81.4375 C23.58424282 84.19474761 23.58424282 84.19474761 17 82 C16.99383667 83.09671021 16.99383667 83.09671021 16.98754883 84.21557617 C16.95457791 87.54036307 16.88392853 90.86332616 16.8125 94.1875 C16.80669922 95.33798828 16.80089844 96.48847656 16.79492188 97.67382812 C16.54620497 107.20797618 16.54620497 107.20797618 13.66796875 110.265625 C10.12814972 112.56676651 8.14836446 112.66670143 4 112 C-1.72711428 109.0666 -4.85188676 102.86376856 -7 97 C-13.62021499 74.23505925 -19.11799617 41.23599233 -8 19 C-7.01 18.67 -6.02 18.34 -5 18 C-5.66 14.7 -6.32 11.4 -7 8 C-5.07942708 9.23697917 -3.15885417 10.47395833 -1.23828125 11.7109375 C1.37806398 13.28804692 1.37806398 13.28804692 6 15 C4.02 10.05 2.04 5.1 0 0 Z " fill="#FCFBFA" transform="translate(209,138)"/>
<path d="M0 0 C2.94718509 1.31082674 2.94718509 1.31082674 6.0859375 1.90234375 C7.42785156 1.20625 7.42785156 1.20625 8.796875 0.49609375 C12.9285486 -1.50595237 16.18219135 -1.63601514 20.7109375 -1.59765625 C21.89973511 -1.58798828 21.89973511 -1.58798828 23.11254883 -1.578125 C32.08036663 -1.3016044 39.72704757 0.98998536 46.0859375 7.58984375 C50.95069597 13.87843397 53.40227341 21.04020674 54.0859375 28.90234375 C57.7159375 28.90234375 61.3459375 28.90234375 65.0859375 28.90234375 C65.05113281 30.10632812 65.01632812 31.3103125 64.98046875 32.55078125 C64.9523347 34.12628817 64.92503413 35.70181013 64.8984375 37.27734375 C64.87330078 38.07140625 64.84816406 38.86546875 64.82226562 39.68359375 C64.79589345 41.75820523 64.93107288 43.8333524 65.0859375 45.90234375 C66.0759375 46.56234375 67.0659375 47.22234375 68.0859375 47.90234375 C67.48723818 51.41970224 66.53253492 54.39749955 65.0859375 57.65234375 C63.69371457 60.99466618 62.87950378 63.72863529 62.7109375 67.33984375 C62.27897462 73.29250291 59.11679328 77.8968395 56.0859375 82.90234375 C52.63198504 88.71568627 49.81627365 94.7143278 47.0859375 100.90234375 C46.4259375 100.90234375 45.7659375 100.90234375 45.0859375 100.90234375 C41.23667062 93.60201001 37.43480251 86.36709861 38.0859375 77.90234375 C36.7659375 77.90234375 35.4459375 77.90234375 34.0859375 77.90234375 C34.0034375 79.05734375 33.9209375 80.21234375 33.8359375 81.40234375 C32.53526208 91.38590643 25.99223008 98.08001825 19.0859375 104.90234375 C20.2409375 105.37671875 21.3959375 105.85109375 22.5859375 106.33984375 C28.81001663 109.42973357 34.57795945 115.340207 37.0859375 121.90234375 C37.98730362 128.37657926 38.05093455 134.30203515 34.5234375 139.96484375 C31.52594612 143.84520671 28.51081057 145.86009464 24.0859375 147.90234375 C23.4259375 148.23234375 22.7659375 148.56234375 22.0859375 148.90234375 C19.7529509 148.94256766 17.41887084 148.94554622 15.0859375 148.90234375 C15.09379272 149.77802002 15.09379272 149.77802002 15.10180664 150.67138672 C15.12287831 153.37336099 15.13569209 156.07531786 15.1484375 158.77734375 C15.15681641 159.69515625 15.16519531 160.61296875 15.17382812 161.55859375 C15.18968418 166.061712 15.08071753 170.46432431 14.578125 174.94140625 C13.90226278 180.98532356 14.06493167 186.9760744 14.21289062 193.046875 C14.33096619 202.42346377 13.46829807 211.57444828 7.0859375 218.90234375 C3.28614521 222.18314002 -0.92883979 223.69544367 -5.92578125 223.4140625 C-9.8396162 222.40676903 -12.37298201 219.94620487 -14.9140625 216.90234375 C-16.2731656 214.43582332 -17.08848126 212.53948612 -17.9140625 209.90234375 C-18.25308594 208.88269531 -18.59210938 207.86304688 -18.94140625 206.8125 C-20.7495853 201.19491881 -22.36667718 195.78673594 -22.9140625 189.90234375 C-23.62522217 190.06532959 -24.33638184 190.22831543 -25.0690918 190.39624023 C-27.92967046 190.90512031 -30.53125608 191.01621418 -33.43359375 191 C-34.45517578 190.99677734 -35.47675781 190.99355469 -36.52929688 190.99023438 C-37.58439453 190.98185547 -38.63949219 190.97347656 -39.7265625 190.96484375 C-40.80099609 190.96033203 -41.87542969 190.95582031 -42.98242188 190.95117188 C-45.62635933 190.93942104 -48.27018202 190.92299162 -50.9140625 190.90234375 C-50.87925781 191.94132813 -50.84445313 192.9803125 -50.80859375 194.05078125 C-50.36616309 212.76312777 -50.36616309 212.76312777 -56.1640625 219.52734375 C-59.89718281 221.3939039 -61.77779824 221.67351166 -65.9140625 220.90234375 C-75.29046532 215.70534529 -78.58586959 205.68129489 -81.39453125 195.96484375 C-85.27233259 181.18594984 -88.84561199 160.69699222 -83.9140625 145.90234375 C-84.9659375 145.98484375 -86.0178125 146.06734375 -87.1015625 146.15234375 C-91.59711516 145.85755341 -92.88936761 145.17909655 -95.9140625 141.90234375 C-99.94518368 135.50815153 -99.83196199 128.26253781 -98.9140625 120.90234375 C-97.68980563 117.78340363 -96.07477864 115.44256244 -93.9140625 112.90234375 C-93.1509375 111.91234375 -92.3878125 110.92234375 -91.6015625 109.90234375 C-91.0446875 109.24234375 -90.4878125 108.58234375 -89.9140625 107.90234375 C-90.27757812 107.13277344 -90.27757812 107.13277344 -90.6484375 106.34765625 C-96.43009394 93.138795 -101.23948835 75.17976566 -96.9140625 60.90234375 C-98.5228125 60.93328125 -98.5228125 60.93328125 -100.1640625 60.96484375 C-103.06196674 60.91654535 -105.20018391 60.7707849 -107.9140625 59.90234375 C-106.51806218 56.67321171 -104.91440805 54.83890298 -102.2890625 52.52734375 C-97.72609229 48.09615607 -94.92913779 43.01128497 -91.91796875 37.5 C-84.29309135 23.58748554 -73.25163509 5.40910344 -57.34765625 0.03515625 C-55.49032693 -0.47739267 -53.62366695 -0.95708326 -51.75 -1.40625 C-48.93571312 -2.05354808 -48.93571312 -2.05354808 -46.328125 -2.9453125 C-31.96064853 -7.58346181 -13.65978617 -6.17720706 0 0 Z M-48.9140625 -0.09765625 C-46.4390625 1.88234375 -46.4390625 1.88234375 -43.9140625 3.90234375 C-44.5740625 3.57234375 -45.2340625 3.24234375 -45.9140625 2.90234375 C-50.76378612 1.28576921 -55.39998228 0.96794393 -60.2578125 2.7734375 C-75.13675523 10.54411821 -83.34972809 26.79631576 -91.49584961 40.75585938 C-94.95412875 46.57724903 -98.59662953 51.49054547 -103.3671875 56.3203125 C-105.03058211 57.65274311 -105.03058211 57.65274311 -104.9140625 58.90234375 C-101.6140625 58.90234375 -98.3140625 58.90234375 -94.9140625 58.90234375 C-95.07132813 59.73378906 -95.22859375 60.56523438 -95.390625 61.421875 C-97.48101209 75.32138913 -95.16094266 87.66037983 -90.9140625 100.90234375 C-90.59179688 101.92714844 -90.26953125 102.95195312 -89.9375 104.0078125 C-87.75426746 110.13035593 -84.31199768 115.12348505 -79.9140625 119.90234375 C-79.5840625 119.90234375 -79.2540625 119.90234375 -78.9140625 119.90234375 C-78.70435691 115.76140677 -78.70435691 115.76140677 -79.9140625 111.90234375 C-77.9340625 113.22234375 -75.9540625 114.54234375 -73.9140625 115.90234375 C-75.3990625 115.40734375 -75.3990625 115.40734375 -76.9140625 114.90234375 C-76.2540625 118.20234375 -75.5940625 121.50234375 -74.9140625 124.90234375 C-76.3990625 125.39734375 -76.3990625 125.39734375 -77.9140625 125.90234375 C-78.88393835 128.05118762 -78.88393835 128.05118762 -79.4765625 130.71484375 C-79.70472656 131.58753906 -79.93289062 132.46023437 -80.16796875 133.359375 C-82.12603072 142.65760643 -83.27665292 151.5771497 -83.2265625 161.08984375 C-83.22309814 162.17555664 -83.21963379 163.26126953 -83.21606445 164.37988281 C-83.09377024 173.51208513 -81.92559268 182.01808545 -79.9140625 190.90234375 C-79.6975 192.07023438 -79.4809375 193.238125 -79.2578125 194.44140625 C-77.53175909 203.21551106 -74.54733099 210.89643233 -68.4765625 217.58984375 C-64.96934671 219.38622257 -62.80144622 219.52710185 -58.9140625 218.90234375 C-56.3536996 217.23792043 -55.34387816 216.50136992 -53.9140625 213.90234375 C-53.15104052 209.63690718 -53.12336992 205.41498157 -53.1015625 201.08984375 C-53.07642578 199.92001953 -53.05128906 198.75019531 -53.02539062 197.54492188 C-52.96659068 194.66372445 -52.93025718 191.78404392 -52.9140625 188.90234375 C-51.9240625 189.23234375 -50.9340625 189.56234375 -49.9140625 189.90234375 C-39.87813645 190.6400272 -29.85298763 189.13918777 -19.9140625 187.90234375 C-19.96046875 188.87042969 -20.006875 189.83851563 -20.0546875 190.8359375 C-20.05006208 195.43245106 -18.91787183 199.56917888 -17.6640625 203.96484375 C-17.45910156 204.74150391 -17.25414062 205.51816406 -17.04296875 206.31835938 C-15.43563351 212.07067127 -13.20447097 216.61193528 -8.9140625 220.90234375 C-2.96478597 221.62035988 0.47140864 220.74654614 5.390625 217.33203125 C8.80716271 214.4508036 10.26269518 211.19446972 11.0859375 206.90234375 C11.14510015 204.65310324 11.14692516 202.40211066 11.11328125 200.15234375 C11.10061497 198.80729443 11.08825554 197.46224218 11.07617188 196.1171875 C11.05159656 194.02220268 11.023842 191.92737568 10.98999023 189.83251953 C10.87200891 182.02717238 11.15515863 174.66687511 12.62084961 166.96728516 C13.54528875 160.87520696 13.41356003 154.73866247 13.3984375 148.58984375 C13.41455078 147.29111328 13.43066406 145.99238281 13.44726562 144.65429688 C13.4518965 135.34160362 12.21960752 126.92866401 10.0859375 117.90234375 C9.33812012 118.56387451 9.33812012 118.56387451 8.57519531 119.23876953 C3.60272561 123.63749273 -0.01934355 125.91989059 -6.6640625 127.02734375 C-7.64890625 127.19492188 -8.63375 127.3625 -9.6484375 127.53515625 C-10.39609375 127.65632812 -11.14375 127.7775 -11.9140625 127.90234375 C-10.6640625 126.33984375 -10.6640625 126.33984375 -8.9140625 124.90234375 C-6.9609375 125.26953125 -6.9609375 125.26953125 -4.9140625 125.90234375 C2.58631099 124.1522566 6.87557922 120.2991971 11.0859375 113.90234375 C13.26981722 109.35353728 14.75073676 104.76267674 16.0859375 99.90234375 C16.405625 98.75636719 16.7253125 97.61039062 17.0546875 96.4296875 C23.48299473 68.60345018 19.20722346 38.18760909 4.1484375 13.83984375 C0.76883142 9.09382012 -3.65782551 4.53046225 -8.9140625 1.90234375 C-11.3074778 1.77789773 -13.70494328 1.72667306 -16.1015625 1.71484375 C-17.39449219 1.70066406 -18.68742187 1.68648437 -20.01953125 1.671875 C-24.0449042 1.91008664 -27.10960253 2.65392822 -30.9140625 3.90234375 C-30.6015625 2.02734375 -30.6015625 2.02734375 -29.9140625 -0.09765625 C-28.9240625 -0.75765625 -27.9340625 -1.41765625 -26.9140625 -2.09765625 C-29.64349787 -2.15182366 -32.37184814 -2.1914085 -35.1015625 -2.22265625 C-35.87048828 -2.23941406 -36.63941406 -2.25617187 -37.43164062 -2.2734375 C-41.7290059 -2.31032476 -44.99308081 -2.09350665 -48.9140625 -0.09765625 Z " fill="#812D30" transform="translate(278.9140625,31.09765625)"/>
<path d="M0 0 C1.2452606 2.4905212 0.96761907 3.98301117 0.8125 6.75 C0.76306742 11.63676378 1.64872151 14.27635723 5 18 C7.60262242 20.13786842 9.74641635 20.13030496 13 19.9375 C16.1915065 19.4332657 16.91629934 19.07929536 19.375 16.75 C21.25888047 13.72158995 21.25888047 13.72158995 23 9 C26.96 10.32 30.92 11.64 35 13 C35.66 11.35 36.32 9.7 37 8 C37.66 7.34 38.32 6.68 39 6 C39.495 8.97 39.495 8.97 40 12 C43.99996286 10.66667905 44.83782337 8.5042173 47 5 C48.32 5.33 49.64 5.66 51 6 C50.3503125 6.66902344 49.700625 7.33804688 49.03125 8.02734375 C46.47203403 11.77265789 46.46424498 14.06183721 46.5 18.5625 C46.4896875 19.86316406 46.479375 21.16382813 46.46875 22.50390625 C47.07080835 26.4659814 47.86643955 27.60890629 51 30 C54.19491759 31.59745879 57.53209389 31.50816842 61 31 C63.96858157 28.79259319 64.82865791 27.51402627 66 24 C66.90025528 15.90518567 66.90025528 15.90518567 63.5625 8.875 C62.716875 8.25625 61.87125 7.6375 61 7 C60.505 6.01 60.505 6.01 60 5 C64.05606165 5.46800711 67.46588679 5.87953208 71 8 C71.29747233 14.23275355 70.40959504 19.12193459 68.375 25 C68.10502197 25.79237061 67.83504395 26.58474121 67.55688477 27.40112305 C65.54859417 33.03120765 63.24712939 37.71112978 59 42 C58.36578125 42.88042969 57.7315625 43.76085937 57.078125 44.66796875 C52.29335462 48.2929788 47.65042671 47.65851462 41.8125 47.5 C40.65081299 47.48227539 39.48912598 47.46455078 38.29223633 47.44628906 C21.26181638 47.0274986 1.52910237 45.30478814 -11.6875 33.625 C-15.24656181 29.58498389 -17.30767693 26.21008302 -17.25 20.75 C-15.89814538 11.84278011 -6.62525435 5.35658862 0 0 Z " fill="#F5F0EF" transform="translate(208,95)"/>
<path d="M0 0 C2.11602624 1.49488351 3.76149824 3.04977901 5.49609375 4.97265625 C6.08519531 5.59140625 6.67429687 6.21015625 7.28125 6.84765625 C24.58662104 26.92949342 26.79759089 55.80460917 25.49609375 80.97265625 C24.06250268 94.95238155 20.73834015 110.5115888 9.49609375 119.97265625 C6.21539508 121.84646354 3.10080764 123.28911815 -0.7421875 122.53125 C-1.32355469 122.34691406 -1.90492188 122.16257812 -2.50390625 121.97265625 C-2.09398437 121.43898438 -1.6840625 120.9053125 -1.26171875 120.35546875 C2.82797029 114.7003485 4.65866499 109.88866276 5.49609375 102.97265625 C3.94921875 104.14828125 3.94921875 104.14828125 2.37109375 105.34765625 C-0.80896554 107.60903175 -3.64879024 109.1159638 -7.50390625 109.97265625 C-9.6796875 109.51171875 -9.6796875 109.51171875 -11.50390625 108.97265625 C-10.47265625 108.33328125 -9.44140625 107.69390625 -8.37890625 107.03515625 C0.82529783 100.35468555 4.47846813 89.14531698 7.11328125 78.47265625 C10.14991086 58.64160573 6.44220852 29.43262671 -5.63671875 12.91015625 C-10.89386001 7.45504733 -16.9708948 3.85889289 -24.50390625 2.97265625 C-24.50390625 2.31265625 -24.50390625 1.65265625 -24.50390625 0.97265625 C-16.78030273 -1.49253509 -7.74148575 -3.17630383 0 0 Z " fill="#FBA4C7" transform="translate(272.50390625,34.02734375)"/>
<path d="M0 0 C2.9375 2.4375 2.9375 2.4375 5 5 C5.70125 5.78375 6.4025 6.5675 7.125 7.375 C11.38806667 13.34329334 12.4897346 18.39158727 12.375 25.5625 C12.38660156 26.29146484 12.39820313 27.02042969 12.41015625 27.77148438 C12.38421822 32.57434243 11.51727096 35.78457006 9 40 C8.67 39.34 8.34 38.68 8 38 C8.495 37.01 8.495 37.01 9 36 C9.71436445 25.97547586 10.14983505 15.99294964 3.234375 7.9453125 C-1.64066682 3.3197807 -7.10077485 0 -14 0 C-17.66697409 3.88921494 -20 7.58681081 -20 13 C-19.81824219 12.45730469 -19.63648438 11.91460937 -19.44921875 11.35546875 C-19.19785156 10.64003906 -18.94648438 9.92460938 -18.6875 9.1875 C-18.44386719 8.47980469 -18.20023437 7.77210937 -17.94921875 7.04296875 C-16.90478742 4.79507745 -15.94414173 3.53160434 -14 2 C-8.79329714 1.41056194 -5.42609211 2.22082588 -1 5 C-0.34 5.99 0.32 6.98 1 8 C-0.051875 8.226875 -1.10375 8.45375 -2.1875 8.6875 C-6.9224877 10.0717202 -9.57925445 12.6799273 -12.16015625 16.89453125 C-14.28703412 20.88147436 -15.54540808 24.45408076 -16 29 C-16.66 29 -17.32 29 -18 29 C-14.52263974 32.78034623 -14.52263974 32.78034623 -10 35 C-11.2375 34.4740625 -11.2375 34.4740625 -12.5 33.9375 C-15 32 -15 32 -15.5 28.75 C-14.92676741 24.4507556 -14.11587825 21.77835401 -12 18 C-10.1875 17.0625 -10.1875 17.0625 -8 17 C-7.030625 16.87625 -6.06125 16.7525 -5.0625 16.625 C-2 17 -2 17 0.6875 19 C3.97700206 23.26746213 6 27.56233672 6 33 C6.99 32.34 7.98 31.68 9 31 C8.5229205 36.00933477 7.14417521 39.06978099 4 43 C1.71387722 44.57851335 -0.5256866 45.7628433 -3 47 C-2.8453125 48.36125 -2.8453125 48.36125 -2.6875 49.75 C-3 53 -3 53 -5.0625 55.375 C-8.61671263 57.34116018 -10.997753 57.31390173 -15 57 C-16 50.125 -16 50.125 -16 49 C-16.020625 50.299375 -16.04125 51.59875 -16.0625 52.9375 C-16.07410156 53.66839844 -16.08570313 54.39929688 -16.09765625 55.15234375 C-16.20561184 57.01732141 -16.20561184 57.01732141 -15 58 C-11.44103015 58.15817644 -8.42255584 57.9354491 -5 57 C-5.84829837 83.58976615 -5.84829837 83.58976615 -15.74609375 93.90625 C-17.74926318 95.76707984 -19.77352865 97.41763312 -22 99 C-21.7834375 98.08605469 -21.566875 97.17210937 -21.34375 96.23046875 C-15.10318768 67.38544968 -18.34004993 35.39807029 -34 10 C-35 8.33333333 -36 6.66666667 -37 5 C-28.22490001 -7.02513703 -12.39824228 -6.36443104 0 0 Z " fill="#F9A3C4" transform="translate(318,35)"/>
<path d="M0 0 C-1.051875 0.47566406 -1.051875 0.47566406 -2.125 0.9609375 C-14.90313669 7.24583625 -20.32692997 16.85973725 -25 30 C-27.80382642 38.82013411 -28.93618637 47.83868731 -30 57 C-29.05125 56.175 -28.1025 55.35 -27.125 54.5 C-24.25 52 -24.25 52 -22 52 C-21.67 50.35 -21.34 48.7 -21 47 C-21.66 46.67 -22.32 46.34 -23 46 C-21.515 45.505 -21.515 45.505 -20 45 C-18.40899614 42.45966787 -16.96396458 39.95399167 -15.5625 37.3125 C-12.90062507 32.37927817 -10.18963815 27.6137135 -7 23 C-6.505 24.485 -6.505 24.485 -6 26 C-7.35676456 28.56048843 -8.75219616 30.94421086 -10.3125 33.375 C-14.14814065 39.43235077 -14.14814065 39.43235077 -17 46 C-13.535 46.495 -13.535 46.495 -10 47 C-10 42.38 -10 37.76 -10 33 C-9.67 33 -9.34 33 -9 33 C-8.94392578 34.32064453 -8.94392578 34.32064453 -8.88671875 35.66796875 C-8.78810547 37.41013672 -8.78810547 37.41013672 -8.6875 39.1875 C-8.62949219 40.33605469 -8.57148438 41.48460937 -8.51171875 42.66796875 C-7.81105937 47.23027751 -6.15422161 49.87972608 -2.875 53.0625 C-1 55 -1 55 -0.5625 57.125 C-0.376875 57.74375 -0.19125 58.3625 0 59 C2.49034386 60.29660434 2.49034386 60.29660434 5 61 C4.505 59.9275 4.01 58.855 3.5 57.75 C1.39555252 52.25670047 1.73916723 46.79628371 2 41 C2.33 41 2.66 41 3 41 C3.09796875 41.85722656 3.1959375 42.71445313 3.296875 43.59765625 C4.18407427 50.38167135 5.20466232 55.30699349 9 61 C9 61.66 9 62.32 9 63 C9.66 63 10.32 63 11 63 C11.67561748 61.3369416 12.33933281 59.66905395 13 58 C13.5053125 56.8346875 14.010625 55.669375 14.53125 54.46875 C16.38125956 49.52482724 16.55435745 44.73440425 16.6875 39.5 C16.72166016 38.5821875 16.75582031 37.664375 16.79101562 36.71875 C16.87266264 34.4792891 16.94207538 32.2401785 17 30 C17.66 30 18.32 30 19 30 C19.18353547 49.86261672 19.18353547 49.86261672 18.12109375 57.08984375 C17.9839752 59.25277824 18.37644375 60.93533598 19 63 C19.66 62.01 20.32 61.02 21 60 C20.34 59.34 19.68 58.68 19 58 C19.77730469 57.82210937 20.55460937 57.64421875 21.35546875 57.4609375 C24.32371608 56.17905944 24.32371608 56.17905944 25.36328125 52.7265625 C25.70616004 51.36577276 26.0211854 49.99775285 26.3125 48.625 C26.47637207 47.90763672 26.64024414 47.19027344 26.80908203 46.45117188 C28.75589182 37.33222549 28.74933628 28.93534293 26 20 C26.66 20 27.32 20 28 20 C30.02436512 23.17758951 30.30203869 26.13175126 30.58129883 29.83911133 C31.32145423 39.59395248 33.42858666 47.42858666 40.5625 54.5625 C42.98403207 55.99058301 45.38388705 56.98576653 48 58 C46.76253788 46.52748534 45.10966152 35.28545437 42.125 24.125 C41.89280762 23.22958496 41.66061523 22.33416992 41.42138672 21.41162109 C39.99563362 16.32320704 38.16137768 12.15488107 35.17919922 7.78466797 C33.94741208 5.92041042 32.96301569 4.01418308 32 2 C37.53014363 4.22874323 39.45919398 8.86345161 42 14 C50.40532401 33.82497112 53.9076264 60.76738349 46 81 C45.53207031 82.24910156 45.53207031 82.24910156 45.0546875 83.5234375 C42.5302232 89.73913532 39.23850335 96.31034608 33.125 99.5 C32.42375 99.665 31.7225 99.83 31 100 C31.37511719 99.5875 31.75023437 99.175 32.13671875 98.75 C38.15570603 91.9577927 42.00784304 85.65278514 44.75 77 C44.96084229 76.33556885 45.17168457 75.6711377 45.38891602 74.98657227 C46.78255051 70.33712417 47.5042691 65.8279879 48 61 C44.7 60.34 41.4 59.68 38 59 C38.804375 59.804375 39.60875 60.60875 40.4375 61.4375 C44.03779054 65.03779054 44.17415227 65.54881615 44.25 70.6875 C44.20963878 75.53661211 43.88510861 78.93947677 41 83 C37.29825261 85.4678316 34.29506525 85.68072732 30 85 C24.5 82 24.5 82 23 79 C22.82278423 76.54512577 22.72263179 74.14438336 22.6875 71.6875 C22.63142578 69.71330078 22.63142578 69.71330078 22.57421875 67.69921875 C23.05385213 63.53212875 24.10588376 61.9511994 27 59 C25.515 58.505 25.515 58.505 24 58 C23.62875 58.86625 23.62875 58.86625 23.25 59.75 C21.83316683 62.3002997 20.12372463 64.01785701 18 66 C17.01 65.505 17.01 65.505 16 65 C15.375 62.9375 15.375 62.9375 15 61 C14.01 62.65 13.02 64.3 12 66 C10.54096742 65.69078116 9.08279278 65.37751201 7.625 65.0625 C6.81289062 64.88847656 6.00078125 64.71445313 5.1640625 64.53515625 C3 64 3 64 1 63 C0.69707031 63.54269531 0.39414063 64.08539063 0.08203125 64.64453125 C-4.44344996 72.3726607 -4.44344996 72.3726607 -9 74 C-14.28996907 73.90553627 -17.26314012 72.73685988 -21 69 C-23.09562677 65.70065682 -23.21706961 63.11692354 -23.125 59.25 C-23.10695312 58.26515625 -23.08890625 57.2803125 -23.0703125 56.265625 C-23.04710937 55.51796875 -23.02390625 54.7703125 -23 54 C-25.11460833 55.86423387 -27.21621478 57.74034825 -29.3125 59.625 C-30.20485352 60.40810547 -30.20485352 60.40810547 -31.11523438 61.20703125 C-34.72287209 64.47204415 -37.32326345 67.31500082 -39 72 C-39.15256441 74.98238848 -39.15256441 74.98238848 -38.6875 77.875 C-38.56761719 78.84179688 -38.44773438 79.80859375 -38.32421875 80.8046875 C-38.21722656 81.52914062 -38.11023438 82.25359375 -38 83 C-40.07776754 81.30802484 -40.92301562 80.40295429 -41.43359375 77.73046875 C-41.44250632 71.92838862 -40.92385772 68.56015897 -37 64 C-36.14019531 63.28714844 -35.28039062 62.57429688 -34.39453125 61.83984375 C-31.34750737 58.22616291 -31.34092807 55.39003132 -31.375 50.875 C-30.94745454 34.94893169 -25.28804638 17.91534363 -14.20703125 6.0859375 C-5.40596948 -1.80198983 -5.40596948 -1.80198983 0 0 Z " fill="#8B383D" transform="translate(231,42)"/>
<path d="M0 0 C2.94718509 1.31082674 2.94718509 1.31082674 6.0859375 1.90234375 C7.42785156 1.20625 7.42785156 1.20625 8.796875 0.49609375 C12.9285486 -1.50595237 16.18219135 -1.63601514 20.7109375 -1.59765625 C21.89973511 -1.58798828 21.89973511 -1.58798828 23.11254883 -1.578125 C32.08036663 -1.3016044 39.72704757 0.98998536 46.0859375 7.58984375 C50.95069597 13.87843397 53.40227341 21.04020674 54.0859375 28.90234375 C57.7159375 28.90234375 61.3459375 28.90234375 65.0859375 28.90234375 C65.05113281 30.10632812 65.01632812 31.3103125 64.98046875 32.55078125 C64.9523347 34.12628817 64.92503413 35.70181013 64.8984375 37.27734375 C64.87330078 38.07140625 64.84816406 38.86546875 64.82226562 39.68359375 C64.79589345 41.75820523 64.93107288 43.8333524 65.0859375 45.90234375 C66.0759375 46.56234375 67.0659375 47.22234375 68.0859375 47.90234375 C67.47962862 51.48275726 66.48574612 54.52213279 65.0234375 57.83984375 C63.42622193 61.69737882 62.64045798 64.67028833 63.0859375 68.90234375 C62.4259375 68.90234375 61.7659375 68.90234375 61.0859375 68.90234375 C61.0240625 68.32484375 60.9621875 67.74734375 60.8984375 67.15234375 C59.76566449 64.01543388 57.74396155 62.81066871 55.0859375 60.90234375 C55.4159375 60.24234375 55.7459375 59.58234375 56.0859375 58.90234375 C57.7359375 59.89234375 59.3859375 60.88234375 61.0859375 61.90234375 C61.3746875 60.99484375 61.6634375 60.08734375 61.9609375 59.15234375 C63.0859375 55.90234375 63.0859375 55.90234375 64.2734375 53.77734375 C65.23457 51.9398074 65.23457 51.9398074 64.984375 49.92578125 C64.22549165 47.64143206 64.22549165 47.64143206 61.58203125 46.63671875 C60.57269531 46.311875 59.56335938 45.98703125 58.5234375 45.65234375 C57.51152344 45.3171875 56.49960937 44.98203125 55.45703125 44.63671875 C54.67457031 44.394375 53.89210938 44.15203125 53.0859375 43.90234375 C53.3953125 45.07796875 53.3953125 45.07796875 53.7109375 46.27734375 C53.8346875 47.14359375 53.9584375 48.00984375 54.0859375 48.90234375 C53.0959375 49.89234375 53.0959375 49.89234375 52.0859375 50.90234375 C52.0859375 48.92234375 52.0859375 46.94234375 52.0859375 44.90234375 C50.79007834 45.32726501 49.4993331 45.76780257 48.2109375 46.21484375 C47.49164063 46.45847656 46.77234375 46.70210937 46.03125 46.953125 C43.74598845 47.86569922 43.74598845 47.86569922 42.0859375 50.90234375 C39.4609375 51.58984375 39.4609375 51.58984375 37.0859375 51.90234375 C37.0859375 52.89234375 37.0859375 53.88234375 37.0859375 54.90234375 C38.7359375 54.57234375 40.3859375 54.24234375 42.0859375 53.90234375 C42.26769531 54.505625 42.44945312 55.10890625 42.63671875 55.73046875 C43.98095379 60.00444682 45.16642805 63.42673726 48.0859375 66.90234375 C48.0859375 67.56234375 48.0859375 68.22234375 48.0859375 68.90234375 C49.0759375 68.90234375 50.0659375 68.90234375 51.0859375 68.90234375 C51.7459375 66.92234375 52.4059375 64.94234375 53.0859375 62.90234375 C52.4671875 62.65484375 51.8484375 62.40734375 51.2109375 62.15234375 C48.73525063 60.69605736 48.13468748 59.52421869 47.0859375 56.90234375 C50.04003451 58.27388879 52.52602126 59.89098099 55.0859375 61.90234375 C54.55524689 65.72331614 53.58892184 67.96405778 51.0859375 70.90234375 C48.38154754 70.53829126 47.34187367 70.22091693 45.6015625 68.0546875 C45.18390625 67.32378906 44.76625 66.59289062 44.3359375 65.83984375 C43.90796875 65.10636719 43.48 64.37289062 43.0390625 63.6171875 C42.72453125 63.05128906 42.41 62.48539062 42.0859375 61.90234375 C42.63739021 67.14114453 43.51515843 71.87585072 45.0859375 76.90234375 C44.4259375 76.90234375 43.7659375 76.90234375 43.0859375 76.90234375 C42.40857269 74.86420142 41.74450216 72.8216382 41.0859375 70.77734375 C40.5290625 69.07191406 40.5290625 69.07191406 39.9609375 67.33203125 C39.11681801 64.02338434 38.92084474 61.29706359 39.0859375 57.90234375 C37.1059375 58.56234375 35.1259375 59.22234375 33.0859375 59.90234375 C33.4159375 59.34546875 33.7459375 58.78859375 34.0859375 58.21484375 C35.31292994 55.94010379 35.31292994 55.94010379 34.7109375 53.46484375 C34.8965625 52.19640625 34.8965625 52.19640625 35.0859375 50.90234375 C36.71875 49.75390625 36.71875 49.75390625 38.8359375 48.58984375 C43.69625312 45.90115851 45.0227459 42.97435643 47.0859375 37.90234375 C46.7559375 37.57234375 46.4259375 37.24234375 46.0859375 36.90234375 C45.0959375 37.39734375 45.0959375 37.39734375 44.0859375 37.90234375 C43.85807292 35.91666667 43.63020833 33.93098958 43.40234375 31.9453125 C43.11423015 29.70837982 43.11423015 29.70837982 42.0859375 26.90234375 C40.08577284 25.69352279 40.08577284 25.69352279 38.0859375 24.90234375 C39.0759375 24.40734375 39.0759375 24.40734375 40.0859375 23.90234375 C36.88213733 21.76647697 36.06653783 21.671022 32.3984375 21.77734375 C31.18607422 21.80441406 31.18607422 21.80441406 29.94921875 21.83203125 C29.33433594 21.85523437 28.71945312 21.8784375 28.0859375 21.90234375 C25.85937586 26.64588811 24.62445718 30.6248509 24.0859375 35.90234375 C24.8284375 36.19109375 25.5709375 36.47984375 26.3359375 36.77734375 C29.0859375 37.90234375 29.0859375 37.90234375 31.0234375 38.96484375 C33.66099321 40.16373271 36.22797844 40.51262206 39.0859375 40.90234375 C39.0859375 41.23234375 39.0859375 41.56234375 39.0859375 41.90234375 C32.742246 42.57720455 28.14679689 40.81909847 23.0859375 36.90234375 C21.82421875 34.73046875 21.82421875 34.73046875 21.0859375 32.90234375 C21.7459375 32.90234375 22.4059375 32.90234375 23.0859375 32.90234375 C23.1065625 31.62359375 23.1271875 30.34484375 23.1484375 29.02734375 C23.80146028 22.87723366 27.11506824 18.48878444 31.0859375 13.90234375 C34.0035875 11.95724375 35.71131035 11.44958058 39.0859375 10.90234375 C35.60790677 8.14390559 33.11550486 7.0333796 28.6484375 6.46484375 C24.87585378 6.5234218 24.87585378 6.5234218 22.7109375 9.65234375 C20.15371358 14.76679159 19.95373938 18.97998878 20.0234375 24.65234375 C20.02794922 25.34972656 20.03246094 26.04710938 20.03710938 26.765625 C20.0488373 28.47790178 20.06677097 30.19013408 20.0859375 31.90234375 C19.4259375 31.57234375 18.7659375 31.24234375 18.0859375 30.90234375 C17.33131487 12.45601278 17.33131487 12.45601278 22.0859375 5.90234375 C24.8359375 3.40234375 24.8359375 3.40234375 27.0859375 1.90234375 C27.66730469 2.19882812 28.24867188 2.4953125 28.84765625 2.80078125 C30.20687686 3.46971705 31.58200394 4.10895286 32.98046875 4.69140625 C39.81413018 7.66982488 44.8170777 12.63003239 48.0234375 19.40234375 C50.14954421 25.83252014 49.30475005 33.22450898 49.0859375 39.90234375 C51.98475437 34.10471001 51.0127514 23.7415759 49.0390625 17.6953125 C47.8329223 15.32914922 46.53352044 13.12635754 45.0859375 10.90234375 C44.78429687 10.19722656 44.48265625 9.49210937 44.171875 8.765625 C42.78399042 6.3842547 41.62029522 5.92513812 39.0859375 4.90234375 C37.9103125 4.37253906 37.9103125 4.37253906 36.7109375 3.83203125 C28.32567552 0.46295277 21.02148017 0.04058233 12.1484375 1.58984375 C8.60612878 3.10797606 6.75006429 5.16621354 4.0859375 7.90234375 C0.0859375 7.90234375 0.0859375 7.90234375 -2.609375 5.4296875 C-6.41138506 2.04892965 -9.88976915 2.25627617 -14.7890625 2.46484375 C-15.93568359 2.47354492 -15.93568359 2.47354492 -17.10546875 2.48242188 C-22.30652242 2.59280077 -26.91331654 3.48413675 -31.9140625 4.90234375 C-31.0390625 0.02734375 -31.0390625 0.02734375 -29.9140625 -1.09765625 C-32.18463627 -1.15164612 -34.45557538 -1.19044367 -36.7265625 -1.22265625 C-37.99113281 -1.24585938 -39.25570312 -1.2690625 -40.55859375 -1.29296875 C-44.0478649 -1.37347543 -44.0478649 -1.37347543 -46.9140625 0.90234375 C-45.2640625 2.55234375 -43.6140625 4.20234375 -41.9140625 5.90234375 C-42.5121875 5.59296875 -43.1103125 5.28359375 -43.7265625 4.96484375 C-48.46780507 2.6619545 -52.72803563 2.36250136 -57.9140625 2.90234375 C-61.24850194 4.3595826 -61.24850194 4.3595826 -63.9140625 5.90234375 C-64.5740625 5.57234375 -65.2340625 5.24234375 -65.9140625 4.90234375 C-61.45188315 1.40495994 -57.30925673 -0.02836814 -51.8203125 -1.37109375 C-48.94702402 -2.05226638 -48.94702402 -2.05226638 -46.3203125 -2.94921875 C-31.95186947 -7.58001214 -13.65957655 -6.17711226 0 0 Z " fill="#782124" transform="translate(278.9140625,31.09765625)"/>
<path d="M0 0 C0.66 0.33 1.32 0.66 2 1 C1.05125 1.86625 0.1025 2.7325 -0.875 3.625 C-9.88280737 12.70501424 -16.17892273 23.88835517 -22.58178711 34.85131836 C-26.41657359 41.30212192 -30.56266122 46.78235168 -36 52 C-33.03 52.33 -30.06 52.66 -27 53 C-27.05800781 54.43988281 -27.11601562 55.87976563 -27.17578125 57.36328125 C-27.54769343 70.76704202 -26.2966977 82.29923113 -22 95 C-21.66613281 96.02867187 -21.33226562 97.05734375 -20.98828125 98.1171875 C-18.93041265 103.83059484 -15.88960254 108.35840763 -12 113 C-12 110.69 -12 108.38 -12 106 C-8.08597051 107.26941497 -6.20927127 108.51167694 -4 112 C-5.32 111.67 -6.64 111.34 -8 111 C-7.34 113.97 -6.68 116.94 -6 120 C-7.32 120 -8.64 120 -10 120 C-14.68713463 141.88679956 -15.96450686 163.07342801 -11 185 C-10.7834375 186.16789063 -10.566875 187.33578125 -10.34375 188.5390625 C-8.76911682 196.54344782 -6.28130505 205.08343088 -0.07421875 210.76171875 C3.22411466 212.73078032 6.20297109 212.68358092 10 213 C9.67 213.66 9.34 214.32 9 215 C5.4157849 215.52269804 3.18593429 215.64190685 -0.03515625 213.8984375 C-11.37357986 205.02868801 -14.43753881 188.91670486 -16.6015625 175.40820312 C-17.85274137 164.70571723 -19.45110398 150.35331195 -16 140 C-17.051875 140.0825 -18.10375 140.165 -19.1875 140.25 C-23.68305266 139.95520966 -24.97530511 139.2767528 -28 136 C-32.03112118 129.60580778 -31.91789949 122.36019406 -31 115 C-29.77574313 111.88105988 -28.16071614 109.54021869 -26 107 C-25.236875 106.01 -24.47375 105.02 -23.6875 104 C-23.130625 103.34 -22.57375 102.68 -22 102 C-22.36351562 101.23042969 -22.36351562 101.23042969 -22.734375 100.4453125 C-28.51603144 87.23645125 -33.32542585 69.27742191 -29 55 C-30.0725 55.020625 -31.145 55.04125 -32.25 55.0625 C-35.14790424 55.0142016 -37.28612141 54.86844115 -40 54 C-38.60399968 50.77086796 -37.00034555 48.93655923 -34.375 46.625 C-29.81202979 42.19381232 -27.01507529 37.10894122 -24.00390625 31.59765625 C-17.61655559 19.94315956 -9.65889896 9.13044857 0 0 Z " fill="#7E2B2B" transform="translate(211,37)"/>
<path d="M0 0 C9.59453303 1.74259681 9.59453303 1.74259681 13 5 C12.39254603 9.85963179 10.27241033 13.7405518 8 18 C6.68 17.67 5.36 17.34 4 17 C5.0209375 17.7734375 5.0209375 17.7734375 6.0625 18.5625 C8 21 8 21 7.99609375 23.98046875 C7.0287999 29.46466028 3.83016936 34.04826704 1 38.75 C-0.10632446 40.61851574 -1.21058792 42.48825377 -2.3125 44.359375 C-2.80363281 45.17889648 -3.29476563 45.99841797 -3.80078125 46.84277344 C-5.12599743 49.07040408 -5.12599743 49.07040408 -6 52 C-6.99 51.67 -7.98 51.34 -9 51 C-10.04514074 48.50638252 -10.90101416 46.13580564 -11.6875 43.5625 C-11.91244141 42.86833984 -12.13738281 42.17417969 -12.36914062 41.45898438 C-14 36.33838336 -14 36.33838336 -14 34 C-15.32 33.67 -16.64 33.34 -18 33 C-18 27.06 -18 21.12 -18 15 C-16.68 14.67 -15.36 14.34 -14 14 C-13.52040222 16.22907395 -13.0413392 18.45826297 -12.5625 20.6875 C-12.16224609 22.54955078 -12.16224609 22.54955078 -11.75390625 24.44921875 C-11.14944864 27.29612015 -10.56235316 30.14455626 -10 33 C-9.34 33 -8.68 33 -8 33 C-8.28875 32.35933594 -8.5775 31.71867187 -8.875 31.05859375 C-11.14884287 25.76085568 -12.50141512 21.76627391 -12 16 C-10.18389613 18.36093503 -8.56491438 20.70701413 -7 23.25 C-6.34 24.1575 -5.68 25.065 -5 26 C-4.01 26 -3.02 26 -2 26 C0.10770759 23.11165997 1 21.61537605 1 18 C-0.5354878 16.53909212 -0.5354878 16.53909212 -2.5 15.3125 C-3.1496875 14.87550781 -3.799375 14.43851563 -4.46875 13.98828125 C-4.9740625 13.66214844 -5.479375 13.33601563 -6 13 C-3.45395403 16.52381687 -3.45395403 16.52381687 0 19 C-0.50603992 21.16874252 -0.99983813 22.99967627 -2 25 C-2.99 25 -3.98 25 -5 25 C-6.5703125 22.953125 -6.5703125 22.953125 -8.125 20.25 C-8.64320313 19.36828125 -9.16140625 18.4865625 -9.6953125 17.578125 C-10.82939585 15.33712198 -11.53038457 13.45116349 -12 11 C-13.32 11.33 -14.64 11.66 -16 12 C-16.5625 10.0625 -16.5625 10.0625 -17 8 C-16 7 -16 7 -13.4375 6.9375 C-12.2309375 6.9684375 -12.2309375 6.9684375 -11 7 C-10.7525 6.38125 -10.505 5.7625 -10.25 5.125 C-8.7557016 2.58469272 -7.75218149 1.97135817 -5 1 C-3.68 1 -2.36 1 -1 1 C-0.67 2.32 -0.34 3.64 0 5 C0 3.35 0 1.7 0 0 Z " fill="#F8F5F4" transform="translate(332,75)"/>
<path d="M0 0 C1.2452606 2.4905212 0.96761907 3.98301117 0.8125 6.75 C0.77002271 11.65612648 1.62951273 14.26513573 5 18 C5.86238281 18.39574219 6.72476563 18.79148437 7.61328125 19.19921875 C10 21 10 21 10.59375 24.3984375 C10.54734375 26.36683594 10.54734375 26.36683594 10.5 28.375 C10.4896875 29.68210937 10.479375 30.98921875 10.46875 32.3359375 C9.98691135 36.10230964 9.40268429 38.08401498 7 41 C4.49828655 42.21452479 3.32511422 42.08261978 0.6328125 41.3984375 C-7.03323384 38.26992638 -12.88775998 35.06863748 -16.3515625 27.1640625 C-17.56693454 23.10794136 -17.56399451 19.9590656 -16 16 C-11.58167852 9.79934076 -5.89422873 4.76554664 0 0 Z " fill="#FBCEC9" transform="translate(208,95)"/>
<path d="M0 0 C7.5403352 1.53884392 11.69236991 5.10066988 16.4375 11.0625 C19.37401837 16.74567564 18.95311708 24.22617157 17.421875 30.2890625 C15.86799719 34.17375702 13.87987089 37.04433342 10.1328125 38.94921875 C9.47023438 39.19285156 8.80765625 39.43648437 8.125 39.6875 C7.13886719 40.06455078 7.13886719 40.06455078 6.1328125 40.44921875 C3.68945607 41.08019541 1.51326686 41.09194879 -1 41 C-1.05397335 38.5622037 -1.09365616 36.12560315 -1.125 33.6875 C-1.15013672 32.65206055 -1.15013672 32.65206055 -1.17578125 31.59570312 C-1.21217794 27.82864604 -1.14378864 26.21568296 1 23 C4.46811433 21.84396189 7.36568113 22 11 22 C11.33 21.67 11.66 21.34 12 21 C10.041036 21.30852185 8.08284287 21.6219418 6.125 21.9375 C5.03445313 22.11152344 3.94390625 22.28554687 2.8203125 22.46484375 C0.06178454 22.85551159 0.06178454 22.85551159 -2 24 C-6.06752585 11.08503091 -6.06752585 11.08503091 -3.03125 5.0859375 C-2.06987997 3.36233837 -1.0399587 1.67735274 0 0 Z " fill="#FAF8F7" transform="translate(295,137)"/>
<path d="M0 0 C3.78496612 1.39039572 6.66140229 2.87166082 9.0625 6.125 C10.91085862 10.91614011 11.24027169 15.00503833 10.4375 20.0625 C8.94792575 23.3801881 8.36842787 24.64603227 5.0625 26.125 C0.09884407 26.68541277 -1.96124469 26.6575029 -6.375 24.25 C-8.9375 22.125 -8.9375 22.125 -9.9375 20.125 C-10.0091735 17.57342345 -10.03058442 15.05027029 -10 12.5 C-9.99548828 11.79359375 -9.99097656 11.0871875 -9.98632812 10.359375 C-9.97453875 8.61454725 -9.95660324 6.869763 -9.9375 5.125 C-9.2775 5.125 -8.6175 5.125 -7.9375 5.125 C-7.195 4.279375 -6.4525 3.43375 -5.6875 2.5625 C-2.9375 0.125 -2.9375 0.125 0 0 Z " fill="#9C6E97" transform="translate(263.9375,100.875)"/>
<path d="M0 0 C5.53014363 2.22874323 7.45919398 6.86345161 10 12 C18.40532401 31.82497112 21.9076264 58.76738349 14 79 C13.68804687 79.83273438 13.37609375 80.66546875 13.0546875 81.5234375 C10.5302232 87.73913532 7.23850335 94.31034608 1.125 97.5 C0.42375 97.665 -0.2775 97.83 -1 98 C-0.62488281 97.5875 -0.24976563 97.175 0.13671875 96.75 C6.15570603 89.9577927 10.00784304 83.65278514 12.75 75 C12.96084229 74.33556885 13.17168457 73.6711377 13.38891602 72.98657227 C14.78255051 68.33712417 15.5042691 63.8279879 16 59 C8.06159801 56.09169144 0.41442956 55.35161161 -8 55 C-7.7098066 53.66634524 -7.41774108 52.33309785 -7.125 51 C-6.94453125 50.17113281 -6.7640625 49.34226563 -6.578125 48.48828125 C-6.08575477 46.36909317 -5.49074264 44.27418339 -4.875 42.1875 C-2.84341902 34.10954707 -3.57569539 25.87898999 -6 18 C-5.34 18 -4.68 18 -4 18 C-1.97563488 21.17758951 -1.69796131 24.13175126 -1.41870117 27.83911133 C-0.67854577 37.59395248 1.42858666 45.42858666 8.5625 52.5625 C10.98403207 53.99058301 13.38388705 54.98576653 16 56 C14.76253788 44.52748534 13.10966152 33.28545437 10.125 22.125 C9.89280762 21.22958496 9.66061523 20.33416992 9.42138672 19.41162109 C7.99563362 14.32320704 6.16137768 10.15488107 3.17919922 5.78466797 C1.94741208 3.92041042 0.96301569 2.01418308 0 0 Z " fill="#8D3238" transform="translate(263,44)"/>
<path d="M0 0 C0.43441406 0.48984375 0.86882812 0.9796875 1.31640625 1.484375 C2.9889869 3.29672851 2.9889869 3.29672851 5.9375 3.25 C8.45288335 3.04466258 10.5814084 2.64774375 13 2 C12.15170163 28.58976615 12.15170163 28.58976615 2.25390625 38.90625 C0.25073682 40.76707984 -1.77352865 42.41763312 -4 44 C-3.79503906 43.08605469 -3.59007812 42.17210937 -3.37890625 41.23046875 C-0.54916049 27.58162094 -0.27811271 13.90102566 0 0 Z " fill="#FBA5C7" transform="translate(300,90)"/>
<path d="M0 0 C2.68234235 2.42457972 4.36856725 5.07510397 6.1875 8.1875 C6.71730469 9.08855469 7.24710938 9.98960937 7.79296875 10.91796875 C8.19128906 11.60503906 8.58960938 12.29210937 9 13 C7.2984375 13.2165625 7.2984375 13.2165625 5.5625 13.4375 C2.19222799 13.61171478 2.19222799 13.61171478 1 15 C3.31 15.33 5.62 15.66 8 16 C7.51679152 22.2054142 6.66681876 27.99945246 5 34 C3.55877387 33.40477663 2.12214132 32.79842381 0.6875 32.1875 C-0.11300781 31.85105469 -0.91351563 31.51460937 -1.73828125 31.16796875 C-5.02871268 29.46876496 -6.60020374 27.79959251 -8.25 24.5 C-9.59880351 18.20558364 -9.2040903 12.28361953 -6.1875 6.5625 C-4.21504746 4.25191273 -2.22610186 2.06709458 0 0 Z " fill="#F9F6F5" transform="translate(190,142)"/>
<path d="M0 0 C9.59453303 1.74259681 9.59453303 1.74259681 13 5 C12.39254603 9.85963179 10.27241033 13.7405518 8 18 C4.87860203 17.4202155 3.22339548 16.55726822 0.9375 14.375 C-0.031875 13.59125 -1.00125 12.8075 -2 12 C-2.99 12.33 -3.98 12.66 -5 13 C-3.63016497 16.16115776 -3.0109362 16.9927092 0 19 C-0.50603992 21.16874252 -0.99983813 22.99967627 -2 25 C-2.99 25 -3.98 25 -5 25 C-6.5703125 22.953125 -6.5703125 22.953125 -8.125 20.25 C-8.64320313 19.36828125 -9.16140625 18.4865625 -9.6953125 17.578125 C-10.82939585 15.33712198 -11.53038457 13.45116349 -12 11 C-13.32 11.33 -14.64 11.66 -16 12 C-16.5625 10.0625 -16.5625 10.0625 -17 8 C-16 7 -16 7 -13.4375 6.9375 C-12.2309375 6.9684375 -12.2309375 6.9684375 -11 7 C-10.7525 6.38125 -10.505 5.7625 -10.25 5.125 C-8.7557016 2.58469272 -7.75218149 1.97135817 -5 1 C-3.68 1 -2.36 1 -1 1 C-0.67 2.32 -0.34 3.64 0 5 C0 3.35 0 1.7 0 0 Z " fill="#824D5A" transform="translate(332,75)"/>
<path d="M0 0 C0.99 0.33 1.98 0.66 3 1 C4.44568387 5.33705162 4.18435585 9.51920405 4.1875 14.0625 C4.19974609 14.96677734 4.21199219 15.87105469 4.22460938 16.80273438 C4.24491913 26.2738518 3.45234784 35.59174877 -3 43 C-6.79979229 46.28079627 -11.01477729 47.79309992 -16.01171875 47.51171875 C-19.9255537 46.50442528 -22.45891951 44.04386112 -25 41 C-26.3591031 38.53347957 -27.17441876 36.63714237 -28 34 C-28.33902344 32.98035156 -28.67804688 31.96070313 -29.02734375 30.91015625 C-30.8355228 25.29257506 -32.45261468 19.88439219 -33 14 C-33.71115967 14.16298584 -34.42231934 14.32597168 -35.1550293 14.49389648 C-38.01560796 15.00277656 -40.61719358 15.11387043 -43.51953125 15.09765625 C-44.54111328 15.09443359 -45.56269531 15.09121094 -46.61523438 15.08789062 C-47.67033203 15.07951172 -48.72542969 15.07113281 -49.8125 15.0625 C-50.88693359 15.05798828 -51.96136719 15.05347656 -53.06835938 15.04882812 C-55.71229683 15.03707729 -58.35611952 15.02064787 -61 15 C-60.96519531 16.03898437 -60.93039063 17.07796875 -60.89453125 18.1484375 C-60.50753974 34.60150004 -60.50753974 34.60150004 -64 41 C-66.109375 42.76171875 -66.109375 42.76171875 -68 44 C-68.33 43.34 -68.66 42.68 -69 42 C-68.35256836 41.46536133 -67.70513672 40.93072266 -67.03808594 40.37988281 C-64.47423432 37.38606087 -64.4670694 35.82053952 -64.390625 31.921875 C-64.35839844 30.76171875 -64.32617188 29.6015625 -64.29296875 28.40625 C-64.27878906 27.1996875 -64.26460937 25.993125 -64.25 24.75 C-64.22035156 23.52796875 -64.19070312 22.3059375 -64.16015625 21.046875 C-64.08947598 18.03118356 -64.03676825 15.0162645 -64 12 C-63.08806885 12.24230347 -63.08806885 12.24230347 -62.15771484 12.48950195 C-54.05254108 14.40712114 -45.20168899 12.76000366 -37.12890625 11.4375 C-34.36190891 11.05060399 -31.78708648 10.91664788 -29 11 C-29.04640625 12.13179687 -29.0928125 13.26359375 -29.140625 14.4296875 C-29.13637992 19.24997866 -28.07894743 23.5164279 -26.75 28.125 C-26.54503906 28.89714844 -26.34007812 29.66929687 -26.12890625 30.46484375 C-24.67760236 35.62796728 -22.87217298 40.12782702 -19 44 C-13.18722973 44.61187055 -9.77813201 43.80548077 -4.76171875 40.875 C1.767413 33.92603495 0.34682677 23.83211439 0.1875 15 C0.17242741 13.54298257 0.15874355 12.08595007 0.14648438 10.62890625 C0.11367903 7.08562075 0.06203907 3.54290829 0 0 Z " fill="#7D3230" transform="translate(289,207)"/>
<path d="M0 0 C2.60847629 1.49745861 4.87028902 2.87028902 7 5 C7.50176737 10.36315283 7.78085462 15.30814833 5.5 20.25 C2.62269922 22.26411055 0.47364234 22.64938003 -3.03125 22.43359375 C-6.09238364 21.75941551 -7.85294855 20.21211361 -10 18 C-11.34283649 15.31432703 -11.24287519 13.12253147 -11.3125 10.125 C-11.34988281 9.07570313 -11.38726562 8.02640625 -11.42578125 6.9453125 C-10.46284834 0.28429034 -6.08100013 -0.83875864 0 0 Z " fill="#9E709B" transform="translate(221,92)"/>
<path d="M0 0 C3.58236324 0.05686291 4.5700012 0.24978344 7.625 2.375 C10.94541216 7.06264069 13.15667527 10.9349484 12.1875 16.75 C10.75 19.375 10.75 19.375 9.125 20.875 C2.7318457 22.22092722 -3.03070655 18.63705841 -8.25 15.375 C-8.59650743 9.71537856 -7.73055609 6.33611218 -5.25 1.375 C-3.69049449 -0.18450551 -2.16122869 0.09303302 0 0 Z " fill="#A54854" transform="translate(311.25,51.625)"/>
<path d="M0 0 C4.05606165 0.46800711 7.46588679 0.87953208 11 3 C11.29747233 9.23275355 10.40959504 14.12193459 8.375 20 C8.10502197 20.79237061 7.83504395 21.58474121 7.55688477 22.40112305 C5.53868643 28.05898321 3.21315476 32.64908541 -1 37 C-1.825 37.99 -2.65 38.98 -3.5 40 C-6 42 -6 42 -9.3125 42.3125 C-10.199375 42.209375 -11.08625 42.10625 -12 42 C-15.07024996 37.01084382 -15.84831976 32.73159633 -15 27 C-13.5 24.4375 -13.5 24.4375 -12 23 C-11.34 23.495 -10.68 23.99 -10 24.5 C-5.88248556 26.55875722 -3.58746602 26.50971845 1 26 C3.96858157 23.79259319 4.82865791 22.51402627 6 19 C6.90025528 10.90518567 6.90025528 10.90518567 3.5625 3.875 C2.716875 3.25625 1.87125 2.6375 1 2 C0.67 1.34 0.34 0.68 0 0 Z " fill="#F9CCC7" transform="translate(268,100)"/>
<path d="M0 0 C-1.051875 0.47566406 -1.051875 0.47566406 -2.125 0.9609375 C-14.90313669 7.24583625 -20.32692997 16.85973725 -25 30 C-27.80382642 38.82013411 -28.93618637 47.83868731 -30 57 C-29.05125 56.175 -28.1025 55.35 -27.125 54.5 C-24.25 52 -24.25 52 -22 52 C-21.67 50.35 -21.34 48.7 -21 47 C-21.66 46.67 -22.32 46.34 -23 46 C-21.515 45.505 -21.515 45.505 -20 45 C-18.40899614 42.45966787 -16.96396458 39.95399167 -15.5625 37.3125 C-12.90062507 32.37927817 -10.18963815 27.6137135 -7 23 C-6.505 24.485 -6.505 24.485 -6 26 C-7.35676456 28.56048843 -8.75219616 30.94421086 -10.3125 33.375 C-14.14814065 39.43235077 -14.14814065 39.43235077 -17 46 C-13.535 46.495 -13.535 46.495 -10 47 C-10 42.38 -10 37.76 -10 33 C-9.67 33 -9.34 33 -9 33 C-8.505 41.415 -8.505 41.415 -8 50 C-10.24609375 50.22786458 -12.4921875 50.45572917 -14.73828125 50.68359375 C-17.16087179 50.95265693 -17.16087179 50.95265693 -20 52 C-20.33 54.64 -20.66 57.28 -21 60 C-21.33 60 -21.66 60 -22 60 C-22.33 58.02 -22.66 56.04 -23 54 C-25.11460833 55.86423387 -27.21621478 57.74034825 -29.3125 59.625 C-30.20485352 60.40810547 -30.20485352 60.40810547 -31.11523438 61.20703125 C-34.72287209 64.47204415 -37.32326345 67.31500082 -39 72 C-39.15256441 74.98238848 -39.15256441 74.98238848 -38.6875 77.875 C-38.56761719 78.84179688 -38.44773438 79.80859375 -38.32421875 80.8046875 C-38.21722656 81.52914062 -38.11023438 82.25359375 -38 83 C-40.07776754 81.30802484 -40.92301562 80.40295429 -41.43359375 77.73046875 C-41.44250632 71.92838862 -40.92385772 68.56015897 -37 64 C-36.14019531 63.28714844 -35.28039062 62.57429688 -34.39453125 61.83984375 C-31.34750737 58.22616291 -31.34092807 55.39003132 -31.375 50.875 C-30.94745454 34.94893169 -25.28804638 17.91534363 -14.20703125 6.0859375 C-5.40596948 -1.80198983 -5.40596948 -1.80198983 0 0 Z " fill="#81272A" transform="translate(231,42)"/>
<path d="M0 0 C2.81722051 0.99628303 5.65473493 1.90415261 8.50390625 2.8046875 C11.34613214 4.16575342 11.96890187 5.08363962 13 8 C12.34 8.99 11.68 9.98 11 11 C9.824375 9.515 9.824375 9.515 8.625 8 C3.0530298 3.14883909 -4.81418723 4.28934364 -11.76513672 4.73828125 C-15.28808247 5.15084383 -18.58874372 6.03755227 -22 7 C-21.125 2.125 -21.125 2.125 -20 1 C-22.27057377 0.94601013 -24.54151288 0.90721258 -26.8125 0.875 C-28.07707031 0.85179687 -29.34164062 0.82859375 -30.64453125 0.8046875 C-34.1338024 0.72418082 -34.1338024 0.72418082 -37 3 C-35.35 4.65 -33.7 6.3 -32 8 C-32.598125 7.690625 -33.19625 7.38125 -33.8125 7.0625 C-38.55374257 4.75961075 -42.81397313 4.46015761 -48 5 C-51.33443944 6.45723885 -51.33443944 6.45723885 -54 8 C-54.66 7.67 -55.32 7.34 -56 7 C-51.53782065 3.50261619 -47.39519423 2.06928811 -41.90625 0.7265625 C-39.03296152 0.04538987 -39.03296152 0.04538987 -36.40625 -0.8515625 C-26.63946752 -3.99929059 -8.90376988 -5.93584659 0 0 Z " fill="#F5A0C0" transform="translate(269,29)"/>
<path d="M0 0 C2.71106228 1.29289934 5.12707056 2.74654238 7.59375 4.453125 C12.31275859 7.42872208 17.08866063 8.59320005 22.5 9.75 C23.84771484 10.06130859 23.84771484 10.06130859 25.22265625 10.37890625 C36.12427674 12.83851495 46.74346406 13.27652928 57.88476562 13.60546875 C59.01205078 13.64285156 60.13933594 13.68023437 61.30078125 13.71875 C62.32341064 13.74904297 63.34604004 13.77933594 64.3996582 13.81054688 C67 14 67 14 70 15 C72.15690772 14.35446415 72.15690772 14.35446415 74.375 13.25 C75.56029297 12.693125 75.56029297 12.693125 76.76953125 12.125 C79.26099428 10.86836015 81.65496206 9.51292771 84 8 C83.26101801 15.24202348 81.65059631 21.12879628 76 26 C77.02080734 23.44798165 78.04219733 20.90153956 79.125 18.375 C80.17285268 15.95267129 80.17285268 15.95267129 80 13 C79.505 13.45375 79.01 13.9075 78.5 14.375 C73.4834397 17.63576419 67.91215857 18.29560793 62 18 C62 17.34 62 16.68 62 16 C61.02728149 16.02356567 61.02728149 16.02356567 60.03491211 16.04760742 C47.26538614 16.31554701 35.41697016 16.28448888 23 13 C22.11441406 12.78730469 21.22882813 12.57460937 20.31640625 12.35546875 C18.53844244 11.92715511 16.76767379 11.46897468 15 11 C15.54140625 12.26457031 15.54140625 12.26457031 16.09375 13.5546875 C16.5578125 14.65039062 17.021875 15.74609375 17.5 16.875 C18.19609375 18.51082031 18.19609375 18.51082031 18.90625 20.1796875 C20 23 20 23 20 25 C18.109375 24.33984375 18.109375 24.33984375 16 23 C14.953125 20.50390625 14.953125 20.50390625 14.25 17.5625 C13.88648438 16.11037109 13.88648438 16.11037109 13.515625 14.62890625 C13 12 13 12 13 9 C11.96875 8.814375 10.9375 8.62875 9.875 8.4375 C5.13325738 7.13376221 2.80690201 3.84535293 0 0 Z " fill="#7F2F2E" transform="translate(195,128)"/>
<path d="M0 0 C1.89510699 -0.08160748 3.79124504 -0.13946459 5.6875 -0.1875 C6.74324219 -0.22230469 7.79898437 -0.25710937 8.88671875 -0.29296875 C12.35422768 0.03333385 14.18432448 1.00969875 17 3 C16.49835154 6.7121986 15.96674814 8.65606806 13 11 C9.91169014 11.74605238 7.09997667 11.67202292 4 11 C1.36758488 9.22134114 0.63012158 7.87988146 -1 5 C-0.6171875 2.29296875 -0.6171875 2.29296875 0 0 Z " fill="#CBA1F6" transform="translate(256,114)"/>
<path d="M0 0 C1.65683025 2.91564177 2.25368759 5.04318495 2.30859375 8.38671875 C2.34315674 9.65805664 2.34315674 9.65805664 2.37841797 10.95507812 C2.39791504 11.85677734 2.41741211 12.75847656 2.4375 13.6875 C2.77348899 23.37601828 4.01886789 32.52502034 6 42 C6.21527344 43.17304688 6.43054688 44.34609375 6.65234375 45.5546875 C8.24265815 53.55331024 10.71982247 62.08446234 16.92578125 67.76171875 C20.22411466 69.73078032 23.20297109 69.68358092 27 70 C26.67 70.66 26.34 71.32 26 72 C22.4157849 72.52269804 20.18593429 72.64190685 16.96484375 70.8984375 C5.6334749 62.03420676 2.56006842 45.92315341 0.39404297 32.42138672 C-0.84143203 21.69403441 -0.37191137 10.76712013 0 0 Z " fill="#813937" transform="translate(194,180)"/>
<path d="M0 0 C9.59453303 1.74259681 9.59453303 1.74259681 13 5 C12.39254603 9.85963179 10.27241033 13.7405518 8 18 C5.24569818 17.42715151 4.00300843 17.00242346 1.75 15.1875 C-0.93409698 10.29860908 -0.31357996 5.46151764 0 0 Z " fill="#F9F7F6" transform="translate(332,75)"/>
<path d="M0 0 C1.15371094 -0.01417969 2.30742187 -0.02835937 3.49609375 -0.04296875 C6.5625 0.1875 6.5625 0.1875 9.5625 2.1875 C9.21697612 4.74437669 8.81162987 6.76251375 7.5 9 C4.33709342 10.93855565 1.10390635 10.80879936 -2.4375 10.1875 C-5.81936376 8.2447272 -7.14014591 7.19392921 -8.25 3.4375 C-8.311875 2.695 -8.37375 1.9525 -8.4375 1.1875 C-5.60362485 -0.22943757 -3.15720627 0.0175987 0 0 Z " fill="#CCA2F6" transform="translate(218.4375,103.8125)"/>
<path d="M0 0 C5.64661714 -0.49101019 9.49804838 0.75583543 14.66796875 3.02734375 C15.43753906 3.34832031 16.20710938 3.66929688 17 4 C17.63550781 4.26941406 18.27101563 4.53882813 18.92578125 4.81640625 C21.19894 5.20468386 21.19894 5.20468386 23.7109375 3.59375 C27.8426111 1.59170388 31.09625385 1.46164111 35.625 1.5 C36.81379761 1.50966797 36.81379761 1.50966797 38.02661133 1.51953125 C46.99442913 1.79605185 54.64111007 4.08764161 61 10.6875 C66.92290393 18.45405294 68.57758119 25.05400532 67.359375 34.7265625 C67.24078125 35.47679687 67.1221875 36.22703125 67 37 C66.67 37 66.34 37 66 37 C65.98582031 36.17757812 65.97164063 35.35515625 65.95703125 34.5078125 C65.61338615 26.46465968 64.07581872 20.89460924 60 14 C59.69964844 13.28972656 59.39929688 12.57945313 59.08984375 11.84765625 C57.6960145 9.48464107 56.52338517 9.01836616 54 8 C53.21625 7.64679687 52.4325 7.29359375 51.625 6.9296875 C43.23973802 3.56060902 35.93554267 3.13823858 27.0625 4.6875 C23.50391726 6.21260689 21.56780745 8.13872884 19 11 C18.01 11.495 18.01 11.495 17 12 C17 10.35 17 8.7 17 7 C11.37529486 3.93197901 6.30596952 2.10938353 0 1 C0 0.67 0 0.34 0 0 Z " fill="#924548" transform="translate(264,28)"/>
<path d="M0 0 C3.63 0 7.26 0 11 0 C11.125 10.625 11.125 10.625 10 14 C4.06 12.515 4.06 12.515 -2 11 C-1.34 7.37 -0.68 3.74 0 0 Z " fill="#F9F5F4" transform="translate(332,62)"/>
<path d="M0 0 C0.33 0.99 0.66 1.98 1 3 C-0.35676456 5.56048843 -1.75219616 7.94421086 -3.3125 10.375 C-7.14814065 16.43235077 -7.14814065 16.43235077 -10 23 C-7.69 23.33 -5.38 23.66 -3 24 C-3 19.38 -3 14.76 -3 10 C-2.67 10 -2.34 10 -2 10 C-1.505 18.415 -1.505 18.415 -1 27 C-4.36914062 27.34179688 -4.36914062 27.34179688 -7.73828125 27.68359375 C-10.16087179 27.95265693 -10.16087179 27.95265693 -13 29 C-13.33 31.64 -13.66 34.28 -14 37 C-14.33 37 -14.66 37 -15 37 C-15.33 35.02 -15.66 33.04 -16 31 C-17.485 32.485 -17.485 32.485 -19 34 C-19.66 33.67 -20.32 33.34 -21 33 C-19.71034824 31.62437146 -18.37310707 30.29233607 -17 29 C-16.34 29 -15.68 29 -15 29 C-14.67 27.35 -14.34 25.7 -14 24 C-14.66 23.67 -15.32 23.34 -16 23 C-15.01 22.67 -14.02 22.34 -13 22 C-11.40899614 19.45966787 -9.96396458 16.95399167 -8.5625 14.3125 C-5.90062507 9.37927817 -3.18963815 4.6137135 0 0 Z " fill="#761E1F" transform="translate(224,65)"/>
<path d="M0 0 C0.33 0.99 0.66 1.98 1 3 C4.63 3 8.26 3 12 3 C11.96519531 4.20398437 11.93039062 5.40796875 11.89453125 6.6484375 C11.8663972 8.22394442 11.83909663 9.79946638 11.8125 11.375 C11.78736328 12.1690625 11.76222656 12.963125 11.73632812 13.78125 C11.70995595 15.85586148 11.84513538 17.93100865 12 20 C12.99 20.66 13.98 21.32 15 22 C14.39369112 25.58041351 13.39980862 28.61978904 11.9375 31.9375 C10.34028443 35.79503507 9.55452048 38.76794458 10 43 C9.34 43 8.68 43 8 43 C7.938125 42.4225 7.87625 41.845 7.8125 41.25 C6.67972699 38.11309013 4.65802405 36.90832496 2 35 C2.33 34.34 2.66 33.68 3 33 C4.65 33.99 6.3 34.98 8 36 C8.433125 34.63875 8.433125 34.63875 8.875 33.25 C10 30 10 30 11.1875 27.875 C12.1486325 26.03746365 12.1486325 26.03746365 11.8984375 24.0234375 C11.13955415 21.73908831 11.13955415 21.73908831 8.49609375 20.734375 C7.48675781 20.40953125 6.47742188 20.0846875 5.4375 19.75 C3.91962891 19.24726562 3.91962891 19.24726562 2.37109375 18.734375 C1.19740234 18.37085938 1.19740234 18.37085938 0 18 C0.20625 18.78375 0.4125 19.5675 0.625 20.375 C0.810625 21.674375 0.810625 21.674375 1 23 C0.34 23.66 -0.32 24.32 -1 25 C-1 23.02 -1 21.04 -1 19 C-1.66 18.67 -2.32 18.34 -3 18 C-2.67 17.34 -2.34 16.68 -2 16 C2.81449408 16.48144941 5.60171741 16.8008587 10 19 C10.33 14.38 10.66 9.76 11 5 C8.02148438 5.04882812 8.02148438 5.04882812 5.04296875 5.09765625 C3 5 3 5 0 4 C0 2.68 0 1.36 0 0 Z " fill="#8D5050" transform="translate(332,57)"/>
<path d="M0 0 C0.33 0.99 0.66 1.98 1 3 C-2.26131369 8.6053829 -5.22051767 11.16478225 -11 14 C-11.99 14.495 -11.99 14.495 -13 15 C-15.3329866 15.04022391 -17.66706666 15.04320247 -20 15 C-19.98428955 15.589021 -19.9685791 16.17804199 -19.95239258 16.78491211 C-19.889308 19.50234027 -19.85078009 22.21961361 -19.8125 24.9375 C-19.78736328 25.86369141 -19.76222656 26.78988281 -19.73632812 27.74414062 C-19.66989227 34.05554674 -20.59792142 39.15864318 -23 45 C-23.33 45 -23.66 45 -24 45 C-24.11604417 38.48605371 -23.66794598 32.10885412 -23.0625 25.625 C-22.97548828 24.62855469 -22.88847656 23.63210937 -22.79882812 22.60546875 C-22.71181641 21.65542969 -22.62480469 20.70539063 -22.53515625 19.7265625 C-22.456604 18.86627441 -22.37805176 18.00598633 -22.29711914 17.11962891 C-22 15 -22 15 -21 13 C-19.14453125 12.47265625 -19.14453125 12.47265625 -16.8125 12.0625 C-8.41142229 10.29455168 -4.69424394 7.00807339 0 0 Z " fill="#742422" transform="translate(314,165)"/>
<path d="M0 0 C3.2701997 5.48549627 5.15781066 9.26887494 5.0625 15.75 C5.05347656 16.54921875 5.04445313 17.3484375 5.03515625 18.171875 C5.02355469 18.77515625 5.01195312 19.3784375 5 20 C2.3244039 18.66220195 2.20144335 17.37393383 1.125 14.625 C-0.88050406 9.87856351 -0.88050406 9.87856351 -5 7 C-8.65274469 6.27518916 -8.65274469 6.27518916 -12 6 C-9.40401988 0.00927665 -6.20086134 -0.23399477 0 0 Z " fill="#F7A1C2" transform="translate(321,44)"/>
<path d="M0 0 C0.66 0 1.32 0 2 0 C1.9175 1.051875 1.835 2.10375 1.75 3.1875 C1.74875284 6.94177955 1.74875284 6.94177955 3.375 9.75 C7.1387241 12.97604923 11.23725049 13.88202636 16 15 C14 18 14 18 11.86328125 18.43359375 C5.67250839 18.44307426 2.09658364 17.54544949 -3 14 C-3.34615998 8.34605369 -2.43425238 4.96993194 0 0 Z " fill="#F8A2C3" transform="translate(306,53)"/>
<path d="M0 0 C0.54817383 0.16298584 1.09634766 0.32597168 1.66113281 0.49389648 C4.31441423 1.06803556 6.70742678 1.11273652 9.421875 1.09765625 C10.44667969 1.09443359 11.47148437 1.09121094 12.52734375 1.08789062 C14.12255859 1.07532227 14.12255859 1.07532227 15.75 1.0625 C16.82894531 1.05798828 17.90789062 1.05347656 19.01953125 1.04882812 C21.67974383 1.03705727 24.33984365 1.02061399 27 1 C26.67 1.66 26.34 2.32 26 3 C18.41 3 10.82 3 3 3 C3.061875 5.43375 3.12375 7.8675 3.1875 10.375 C3.24413771 16.78157157 3.14657511 23.23519262 0 29 C-2.109375 30.76171875 -2.109375 30.76171875 -4 32 C-4.33 31.34 -4.66 30.68 -5 30 C-4.35256836 29.46536133 -3.70513672 28.93072266 -3.03808594 28.37988281 C-0.47423432 25.38606087 -0.4670694 23.82053952 -0.390625 19.921875 C-0.35839844 18.76171875 -0.32617188 17.6015625 -0.29296875 16.40625 C-0.27878906 15.1996875 -0.26460937 13.993125 -0.25 12.75 C-0.22035156 11.52796875 -0.19070312 10.3059375 -0.16015625 9.046875 C-0.08947598 6.03118356 -0.03676825 3.0162645 0 0 Z " fill="#843F3D" transform="translate(225,219)"/>
<path d="M0 0 C1.33998047 0.06960937 1.33998047 0.06960937 2.70703125 0.140625 C3.60808594 0.17671875 4.50914062 0.2128125 5.4375 0.25 C6.46810547 0.31960937 6.46810547 0.31960937 7.51953125 0.390625 C7.83203125 3.640625 7.83203125 3.640625 7.51953125 7.390625 C5.45703125 9.828125 5.45703125 9.828125 2.51953125 11.390625 C-1.29296875 11.640625 -1.29296875 11.640625 -4.48046875 11.390625 C-5.82242808 5.04681724 -5.82242808 5.04681724 -4.32421875 2.171875 C-2.48046875 0.390625 -2.48046875 0.390625 0 0 Z " fill="#9C86AF" transform="translate(307.48046875,80.609375)"/>
<path d="M0 0 C0.66 0.33 1.32 0.66 2 1 C1.01 2.32 0.02 3.64 -1 5 C0.03125 4.896875 1.0625 4.79375 2.125 4.6875 C5.98501845 4.99879181 7.80319749 5.59461296 10.64453125 8.22265625 C13.31091438 11.71892231 14.63330017 15.85970346 16 20 C15.01 20 14.02 20 13 20 C12.7525 18.88625 12.505 17.7725 12.25 16.625 C11.38994661 12.95384802 11.38994661 12.95384802 8.875 11.5625 C8.25625 11.376875 7.6375 11.19125 7 11 C7.66 10.67 8.32 10.34 9 10 C5.79619983 7.86413322 4.98060033 7.76867825 1.3125 7.875 C0.10013672 7.90207031 0.10013672 7.90207031 -1.13671875 7.9296875 C-1.75160156 7.95289063 -2.36648438 7.97609375 -3 8 C-5.22656164 12.74354436 -6.46148032 16.72250715 -7 22 C-6.2575 22.28875 -5.515 22.5775 -4.75 22.875 C-2 24 -2 24 -0.0625 25.0625 C2.57505571 26.26138896 5.14204094 26.61027831 8 27 C8 27.33 8 27.66 8 28 C1.6563085 28.6748608 -2.93914061 26.91675472 -8 23 C-9.26171875 20.828125 -9.26171875 20.828125 -10 19 C-9.34 19 -8.68 19 -8 19 C-7.979375 17.72125 -7.95875 16.4425 -7.9375 15.125 C-7.30636476 8.92212394 -3.79529072 4.74659074 0 0 Z " fill="#953840" transform="translate(310,45)"/>
<path d="M0 0 C0.47959778 2.22907395 0.9586608 4.45826297 1.4375 6.6875 C1.83775391 8.54955078 1.83775391 8.54955078 2.24609375 10.44921875 C2.70031381 12.58852461 3.12020375 14.73612381 3.47265625 16.89453125 C3.73369141 17.93673828 3.73369141 17.93673828 4 19 C4.66 19.33 5.32 19.66 6 20 C2.7 19.67 -0.6 19.34 -4 19 C-4 13.06 -4 7.12 -4 1 C-2 0 -2 0 0 0 Z " fill="#9C94C2" transform="translate(318,89)"/>
<path d="M0 0 C0 0.33 0 0.66 0 1 C-1.0355603 1.029729 -1.0355603 1.029729 -2.09204102 1.06005859 C-5.24921471 1.15588293 -8.40577822 1.26532814 -11.5625 1.375 C-12.64853516 1.4059375 -13.73457031 1.436875 -14.85351562 1.46875 C-20.56870137 1.67720662 -25.59508366 2.09238247 -31 4 C-29.35 5.98 -27.7 7.96 -26 10 C-26.598125 9.690625 -27.19625 9.38125 -27.8125 9.0625 C-32.55374257 6.75961075 -36.81397313 6.46015761 -42 7 C-45.33443944 8.45723885 -45.33443944 8.45723885 -48 10 C-48.66 9.67 -49.32 9.34 -50 9 C-45.53782065 5.50261619 -41.39519423 4.06928811 -35.90625 2.7265625 C-33.03296152 2.04538987 -33.03296152 2.04538987 -30.40625 1.1484375 C-20.57816365 -2.01904816 -10.1082186 -1.94328544 0 0 Z " fill="#873535" transform="translate(263,27)"/>
<path d="M0 0 C1.52762296 4.67639682 0.03940678 7.70737766 -2 12 C-3.23940382 14.09813362 -4.5669888 16.02343282 -6 18 C-6 14.13760484 -4.51142384 11.52665562 -3 8 C-3 7.01 -3 6.02 -3 5 C-3.495 5.45375 -3.99 5.9075 -4.5 6.375 C-9.5165603 9.63576419 -15.08784143 10.29560793 -21 10 C-21 9.34 -21 8.68 -21 8 C-26.94 7.67 -32.88 7.34 -39 7 C-39 6.67 -39 6.34 -39 6 C-35.22918278 5.97100401 -31.45839417 5.95320271 -27.6875 5.9375 C-26.61564453 5.92912109 -25.54378906 5.92074219 -24.43945312 5.91210938 C-22.89741211 5.90727539 -22.89741211 5.90727539 -21.32421875 5.90234375 C-20.37635498 5.89710693 -19.42849121 5.89187012 -18.4519043 5.88647461 C-16 6 -16 6 -13 7 C-8.30238735 5.5119901 -3.72925783 3.2428329 0 0 Z " fill="#934E4C" transform="translate(278,136)"/>
<path d="M0 0 C0.57492187 0.28875 1.14984375 0.5775 1.7421875 0.875 C3.18071939 1.59177713 4.62307894 2.30095889 6.0703125 3 C6.74835938 3.33 7.42640625 3.66 8.125 4 C8.80820312 4.33 9.49140625 4.66 10.1953125 5 C12 6 12 6 14 8 C14 8.99 14 9.98 14 11 C11.36 11.33 8.72 11.66 6 12 C6.33 11.34 6.66 10.68 7 10 C9.5625 9.375 9.5625 9.375 12 9 C8.52196927 6.24156184 6.02956736 5.13103585 1.5625 4.5625 C-2.21008372 4.62107805 -2.21008372 4.62107805 -4.375 7.75 C-6.93222392 12.86444784 -7.13219812 17.07764503 -7.0625 22.75 C-7.05798828 23.44738281 -7.05347656 24.14476563 -7.04882812 24.86328125 C-7.0371002 26.57555803 -7.01916653 28.28779033 -7 30 C-7.66 29.67 -8.32 29.34 -9 29 C-9.75462263 10.55366903 -9.75462263 10.55366903 -5 4 C-2.25 1.5 -2.25 1.5 0 0 Z " fill="#8D3036" transform="translate(306,33)"/>
<path d="M0 0 C0.66 2.64 1.32 5.28 2 8 C-3.39449293 8.27429625 -6.51925805 8.36055646 -11 5 C-10.03558469 2.58896173 -9.31202953 1.22595242 -7.1875 -0.3125 C-4.45808824 -1.17031512 -2.72321308 -0.75644808 0 0 Z " fill="#FBA6C8" transform="translate(322,58)"/>
<path d="M0 0 C1.90389849 2.85584773 2.69462177 4.9311762 3.625 8.1875 C4.01558594 9.53908203 4.01558594 9.53908203 4.4140625 10.91796875 C4.60742188 11.60503906 4.80078125 12.29210937 5 13 C5.56203125 12.67257813 6.1240625 12.34515625 6.703125 12.0078125 C9.26859964 10.88214506 10.96842277 10.7931889 13.75 10.875 C14.54921875 10.89304688 15.3484375 10.91109375 16.171875 10.9296875 C16.77515625 10.95289063 17.3784375 10.97609375 18 11 C17.67 11.66 17.34 12.32 17 13 C15.906875 12.979375 14.81375 12.95875 13.6875 12.9375 C10.05615809 12.81455548 10.05615809 12.81455548 7 14 C5.25100412 17.49799176 5.63084068 21.71647498 5.48242188 25.58984375 C5.21400469 30.78599531 5.21400469 30.78599531 3 33 C2.95101563 31.98421875 2.90203125 30.9684375 2.8515625 29.921875 C2.45224404 22.35695734 1.84673655 15.00469154 0.40234375 7.55078125 C-0.00168493 4.98931788 -0.06995696 2.58840749 0 0 Z " fill="#813A38" transform="translate(289,147)"/>
<path d="M0 0 C3.1948843 4.0849547 5.5243672 8.45018836 8 13 C4.04 13 0.08 13 -4 13 C-3.52511102 11.01980257 -3.04497141 9.04086365 -2.5625 7.0625 C-2.29566406 5.96035156 -2.02882813 4.85820313 -1.75390625 3.72265625 C-1 1 -1 1 0 0 Z " fill="#EFE6E5" transform="translate(261,84)"/>
<path d="M0 0 C5.64661714 -0.49101019 9.49804838 0.75583543 14.66796875 3.02734375 C15.43753906 3.34832031 16.20710938 3.66929688 17 4 C17.63550781 4.26941406 18.27101563 4.53882813 18.92578125 4.81640625 C21.20326698 5.20603475 21.20326698 5.20603475 23.7265625 3.57421875 C27.82524229 1.60313527 30.9114584 1.65510568 35.375 1.8125 C36.11105469 1.82603516 36.84710938 1.83957031 37.60546875 1.85351562 C39.40396743 1.88855131 41.20208422 1.94234712 43 2 C43 2.33 43 2.66 43 3 C41.84242188 3.09796875 40.68484375 3.1959375 39.4921875 3.296875 C37.95303881 3.44703585 36.41398068 3.59812691 34.875 3.75 C34.11445313 3.811875 33.35390625 3.87375 32.5703125 3.9375 C26.00469767 4.61670153 21.473619 7.02931222 17 12 C17 10.35 17 8.7 17 7 C11.37529486 3.93197901 6.30596952 2.10938353 0 1 C0 0.67 0 0.34 0 0 Z " fill="#853234" transform="translate(264,28)"/>
<path d="M0 0 C1.32 0 2.64 0 4 0 C5.73473712 1.94125344 7.4045651 3.94272868 9 6 C9.66 6.33 10.32 6.66 11 7 C10.49396008 9.16874252 10.00016187 10.99967627 9 13 C8.01 13 7.02 13 6 13 C4.39453125 10.91796875 4.39453125 10.91796875 2.8125 8.1875 C2.28269531 7.29417969 1.75289063 6.40085937 1.20703125 5.48046875 C0 3 0 3 0 0 Z " fill="#9C95C4" transform="translate(321,87)"/>
<path d="M0 0 C0.66 0 1.32 0 2 0 C4.41000433 3.78856648 4.46351195 7.77406039 4.8125 12.125 C5.494021 19.26572396 7.06326503 24.88453766 11 31 C10.34 31.33 9.68 31.66 9 32 C7.35 29.03 5.7 26.06 4 23 C3.34 25.31 2.68 27.62 2 30 C1.34 30 0.68 30 0 30 C0.144375 29.41734375 0.28875 28.8346875 0.4375 28.234375 C2.61958423 18.59683633 2.91985772 9.4895376 0 0 Z " fill="#943E43" transform="translate(257,62)"/>
<path d="M0 0 C0.33 0.99 0.66 1.98 1 3 C0.67 3.66 0.34 4.32 0 5 C5.445 4.505 5.445 4.505 11 4 C11 3.01 11 2.02 11 1 C11.86625 1.763125 12.7325 2.52625 13.625 3.3125 C16.53600655 5.75220073 19.52943561 7.42998277 23 9 C23 9.33 23 9.66 23 10 C15.375 9.125 15.375 9.125 12 8 C9.60745424 7.77439324 7.21071877 7.59151405 4.8125 7.4375 C3.54019531 7.35371094 2.26789063 7.26992187 0.95703125 7.18359375 C-0.01878906 7.12300781 -0.99460937 7.06242187 -2 7 C-1.125 2.25 -1.125 2.25 0 0 Z " fill="#6A0B0A" transform="translate(257,92)"/>
<path d="M0 0 C-0.04125 1.155 -0.0825 2.31 -0.125 3.5 C-0.13835491 7.27943863 0.5387837 10.48151092 1.5546875 14.1015625 C2.17657524 16.75276814 2.13535979 19.29280419 2 22 C-2.5840382 17.4159618 -3.31943737 9.26117618 -4 3 C-7.3 2.67 -10.6 2.34 -14 2 C-14 1.67 -14 1.34 -14 1 C-4.58997722 -0.14806378 -4.58997722 -0.14806378 0 0 Z " fill="#7A2928" transform="translate(260,218)"/>
<path d="M0 0 C0.99 0.33 1.98 0.66 3 1 C4.49156612 5.47469837 4.18437766 9.87586779 4.1875 14.5625 C4.19974609 15.53380859 4.21199219 16.50511719 4.22460938 17.50585938 C4.22654297 18.43333984 4.22847656 19.36082031 4.23046875 20.31640625 C4.23457764 21.16662354 4.23868652 22.01684082 4.24291992 22.89282227 C4 25 4 25 2 27 C1.34 18.09 0.68 9.18 0 0 Z " fill="#925351" transform="translate(289,207)"/>
<path d="M0 0 C0.33 0 0.66 0 1 0 C2.15405278 11.54052775 -3.28178959 21.81953581 -9.9375 30.890625 C-12.17793996 33.18198405 -13.96698854 34.05218392 -17 35 C-16.62488281 34.5875 -16.24976563 34.175 -15.86328125 33.75 C-15.35152344 33.1725 -14.83976562 32.595 -14.3125 32 C-13.81363281 31.443125 -13.31476563 30.88625 -12.80078125 30.3125 C-7.70980598 23.77484847 -4.8847754 17.47744314 -2.6875 9.5 C-2.42388672 8.5821875 -2.16027344 7.664375 -1.88867188 6.71875 C-1.24795639 4.48207049 -0.61870551 2.24284754 0 0 Z " fill="#81292B" transform="translate(279,107)"/>
<path d="M0 0 C0.09765625 6.15234375 0.09765625 6.15234375 0 8 C-1 9 -1 9 -2.84765625 9.09765625 C-4.8984375 9.06510417 -6.94921875 9.03255208 -9 9 C-7.68 8.34 -6.36 7.68 -5 7 C-6.65 6.67 -8.3 6.34 -10 6 C-9.01958581 3.54896452 -8.3486182 2.23241214 -6.125 0.75 C-4 0 -4 0 0 0 Z " fill="#9D98C8" transform="translate(331,76)"/>
<path d="M0 0 C1 3 1 3 -0.07421875 5.453125 C-0.60660156 6.37609375 -1.13898438 7.2990625 -1.6875 8.25 C-2.24566406 9.2296875 -2.80382812 10.209375 -3.37890625 11.21875 C-3.91386719 12.1365625 -4.44882812 13.054375 -5 14 C-5.7089396 15.24965625 -6.41738381 16.49959389 -7.125 17.75 C-7.74375 18.8225 -8.3625 19.895 -9 21 C-9.75055738 22.31218134 -10.50056446 23.62467761 -11.25 24.9375 C-11.8275 25.948125 -12.405 26.95875 -13 28 C-14.10340063 25.25839953 -14.0943227 24.22602384 -12.93603516 21.45043945 C-12.39253418 20.51417725 -11.8490332 19.57791504 -11.2890625 18.61328125 C-10.70382812 17.59298828 -10.11859375 16.57269531 -9.515625 15.52148438 C-8.89171875 14.46251953 -8.2678125 13.40355469 -7.625 12.3125 C-6.70074219 10.70665039 -6.70074219 10.70665039 -5.7578125 9.06835938 C-1.21763393 1.21763393 -1.21763393 1.21763393 0 0 Z " fill="#732726" transform="translate(340,100)"/>
<path d="M0 0 C4.05606165 0.46800711 7.46588679 0.87953208 11 3 C11.16682272 7.92127034 11.24828052 11.50343896 9 16 C8.67 16 8.34 16 8 16 C7.91363281 15.40832031 7.82726562 14.81664063 7.73828125 14.20703125 C6.74154618 8.60153953 5.48247747 5.79286555 1 2 C0.67 1.34 0.34 0.68 0 0 Z " fill="#F6EFEE" transform="translate(268,100)"/>
<path d="M0 0 C0.33 0 0.66 0 1 0 C1.02578125 0.66386719 1.0515625 1.32773438 1.078125 2.01171875 C1.33897842 6.07273216 1.72635783 9.37808598 3.375 13.125 C7.57147359 16.12248113 12.00985217 15.38716664 17 15 C17.66 13.35 18.32 11.7 19 10 C19.33 10.99 19.66 11.98 20 13 C17.11068728 16.6116409 15.72168143 17.89690265 11.0625 18.5625 C6.87095054 18.30052816 4.23473588 16.6824639 1 14 C-0.38226016 11.23547967 -0.09525387 8.9538637 -0.0625 5.875 C-0.05347656 4.77929688 -0.04445312 3.68359375 -0.03515625 2.5546875 C-0.02355469 1.71164063 -0.01195312 0.86859375 0 0 Z " fill="#843133" transform="translate(254,109)"/>
<path d="M0 0 C2.95409701 1.37154504 5.44008376 2.98863724 8 5 C7.46930939 8.82097239 6.50298434 11.06171403 4 14 C1.36997598 13.62830496 0.25479631 13.2921315 -1.51953125 11.2578125 C-1.94621094 10.55398437 -2.37289063 9.85015625 -2.8125 9.125 C-3.25207031 8.42632812 -3.69164062 7.72765625 -4.14453125 7.0078125 C-5 5 -5 5 -4 2 C-3.16121545 3.28813342 -2.32913217 4.58063256 -1.5 5.875 C-1.0359375 6.59429687 -0.571875 7.31359375 -0.09375 8.0546875 C1 10 1 10 1 12 C1.99 12 2.98 12 4 12 C4.66 10.02 5.32 8.04 6 6 C5.38125 5.7525 4.7625 5.505 4.125 5.25 C1.64931313 3.79371361 1.04874998 2.62187494 0 0 Z " fill="#712526" transform="translate(326,88)"/>
<path d="M0 0 C2.75 -0.25 2.75 -0.25 6 0 C8.375 2 8.375 2 10 4 C9.45730469 4.19335938 8.91460937 4.38671875 8.35546875 4.5859375 C7.28232422 4.97652344 7.28232422 4.97652344 6.1875 5.375 C5.47980469 5.63023438 4.77210938 5.88546875 4.04296875 6.1484375 C1.75226641 7.0265769 1.75226641 7.0265769 -1 9 C-1.125 2.25 -1.125 2.25 0 0 Z " fill="#FAA4C7" transform="translate(310,52)"/>
<path d="M0 0 C3.3957088 2.99216079 4.78925019 6.56229744 6.62109375 10.625 C8.14842604 13.25564599 9.38446218 14.47143894 12 16 C14.68084404 16.6408587 17.23845677 16.7698714 20 17 C19.67 17.66 19.34 18.32 19 19 C15.31276572 19.53772167 13.14844052 19.6775586 9.89453125 17.7578125 C4.86973672 13.66632878 1.83539932 9.23069769 0 3 C0 2.01 0 1.02 0 0 Z " fill="#6F201F" transform="translate(201,233)"/>
<path d="M0 0 C3.70390021 2.02666238 5.65363011 3.48044516 8 7 C8.1953125 9.48046875 8.1953125 9.48046875 8.125 12.1875 C8.10695313 13.08855469 8.08890625 13.98960938 8.0703125 14.91796875 C8.04710937 15.60503906 8.02390625 16.29210937 8 17 C7.67 17 7.34 17 7 17 C6.91363281 16.32453125 6.82726562 15.6490625 6.73828125 14.953125 C5.86738495 9.20852741 5.86738495 9.20852741 2.75 4.4375 C-0.35721301 2.81327502 -2.47968648 2 -6 2 C-8.31278117 3.72937829 -8.31278117 3.72937829 -10 6 C-10.66 6.66 -11.32 7.32 -12 8 C-11.68306247 5.06832781 -11.36774166 3.41017339 -9.375 1.1875 C-6.00253484 -0.49873258 -3.73136685 -0.45033738 0 0 Z " fill="#6F2122" transform="translate(267,100)"/>
<path d="M0 0 C0.66 3.63 1.32 7.26 2 11 C-3.75 10.125 -3.75 10.125 -6 9 C-5.63668534 5.73016809 -4.2451062 0 0 0 Z " fill="#F3EDEC" transform="translate(220,79)"/>
<path d="M0 0 C0.33 0 0.66 0 1 0 C1.12117187 0.66386719 1.24234375 1.32773438 1.3671875 2.01171875 C3.20941512 11.89836056 3.20941512 11.89836056 10 19 C10 19.66 10 20.32 10 21 C7.75 20.875 7.75 20.875 5 20 C1.14919194 15.07952303 -0.13503255 11.47776694 -0.0625 5.3125 C-0.05347656 4.31863281 -0.04445312 3.32476562 -0.03515625 2.30078125 C-0.02355469 1.54152344 -0.01195312 0.78226563 0 0 Z " fill="#711E1C" transform="translate(180,155)"/>
<path d="M0 0 C3.19629792 1.75083835 6.10361308 3.79322902 9 6 C5.75278769 6 3.83012642 5.05074478 0.91796875 3.734375 C-1.9858021 2.62254421 -4.92299626 2.31397997 -8 2 C-8 3.98 -8 5.96 -8 8 C-8.99 7.67 -9.98 7.34 -11 7 C-11 5 -11 5 -10 4 C-10.33 3.34 -10.66 2.68 -11 2 C-7.28717598 -0.37620737 -4.3381213 -0.56893394 0 0 Z " fill="#7C1E21" transform="translate(254,37)"/>
<path d="M0 0 C2.31 0 4.62 0 7 0 C7.33 1.65 7.66 3.3 8 5 C5.08517222 5.80967438 3.53886783 6.21845993 0.6875 5.0625 C0.130625 4.711875 -0.42625 4.36125 -1 4 C-0.67 2.68 -0.34 1.36 0 0 Z " fill="#F1EAEC" transform="translate(214,92)"/>
<path d="M0 0 C5.48382249 2.13655422 7.39035058 7.01863977 10 12 C11.60045573 15.85564336 12.24504978 18.83415372 12 23 C10 22 10 22 9.0703125 19.48828125 C8.75835937 18.44027344 8.44640625 17.39226563 8.125 16.3125 C6.60086125 11.51828745 4.99795623 7.99727497 2 4 C1.30570621 2.6808418 0.62469505 1.35350594 0 0 Z " fill="#82262A" transform="translate(263,44)"/>
<path d="M0 0 C1.43755167 2.27954622 2.13723018 3.39161285 1.53125 6.078125 C-1.55182885 12.57127592 -4.91075941 18.94050627 -11 23 C-11 20 -11 20 -9.35546875 18.125 C-8.64003906 17.42375 -7.92460937 16.7225 -7.1875 16 C-2.64950121 11.12466325 -1.1604138 6.4668894 0 0 Z " fill="#873B3D" transform="translate(311,110)"/>
<path d="M0 0 C0.33 0.66 0.66 1.32 1 2 C-0.485 2.07347656 -0.485 2.07347656 -2 2.1484375 C-8.85523329 2.52403107 -15.39631865 2.97846489 -22 5 C-22 4.34 -22 3.68 -22 3 C-14.5345605 0.22523488 -7.93285519 -0.36801906 0 0 Z " fill="#913339" transform="translate(269,31)"/>
<path d="M0 0 C0.81475044 2.54609513 0.98317781 4.42055468 0.875 7.125 C1.03507869 12.08743942 2.41942433 16.3241303 4 21 C3.34 21 2.68 21 2 21 C1.32263519 18.96185767 0.65856466 16.91929445 0 14.875 C-0.37125 13.73804687 -0.7425 12.60109375 -1.125 11.4296875 C-1.96911949 8.12104059 -2.16509276 5.39471984 -2 2 C-2.66 1.67 -3.32 1.34 -4 1 C-2.68 0.67 -1.36 0.34 0 0 Z " fill="#762F2F" transform="translate(320,87)"/>
<path d="M0 0 C1.52762296 4.67639682 0.03940678 7.70737766 -2 12 C-3.23940382 14.09813362 -4.5669888 16.02343282 -6 18 C-6 14.13760484 -4.51142384 11.52665562 -3 8 C-3 7.01 -3 6.02 -3 5 C-3.99 5 -4.98 5 -6 5 C-5.195625 4.360625 -4.39125 3.72125 -3.5625 3.0625 C-1.7249496 1.59396498 -1.7249496 1.59396498 0 0 Z " fill="#873234" transform="translate(278,136)"/>
<path d="M0 0 C0.33 0 0.66 0 1 0 C2.91692557 14.83533703 2.91692557 14.83533703 -2 22 C-2.66 22.33 -3.32 22.66 -4 23 C-3.79503906 22.42894531 -3.59007812 21.85789063 -3.37890625 21.26953125 C-1.03126261 14.20413485 -0.33709974 7.41619434 0 0 Z " fill="#742120" transform="translate(290,225)"/>
<path d="M0 0 C1.12438477 0.08507812 1.12438477 0.08507812 2.27148438 0.171875 C4.11926559 0.31310669 5.966012 0.46776167 7.8125 0.625 C5.8125 2.625 5.8125 2.625 1.9375 2.8125 C-0.90210774 2.745382 -3.47266905 2.52994365 -6.1875 1.625 C-6.455625 2.223125 -6.72375 2.82125 -7 3.4375 C-8.17243467 5.59724808 -9.38119282 6.98290256 -11.1875 8.625 C-10.5275 6.975 -9.8675 5.325 -9.1875 3.625 C-9.8475 2.965 -10.5075 2.305 -11.1875 1.625 C-7.31959648 -0.95360235 -4.42136085 -0.38614505 0 0 Z " fill="#95504F" transform="translate(261.1875,98.375)"/>
<path d="M0 0 C1.546875 1.1446875 1.546875 1.1446875 3.125 2.3125 C6.27417261 4.57015531 9.47712912 6.36745008 13 8 C13 8.33 13 8.66 13 9 C11.741875 8.87625 10.48375 8.7525 9.1875 8.625 C8.47980469 8.55539063 7.77210938 8.48578125 7.04296875 8.4140625 C5 8 5 8 2 6 C0.8125 2.875 0.8125 2.875 0 0 Z " fill="#731918" transform="translate(267,93)"/>
<path d="M0 0 C0.33 0 0.66 0 1 0 C1.28571429 8.57142857 1.28571429 8.57142857 -1 12 C-1 9.69 -1 7.38 -1 5 C-3.31 5 -5.62 5 -8 5 C-7.34 4.67 -6.68 4.34 -6 4 C-6 3.34 -6 2.68 -6 2 C-4.68 2.33 -3.36 2.66 -2 3 C-1.34 2.01 -0.68 1.02 0 0 Z " fill="#752524" transform="translate(196,172)"/>
<path d="M0 0 C0.33 0.66 0.66 1.32 1 2 C4.3 1.34 7.6 0.68 11 0 C11.33 0.66 11.66 1.32 12 2 C8.73386305 3.91302307 6.00554752 4.35674661 2.25 4.625 C1.26515625 4.69976562 0.2803125 4.77453125 -0.734375 4.8515625 C-1.48203125 4.90054688 -2.2296875 4.94953125 -3 5 C-1.125 1.125 -1.125 1.125 0 0 Z " fill="#893A3B" transform="translate(270,154)"/>
<path d="M0 0 C1.6415049 3.2830098 0.51888624 6.42545033 0 10 C-1.98 9.01 -3.96 8.02 -6 7 C-4.02 4.69 -2.04 2.38 0 0 Z " fill="#F9F4F3" transform="translate(208,95)"/>
<path d="M0 0 C2.56220131 3.84330196 1.91906612 5.23190677 1.125 9.6875 C0.92132813 10.86699219 0.71765625 12.04648438 0.5078125 13.26171875 C0.34023437 14.16535156 0.17265625 15.06898438 0 16 C-2 14 -2 14 -2.01171875 11.7578125 C-1.90472656 10.88898438 -1.79773438 10.02015625 -1.6875 9.125 C-1.58824219 8.26132813 -1.48898438 7.39765625 -1.38671875 6.5078125 C-1.04428665 4.28719223 -0.5894344 2.16629737 0 0 Z " fill="#823937" transform="translate(198,158)"/>
<path d="M0 0 C0.66 0.33 1.32 0.66 2 1 C0.62815653 5.06498881 -1.22068459 7.67396561 -4.125 10.8125 C-4.84945313 11.60269531 -5.57390625 12.39289063 -6.3203125 13.20703125 C-6.87460937 13.79871094 -7.42890625 14.39039063 -8 15 C-8.66 14.67 -9.32 14.34 -10 14 C-9.44570313 13.40832031 -8.89140625 12.81664062 -8.3203125 12.20703125 C-7.23363281 11.02173828 -7.23363281 11.02173828 -6.125 9.8125 C-5.40570313 9.03519531 -4.68640625 8.25789062 -3.9453125 7.45703125 C-2.0182908 5.02310224 -0.98699889 2.92463354 0 0 Z " fill="#731F1F" transform="translate(291,140)"/>
<path d="M0 0 C0.33 0.66 0.66 1.32 1 2 C0.09232898 3.44319692 -0.82656106 4.87934106 -1.75 6.3125 C-2.26046875 7.11300781 -2.7709375 7.91351563 -3.296875 8.73828125 C-5.00277761 11.00368861 -6.65808145 12.42684167 -9 14 C-9.66 13.67 -10.32 13.34 -11 13 C-10.31164062 12.34644531 -10.31164062 12.34644531 -9.609375 11.6796875 C-5.83645414 8.0177349 -2.7376848 4.48980308 0 0 Z " fill="#7C2224" transform="translate(273,128)"/>
<path d="M0 0 C0.33 0.66 0.66 1.32 1 2 C-2.96 7.94 -2.96 7.94 -7 14 C-7.33 13.01 -7.66 12.02 -8 11 C-6.6015625 8.5546875 -6.6015625 8.5546875 -4.625 5.875 C-3.65433594 4.54082031 -3.65433594 4.54082031 -2.6640625 3.1796875 C-1 1 -1 1 0 0 Z " fill="#751B1C" transform="translate(199,51)"/>
<path d="M0 0 C0.33 0 0.66 0 1 0 C1.02578125 0.66386719 1.0515625 1.32773438 1.078125 2.01171875 C1.4345756 7.56100642 1.83610767 10.96228622 6 15 C6.66 15.66 7.32 16.32 8 17 C5.08317863 16.68466796 3.45209742 16.45209742 1.34375 14.34375 C-0.39570049 11.30982472 -0.3007392 9.22266891 -0.1875 5.75 C-0.14689453 4.13351563 -0.14689453 4.13351563 -0.10546875 2.484375 C-0.07066406 1.66453125 -0.03585938 0.8446875 0 0 Z " fill="#722327" transform="translate(254,109)"/>
<path d="M0 0 C1.98 0.99 3.96 1.98 6 3 C6.33 2.34 6.66 1.68 7 1 C7.70074844 4.153368 8 6.72724974 8 10 C7.34 10 6.68 10 6 10 C5.938125 9.4225 5.87625 8.845 5.8125 8.25 C4.6865841 5.13207906 2.58205789 3.98619837 0 2 C0 1.34 0 0.68 0 0 Z " fill="#8C4B49" transform="translate(334,90)"/>
<path d="M0 0 C3.55420724 0.29618394 4.80337043 0.80337043 7.375 3.375 C8.179375 4.674375 8.179375 4.674375 9 6 C8.67 6.99 8.34 7.98 8 9 C5.06799526 6.14723863 2.35684596 3.34920216 0 0 Z " fill="#EBDFDD" transform="translate(326,86)"/>
<path d="M0 0 C2.33333333 4.66666667 4.66666667 9.33333333 7 14 C3.62547256 12.60364382 1.88361882 11.1393647 0 8 C-0.98197462 4.64492003 -1.12380503 3.37141509 0 0 Z " fill="#81413F" transform="translate(262,237)"/>
<path d="M0 0 C3.91402949 1.26941497 5.79072873 2.51167694 8 6 C6.68 5.34 5.36 4.68 4 4 C3.34 5.98 2.68 7.96 2 10 C0 8 0 8 -0.1953125 6.0546875 C-0.13020833 4.03645833 -0.06510417 2.01822917 0 0 Z " fill="#8B3236" transform="translate(199,143)"/>
<path d="M0 0 C2.39073445 3.82517513 2.55966552 7.59665524 3 12 C2.01 12.495 2.01 12.495 1 13 C0.63779734 11.20994059 0.28547531 9.41787943 -0.0625 7.625 C-0.25972656 6.62726563 -0.45695312 5.62953125 -0.66015625 4.6015625 C-1 2 -1 2 0 0 Z " fill="#963A40" transform="translate(275,65)"/>
<path d="M0 0 C1.32 0 2.64 0 4 0 C4 1.65 4 3.3 4 5 C2.35 5 0.7 5 -1 5 C-0.67 3.35 -0.34 1.7 0 0 Z " fill="#EAE0E3" transform="translate(261,101)"/>
<path d="M0 0 C2.12046792 3.53411321 2.53199289 6.94393835 3 11 C2.01 11.495 2.01 11.495 1 12 C0.63597631 10.56496445 0.28413409 9.12683494 -0.0625 7.6875 C-0.25972656 6.88699219 -0.45695313 6.08648437 -0.66015625 5.26171875 C-1 3 -1 3 0 0 Z " fill="#884443" transform="translate(199,222)"/>
<path d="M0 0 C0.33 0 0.66 0 1 0 C2.51708428 10.55808656 2.51708428 10.55808656 0 15 C-0.33 15 -0.66 15 -1 15 C-1.09038099 9.84828377 -0.84681133 5.08086796 0 0 Z " fill="#7C2A29" transform="translate(291,195)"/>
<path d="M0 0 C1.41377341 2.63904371 2.37240135 5.07120629 3 8 C2.01 8.495 2.01 8.495 1 9 C0.01 8.34 -0.98 7.68 -2 7 C-2 6.01 -2 5.02 -2 4 C-1.34 4 -0.68 4 0 4 C0 2.68 0 1.36 0 0 Z " fill="#DB889F" transform="translate(209,143)"/>
<path d="M0 0 C1.32 0 2.64 0 4 0 C3.67 1.65 3.34 3.3 3 5 C1.68 4.67 0.36 4.34 -1 4 C-0.67 2.68 -0.34 1.36 0 0 Z " fill="#9E94C1" transform="translate(316,82)"/>
<path d="M0 0 C2.49505962 2.49505962 2.35948376 3.67328888 2.625 7.125 C2.69976562 8.03507813 2.77453125 8.94515625 2.8515625 9.8828125 C2.92503906 10.93082031 2.92503906 10.93082031 3 12 C0.13700494 9.13700494 0.00578775 7.34147716 -0.0625 3.3125 C-0.041875 2.219375 -0.02125 1.12625 0 0 Z " fill="#712422" transform="translate(259,228)"/>
<path d="M0 0 C0.99 0.66 1.98 1.32 3 2 C3 2.66 3 3.32 3 4 C3.66 4.33 4.32 4.66 5 5 C2.36 5 -0.28 5 -3 5 C-3.33 4.34 -3.66 3.68 -4 3 C-2.68 3 -1.36 3 0 3 C0 2.01 0 1.02 0 0 Z " fill="#711211" transform="translate(237,101)"/>
<path d="M0 0 C0.86625 0.556875 0.86625 0.556875 1.75 1.125 C0.1 1.125 -1.55 1.125 -3.25 1.125 C-3.25 3.105 -3.25 5.085 -3.25 7.125 C-4.24 6.795 -5.23 6.465 -6.25 6.125 C-6.25 4.125 -6.25 4.125 -5.25 3.125 C-5.58 2.465 -5.91 1.805 -6.25 1.125 C-2.80384615 -1.09038462 -2.80384615 -1.09038462 0 0 Z " fill="#B45969" transform="translate(249.25,37.875)"/>
<path d="M0 0 C0 0.33 0 0.66 0 1 C-4.29 1.99 -8.58 2.98 -13 4 C-13 3.34 -13 2.68 -13 2 C-8.50343896 -0.24828052 -4.92127034 -0.16682272 0 0 Z " fill="#85282D" transform="translate(260,32)"/>
<path d="M0 0 C0.33 0 0.66 0 1 0 C1.66 4.29 2.32 8.58 3 13 C2.01 13.495 2.01 13.495 1 14 C-0.04976964 10.85069107 -0.10131595 8.61185544 -0.0625 5.3125 C-0.05347656 4.31863281 -0.04445312 3.32476562 -0.03515625 2.30078125 C-0.02355469 1.54152344 -0.01195312 0.78226563 0 0 Z " fill="#6A1717" transform="translate(180,155)"/>
<path d="M0 0 C1 3 1 3 0.22265625 4.82421875 C-0.8515625 6.54947917 -1.92578125 8.27473958 -3 10 C-3.75 8.375 -3.75 8.375 -4 6 C-2.0625 2.75 -2.0625 2.75 0 0 Z " fill="#6C1E1D" transform="translate(340,100)"/>
<path d="M0 0 C0.33 0 0.66 0 1 0 C1 3.33333333 1 6.66666667 1 10 C-0.65 8.35 -2.3 6.7 -4 5 C-3.525625 4.54625 -3.05125 4.0925 -2.5625 3.625 C-0.90972192 2.06741796 -0.90972192 2.06741796 0 0 Z " fill="#742C2C" transform="translate(332,80)"/>
<path d="M0 0 C0.33 0 0.66 0 1 0 C1.1546875 1.175625 1.1546875 1.175625 1.3125 2.375 C1.77595022 5.33045181 1.77595022 5.33045181 5 7 C3.68 8.32 2.36 9.64 1 11 C0.67 7.37 0.34 3.74 0 0 Z " fill="#E992AD" transform="translate(248,95)"/>
<path d="M0 0 C0.33 0.66 0.66 1.32 1 2 C0.22265625 4.1640625 0.22265625 4.1640625 -0.9375 6.625 C-1.31777344 7.44226563 -1.69804687 8.25953125 -2.08984375 9.1015625 C-2.39019531 9.72804688 -2.69054687 10.35453125 -3 11 C-3.83583327 8.62392051 -4.1842383 7.45550373 -3.22265625 5.078125 C-1.61132812 2.5390625 -1.61132812 2.5390625 0 0 Z " fill="#732523" transform="translate(345,82)"/>
<path d="M0 0 C0.93065133 2.60582371 1.14917407 3.64198224 0.0625 6.25 C-0.4634375 7.11625 -0.4634375 7.11625 -1 8 C-1.33 8 -1.66 8 -2 8 C-2 6.02 -2 4.04 -2 2 C-2.66 1.67 -3.32 1.34 -4 1 C-2.68 0.67 -1.36 0.34 0 0 Z " fill="#8D5762" transform="translate(320,87)"/>
<path d="M0 0 C2.25 0.25 2.25 0.25 4 1 C3.67 1.66 3.34 2.32 3 3 C0.67843403 3.40729228 -1.6568787 3.74438677 -4 4 C-2.25 1.9375 -2.25 1.9375 0 0 Z " fill="#F09AB7" transform="translate(265,140)"/>
<path d="M0 0 C0.66 0.99 1.32 1.98 2 3 C0.02 5.97 0.02 5.97 -2 9 C-2.66 8.34 -3.32 7.68 -4 7 C-2.68 4.69 -1.36 2.38 0 0 Z " fill="#79302E" transform="translate(335,108)"/>
<path d="M0 0 C1.5625 1.5625 1.5625 1.5625 3 4 C2.6875 7.75 2.6875 7.75 2 11 C0 9 0 9 -0.1953125 6.8359375 C-0.17210937 6.02382813 -0.14890625 5.21171875 -0.125 4.375 C-0.10695313 3.55773438 -0.08890625 2.74046875 -0.0703125 1.8984375 C-0.04710937 1.27195313 -0.02390625 0.64546875 0 0 Z " fill="#FDAACE" transform="translate(299,52)"/>
<path d="M0 0 C2.5625 1.125 2.5625 1.125 5 3 C5.8125 5.6875 5.8125 5.6875 6 8 C0.25 3.25 0.25 3.25 -2 1 C-1.34 0.67 -0.68 0.34 0 0 Z " fill="#792225" transform="translate(223,91)"/>
</svg>
