<?xml version="1.0" encoding="UTF-8"?>
<svg version="1.1" xmlns="http://www.w3.org/2000/svg" width="498" height="281">
<path d="M0 0 C164.34 0 328.68 0 498 0 C498 92.73 498 185.46 498 281 C333.66 281 169.32 281 0 281 C0 188.27 0 95.54 0 0 Z " fill="#FCFCFB" transform="translate(0,0)"/>
<path d="M0 0 C2.62447211 1.09776794 2.62447211 1.09776794 5.29296875 0.0390625 C6.44539063 -0.56035156 6.44539063 -0.56035156 7.62109375 -1.171875 C17.57181115 -5.33729159 26.89667162 -2.94203866 36.62109375 0.828125 C45.07417288 5.35656025 48.82376867 11.94661787 51.62109375 20.828125 C52.12453296 23.19009394 52.41141257 25.41679148 52.62109375 27.828125 C56.25109375 27.828125 59.88109375 27.828125 63.62109375 27.828125 C63.58628906 29.03210937 63.55148437 30.23609375 63.515625 31.4765625 C63.48749095 33.05206942 63.46019038 34.62759138 63.43359375 36.203125 C63.40845703 36.9971875 63.38332031 37.79125 63.35742188 38.609375 C63.3310497 40.68398648 63.46622913 42.75913365 63.62109375 44.828125 C64.61109375 45.488125 65.60109375 46.148125 66.62109375 46.828125 C65.87079207 51.27464971 64.33023142 54.95730155 62.4609375 59.03515625 C61.41851181 61.96237353 61.41851181 61.96237353 61.75 65.7109375 C61.85641331 70.2221205 60.09220494 73.22877371 57.62109375 76.890625 C56.7961007 78.18274495 55.97458287 79.47708923 55.15625 80.7734375 C54.73617676 81.43375977 54.31610352 82.09408203 53.88330078 82.77441406 C51.78540003 86.18786495 49.92005174 89.71924125 48.05859375 93.265625 C47.71248047 93.92248291 47.36636719 94.57934082 47.00976562 95.25610352 C46.21012605 96.77832129 45.41505613 98.3029384 44.62109375 99.828125 C41.93821203 96.60237278 40.44792272 93.35490955 38.93359375 89.453125 C38.49660156 88.35226563 38.05960938 87.25140625 37.609375 86.1171875 C36.62051013 82.82618267 36.43037613 80.24042409 36.62109375 76.828125 C35.30109375 76.828125 33.98109375 76.828125 32.62109375 76.828125 C32.43546875 78.6225 32.43546875 78.6225 32.24609375 80.453125 C31.79784321 84.10409313 30.91662538 87.37337399 29.62109375 90.828125 C28.96109375 90.828125 28.30109375 90.828125 27.62109375 90.828125 C27.45609375 91.50875 27.29109375 92.189375 27.12109375 92.890625 C24.90807748 97.22444853 21.36589886 99.80615436 17.62109375 102.828125 C19.50632226 104.08494401 21.42043855 105.30046511 23.37109375 106.453125 C29.96703098 110.89427974 34.82144463 117.04543188 36.62109375 124.828125 C37.63786618 130.92875956 35.50100331 134.59660181 32.265625 139.58984375 C28.81619722 144.28467063 25.245307 146.45076665 19.62109375 147.828125 C17.62130945 147.8574976 15.62081526 147.86150005 13.62109375 147.828125 C13.63269531 149.14425781 13.64429688 150.46039063 13.65625 151.81640625 C13.66564015 153.5911444 13.67473902 155.3658841 13.68359375 157.140625 C13.69197266 158.00236328 13.70035156 158.86410156 13.70898438 159.75195312 C13.7258515 164.28921109 13.57533839 168.72745684 13.109375 173.2421875 C12.41645145 180.15124074 12.63270076 187.02293815 12.8359375 193.95507812 C12.94741976 201.82471217 12.02132145 208.88489378 7.87109375 215.703125 C3.76257776 219.5833901 0.11095898 222.04453938 -5.56640625 222.203125 C-11.0664571 221.66213639 -11.0664571 221.66213639 -13.37890625 219.828125 C-17.36692239 214.83193839 -19.49101355 210.47297077 -21.12890625 204.328125 C-21.33644531 203.60753906 -21.54398437 202.88695312 -21.7578125 202.14453125 C-22.99742987 197.72189638 -23.82704404 193.38698671 -24.37890625 188.828125 C-24.92256836 188.99111084 -25.46623047 189.15409668 -26.02636719 189.32202148 C-28.75306096 189.90861719 -31.23031918 189.94061748 -34.01953125 189.92578125 C-35.08945313 189.92255859 -36.159375 189.91933594 -37.26171875 189.91601562 C-38.37289062 189.90763672 -39.4840625 189.89925781 -40.62890625 189.890625 C-42.31886719 189.88385742 -42.31886719 189.88385742 -44.04296875 189.87695312 C-46.82166842 189.86517897 -49.60026034 189.8487334 -52.37890625 189.828125 C-52.32669922 191.51228516 -52.32669922 191.51228516 -52.2734375 193.23046875 C-51.875524 211.51000269 -51.875524 211.51000269 -56.72265625 217.484375 C-59.33390932 219.60293881 -61.67386395 219.89082091 -64.97265625 220.12109375 C-68.81971163 219.65270227 -70.84035213 217.99600947 -73.53125 215.2890625 C-84.77644952 200.31131261 -86.56156817 179.01575569 -86.50390625 161.015625 C-86.50970703 159.17581055 -86.50970703 159.17581055 -86.515625 157.29882812 C-86.51433594 156.12642578 -86.51304687 154.95402344 -86.51171875 153.74609375 C-86.51059082 152.68156982 -86.50946289 151.6170459 -86.50830078 150.52026367 C-86.37890625 147.828125 -86.37890625 147.828125 -85.37890625 144.828125 C-86.43078125 144.910625 -87.48265625 144.993125 -88.56640625 145.078125 C-93.06195891 144.78333466 -94.35421136 144.1048778 -97.37890625 140.828125 C-101.41002743 134.43393278 -101.29680574 127.18831906 -100.37890625 119.828125 C-99.15464938 116.70918488 -97.53962239 114.36834369 -95.37890625 111.828125 C-94.61578125 110.838125 -93.85265625 109.848125 -93.06640625 108.828125 C-92.50953125 108.168125 -91.95265625 107.508125 -91.37890625 106.828125 C-91.62125 106.291875 -91.86359375 105.755625 -92.11328125 105.203125 C-98.22379091 90.91393317 -102.01691295 75.2970478 -98.37890625 59.828125 C-99.98765625 59.8590625 -99.98765625 59.8590625 -101.62890625 59.890625 C-104.52681049 59.8423266 -106.66502766 59.69656615 -109.37890625 58.828125 C-107.98290593 55.59899296 -106.3792518 53.76468423 -103.75390625 51.453125 C-99.74102816 47.54850801 -97.19396211 43.34967463 -94.5144043 38.45996094 C-86.43947794 23.75990246 -75.44994348 4.74248726 -58.76171875 -1.0859375 C-56.91233584 -1.60460296 -55.05058049 -2.08089468 -53.1796875 -2.515625 C-50.39383673 -3.12623671 -50.39383673 -3.12623671 -47.796875 -4.015625 C-32.67347014 -8.91315941 -14.03822068 -7.08725704 0 0 Z " fill="#FAA1C6" transform="translate(280.37890625,32.171875)"/>
<path d="M0 0 C1.175625 0.268125 2.35125 0.53625 3.5625 0.8125 C4.81546875 1.08320313 4.81546875 1.08320313 6.09375 1.359375 C8.09978921 1.80156644 10.09970671 2.27214964 12.09375 2.765625 C23.96968652 5.49388069 35.85790263 5.72695743 48 6 C48 6.66 48 7.32 48 8 C57.8861361 6.06793645 57.8861361 6.06793645 67 2 C66.64793108 10.27361965 61.82479414 15.60064729 57 22 C69.70313912 18.75064936 69.70313912 18.75064936 80 11 C82.42450751 21.28970893 83.45556449 30.82688376 83.3125 41.4375 C83.30382718 42.81803256 83.29536587 44.19856645 83.28710938 45.57910156 C83.210506 53.44966098 82.68538878 60.99586277 81.43359375 68.765625 C80.49825417 75.93473848 80.95770113 83.30429869 81.16210938 90.51269531 C81.40985748 104.27070693 81.40985748 104.27070693 76.58227539 109.55053711 C72.28846574 113.31432859 68.71644719 114.10652349 63.1328125 114.62109375 C59.6034574 113.59331452 57.85562332 111.00230929 56 108 C54.63429355 104.94419705 53.64241715 101.82989346 52.6875 98.625 C52.29208008 97.40683594 52.29208008 97.40683594 51.88867188 96.1640625 C50.27242902 90.92491684 49.72929438 86.47706729 50 81 C47.9163691 81.14151828 45.83310062 81.28837936 43.75 81.4375 C42.58984375 81.51871094 41.4296875 81.59992188 40.234375 81.68359375 C37.17881547 81.89765058 37.17881547 81.89765058 34.984375 82.5234375 C32.14468712 83.20540979 29.41572237 83.17078141 26.5 83.1875 C25.3759375 83.20167969 24.251875 83.21585937 23.09375 83.23046875 C20.06554896 83.00488307 18.60292553 82.4200014 16 81 C16.02618408 81.76143311 16.05236816 82.52286621 16.0793457 83.30737305 C16.18347015 86.76720435 16.24837729 90.22670585 16.3125 93.6875 C16.35439453 94.88568359 16.39628906 96.08386719 16.43945312 97.31835938 C16.57762425 107.23904634 16.57762425 107.23904634 13.69921875 110.296875 C10.1365006 112.54484188 8.14257172 112.66577046 4 112 C-7.54930954 104.12223022 -9.49030338 87.78756615 -12 75 C-15.16429374 57.32771796 -14.23649132 35.94698728 -8 19 C-7.01 19 -6.02 19 -5 19 C-5.66 15.37 -6.32 11.74 -7 8 C-5.046875 9.30208333 -3.09375 10.60416667 -1.140625 11.90625 C1.19301806 13.30333102 1.19301806 13.30333102 5 13 C3.35 8.71 1.7 4.42 0 0 Z " fill="#FCFBFA" transform="translate(209,138)"/>
<path d="M0 0 C2.62447211 1.09776794 2.62447211 1.09776794 5.29296875 0.0390625 C6.44539063 -0.56035156 6.44539063 -0.56035156 7.62109375 -1.171875 C17.57181115 -5.33729159 26.89667162 -2.94203866 36.62109375 0.828125 C45.07417288 5.35656025 48.82376867 11.94661787 51.62109375 20.828125 C52.12453296 23.19009394 52.41141257 25.41679148 52.62109375 27.828125 C56.25109375 27.828125 59.88109375 27.828125 63.62109375 27.828125 C63.58628906 29.03210937 63.55148437 30.23609375 63.515625 31.4765625 C63.48749095 33.05206942 63.46019038 34.62759138 63.43359375 36.203125 C63.40845703 36.9971875 63.38332031 37.79125 63.35742188 38.609375 C63.3310497 40.68398648 63.46622913 42.75913365 63.62109375 44.828125 C64.61109375 45.488125 65.60109375 46.148125 66.62109375 46.828125 C65.87079207 51.27464971 64.33023142 54.95730155 62.4609375 59.03515625 C61.41851181 61.96237353 61.41851181 61.96237353 61.75 65.7109375 C61.85641331 70.2221205 60.09220494 73.22877371 57.62109375 76.890625 C56.7961007 78.18274495 55.97458287 79.47708923 55.15625 80.7734375 C54.73617676 81.43375977 54.31610352 82.09408203 53.88330078 82.77441406 C51.78540003 86.18786495 49.92005174 89.71924125 48.05859375 93.265625 C47.71248047 93.92248291 47.36636719 94.57934082 47.00976562 95.25610352 C46.21012605 96.77832129 45.41505613 98.3029384 44.62109375 99.828125 C41.93821203 96.60237278 40.44792272 93.35490955 38.93359375 89.453125 C38.49660156 88.35226563 38.05960938 87.25140625 37.609375 86.1171875 C36.62051013 82.82618267 36.43037613 80.24042409 36.62109375 76.828125 C35.30109375 76.828125 33.98109375 76.828125 32.62109375 76.828125 C32.43546875 78.6225 32.43546875 78.6225 32.24609375 80.453125 C31.79784321 84.10409313 30.91662538 87.37337399 29.62109375 90.828125 C28.96109375 90.828125 28.30109375 90.828125 27.62109375 90.828125 C27.45609375 91.50875 27.29109375 92.189375 27.12109375 92.890625 C24.90807748 97.22444853 21.36589886 99.80615436 17.62109375 102.828125 C19.50632226 104.08494401 21.42043855 105.30046511 23.37109375 106.453125 C29.96703098 110.89427974 34.82144463 117.04543188 36.62109375 124.828125 C37.63786618 130.92875956 35.50100331 134.59660181 32.265625 139.58984375 C28.81619722 144.28467063 25.245307 146.45076665 19.62109375 147.828125 C17.62130945 147.8574976 15.62081526 147.86150005 13.62109375 147.828125 C13.63269531 149.14425781 13.64429688 150.46039063 13.65625 151.81640625 C13.66564015 153.5911444 13.67473902 155.3658841 13.68359375 157.140625 C13.69197266 158.00236328 13.70035156 158.86410156 13.70898438 159.75195312 C13.7258515 164.28921109 13.57533839 168.72745684 13.109375 173.2421875 C12.41645145 180.15124074 12.63270076 187.02293815 12.8359375 193.95507812 C12.94741976 201.82471217 12.02132145 208.88489378 7.87109375 215.703125 C3.76257776 219.5833901 0.11095898 222.04453938 -5.56640625 222.203125 C-11.0664571 221.66213639 -11.0664571 221.66213639 -13.37890625 219.828125 C-17.36692239 214.83193839 -19.49101355 210.47297077 -21.12890625 204.328125 C-21.33644531 203.60753906 -21.54398437 202.88695312 -21.7578125 202.14453125 C-22.99742987 197.72189638 -23.82704404 193.38698671 -24.37890625 188.828125 C-24.92256836 188.99111084 -25.46623047 189.15409668 -26.02636719 189.32202148 C-28.75306096 189.90861719 -31.23031918 189.94061748 -34.01953125 189.92578125 C-35.08945313 189.92255859 -36.159375 189.91933594 -37.26171875 189.91601562 C-38.37289062 189.90763672 -39.4840625 189.89925781 -40.62890625 189.890625 C-42.31886719 189.88385742 -42.31886719 189.88385742 -44.04296875 189.87695312 C-46.82166842 189.86517897 -49.60026034 189.8487334 -52.37890625 189.828125 C-52.32669922 191.51228516 -52.32669922 191.51228516 -52.2734375 193.23046875 C-51.875524 211.51000269 -51.875524 211.51000269 -56.72265625 217.484375 C-59.33390932 219.60293881 -61.67386395 219.89082091 -64.97265625 220.12109375 C-68.81971163 219.65270227 -70.84035213 217.99600947 -73.53125 215.2890625 C-84.77644952 200.31131261 -86.56156817 179.01575569 -86.50390625 161.015625 C-86.50970703 159.17581055 -86.50970703 159.17581055 -86.515625 157.29882812 C-86.51433594 156.12642578 -86.51304687 154.95402344 -86.51171875 153.74609375 C-86.51059082 152.68156982 -86.50946289 151.6170459 -86.50830078 150.52026367 C-86.37890625 147.828125 -86.37890625 147.828125 -85.37890625 144.828125 C-86.43078125 144.910625 -87.48265625 144.993125 -88.56640625 145.078125 C-93.06195891 144.78333466 -94.35421136 144.1048778 -97.37890625 140.828125 C-101.41002743 134.43393278 -101.29680574 127.18831906 -100.37890625 119.828125 C-99.15464938 116.70918488 -97.53962239 114.36834369 -95.37890625 111.828125 C-94.61578125 110.838125 -93.85265625 109.848125 -93.06640625 108.828125 C-92.50953125 108.168125 -91.95265625 107.508125 -91.37890625 106.828125 C-91.62125 106.291875 -91.86359375 105.755625 -92.11328125 105.203125 C-98.22379091 90.91393317 -102.01691295 75.2970478 -98.37890625 59.828125 C-99.98765625 59.8590625 -99.98765625 59.8590625 -101.62890625 59.890625 C-104.52681049 59.8423266 -106.66502766 59.69656615 -109.37890625 58.828125 C-107.98290593 55.59899296 -106.3792518 53.76468423 -103.75390625 51.453125 C-99.74102816 47.54850801 -97.19396211 43.34967463 -94.5144043 38.45996094 C-86.43947794 23.75990246 -75.44994348 4.74248726 -58.76171875 -1.0859375 C-56.91233584 -1.60460296 -55.05058049 -2.08089468 -53.1796875 -2.515625 C-50.39383673 -3.12623671 -50.39383673 -3.12623671 -47.796875 -4.015625 C-32.67347014 -8.91315941 -14.03822068 -7.08725704 0 0 Z M-50.37890625 -1.171875 C-47.90390625 0.808125 -47.90390625 0.808125 -45.37890625 2.828125 C-46.03890625 2.498125 -46.69890625 2.168125 -47.37890625 1.828125 C-52.22862987 0.21155046 -56.86482603 -0.10627482 -61.72265625 1.69921875 C-76.18823532 9.25401604 -84.36119829 24.95864963 -92.46582031 38.47436523 C-95.75073439 43.91448907 -99.31051759 48.94163644 -103.37890625 53.828125 C-104.36890625 55.148125 -105.35890625 56.468125 -106.37890625 57.828125 C-103.07890625 57.828125 -99.77890625 57.828125 -96.37890625 57.828125 C-96.53617188 58.48554687 -96.6934375 59.14296875 -96.85546875 59.8203125 C-99.27165548 73.70437058 -96.64697576 86.6259912 -92.37890625 99.828125 C-91.89550781 101.36339844 -91.89550781 101.36339844 -91.40234375 102.9296875 C-89.22165067 109.05459066 -85.77760859 114.04843269 -81.37890625 118.828125 C-81.04890625 118.828125 -80.71890625 118.828125 -80.37890625 118.828125 C-80.16920066 114.68718802 -80.16920066 114.68718802 -81.37890625 110.828125 C-75.64710548 114.60590278 -75.64710548 114.60590278 -73.19140625 116.640625 C-72.59328125 117.0325 -71.99515625 117.424375 -71.37890625 117.828125 C-70.38890625 117.498125 -69.39890625 117.168125 -68.37890625 116.828125 C-69.91501438 109.24986664 -69.91501438 109.24986664 -74.3203125 103.28125 C-76.41680271 102.30846572 -76.41680271 102.30846572 -78.5390625 101.5625 C-81.00453028 100.5784067 -82.08192893 99.09783531 -83.37890625 96.828125 C-82.61578125 97.570625 -81.85265625 98.313125 -81.06640625 99.078125 C-67.48094904 110.28850228 -44.93028041 109.91579767 -28.2265625 110.43359375 C-26.60814453 110.48966797 -26.60814453 110.48966797 -24.95703125 110.546875 C-23.9815332 110.57716797 -23.00603516 110.60746094 -22.00097656 110.63867188 C-19.37890625 110.828125 -19.37890625 110.828125 -17.16894531 111.38769531 C-14.60163284 112.01936903 -13.23459936 111.19143202 -10.87890625 110.078125 C-10.12609375 109.73265625 -9.37328125 109.3871875 -8.59765625 109.03125 C-6.34315023 107.80873617 -4.38799893 106.41713466 -2.37890625 104.828125 C-3.34685488 112.67184663 -5.96733013 118.30787099 -10.37890625 124.828125 C-3.72094148 124.36895502 0.34425363 123.23067509 5.1484375 118.2421875 C15.92222674 105.24784628 18.2051135 86.51866061 18.12109375 70.265625 C18.11251343 68.31052002 18.11251343 68.31052002 18.10375977 66.31591797 C17.73743982 46.26822627 12.39360646 21.45685708 -2.4609375 6.76953125 C-9.84211628 0.1597189 -15.72903894 0.40166632 -25.37890625 0.828125 C-28.20214026 1.28605435 -30.65478077 1.93861464 -33.37890625 2.828125 C-27.96919336 0.79468682 -23.01053721 -0.5266478 -17.2265625 -0.86328125 C-15.13470686 -1.02876826 -15.13470686 -1.02876826 -13.37890625 -3.171875 C-25.44998507 -4.88447657 -38.94446294 -6.11014358 -50.37890625 -1.171875 Z M-71.37890625 105.828125 C-69.72890625 110.118125 -68.07890625 114.408125 -66.37890625 118.828125 C-71.80959397 118.828125 -73.90619973 116.80992934 -78.37890625 113.828125 C-77.71890625 117.458125 -77.05890625 121.088125 -76.37890625 124.828125 C-77.36890625 124.828125 -78.35890625 124.828125 -79.37890625 124.828125 C-85.73800233 147.97523475 -86.34346553 170.55166828 -80.37890625 193.828125 C-80.06695312 195.08753906 -79.755 196.34695312 -79.43359375 197.64453125 C-77.27061315 205.48760796 -74.36551414 213.17038641 -67.37890625 217.828125 C-63.32305326 218.35388372 -61.16858024 218.32266831 -57.671875 216.1328125 C-54.23781778 212.46586044 -54.87334378 207.89313538 -54.93945312 203.14648438 C-54.98134766 201.94830078 -55.02324219 200.75011719 -55.06640625 199.515625 C-55.08896484 198.29810547 -55.11152344 197.08058594 -55.13476562 195.82617188 C-55.19360095 192.82557018 -55.27576485 189.82747703 -55.37890625 186.828125 C-54.47483032 187.31490723 -54.47483032 187.31490723 -53.55249023 187.81152344 C-46.2718261 191.21674476 -35.752028 188.61765471 -28.15625 187.265625 C-25.37890625 186.828125 -25.37890625 186.828125 -21.37890625 186.828125 C-21.43433594 187.94960937 -21.48976563 189.07109375 -21.546875 190.2265625 C-21.54130716 195.28439039 -20.24277062 199.67386069 -18.69140625 204.453125 C-18.44712891 205.27296875 -18.20285156 206.0928125 -17.95117188 206.9375 C-16.26837888 212.23723286 -14.39976563 215.93737047 -10.37890625 219.828125 C-5.04162957 220.68897608 -1.45955371 220.02559665 3.08203125 217.1015625 C6.707753 214.10159983 8.8022296 210.40057448 9.62109375 205.828125 C9.6802564 203.57888449 9.68208141 201.32789191 9.6484375 199.078125 C9.63577122 197.73307568 9.62341179 196.38802343 9.61132812 195.04296875 C9.58675281 192.94798393 9.55899825 190.85315693 9.52514648 188.75830078 C9.40716516 180.95295363 9.69031488 173.59265636 11.15600586 165.89306641 C12.080445 159.80098821 11.94871628 153.66444372 11.93359375 147.515625 C11.94970703 146.21689453 11.96582031 144.91816406 11.98242188 143.58007812 C11.98705275 134.26738487 10.75476377 125.85444526 8.62109375 116.828125 C7.38359375 118.1584375 7.38359375 118.1584375 6.12109375 119.515625 C0.44085211 124.48731259 -7.25203047 125.89454286 -14.37890625 127.828125 C-13.82460938 127.09207031 -13.2703125 126.35601562 -12.69921875 125.59765625 C-11.97476563 124.62183594 -11.2503125 123.64601562 -10.50390625 122.640625 C-9.78460938 121.67769531 -9.0653125 120.71476562 -8.32421875 119.72265625 C-5.06450211 115.00696259 -5.06450211 115.00696259 -4.75390625 109.515625 C-5.06328125 108.6803125 -5.06328125 108.6803125 -5.37890625 107.828125 C-6.49265625 108.446875 -7.60640625 109.065625 -8.75390625 109.703125 C-13.46305516 112.08301746 -18.19680619 113.02107663 -23.37890625 113.828125 C-23.37890625 113.168125 -23.37890625 112.508125 -23.37890625 111.828125 C-24.02738525 111.81354248 -24.67586426 111.79895996 -25.34399414 111.78393555 C-38.01568532 111.46644209 -50.03598695 110.88268584 -62.37890625 107.828125 C-64.19063267 107.42876595 -66.00302573 107.03240474 -67.81640625 106.640625 C-68.99203125 106.3725 -70.16765625 106.104375 -71.37890625 105.828125 Z " fill="#853C40" transform="translate(280.37890625,32.171875)"/>
<path d="M0 0 C7.81510992 2.13139361 12.06336665 8.72614106 16.0625 15.3125 C20.63843391 23.43258272 23.52219798 32.04534809 26 41 C26.34160156 42.2271875 26.68320312 43.454375 27.03515625 44.71875 C31.06626859 62.26815069 30.95765603 82.64820391 26 100 C32.87249799 93.33641956 32.87249799 93.33641956 39 86 C39 87.32 39 88.64 39 90 C38.34 90 37.68 90 37 90 C36.835 90.680625 36.67 91.36125 36.5 92.0625 C34.28698373 96.39632353 30.74480511 98.97802936 27 102 C28.88522851 103.25681901 30.7993448 104.47234011 32.75 105.625 C39.34593723 110.06615474 44.20035088 116.21730688 46 124 C47.01677243 130.10063456 44.87990956 133.76847681 41.64453125 138.76171875 C38.19510347 143.45654563 34.62421325 145.62264165 29 147 C27.0002157 147.0293726 24.99972151 147.03337505 23 147 C23.01160156 148.31613281 23.02320313 149.63226563 23.03515625 150.98828125 C23.0445464 152.7630194 23.05364527 154.5377591 23.0625 156.3125 C23.07087891 157.17423828 23.07925781 158.03597656 23.08789062 158.92382812 C23.10475775 163.46108609 22.95424464 167.89933184 22.48828125 172.4140625 C21.7953577 179.32311574 22.01160701 186.19481315 22.21484375 193.12695312 C22.32632601 200.99658717 21.4002277 208.05676878 17.25 214.875 C13.14148401 218.7552651 9.48986523 221.21641438 3.8125 221.375 C-1.68755085 220.83401139 -1.68755085 220.83401139 -4 219 C-7.98801614 214.00381339 -10.1121073 209.64484577 -11.75 203.5 C-11.95753906 202.77941406 -12.16507812 202.05882812 -12.37890625 201.31640625 C-13.61852362 196.89377138 -14.44813779 192.55886171 -15 188 C-15.54366211 188.16298584 -16.08732422 188.32597168 -16.64746094 188.49389648 C-19.37415471 189.08049219 -21.85141293 189.11249248 -24.640625 189.09765625 C-25.71054688 189.09443359 -26.78046875 189.09121094 -27.8828125 189.08789062 C-28.99398437 189.07951172 -30.10515625 189.07113281 -31.25 189.0625 C-32.93996094 189.05573242 -32.93996094 189.05573242 -34.6640625 189.04882812 C-37.44276217 189.03705397 -40.22135409 189.0206084 -43 189 C-42.94779297 190.68416016 -42.94779297 190.68416016 -42.89453125 192.40234375 C-42.49661775 210.68187769 -42.49661775 210.68187769 -47.34375 216.65625 C-49.95500307 218.77481381 -52.2949577 219.06269591 -55.59375 219.29296875 C-59.44080538 218.82457727 -61.46144588 217.16788447 -64.15234375 214.4609375 C-75.39754327 199.48318761 -77.18266192 178.18763069 -77.125 160.1875 C-77.13080078 158.34768555 -77.13080078 158.34768555 -77.13671875 156.47070312 C-77.13542969 155.29830078 -77.13414062 154.12589844 -77.1328125 152.91796875 C-77.13168457 151.85344482 -77.13055664 150.7889209 -77.12939453 149.69213867 C-77 147 -77 147 -76 144 C-77.051875 144.0825 -78.10375 144.165 -79.1875 144.25 C-83.68305266 143.95520966 -84.97530511 143.2767528 -88 140 C-92.03112118 133.60580778 -91.91789949 126.36019406 -91 119 C-89.77574313 115.88105988 -88.16071614 113.54021869 -86 111 C-85.236875 110.01 -84.47375 109.02 -83.6875 108 C-83.130625 107.34 -82.57375 106.68 -82 106 C-82.24234375 105.46375 -82.4846875 104.9275 -82.734375 104.375 C-88.84488466 90.08580817 -92.6380067 74.4689228 -89 59 C-90.0725 59.020625 -91.145 59.04125 -92.25 59.0625 C-95.14790424 59.0142016 -97.28612141 58.86844115 -100 58 C-98.60399968 54.77086796 -97.00034555 52.93655923 -94.375 50.625 C-90.36212191 46.72038301 -87.81505586 42.52154963 -85.13549805 37.63183594 C-79.71015758 27.75523539 -73.62739386 18.44102676 -66.0625 10.0625 C-65.60190186 9.54800293 -65.14130371 9.03350586 -64.66674805 8.50341797 C-63.34765625 7.09765625 -63.34765625 7.09765625 -61 5 C-60.01 5 -59.02 5 -58 5 C-58.94875 5.86625 -59.8975 6.7325 -60.875 7.625 C-69.5455795 16.34781191 -75.79766843 27.1656243 -82.08691406 37.64404297 C-86.133871 44.34110397 -90.45504257 50.45504257 -96 56 C-93.03 56.33 -90.06 56.66 -87 57 C-87.05800781 58.43988281 -87.11601562 59.87976563 -87.17578125 61.36328125 C-87.54769343 74.76704202 -86.2966977 86.29923113 -82 99 C-81.66613281 100.02867187 -81.33226562 101.05734375 -80.98828125 102.1171875 C-78.93041265 107.83059484 -75.88960254 112.35840763 -72 117 C-72 114.69 -72 112.38 -72 110 C-67.98590546 111.37626099 -65.27690874 113.34304697 -62 116 C-61.34 116 -60.68 116 -60 116 C-60.2165625 115.38511719 -60.433125 114.77023438 -60.65625 114.13671875 C-60.9346875 113.32847656 -61.213125 112.52023438 -61.5 111.6875 C-61.7784375 110.88699219 -62.056875 110.08648437 -62.34375 109.26171875 C-63 107 -63 107 -63 104 C-64.546875 103.7215625 -64.546875 103.7215625 -66.125 103.4375 C-70.86674262 102.13376221 -73.19309799 98.84535293 -76 95 C-73.28893772 96.29289934 -70.87292944 97.74654238 -68.40625 99.453125 C-63.68724141 102.42872208 -58.91133937 103.59320005 -53.5 104.75 C-52.60152344 104.95753906 -51.70304687 105.16507812 -50.77734375 105.37890625 C-39.87572326 107.83851495 -29.25653594 108.27652928 -18.11523438 108.60546875 C-16.98794922 108.64285156 -15.86066406 108.68023437 -14.69921875 108.71875 C-13.67658936 108.74904297 -12.65395996 108.77933594 -11.6003418 108.81054688 C-9 109 -9 109 -6 110 C-3.84309228 109.35446415 -3.84309228 109.35446415 -1.625 108.25 C-0.83480469 107.87875 -0.04460937 107.5075 0.76953125 107.125 C3.26099428 105.86836015 5.65496206 104.51292771 8 103 C7.20171199 110.82322246 4.46932996 116.68129212 0 123 C5.47633194 122.56189345 8.79424967 121.57936199 13 118 C24.1050695 104.67945529 26.58669731 86.20849168 26.5 69.4375 C26.49141968 67.48239502 26.49141968 67.48239502 26.48266602 65.48779297 C26.1253988 45.93553268 21.05883296 23.32446181 8 8 C5.91239649 6.00332659 3.78460887 4.12912179 1.5390625 2.3125 C1.03117187 1.879375 0.52328125 1.44625 0 1 C0 0.67 0 0.34 0 0 Z M-62 105 C-60.35 109.29 -58.7 113.58 -57 118 C-62.43068772 118 -64.52729348 115.98180434 -69 113 C-68.34 116.63 -67.68 120.26 -67 124 C-67.99 124 -68.98 124 -70 124 C-76.35909608 147.14710975 -76.96455928 169.72354328 -71 193 C-70.68804687 194.25941406 -70.37609375 195.51882812 -70.0546875 196.81640625 C-67.8917069 204.65948296 -64.98660789 212.34226141 -58 217 C-53.94414701 217.52575872 -51.78967399 217.49454331 -48.29296875 215.3046875 C-44.85891153 211.63773544 -45.49443753 207.06501038 -45.56054688 202.31835938 C-45.60244141 201.12017578 -45.64433594 199.92199219 -45.6875 198.6875 C-45.71005859 197.46998047 -45.73261719 196.25246094 -45.75585938 194.99804688 C-45.8146947 191.99744518 -45.8968586 188.99935203 -46 186 C-45.09592407 186.48678223 -45.09592407 186.48678223 -44.17358398 186.98339844 C-36.89291985 190.38861976 -26.37312175 187.78952971 -18.77734375 186.4375 C-16 186 -16 186 -12 186 C-12.05542969 187.12148437 -12.11085938 188.24296875 -12.16796875 189.3984375 C-12.16240091 194.45626539 -10.86386437 198.84573569 -9.3125 203.625 C-9.06822266 204.44484375 -8.82394531 205.2646875 -8.57226562 206.109375 C-6.88947263 211.40910786 -5.02085938 215.10924547 -1 219 C4.33727668 219.86085108 7.91935254 219.19747165 12.4609375 216.2734375 C16.08665925 213.27347483 18.18113585 209.57244948 19 205 C19.05916265 202.75075949 19.06098766 200.49976691 19.02734375 198.25 C19.01467747 196.90495068 19.00231804 195.55989843 18.99023438 194.21484375 C18.96565906 192.11985893 18.9379045 190.02503193 18.90405273 187.93017578 C18.78607141 180.12482863 19.06922113 172.76453136 20.53491211 165.06494141 C21.45935125 158.97286321 21.32762253 152.83631872 21.3125 146.6875 C21.32861328 145.38876953 21.34472656 144.09003906 21.36132812 142.75195312 C21.365959 133.43925987 20.13367002 125.02632026 18 116 C16.7625 117.3303125 16.7625 117.3303125 15.5 118.6875 C9.81975836 123.65918759 2.12687578 125.06641786 -5 127 C-4.44570313 126.26394531 -3.89140625 125.52789062 -3.3203125 124.76953125 C-2.59585938 123.79371094 -1.87140625 122.81789063 -1.125 121.8125 C-0.40570313 120.84957031 0.31359375 119.88664062 1.0546875 118.89453125 C4.31440414 114.17883759 4.31440414 114.17883759 4.625 108.6875 C4.315625 107.8521875 4.315625 107.8521875 4 107 C2.88625 107.61875 1.7725 108.2375 0.625 108.875 C-4.08414891 111.25489246 -8.81789994 112.19295163 -14 113 C-14 112.34 -14 111.68 -14 111 C-14.648479 110.98541748 -15.29695801 110.97083496 -15.96508789 110.95581055 C-28.63677907 110.63831709 -40.6570807 110.05456084 -53 107 C-54.81172642 106.60064095 -56.62411948 106.20427974 -58.4375 105.8125 C-59.613125 105.544375 -60.78875 105.27625 -62 105 Z " fill="#852E31" transform="translate(271,33)"/>
<path d="M0 0 C2.1128984 1.49560064 3.7589874 3.05132589 5.4921875 4.97265625 C6.08128906 5.59140625 6.67039062 6.21015625 7.27734375 6.84765625 C25.10405786 27.53448053 26.76316385 57.10291967 25.4921875 82.97265625 C24.16833977 96.05614646 19.85948133 111.15271971 9.4921875 119.97265625 C5.57504457 122.3925801 2.06772662 123.10562063 -2.5078125 122.97265625 C-2.09789062 122.36679688 -1.68796875 121.7609375 -1.265625 121.13671875 C2.57521338 115.16412318 4.62236872 110.02118774 5.4921875 102.97265625 C3.9453125 104.14828125 3.9453125 104.14828125 2.3671875 105.34765625 C-0.81287179 107.60903175 -3.65269649 109.1159638 -7.5078125 109.97265625 C-9.68359375 109.51171875 -9.68359375 109.51171875 -11.5078125 108.97265625 C-10.4765625 108.33328125 -9.4453125 107.69390625 -8.3828125 107.03515625 C0.82139158 100.35468555 4.47456188 89.14531698 7.109375 78.47265625 C10.14829702 58.62663488 6.42743745 29.45528475 -5.63671875 12.91015625 C-10.49271037 7.88182254 -16.54062842 3.98056715 -23.5078125 2.97265625 C-23.5078125 2.31265625 -23.5078125 1.65265625 -23.5078125 0.97265625 C-16.27761275 -1.78594304 -7.34212288 -3.00775439 0 0 Z " fill="#FBA2C8" transform="translate(272.5078125,34.02734375)"/>
<path d="M0 0 C5.85075379 5.3452891 9.77770556 11.75687717 10.34375 19.73828125 C10.39218917 21.25082301 10.42206312 22.76407049 10.43359375 24.27734375 C10.4399585 24.99841309 10.44632324 25.71948242 10.45288086 26.46240234 C10.3398698 31.18484503 9.32856644 34.47627292 6.93359375 38.52734375 C6.60359375 37.86734375 6.27359375 37.20734375 5.93359375 36.52734375 C6.42859375 35.53734375 6.42859375 35.53734375 6.93359375 34.52734375 C7.69588043 24.64260996 7.81504209 14.40236123 1.16796875 6.40234375 C-3.68498122 1.81687921 -9.22507198 -1.47265625 -16.06640625 -1.47265625 C-19.73338034 2.41655869 -22.06640625 6.11415456 -22.06640625 11.52734375 C-21.88464844 10.98464844 -21.70289063 10.44195312 -21.515625 9.8828125 C-21.26425781 9.16738281 -21.01289063 8.45195313 -20.75390625 7.71484375 C-20.51027344 7.00714844 -20.26664062 6.29945312 -20.015625 5.5703125 C-18.97119367 3.3224212 -18.01054798 2.05894809 -16.06640625 0.52734375 C-10.85970339 -0.06209431 -7.49249836 0.74816963 -3.06640625 3.52734375 C-2.40640625 4.51734375 -1.74640625 5.50734375 -1.06640625 6.52734375 C-2.11828125 6.75421875 -3.17015625 6.98109375 -4.25390625 7.21484375 C-8.98889395 8.59906395 -11.6456607 11.20727105 -14.2265625 15.421875 C-16.35344037 19.40881811 -17.61181433 22.98142451 -18.06640625 27.52734375 C-18.72640625 27.52734375 -19.38640625 27.52734375 -20.06640625 27.52734375 C-16.58904599 31.30768998 -16.58904599 31.30768998 -12.06640625 33.52734375 C-13.30390625 33.00140625 -13.30390625 33.00140625 -14.56640625 32.46484375 C-17.06640625 30.52734375 -17.06640625 30.52734375 -17.56640625 27.27734375 C-16.99317366 22.97809935 -16.1822845 20.30569776 -14.06640625 16.52734375 C-12.25390625 15.58984375 -12.25390625 15.58984375 -10.06640625 15.52734375 C-9.07640625 15.42421875 -8.08640625 15.32109375 -7.06640625 15.21484375 C-3.3825532 15.59857844 -2.35482069 16.71083366 -0.06640625 19.52734375 C-1.05640625 19.85734375 -2.04640625 20.18734375 -3.06640625 20.52734375 C-1.41640625 20.85734375 0.23359375 21.18734375 1.93359375 21.52734375 C2.59359375 24.82734375 3.25359375 28.12734375 3.93359375 31.52734375 C4.92359375 30.86734375 5.91359375 30.20734375 6.93359375 29.52734375 C6.45651425 34.53667852 5.07776896 37.59712474 1.93359375 41.52734375 C-1.81936307 44.2544058 -4.58998416 44.91109176 -9.19140625 45.08984375 C-13.92859434 45.26051779 -13.92859434 45.26051779 -18.06640625 47.52734375 C-18.53755363 50.27009455 -18.24446409 52.72293272 -18.06640625 55.52734375 C-16.97009256 56.84866193 -16.97009256 56.84866193 -14.25390625 56.65234375 C-11.61469828 56.5488454 -9.58037646 56.21445925 -7.06640625 55.52734375 C-7.91470462 82.1171099 -7.91470462 82.1171099 -17.8125 92.43359375 C-19.81566943 94.29442359 -21.8399349 95.94497687 -24.06640625 97.52734375 C-23.84984375 96.6971875 -23.63328125 95.86703125 -23.41015625 95.01171875 C-16.91427102 66.26141189 -20.453965 33.84836191 -36.06640625 8.52734375 C-37.06640625 6.86067708 -38.06640625 5.19401042 -39.06640625 3.52734375 C-30.0916635 -8.7713778 -11.89798763 -8.47928419 0 0 Z " fill="#F9A1C5" transform="translate(320.06640625,36.47265625)"/>
<path d="M0 0 C1.32 0.33 2.64 0.66 4 1 C3.34902344 1.66902344 2.69804687 2.33804688 2.02734375 3.02734375 C-0.53315233 6.7817513 -0.50463135 9.05574869 -0.4375 13.5625 C-0.43621094 14.86316406 -0.43492187 16.16382813 -0.43359375 17.50390625 C0.01065461 21.08590876 0.4317034 22.52839222 3 25 C7.17673547 26.39224516 11.06202503 26.57615472 15.3125 25.3125 C18.33118906 22.96463073 18.90636012 19.74123359 19.37109375 16.0625 C19.64396358 9.4811612 19.64396358 9.4811612 16.5625 3.875 C15.2940625 2.946875 15.2940625 2.946875 14 2 C13.505 1.01 13.505 1.01 13 0 C17.05606165 0.46800711 20.46588679 0.87953208 24 3 C24.29747233 9.23275355 23.40959504 14.12193459 21.375 20 C21.10502197 20.79237061 20.83504395 21.58474121 20.55688477 22.40112305 C18.54859417 28.03120765 16.24712939 32.71112978 12 37 C11.36578125 37.88042969 10.7315625 38.76085937 10.078125 39.66796875 C5.29301197 43.2932384 0.6507438 42.65777909 -5.1875 42.5 C-6.34338623 42.48372559 -7.49927246 42.46745117 -8.69018555 42.45068359 C-19.7860975 42.18753944 -31.72150545 41.57263781 -42 37 C-41.52949219 36.60167969 -41.05898437 36.20335937 -40.57421875 35.79296875 C-36.2337547 30.84936329 -36.76892098 22.23913357 -37 16 C-35.9275 15.773125 -34.855 15.54625 -33.75 15.3125 C-29.53333848 13.83666847 -28.3380077 12.72349374 -26 9 C-25.34 7.35 -24.68 5.7 -24 4 C-20.04 5.32 -16.08 6.64 -12 8 C-11.34 6.35 -10.68 4.7 -10 3 C-9.34 2.34 -8.68 1.68 -8 1 C-7.505 3.97 -7.505 3.97 -7 7 C-3.00003714 5.66667905 -2.16217663 3.5042173 0 0 Z " fill="#F5F1F0" transform="translate(255,100)"/>
<path d="M0 0 C-1.051875 0.47566406 -1.051875 0.47566406 -2.125 0.9609375 C-14.05441879 6.8283962 -19.93447494 15.6388187 -24.35498047 28.02587891 C-27.42954267 37.43576157 -29.3729073 47.1232899 -30 57 C-29.05125 56.175 -28.1025 55.35 -27.125 54.5 C-24.25 52 -24.25 52 -22 52 C-21.67 50.35 -21.34 48.7 -21 47 C-21.66 46.67 -22.32 46.34 -23 46 C-21.515 45.505 -21.515 45.505 -20 45 C-18.40899614 42.45966787 -16.96396458 39.95399167 -15.5625 37.3125 C-12.90062507 32.37927817 -10.18963815 27.6137135 -7 23 C-6.505 23.99 -6.505 23.99 -6 25 C-6.78857422 26.83178711 -6.78857422 26.83178711 -8.0546875 29.02734375 C-8.72951172 30.21553711 -8.72951172 30.21553711 -9.41796875 31.42773438 C-10.13919922 32.67006836 -10.13919922 32.67006836 -10.875 33.9375 C-11.81207774 35.57036435 -12.74706396 37.20443125 -13.6796875 38.83984375 C-14.09976074 39.56550537 -14.51983398 40.29116699 -14.95263672 41.03881836 C-16.13110021 43.1133634 -16.13110021 43.1133634 -17 46 C-13.535 46.495 -13.535 46.495 -10 47 C-10 42.38 -10 37.76 -10 33 C-9.67 33 -9.34 33 -9 33 C-8.94392578 34.32064453 -8.94392578 34.32064453 -8.88671875 35.66796875 C-8.78810547 37.41013672 -8.78810547 37.41013672 -8.6875 39.1875 C-8.62949219 40.33605469 -8.57148438 41.48460937 -8.51171875 42.66796875 C-7.81105937 47.23027751 -6.15422161 49.87972608 -2.875 53.0625 C-1 55 -1 55 -0.625 57.0625 C-0.11411803 59.39114281 -0.11411803 59.39114281 3.0625 60.75 C4.5165625 61.36875 4.5165625 61.36875 6 62 C5.71125 61.40574219 5.4225 60.81148437 5.125 60.19921875 C2.16867145 53.59880466 1.50801797 48.18840417 2 41 C2.33 41 2.66 41 3 41 C3.18175781 42.10859375 3.36351562 43.2171875 3.55078125 44.359375 C3.80410404 45.82301777 4.0580427 47.28655404 4.3125 48.75 C4.43044922 49.47960937 4.54839844 50.20921875 4.66992188 50.9609375 C5.40403315 55.10207801 6.18098998 57.74668872 9 61 C9 61.66 9 62.32 9 63 C9.66 63 10.32 63 11 63 C11.28746094 62.27425781 11.57492188 61.54851562 11.87109375 60.80078125 C12.56524013 59.07862569 13.28183487 57.36507389 14.03515625 55.66796875 C17.41215132 47.5143875 17.78156407 39.70467194 18 31 C18.33 31 18.66 31 19 31 C19.02727678 33.97923003 19.04697128 36.95820379 19.0625 39.9375 C19.07087891 40.76830078 19.07925781 41.59910156 19.08789062 42.45507812 C19.10706207 47.38213912 18.84427855 52.11817408 18.11889648 56.99438477 C17.98817661 59.1994438 18.36345808 60.89578523 19 63 C19.66 62.01 20.32 61.02 21 60 C20.34 59.34 19.68 58.68 19 58 C19.78890625 57.78085938 20.5778125 57.56171875 21.390625 57.3359375 C24.19968085 56.24038263 24.19968085 56.24038263 25.109375 53.5390625 C25.32078125 52.57742187 25.5321875 51.61578125 25.75 50.625 C25.97171875 49.66851562 26.1934375 48.71203125 26.421875 47.7265625 C26.70804688 46.37691406 26.70804688 46.37691406 27 45 C27.18691406 44.37609375 27.37382812 43.7521875 27.56640625 43.109375 C28.21720042 39.94334931 28.17139293 36.85285778 28.1875 33.625 C28.20167969 32.33851562 28.21585937 31.05203125 28.23046875 29.7265625 C28.00714141 26.11547289 27.31293032 23.35238333 26 20 C26.66 20 27.32 20 28 20 C30.02436512 23.17758951 30.30203869 26.13175126 30.58129883 29.83911133 C31.32145423 39.59395248 33.42858666 47.42858666 40.5625 54.5625 C42.98403207 55.99058301 45.38388705 56.98576653 48 58 C45.09204306 31.45696051 45.09204306 31.45696051 35 7 C34.401875 5.96875 33.80375 4.9375 33.1875 3.875 C32.795625 3.25625 32.40375 2.6375 32 2 C37.53014363 4.22874323 39.45919398 8.86345161 42 14 C50.47918281 33.999176 53.76797823 60.86181834 46.12109375 81.35546875 C43.19152725 88.4771346 39.45280015 95.57760679 33 100 C32.34 99.67 31.68 99.34 31 99 C31.44730469 98.61070312 31.89460938 98.22140625 32.35546875 97.8203125 C42.44000431 88.48835422 46.94206263 74.48870151 48 61 C44.7 60.34 41.4 59.68 38 59 C38.804375 59.804375 39.60875 60.60875 40.4375 61.4375 C44.03779054 65.03779054 44.17415227 65.54881615 44.25 70.6875 C44.20398738 75.52457625 43.95486662 78.98982387 41 83 C37.65129014 85.63112918 34.12011936 85.36141398 30 85 C26.4613006 83.34860695 25.18929847 82.28394771 23 79 C22.6640625 75.6015625 22.6640625 75.6015625 22.625 71.625 C22.59664062 70.31789063 22.56828125 69.01078125 22.5390625 67.6640625 C23.05795294 63.53932325 24.13581608 61.93210923 27 59 C25.515 58.505 25.515 58.505 24 58 C23.62875 58.86625 23.62875 58.86625 23.25 59.75 C21.83316683 62.3002997 20.12372463 64.01785701 18 66 C17.01 65.505 17.01 65.505 16 65 C15.375 62.9375 15.375 62.9375 15 61 C14.01 62.65 13.02 64.3 12 66 C10.54096742 65.69078116 9.08279278 65.37751201 7.625 65.0625 C6.81289062 64.88847656 6.00078125 64.71445313 5.1640625 64.53515625 C3 64 3 64 1 63 C0.52820313 63.81404297 0.52820313 63.81404297 0.046875 64.64453125 C-4.54848881 72.32654003 -4.54848881 72.32654003 -8 74 C-11.99465578 74.6078824 -13.69183037 74.17186383 -17.25 72.1875 C-20 70 -20 70 -22 67 C-21.505 65.515 -21.505 65.515 -21 64 C-20.38125 64.969375 -19.7625 65.93875 -19.125 66.9375 C-17.34321154 70.02835362 -17.34321154 70.02835362 -15 71 C-10.94944183 71.41591713 -10.94944183 71.41591713 -7 71 C-4.67647512 68.77680915 -4.05270113 67.30068243 -3.49609375 64.125 C-3.19354885 57.56392954 -3.19354885 57.56392954 -6.5625 52.25 C-11.40564795 50.48885529 -15.11527531 50.37175844 -20 52 C-20.33 54.64 -20.66 57.28 -21 60 C-21.33 60 -21.66 60 -22 60 C-22.33 58.02 -22.66 56.04 -23 54 C-25.11460833 55.86423387 -27.21621478 57.74034825 -29.3125 59.625 C-30.20485352 60.40810547 -30.20485352 60.40810547 -31.11523438 61.20703125 C-34.72287209 64.47204415 -37.32326345 67.31500082 -39 72 C-39.15256441 74.98238848 -39.15256441 74.98238848 -38.6875 77.875 C-38.56761719 78.84179688 -38.44773438 79.80859375 -38.32421875 80.8046875 C-38.21722656 81.52914062 -38.11023438 82.25359375 -38 83 C-40 82 -40 82 -41 79 C-41.53938125 74.35778436 -41.49178986 70.94715084 -39.3125 66.75 C-37 64 -37 64 -34.38671875 61.84765625 C-31.30013422 58.16497193 -31.42076902 55.26675733 -31.5 50.6875 C-31.14545665 33.78817423 -24.78456155 17.20808254 -13.0546875 4.81640625 C-9.22813692 1.43361914 -5.17373008 -1.72457669 0 0 Z " fill="#812628" transform="translate(231,42)"/>
<path d="M0 0 C4.46367346 0.6156791 7.43054942 2.30554942 10.625 5.5 C11.12676737 10.86315283 11.40585462 15.80814833 9.125 20.75 C6.24944313 22.76288981 4.10018747 23.14435666 0.59765625 22.94140625 C-2.41544578 22.26718738 -4.23056944 20.64443056 -6.375 18.5 C-3.55958052 21.42463774 -3.55958052 21.42463774 -0.23046875 23.70703125 C1.625 25.5 1.625 25.5 1.90234375 28.6796875 C1.79019531 29.89914063 1.67804688 31.11859375 1.5625 32.375 C1.42134766 34.19644531 1.42134766 34.19644531 1.27734375 36.0546875 C0.60798948 39.58983997 -0.13566055 41.69694692 -2.375 44.5 C-4.87671345 45.71452479 -6.04988578 45.58261978 -8.7421875 44.8984375 C-16.40823384 41.76992638 -22.26275998 38.56863748 -25.7265625 30.6640625 C-26.94258753 26.60576211 -26.93379797 23.46249064 -25.375 19.5 C-20.82401213 12.98873814 -14.94153247 7.90154493 -8.375 3.5 C-8.045 3.83 -7.715 4.16 -7.375 4.5 C-6.859375 3.84 -6.34375 3.18 -5.8125 2.5 C-3.375 0.5 -3.375 0.5 0 0 Z " fill="#FACDC9" transform="translate(217.375,91.5)"/>
<path d="M0 0 C3.63 0 7.26 0 11 0 C11.26785714 11.25 11.26785714 11.25 9 15 C10.32 15.99 11.64 16.98 13 18 C12.4136792 22.69056641 10.64951093 27.08968731 8 31 C7.01 31.33 6.02 31.66 5 32 C5.99 32.66 6.98 33.32 8 34 C7.68381585 40.94646996 4.5852767 45.8162055 1.0625 51.6875 C-0.03062562 53.5451743 -1.12309915 55.4032325 -2.21484375 57.26171875 C-2.70073975 58.07600342 -3.18663574 58.89028809 -3.68725586 59.72924805 C-4.87668929 61.78670023 -5.96369496 63.86214221 -7 66 C-9.83419229 62.70291671 -10.96554174 59.52310354 -12.1875 55.375 C-12.53167969 54.22773437 -12.87585938 53.08046875 -13.23046875 51.8984375 C-14 49 -14 49 -14 47 C-12.02 47 -10.04 47 -8 47 C-8.28875 46.28714844 -8.5775 45.57429688 -8.875 44.83984375 C-11.01417038 39.32108128 -12.52679284 34.92641939 -12 29 C-9.51137122 32.23521742 -7.24578442 35.59260295 -5 39 C-3.05000871 38.80528889 -3.05000871 38.80528889 -1 38 C0.72101535 35.41847698 1 34.15081975 1 31 C-0.5354878 29.53909212 -0.5354878 29.53909212 -2.5 28.3125 C-3.1496875 27.87550781 -3.799375 27.43851563 -4.46875 26.98828125 C-4.9740625 26.66214844 -5.479375 26.33601563 -6 26 C-3.45395403 29.52381687 -3.45395403 29.52381687 0 32 C-0.50603992 34.16874252 -0.99983813 35.99967627 -2 38 C-2.99 38 -3.98 38 -5 38 C-6.5703125 35.953125 -6.5703125 35.953125 -8.125 33.25 C-8.64320313 32.36828125 -9.16140625 31.4865625 -9.6953125 30.578125 C-10.82939585 28.33712198 -11.53038457 26.45116349 -12 24 C-13.32 24.33 -14.64 24.66 -16 25 C-16.5625 23.0625 -16.5625 23.0625 -17 21 C-16 20 -16 20 -13.4375 19.9375 C-12.2309375 19.9684375 -12.2309375 19.9684375 -11 20 C-10.62875 19.071875 -10.62875 19.071875 -10.25 18.125 C-8.7557016 15.58469272 -7.75218149 14.97135817 -5 14 C-3.68 14 -2.36 14 -1 14 C-1.18433594 13.44828125 -1.36867188 12.8965625 -1.55859375 12.328125 C-2.35844414 8.10944506 -0.92608099 4.14012677 0 0 Z " fill="#F9F5F5" transform="translate(332,62)"/>
<path d="M0 0 C7.51676137 1.53403293 11.5972623 5.10439303 16.4375 10.9375 C19.35751635 16.57528048 18.89586674 23.89361422 18 30 C14.58407437 36.10037447 10.58385181 38.86024816 4 41 C2.33363782 41.03185692 0.6662756 41.03610264 -1 41 C-1.13494246 38.3941111 -1.23402299 35.79517889 -1.3125 33.1875 C-1.35439453 32.44951172 -1.39628906 31.71152344 -1.43945312 30.95117188 C-1.48828125 28.79296875 -1.48828125 28.79296875 -1 25 C2.8476015 21.62594946 6.0223617 21.80855237 11 22 C11.33 21.67 11.66 21.34 12 21 C10.041036 21.30852185 8.08284287 21.6219418 6.125 21.9375 C5.03445313 22.11152344 3.94390625 22.28554687 2.8203125 22.46484375 C0.06178454 22.85551159 0.06178454 22.85551159 -2 24 C-6.06752585 11.08503091 -6.06752585 11.08503091 -3.03125 5.0859375 C-2.06987997 3.36233837 -1.0399587 1.67735274 0 0 Z " fill="#FAF8F7" transform="translate(295,137)"/>
<path d="M0 0 C0.66 0.33 1.32 0.66 2 1 C1.05125 1.86625 0.1025 2.7325 -0.875 3.625 C-9.5455795 12.34781191 -15.79766843 23.1656243 -22.08691406 33.64404297 C-26.133871 40.34110397 -30.45504257 46.45504257 -36 52 C-33.03 52.33 -30.06 52.66 -27 53 C-27.05800781 54.43988281 -27.11601562 55.87976563 -27.17578125 57.36328125 C-27.54769343 70.76704202 -26.2966977 82.29923113 -22 95 C-21.66613281 96.02867187 -21.33226562 97.05734375 -20.98828125 98.1171875 C-18.93041265 103.83059484 -15.88960254 108.35840763 -12 113 C-12 110.69 -12 108.38 -12 106 C-8.08597051 107.26941497 -6.20927127 108.51167694 -4 112 C-5.32 111.67 -6.64 111.34 -8 111 C-7.505 115.455 -7.505 115.455 -7 120 C-7.99 120 -8.98 120 -10 120 C-10.66 121.32 -11.32 122.64 -12 124 C-12 123.01 -12 122.02 -12 121 C-14.64 121 -17.28 121 -20 121 C-20.495 120.01 -20.495 120.01 -21 119 C-17.04 118.01 -17.04 118.01 -13 117 C-15.31 113.37 -17.62 109.74 -20 106 C-25.57997407 110.46397926 -27.87340222 112.85459199 -28.875 119.8125 C-29.22016198 124.74023804 -28.70706482 128.79333811 -26 133 C-22.8835492 135.51968363 -19.63039831 137.32443155 -16 139 C-16 139.33 -16 139.66 -16 140 C-19.89613934 140.30557956 -22.3085149 140.39288926 -25.75 138.4375 C-31.34747564 132.37356805 -31.59233554 126.41150376 -31.421875 118.3828125 C-30.82158414 113.56936914 -29.09414118 110.63758807 -26 107 C-25.236875 106.01 -24.47375 105.02 -23.6875 104 C-23.130625 103.34 -22.57375 102.68 -22 102 C-22.24234375 101.46375 -22.4846875 100.9275 -22.734375 100.375 C-28.84488466 86.08580817 -32.6380067 70.4689228 -29 55 C-30.0725 55.020625 -31.145 55.04125 -32.25 55.0625 C-35.14790424 55.0142016 -37.28612141 54.86844115 -40 54 C-38.60399968 50.77086796 -37.00034555 48.93655923 -34.375 46.625 C-30.36212191 42.72038301 -27.81505586 38.52154963 -25.13549805 33.63183594 C-18.22976087 21.06023642 -10.14290971 10.14290971 0 0 Z " fill="#782322" transform="translate(211,37)"/>
<path d="M0 0 C3.78496612 1.39039572 6.66140229 2.87166082 9.0625 6.125 C10.90347798 10.89700872 11.22086083 15.01647421 10.5 20.0625 C8.79231346 23.7006148 7.80527167 24.71106404 4.0625 26.125 C-0.93789033 26.66075611 -3.93310116 26.21410768 -7.9375 23.125 C-10.39141569 19.44412647 -10.16552759 16.68144412 -10.0625 12.4375 C-10.05347656 11.73560547 -10.04445312 11.03371094 -10.03515625 10.31054688 C-10.01163704 8.58188475 -9.97576713 6.85339855 -9.9375 5.125 C-9.2775 5.125 -8.6175 5.125 -7.9375 5.125 C-7.195 4.279375 -6.4525 3.43375 -5.6875 2.5625 C-2.9375 0.125 -2.9375 0.125 0 0 Z " fill="#9C6F98" transform="translate(263.9375,100.875)"/>
<path d="M0 0 C5.53014363 2.22874323 7.45919398 6.86345161 10 12 C18.47918281 31.999176 21.76797823 58.86181834 14.12109375 79.35546875 C11.19152725 86.4771346 7.45280015 93.57760679 1 98 C0.34 97.67 -0.32 97.34 -1 97 C-0.55269531 96.61070312 -0.10539062 96.22140625 0.35546875 95.8203125 C10.44000431 86.48835422 14.94206263 72.48870151 16 59 C8.06159801 56.09169144 0.41442956 55.35161161 -8 55 C-7.71122471 53.6452138 -7.41879283 52.29120698 -7.125 50.9375 C-6.88136719 49.80634766 -6.88136719 49.80634766 -6.6328125 48.65234375 C-6.15153236 46.63512638 -5.57047447 44.64142666 -4.9453125 42.6640625 C-3.94310765 38.77948338 -3.73356816 35.4427605 -3.75 31.4375 C-3.74484375 30.17808594 -3.7396875 28.91867188 -3.734375 27.62109375 C-3.99430221 24.07767435 -4.71932275 21.29825212 -6 18 C-5.34 18 -4.68 18 -4 18 C-1.97563488 21.17758951 -1.69796131 24.13175126 -1.41870117 27.83911133 C-0.67854577 37.59395248 1.42858666 45.42858666 8.5625 52.5625 C10.98403207 53.99058301 13.38388705 54.98576653 16 56 C13.09204306 29.45696051 13.09204306 29.45696051 3 5 C2.1028125 3.453125 2.1028125 3.453125 1.1875 1.875 C0.795625 1.25625 0.40375 0.6375 0 0 Z " fill="#741717" transform="translate(263,44)"/>
<path d="M0 0 C0.43441406 0.48984375 0.86882812 0.9796875 1.31640625 1.484375 C2.9889869 3.29672851 2.9889869 3.29672851 5.9375 3.25 C8.45288335 3.04466258 10.5814084 2.64774375 13 2 C12.15170163 28.58976615 12.15170163 28.58976615 2.25390625 38.90625 C0.25073682 40.76707984 -1.77352865 42.41763312 -4 44 C-3.79503906 43.16984375 -3.59007812 42.3396875 -3.37890625 41.484375 C-0.38223204 27.77709967 -0.26682413 13.9868916 0 0 Z " fill="#FBA2C7" transform="translate(300,90)"/>
<path d="M0 0 C2.68234235 2.42457972 4.36856725 5.07510397 6.1875 8.1875 C6.71730469 9.08855469 7.24710938 9.98960937 7.79296875 10.91796875 C8.19128906 11.60503906 8.58960938 12.29210937 9 13 C7.2984375 13.2165625 7.2984375 13.2165625 5.5625 13.4375 C2.19222799 13.61171478 2.19222799 13.61171478 1 15 C3.31 15.33 5.62 15.66 8 16 C7.51679152 22.2054142 6.66681876 27.99945246 5 34 C-4.14634146 30.95121951 -4.14634146 30.95121951 -7 27 C-9.38009929 21.33309693 -9.609591 15.89570189 -8 10 C-5.82246802 6.18455768 -3.09365075 3.09365075 0 0 Z " fill="#F9F6F5" transform="translate(190,142)"/>
<path d="M0 0 C3.63 0 7.26 0 11 0 C11.125 10.625 11.125 10.625 10 14 C7.14615953 15.37407134 5.8365452 14.95284958 2.75 14.0625 C1.8425 13.711875 0.935 13.36125 0 13 C0.33 13.66 0.66 14.32 1 15 C1.07051689 16.64445394 1.08425094 18.29167854 1.0625 19.9375 C1.05347656 20.81277344 1.04445313 21.68804687 1.03515625 22.58984375 C1.02355469 23.38519531 1.01195312 24.18054688 1 25 C1 25.99 1 26.98 1 28 C0.01 27.01 -0.98 26.02 -2 25 C-2.99 25.33 -3.98 25.66 -5 26 C-3.63016497 29.16115776 -3.0109362 29.9927092 0 32 C-0.50603992 34.16874252 -0.99983813 35.99967627 -2 38 C-2.99 38 -3.98 38 -5 38 C-6.5703125 35.953125 -6.5703125 35.953125 -8.125 33.25 C-8.64320313 32.36828125 -9.16140625 31.4865625 -9.6953125 30.578125 C-10.82939585 28.33712198 -11.53038457 26.45116349 -12 24 C-13.32 24.33 -14.64 24.66 -16 25 C-16.5625 23.0625 -16.5625 23.0625 -17 21 C-16 20 -16 20 -13.4375 19.9375 C-12.2309375 19.9684375 -12.2309375 19.9684375 -11 20 C-10.62875 19.071875 -10.62875 19.071875 -10.25 18.125 C-8.7557016 15.58469272 -7.75218149 14.97135817 -5 14 C-3.68 14 -2.36 14 -1 14 C-1.18433594 13.44828125 -1.36867188 12.8965625 -1.55859375 12.328125 C-2.35844414 8.10944506 -0.92608099 4.14012677 0 0 Z " fill="#885059" transform="translate(332,62)"/>
<path d="M0 0 C0.87205078 0.44472656 0.87205078 0.44472656 1.76171875 0.8984375 C3.12093936 1.5673733 4.49606644 2.20660911 5.89453125 2.7890625 C12.35409766 5.6044336 16.8921321 9.85153658 20.1015625 16.16796875 C22.11873721 21.49368704 23.16912458 27.36314936 22 33 C19.5 35.125 19.5 35.125 17 36 C16.77213542 34.01432292 16.54427083 32.02864583 16.31640625 30.04296875 C16.02829265 27.80603607 16.02829265 27.80603607 15 25 C12.69 25 10.38 25 8 25 C10 23 10 23 13 22 C9.79619983 19.86413322 8.98060033 19.76867825 5.3125 19.875 C4.10013672 19.90207031 4.10013672 19.90207031 2.86328125 19.9296875 C2.24839844 19.95289062 1.63351562 19.97609375 1 20 C-1.22656164 24.74354436 -2.46148032 28.72250715 -3 34 C-2.2575 34.28875 -1.515 34.5775 -0.75 34.875 C2 36 2 36 3.9375 37.0625 C6.57505571 38.26138896 9.14204094 38.61027831 12 39 C12 39.33 12 39.66 12 40 C5.6563085 40.6748608 1.06085939 38.91675472 -4 35 C-5.26171875 32.828125 -5.26171875 32.828125 -6 31 C-5.34 31 -4.68 31 -4 31 C-3.979375 29.72125 -3.95875 28.4425 -3.9375 27.125 C-3.28447722 20.97488991 0.02913074 16.58644069 4 12 C6.91765 10.0549 8.62537285 9.54723683 12 9 C8.52196927 6.24156184 6.02956736 5.13103585 1.5625 4.5625 C-2.21008372 4.62107805 -2.21008372 4.62107805 -4.375 7.75 C-6.93222392 12.86444784 -7.13219812 17.07764503 -7.0625 22.75 C-7.05798828 23.44738281 -7.05347656 24.14476563 -7.04882812 24.86328125 C-7.0371002 26.57555803 -7.01916653 28.28779033 -7 30 C-7.66 29.67 -8.32 29.34 -9 29 C-9.75462263 10.55366903 -9.75462263 10.55366903 -5 4 C-2.25 1.5 -2.25 1.5 0 0 Z " fill="#86282D" transform="translate(306,33)"/>
<path d="M0 0 C2.60847629 1.49745861 4.87028902 2.87028902 7 5 C7.50176737 10.36315283 7.78085462 15.30814833 5.5 20.25 C2.61977243 22.2661593 0.46897955 22.65138532 -3.0390625 22.4296875 C-6.10197156 21.75853213 -7.81736863 20.18263137 -10 18 C-10.52851563 17.56042969 -11.05703125 17.12085937 -11.6015625 16.66796875 C-13.96868267 13.84461592 -13.59068457 11.00128399 -13.4765625 7.453125 C-12.95425882 4.7645454 -12.42261781 3.72211497 -10.4375 1.875 C-6.4382113 -0.3064302 -4.48492177 -0.720791 0 0 Z " fill="#9B6C93" transform="translate(221,92)"/>
<path d="M0 0 C4.05606165 0.46800711 7.46588679 0.87953208 11 3 C11.29747233 9.23275355 10.40959504 14.12193459 8.375 20 C8.10502197 20.79237061 7.83504395 21.58474121 7.55688477 22.40112305 C5.53868643 28.05898321 3.21315476 32.64908541 -1 37 C-1.825 37.99 -2.65 38.98 -3.5 40 C-6 42 -6 42 -9.3125 42.3125 C-10.199375 42.209375 -11.08625 42.10625 -12 42 C-15.07024996 37.01084382 -15.84831976 32.73159633 -15 27 C-13.5 24.4375 -13.5 24.4375 -12 23 C-11.319375 23.495 -10.63875 23.99 -9.9375 24.5 C-5.74984652 26.63837624 -2.17771322 26.64742825 2.3125 25.3125 C5.33118906 22.96463073 5.90636012 19.74123359 6.37109375 16.0625 C6.64396358 9.4811612 6.64396358 9.4811612 3.5625 3.875 C2.716875 3.25625 1.87125 2.6375 1 2 C0.67 1.34 0.34 0.68 0 0 Z " fill="#F9CBC7" transform="translate(268,100)"/>
<path d="M0 0 C3.51449145 0.01678897 4.38059167 0.07296179 7.25 2.3125 C7.724375 2.9725 8.19875 3.6325 8.6875 4.3125 C7.6975 4.6425 6.7075 4.9725 5.6875 5.3125 C7.3375 5.6425 8.9875 5.9725 10.6875 6.3125 C13.09853099 14.27410592 13.09853099 14.27410592 11.5 18.3125 C9.6875 20.3125 9.6875 20.3125 6.6875 21.3125 C0.88315126 20.2483694 -3.32409974 18.43025016 -8.3125 15.3125 C-8.65900743 9.65287856 -7.79305609 6.27361218 -5.3125 1.3125 C-3.74308802 -0.25691198 -2.17115006 0.0675153 0 0 Z " fill="#A44752" transform="translate(311.3125,51.6875)"/>
<path d="M0 0 C2.2223376 3.3335064 2.19951766 3.61239497 1.5390625 7.296875 C1.39670166 8.16135254 1.25434082 9.02583008 1.10766602 9.91650391 C0.94838623 10.85155762 0.78910645 11.78661133 0.625 12.75 C-2.23484378 31.71429009 -1.7629057 49.41294884 3 68 C3.31195313 69.25941406 3.62390625 70.51882812 3.9453125 71.81640625 C5.83022375 78.65118948 8.37302612 84.55339074 13 90 C16.09173752 91.54586876 18.59429552 91.29359521 22 91 C24.77415582 88.90421874 25.8627917 87.69095058 26.54589844 84.25097656 C26.57731934 82.71135254 26.57731934 82.71135254 26.609375 81.140625 C26.64160156 80.02558594 26.67382812 78.91054687 26.70703125 77.76171875 C26.72121094 76.60285156 26.73539063 75.44398438 26.75 74.25 C26.79447266 72.48849609 26.79447266 72.48849609 26.83984375 70.69140625 C26.91050727 67.79420178 26.96322266 64.89780045 27 62 C27.99 62.33 28.98 62.66 30 63 C30.65548623 85.50502711 30.65548623 85.50502711 25.65625 91.65234375 C23.04632781 93.77598327 20.70683933 94.06257047 17.40625 94.29296875 C13.55919462 93.82457727 11.53855412 92.16788447 8.84765625 89.4609375 C-5.23606612 70.70249121 -6.19915671 40.85107392 -3.60302734 18.59716797 C-2.64784707 12.34397113 -1.39705579 6.16825078 0 0 Z " fill="#884645" transform="translate(198,158)"/>
<path d="M0 0 C0.33 0 0.66 0 1 0 C1.02727678 2.97923003 1.04697128 5.95820379 1.0625 8.9375 C1.07087891 9.76830078 1.07925781 10.59910156 1.08789062 11.45507812 C1.10706207 16.38213912 0.84427855 21.11817408 0.11889648 25.99438477 C-0.01182339 28.1994438 0.36345808 29.89578523 1 32 C1.66 31.01 2.32 30.02 3 29 C2.34 28.34 1.68 27.68 1 27 C5.31586125 24.83794331 8.55243225 24.93013386 13.3125 25.375 C14.56675781 25.48585938 15.82101562 25.59671875 17.11328125 25.7109375 C18.06589844 25.80632812 19.01851563 25.90171875 20 26 C20 26.66 20 27.32 20 28 C21.62449243 29.70779973 23.29220027 31.37550757 25 33 C26 34 26 34 26.09765625 36.28515625 C26.08605469 37.20167969 26.07445312 38.11820313 26.0625 39.0625 C26.05347656 39.98160156 26.04445313 40.90070313 26.03515625 41.84765625 C26.02355469 42.55792969 26.01195312 43.26820312 26 44 C25.67 44 25.34 44 25 44 C24.91363281 43.32453125 24.82726562 42.6490625 24.73828125 41.953125 C23.86738495 36.20852741 23.86738495 36.20852741 20.75 31.4375 C17.64278699 29.81327502 15.52031352 29 12 29 C9.68721883 30.72937829 9.68721883 30.72937829 8 33 C7.34 33.66 6.68 34.32 6 35 C6.75 30.25 6.75 30.25 9 28 C8.01 27.67 7.02 27.34 6 27 C5.7525 27.5775 5.505 28.155 5.25 28.75 C3.83316683 31.3002997 2.12372463 33.01785701 0 35 C-0.99 34.505 -0.99 34.505 -2 34 C-2.625 31.9375 -2.625 31.9375 -3 30 C-3.99 31.65 -4.98 33.3 -6 35 C-7.45903258 34.69078116 -8.91720722 34.37751201 -10.375 34.0625 C-11.18710938 33.88847656 -11.99921875 33.71445313 -12.8359375 33.53515625 C-15 33 -15 33 -17 32 C-17.31453125 32.54269531 -17.6290625 33.08539063 -17.953125 33.64453125 C-22.54848881 41.32654003 -22.54848881 41.32654003 -26 43 C-29.99465578 43.6078824 -31.69183037 43.17186383 -35.25 41.1875 C-38 39 -38 39 -40 36 C-39.67 35.01 -39.34 34.02 -39 33 C-38.38125 33.969375 -37.7625 34.93875 -37.125 35.9375 C-35.34321154 39.02835362 -35.34321154 39.02835362 -33 40 C-28.94944183 40.41591713 -28.94944183 40.41591713 -25 40 C-22.11683926 37.14960245 -21.62118027 34.84486398 -21.4375 30.875 C-21.20904836 26.20904836 -21.20904836 26.20904836 -19 24 C-18.95875 24.598125 -18.9175 25.19625 -18.875 25.8125 C-18.12260099 28.35100832 -18.12260099 28.35100832 -14.9375 29.75 C-13.968125 30.1625 -12.99875 30.575 -12 31 C-12.28875 30.40574219 -12.5775 29.81148437 -12.875 29.19921875 C-15.83132855 22.59880466 -16.49198203 17.18840417 -16 10 C-15.67 10 -15.34 10 -15 10 C-14.81824219 11.10859375 -14.63648438 12.2171875 -14.44921875 13.359375 C-14.19589596 14.82301777 -13.9419573 16.28655404 -13.6875 17.75 C-13.56955078 18.47960937 -13.45160156 19.20921875 -13.33007812 19.9609375 C-12.59596685 24.10207801 -11.81901002 26.74668872 -9 30 C-9 30.66 -9 31.32 -9 32 C-8.34 32 -7.68 32 -7 32 C-6.56880859 30.91138672 -6.56880859 30.91138672 -6.12890625 29.80078125 C-5.43475987 28.07862569 -4.71816513 26.36507389 -3.96484375 24.66796875 C-0.58784868 16.5143875 -0.21843593 8.70467194 0 0 Z " fill="#822C2F" transform="translate(249,73)"/>
<path d="M0 0 C2.71106228 1.29289934 5.12707056 2.74654238 7.59375 4.453125 C12.31275859 7.42872208 17.08866063 8.59320005 22.5 9.75 C23.84771484 10.06130859 23.84771484 10.06130859 25.22265625 10.37890625 C36.12427674 12.83851495 46.74346406 13.27652928 57.88476562 13.60546875 C59.01205078 13.64285156 60.13933594 13.68023437 61.30078125 13.71875 C62.32341064 13.74904297 63.34604004 13.77933594 64.3996582 13.81054688 C67 14 67 14 70 15 C72.15690772 14.35446415 72.15690772 14.35446415 74.375 13.25 C75.56029297 12.693125 75.56029297 12.693125 76.76953125 12.125 C79.26099428 10.86836015 81.65496206 9.51292771 84 8 C83.20171199 15.82322246 80.46932996 21.68129212 76 28 C79.46941546 27.54177532 82.67395049 27.10868317 86 26 C86.495 26.99 86.495 26.99 87 28 C84.89748139 28.67184618 82.79292237 29.33730968 80.6875 30 C79.51574219 30.37125 78.34398437 30.7425 77.13671875 31.125 C74 32 74 32 71 32 C72.42026418 28.96735861 74.11870463 26.3472687 76.0625 23.625 C78.4675582 20.08470751 79.77601535 17.36770059 80 13 C78.88625 13.639375 77.7725 14.27875 76.625 14.9375 C71.85354302 17.35743248 67.28755567 17.7832969 62 18 C62 17.34 62 16.68 62 16 C61.02728149 16.02356567 61.02728149 16.02356567 60.03491211 16.04760742 C47.26538614 16.31554701 35.41697016 16.28448888 23 13 C22.11441406 12.78730469 21.22882813 12.57460937 20.31640625 12.35546875 C18.53844244 11.92715511 16.76767379 11.46897468 15 11 C15.81163009 12.95869403 16.62433101 14.91694436 17.4375 16.875 C17.88996094 17.96554688 18.34242188 19.05609375 18.80859375 20.1796875 C19.49543463 21.80558624 20.21065887 23.42131774 21 25 C15.46153846 24.38461538 15.46153846 24.38461538 13.125 22.4375 C12.75375 21.963125 12.3825 21.48875 12 21 C13.32 21 14.64 21 16 21 C15.7834375 20.38511719 15.566875 19.77023438 15.34375 19.13671875 C15.0653125 18.32847656 14.786875 17.52023438 14.5 16.6875 C14.2215625 15.88699219 13.943125 15.08648437 13.65625 14.26171875 C13 12 13 12 13 9 C11.96875 8.814375 10.9375 8.62875 9.875 8.4375 C5.13325738 7.13376221 2.80690201 3.84535293 0 0 Z " fill="#80302F" transform="translate(195,128)"/>
<path d="M0 0 C0.59683594 0.50144531 1.19367188 1.00289062 1.80859375 1.51953125 C2.86046875 2.01453125 3.91234375 2.50953125 4.99609375 3.01953125 C7.80859375 4.51953125 7.80859375 4.51953125 8.80859375 7.51953125 C8.14859375 8.50953125 7.48859375 9.49953125 6.80859375 10.51953125 C5.63296875 9.03453125 5.63296875 9.03453125 4.43359375 7.51953125 C-1.21845861 2.60873166 -9.08779519 3.85868578 -16.11132812 4.328125 C-19.95629379 4.68193405 -23.49342155 5.42383208 -27.19140625 6.51953125 C-22.30884498 1.16917968 -15.03986945 1.10964826 -8.19140625 0.51953125 C-13.35208637 -0.52429564 -18.3257307 -0.66384872 -23.56640625 -0.66796875 C-24.37851563 -0.68021484 -25.190625 -0.69246094 -26.02734375 -0.70507812 C-31.41690571 -0.7180338 -36.01413128 0.01395588 -41.19140625 1.51953125 C-39.54140625 3.49953125 -37.89140625 5.47953125 -36.19140625 7.51953125 C-36.78953125 7.21015625 -37.38765625 6.90078125 -38.00390625 6.58203125 C-42.74514882 4.279142 -47.00537938 3.97968886 -52.19140625 4.51953125 C-55.52584569 5.9767701 -55.52584569 5.9767701 -58.19140625 7.51953125 C-58.85140625 7.18953125 -59.51140625 6.85953125 -60.19140625 6.51953125 C-55.7292269 3.02214744 -51.58660048 1.58881936 -46.09765625 0.24609375 C-43.22436777 -0.43507888 -43.22436777 -0.43507888 -40.59765625 -1.33203125 C-30.21465164 -4.67836105 -9.53274396 -6.44012471 0 0 Z " fill="#DB8CA2" transform="translate(273.19140625,29.48046875)"/>
<path d="M0 0 C0.66 0.33 1.32 0.66 2 1 C1.05125 1.86625 0.1025 2.7325 -0.875 3.625 C-9.5455795 12.34781191 -15.79766843 23.1656243 -22.08691406 33.64404297 C-26.133871 40.34110397 -30.45504257 46.45504257 -36 52 C-33.03 52.33 -30.06 52.66 -27 53 C-27.06960937 55.22943359 -27.06960937 55.22943359 -27.140625 57.50390625 C-27.37044041 68.26287224 -27.25720929 77.79865011 -23.77734375 88.0390625 C-22.95590075 91.16797603 -23.09315981 92.93157218 -24 96 C-30.57319242 84.27484596 -32.03714968 67.91405923 -29 55 C-30.0725 55.020625 -31.145 55.04125 -32.25 55.0625 C-35.14790424 55.0142016 -37.28612141 54.86844115 -40 54 C-38.60399968 50.77086796 -37.00034555 48.93655923 -34.375 46.625 C-30.36212191 42.72038301 -27.81505586 38.52154963 -25.13549805 33.63183594 C-18.22976087 21.06023642 -10.14290971 10.14290971 0 0 Z " fill="#7C2525" transform="translate(211,37)"/>
<path d="M0 0 C5.53014363 2.22874323 7.45919398 6.86345161 10 12 C18.47918281 31.999176 21.76797823 58.86181834 14.12109375 79.35546875 C11.19152725 86.4771346 7.45280015 93.57760679 1 98 C0.34 97.67 -0.32 97.34 -1 97 C-0.32904297 96.41605469 -0.32904297 96.41605469 0.35546875 95.8203125 C10.44000431 86.48835422 14.94206263 72.48870151 16 59 C15.34 58.67 14.68 58.34 14 58 C14.33 57.34 14.66 56.68 15 56 C15.53314816 49.12379827 14.65600155 42.54074063 13.3125 35.8125 C13.13460938 34.90556396 12.95671875 33.99862793 12.7734375 33.06420898 C10.64866488 22.68304618 8.15796072 12.77384241 2 4 C1.30570621 2.6808418 0.62469505 1.35350594 0 0 Z " fill="#8D3237" transform="translate(263,44)"/>
<path d="M0 0 C1.89510699 -0.08160748 3.79124504 -0.13946459 5.6875 -0.1875 C6.74324219 -0.22230469 7.79898437 -0.25710937 8.88671875 -0.29296875 C12.35422768 0.03333385 14.18432448 1.00969875 17 3 C16.49835154 6.7121986 15.96674814 8.65606806 13 11 C9.91169014 11.74605238 7.09997667 11.67202292 4 11 C1.36758488 9.22134114 0.63012158 7.87988146 -1 5 C-0.6171875 2.29296875 -0.6171875 2.29296875 0 0 Z " fill="#CCA1F6" transform="translate(256,114)"/>
<path d="M0 0 C-0.08507812 1.92585937 -0.08507812 1.92585937 -0.171875 3.890625 C-0.167711 9.20804704 1.08621903 13.73466025 2.75 18.75 C3.00265625 19.57371094 3.2553125 20.39742187 3.515625 21.24609375 C4.98464301 25.80739467 6.37465719 29.68787615 10 33 C12.5802226 33.60003615 12.5802226 33.60003615 15.25 33.3125 C16.14203125 33.26738281 17.0340625 33.22226563 17.953125 33.17578125 C18.62859375 33.11777344 19.3040625 33.05976563 20 33 C19.67 33.99 19.34 34.98 19 36 C9.90403338 36.30319889 9.90403338 36.30319889 7 34 C3.01198386 29.00381339 0.8878927 24.64484577 -0.75 18.5 C-0.95753906 17.77941406 -1.16507812 17.05882812 -1.37890625 16.31640625 C-2.61852362 11.89377138 -3.44813779 7.55886171 -4 3 C-4.5458374 3.16081055 -5.0916748 3.32162109 -5.65405273 3.48730469 C-10.3693075 4.51780058 -15.25530756 4.22741777 -20.0625 4.25 C-21.71475586 4.2809375 -21.71475586 4.2809375 -23.40039062 4.3125 C-24.98303711 4.32023438 -24.98303711 4.32023438 -26.59765625 4.328125 C-27.56195557 4.3374707 -28.52625488 4.34681641 -29.51977539 4.35644531 C-32.38130358 3.94520098 -33.24378508 3.23538383 -35 1 C-34.46246094 1.16113281 -33.92492187 1.32226562 -33.37109375 1.48828125 C-25.03626041 3.28706736 -16.15246602 1.92744388 -7.875 0.4375 C-5.19440998 0.02958413 -2.70538998 -0.07957029 0 0 Z " fill="#823B39" transform="translate(260,218)"/>
<path d="M0 0 C0.99 0.66 1.98 1.32 3 2 C2.65447612 4.55687669 2.24912987 6.57501375 0.9375 8.8125 C-2.22540658 10.75105565 -5.45859365 10.62129936 -9 10 C-12.38186376 8.0572272 -13.70264591 7.00642921 -14.8125 3.25 C-14.874375 2.5075 -14.93625 1.765 -15 1 C-10.17155748 -1.73611743 -5.25512513 -1.10446698 0 0 Z " fill="#CBA1F4" transform="translate(225,104)"/>
<path d="M0 0 C0.33 0 0.66 0 1 0 C1.94508759 8.52666816 2.21451041 16.98732867 2.25 25.5625 C2.270625 26.81224609 2.29125 28.06199219 2.3125 29.34960938 C2.34845552 37.90252827 1.75523106 45.53462552 -2.8125 52.9375 C-5.33324506 55.31420249 -7.83138605 56.63173489 -11 58 C-9.85667594 55.19365913 -8.73670359 53.74986841 -6.5 51.625 C-2.08296368 46.98711187 -1.75388165 42.27125508 -1.875 36.0546875 C-1.88257324 35.40355988 -1.89014648 34.75243225 -1.89794922 34.08157349 C-1.93021032 31.32748745 -1.98604608 28.5740248 -2.04101562 25.8203125 C-2.20137029 17.00924544 -1.83140779 8.65217542 0 0 Z " fill="#7C3231" transform="translate(291,195)"/>
<path d="M0 0 C0.33 0.66 0.66 1.32 1 2 C0.21142578 3.83178711 0.21142578 3.83178711 -1.0546875 6.02734375 C-1.72951172 7.21553711 -1.72951172 7.21553711 -2.41796875 8.42773438 C-3.13919922 9.67006836 -3.13919922 9.67006836 -3.875 10.9375 C-4.81207774 12.57036435 -5.74706396 14.20443125 -6.6796875 15.83984375 C-7.09976074 16.56550537 -7.51983398 17.29116699 -7.95263672 18.03881836 C-9.13110021 20.1133634 -9.13110021 20.1133634 -10 23 C-7.69 23.33 -5.38 23.66 -3 24 C-3 19.38 -3 14.76 -3 10 C-2.67 10 -2.34 10 -2 10 C-1.96261719 10.88042969 -1.92523438 11.76085937 -1.88671875 12.66796875 C-1.78810547 14.41013672 -1.78810547 14.41013672 -1.6875 16.1875 C-1.62949219 17.33605469 -1.57148438 18.48460938 -1.51171875 19.66796875 C-0.76192978 24.55018244 1.37820983 27.72314223 5 31 C4.67 31.99 4.34 32.98 4 34 C3.21625 33.195625 2.4325 32.39125 1.625 31.5625 C-1.53348931 28.47921282 -2.04883954 28.03458765 -6.4375 27.875 C-9.9630948 27.8306057 -9.9630948 27.8306057 -13 29 C-13.33 31.64 -13.66 34.28 -14 37 C-14.33 37 -14.66 37 -15 37 C-15.33 35.02 -15.66 33.04 -16 31 C-17.485 32.485 -17.485 32.485 -19 34 C-19.66 33.67 -20.32 33.34 -21 33 C-19.71034824 31.62437146 -18.37310707 30.29233607 -17 29 C-16.34 29 -15.68 29 -15 29 C-14.67 27.35 -14.34 25.7 -14 24 C-14.66 23.67 -15.32 23.34 -16 23 C-15.01 22.67 -14.02 22.34 -13 22 C-11.40899614 19.45966787 -9.96396458 16.95399167 -8.5625 14.3125 C-5.90062507 9.37927817 -3.18963815 4.6137135 0 0 Z " fill="#751D1E" transform="translate(224,65)"/>
<path d="M0 0 C3.63 0 7.26 0 11 0 C11.125 10.625 11.125 10.625 10 14 C4.06 12.515 4.06 12.515 -2 11 C-1.34 7.37 -0.68 3.74 0 0 Z " fill="#F9F6F5" transform="translate(332,62)"/>
<path d="M0 0 C0.33 0 0.66 0 1 0 C1.22823248 9.28145408 0.90427108 17.86970027 -1 27 C5.87249799 20.33641956 5.87249799 20.33641956 12 13 C12 14.32 12 15.64 12 17 C11.34 17 10.68 17 10 17 C9.835 17.680625 9.67 18.36125 9.5 19.0625 C7.61630633 22.75140011 5.13458028 24.73928134 1.97265625 27.3515625 C-1.25204292 30.04626161 -2.87387302 31.72906057 -4.6875 35.625 C-7.17540636 40.8739946 -11.02327651 44.83023168 -15 49 C-15.66 48.67 -16.32 48.34 -17 48 C-16.55269531 47.55011719 -16.10539062 47.10023438 -15.64453125 46.63671875 C-4.03512527 34.28470685 -0.72773308 16.51954084 0 0 Z " fill="#741B1B" transform="translate(298,106)"/>
<path d="M0 0 C3.8690534 0.38690534 6.67758437 0.82589556 10.125 2.6875 C12.8852248 4.31913009 12.8852248 4.31913009 15.5 3.3125 C16.325 2.879375 17.15 2.44625 18 2 C27.9507174 -2.16541659 37.27557787 0.22983634 47 4 C52.56409546 6.98076542 57.94074155 11.82222464 60 18 C59.70763193 19.34291094 59.37829212 20.67871882 59 22 C58.64808594 21.34773438 58.29617188 20.69546875 57.93359375 20.0234375 C53.34032169 11.8922666 48.74190824 6.12682905 39.52734375 3.46484375 C32.42616019 2.1587528 24.69397907 2.13115183 18 5 C15.20754907 7.45817955 15.20754907 7.45817955 13 10 C12.01 10.495 12.01 10.495 11 11 C11 9.35 11 7.7 11 6 C10.18595703 5.60167969 10.18595703 5.60167969 9.35546875 5.1953125 C8.64003906 4.84210937 7.92460937 4.48890625 7.1875 4.125 C6.47980469 3.77695312 5.77210938 3.42890625 5.04296875 3.0703125 C3 2 3 2 0 0 Z " fill="#88393A" transform="translate(270,29)"/>
<path d="M0 0 C3.2701997 5.48549627 5.15781066 9.26887494 5.0625 15.75 C5.05347656 16.54921875 5.04445313 17.3484375 5.03515625 18.171875 C5.02355469 18.77515625 5.01195312 19.3784375 5 20 C2.3244039 18.66220195 2.20144335 17.37393383 1.125 14.625 C-0.88050406 9.87856351 -0.88050406 9.87856351 -5 7 C-8.65274469 6.27518916 -8.65274469 6.27518916 -12 6 C-9.40401988 0.00927665 -6.20086134 -0.23399477 0 0 Z " fill="#F69EC0" transform="translate(321,44)"/>
<path d="M0 0 C0.66 0 1.32 0 2 0 C1.9175 1.051875 1.835 2.10375 1.75 3.1875 C1.74875284 6.94177955 1.74875284 6.94177955 3.375 9.75 C7.1387241 12.97604923 11.23725049 13.88202636 16 15 C14 18 14 18 11.86328125 18.43359375 C5.67250839 18.44307426 2.09658364 17.54544949 -3 14 C-3.34615998 8.34605369 -2.43425238 4.96993194 0 0 Z " fill="#F8A1C4" transform="translate(306,53)"/>
<path d="M0 0 C0.66 0.33 1.32 0.66 2 1 C1.01 2.32 0.02 3.64 -1 5 C0.03125 4.896875 1.0625 4.79375 2.125 4.6875 C5.98501845 4.99879181 7.80319749 5.59461296 10.64453125 8.22265625 C13.31091438 11.71892231 14.63330017 15.85970346 16 20 C15.01 20 14.02 20 13 20 C12.34 17.69 11.68 15.38 11 13 C8.69 13 6.38 13 4 13 C6 11 6 11 9 10 C5.79619983 7.86413322 4.98060033 7.76867825 1.3125 7.875 C0.10013672 7.90207031 0.10013672 7.90207031 -1.13671875 7.9296875 C-1.75160156 7.95289063 -2.36648438 7.97609375 -3 8 C-5.22656164 12.74354436 -6.46148032 16.72250715 -7 22 C-6.2575 22.28875 -5.515 22.5775 -4.75 22.875 C-2 24 -2 24 -0.0625 25.0625 C2.57505571 26.26138896 5.14204094 26.61027831 8 27 C8 27.33 8 27.66 8 28 C1.6563085 28.6748608 -2.93914061 26.91675472 -8 23 C-9.26171875 20.828125 -9.26171875 20.828125 -10 19 C-9.34 19 -8.68 19 -8 19 C-7.979375 17.72125 -7.95875 16.4425 -7.9375 15.125 C-7.30636476 8.92212394 -3.79529072 4.74659074 0 0 Z " fill="#953940" transform="translate(310,45)"/>
<path d="M0 0 C0.47959778 2.22907395 0.9586608 4.45826297 1.4375 6.6875 C1.83775391 8.54955078 1.83775391 8.54955078 2.24609375 10.44921875 C2.70031381 12.58852461 3.12020375 14.73612381 3.47265625 16.89453125 C3.73369141 17.93673828 3.73369141 17.93673828 4 19 C4.66 19.33 5.32 19.66 6 20 C2.7 19.67 -0.6 19.34 -4 19 C-4 13.06 -4 7.12 -4 1 C-2 0 -2 0 0 0 Z " fill="#9E92BE" transform="translate(318,89)"/>
<path d="M0 0 C0.495 0.99 0.495 0.99 1 2 C0.0821875 2.04898437 -0.835625 2.09796875 -1.78125 2.1484375 C-8.42864086 2.5534256 -14.61387859 3.08416358 -21 5 C-19.35 6.98 -17.7 8.96 -16 11 C-16.598125 10.690625 -17.19625 10.38125 -17.8125 10.0625 C-22.55374257 7.75961075 -26.81397313 7.46015761 -32 8 C-35.33443944 9.45723885 -35.33443944 9.45723885 -38 11 C-38.66 10.67 -39.32 10.34 -40 10 C-35.54213016 6.50599391 -31.40326031 5.07468699 -25.921875 3.7265625 C-24.02229699 3.25420754 -22.13451794 2.73046416 -20.265625 2.1484375 C-13.39562562 0.02390012 -7.16802218 -0.33776021 0 0 Z " fill="#853031" transform="translate(253,26)"/>
<path d="M0 0 C2.64 0 5.28 0 8 0 C8.97313546 3.41188193 9.00164617 6.44373136 8.88500977 9.99145508 C8.61679184 18.577138 9.5569976 25.70475023 12.22265625 33.86328125 C13.01864478 37.07523498 12.9349289 38.86593015 12 42 C5.42680758 30.27484596 3.96285032 13.91405923 7 1 C4.69 1 2.38 1 0 1 C0 0.67 0 0.34 0 0 Z " fill="#883737" transform="translate(175,91)"/>
<path d="M0 0 C0.66 2.64 1.32 5.28 2 8 C-3.39449293 8.27429625 -6.51925805 8.36055646 -11 5 C-10.03558469 2.58896173 -9.31202953 1.22595242 -7.1875 -0.3125 C-4.45808824 -1.17031512 -2.72321308 -0.75644808 0 0 Z " fill="#FBA3C7" transform="translate(322,58)"/>
<path d="M0 0 C1.21816406 0.03480469 1.21816406 0.03480469 2.4609375 0.0703125 C3.68683594 0.09738281 3.68683594 0.09738281 4.9375 0.125 C5.87722656 0.15980469 5.87722656 0.15980469 6.8359375 0.1953125 C6.8359375 0.8553125 6.8359375 1.5153125 6.8359375 2.1953125 C6.1759375 2.8553125 5.5159375 3.5153125 4.8359375 4.1953125 C6.1559375 4.5253125 7.4759375 4.8553125 8.8359375 5.1953125 C6.05395508 7.8136489 4.49899205 9.11730608 0.6484375 9.5703125 C-2.1640625 9.1953125 -2.1640625 9.1953125 -4.1640625 7.1953125 C-4.4140625 4.6953125 -4.4140625 4.6953125 -4.1640625 2.1953125 C-2.1640625 0.1953125 -2.1640625 0.1953125 0 0 Z " fill="#9D96C6" transform="translate(306.1640625,82.8046875)"/>
<path d="M0 0 C1 3 1 3 -0.07421875 5.453125 C-0.60660156 6.37609375 -1.13898438 7.2990625 -1.6875 8.25 C-2.52861328 9.72726563 -2.52861328 9.72726563 -3.38671875 11.234375 C-3.91910156 12.14703125 -4.45148438 13.0596875 -5 14 C-5.66744499 15.16622157 -6.33424881 16.33281068 -7 17.5 C-7.30421875 18.02722656 -7.6084375 18.55445312 -7.921875 19.09765625 C-10.34053057 23.36535648 -12.66093466 27.68832289 -15 32 C-17.41445371 28.97060499 -18.46292236 26.86695903 -19 23 C-17.68 24.32 -16.36 25.64 -15 27 C-14.50371094 25.97261719 -14.00742187 24.94523437 -13.49609375 23.88671875 C-9.43782052 15.57730385 -5.19737659 7.66613047 0 0 Z " fill="#762827" transform="translate(340,100)"/>
<path d="M0 0 C3.1948843 4.0849547 5.5243672 8.45018836 8 13 C4.04 13 0.08 13 -4 13 C-3.52511102 11.01980257 -3.04497141 9.04086365 -2.5625 7.0625 C-2.29566406 5.96035156 -2.02882813 4.85820313 -1.75390625 3.72265625 C-1 1 -1 1 0 0 Z " fill="#EFE6E5" transform="translate(261,84)"/>
<path d="M0 0 C0.99 0.33 1.98 0.66 3 1 C3.57446809 20.72340426 3.57446809 20.72340426 0 28 C-2.1875 30.0625 -2.1875 30.0625 -4 31 C-4.33 30.34 -4.66 29.68 -5 29 C-4.35256836 28.46084961 -3.70513672 27.92169922 -3.03808594 27.36621094 C-0.51110563 24.43239527 -0.46869994 22.96629682 -0.390625 19.140625 C-0.35839844 18.02558594 -0.32617188 16.91054687 -0.29296875 15.76171875 C-0.27169922 14.02341797 -0.27169922 14.02341797 -0.25 12.25 C-0.22035156 11.07566406 -0.19070312 9.90132812 -0.16015625 8.69140625 C-0.08949273 5.79420178 -0.03677734 2.89780045 0 0 Z " fill="#965857" transform="translate(225,220)"/>
<path d="M0 0 C2.43583532 3.65375298 2.05583909 4.52944843 1.35546875 8.7421875 C1.17306641 9.89203125 0.99066406 11.041875 0.80273438 12.2265625 C0.59970703 13.43054688 0.39667969 14.63453125 0.1875 15.875 C-1.29750726 24.91504421 -2.44712601 33.85141045 -3 43 C-3.33 43 -3.66 43 -4 43 C-4.54634047 28.15775051 -3.15945493 14.50954469 0 0 Z " fill="#7B2F2E" transform="translate(198,158)"/>
<path d="M0 0 C3.61260785 0.30105065 4.74509577 0.70868088 7.1875 3.5 C8.0846875 4.7375 8.0846875 4.7375 9 6 C9.66 6.33 10.32 6.66 11 7 C10.49396008 9.16874252 10.00016187 10.99967627 9 13 C8.01 13 7.02 13 6 13 C4.39453125 10.91796875 4.39453125 10.91796875 2.8125 8.1875 C2.28269531 7.29417969 1.75289063 6.40085937 1.20703125 5.48046875 C0 3 0 3 0 0 Z " fill="#9C95C4" transform="translate(321,87)"/>
<path d="M0 0 C0.66 0 1.32 0 2 0 C4.41000433 3.78856648 4.46351195 7.77406039 4.8125 12.125 C5.494021 19.26572396 7.06326503 24.88453766 11 31 C10.34 31.33 9.68 31.66 9 32 C7.35 29.03 5.7 26.06 4 23 C3.34 25.31 2.68 27.62 2 30 C1.34 30 0.68 30 0 30 C0.33 28.824375 0.66 27.64875 1 26.4375 C2.92477239 17.77602425 3.22401693 8.32871041 0 0 Z " fill="#923C40" transform="translate(257,62)"/>
<path d="M0 0 C0 1.98 0 3.96 0 6 C-0.66 4.68 -1.32 3.36 -2 2 C-2.5458374 2.16081055 -3.0916748 2.32162109 -3.65405273 2.48730469 C-8.3693075 3.51780058 -13.25530756 3.22741777 -18.0625 3.25 C-19.71475586 3.2809375 -19.71475586 3.2809375 -21.40039062 3.3125 C-22.98303711 3.32023438 -22.98303711 3.32023438 -24.59765625 3.328125 C-25.56195557 3.3374707 -26.52625488 3.34681641 -27.51977539 3.35644531 C-30.38130358 2.94520098 -31.24378508 2.23538383 -33 0 C-32.46246094 0.16113281 -31.92492187 0.32226562 -31.37109375 0.48828125 C-22.95495818 2.30461364 -14.02284298 0.90036061 -5.6796875 -0.66015625 C-3 -1 -3 -1 0 0 Z " fill="#6D1817" transform="translate(258,219)"/>
<path d="M0 0 C0.09765625 6.15234375 0.09765625 6.15234375 0 8 C-1 9 -1 9 -2.84765625 9.09765625 C-4.8984375 9.06510417 -6.94921875 9.03255208 -9 9 C-7.68 8.34 -6.36 7.68 -5 7 C-6.65 6.67 -8.3 6.34 -10 6 C-9.01958581 3.54896452 -8.3486182 2.23241214 -6.125 0.75 C-4 0 -4 0 0 0 Z " fill="#9E98C9" transform="translate(331,76)"/>
<path d="M0 0 C0.33 0 0.66 0 1 0 C1 1.98 1 3.96 1 6 C2.98 6 4.96 6 7 6 C6.01 6.495 6.01 6.495 5 7 C5.30035156 7.83144531 5.60070312 8.66289063 5.91015625 9.51953125 C6.48056641 11.14955078 6.48056641 11.14955078 7.0625 12.8125 C7.44535156 13.89144531 7.82820313 14.97039062 8.22265625 16.08203125 C9 19 9 19 8 22 C4.73154287 17.09731431 3.72055891 12.86826297 4 7 C2.68 7 1.36 7 0 7 C-0.12375 8.27875 -0.2475 9.5575 -0.375 10.875 C-0.75 14.75 -0.75 14.75 -3 17 C-2.48517081 11.147205 -1.54642808 5.6702363 0 0 Z " fill="#7E3434" transform="translate(313,102)"/>
<path d="M0 0 C4.05606165 0.46800711 7.46588679 0.87953208 11 3 C11.125 10.625 11.125 10.625 10 14 C9.34 14 8.68 14 8 14 C7.6596875 12.4221875 7.6596875 12.4221875 7.3125 10.8125 C6.19869179 6.82538947 4.07710928 4.76150833 1 2 C0.67 1.34 0.34 0.68 0 0 Z " fill="#F6F0EF" transform="translate(268,100)"/>
<path d="M0 0 C0.33 0 0.66 0 1 0 C1.15855469 0.96421875 1.31710938 1.9284375 1.48046875 2.921875 C1.71378906 4.18515625 1.94710937 5.4484375 2.1875 6.75 C2.51814453 8.62945312 2.51814453 8.62945312 2.85546875 10.546875 C4.58254374 15.75757224 7.61702388 17.26937111 12.3125 19.75 C13.199375 20.1625 14.08625 20.575 15 21 C15 21.33 15 21.66 15 22 C11.10386066 22.30557956 8.6914851 22.39288926 5.25 20.4375 C-0.02844114 14.71918876 -0.31745005 9.66025645 -0.10546875 2.16015625 C-0.07066406 1.44730469 -0.03585938 0.73445312 0 0 Z " fill="#6F1F1E" transform="translate(180,155)"/>
<path d="M0 0 C0.66 0 1.32 0 2 0 C2.47179687 1.32064453 2.47179687 1.32064453 2.953125 2.66796875 C3.59507812 4.41013672 3.59507812 4.41013672 4.25 6.1875 C4.66765625 7.33605469 5.0853125 8.48460937 5.515625 9.66796875 C7.01809525 13.04061907 8.39148921 15.39148921 11 18 C13.54975956 19.01244982 13.54975956 19.01244982 16.25 19.3125 C17.14203125 19.45300781 18.0340625 19.59351563 18.953125 19.73828125 C19.62859375 19.82464844 20.3040625 19.91101563 21 20 C19 22 19 22 16.375 22.5625 C11.19283785 21.69880631 8.32312133 18.97136882 5 15 C2.10972827 10.05519777 0 5.774399 0 0 Z " fill="#712121" transform="translate(200,230)"/>
<path d="M0 0 C8.84328984 3.60617762 15.70247996 8.5433899 19.5 17.5625 C19.7475 18.7690625 19.7475 18.7690625 20 20 C19.67 20 19.34 20 19 20 C18.67 22.31 18.34 24.62 18 27 C17.67 27 17.34 27 17 27 C16.99613281 26.07380859 16.99613281 26.07380859 16.9921875 25.12890625 C16.6673993 18.01604476 14.7077751 13.35372564 10 8 C6.53618766 5.24308814 3.16498857 3.46999597 -1 2 C-0.67 1.34 -0.34 0.68 0 0 Z " fill="#833D3B" transform="translate(296,135)"/>
<path d="M0 0 C0.33 0 0.66 0 1 0 C1.02578125 0.66386719 1.0515625 1.32773438 1.078125 2.01171875 C1.33897842 6.07273216 1.72635783 9.37808598 3.375 13.125 C7.57147359 16.12248113 12.00985217 15.38716664 17 15 C17.66 13.35 18.32 11.7 19 10 C19.33 10.99 19.66 11.98 20 13 C18.21653709 16.03188696 17.40424844 16.86525052 14 18 C8.99598565 18.37066773 6.01698676 18.09881835 2 15 C-0.35119399 11.47320901 -0.21443452 9.97120515 -0.125 5.8125 C-0.10695312 4.72582031 -0.08890625 3.63914062 -0.0703125 2.51953125 C-0.04710937 1.68808594 -0.02390625 0.85664062 0 0 Z " fill="#7B2A2D" transform="translate(254,109)"/>
<path d="M0 0 C2.75 -0.25 2.75 -0.25 6 0 C8.375 2 8.375 2 10 4 C9.45730469 4.19335938 8.91460937 4.38671875 8.35546875 4.5859375 C7.28232422 4.97652344 7.28232422 4.97652344 6.1875 5.375 C5.47980469 5.63023438 4.77210938 5.88546875 4.04296875 6.1484375 C1.75226641 7.0265769 1.75226641 7.0265769 -1 9 C-1.125 2.25 -1.125 2.25 0 0 Z " fill="#FAA3C7" transform="translate(310,52)"/>
<path d="M0 0 C2.95409701 1.37154504 5.44008376 2.98863724 8 5 C7.46930939 8.82097239 6.50298434 11.06171403 4 14 C2.25 13.875 2.25 13.875 0 13 C-2.25 9.9375 -2.25 9.9375 -4 7 C-3.67 6.34 -3.34 5.68 -3 5 C1 9.75 1 9.75 1 12 C1.99 12 2.98 12 4 12 C4.66 10.02 5.32 8.04 6 6 C5.38125 5.7525 4.7625 5.505 4.125 5.25 C1.64931313 3.79371361 1.04874998 2.62187494 0 0 Z " fill="#722627" transform="translate(326,88)"/>
<path d="M0 0 C3.70390021 2.02666238 5.65363011 3.48044516 8 7 C8.1953125 9.48046875 8.1953125 9.48046875 8.125 12.1875 C8.10695313 13.08855469 8.08890625 13.98960938 8.0703125 14.91796875 C8.04710937 15.60503906 8.02390625 16.29210937 8 17 C7.67 17 7.34 17 7 17 C6.91363281 16.32453125 6.82726562 15.6490625 6.73828125 14.953125 C5.86738495 9.20852741 5.86738495 9.20852741 2.75 4.4375 C-0.35721301 2.81327502 -2.47968648 2 -6 2 C-8.31278117 3.72937829 -8.31278117 3.72937829 -10 6 C-10.66 6.66 -11.32 7.32 -12 8 C-11.68306247 5.06832781 -11.36774166 3.41017339 -9.375 1.1875 C-6.00253484 -0.49873258 -3.73136685 -0.45033738 0 0 Z " fill="#702222" transform="translate(267,100)"/>
<path d="M0 0 C0.33 0 0.66 0 1 0 C1.19672365 1.72814161 1.38196799 3.45759197 1.5625 5.1875 C1.66691406 6.15042969 1.77132813 7.11335937 1.87890625 8.10546875 C1.99949746 10.98798776 1.60860062 13.19367492 1 16 C0.78301513 18.43505237 0.59709255 20.87301384 0.4375 23.3125 C0.35371094 24.56675781 0.26992188 25.82101563 0.18359375 27.11328125 C0.12300781 28.06589844 0.06242187 29.01851562 0 30 C-0.33 30 -0.66 30 -1 30 C-1.84698208 19.69886665 -2.41222458 10.16722757 0 0 Z " fill="#985552" transform="translate(291,195)"/>
<path d="M0 0 C1.5 1.0625 1.5 1.0625 3 3 C4.00212871 9.38857054 1.61222185 13.03319495 -2 18 C-2.66 17.67 -3.32 17.34 -4 17 C-3.79503906 16.443125 -3.59007812 15.88625 -3.37890625 15.3125 C-1.56121505 10.16382446 -0.49429453 5.43723984 0 0 Z " fill="#772524" transform="translate(314,154)"/>
<path d="M0 0 C0.66 3.63 1.32 7.26 2 11 C-3.75 10.125 -3.75 10.125 -6 9 C-5.63668534 5.73016809 -4.2451062 0 0 0 Z " fill="#F3EEED" transform="translate(220,79)"/>
<path d="M0 0 C1.90389849 2.85584773 2.69462177 4.9311762 3.625 8.1875 C4.01558594 9.53908203 4.01558594 9.53908203 4.4140625 10.91796875 C4.60742188 11.60503906 4.80078125 12.29210937 5 13 C5.56203125 12.67257813 6.1240625 12.34515625 6.703125 12.0078125 C9.26859964 10.88214506 10.96842277 10.7931889 13.75 10.875 C14.54921875 10.89304688 15.3484375 10.91109375 16.171875 10.9296875 C16.77515625 10.95289063 17.3784375 10.97609375 18 11 C17.67 11.66 17.34 12.32 17 13 C15.39125 12.938125 15.39125 12.938125 13.75 12.875 C10.23418706 12.99219376 8.92287789 13.32978407 6 15 C5.01 15 4.02 15 3 15 C2.67 15.66 2.34 16.32 2 17 C1.66151348 15.10507994 1.32943089 13.20901534 1 11.3125 C0.814375 10.25675781 0.62875 9.20101562 0.4375 8.11328125 C0.04931926 5.35095938 -0.08259976 2.78257957 0 0 Z " fill="#823E3D" transform="translate(289,147)"/>
<path d="M0 0 C1.134375 0.020625 2.26875 0.04125 3.4375 0.0625 C3.81968767 1.71864657 4.15145102 3.38707024 4.4375 5.0625 C4.1075 5.3925 3.7775 5.7225 3.4375 6.0625 C1.09805264 5.77519945 -1.2364143 5.44313221 -3.5625 5.0625 C-4.125 3.125 -4.125 3.125 -4.5625 1.0625 C-3.5625 0.0625 -3.5625 0.0625 0 0 Z " fill="#F0E8EB" transform="translate(217.5625,91.9375)"/>
<path d="M0 0 C5.48382249 2.13655422 7.39035058 7.01863977 10 12 C11.60045573 15.85564336 12.24504978 18.83415372 12 23 C10 22 10 22 8.88671875 19.0859375 C8.49097656 17.86132812 8.09523438 16.63671875 7.6875 15.375 C5.83557617 9.84585472 3.68500887 5.52729661 0 1 C0 0.67 0 0.34 0 0 Z " fill="#84282D" transform="translate(263,44)"/>
<path d="M0 0 C3.19629792 1.75083835 6.10361308 3.79322902 9 6 C5.75278769 6 3.83012642 5.05074478 0.91796875 3.734375 C-1.9858021 2.62254421 -4.92299626 2.31397997 -8 2 C-8 3.98 -8 5.96 -8 8 C-8.99 7.67 -9.98 7.34 -11 7 C-11 5 -11 5 -10 4 C-10.33 3.34 -10.66 2.68 -11 2 C-7.28717598 -0.37620737 -4.3381213 -0.56893394 0 0 Z " fill="#7B1E21" transform="translate(254,37)"/>
<path d="M0 0 C0.33 0.66 0.66 1.32 1 2 C0.02160156 2.04898438 -0.95679688 2.09796875 -1.96484375 2.1484375 C-9.16248379 2.55892238 -16.00303049 3.15869223 -23 5 C-16.94523113 -1.53843384 -8.25378823 -0.22341081 0 0 Z " fill="#903338" transform="translate(269,31)"/>
<path d="M0 0 C0.99 0.33 1.98 0.66 3 1 C2.95875 2.175625 2.9175 3.35125 2.875 4.5625 C2.8605387 8.66227781 3.83463473 12.06689221 5 16 C5.125 19.4375 5.125 19.4375 5 22 C1.19122714 18.19122714 0.1578731 12.37776214 -0.19140625 7.1171875 C-0.18801581 4.73710099 -0.13648821 2.37590585 0 0 Z " fill="#7C3433" transform="translate(257,218)"/>
<path d="M0 0 C0.66 0.33 1.32 0.66 2 1 C1.01 2.32 0.02 3.64 -1 5 C2.46941546 4.54177532 5.67395049 4.10868317 9 3 C9.33 3.66 9.66 4.32 10 5 C7.89748139 5.67184618 5.79292237 6.33730968 3.6875 7 C1.92986328 7.556875 1.92986328 7.556875 0.13671875 8.125 C-3 9 -3 9 -6 9 C-4.47291037 5.56404834 -2.40072955 2.88087546 0 0 Z " fill="#8E4244" transform="translate(272,151)"/>
<path d="M0 0 C1.47436523 0.07734375 1.47436523 0.07734375 2.97851562 0.15625 C4.00267578 0.22070312 5.02683594 0.28515625 6.08203125 0.3515625 C7.63567383 0.43664062 7.63567383 0.43664062 9.22070312 0.5234375 C11.77934396 0.66492916 14.33700609 0.81634116 16.89453125 0.9765625 C16.89453125 1.3065625 16.89453125 1.6365625 16.89453125 1.9765625 C13.85319336 2.17229217 10.81177062 2.35840166 7.76953125 2.5390625 C6.485625 2.62317383 6.485625 2.62317383 5.17578125 2.70898438 C0.57271266 2.97454602 -3.56366421 2.98171596 -8.10546875 1.9765625 C-4.7389507 -0.26778287 -3.88949887 -0.22482652 0 0 Z " fill="#965856" transform="translate(235.10546875,141.0234375)"/>
<path d="M0 0 C1 3 1 3 0.1796875 5.0859375 C-3.27721305 11.15103847 -6.5256162 15.94759495 -13 19 C-12.62488281 18.5875 -12.24976563 18.175 -11.86328125 17.75 C-7.02962313 12.29539336 -3.1949769 6.54970265 0 0 Z " fill="#7B2022" transform="translate(275,123)"/>
<path d="M0 0 C0.94875 0.04125 1.8975 0.0825 2.875 0.125 C2.875 0.455 2.875 0.785 2.875 1.125 C0.895 1.785 -1.085 2.445 -3.125 3.125 C-3.167721 4.79111905 -3.16563832 6.45882885 -3.125 8.125 C-2.14232141 9.33061184 -2.14232141 9.33061184 -0.27734375 9.22265625 C1.7734375 9.19010417 3.82421875 9.15755208 5.875 9.125 C4.75 10.625 4.75 10.625 2.875 12.125 C-0.1875 12.4375 -0.1875 12.4375 -3.125 12.125 C-5.125 10.125 -5.125 10.125 -5.390625 8.25 C-5.38546875 7.54875 -5.3803125 6.8475 -5.375 6.125 C-5.38015625 5.42375 -5.3853125 4.7225 -5.390625 4 C-4.88506733 0.43135764 -3.38047153 0.13521886 0 0 Z " fill="#78292F" transform="translate(306.125,81.875)"/>
<path d="M0 0 C1.12438477 0.08507812 1.12438477 0.08507812 2.27148438 0.171875 C4.11926559 0.31310669 5.966012 0.46776167 7.8125 0.625 C5.8125 2.625 5.8125 2.625 1.9375 2.8125 C-0.90210774 2.745382 -3.47266905 2.52994365 -6.1875 1.625 C-6.455625 2.223125 -6.72375 2.82125 -7 3.4375 C-8.17243467 5.59724808 -9.38119282 6.98290256 -11.1875 8.625 C-10.5275 6.975 -9.8675 5.325 -9.1875 3.625 C-9.8475 2.965 -10.5075 2.305 -11.1875 1.625 C-7.31959648 -0.95360235 -4.42136085 -0.38614505 0 0 Z " fill="#95504F" transform="translate(261.1875,98.375)"/>
<path d="M0 0 C1.05543251 3.18769143 0.97424908 4.94786631 -0.25 8.0625 C-0.62898438 9.06990234 -0.62898438 9.06990234 -1.015625 10.09765625 C-2 12 -2 12 -5 15 C-4.34 11.7 -3.68 8.4 -3 5 C-3.99 5 -4.98 5 -6 5 C-5.195625 4.360625 -4.39125 3.72125 -3.5625 3.0625 C-1.7249496 1.59396498 -1.7249496 1.59396498 0 0 Z " fill="#873336" transform="translate(278,136)"/>
<path d="M0 0 C0.33 0.99 0.66 1.98 1 3 C0.67 3.66 0.34 4.32 0 5 C1.15628906 4.96519531 1.15628906 4.96519531 2.3359375 4.9296875 C3.33882813 4.91164063 4.34171875 4.89359375 5.375 4.875 C6.37273437 4.85179688 7.37046875 4.82859375 8.3984375 4.8046875 C11 5 11 5 13 7 C8.05 7 3.1 7 -2 7 C-1 2 -1 2 0 0 Z " fill="#6B0C0B" transform="translate(257,92)"/>
<path d="M0 0 C2.28459758 2.28459758 2.97129748 4.12537344 4.125 7.125 C4.47820312 8.03507813 4.83140625 8.94515625 5.1953125 9.8828125 C5.46085938 10.58148438 5.72640625 11.28015625 6 12 C0.46153846 11.38461538 0.46153846 11.38461538 -1.875 9.4375 C-2.24625 8.963125 -2.6175 8.48875 -3 8 C-1.68 8 -0.36 8 1 8 C0.34 5.69 -0.32 3.38 -1 1 C-0.67 0.67 -0.34 0.34 0 0 Z " fill="#893D3F" transform="translate(210,141)"/>
<path d="M0 0 C1.6415049 3.2830098 0.51888624 6.42545033 0 10 C-1.98 9.01 -3.96 8.02 -6 7 C-4.02 4.69 -2.04 2.38 0 0 Z " fill="#F9F4F3" transform="translate(208,95)"/>
<path d="M0 0 C4.40114397 0.50298788 6.71195019 2.08772731 10 5 C9.34 6.32 8.68 7.64 8 9 C5.06799526 6.14723863 2.35684596 3.34920216 0 0 Z " fill="#E0CECD" transform="translate(326,86)"/>
<path d="M0 0 C3.34072178 1.38779449 4.90199421 2.81588196 6.8125 5.875 C7.25207031 6.55304687 7.69164062 7.23109375 8.14453125 7.9296875 C9.16843185 10.40762047 8.90457722 11.52489914 8 14 C7.03980636 12.41779413 6.08192202 10.83418669 5.125 9.25 C4.59132813 8.36828125 4.05765625 7.4865625 3.5078125 6.578125 C2.24403334 4.41725907 1.08501165 2.25429605 0 0 Z " fill="#7A292A" transform="translate(321,37)"/>
<path d="M0 0 C0.33 1.32 0.66 2.64 1 4 C0.34 4 -0.32 4 -1 4 C-1.20625 4.721875 -1.4125 5.44375 -1.625 6.1875 C-3.45248163 9.9255306 -5.70438806 11.49246917 -9 14 C-9 10.06111246 -7.71256133 9.26454258 -5.0625 6.4375 C-2.19301173 3.45371254 -2.19301173 3.45371254 0 0 Z " fill="#843A3A" transform="translate(309,119)"/>
<path d="M0 0 C1 3 1 3 0.07421875 5.2265625 C-0.38339844 6.01804687 -0.84101563 6.80953125 -1.3125 7.625 C-1.98732422 8.81996094 -1.98732422 8.81996094 -2.67578125 10.0390625 C-4 12 -4 12 -6 13 C-5.51675181 7.84535266 -2.81389239 4.18449681 0 0 Z " fill="#6D1F1E" transform="translate(340,100)"/>
<path d="M0 0 C1.48199902 0.44909061 2.96055236 0.90956564 4.4375 1.375 C5.26121094 1.63023437 6.08492187 1.88546875 6.93359375 2.1484375 C9 3 9 3 10 5 C3.375 5.25 3.375 5.25 0 3 C0 2.01 0 1.02 0 0 Z " fill="#6F1715" transform="translate(185,172)"/>
<path d="M0 0 C3.91402949 1.26941497 5.79072873 2.51167694 8 6 C6.68 5.34 5.36 4.68 4 4 C3.34 5.98 2.68 7.96 2 10 C0 8 0 8 -0.1953125 6.0546875 C-0.13020833 4.03645833 -0.06510417 2.01822917 0 0 Z " fill="#8D3337" transform="translate(199,143)"/>
<path d="M0 0 C2.67927341 4.01891012 2.15601248 6.24161923 2 11 C0 9 0 9 -0.4375 7 C-0.87458708 4.61359262 -0.87458708 4.61359262 -4 3 C-3.67 2.34 -3.34 1.68 -3 1 C-2.01 1.33 -1.02 1.66 0 2 C0 1.34 0 0.68 0 0 Z " fill="#905250" transform="translate(340,91)"/>
<path d="M0 0 C6.12096691 1.05486051 10.75506674 2.65217026 16 6 C15.34 6.66 14.68 7.32 14 8 C13.175 7.401875 12.35 6.80375 11.5 6.1875 C7.87707201 3.75199099 4.11583237 2.41925254 0 1 C0 0.67 0 0.34 0 0 Z " fill="#974D51" transform="translate(306,30)"/>
<path d="M0 0 C2.91387197 0.2913872 3.82565583 0.79452294 5.75 3.0625 C6.1625 3.701875 6.575 4.34125 7 5 C3 5 3 5 0.75 3 C0.1725 2.34 -0.405 1.68 -1 1 C-0.67 0.67 -0.34 0.34 0 0 Z " fill="#FAA6CA" transform="translate(315,35)"/>
<path d="M0 0 C0.33 0.66 0.66 1.32 1 2 C1.66 2 2.32 2 3 2 C2.25 4.875 2.25 4.875 1 8 C-0.98 8.99 -0.98 8.99 -3 10 C-2.01 6.7 -1.02 3.4 0 0 Z " fill="#701C1A" transform="translate(313,162)"/>
<path d="M0 0 C2 3 2 3 3 6 C2.01 6 1.02 6 0 6 C-0.66 6.66 -1.32 7.32 -2 8 C-2 6.02 -2 4.04 -2 2 C-2.66 1.67 -3.32 1.34 -4 1 C-2.68 0.67 -1.36 0.34 0 0 Z " fill="#8A525D" transform="translate(320,87)"/>
<path d="M0 0 C1.32 0 2.64 0 4 0 C3.67 1.65 3.34 3.3 3 5 C1.68 4.67 0.36 4.34 -1 4 C-0.67 2.68 -0.34 1.36 0 0 Z " fill="#A195C2" transform="translate(316,82)"/>
<path d="M0 0 C2.4375 0.8125 2.4375 0.8125 5 2 C5.33 2.99 5.66 3.98 6 5 C4.02 5 2.04 5 0 5 C0 3.35 0 1.7 0 0 Z " fill="#9D9ED3" transform="translate(315,102)"/>
<path d="M0 0 C0.99 0.33 1.98 0.66 3 1 C2.67 1.33 2.34 1.66 2 2 C3.98 2.66 5.96 3.32 8 4 C7.67 4.66 7.34 5.32 7 6 C2.545 5.01 2.545 5.01 -2 4 C-1.34 2.68 -0.68 1.36 0 0 Z " fill="#FAA5CA" transform="translate(311,46)"/>
<path d="M0 0 C0.86625 0.556875 0.86625 0.556875 1.75 1.125 C0.1 1.125 -1.55 1.125 -3.25 1.125 C-3.25 3.105 -3.25 5.085 -3.25 7.125 C-4.24 6.795 -5.23 6.465 -6.25 6.125 C-6.25 4.125 -6.25 4.125 -5.25 3.125 C-5.58 2.465 -5.91 1.805 -6.25 1.125 C-2.80384615 -1.09038462 -2.80384615 -1.09038462 0 0 Z " fill="#B4596A" transform="translate(249.25,37.875)"/>
<path d="M0 0 C1.32 0 2.64 0 4 0 C4 1.65 4 3.3 4 5 C2.68 5 1.36 5 0 5 C0 3.35 0 1.7 0 0 Z " fill="#F1E9E9" transform="translate(261,101)"/>
<path d="M0 0 C0.33 0 0.66 0 1 0 C1 3.33333333 1 6.66666667 1 10 C-0.65 8.35 -2.3 6.7 -4 5 C-3.525625 4.54625 -3.05125 4.0925 -2.5625 3.625 C-0.90972192 2.06741796 -0.90972192 2.06741796 0 0 Z " fill="#762D2D" transform="translate(332,80)"/>
<path d="M0 0 C0.66 0 1.32 0 2 0 C2.33 3.3 2.66 6.6 3 10 C-0.00617269 6.99382731 0.40414684 4.17618402 0 0 Z " fill="#732523" transform="translate(259,230)"/>
<path d="M0 0 C0.66 0.99 1.32 1.98 2 3 C1.01 4.485 1.01 4.485 0 6 C-0.38499891 7.65549531 -0.72793135 9.3222433 -1 11 C-1.66 10.34 -2.32 9.68 -3 9 C-2.6442194 5.62008426 -1.64284201 2.95711562 0 0 Z " fill="#7F3A38" transform="translate(183,146)"/>
<path d="M0 0 C2.14418558 3.21627837 2.67582137 5.19090105 3 9 C2.34 9.66 1.68 10.32 1 11 C0.63890458 9.35567294 0.28629924 7.7094792 -0.0625 6.0625 C-0.25972656 5.14597656 -0.45695313 4.22945313 -0.66015625 3.28515625 C-0.77230469 2.53105469 -0.88445312 1.77695313 -1 1 C-0.67 0.67 -0.34 0.34 0 0 Z " fill="#944245" transform="translate(185,122)"/>
<path d="M0 0 C0.33 0 0.66 0 1 0 C1.1546875 1.175625 1.1546875 1.175625 1.3125 2.375 C1.77595022 5.33045181 1.77595022 5.33045181 5 7 C3.68 8.32 2.36 9.64 1 11 C0.67 7.37 0.34 3.74 0 0 Z " fill="#E992AE" transform="translate(248,95)"/>
<path d="M0 0 C0.86625 0.556875 0.86625 0.556875 1.75 1.125 C1.09 2.445 0.43 3.765 -0.25 5.125 C-0.91 4.465 -1.57 3.805 -2.25 3.125 C-3.56747324 2.42751417 -4.89914193 1.75540043 -6.25 1.125 C-2.80384615 -1.09038462 -2.80384615 -1.09038462 0 0 Z " fill="#E592AA" transform="translate(271.25,28.875)"/>
<path d="M0 0 C-1.39332574 3.36720387 -2.9789286 4.9859524 -6 7 C-5.37162381 3.35541809 -4.14650034 0 0 0 Z " fill="#712423" transform="translate(190,141)"/>
<path d="M0 0 C0.66 0.33 1.32 0.66 2 1 C2 1.99 2 2.98 2 4 C-0.31 4.33 -2.62 4.66 -5 5 C-3.35 3.35 -1.7 1.7 0 0 Z " fill="#EB93B0" transform="translate(266,139)"/>
</svg>
