<?xml version="1.0" encoding="UTF-8"?>
<svg version="1.1" xmlns="http://www.w3.org/2000/svg" width="498" height="281">
<path d="M0 0 C164.34 0 328.68 0 498 0 C498 92.73 498 185.46 498 281 C333.66 281 169.32 281 0 281 C0 188.27 0 95.54 0 0 Z " fill="#FCFAFB" transform="translate(0,0)"/>
<path d="M0 0 C0.77214844 0.29777344 1.54429687 0.59554688 2.33984375 0.90234375 C2.99855469 1.16917969 3.65726562 1.43601562 4.3359375 1.7109375 C6.49205714 2.12431618 6.49205714 2.12431618 8.55078125 0.4921875 C12.3942533 -1.69869923 15.61331375 -1.59228793 19.96484375 -1.53515625 C21.16427612 -1.52379639 21.16427612 -1.52379639 22.38793945 -1.51220703 C31.38545759 -1.26315966 39.24210832 0.88212071 45.91015625 7.19921875 C48.38530381 10.14775519 49.9189039 13.34642391 51.33984375 16.90234375 C51.95859375 18.44921875 51.95859375 18.44921875 52.58984375 20.02734375 C53.33984375 22.90234375 53.33984375 22.90234375 53.33984375 28.90234375 C57.29984375 28.90234375 61.25984375 28.90234375 65.33984375 28.90234375 C65.30503906 30.10632812 65.27023437 31.3103125 65.234375 32.55078125 C65.20624095 34.12628817 65.17894038 35.70181013 65.15234375 37.27734375 C65.12720703 38.07140625 65.10207031 38.86546875 65.07617188 39.68359375 C65.0497997 41.75820523 65.18497913 43.8333524 65.33984375 45.90234375 C66.32984375 46.56234375 67.31984375 47.22234375 68.33984375 47.90234375 C67.8962186 51.34043868 66.83253311 54.06420743 65.33984375 57.15234375 C63.86761494 60.32208904 63.105862 62.85536469 62.90234375 66.33984375 C62.27480388 74.55491114 57.03267531 81.50730779 52.83203125 88.36328125 C50.44208566 92.4299426 48.38300662 96.65328822 46.33984375 100.90234375 C43.12709352 99.29596863 42.5297269 95.97076843 41.27734375 92.77734375 C41.00857422 92.12507813 40.73980469 91.4728125 40.46289062 90.80078125 C38.74555636 86.48389114 37.82595986 82.52344754 37.33984375 77.90234375 C36.34984375 77.90234375 35.35984375 77.90234375 34.33984375 77.90234375 C34.27667969 78.49660156 34.21351563 79.09085937 34.1484375 79.703125 C32.79211481 88.88328805 28.47399491 96.41342797 21.52734375 102.58984375 C18.33984375 104.90234375 18.33984375 104.90234375 16.33984375 104.90234375 C18.13389734 106.89573663 19.7818606 108.17358136 22.08984375 109.58984375 C26.88583121 113.00237329 31.44809633 117.22710149 33.33984375 122.90234375 C34.78059571 131.65627973 30.79963434 137.78019131 26.0390625 144.828125 C23.30350746 148.4190979 20.58821227 150.43175465 16.33984375 151.90234375 C13.32019223 152.12510493 10.36055701 152.08358655 7.33984375 151.90234375 C7.25734375 152.87171875 7.17484375 153.84109375 7.08984375 154.83984375 C6.00133998 162.41337703 1.99758869 171.01465038 -4.03515625 175.77734375 C-6.07499375 177.94134328 -6.07499375 177.94134328 -5.28515625 181.52734375 C-4.24231153 184.89796686 -2.67637082 187.62275966 -0.78515625 190.58984375 C4.11095278 198.37801718 7.47807905 207.63385634 6.33984375 216.90234375 C4.77549087 220.92496545 3.95260712 222.49383484 0.33984375 224.90234375 C-8.07401214 226.05308425 -15.01398605 224.1409521 -21.78515625 219.15234375 C-27.31135841 214.04956376 -29.30443657 206.83740637 -31.66015625 199.90234375 C-32.00175781 198.92136719 -32.34335938 197.94039062 -32.6953125 196.9296875 C-33.37685546 194.92943817 -34.02381371 192.91742845 -34.66015625 190.90234375 C-35.65015625 191.23234375 -36.64015625 191.56234375 -37.66015625 191.90234375 C-39.10583611 191.99417145 -40.55531453 192.03300973 -42.00390625 192.03515625 C-42.83792969 192.03644531 -43.67195313 192.03773438 -44.53125 192.0390625 C-45.39878906 192.03519531 -46.26632813 192.03132812 -47.16015625 192.02734375 C-48.02769531 192.03121094 -48.89523438 192.03507813 -49.7890625 192.0390625 C-50.62308594 192.03777344 -51.45710938 192.03648437 -52.31640625 192.03515625 C-53.07759766 192.03402832 -53.83878906 192.03290039 -54.62304688 192.03173828 C-56.66015625 191.90234375 -56.66015625 191.90234375 -59.66015625 190.90234375 C-59.51578125 191.51980469 -59.37140625 192.13726562 -59.22265625 192.7734375 C-57.31295153 201.48646529 -56.26558764 208.29914901 -60.58984375 216.37109375 C-61.66015625 217.90234375 -61.66015625 217.90234375 -63.66015625 218.90234375 C-68.14403631 219.44937712 -71.68030725 219.37267127 -75.78515625 217.40234375 C-84.40841767 209.90385556 -89.38547438 200.88524932 -94.66015625 190.90234375 C-95.27761719 189.73832031 -95.89507812 188.57429687 -96.53125 187.375 C-102.1857326 176.40503257 -103.85884743 164.11588094 -100.22265625 152.08984375 C-99.7226407 150.68641847 -99.20518125 149.28890994 -98.66015625 147.90234375 C-98.33015625 146.91234375 -98.00015625 145.92234375 -97.66015625 144.90234375 C-98.21703125 144.24234375 -98.77390625 143.58234375 -99.34765625 142.90234375 C-104.11817374 136.7135643 -106.46973018 129.07379206 -106.109375 121.2578125 C-105.02764708 115.58579567 -101.99781346 111.94571637 -97.53515625 108.46484375 C-94.66015625 106.90234375 -94.66015625 106.90234375 -91.66015625 105.90234375 C-91.84191406 105.1753125 -92.02367187 104.44828125 -92.2109375 103.69921875 C-92.74379774 101.56777779 -93.27064919 99.43482972 -93.79296875 97.30078125 C-94.32629698 95.21071115 -94.89658288 93.12916478 -95.52734375 91.06640625 C-98.1775665 82.05564891 -99.6880506 69.98602681 -96.66015625 60.90234375 C-97.71203125 60.92296875 -98.76390625 60.94359375 -99.84765625 60.96484375 C-102.98720529 60.91337573 -105.62899021 60.63717188 -108.66015625 59.90234375 C-108.66015625 59.24234375 -108.66015625 58.58234375 -108.66015625 57.90234375 C-107.5349047 56.87585098 -106.3573298 55.90646679 -105.16015625 54.96484375 C-98.74899123 49.49549589 -93.88204188 42.7932278 -90.34765625 35.15234375 C-88.11547232 30.40609601 -85.25061254 26.30452062 -82.16015625 22.08984375 C-81.69697998 21.45530273 -81.23380371 20.82076172 -80.7565918 20.16699219 C-72.89945069 9.63510926 -63.85836673 0.99918365 -50.76171875 -1.62890625 C-48.26692964 -2.18536479 -46.02520861 -3.13885124 -43.66015625 -4.09765625 C-29.30114817 -7.03663451 -13.53549489 -5.39384383 0 0 Z " fill="#FAA1C6" transform="translate(280.66015625,31.09765625)"/>
<path d="M0 0 C4.25042938 0.90598721 8.45242699 1.83950446 12.625 3.0625 C20.29748322 5.19374534 28.01879898 5.28788899 35.9375 5.5625 C37.09830078 5.60568359 38.25910156 5.64886719 39.45507812 5.69335938 C42.30328232 5.79884842 45.15156529 5.90096555 48 6 C48 6.66 48 7.32 48 8 C54.86476118 6.91081033 60.77470211 5.09761199 67 2 C66.61322843 9.34865985 61.95317629 15.07023557 58 21 C60.0859151 20.57497973 62.16867991 20.13447954 64.25 19.6875 C65.99023438 19.32205078 65.99023438 19.32205078 67.765625 18.94921875 C70.88271103 18.03442176 72.53016967 17.0223152 75 15 C75.66 15 76.32 15 77 15 C77.63115308 34.69683127 77.01864831 51.52894506 64.25 67.6875 C63.5075 68.450625 62.765 69.21375 62 70 C61.34 70 60.68 70 60 70 C61.94008923 74.44603782 63.92626599 78.86244666 66.01171875 83.2421875 C66.36878906 83.99314697 66.72585938 84.74410645 67.09375 85.51782227 C67.81587336 87.03283064 68.5410752 88.54637597 69.26953125 90.05834961 C69.60726562 90.76741455 69.945 91.47647949 70.29296875 92.20703125 C70.5974292 92.8410083 70.90188965 93.47498535 71.21557617 94.12817383 C73.47803239 99.52694501 73.73366085 105.23308446 73 111 C71 114.1875 71 114.1875 68 116 C61.82698718 116.92595192 56.10179542 115.71677192 51 112 C46.14539432 106.6793261 43.27190129 100.75770207 40.625 94.125 C40.27050781 93.27164063 39.91601562 92.41828125 39.55078125 91.5390625 C37 85.31476231 37 85.31476231 37 83 C38.98 82.01 40.96 81.02 43 80 C41.89527344 80.32355469 40.79054688 80.64710938 39.65234375 80.98046875 C34.60885118 82.23551608 29.73849103 82.33115894 24.5625 82.3125 C23.67240234 82.32861328 22.78230469 82.34472656 21.86523438 82.36132812 C15.00449249 82.36633962 9.14960596 81.07480298 3 78 C3.39832031 78.99580078 3.39832031 78.99580078 3.8046875 80.01171875 C5.40234375 84.00585938 5.40234375 84.00585938 7 88 C7.36609375 88.81082031 7.7321875 89.62164062 8.109375 90.45703125 C10.11983368 96.19741985 10.06540653 102.78395442 7.4375 108.25 C5 110 5 110 1.75 110.75 C-7.21795937 108.95640813 -13.031188 99.99699177 -17.87988281 92.77880859 C-26.70184593 78.76903892 -32.66629018 64.0990193 -29.484375 47.2734375 C-25.97753327 36.71853151 -15.40537687 25.97288156 -7 19 C-6.34 19 -5.68 19 -5 19 C-5.99 15.04 -6.98 11.08 -8 7 C-5.81901042 8.49739583 -3.63802083 9.99479167 -1.45703125 11.4921875 C0.9676609 12.98015439 3.3333499 14.02428078 6 15 C5.566875 14.00097656 5.13375 13.00195312 4.6875 11.97265625 C4.12490524 10.66931173 3.56241039 9.36592408 3 8.0625 C2.71382812 7.40314453 2.42765625 6.74378906 2.1328125 6.06445312 C0 1.11328125 0 1.11328125 0 0 Z " fill="#FBF9FA" transform="translate(211,138)"/>
<path d="M0 0 C0.69416016 -0.00386719 1.38832031 -0.00773437 2.10351562 -0.01171875 C5.84083371 -0.00462033 9.30460894 0.23271097 12.9375 1.125 C12.9375 1.455 12.9375 1.785 12.9375 2.125 C12.31294922 2.14481934 11.68839844 2.16463867 11.04492188 2.18505859 C8.17540619 2.28116932 5.30653453 2.39049487 2.4375 2.5 C0.96410156 2.54640625 0.96410156 2.54640625 -0.5390625 2.59375 C-6.33219718 2.82547539 -11.49501492 3.49452223 -17.0625 5.125 C-15.7425 6.445 -14.4225 7.765 -13.0625 9.125 C-13.3925 9.785 -13.7225 10.445 -14.0625 11.125 C-14.7225 10.63 -15.3825 10.135 -16.0625 9.625 C-21.13382083 7.08933959 -25.32645247 7.59798557 -30.5625 9.1875 C-42.80844425 15.18551351 -50.39793097 28.2404977 -57 39.5625 C-66.9738832 56.30667226 -66.9738832 56.30667226 -73.0625 62.125 C-73.7225 62.125 -74.3825 62.125 -75.0625 62.125 C-75.0625 62.785 -75.0625 63.445 -75.0625 64.125 C-71.7625 64.125 -68.4625 64.125 -65.0625 64.125 C-65.13210937 65.68605469 -65.20171875 67.24710937 -65.2734375 68.85546875 C-65.83658905 87.15067434 -64.02232766 105.71370172 -53.0625 121.125 C-52.09120179 122.15290067 -51.10002475 123.16398887 -50.0625 124.125 C-50.0625 121.815 -50.0625 119.505 -50.0625 117.125 C-48.5775 117.62 -48.5775 117.62 -47.0625 118.125 C-45.85593819 122.48567174 -44.99834568 126.5860822 -45.0625 131.125 C-46.59941573 133.53684668 -48.22383289 134.68811775 -50.5625 136.3203125 C-59.34272757 142.65853928 -66.08516793 151.74186714 -69.0625 162.125 C-70.92356911 181.01701549 -63.23366539 197.16178379 -51.875 211.8125 C-46.31572481 218.6186517 -46.31572481 218.6186517 -38.375 221.6875 C-35.06631351 221.45598967 -35.06631351 221.45598967 -33.38671875 219.4375 C-30.83328704 214.97840982 -31.3935622 210.08827959 -32.0625 205.125 C-33.16499941 202.09695475 -34.44806661 199.33860899 -35.96875 196.5 C-37.0625 194.125 -37.0625 194.125 -37.0625 190.125 C-36.51207031 190.3415625 -35.96164063 190.558125 -35.39453125 190.78125 C-28.6579554 193.03721959 -22.29007461 193.42775174 -15.25 193.4375 C-14.34290283 193.44265625 -13.43580566 193.4478125 -12.5012207 193.453125 C-7.59198809 193.40238826 -3.69996269 192.89199589 0.9375 191.125 C3.3125 191.5 3.3125 191.5 4.9375 192.125 C-0.8125 195.125 -0.8125 195.125 -3.0625 195.125 C-1.49198197 198.85969188 0.09613468 202.58664889 1.6875 206.3125 C2.1309375 207.36759766 2.574375 208.42269531 3.03125 209.50976562 C3.46953125 210.53134766 3.9078125 211.55292969 4.359375 212.60546875 C4.75737305 213.54285889 5.15537109 214.48024902 5.56542969 215.44604492 C8.51002837 221.19534766 11.68754653 224.02483344 17.55859375 226.39453125 C22.16926669 227.81028796 26.02426963 228.12944595 30.4375 225.8125 C33.31675531 220.65383423 32.66127577 214.97944151 31.2421875 209.3828125 C29.13529952 203.27460785 26.22173873 197.60806905 23.265625 191.875 C21.7065965 188.64689394 20.72971918 185.61076439 19.9375 182.125 C21.0203125 181.135 21.0203125 181.135 22.125 180.125 C25.39437779 176.85562221 27.64413576 173.11449821 29.9375 169.125 C30.47375 168.2175 31.01 167.31 31.5625 166.375 C36.90609302 153.74468922 36.64071629 140.64259614 36.9375 127.125 C36.35814697 127.47071045 35.77879395 127.8164209 35.18188477 128.17260742 C30.76874176 130.72921509 26.9955267 132.72451527 21.875 133.4375 C20.93527344 133.57800781 19.99554688 133.71851563 19.02734375 133.86328125 C18.33769531 133.94964844 17.64804687 134.03601563 16.9375 134.125 C18.6875 130.25 18.6875 130.25 20.9375 129.125 C20.9375 129.785 20.9375 130.445 20.9375 131.125 C27.26817614 129.61301327 31.70010511 128.35942898 35.9375 123.125 C36.91396484 122.00351563 36.91396484 122.00351563 37.91015625 120.859375 C49.84015764 104.76881435 50.07246684 78.02205521 47.53027344 59.09277344 C44.48775568 41.98080941 38.39794117 19.90816125 23.6640625 9.30078125 C16.05875112 6.02112692 6.87226985 7.90112804 -1.0625 9.125 C-0.0625 7.125 -0.0625 7.125 3.25 6 C10.6468551 4.38276645 18.100094 3.44894982 24.75 7.625 C40.15498509 19.61590731 47.36012305 40.24100615 49.9375 59.125 C50.04008784 61.72935182 50.10129234 64.30621329 50.10546875 66.91015625 C50.10879715 67.64769638 50.11212555 68.38523651 50.11555481 69.14512634 C50.12059731 70.7024575 50.12296397 72.25979936 50.12280273 73.81713867 C50.12497106 76.15627751 50.14310471 78.49492989 50.16210938 80.83398438 C50.19463135 89.81183553 49.65872091 98.2848484 47.9375 107.125 C60.46727387 95.28036557 62.01113325 85.04338221 62.9375 68.125 C63.2675 68.125 63.5975 68.125 63.9375 68.125 C64.2675 72.745 64.5975 77.365 64.9375 82.125 C66.9175 82.125 68.8975 82.125 70.9375 82.125 C69.9475 82.62 69.9475 82.62 68.9375 83.125 C69.72186907 85.5858831 70.51458891 88.04350969 71.3125 90.5 C71.53421875 91.19867188 71.7559375 91.89734375 71.984375 92.6171875 C73.30904413 96.74547803 73.30904413 96.74547803 75.9375 100.125 C76.36047363 99.31663696 76.36047363 99.31663696 76.79199219 98.49194336 C78.08914958 96.01475519 79.38831084 93.53862315 80.6875 91.0625 C81.1309375 90.21494141 81.574375 89.36738281 82.03125 88.49414062 C82.46953125 87.65947266 82.9078125 86.82480469 83.359375 85.96484375 C83.79056641 85.14097168 84.22175781 84.31709961 84.66601562 83.46826172 C85.81835227 81.3445814 87.05467178 79.30600706 88.328125 77.25390625 C90.10419101 74.39356858 90.10419101 74.39356858 89.92578125 71.98046875 C88.60087473 69.49299603 87.00006104 67.54216035 85.125 65.4375 C84.43792969 64.64988281 83.75085938 63.86226562 83.04296875 63.05078125 C80.91235527 61.1020012 79.75461878 60.49850564 76.9375 60.125 C76.9375 60.785 76.9375 61.445 76.9375 62.125 C77.515 62.393125 78.0925 62.66125 78.6875 62.9375 C80.9700868 64.14219859 82.9112942 65.53298115 84.9375 67.125 C84.29205571 70.61039917 82.83615603 73.15319057 80.9375 76.125 C77.76716958 75.78532174 76.93867393 75.12630809 74.75 72.6875 C72.9375 70.125 72.9375 70.125 71.9375 68.125 C72.45155169 73.09416636 73.17134882 77.41526351 74.9375 82.125 C74.2775 82.125 73.6175 82.125 72.9375 82.125 C70.24174981 76.96791269 68.78954542 73.18591142 68.875 67.375 C68.88402344 66.57578125 68.89304687 65.7765625 68.90234375 64.953125 C68.91974609 64.04820313 68.91974609 64.04820313 68.9375 63.125 C68.27363281 63.4859375 67.60976563 63.846875 66.92578125 64.21875 C66.04277344 64.6828125 65.15976562 65.146875 64.25 65.625 C62.94482422 66.32109375 62.94482422 66.32109375 61.61328125 67.03125 C58.78419841 68.18766342 56.95946237 68.4607736 53.9375 68.125 C52.0625 66.5625 52.0625 66.5625 50.9375 64.125 C51 60.5 51 60.5 51.9375 57.125 C55.87095737 54.36611671 60.33021791 54.7480414 64.96484375 54.56640625 C68.38323887 54.05881276 70.22822231 53.26439514 72.9375 51.125 C74.37496656 48.67070043 74.37496656 48.67070043 75.25 45.9375 C75.57613281 45.03644531 75.90226563 44.13539062 76.23828125 43.20703125 C76.58439453 42.17642578 76.58439453 42.17642578 76.9375 41.125 C76.53660156 41.558125 76.13570312 41.99125 75.72265625 42.4375 C72.56427881 45.53142075 70.08125898 47.58910312 65.5625 47.875 C60.04985893 47.53342499 56.14479709 44.46696648 51.9375 41.125 C52.2675 40.465 52.5975 39.805 52.9375 39.125 C53.41058594 39.4859375 53.88367188 39.846875 54.37109375 40.21875 C58.97866753 43.45213511 62.32719133 44.67346455 67.95703125 44.59375 C70.40069595 44.01536782 71.2580452 42.93438397 72.9375 41.125 C73.5975 41.125 74.2575 41.125 74.9375 41.125 C76.64317431 36.00797707 76.83345114 31.38054134 74.8203125 26.3125 C73.59256013 23.87086816 72.3165146 21.48409998 70.9375 19.125 C65.67590541 18.48334212 63.25157151 19.91922999 59.2578125 23.03125 C58.82210937 23.3921875 58.38640625 23.753125 57.9375 24.125 C59.33385618 20.75047256 60.7981353 19.00861882 63.9375 17.125 C66.6875 16.4375 66.6875 16.4375 68.9375 16.125 C65.22611183 13.18148524 62.497758 11.9846679 57.75 12.0625 C56.491875 12.083125 55.23375 12.10375 53.9375 12.125 C49.49378439 20.55615686 49.49067767 27.81620137 49.9375 37.125 C49.2775 37.125 48.6175 37.125 47.9375 37.125 C47.85617358 34.08278935 47.79684626 31.0427762 47.75 28 C47.72486328 27.1440625 47.69972656 26.288125 47.67382812 25.40625 C47.60471084 19.4160854 48.2156047 14.97272501 52.54296875 10.4453125 C54.0078125 9.33854167 55.47265625 8.23177083 56.9375 7.125 C57.9275 7.62 57.9275 7.62 58.9375 8.125 C59.65421875 8.43695313 60.3709375 8.74890625 61.109375 9.0703125 C69.44919464 12.88641179 74.39624195 17.55142787 77.9375 26.125 C78.90025145 30.00943465 79.1018459 33.69110152 79.125 37.6875 C79.13917969 38.80253906 79.15335938 39.91757813 79.16796875 41.06640625 C78.94617189 44.00991377 78.4712001 45.6456192 76.9375 48.125 C80.33885621 44.72364379 80.26221286 38.7930838 80.3125 34.3125 C80.14781134 25.09962262 77.34223357 18.58453415 71.04296875 11.85546875 C64.86078907 6.7743823 57.31289439 5.52674292 49.50390625 5.87109375 C42.33752558 6.5800964 37.5795255 8.65839648 31.9375 13.125 C31.916875 12.361875 31.89625 11.59875 31.875 10.8125 C31.16287452 7.82819162 31.16287452 7.82819162 28 6.4375 C23.45319191 4.77033703 18.69856365 3.93926642 13.9375 3.125 C13.9375 2.795 13.9375 2.465 13.9375 2.125 C19.74366177 1.60889673 23.99108064 3.02308911 29.38671875 5.15234375 C30.22847656 5.47332031 31.07023437 5.79429688 31.9375 6.125 C32.60394531 6.39441406 33.27039063 6.66382813 33.95703125 6.94140625 C36.0932094 7.34360161 36.0932094 7.34360161 38.1484375 5.71484375 C41.99190955 3.52395702 45.21097 3.63036832 49.5625 3.6875 C50.76193237 3.69885986 50.76193237 3.69885986 51.9855957 3.71044922 C60.98311384 3.95949659 68.83976457 6.10477696 75.5078125 12.421875 C77.98296006 15.37041144 79.51656015 18.56908016 80.9375 22.125 C81.55625 23.671875 81.55625 23.671875 82.1875 25.25 C82.9375 28.125 82.9375 28.125 82.9375 34.125 C86.8975 34.125 90.8575 34.125 94.9375 34.125 C94.90269531 35.32898437 94.86789062 36.53296875 94.83203125 37.7734375 C94.8038972 39.34894442 94.77659663 40.92446638 94.75 42.5 C94.72486328 43.2940625 94.69972656 44.088125 94.67382812 44.90625 C94.64745595 46.98086148 94.78263538 49.05600865 94.9375 51.125 C95.9275 51.785 96.9175 52.445 97.9375 53.125 C97.49387485 56.56309493 96.43018936 59.28686368 94.9375 62.375 C93.46527119 65.54474529 92.70351825 68.07802094 92.5 71.5625 C91.87246013 79.77756739 86.63033156 86.72996404 82.4296875 93.5859375 C80.03974191 97.65259885 77.98066287 101.87594447 75.9375 106.125 C72.72474977 104.51862488 72.12738315 101.19342468 70.875 98 C70.60623047 97.34773438 70.33746094 96.69546875 70.06054688 96.0234375 C68.34321261 91.70654739 67.42361611 87.74610379 66.9375 83.125 C65.9475 83.125 64.9575 83.125 63.9375 83.125 C63.87433594 83.71925781 63.81117188 84.31351562 63.74609375 84.92578125 C62.38977106 94.1059443 58.07165116 101.63608422 51.125 107.8125 C47.9375 110.125 47.9375 110.125 45.9375 110.125 C47.73155359 112.11839288 49.37951685 113.39623761 51.6875 114.8125 C56.48348746 118.22502954 61.04575258 122.44975774 62.9375 128.125 C64.37825196 136.87893598 60.39729059 143.00284756 55.63671875 150.05078125 C52.90116371 153.64175415 50.18586852 155.6544109 45.9375 157.125 C42.91784848 157.34776118 39.95821326 157.3062428 36.9375 157.125 C36.855 158.094375 36.7725 159.06375 36.6875 160.0625 C35.59899623 167.63603328 31.59524494 176.23730663 25.5625 181 C23.5226625 183.16399953 23.5226625 183.16399953 24.3125 186.75 C25.35534472 190.12062311 26.92128543 192.84541591 28.8125 195.8125 C33.70860903 203.60067343 37.0757353 212.85651259 35.9375 222.125 C34.37314712 226.1476217 33.55026337 227.71649109 29.9375 230.125 C21.52364411 231.2757405 14.5836702 229.36360835 7.8125 224.375 C2.28629784 219.27222001 0.29321968 212.06006262 -2.0625 205.125 C-2.40410156 204.14402344 -2.74570313 203.16304687 -3.09765625 202.15234375 C-3.77919921 200.15209442 -4.42615746 198.1400847 -5.0625 196.125 C-6.0525 196.455 -7.0425 196.785 -8.0625 197.125 C-9.50817986 197.2168277 -10.95765828 197.25566598 -12.40625 197.2578125 C-13.24027344 197.25910156 -14.07429688 197.26039063 -14.93359375 197.26171875 C-15.80113281 197.25785156 -16.66867188 197.25398437 -17.5625 197.25 C-18.43003906 197.25386719 -19.29757813 197.25773438 -20.19140625 197.26171875 C-21.02542969 197.26042969 -21.85945313 197.25914062 -22.71875 197.2578125 C-23.47994141 197.25668457 -24.24113281 197.25555664 -25.02539062 197.25439453 C-27.0625 197.125 -27.0625 197.125 -30.0625 196.125 C-29.918125 196.74246094 -29.77375 197.35992187 -29.625 197.99609375 C-27.71529528 206.70912154 -26.66793139 213.52180526 -30.9921875 221.59375 C-32.0625 223.125 -32.0625 223.125 -34.0625 224.125 C-38.54638006 224.67203337 -42.082651 224.59532752 -46.1875 222.625 C-54.81076142 215.12651181 -59.78781813 206.10790557 -65.0625 196.125 C-65.67996094 194.96097656 -66.29742187 193.79695312 -66.93359375 192.59765625 C-72.58807635 181.62768882 -74.26119118 169.33853719 -70.625 157.3125 C-70.12498445 155.90907472 -69.607525 154.51156619 -69.0625 153.125 C-68.7325 152.135 -68.4025 151.145 -68.0625 150.125 C-68.619375 149.465 -69.17625 148.805 -69.75 148.125 C-74.52051749 141.93622055 -76.87207393 134.29644831 -76.51171875 126.48046875 C-75.42999083 120.80845192 -72.40015721 117.16837262 -67.9375 113.6875 C-65.0625 112.125 -65.0625 112.125 -62.0625 111.125 C-62.24425781 110.39796875 -62.42601562 109.6709375 -62.61328125 108.921875 C-63.14614149 106.79043404 -63.67299294 104.65748597 -64.1953125 102.5234375 C-64.72864073 100.4333674 -65.29892663 98.35182103 -65.9296875 96.2890625 C-68.57991025 87.27830516 -70.09039435 75.20868306 -67.0625 66.125 C-68.114375 66.145625 -69.16625 66.16625 -70.25 66.1875 C-73.38954904 66.13603198 -76.03133396 65.85982813 -79.0625 65.125 C-79.0625 64.465 -79.0625 63.805 -79.0625 63.125 C-77.93724845 62.09850723 -76.75967355 61.12912304 -75.5625 60.1875 C-69.15133498 54.71815214 -64.28438563 48.01588405 -60.75 40.375 C-58.51781607 35.62875226 -55.65295629 31.52717687 -52.5625 27.3125 C-52.09932373 26.67795898 -51.63614746 26.04341797 -51.15893555 25.38964844 C-43.30179444 14.85776551 -34.26071048 6.2218399 -21.1640625 3.59375 C-18.66927339 3.03729146 -16.42755236 2.08380501 -14.0625 1.125 C-9.36484746 0.14516419 -4.78050485 -0.02678154 0 0 Z " fill="#7C3232" transform="translate(251.0625,25.875)"/>
<path d="M0 0 C0.02578125 0.80824219 0.0515625 1.61648437 0.078125 2.44921875 C0.34899705 9.09964907 0.34899705 9.09964907 2.875 15.125 C6.07491694 18.04242401 6.07491694 18.04242401 10.12109375 19.1875 C15.50312842 18.75227013 15.50312842 18.75227013 19.5 15.1875 C21.15020007 11.94782666 21.15020007 11.94782666 22 8 C27.94 9.485 27.94 9.485 34 11 C34.9590625 9.515 34.9590625 9.515 35.9375 8 C36.618125 7.01 37.29875 6.02 38 5 C38.33 5 38.66 5 39 5 C39.495 8.465 39.495 8.465 40 12 C42.31 9.36 44.62 6.72 47 4 C48.32 4.33 49.64 4.66 51 5 C50.0409375 6.175625 50.0409375 6.175625 49.0625 7.375 C45.34085539 12.1116386 45.48579451 16.11821085 46 22 C47.54228466 26.11275909 48.33671407 27.55780938 52 30 C56.05636198 30.46153765 56.05636198 30.46153765 60 30 C63.00333267 27.66663334 63.00333267 27.66663334 65 25 C64.34 25.66 63.68 26.32 63 27 C59.64978763 29.23347492 57.87275093 29.68309381 53.9375 29.4296875 C52 29 52 29 49 27.1875 C46.06478024 22.50949351 46.26618224 18.38133022 47 13 C48.53303633 8.8389014 49.30903357 7.46064429 53 5 C57.86779102 5.21164309 60.53014494 6.6265298 64 10 C65.3125 12.25 65.3125 12.25 66 14 C65.12527407 9.04485498 65.12527407 9.04485498 61.875 5.5625 C61.25625 5.376875 60.6375 5.19125 60 5 C60 4.67 60 4.34 60 4 C64.44870215 3.60746746 67.14243493 4.84694043 71 7 C71.32491651 12.91189549 70.23109299 17.75544723 68.4375 23.375 C68.1701001 24.21554932 67.9027002 25.05609863 67.62719727 25.92211914 C64.72990558 34.52368902 60.48684707 40.74597894 53 46 C50.22705078 46.53344727 50.22705078 46.53344727 47.1953125 46.56640625 C46.06544922 46.57978027 44.93558594 46.5931543 43.77148438 46.60693359 C42.56814453 46.59227051 41.36480469 46.57760742 40.125 46.5625 C38.88298828 46.55299316 37.64097656 46.54348633 36.36132812 46.53369141 C20.69016509 46.1873563 0.60694436 44.32842875 -11.75 33.4609375 C-15.29543014 29.53276206 -16.80960671 25.74527184 -17.375 20.5625 C-16.57373895 12.95052004 -10.40052448 7.94696481 -5 3 C-1.2247191 0 -1.2247191 0 0 0 Z " fill="#F6F0F0" transform="translate(210,96)"/>
<path d="M0 0 C5.44713178 5.07547247 9.59996717 11.99891724 10.09765625 19.53125 C10.18928651 26.59441592 9.96672129 32.05663534 6.89453125 38.45703125 C5.90453125 37.96203125 5.90453125 37.96203125 4.89453125 37.45703125 C5.21808594 36.92464844 5.54164063 36.39226562 5.875 35.84375 C8.77307724 29.05936229 7.44086827 20.10270888 4.80859375 13.38671875 C1.18904228 5.74544342 -3.45319054 1.82012134 -11.23828125 -1.02734375 C-13.26458361 -1.67606248 -13.26458361 -1.67606248 -16.10546875 -1.54296875 C-20.21256576 2.85749234 -22.14145356 5.93727927 -22.421875 11.90625 C-22.46376953 12.75380859 -22.50566406 13.60136719 -22.54882812 14.47460938 C-22.58814453 15.35568359 -22.62746094 16.23675781 -22.66796875 17.14453125 C-22.71115234 18.03720703 -22.75433594 18.92988281 -22.79882812 19.84960938 C-22.90482228 22.05193233 -23.00688926 24.25436598 -23.10546875 26.45703125 C-22.44546875 26.45703125 -21.78546875 26.45703125 -21.10546875 26.45703125 C-21.43546875 25.46703125 -21.76546875 24.47703125 -22.10546875 23.45703125 C-22.86212118 15.30751244 -21.90430633 8.73432253 -18.10546875 1.45703125 C-17.10546875 0.45703125 -17.10546875 0.45703125 -13.41796875 0.20703125 C-9.33513388 0.25834156 -6.58132345 1.22255323 -3.10546875 3.45703125 C-2.44546875 4.44703125 -1.78546875 5.43703125 -1.10546875 6.45703125 C-3.12369792 6.88020833 -5.14192708 7.30338542 -7.16015625 7.7265625 C-9.47593424 8.38011963 -9.47593424 8.38011963 -11.10546875 11.45703125 C-10.40421875 10.79703125 -9.70296875 10.13703125 -8.98046875 9.45703125 C-6.10546875 7.45703125 -6.10546875 7.45703125 -3.10546875 6.70703125 C0.45156872 7.59629062 0.79593244 8.27896452 2.70703125 11.26953125 C4.9081294 15.18022019 6.04450354 18.45370626 6.08203125 22.95703125 C6.09621094 23.73046875 6.11039062 24.50390625 6.125 25.30078125 C5.89453125 27.45703125 5.89453125 27.45703125 3.89453125 30.45703125 C3.23453125 30.45703125 2.57453125 30.45703125 1.89453125 30.45703125 C1.56453125 31.44703125 1.23453125 32.43703125 0.89453125 33.45703125 C-2.60804961 35.20832168 -6.2842183 35.02628251 -10.10546875 34.45703125 C-13.01411116 33.08656711 -15.5527966 31.40457403 -18.10546875 29.45703125 C-14.41384394 33.41234354 -11.36530749 35.71919648 -5.85546875 35.95703125 C-0.32053413 35.88359928 2.94354107 33.07428657 6.89453125 29.45703125 C5.3457416 34.84259526 3.95754854 39.39401396 -0.10546875 43.45703125 C-4.13552304 44.80038268 -8.07108201 44.88604392 -12.29296875 45.17578125 C-15.18298615 45.36050323 -15.18298615 45.36050323 -18.10546875 46.45703125 C-19.3053492 51.73902718 -19.3053492 51.73902718 -17.10546875 56.45703125 C-10.53952618 55.93307857 -10.53952618 55.93307857 -5.10546875 52.45703125 C-4.11546875 52.45703125 -3.12546875 52.45703125 -2.10546875 52.45703125 C-1.98429687 53.32585937 -1.863125 54.1946875 -1.73828125 55.08984375 C-1.48691406 56.81847656 -1.48691406 56.81847656 -1.23046875 58.58203125 C-1.06804687 59.71898438 -0.905625 60.8559375 -0.73828125 62.02734375 C-0.13115458 65.3178204 0.75798758 68.31482228 1.89453125 71.45703125 C2.03903355 68.359003 2.03903355 68.359003 0.89453125 65.14453125 C-0.03978823 61.69922817 -0.27814518 58.99689803 -0.10546875 55.45703125 C0.30703125 56.01390625 0.71953125 56.57078125 1.14453125 57.14453125 C2.01078125 58.28921875 2.01078125 58.28921875 2.89453125 59.45703125 C3.55453125 60.36453125 4.21453125 61.27203125 4.89453125 62.20703125 C5.55453125 62.94953125 6.21453125 63.69203125 6.89453125 64.45703125 C7.88453125 64.45703125 8.87453125 64.45703125 9.89453125 64.45703125 C11.21453125 61.81703125 12.53453125 59.17703125 13.89453125 56.45703125 C12.57453125 55.79703125 11.25453125 55.13703125 9.89453125 54.45703125 C7.64453125 52.95703125 7.64453125 52.95703125 5.89453125 51.45703125 C5.89453125 50.79703125 5.89453125 50.13703125 5.89453125 49.45703125 C10.6600477 49.89796872 12.61231724 51.70821704 15.76953125 55.20703125 C16.57132812 56.068125 17.373125 56.92921875 18.19921875 57.81640625 C19.89453125 60.45703125 19.89453125 60.45703125 19.6640625 62.79956055 C18.83415081 65.66554682 17.71455005 68.00344705 16.27734375 70.6171875 C15.75269531 71.57560547 15.22804688 72.53402344 14.6875 73.52148438 C14.13707031 74.51083984 13.58664062 75.50019531 13.01953125 76.51953125 C12.20548828 78.00936523 12.20548828 78.00936523 11.375 79.52929688 C9.07643711 83.70211581 6.83692292 87.69875999 3.89453125 91.45703125 C1.19382013 85.17722238 -0.80571551 79.17242298 -2.10546875 72.45703125 C-3.42546875 72.12703125 -4.74546875 71.79703125 -6.10546875 71.45703125 C-6.43546875 69.80703125 -6.76546875 68.15703125 -7.10546875 66.45703125 C-7.25242187 67.43542969 -7.399375 68.41382812 -7.55078125 69.421875 C-9.56632782 81.63995604 -13.92715229 89.01189391 -23.10546875 97.45703125 C-24.21424841 94.13069227 -23.965156 93.1593138 -23.19140625 89.83984375 C-21.81441444 82.77376268 -21.73332237 75.77574263 -21.73486328 68.60742188 C-21.73051501 66.35598571 -21.69414545 64.10655715 -21.65625 61.85546875 C-21.49402649 40.95060807 -27.86052745 21.0230934 -39.10546875 3.45703125 C-35.52124831 -1.12280598 -33.30530567 -3.76252072 -27.54296875 -5.16796875 C-17.6429705 -6.24796856 -8.36554842 -6.13059671 0 0 Z " fill="#FAA3C7" transform="translate(322.10546875,36.54296875)"/>
<path d="M0 0 C11.26283708 -0.54442717 11.26283708 -0.54442717 16.37890625 3.1875 C30.41478999 16.38070404 38.37320088 39.07278577 39.5559082 58.1706543 C39.9772326 78.56376239 40.43067275 103.83960221 25.27734375 119.75390625 C21.07388403 123.20489478 16.81618827 124.3125 11.37890625 124.3125 C12.76838426 121.44952902 14.31481313 118.73364754 15.94140625 116 C18.19548047 111.99570344 19.08759477 108.87637981 19.37890625 104.3125 C17.83203125 105.488125 17.83203125 105.488125 16.25390625 106.6875 C13.07384696 108.9488755 10.23402226 110.45580755 6.37890625 111.3125 C4.203125 110.8515625 4.203125 110.8515625 2.37890625 110.3125 C2.89839844 109.9 3.41789062 109.4875 3.953125 109.0625 C14.52335454 100.30933395 19.8866367 87.97001044 21.37890625 74.3125 C21.75875877 66.11165995 21.01744233 58.37663628 19.56640625 50.3125 C19.38190918 49.26231689 19.19741211 48.21213379 19.00732422 47.13012695 C18.48096041 44.18756577 17.93550374 41.24947407 17.37890625 38.3125 C17.14042969 37.04792969 16.90195312 35.78335938 16.65625 34.48046875 C14.14788015 23.02007235 8.9344495 14.24461228 -0.62109375 7.3125 C-3.31478195 5.77699291 -5.8573969 4.89069593 -8.87109375 4.1875 C-10.10859375 3.89875 -11.34609375 3.61 -12.62109375 3.3125 C-12.62109375 2.6525 -12.62109375 1.9925 -12.62109375 1.3125 C-8.41996527 0.72286793 -4.22594479 0.36469858 0 0 Z " fill="#FBA1C7" transform="translate(260.62109375,32.6875)"/>
<path d="M0 0 C0 0.66 0 1.32 0 2 C-0.54527344 2.12375 -1.09054688 2.2475 -1.65234375 2.375 C-10.01881095 4.66326453 -15.84734272 9.07808312 -20.203125 16.625 C-27.23769098 29.74698593 -31.3050599 43.05206511 -31 58 C-30.21625 57.34 -29.4325 56.68 -28.625 56 C-26 54 -26 54 -24 54 C-24.33 52.02 -24.66 50.04 -25 48 C-24.01 48 -23.02 48 -22 48 C-21.74992187 47.32066406 -21.49984375 46.64132813 -21.2421875 45.94140625 C-19.77314345 42.46282082 -17.99305339 39.21180175 -16.125 35.9375 C-15.78597656 35.32583984 -15.44695312 34.71417969 -15.09765625 34.08398438 C-13.0927657 30.55827381 -11.01812841 27.71360873 -8 25 C-8.32597168 25.71567139 -8.65194336 26.43134277 -8.98779297 27.16870117 C-10.03910572 30.1093847 -10.23162172 32.19634281 -10.1953125 35.30078125 C-10.18564453 36.76547852 -10.18564453 36.76547852 -10.17578125 38.25976562 C-10.15902344 39.26716797 -10.14226562 40.27457031 -10.125 41.3125 C-10.11597656 42.33923828 -10.10695312 43.36597656 -10.09765625 44.42382812 C-10.07416201 46.94945899 -10.04131131 49.4746081 -10 52 C-9.37480469 52.29003906 -8.74960938 52.58007812 -8.10546875 52.87890625 C-4.55893957 54.76731789 -3.24604084 57.26187749 -2 61 C1.00007271 62.70855022 1.00007271 62.70855022 4 64 C3.566875 63.23429687 3.566875 63.23429687 3.125 62.453125 C-0.22785796 55.8871115 -0.44374595 50.28482932 0 43 C0.33 43 0.66 43 1 43 C1.14695312 44.39412109 1.14695312 44.39412109 1.296875 45.81640625 C2.14110594 52.79586719 2.88063127 58.23288378 7 64 C11.61685957 60.1791507 13.56494294 55.30170963 14.33276367 49.47460938 C14.51369195 46.81474159 14.61971095 44.16507801 14.6875 41.5 C14.72166016 40.5821875 14.75582031 39.664375 14.79101562 38.71875 C14.87266264 36.4792891 14.94207538 34.2401785 15 32 C15.99 32.495 15.99 32.495 17 33 C17.24939926 44.1952557 16.66940943 54.9252571 15 66 C15.99 66.495 15.99 66.495 17 67 C16.01 67.66 15.02 68.32 14 69 C13.67 67.02 13.34 65.04 13 63 C11.68 64.65 10.36 66.3 9 68 C0.42857143 66 0.42857143 66 -3 64 C-3.0825 64.886875 -3.165 65.77375 -3.25 66.6875 C-4.1448972 70.63996265 -4.94193847 72.32419616 -8 75 C-11.09641042 76.1379458 -13.730793 76.48351297 -17 76 C-20.43459424 74.01188608 -23.2146922 71.5706156 -25 68 C-25.2275015 66.12943209 -25.40962811 64.25314042 -25.5625 62.375 C-25.68818359 60.87066406 -25.68818359 60.87066406 -25.81640625 59.3359375 C-25.87699219 58.56507812 -25.93757813 57.79421875 -26 57 C-27.94470746 58.72159374 -29.88057309 60.45166256 -31.8125 62.1875 C-32.35970703 62.67025391 -32.90691406 63.15300781 -33.47070312 63.65039062 C-37.62317056 67.40019455 -40.77490475 70.56897126 -41.3125 76.375 C-40.98070751 80.22379293 -40.19468111 83.34128909 -39 87 C-42.59298074 83.89697118 -43.77990134 80.72410617 -44.375 76.0625 C-43.88443866 72.05624907 -42.49900587 70.156639 -40 67 C-39.20722656 66.39671875 -39.20722656 66.39671875 -38.3984375 65.78125 C-36.47224525 64.28411479 -35.25047839 63.11044194 -34 61 C-33.73177351 58.05386097 -33.73177351 58.05386097 -33.9375 54.75 C-34.61339501 38.73128834 -27.85343032 21.45400204 -17.5 9.375 C-12.67228926 4.36635291 -7.28584708 0 0 0 Z " fill="#7F2B2E" transform="translate(235,40)"/>
<path d="M0 0 C4.76551645 0.44093747 6.71778599 2.25118579 9.875 5.75 C10.67679687 6.61109375 11.47859375 7.4721875 12.3046875 8.359375 C14 11 14 11 13.76953125 13.3425293 C12.93961956 16.20851557 11.8200188 18.5464158 10.3828125 21.16015625 C9.85816406 22.11857422 9.33351563 23.07699219 8.79296875 24.06445312 C7.96732422 25.54848633 7.96732422 25.54848633 7.125 27.0625 C6.58230469 28.05572266 6.03960937 29.04894531 5.48046875 30.07226562 C3.18190586 34.24508456 0.94239167 38.24172874 -2 42 C-4.70071112 35.72019113 -6.70024676 29.71539173 -8 23 C-9.32 22.67 -10.64 22.34 -12 22 C-12.495 19.525 -12.495 19.525 -13 17 C-13.14695312 17.97839844 -13.29390625 18.95679687 -13.4453125 19.96484375 C-15.46085907 32.18292479 -19.82168354 39.55486266 -29 48 C-30.11086544 44.66740369 -29.85557316 43.60340014 -29.1015625 40.26171875 C-27.70389914 33.13363564 -27.54863136 26.05799206 -27.375 18.8125 C-27.3367036 17.46547279 -27.2976457 16.11846701 -27.2578125 14.77148438 C-27.16442092 11.51445318 -27.078646 8.25741491 -27 5 C-26.01 6.485 -26.01 6.485 -25 8 C-24.34 7.67 -23.68 7.34 -23 7 C-21.72125 6.87625 -20.4425 6.7525 -19.125 6.625 C-15.56237 6.2320155 -13.75828789 5.34965265 -11 3 C-10.01 3 -9.02 3 -8 3 C-7.87882812 3.86882812 -7.75765625 4.73765625 -7.6328125 5.6328125 C-7.46523438 6.78523438 -7.29765625 7.93765625 -7.125 9.125 C-6.88136719 10.83042969 -6.88136719 10.83042969 -6.6328125 12.5703125 C-6.02568583 15.86078915 -5.13654367 18.85779103 -4 22 C-3.8554977 18.90197175 -3.8554977 18.90197175 -5 15.6875 C-5.93431948 12.24219692 -6.17267643 9.53986678 -6 6 C-5.5875 6.556875 -5.175 7.11375 -4.75 7.6875 C-4.1725 8.450625 -3.595 9.21375 -3 10 C-2.34 10.9075 -1.68 11.815 -1 12.75 C-0.34 13.4925 0.32 14.235 1 15 C1.99 15 2.98 15 4 15 C5.32 12.36 6.64 9.72 8 7 C6.68 6.34 5.36 5.68 4 5 C1.75 3.5 1.75 3.5 0 2 C0 1.34 0 0.68 0 0 Z " fill="#F79EC2" transform="translate(328,86)"/>
<path d="M0 0 C4.08283487 0.05131031 6.8366453 1.01552198 10.3125 3.25 C11.3025 4.735 11.3025 4.735 12.3125 6.25 C10.29427083 6.67317708 8.27604167 7.09635417 6.2578125 7.51953125 C3.94203451 8.17308838 3.94203451 8.17308838 2.3125 11.25 C3.01375 10.59 3.715 9.93 4.4375 9.25 C7.3125 7.25 7.3125 7.25 10.3125 6.5 C13.86953747 7.38925937 14.21390119 8.07193327 16.125 11.0625 C18.32609815 14.97318894 19.46247229 18.24667501 19.5 22.75 C19.51417969 23.5234375 19.52835937 24.296875 19.54296875 25.09375 C19.3125 27.25 19.3125 27.25 17.3125 30.25 C16.6525 30.25 15.9925 30.25 15.3125 30.25 C14.9825 31.24 14.6525 32.23 14.3125 33.25 C10.79788158 35.00730921 7.14785156 34.80214814 3.3125 34.25 C0.1064633 32.87527528 -2.7610027 31.13706486 -5.6875 29.25 C-6.3475 28.92 -7.0075 28.59 -7.6875 28.25 C-10.26135714 18.86787559 -9.15223525 9.80292656 -4.6875 1.25 C-3.6875 0.25 -3.6875 0.25 0 0 Z " fill="#A54853" transform="translate(308.6875,36.75)"/>
<path d="M0 0 C9.34294393 4.35897212 15.92149666 12.26143945 19.875 21.625 C26.20316608 40.60949823 30.06856741 62.66411923 24 82 C23.67128906 83.08667969 23.34257812 84.17335938 23.00390625 85.29296875 C20.30448309 93.26047033 15.90658103 102.04670949 8 106 C13.76239122 105.04587858 17.56685525 104.0301316 22 100 C22.66 100 23.32 100 24 100 C24.90441541 106.93385148 22.07695122 111.48661001 18 117 C17.01 117.495 17.01 117.495 16 118 C16.268125 117.360625 16.53625 116.72125 16.8125 116.0625 C18.35364142 112.08797739 19.67609312 108.05115505 21 104 C20.45730469 104.27714844 19.91460937 104.55429688 19.35546875 104.83984375 C18.64003906 105.20207031 17.92460937 105.56429687 17.1875 105.9375 C16.47980469 106.29714844 15.77210938 106.65679687 15.04296875 107.02734375 C10.89052607 109.00431933 7.55429524 109.0859301 3 109 C3 108.34 3 107.68 3 107 C2.30551758 107.01047363 1.61103516 107.02094727 0.89550781 107.03173828 C-2.31962307 107.07388819 -5.5346955 107.09951061 -8.75 107.125 C-9.84183594 107.14175781 -10.93367188 107.15851563 -12.05859375 107.17578125 C-22.63637232 107.23837166 -32.18987913 105.99671591 -42 102 C-42.66 102 -43.32 102 -44 102 C-43.6390625 102.84304687 -43.278125 103.68609375 -42.90625 104.5546875 C-42.4421875 105.65039062 -41.978125 106.74609375 -41.5 107.875 C-41.0359375 108.96554688 -40.571875 110.05609375 -40.09375 111.1796875 C-39 114 -39 114 -39 116 C-40.32 115.67 -41.64 115.34 -43 115 C-43.14050781 114.28199219 -43.28101563 113.56398438 -43.42578125 112.82421875 C-44.70945275 106.25897363 -44.70945275 106.25897363 -47 100 C-49.76550792 98.63317366 -49.76550792 98.63317366 -53 98 C-55.49173687 96.1687235 -57.74917695 94.11763825 -60 92 C-59.505 91.01 -59.505 91.01 -59 90 C-58.50371094 90.39832031 -58.00742188 90.79664062 -57.49609375 91.20703125 C-56.81675781 91.73683594 -56.13742188 92.26664062 -55.4375 92.8125 C-54.77621094 93.33457031 -54.11492187 93.85664063 -53.43359375 94.39453125 C-40.07666644 103.20624413 -21.48897579 104.48144049 -6 104.6875 C-4.8138208 104.7186792 -3.6276416 104.7498584 -2.40551758 104.78198242 C2.94487543 104.75014626 6.91518336 104.7003236 11.1484375 101.19921875 C19.84786554 92.14200462 23.54117108 78.20976376 25 66 C21.38026598 64.68373308 18.90432869 64 15 64 C15.804375 64.78375 16.60875 65.5675 17.4375 66.375 C20.94836844 69.97149938 20.94836844 69.97149938 21.09765625 72.9453125 C21.06510417 74.96354167 21.03255208 76.98177083 21 79 C20.67 79 20.34 79 20 79 C19.773125 77.783125 19.54625 76.56625 19.3125 75.3125 C18.22092263 71.00725779 16.61862959 68.71397219 13 66 C10.01499858 64.76549928 10.01499858 64.76549928 7 65 C4.11357527 67.18432142 3.14898802 68.55303594 2 72 C1.3189664 79.10305048 1.3189664 79.10305048 3.5 85.6875 C7.04342777 87.54779958 10.08255612 87.814119 14 87 C16.74526713 84.90492772 18.07880004 82.88179993 20 80 C19.74919159 83.67852334 19.38558753 85.55599012 16.9375 88.375 C13.14081832 90.47529199 10.24808595 90.85133706 6 90 C3.03132713 88.2575181 1.48623244 86.78723348 -0.3125 83.875 C-1.46579337 79.05213681 -2.20117371 73.70671723 -0.13671875 69.0546875 C1.08393314 67.21705157 2.43822504 65.56177496 4 64 C0.75434142 63.65944803 0.75434142 63.65944803 -1.6875 66.5 C-2.8321875 67.7375 -2.8321875 67.7375 -4 69 C-3.34 67.35 -2.68 65.7 -2 64 C-2.99 63.505 -2.99 63.505 -4 63 C-3.20980469 62.79246094 -2.41960937 62.58492187 -1.60546875 62.37109375 C1.25007895 61.22967183 1.25007895 61.22967183 2.07421875 58.28515625 C2.27660156 57.22167969 2.47898437 56.15820312 2.6875 55.0625 C3.42682353 51.32959652 3.86598322 49.20102517 6 46 C5.85769192 47.41702513 5.71099254 48.8336096 5.5625 50.25 C5.48128906 51.03890625 5.40007812 51.8278125 5.31640625 52.640625 C5 55 5 55 4 59 C7.3 59 10.6 59 14 59 C13.01 57.68 12.02 56.36 11 55 C11.495 54.01 11.495 54.01 12 53 C12.680625 53.9075 13.36125 54.815 14.0625 55.75 C16.92901576 59.22606221 20.00954191 60.96564882 24 63 C23.69066085 45.19893781 21.29656146 22.85864664 9.171875 8.89453125 C4.96755246 5.04666215 1.12330344 3.10982604 -4.625 2.8125 C-7.99177758 2.85108286 -7.99177758 2.85108286 -11 4 C-11 3.34 -11 2.68 -11 2 C-7.24356223 -0.50429185 -4.34276461 -0.84589502 0 0 Z " fill="#7E292B" transform="translate(256,37)"/>
<path d="M0 0 C0.02578125 0.80824219 0.0515625 1.61648437 0.078125 2.44921875 C0.34052649 9.01661838 0.34052649 9.01661838 2.75 15 C4.96645074 17.06990286 4.96645074 17.06990286 7.6015625 18.6953125 C10 21 10 21 10.6640625 24.2421875 C10.54548475 35.26991868 10.54548475 35.26991868 7.875 38.9375 C5 41 5 41 2.3125 41.25 C-5.65112721 38.24485766 -12.21332638 34.29467988 -16.25 26.625 C-17.58695413 21.94566053 -17.73998202 18.44913145 -15.5 14.0625 C-4.02040816 0 -4.02040816 0 0 0 Z " fill="#FBCFCB" transform="translate(210,96)"/>
<path d="M0 0 C4.14856405 1.40023347 6.92450209 3.34736344 10.1875 6.25 C11.04730469 6.99765625 11.90710938 7.7453125 12.79296875 8.515625 C15.8547217 11.96212921 16.72436076 15.26741051 17.4375 19.75 C16.4576983 27.02852694 12.20840366 33.91863057 7 39 C2.86383319 40.93607808 -0.49269844 41.06268848 -5 41 C-5.89892189 29.63030278 -5.89892189 29.63030278 -3.91015625 26.0234375 C-1.09401334 23.46874022 1.13700831 22.98895094 4.875 22.6875 C5.90625 22.790625 6.9375 22.89375 8 23 C7.67 22.67 7.34 22.34 7 22 C2.14077161 22.3737868 -0.93317027 23.39161955 -5 26 C-6.93398345 11.29406646 -6.93398345 11.29406646 -3.625 6.25 C-2.75090962 5.1659326 -1.87603864 4.08249361 -1 3 C-0.67 2.01 -0.34 1.02 0 0 Z " fill="#F9F5F5" transform="translate(295,139)"/>
<path d="M0 0 C15.40498509 11.99090731 22.61012305 32.61600615 25.1875 51.5 C25.29008784 54.10435182 25.35129234 56.68121329 25.35546875 59.28515625 C25.36046135 60.39146645 25.36046135 60.39146645 25.36555481 61.52012634 C25.37059731 63.0774575 25.37296397 64.63479936 25.37280273 66.19213867 C25.37497106 68.53127751 25.39310471 70.86992989 25.41210938 73.20898438 C25.44463135 82.18683553 24.90872091 90.6598484 23.1875 99.5 C35.71727387 87.65536557 37.26113325 77.41838221 38.1875 60.5 C38.5175 60.5 38.8475 60.5 39.1875 60.5 C39.6825 67.43 39.6825 67.43 40.1875 74.5 C42.1675 74.5 44.1475 74.5 46.1875 74.5 C45.1975 74.995 45.1975 74.995 44.1875 75.5 C44.97186907 77.9608831 45.76458891 80.41850969 46.5625 82.875 C46.78421875 83.57367188 47.0059375 84.27234375 47.234375 84.9921875 C48.55904413 89.12047803 48.55904413 89.12047803 51.1875 92.5 C51.60261841 91.69949219 51.60261841 91.69949219 52.02612305 90.8828125 C53.30568308 88.42009216 54.59030868 85.96004721 55.875 83.5 C56.31005859 82.66082031 56.74511719 81.82164063 57.19335938 80.95703125 C59.97047923 75.64964664 62.92786858 70.52588662 66.1875 65.5 C67.1875 68.5 67.1875 68.5 66.40234375 70.62890625 C65.98082031 71.43199219 65.55929687 72.23507813 65.125 73.0625 C64.65964844 73.95066406 64.19429688 74.83882813 63.71484375 75.75390625 C61.79122476 79.21248464 59.74698421 82.58685219 57.6796875 85.9609375 C55.28974191 90.02759885 53.23066287 94.25094447 51.1875 98.5 C47.97474977 96.89362488 47.37738315 93.56842468 46.125 90.375 C45.85623047 89.72273438 45.58746094 89.07046875 45.31054688 88.3984375 C43.59321261 84.08154739 42.67361611 80.12110379 42.1875 75.5 C41.1975 75.5 40.2075 75.5 39.1875 75.5 C39.12433594 76.09425781 39.06117188 76.68851562 38.99609375 77.30078125 C37.63977106 86.4809443 33.32165116 94.01108422 26.375 100.1875 C23.1875 102.5 23.1875 102.5 21.1875 102.5 C21.1875 103.49 21.1875 104.48 21.1875 105.5 C20.5275 105.5 19.8675 105.5 19.1875 105.5 C19.105 106.20125 19.0225 106.9025 18.9375 107.625 C18.1875 110.5 18.1875 110.5 16.0625 112.9375 C12.46177162 117.82050215 14.47942253 124.88155923 15.1875 130.5 C16.033125 129.819375 16.87875 129.13875 17.75 128.4375 C21.85739054 126.12242533 23.69735524 126.42236526 28.1875 127.5 C27.8575 128.16 27.5275 128.82 27.1875 129.5 C26.094375 129.479375 25.00125 129.45875 23.875 129.4375 C20.24365809 129.31455548 20.24365809 129.31455548 17.1875 130.5 C14.96641226 133.73342024 14.81334269 136.90374545 14.5625 140.75 C14.48773438 141.82765625 14.41296875 142.9053125 14.3359375 144.015625 C14.28695312 144.83546875 14.23796875 145.6553125 14.1875 146.5 C15.1775 146.83 16.1675 147.16 17.1875 147.5 C15.5375 147.5 13.8875 147.5 12.1875 147.5 C11.16504179 144.18131409 11.14306129 141.31716411 11.30859375 137.859375 C11.35693359 136.78945312 11.40527344 135.71953125 11.45507812 134.6171875 C11.51115234 133.50601563 11.56722656 132.39484375 11.625 131.25 C11.67720703 130.12335938 11.72941406 128.99671875 11.78320312 127.8359375 C11.91272986 125.05700028 12.04769053 122.27843576 12.1875 119.5 C11.60814697 119.84571045 11.02879395 120.1914209 10.43188477 120.54760742 C6.01874176 123.10421509 2.2455267 125.09951527 -2.875 125.8125 C-3.81472656 125.95300781 -4.75445312 126.09351563 -5.72265625 126.23828125 C-6.41230469 126.32464844 -7.10195313 126.41101563 -7.8125 126.5 C-6.0625 122.625 -6.0625 122.625 -3.8125 121.5 C-3.8125 122.16 -3.8125 122.82 -3.8125 123.5 C2.51817614 121.98801327 6.95010511 120.73442898 11.1875 115.5 C11.83847656 114.75234375 12.48945313 114.0046875 13.16015625 113.234375 C25.09015764 97.14381435 25.32246684 70.39705521 22.78027344 51.46777344 C19.73775568 34.35580941 13.64794117 12.28316125 -1.0859375 1.67578125 C-8.69124888 -1.60387308 -17.87773015 0.27612804 -25.8125 1.5 C-24.8125 -0.5 -24.8125 -0.5 -21.5 -1.625 C-14.1031449 -3.24223355 -6.649906 -4.17605018 0 0 Z " fill="#742222" transform="translate(275.8125,33.5)"/>
<path d="M0 0 C1.625 1.94140625 1.625 1.94140625 3 4.5625 C5.41826941 8.96675751 8.01518498 12.96172086 11 17 C9.02 17.99 9.02 17.99 7 19 C6.38125 18.505 5.7625 18.01 5.125 17.5 C3.16119096 15.80777227 3.16119096 15.80777227 1 16 C2.65 17.32 4.3 18.64 6 20 C5.34 21.32 4.68 22.64 4 24 C3.34 24 2.68 24 2 24 C2 24.66 2 25.32 2 26 C1.34 26 0.68 26 0 26 C-0.226875 26.5775 -0.45375 27.155 -0.6875 27.75 C-2.33038023 30.5663661 -4.39533227 32.08077114 -7 34 C-16.49746605 19.54733428 -16.49746605 19.54733428 -15 11 C-12.64139953 4.44389023 -7.47374267 -1.1462078 0 0 Z " fill="#F9F4F4" transform="translate(192,140)"/>
<path d="M0 0 C0.69416016 -0.00386719 1.38832031 -0.00773437 2.10351562 -0.01171875 C5.84083371 -0.00462033 9.30460894 0.23271097 12.9375 1.125 C12.9375 1.455 12.9375 1.785 12.9375 2.125 C12.31294922 2.14481934 11.68839844 2.16463867 11.04492188 2.18505859 C8.17540619 2.28116932 5.30653453 2.39049487 2.4375 2.5 C0.96410156 2.54640625 0.96410156 2.54640625 -0.5390625 2.59375 C-6.33219718 2.82547539 -11.49501492 3.49452223 -17.0625 5.125 C-15.7425 6.445 -14.4225 7.765 -13.0625 9.125 C-13.3925 9.785 -13.7225 10.445 -14.0625 11.125 C-14.7225 10.63 -15.3825 10.135 -16.0625 9.625 C-21.13382083 7.08933959 -25.32645247 7.59798557 -30.5625 9.1875 C-42.80844425 15.18551351 -50.39793097 28.2404977 -57 39.5625 C-66.9738832 56.30667226 -66.9738832 56.30667226 -73.0625 62.125 C-73.7225 62.125 -74.3825 62.125 -75.0625 62.125 C-75.0625 62.785 -75.0625 63.445 -75.0625 64.125 C-71.7625 64.125 -68.4625 64.125 -65.0625 64.125 C-65.13210937 65.68605469 -65.20171875 67.24710937 -65.2734375 68.85546875 C-65.83658905 87.15067434 -64.02232766 105.71370172 -53.0625 121.125 C-52.09120179 122.15290067 -51.10002475 123.16398887 -50.0625 124.125 C-50.0625 121.815 -50.0625 119.505 -50.0625 117.125 C-48.5775 117.62 -48.5775 117.62 -47.0625 118.125 C-47.3925 121.095 -47.7225 124.065 -48.0625 127.125 C-49.3825 127.125 -50.7025 127.125 -52.0625 127.125 C-53.984375 124.7890625 -53.984375 124.7890625 -55.8125 121.75 C-56.42609375 120.75226563 -57.0396875 119.75453125 -57.671875 118.7265625 C-59.0625 116.125 -59.0625 116.125 -59.0625 114.125 C-62.85553725 115.12693437 -65.77786341 115.93524227 -69.0625 118.125 C-69.7225 117.465 -70.3825 116.805 -71.0625 116.125 C-65.4375 112.25 -65.4375 112.25 -62.0625 111.125 C-62.24425781 110.39796875 -62.42601562 109.6709375 -62.61328125 108.921875 C-63.14614149 106.79043404 -63.67299294 104.65748597 -64.1953125 102.5234375 C-64.72864073 100.4333674 -65.29892663 98.35182103 -65.9296875 96.2890625 C-68.57991025 87.27830516 -70.09039435 75.20868306 -67.0625 66.125 C-68.114375 66.145625 -69.16625 66.16625 -70.25 66.1875 C-73.38954904 66.13603198 -76.03133396 65.85982813 -79.0625 65.125 C-79.0625 64.465 -79.0625 63.805 -79.0625 63.125 C-77.93724845 62.09850723 -76.75967355 61.12912304 -75.5625 60.1875 C-69.15133498 54.71815214 -64.28438563 48.01588405 -60.75 40.375 C-58.51781607 35.62875226 -55.65295629 31.52717687 -52.5625 27.3125 C-52.09932373 26.67795898 -51.63614746 26.04341797 -51.15893555 25.38964844 C-43.30179444 14.85776551 -34.26071048 6.2218399 -21.1640625 3.59375 C-18.66927339 3.03729146 -16.42755236 2.08380501 -14.0625 1.125 C-9.36484746 0.14516419 -4.78050485 -0.02678154 0 0 Z " fill="#812A2B" transform="translate(251.0625,25.875)"/>
<path d="M0 0 C5.80616177 -0.51610327 10.05358064 0.89808911 15.44921875 3.02734375 C16.71185547 3.50880859 16.71185547 3.50880859 18 4 C18.66644531 4.26941406 19.33289063 4.53882813 20.01953125 4.81640625 C22.1557094 5.21860161 22.1557094 5.21860161 24.2109375 3.58984375 C28.05440955 1.39895702 31.27347 1.50536832 35.625 1.5625 C36.82443237 1.57385986 36.82443237 1.57385986 38.0480957 1.58544922 C47.04561384 1.83449659 54.90226457 3.97977696 61.5703125 10.296875 C64.04600426 13.24605971 65.57639276 16.4445588 67 20 C67.4125 21.010625 67.825 22.02125 68.25 23.0625 C69.11794301 26.46194346 69.13977533 29.50561671 69 33 C70.98 33.495 70.98 33.495 73 34 C71.68 34 70.36 34 69 34 C68.67 38.62 68.34 43.24 68 48 C66.046875 48.71614583 64.09375 49.43229167 62.140625 50.1484375 C60.02516248 50.98999011 58.02065376 51.95326494 56 53 C56.433125 52.31292969 56.86625 51.62585938 57.3125 50.91796875 C57.869375 50.01691406 58.42625 49.11585937 59 48.1875 C59.556875 47.29417969 60.11375 46.40085938 60.6875 45.48046875 C62.23384792 43.02577377 62.23384792 43.02577377 62 40 C61.195625 40.825 60.39125 41.65 59.5625 42.5 C56.24321673 45.21931892 53.63926273 45.78376041 49.390625 45.57421875 C44.95215431 44.5081155 41.52679988 41.8014297 38 39 C38.495 38.01 38.495 38.01 39 37 C39.47308594 37.3609375 39.94617188 37.721875 40.43359375 38.09375 C45.04116753 41.32713511 48.38969133 42.54846455 54.01953125 42.46875 C56.46319595 41.89036782 57.3205452 40.80938397 59 39 C59.66 39 60.32 39 61 39 C62.70567431 33.88297707 62.89595114 29.25554134 60.8828125 24.1875 C59.65506013 21.74586816 58.3790146 19.35909998 57 17 C51.73840541 16.35834212 49.31407151 17.79422999 45.3203125 20.90625 C44.88460937 21.2671875 44.44890625 21.628125 44 22 C45.39635618 18.62547256 46.8606353 16.88361882 50 15 C52.75 14.3125 52.75 14.3125 55 14 C51.28861183 11.05648524 48.560258 9.8596679 43.8125 9.9375 C42.554375 9.958125 41.29625 9.97875 40 10 C35.55628439 18.43115686 35.55317767 25.69120137 36 35 C35.34 35 34.68 35 34 35 C33.91867358 31.95778935 33.85934626 28.9177762 33.8125 25.875 C33.78736328 25.0190625 33.76222656 24.163125 33.73632812 23.28125 C33.66721084 17.2910854 34.2781047 12.84772501 38.60546875 8.3203125 C40.0703125 7.21354167 41.53515625 6.10677083 43 5 C43.66 5.33 44.32 5.66 45 6 C46.07507813 6.46792969 46.07507813 6.46792969 47.171875 6.9453125 C55.51169464 10.76141179 60.45874195 15.42642787 64 24 C64.96275145 27.88443465 65.1643459 31.56610152 65.1875 35.5625 C65.20167969 36.67753906 65.21585937 37.79257813 65.23046875 38.94140625 C65.00867189 41.88491377 64.5337001 43.5206192 63 46 C66.40135621 42.59864379 66.32471286 36.6680838 66.375 32.1875 C66.21031134 22.97462262 63.40473357 16.45953415 57.10546875 9.73046875 C50.92328907 4.6493823 43.37539439 3.40174292 35.56640625 3.74609375 C28.40002558 4.4550964 23.6420255 6.53339648 18 11 C17.979375 10.236875 17.95875 9.47375 17.9375 8.6875 C17.22537452 5.70319162 17.22537452 5.70319162 14.0625 4.3125 C9.51569191 2.64533703 4.76106365 1.81426642 0 1 C0 0.67 0 0.34 0 0 Z " fill="#86292D" transform="translate(265,28)"/>
<path d="M0 0 C4.76551645 0.44093747 6.71778599 2.25118579 9.875 5.75 C10.67679687 6.61109375 11.47859375 7.4721875 12.3046875 8.359375 C14 11 14 11 13.76953125 13.3425293 C12.93961956 16.20851557 11.8200188 18.5464158 10.3828125 21.16015625 C9.85816406 22.11857422 9.33351563 23.07699219 8.79296875 24.06445312 C8.24253906 25.05380859 7.69210937 26.04316406 7.125 27.0625 C6.58230469 28.05572266 6.03960937 29.04894531 5.48046875 30.07226562 C3.18190586 34.24508456 0.94239167 38.24172874 -2 42 C-4.70071112 35.72019113 -6.70024676 29.71539173 -8 23 C-6.02 23 -4.04 23 -2 23 C-2.28875 22.27554688 -2.5775 21.55109375 -2.875 20.8046875 C-6.56239016 11.20210896 -6.56239016 11.20210896 -6 6 C-5.5875 6.556875 -5.175 7.11375 -4.75 7.6875 C-3.88375 8.8321875 -3.88375 8.8321875 -3 10 C-2.34 10.9075 -1.68 11.815 -1 12.75 C-0.34 13.4925 0.32 14.235 1 15 C1.99 15 2.98 15 4 15 C5.32 12.36 6.64 9.72 8 7 C6.68 6.34 5.36 5.68 4 5 C1.75 3.5 1.75 3.5 0 2 C0 1.34 0 0.68 0 0 Z " fill="#F9F5F5" transform="translate(328,86)"/>
<path d="M0 0 C4.20028532 1.17607989 6.83540623 3.06956872 9.375 6.625 C10.50935038 10.02805113 11.31148831 13.2671684 11.125 16.875 C9.10121735 20.19978579 7.3636962 21.7158692 4.125 23.875 C-0.62499478 24.41128973 -2.76889782 24.54327007 -6.875 22.0625 C-9.81021976 17.38449351 -9.60881776 13.25633022 -8.875 7.875 C-7.13687169 3.15722317 -5.54138022 -0.24092957 0 0 Z " fill="#9D6E99" transform="translate(265.875,101.125)"/>
<path d="M0 0 C2.60847629 1.49745861 4.87028902 2.87028902 7 5 C7.51252731 10.87435144 7.95741335 16.25110398 4 21 C3 22 3 22 -0.6875 22.375 C-4.06245058 22.35071978 -5.83170406 21.77541412 -8.4375 19.625 C-11.42549275 16.56412938 -11.9438756 15.972823 -12.1875 11.75 C-12.00227374 8.0454748 -11.4944613 5.38220188 -10 2 C-6.24543433 -0.50304378 -4.45254066 -0.45280074 0 0 Z " fill="#9D6E97" transform="translate(223,92)"/>
<path d="M0 0 C4.44870215 -0.39253254 7.14243493 0.84694043 11 3 C11.32491651 8.91189549 10.23109299 13.75544723 8.4375 19.375 C8.1701001 20.21554932 7.9027002 21.05609863 7.62719727 21.92211914 C5.48861996 28.27119411 2.87397424 33.29804838 -2 38 C-2.86625 38.845625 -3.7325 39.69125 -4.625 40.5625 C-7.43050139 42.26056663 -8.79124473 42.75996835 -12 42 C-15.78704959 38.21295041 -15.35705383 33.55845049 -15.3984375 28.5234375 C-14.94459771 25.64911881 -14.24688791 24.77135608 -12 23 C-11.505 23.495 -11.01 23.99 -10.5 24.5 C-7.05060137 26.56963918 -3.86968937 26.83689711 0 26 C3.21954645 23.46546343 4.70432435 21.88702695 6 18 C6.58760042 10.18557049 6.58760042 10.18557049 4 3 C1.98264795 1.65589738 1.98264795 1.65589738 0 1 C0 0.67 0 0.34 0 0 Z " fill="#F9CCC7" transform="translate(270,100)"/>
<path d="M0 0 C7.05160143 2.89619345 11.46775349 6.86281832 16 13 C17.73234823 18.19704469 17.95286734 22.68817756 15.8359375 27.82421875 C11.9828383 35.0660693 8.12396585 42.18785797 0 45 C-3.01965152 45.22276118 -5.97928674 45.1812428 -9 45 C-9.0825 45.969375 -9.165 46.93875 -9.25 47.9375 C-10.33850377 55.51103328 -14.34225506 64.11230663 -20.375 68.875 C-22.4148375 71.03899953 -22.4148375 71.03899953 -21.625 74.625 C-20.26168455 79.072401 -17.83050495 82.77252974 -15.2421875 86.60546875 C-13.84375992 89.30117978 -13.75541588 91.00650307 -14 94 C-17.16850175 91.32566825 -18.7701662 87.90404826 -20.5625 84.25 C-21.01786133 83.35667969 -21.01786133 83.35667969 -21.48242188 82.4453125 C-23.51534135 78.35289944 -24.86606782 74.40033383 -26 70 C-24.9171875 69.01 -24.9171875 69.01 -23.8125 68 C-16.72420502 60.91170502 -12.94435964 51.39689246 -10 42 C-9.14728516 41.94392578 -9.14728516 41.94392578 -8.27734375 41.88671875 C-3.0053163 41.4378483 1.39019545 40.78327822 6 38 C10.51562885 32.61037847 14.54221021 26.4299542 14.0625 19.1875 C13.31824597 13.2423279 10.40719242 9.86972993 6 6 C4.046141 4.57283343 2.04479636 3.29670013 0 2 C0 1.34 0 0.68 0 0 Z " fill="#702220" transform="translate(297,138)"/>
<path d="M0 0 C0.64324219 0.45890625 1.28648437 0.9178125 1.94921875 1.390625 C9.04370288 6.20799225 15.70130532 8.94681317 24 11 C25.04800781 11.28746094 26.09601563 11.57492188 27.17578125 11.87109375 C40.19654152 15.00989294 53.67548458 14.74754137 67 15 C67 15.66 67 16.32 67 17 C72.88522641 15.49155362 77.40630999 14.16303157 82 10 C82.66 10 83.32 10 84 10 C84.90441541 16.93385148 82.07695122 21.48661001 78 27 C77.34 27.33 76.68 27.66 76 28 C76.268125 27.360625 76.53625 26.72125 76.8125 26.0625 C78.35364142 22.08797739 79.67609312 18.05115505 81 14 C80.45730469 14.27714844 79.91460937 14.55429688 79.35546875 14.83984375 C78.64003906 15.20207031 77.92460937 15.56429687 77.1875 15.9375 C76.47980469 16.29714844 75.77210938 16.65679687 75.04296875 17.02734375 C70.89052607 19.00431933 67.55429524 19.0859301 63 19 C63 18.34 63 17.68 63 17 C62.30551758 17.01047363 61.61103516 17.02094727 60.89550781 17.03173828 C57.68037693 17.07388819 54.4653045 17.09951061 51.25 17.125 C49.61224609 17.15013672 49.61224609 17.15013672 47.94140625 17.17578125 C37.36362768 17.23837166 27.81012087 15.99671591 18 12 C17.34 12 16.68 12 16 12 C16.3609375 12.84304687 16.721875 13.68609375 17.09375 14.5546875 C17.5578125 15.65039062 18.021875 16.74609375 18.5 17.875 C19.19609375 19.51082031 19.19609375 19.51082031 19.90625 21.1796875 C21 24 21 24 21 26 C19.68 25.67 18.36 25.34 17 25 C16.85949219 24.28199219 16.71898437 23.56398437 16.57421875 22.82421875 C15.29054725 16.25897363 15.29054725 16.25897363 13 10 C10.23449208 8.63317366 10.23449208 8.63317366 7 8 C4.45961262 6.22478954 2.09837237 4.28461844 0 2 C0 1.34 0 0.68 0 0 Z " fill="#8E4C4A" transform="translate(196,127)"/>
<path d="M0 0 C0 0.66 0 1.32 0 2 C-0.54527344 2.12375 -1.09054688 2.2475 -1.65234375 2.375 C-10.01881095 4.66326453 -15.84734272 9.07808312 -20.203125 16.625 C-27.23769098 29.74698593 -31.3050599 43.05206511 -31 58 C-29.02 56.68 -27.04 55.36 -25 54 C-22.7706821 57.34397685 -22.85788502 58.05409448 -23.125 61.875 C-23.2126937 65.62938664 -23.1536738 66.74899946 -21.125 70.0625 C-18.16731479 72.75921299 -16.27392457 73.17260754 -12.375 73.5625 C-11.55773437 73.64628906 -10.74046875 73.73007813 -9.8984375 73.81640625 C-9.27195313 73.87699219 -8.64546875 73.93757813 -8 74 C-11.57470457 76.38313638 -12.78553535 76.64837918 -17 76 C-20.22002316 73.85331789 -23.25152821 71.49694358 -25 68 C-25.2275015 66.12943209 -25.40962811 64.25314042 -25.5625 62.375 C-25.68818359 60.87066406 -25.68818359 60.87066406 -25.81640625 59.3359375 C-25.87699219 58.56507812 -25.93757813 57.79421875 -26 57 C-27.94470746 58.72159374 -29.88057309 60.45166256 -31.8125 62.1875 C-32.35970703 62.67025391 -32.90691406 63.15300781 -33.47070312 63.65039062 C-37.62317056 67.40019455 -40.77490475 70.56897126 -41.3125 76.375 C-40.98070751 80.22379293 -40.19468111 83.34128909 -39 87 C-42.59298074 83.89697118 -43.77990134 80.72410617 -44.375 76.0625 C-43.88443866 72.05624907 -42.49900587 70.156639 -40 67 C-39.20722656 66.39671875 -39.20722656 66.39671875 -38.3984375 65.78125 C-36.47224525 64.28411479 -35.25047839 63.11044194 -34 61 C-33.73177351 58.05386097 -33.73177351 58.05386097 -33.9375 54.75 C-34.61339501 38.73128834 -27.85343032 21.45400204 -17.5 9.375 C-12.67228926 4.36635291 -7.28584708 0 0 0 Z " fill="#883236" transform="translate(235,40)"/>
<path d="M0 0 C0.09765625 6.15234375 0.09765625 6.15234375 0 8 C-1 9 -1 9 -2.99609375 9.02734375 C-4.62119521 8.96754002 -6.24620002 8.90504815 -7.87109375 8.83984375 C-10.21847324 8.78376056 -10.21847324 8.78376056 -12 11 C-14.125 10.625 -14.125 10.625 -16 10 C-16.268125 10.61875 -16.53625 11.2375 -16.8125 11.875 C-18 14 -18 14 -21 16 C-23.33199388 16.07905064 -25.66832622 16.08798769 -28 16 C-29.39935013 13.20129973 -29.25265405 11.09501208 -29 8 C-27.984375 6.33984375 -27.984375 6.33984375 -26 5 C-22.56965339 4.62208046 -19.24863445 4.51555239 -15.8046875 4.47265625 C-11.68930905 4.43654889 -11.68930905 4.43654889 -8.1875 2.53125 C-7.795625 2.0259375 -7.40375 1.520625 -7 1 C-4 0 -4 0 0 0 Z " fill="#8B4654" transform="translate(333,76)"/>
<path d="M0 0 C-5.75 3 -5.75 3 -8 3 C-6.42948197 6.73469188 -4.84136532 10.46164889 -3.25 14.1875 C-2.8065625 15.24259766 -2.363125 16.29769531 -1.90625 17.38476562 C-1.46796875 18.40634766 -1.0296875 19.42792969 -0.578125 20.48046875 C0.01887207 21.88655396 0.01887207 21.88655396 0.62792969 23.32104492 C3.57252837 29.07034766 6.75004653 31.89983344 12.62109375 34.26953125 C17.23176669 35.68528796 21.08676963 36.00444595 25.5 33.6875 C28.41089024 28.47215499 27.39508489 22.21247536 26.375 16.5 C26 14 26 14 28 11 C32.59836066 25.88992974 32.59836066 25.88992974 29.6875 33.375 C28 36 28 36 25 38 C16.58614411 39.1507405 9.6461702 37.23860835 2.875 32.25 C-2.65826576 27.15071586 -4.53453446 19.89309152 -7 13 C-8.28092527 9.97272009 -9.63572983 6.99089999 -11 4 C-16.28 3.67 -21.56 3.34 -27 3 C-27 2.67 -27 2.34 -27 2 C-25.84242188 1.95101562 -24.68484375 1.90203125 -23.4921875 1.8515625 C-21.9531033 1.77648522 -20.4140419 1.70093957 -18.875 1.625 C-17.73417969 1.57859375 -17.73417969 1.57859375 -16.5703125 1.53125 C-11.06232921 1.24635431 -5.10512867 -1.96351103 0 0 Z " fill="#782A28" transform="translate(256,218)"/>
<path d="M0 0 C4.08283487 0.05131031 6.8366453 1.01552198 10.3125 3.25 C11.3025 4.735 11.3025 4.735 12.3125 6.25 C11.11625 6.415 9.92 6.58 8.6875 6.75 C4.15238659 7.91182234 2.20612319 9.99081314 -0.3671875 13.80859375 C-2.68419304 18.09299748 -4.23781878 22.61102009 -5.6875 27.25 C-7.6875 26.25 -7.6875 26.25 -8.6875 23.25 C-9.44415243 15.10048119 -8.48633758 8.52729128 -4.6875 1.25 C-3.6875 0.25 -3.6875 0.25 0 0 Z " fill="#FBA4C9" transform="translate(308.6875,36.75)"/>
<path d="M0 0 C2.06183633 -0.08150744 4.12461349 -0.1394194 6.1875 -0.1875 C7.33605469 -0.22230469 8.48460937 -0.25710937 9.66796875 -0.29296875 C13.27039199 0.02377421 15.09366839 0.91466602 18 3 C17.68762196 5.88949684 17.35661121 7.58633099 15.4375 9.8125 C11.95058601 11.51125297 8.74986306 11.78709997 5 11 C2 8.875 2 8.875 0 6 C-0.125 2.8203125 -0.125 2.8203125 0 0 Z " fill="#CCA1F6" transform="translate(257,114)"/>
<path d="M0 0 C9.59453303 1.74259681 9.59453303 1.74259681 13 5 C11.45941767 10.01508715 9.97068161 14.6147081 7 19 C0.59313215 14.09261186 0.59313215 14.09261186 0 10 C-0.06624507 8.25113019 -0.08552595 6.49997252 -0.0625 4.75 C-0.05347656 3.85796875 -0.04445313 2.9659375 -0.03515625 2.046875 C-0.02355469 1.37140625 -0.01195312 0.6959375 0 0 Z " fill="#F9F5F5" transform="translate(334,75)"/>
<path d="M0 0 C1.66514624 0.71896335 3.29571839 1.51699982 4.91796875 2.328125 C3.16796875 8.078125 3.16796875 8.078125 0.91796875 10.328125 C-5.78502853 11.11014135 -5.78502853 11.11014135 -8.94140625 9.20703125 C-10.58203125 7.828125 -10.58203125 7.828125 -13.08203125 5.328125 C-12.70703125 2.890625 -12.70703125 2.890625 -12.08203125 0.328125 C-8.35086095 -1.53746015 -3.9072181 -1.26086588 0 0 Z " fill="#CBA0F3" transform="translate(225.08203125,103.671875)"/>
<path d="M0 0 C0.66 0.33 1.32 0.66 2 1 C2.24939926 12.1952557 1.66940943 22.9252571 0 34 C0.66 34.33 1.32 34.66 2 35 C1.01 35.66 0.02 36.32 -1 37 C-1.33 35.02 -1.66 33.04 -2 31 C-3.98 33.475 -3.98 33.475 -6 36 C-14.57142857 34 -14.57142857 34 -18 32 C-18 31.34 -18 30.68 -18 30 C-13.25 30.875 -13.25 30.875 -11 32 C-11.28875 31.48953125 -11.5775 30.9790625 -11.875 30.453125 C-15.22785796 23.8871115 -15.44374595 18.28482932 -15 11 C-14.67 11 -14.34 11 -14 11 C-13.85304687 12.39412109 -13.85304687 12.39412109 -13.703125 13.81640625 C-12.85889406 20.79586719 -12.11936873 26.23288378 -8 32 C-3.38314043 28.1791507 -1.43505706 23.30170963 -0.66723633 17.47460938 C-0.48630805 14.81474159 -0.38028905 12.16507801 -0.3125 9.5 C-0.27833984 8.5821875 -0.24417969 7.664375 -0.20898438 6.71875 C-0.12733736 4.4792891 -0.05792462 2.2401785 0 0 Z " fill="#882C31" transform="translate(250,72)"/>
<path d="M0 0 C3.63 0 7.26 0 11 0 C11.0749534 5.02187812 10.99276881 9.03615596 10 14 C4.06 12.515 4.06 12.515 -2 11 C-1.34 7.37 -0.68 3.74 0 0 Z " fill="#F8F3F3" transform="translate(334,62)"/>
<path d="M0 0 C11.86199079 9.23311715 17.29337448 21.78593093 21.5625 35.8125 C21.81330322 36.63588867 22.06410645 37.45927734 22.32250977 38.30761719 C23.88009112 43.7089686 24.70438071 48.89918679 25.1875 54.5 C24.5275 54.5 23.8675 54.5 23.1875 54.5 C23.06745605 53.9423999 22.94741211 53.3847998 22.82373047 52.81030273 C16.79682805 24.02607839 16.79682805 24.02607839 -1.0859375 1.67578125 C-8.69124888 -1.60387308 -17.87773015 0.27612804 -25.8125 1.5 C-24.8125 -0.5 -24.8125 -0.5 -21.5 -1.625 C-14.1031449 -3.24223355 -6.649906 -4.17605018 0 0 Z " fill="#8A2C32" transform="translate(275.8125,33.5)"/>
<path d="M0 0 C5.80616177 -0.51610327 10.05358064 0.89808911 15.44921875 3.02734375 C16.71185547 3.50880859 16.71185547 3.50880859 18 4 C18.66644531 4.26941406 19.33289063 4.53882813 20.01953125 4.81640625 C22.1557094 5.21860161 22.1557094 5.21860161 24.2109375 3.58984375 C28.05440955 1.39895702 31.27347 1.50536832 35.625 1.5625 C36.82443237 1.57385986 36.82443237 1.57385986 38.0480957 1.58544922 C47.03896963 1.83431269 54.91931316 3.97191779 61.5703125 10.3046875 C66.08007252 15.65232643 69.22086347 23.22280497 68.89453125 30.28125 C68.66185683 32.19659886 68.33917566 34.10061628 68 36 C67.67 36 67.34 36 67 36 C66.97421875 35.31035156 66.9484375 34.62070312 66.921875 33.91015625 C66.340819 24.28311472 63.77646576 16.85662974 57.10546875 9.73046875 C50.92328907 4.6493823 43.37539439 3.40174292 35.56640625 3.74609375 C28.40002558 4.4550964 23.6420255 6.53339648 18 11 C17.979375 10.236875 17.95875 9.47375 17.9375 8.6875 C17.22537452 5.70319162 17.22537452 5.70319162 14.0625 4.3125 C9.51569191 2.64533703 4.76106365 1.81426642 0 1 C0 0.67 0 0.34 0 0 Z " fill="#954A4D" transform="translate(265,28)"/>
<path d="M0 0 C4.02426366 4.60221642 6.15095859 9.58385724 6.0625 15.6875 C6.05347656 16.49574219 6.04445313 17.30398437 6.03515625 18.13671875 C6.02355469 18.75160156 6.01195312 19.36648437 6 20 C5.34 20.33 4.68 20.66 4 21 C3.81824219 20.39671875 3.63648438 19.7934375 3.44921875 19.171875 C3.19785156 18.37265625 2.94648438 17.5734375 2.6875 16.75 C2.44386719 15.96109375 2.20023437 15.1721875 1.94921875 14.359375 C0.89765041 11.74560021 -0.00102204 9.99897796 -2 8 C-4.72489473 7.30250411 -4.72489473 7.30250411 -7.6875 7.25 C-8.68136719 7.19328125 -9.67523438 7.1365625 -10.69921875 7.078125 C-11.83810547 7.03945313 -11.83810547 7.03945313 -13 7 C-6.42387733 -1.13362541 -6.42387733 -1.13362541 0 0 Z " fill="#F59DBF" transform="translate(322,44)"/>
<path d="M0 0 C1.12148437 0.30744141 1.12148437 0.30744141 2.265625 0.62109375 C3.25046875 0.89050781 4.2353125 1.15992188 5.25 1.4375 C6.71179688 1.83775391 6.71179688 1.83775391 8.203125 2.24609375 C9.58757812 2.61927734 9.58757812 2.61927734 11 3 C11.63744141 3.17402344 12.27488281 3.34804687 12.93164062 3.52734375 C16.32398749 4.30255427 19.78508803 4.37578655 23.25 4.5625 C23.99507812 4.60568359 24.74015625 4.64886719 25.5078125 4.69335938 C27.338349 4.79896725 29.16915176 4.89994201 31 5 C29 7 29 7 27.07641602 7.24291992 C25.92677368 7.23675659 25.92677368 7.23675659 24.75390625 7.23046875 C23.91666016 7.22853516 23.07941406 7.22660156 22.21679688 7.22460938 C20.90291992 7.20624023 20.90291992 7.20624023 19.5625 7.1875 C18.69044922 7.18685547 17.81839844 7.18621094 16.91992188 7.18554688 C10.42178302 7.14059434 10.42178302 7.14059434 7 6 C7.16371094 6.68449219 7.32742187 7.36898437 7.49609375 8.07421875 C8.06447034 11.3743278 8.09630767 14.46554069 8.0625 17.8125 C8.05347656 18.97394531 8.04445312 20.13539063 8.03515625 21.33203125 C8.02355469 22.21246094 8.01195312 23.09289062 8 24 C7.67 24 7.34 24 7 24 C6.74476563 22.83984375 6.74476563 22.83984375 6.484375 21.65625 C5.32746604 16.68400296 4.22152982 12.02657561 1.8125 7.5 C0 4 0 4 0 0 Z " fill="#731D1C" transform="translate(214,216)"/>
<path d="M0 0 C0.69416016 -0.00386719 1.38832031 -0.00773437 2.10351562 -0.01171875 C5.84083371 -0.00462033 9.30460894 0.23271097 12.9375 1.125 C12.9375 1.455 12.9375 1.785 12.9375 2.125 C12.31294922 2.14481934 11.68839844 2.16463867 11.04492188 2.18505859 C8.17540619 2.28116932 5.30653453 2.39049487 2.4375 2.5 C0.96410156 2.54640625 0.96410156 2.54640625 -0.5390625 2.59375 C-6.33219718 2.82547539 -11.49501492 3.49452223 -17.0625 5.125 C-15.7425 6.445 -14.4225 7.765 -13.0625 9.125 C-13.3925 9.785 -13.7225 10.445 -14.0625 11.125 C-14.7225 10.63 -15.3825 10.135 -16.0625 9.625 C-21.13382083 7.08933959 -25.32645247 7.59798557 -30.5625 9.1875 C-34.37381817 10.98826042 -37.25703054 13.7929165 -40.265625 16.69921875 C-42.0625 18.125 -42.0625 18.125 -45.0625 18.125 C-38.15211166 10.76878016 -31.963539 5.7218979 -21.859375 3.73046875 C-19.06726234 3.21029016 -19.06726234 3.21029016 -16.578125 2.11328125 C-11.18772543 -0.00437572 -5.72204978 -0.0320563 0 0 Z " fill="#8B383A" transform="translate(251.0625,25.875)"/>
<path d="M0 0 C0.66 0 1.32 0 2 0 C1.814375 1.8253125 1.814375 1.8253125 1.625 3.6875 C1.63817702 7.41000943 1.8827474 7.86515952 4.5 10.875 C8.07124802 13.4124657 11.73768977 14.19163082 16 15 C14.39322222 16.91694691 13.46670562 17.89960402 10.984375 18.43359375 C5.14343145 18.44380519 1.8326431 17.2903102 -3 14 C-3.34615998 8.34605369 -2.43425238 4.96993194 0 0 Z " fill="#F8A1C4" transform="translate(308,53)"/>
<path d="M0 0 C0.64324219 0.45890625 1.28648437 0.9178125 1.94921875 1.390625 C14.12108604 9.65568752 27.83888501 12.01202063 42 15 C42 15.33 42 15.66 42 16 C34.24546708 16.55944526 27.99910029 15.39089285 20.65234375 12.875 C18.14893856 11.89557028 18.14893856 11.89557028 16 12 C16.3609375 12.84304687 16.721875 13.68609375 17.09375 14.5546875 C17.5578125 15.65039062 18.021875 16.74609375 18.5 17.875 C19.19609375 19.51082031 19.19609375 19.51082031 19.90625 21.1796875 C21 24 21 24 21 26 C19.68 25.67 18.36 25.34 17 25 C16.85949219 24.28199219 16.71898437 23.56398437 16.57421875 22.82421875 C15.29054725 16.25897363 15.29054725 16.25897363 13 10 C10.23449208 8.63317366 10.23449208 8.63317366 7 8 C4.45961262 6.22478954 2.09837237 4.28461844 0 2 C0 1.34 0 0.68 0 0 Z " fill="#8D3A3C" transform="translate(196,127)"/>
<path d="M0 0 C0.12117188 0.86882812 0.24234375 1.73765625 0.3671875 2.6328125 C0.53476562 3.78523438 0.70234375 4.93765625 0.875 6.125 C1.03742188 7.26195313 1.19984375 8.39890625 1.3671875 9.5703125 C1.97829548 12.88236685 2.74781418 15.87417317 4 19 C4.66 19.33 5.32 19.66 6 20 C2.7 19.67 -0.6 19.34 -4 19 C-4.66 13.39 -5.32 7.78 -6 2 C-3 0 -3 0 0 0 Z " fill="#9B8FBB" transform="translate(320,89)"/>
<path d="M0 0 C0.66 0.33 1.32 0.66 2 1 C2.72832031 1.32355469 3.45664062 1.64710937 4.20703125 1.98046875 C9.85779757 4.59829003 13.42578015 6.87695155 17 12 C14 12 14 12 11.25 11.6875 C6.81292803 12.11414154 4.36158406 14.21525581 1 17 C2.39635618 13.62547256 3.8606353 11.88361882 7 10 C9.75 9.3125 9.75 9.3125 12 9 C8.28861183 6.05648524 5.560258 4.8596679 0.8125 4.9375 C-0.445625 4.958125 -1.70375 4.97875 -3 5 C-7.44371561 13.43115686 -7.44682233 20.69120137 -7 30 C-7.66 30 -8.32 30 -9 30 C-9.08132642 26.95778935 -9.14065374 23.9177762 -9.1875 20.875 C-9.21263672 20.0190625 -9.23777344 19.163125 -9.26367188 18.28125 C-9.33278916 12.2910854 -8.7218953 7.84772501 -4.39453125 3.3203125 C-2.9296875 2.21354167 -1.46484375 1.10677083 0 0 Z " fill="#963940" transform="translate(308,33)"/>
<path d="M0 0 C1 3 1 3 0.21484375 5.12890625 C-0.41744141 6.33353516 -0.41744141 6.33353516 -1.0625 7.5625 C-1.76052734 8.89474609 -1.76052734 8.89474609 -2.47265625 10.25390625 C-4.39627524 13.71248464 -6.44051579 17.08685219 -8.5078125 20.4609375 C-10.89775809 24.52759885 -12.95683713 28.75094447 -15 33 C-18.11999182 31.44000409 -18.45116846 28.87220503 -19.6875 25.6875 C-20.14511719 24.53636719 -20.60273438 23.38523437 -21.07421875 22.19921875 C-22 19 -22 19 -21 15 C-19.35 18.96 -17.7 22.92 -16 27 C-13.69683111 23.92910815 -11.91512433 21.17747153 -10.1171875 17.83203125 C-9.58996094 16.85685547 -9.06273437 15.88167969 -8.51953125 14.87695312 C-7.97683594 13.86568359 -7.43414062 12.85441406 -6.875 11.8125 C-5.79060186 9.79734796 -4.70474403 7.7829805 -3.6171875 5.76953125 C-3.13878418 4.87854736 -2.66038086 3.98756348 -2.16748047 3.06958008 C-1 1 -1 1 0 0 Z " fill="#712423" transform="translate(342,99)"/>
<path d="M0 0 C0.66 1.32 1.32 2.64 2 4 C1.47148437 4.4846875 0.94296875 4.969375 0.3984375 5.46875 C-1.67639477 7.55159321 -3.41845432 9.51897686 -5 12 C-4.69907785 18.21905784 -1.67789072 22.51766901 1.7578125 27.60546875 C3.15624008 30.30117978 3.24458412 32.00650307 3 35 C-0.16850175 32.32566825 -1.7701662 28.90404826 -3.5625 25.25 C-3.86607422 24.65445313 -4.16964844 24.05890625 -4.48242188 23.4453125 C-6.51534135 19.35289944 -7.86606782 15.40033383 -9 11 C-7.88625 9.948125 -7.88625 9.948125 -6.75 8.875 C-4.02182777 6.02281994 -2.08697046 3.3236937 0 0 Z " fill="#7A2B2A" transform="translate(280,197)"/>
<path d="M0 0 C0.33 0 0.66 0 1 0 C1.495 6.93 1.495 6.93 2 14 C3.98 14 5.96 14 8 14 C7.01 14.495 7.01 14.495 6 15 C6.20625 15.78375 6.4125 16.5675 6.625 17.375 C6.74875 18.24125 6.8725 19.1075 7 20 C6.34 20.66 5.68 21.32 5 22 C4.67 19.69 4.34 17.38 4 15 C3.01 15 2.02 15 1 15 C0.90525391 15.89138672 0.90525391 15.89138672 0.80859375 16.80078125 C-0.54772894 25.9809443 -4.86584884 33.51108422 -11.8125 39.6875 C-15 42 -15 42 -17 42 C-15.91708127 38.75124381 -15.41352203 38.33868551 -12.8125 36.375 C-5.49693497 30.26364321 -1.9959545 23.40336261 -1 14 C-0.58666023 9.33655482 -0.25595967 4.67463179 0 0 Z " fill="#7D3132" transform="translate(314,94)"/>
<path d="M0 0 C0.99 0.33 1.98 0.66 3 1 C2.01 2.485 2.01 2.485 1 4 C-1.23527647 8.05900384 -2.12198621 11.44690758 -1 16 C0.67256893 19.77261825 2.50409154 23.39749064 4.46875 27.0234375 C6 30 6 30 6 32 C4.1328125 31.73046875 4.1328125 31.73046875 2 31 C0.21838848 28.56047311 -0.83469159 25.77920899 -2 23 C-2.4125 22.05125 -2.825 21.1025 -3.25 20.125 C-4.69381346 14.10911057 -5.15017964 8.38222895 -2 2.875 C-1.34 1.92625 -0.68 0.9775 0 0 Z " fill="#762625" transform="translate(179,143)"/>
<path d="M0 0 C1.49821059 3.37097383 2 5.20442119 2 9 C-6.57142857 9.28571429 -6.57142857 9.28571429 -10 7 C-9.42655063 4.13275314 -9.1385485 3.1385485 -7 1 C-4.49940039 0.19335496 -2.66053211 0 0 0 Z " fill="#FBA5C8" transform="translate(323,57)"/>
<path d="M0 0 C0.33 0.99 0.66 1.98 1 3 C-1.475 4.485 -1.475 4.485 -4 6 C-2.35 6 -0.7 6 1 6 C1 6.66 1 7.32 1 8 C-2.6441774 10.4294516 -4.71241272 10.16179575 -9 10 C-10.35439668 7.29120665 -10.06501451 4.99066732 -10 2 C-6.7 1.34 -3.4 0.68 0 0 Z " fill="#9C97C8" transform="translate(314,82)"/>
<path d="M0 0 C0.33 0 0.66 0 1 0 C1.0500364 4.3558609 1.08601534 8.7115624 1.10986328 13.06762695 C1.11982183 14.54454468 1.13339361 16.02144322 1.15087891 17.49829102 C1.28186265 28.85920439 1.0813753 39.60627779 -4 50 C-5.34173607 45.64085657 -4.21927808 42.24090683 -3.125 37.9375 C-0.17954427 25.44931777 -0.16618206 12.77452943 0 0 Z " fill="#751819" transform="translate(300,88)"/>
<path d="M0 0 C4.44870215 -0.39253254 7.14243493 0.84694043 11 3 C11.37851209 8.93002267 10.10575375 13.47239641 8 19 C7.67 19 7.34 19 7 19 C6.95101563 18.26394531 6.90203125 17.52789062 6.8515625 16.76953125 C6.77679688 15.79371094 6.70203125 14.81789063 6.625 13.8125 C6.52058594 12.36810547 6.52058594 12.36810547 6.4140625 10.89453125 C5.99293412 7.95060548 5.31291646 5.66334482 4 3 C1.98264795 1.65589738 1.98264795 1.65589738 0 1 C0 0.67 0 0.34 0 0 Z " fill="#F2E5E4" transform="translate(270,100)"/>
<path d="M0 0 C3.99285465 3.30443144 5.937684 6.99633769 7 12 C7.68677854 19.96291876 7.47956383 26.75090869 4 34 C3.34 33.67 2.68 33.34 2 33 C2.32355469 32.46761719 2.64710938 31.93523437 2.98046875 31.38671875 C5.94641252 24.44345574 4.4052998 15.82761647 1.734375 9.01171875 C0.64811903 6.03607076 0.33413649 3.14088302 0 0 Z " fill="#F59FBD" transform="translate(325,41)"/>
<path d="M0 0 C3.96 0 7.92 0 12 0 C12 0.66 12 1.32 12 2 C9.59454362 3.20272819 8.05003047 3.10071472 5.375 3.0625 C4.14910156 3.04896484 4.14910156 3.04896484 2.8984375 3.03515625 C1.95871094 3.01775391 1.95871094 3.01775391 1 3 C0.9175 3.969375 0.835 4.93875 0.75 5.9375 C0.1000875 10.67119101 -1.92305323 14.73984407 -4 19 C-4.66 19 -5.32 19 -6 19 C-5.39124245 14.39583374 -4.15277044 10.43516676 -2.4375 6.125 C-1.75494141 4.39636719 -1.75494141 4.39636719 -1.05859375 2.6328125 C-0.70925781 1.76398438 -0.35992187 0.89515625 0 0 Z " fill="#6F1B19" transform="translate(287,180)"/>
<path d="M0 0 C1.32 0 2.64 0 4 0 C5.73473712 1.94125344 7.4045651 3.94272868 9 6 C9.66 6.33 10.32 6.66 11 7 C10.34 8.65 9.68 10.3 9 12 C7.68 12 6.36 12 5 12 C1.79293798 8.15152557 0.47302396 4.96675157 0 0 Z " fill="#9B93C2" transform="translate(323,87)"/>
<path d="M0 0 C2.7732218 1.3866109 3.18056694 3.09936338 4.5 5.875 C5.87956513 8.76031 7.22052664 11.33078996 9 14 C5.37 13.67 1.74 13.34 -2 13 C-1.48041715 8.62065881 -0.94324258 4.31196609 0 0 Z " fill="#F5EFEE" transform="translate(262,83)"/>
<path d="M0 0 C5.80616177 -0.51610327 10.05358064 0.89808911 15.44921875 3.02734375 C16.71185547 3.50880859 16.71185547 3.50880859 18 4 C18.66644531 4.26941406 19.33289063 4.53882813 20.01953125 4.81640625 C22.15680841 5.2206518 22.15680841 5.2206518 24.19921875 3.57421875 C28.11166174 1.37517478 31.41158742 1.66863111 35.8125 1.8125 C36.60076172 1.82603516 37.38902344 1.83957031 38.20117188 1.85351562 C40.13441169 1.88866544 42.06729682 1.94246639 44 2 C44 2.33 44 2.66 44 3 C42.84242188 3.09796875 41.68484375 3.1959375 40.4921875 3.296875 C38.95303881 3.44703585 37.41398068 3.59812691 35.875 3.75 C35.11445313 3.811875 34.35390625 3.87375 33.5703125 3.9375 C28.37281048 4.47517262 25.22118201 5.71825018 21 9 C20.01 9.66 19.02 10.32 18 11 C17.979375 10.236875 17.95875 9.47375 17.9375 8.6875 C17.22537452 5.70319162 17.22537452 5.70319162 14.0625 4.3125 C9.51569191 2.64533703 4.76106365 1.81426642 0 1 C0 0.67 0 0.34 0 0 Z " fill="#842F31" transform="translate(265,28)"/>
<path d="M0 0 C0.33 0 0.66 0 1 0 C1.54555287 6.54663442 0.8277608 11.52378747 -3 17 C-5.32595946 18.16297973 -6.78723231 18.16600691 -9.375 18.1875 C-10.53128906 18.20876953 -10.53128906 18.20876953 -11.7109375 18.23046875 C-14.21834888 17.97801607 -15.83261902 17.25193467 -18 16 C-18 15.34 -18 14.68 -18 14 C-17.319375 14.165 -16.63875 14.33 -15.9375 14.5 C-12.49125833 15.08659433 -9.48849588 15.32300888 -6 15 C-3.62449843 13.17878213 -3.10750343 11.72921003 -2.67578125 8.80078125 C-2.51964731 7.21128658 -2.39601362 5.61818791 -2.30859375 4.0234375 C-2 2 -2 2 0 0 Z " fill="#7D2F2E" transform="translate(222,232)"/>
<path d="M0 0 C0.09765625 6.15234375 0.09765625 6.15234375 0 8 C-1 9 -1 9 -2.84765625 9.09765625 C-4.8984375 9.06510417 -6.94921875 9.03255208 -9 9 C-7.68 8.34 -6.36 7.68 -5 7 C-6.65 6.67 -8.3 6.34 -10 6 C-9.01958581 3.54896452 -8.3486182 2.23241214 -6.125 0.75 C-4 0 -4 0 0 0 Z " fill="#9D96C6" transform="translate(333,76)"/>
<path d="M0 0 C1.14077657 3.42232972 1.09815117 6.08673217 1.0625 9.6875 C1.05347656 10.86699219 1.04445312 12.04648438 1.03515625 13.26171875 C1.02355469 14.16535156 1.01195312 15.06898437 1 16 C-1.64 15.34 -4.28 14.68 -7 14 C-4.69 9.38 -2.38 4.76 0 0 Z " fill="#F3EBEB" transform="translate(222,74)"/>
<path d="M0 0 C0.66 0 1.32 0 2 0 C2.90441541 6.93385148 0.07695122 11.48661001 -4 17 C-4.66 17.33 -5.32 17.66 -6 18 C-5.731875 17.360625 -5.46375 16.72125 -5.1875 16.0625 C-3.64635858 12.08797739 -2.32390688 8.05115505 -1 4 C-1.49628906 4.28875 -1.99257813 4.5775 -2.50390625 4.875 C-7.31007855 7.501523 -10.5337284 8.45552263 -16 8 C-15.67 7.34 -15.34 6.68 -15 6 C-13.453125 5.814375 -13.453125 5.814375 -11.875 5.625 C-7.34009473 4.89356367 -3.34285608 3.34285608 0 0 Z " fill="#832F30" transform="translate(278,137)"/>
<path d="M0 0 C5.74521733 5.39702234 10.29037337 11.70622623 15 18 C14.01 18.33 13.02 18.66 12 19 C0 6.15533981 0 6.15533981 0 0 Z " fill="#731F1E" transform="translate(191,228)"/>
<path d="M0 0 C-5.75 3 -5.75 3 -8 3 C-7.34 5.31 -6.68 7.62 -6 10 C-6.66 10.66 -7.32 11.32 -8 12 C-8.99 9.36 -9.98 6.72 -11 4 C-16.28 3.67 -21.56 3.34 -27 3 C-27 2.67 -27 2.34 -27 2 C-25.84242188 1.95101562 -24.68484375 1.90203125 -23.4921875 1.8515625 C-21.9531033 1.77648522 -20.4140419 1.70093957 -18.875 1.625 C-17.73417969 1.57859375 -17.73417969 1.57859375 -16.5703125 1.53125 C-11.06232921 1.24635431 -5.10512867 -1.96351103 0 0 Z " fill="#894644" transform="translate(256,218)"/>
<path d="M0 0 C0.33 0 0.66 0 1 0 C1 1.65 1 3.3 1 5 C2.32 5.33 3.64 5.66 5 6 C3.68 6 2.36 6 1 6 C0.67 10.62 0.34 15.24 0 20 C-1.85625 20.680625 -1.85625 20.680625 -3.75 21.375 C-6.59245495 22.4384007 -9.32663046 23.55192483 -12 25 C-8.375 20.125 -8.375 20.125 -5 19 C-1.94902698 13.01378052 -0.50225059 6.65482032 0 0 Z " fill="#732324" transform="translate(333,56)"/>
<path d="M0 0 C3.1875 0.3125 3.1875 0.3125 5.5625 2.3125 C6.09875 2.9725 6.635 3.6325 7.1875 4.3125 C6.64480469 4.50585938 6.10210937 4.69921875 5.54296875 4.8984375 C4.46982422 5.28902344 4.46982422 5.28902344 3.375 5.6875 C2.66730469 5.94273438 1.95960938 6.19796875 1.23046875 6.4609375 C-1.06023359 7.3390769 -1.06023359 7.3390769 -3.8125 9.3125 C-3.91015625 3.16015625 -3.91015625 3.16015625 -3.8125 1.3125 C-2.8125 0.3125 -2.8125 0.3125 0 0 Z " fill="#F8A1C3" transform="translate(314.8125,51.6875)"/>
<path d="M0 0 C5.03754162 0.9235493 9.67983738 2.15501486 14 5 C14.875 7.6875 14.875 7.6875 15 10 C11.43574334 10 10.86028134 9.32859487 8.1875 7.125 C4.91492377 4.56017131 2.08556677 3.02139169 -2 2 C-1.34 1.34 -0.68 0.68 0 0 Z " fill="#F49DBC" transform="translate(269,29)"/>
<path d="M0 0 C1.75683801 3.32026266 3.06597937 6.73148596 4.375 10.25 C6.31345059 15.35209399 8.44776493 20.17911153 11 25 C10.34 25.66 9.68 26.32 9 27 C7.51801792 23.89716979 6.03990317 20.79251273 4.5625 17.6875 C4.14162109 16.80642578 3.72074219 15.92535156 3.28710938 15.01757812 C2.88427734 14.17001953 2.48144531 13.32246094 2.06640625 12.44921875 C1.69459229 11.66893311 1.32277832 10.88864746 0.93969727 10.0847168 C-0.81323662 6.19583593 -0.99946634 4.10891718 0 0 Z " fill="#7B3231" transform="translate(181,203)"/>
<path d="M0 0 C2.39036214 3.5855432 1.7553931 4.62262962 1.09375 8.66015625 C0.91997699 12.99724095 2.53714461 16.96681679 4 21 C3.34 21 2.68 21 2 21 C-0.69575019 15.84291269 -2.14795458 12.06091142 -2.0625 6.25 C-2.05347656 5.45078125 -2.04445313 4.6515625 -2.03515625 3.828125 C-2.02355469 3.22484375 -2.01195312 2.6215625 -2 2 C-2.66 1.67 -3.32 1.34 -4 1 C-2.68 0.67 -1.36 0.34 0 0 Z " fill="#84484F" transform="translate(322,87)"/>
<path d="M0 0 C2.49361571 1.20381448 4.68143083 2.45428722 7 4 C6.35455571 7.48539917 4.89865603 10.02819057 3 13 C-0.14027363 12.66354211 -1.05098295 11.94763914 -3.3125 9.625 C-3.869375 8.75875 -4.42625 7.8925 -5 7 C-4.67 6.01 -4.34 5.02 -4 4 C-2.02 6.97 -2.02 6.97 0 10 C3.11332248 9.33131686 3.11332248 9.33131686 4.1875 6.9375 C4.455625 6.298125 4.72375 5.65875 5 5 C4.360625 4.731875 3.72125 4.46375 3.0625 4.1875 C1 3 1 3 0 0 Z " fill="#712424" transform="translate(329,89)"/>
<path d="M0 0 C0 3.23299142 -0.60653089 4.40500057 -2 7.25 C-4.87445187 14.07176253 -4.34935985 20.72166987 -4 28 C-4.66 28 -5.32 28 -6 28 C-6.08132642 24.95778935 -6.14065374 21.9177762 -6.1875 18.875 C-6.21263672 18.0190625 -6.23777344 17.163125 -6.26367188 16.28125 C-6.33410561 10.17699303 -5.54597233 5.82885815 -1.3125 1.125 C-0.879375 0.75375 -0.44625 0.3825 0 0 Z " fill="#7D2123" transform="translate(305,35)"/>
<path d="M0 0 C7.52592433 0.6377902 14.67098882 2.19889833 22 4 C22 4.33 22 4.66 22 5 C14.85334112 5.3606725 8.54874065 5.13763838 2 2 C1.34 1.34 0.68 0.68 0 0 Z " fill="#7E3130" transform="translate(216,138)"/>
<path d="M0 0 C2.9297008 2.82506863 5.50174717 5.78796065 8 9 C8 6.69 8 4.38 8 2 C8.99 2.33 9.98 2.66 11 3 C10.67 5.97 10.34 8.94 10 12 C8.68 12 7.36 12 6 12 C4.296875 10.13671875 4.296875 10.13671875 2.75 7.6875 C1.96882812 6.48673828 1.96882812 6.48673828 1.171875 5.26171875 C0 3 0 3 0 0 Z " fill="#8C3135" transform="translate(193,141)"/>
<path d="M0 0 C4.88876544 2.39767477 8.87167216 4.84720628 11 10 C10.38511719 9.57847656 9.77023437 9.15695313 9.13671875 8.72265625 C8.32847656 8.17480469 7.52023437 7.62695312 6.6875 7.0625 C5.88699219 6.51722656 5.08648437 5.97195312 4.26171875 5.41015625 C0.1379195 2.83901371 -3.22939856 2.82962138 -8 3 C-8.99 3.33 -9.98 3.66 -11 4 C-11 3.34 -11 2.68 -11 2 C-7.25204934 -0.49863377 -4.33389657 -0.86677931 0 0 Z " fill="#8C2F36" transform="translate(256,37)"/>
<path d="M0 0 C1.134375 0.020625 2.26875 0.04125 3.4375 0.0625 C3.4375 2.0425 3.4375 4.0225 3.4375 6.0625 C1.1275 5.7325 -1.1825 5.4025 -3.5625 5.0625 C-4.125 3.125 -4.125 3.125 -4.5625 1.0625 C-3.5625 0.0625 -3.5625 0.0625 0 0 Z " fill="#F6F1F2" transform="translate(219.5625,91.9375)"/>
<path d="M0 0 C0.66 0 1.32 0 2 0 C3.76391381 3.83243923 4.26866297 6.98703923 4.4375 11.1875 C4.80465978 17.15724611 5.98450608 22.38450437 8 28 C4.68464896 24.98604451 3.1793367 22.54066531 2.65625 18.046875 C2.6046875 16.95890625 2.553125 15.8709375 2.5 14.75 C2.17871838 9.56860376 1.46225914 4.97168108 0 0 Z " fill="#8C3338" transform="translate(259,62)"/>
<path d="M0 0 C4.38081466 4.02561348 7.78693637 7.73302438 8.1875 13.875 C8.125625 14.57625 8.06375 15.2775 8 16 C5.34154327 13.62999752 3.88838209 11.18015846 2.3125 8 C1.87550781 7.13375 1.43851562 6.2675 0.98828125 5.375 C0 3 0 3 0 0 Z " fill="#721E1D" transform="translate(275,216)"/>
<path d="M0 0 C0.33 0.66 0.66 1.32 1 2 C0.00390625 4.3828125 0.00390625 4.3828125 -1.4375 7.125 C-1.91058594 8.03507812 -2.38367188 8.94515625 -2.87109375 9.8828125 C-3.24363281 10.58148438 -3.61617187 11.28015625 -4 12 C-3.34 12.66 -2.68 13.32 -2 14 C-3.175625 14.185625 -3.175625 14.185625 -4.375 14.375 C-7.14057822 14.79117993 -7.14057822 14.79117993 -9 17 C-9.33 15.68 -9.66 14.36 -10 13 C-9.01 13 -8.02 13 -7 13 C-6.6596875 12.01 -6.6596875 12.01 -6.3125 11 C-4.59428642 7.07265467 -2.33225393 3.58739822 0 0 Z " fill="#7C2829" transform="translate(220,75)"/>
<path d="M0 0 C0 3.25440983 -0.37466113 3.93806022 -2.1171875 6.5390625 C-2.55933594 7.20164062 -3.00148437 7.86421875 -3.45703125 8.546875 C-3.92496094 9.23265625 -4.39289063 9.9184375 -4.875 10.625 C-5.33519531 11.31851563 -5.79539063 12.01203125 -6.26953125 12.7265625 C-9.73294827 17.86647413 -9.73294827 17.86647413 -12 19 C-11.49917888 14.24659251 -9.45740882 11.54114256 -6.5625 7.8125 C-5.75941406 6.76707031 -4.95632812 5.72164062 -4.12890625 4.64453125 C-2 2 -2 2 0 0 Z " fill="#782020" transform="translate(206,44)"/>
<path d="M0 0 C1.67662658 0.27894838 3.34252398 0.62361969 5 1 C7.10323534 1.0659735 9.20835724 1.08562245 11.3125 1.0625 C12.38113281 1.05347656 13.44976562 1.04445312 14.55078125 1.03515625 C15.76314453 1.01775391 15.76314453 1.01775391 17 1 C17 1.66 17 2.32 17 3 C12.32479446 5.33760277 5.77287981 4.41227209 0.875 3 C-0.07375 2.67 -1.0225 2.34 -2 2 C-1.34 1.34 -0.68 0.68 0 0 Z " fill="#7A2927" transform="translate(266,252)"/>
<path d="M0 0 C2.9512645 1.47563225 3.06923915 3.50079352 4.125 6.5625 C4.47820312 7.57441406 4.83140625 8.58632812 5.1953125 9.62890625 C5.46085937 10.41136719 5.72640625 11.19382812 6 12 C6.66 12 7.32 12 8 12 C8 13.65 8 15.3 8 17 C7.01 17 6.02 17 5 17 C4.15838146 14.91999989 3.32699237 12.83585854 2.5 10.75 C2.0359375 9.58984375 1.571875 8.4296875 1.09375 7.234375 C0 4 0 4 0 0 Z " fill="#752C2B" transform="translate(320,114)"/>
<path d="M0 0 C2.66666667 2.66666667 5.33333333 5.33333333 8 8 C7.34 8 6.68 8 6 8 C6 8.66 6 9.32 6 10 C1.98575735 11.33808088 -1.81426024 11.19932094 -6 11 C-6.99 10.34 -7.98 9.68 -9 9 C-3.06 8.505 -3.06 8.505 3 8 C2.34 6.68 1.68 5.36 1 4 C0.63215869 2.6757713 0.28797019 1.34386088 0 0 Z " fill="#954B4A" transform="translate(267,90)"/>
<path d="M0 0 C2.97 0 5.94 0 9 0 C9.33 0.66 9.66 1.32 10 2 C9.113125 2.2475 8.22625 2.495 7.3125 2.75 C3.89572865 4.03934768 1.7202252 5.59980129 -1 8 C-2.2077558 4.37673261 -1.54311128 3.35853631 0 0 Z " fill="#6D0E0C" transform="translate(212,89)"/>
<path d="M0 0 C0.66 0 1.32 0 2 0 C2.83848804 1.45537568 3.67063934 2.91440373 4.5 4.375 C5.19609375 5.59316406 5.19609375 5.59316406 5.90625 6.8359375 C7 9 7 9 7 11 C5.1875 10.875 5.1875 10.875 3 10 C0.71094011 6.32115375 0 4.38448044 0 0 Z " fill="#701C1A" transform="translate(178,164)"/>
<path d="M0 0 C0.66 0.33 1.32 0.66 2 1 C3.14077657 4.42232972 3.09815117 7.08673217 3.0625 10.6875 C3.05347656 11.86699219 3.04445312 13.04648438 3.03515625 14.26171875 C3.02355469 15.16535156 3.01195312 16.06898438 3 17 C2.67 17 2.34 17 2 17 C1.4695592 14.73139163 0.95094566 12.46001511 0.4375 10.1875 C0.14746094 8.92292969 -0.14257812 7.65835938 -0.44140625 6.35546875 C-1 3 -1 3 0 0 Z " fill="#6A1210" transform="translate(219,223)"/>
<path d="M0 0 C0.33 0 0.66 0 1 0 C1.33 2.64 1.66 5.28 2 8 C2.99 8 3.98 8 5 8 C4.34 10.64 3.68 13.28 3 16 C1 15 1 15 0 12 C-0.068991 9.93854893 -0.08467727 7.87498599 -0.0625 5.8125 C-0.05347656 4.72582031 -0.04445313 3.63914063 -0.03515625 2.51953125 C-0.02355469 1.68808594 -0.01195312 0.85664062 0 0 Z " fill="#F49DBA" transform="translate(300,48)"/>
<path d="M0 0 C3.96 0 7.92 0 12 0 C12 0.66 12 1.32 12 2 C9.59454362 3.20272819 8.05003047 3.10071472 5.375 3.0625 C4.14910156 3.04896484 4.14910156 3.04896484 2.8984375 3.03515625 C1.95871094 3.01775391 1.95871094 3.01775391 1 3 C0.67 3.66 0.34 4.32 0 5 C0 3.35 0 1.7 0 0 Z " fill="#6A0D0B" transform="translate(287,180)"/>
<path d="M0 0 C0.33 0 0.66 0 1 0 C1.33 2.31 1.66 4.62 2 7 C-0.31 6.01 -2.62 5.02 -5 4 C-5 4.66 -5 5.32 -5 6 C-4.34 6.33 -3.68 6.66 -3 7 C-3.99 7 -4.98 7 -6 7 C-6 6.34 -6 5.68 -6 5 C-7.32 5 -8.64 5 -10 5 C-9.67 4.01 -9.34 3.02 -9 2 C-6.36 2 -3.72 2 -1 2 C-0.67 1.34 -0.34 0.68 0 0 Z " fill="#7C3F47" transform="translate(333,82)"/>
<path d="M0 0 C3.06827858 4.60241787 3.23093594 9.15251247 2.5625 14.5 C2.376875 15.325 2.19125 16.15 2 17 C1.67 17 1.34 17 1 17 C0.63724344 14.73052303 0.28506814 12.45935265 -0.0625 10.1875 C-0.25972656 8.92292969 -0.45695312 7.65835938 -0.66015625 6.35546875 C-1 3 -1 3 0 0 Z " fill="#853635" transform="translate(283,229)"/>
<path d="M0 0 C0.33 0 0.66 0 1 0 C1.33 4.62 1.66 9.24 2 14 C2.99 14.33 3.98 14.66 5 15 C3.35 15 1.7 15 0 15 C-1.09651823 11.58860997 -0.94215473 8.79344419 -0.5625 5.25 C-0.46066406 4.26515625 -0.35882813 3.2803125 -0.25390625 2.265625 C-0.17011719 1.51796875 -0.08632813 0.7703125 0 0 Z " fill="#8F4949" transform="translate(288,166)"/>
<path d="M0 0 C-0.33 0.66 -0.66 1.32 -1 2 C-2.093125 1.979375 -3.18625 1.95875 -4.3125 1.9375 C-7.94384191 1.81455548 -7.94384191 1.81455548 -11 3 C-12.20882096 5.00016466 -12.20882096 5.00016466 -13 7 C-13 5.68 -13 4.36 -13 3 C-8.53132223 -1.03270921 -5.77388712 -1.38573291 0 0 Z " fill="#783030" transform="translate(304,161)"/>
<path d="M0 0 C0.33 0.99 0.66 1.98 1 3 C0.01 3.495 0.01 3.495 -1 4 C-1 3.34 -1 2.68 -1 2 C-4.79303725 3.00193437 -7.71536341 3.81024227 -11 6 C-11.66 5.34 -12.32 4.68 -13 4 C-8.48649253 0.47726246 -5.71658336 -0.45732667 0 0 Z " fill="#89403E" transform="translate(193,138)"/>
<path d="M0 0 C3.55420724 0.29618394 4.80337043 0.80337043 7.375 3.375 C8.179375 4.674375 8.179375 4.674375 9 6 C8.67 6.99 8.34 7.98 8 9 C8 8.34 8 7.68 8 7 C7.4225 6.731875 6.845 6.46375 6.25 6.1875 C3.94449957 4.97070811 1.97943808 3.69666121 0 2 C0 1.34 0 0.68 0 0 Z " fill="#EBDFDD" transform="translate(328,86)"/>
<path d="M0 0 C0.33 0.66 0.66 1.32 1 2 C3.97 1.34 6.94 0.68 10 0 C10.33 0.66 10.66 1.32 11 2 C4.07 3.485 4.07 3.485 -3 5 C-1 1 -1 1 0 0 Z " fill="#863436" transform="translate(271,155)"/>
<path d="M0 0 C3.42931954 3.7559214 4.56429083 8.23466745 6 13 C4.68 12.67 3.36 12.34 2 12 C1.1558062 8.02022924 0.55312735 4.02992782 0 0 Z " fill="#7D3132" transform="translate(211,140)"/>
<path d="M0 0 C0.33 0 0.66 0 1 0 C1 2.97 1 5.94 1 9 C-1.475 8.01 -1.475 8.01 -4 7 C-2.79618552 4.50638429 -1.54571278 2.31856917 0 0 Z " fill="#FBF5F3" transform="translate(209,96)"/>
<path d="M0 0 C0.66 0.33 1.32 0.66 2 1 C3.53964841 1.69200804 5.08156513 2.37897884 6.625 3.0625 C7.44226563 3.42472656 8.25953125 3.78695312 9.1015625 4.16015625 C10.04128906 4.57587891 10.04128906 4.57587891 11 5 C7.61725734 6.12758089 6.23221777 5.81750262 2.8125 5.0625 C1.91144531 4.86785156 1.01039063 4.67320313 0.08203125 4.47265625 C-0.94857422 4.23869141 -0.94857422 4.23869141 -2 4 C-2 3.01 -2 2.02 -2 1 C-1.34 0.67 -0.68 0.34 0 0 Z " fill="#A44952" transform="translate(308,33)"/>
<path d="M0 0 C1.93833996 0.08715017 3.8757429 0.19532964 5.8125 0.3125 C7.43091797 0.39951172 7.43091797 0.39951172 9.08203125 0.48828125 C12.17497517 1.03068507 13.13022903 1.55289624 15 4 C14.67 4.66 14.34 5.32 14 6 C13.45859375 5.50886719 12.9171875 5.01773438 12.359375 4.51171875 C9.42758717 2.6332388 7.69700309 2.68939275 4.25 2.8125 C3.26515625 2.83957031 2.2803125 2.86664063 1.265625 2.89453125 C0.51796875 2.92933594 -0.2296875 2.96414062 -1 3 C-0.67 2.01 -0.34 1.02 0 0 Z " fill="#8A2D31" transform="translate(308,50)"/>
<path d="M0 0 C1 3 1 3 -0.4375 6.1875 C-1.2109375 7.5796875 -1.2109375 7.5796875 -2 9 C-2.99 9 -3.98 9 -5 9 C-3.50163895 5.88801935 -1.80066242 2.9465385 0 0 Z " fill="#701A1A" transform="translate(248,97)"/>
<path d="M0 0 C1.98 0.495 1.98 0.495 4 1 C4 2.32 4 3.64 4 5 C2.35 5 0.7 5 -1 5 C-0.67 3.35 -0.34 1.7 0 0 Z " fill="#F1E9E9" transform="translate(263,101)"/>
<path d="M0 0 C0.33 0 0.66 0 1 0 C1.12375 0.969375 1.2475 1.93875 1.375 2.9375 C1.58125 3.948125 1.7875 4.95875 2 6 C2.66 6.33 3.32 6.66 4 7 C3.34 8.65 2.68 10.3 2 12 C1.34 12 0.68 12 0 12 C0 8.04 0 4.08 0 0 Z " fill="#E78FA8" transform="translate(250,94)"/>
<path d="M0 0 C0.66 0 1.32 0 2 0 C5 6.625 5 6.625 5 10 C4.34 10 3.68 10 3 10 C0 3.375 0 3.375 0 0 Z " fill="#762827" transform="translate(249,228)"/>
<path d="M0 0 C1.32 0 2.64 0 4 0 C3.67 1.65 3.34 3.3 3 5 C1.68 4.67 0.36 4.34 -1 4 C-0.67 2.68 -0.34 1.36 0 0 Z " fill="#9E92C2" transform="translate(318,82)"/>
<path d="M0 0 C-2.1875 2.0625 -2.1875 2.0625 -5 4 C-7.8125 3.75 -7.8125 3.75 -10 3 C-3.66666667 -1.22222222 -3.66666667 -1.22222222 0 0 Z " fill="#792B2A" transform="translate(306,177)"/>
<path d="M0 0 C2.86319855 1.04983947 3.8499428 1.73398952 5.375 4.4375 C5.684375 5.7059375 5.684375 5.7059375 6 7 C5.01 8.485 5.01 8.485 4 10 C1.125 3.375 1.125 3.375 0 0 Z " fill="#792A29" transform="translate(307,146)"/>
<path d="M0 0 C0.66 0.66 1.32 1.32 2 2 C0.02 2.99 0.02 2.99 -2 4 C-2 4.99 -2 5.98 -2 7 C-3.32 7 -4.64 7 -6 7 C-6 6.34 -6 5.68 -6 5 C-4.04072937 3.2856382 -2.04119788 1.61594832 0 0 Z " fill="#863536" transform="translate(178,84)"/>
<path d="M0 0 C0.66 0.99 1.32 1.98 2 3 C0.7260411 5.03833424 -0.61061923 7.03852126 -2 9 C-2.66 9 -3.32 9 -4 9 C-2.80100302 5.9168649 -1.52299523 2.93720508 0 0 Z " fill="#853031" transform="translate(193,61)"/>
<path d="M0 0 C3 1 3 1 4.75 3.3125 C6.14972335 6.32190521 5.95287489 6.98041673 5 10 C4.16121545 8.71186658 3.32913217 7.41936744 2.5 6.125 C2.0359375 5.40570313 1.571875 4.68640625 1.09375 3.9453125 C0 2 0 2 0 0 Z " fill="#712322" transform="translate(325,39)"/>
<path d="M0 0 C3.36591866 1.44253657 5.51047079 3.33264727 8 6 C5.21788056 5.62403791 3.4120716 5.32681541 1.1875 3.5625 C0 2 0 2 0 0 Z " fill="#6A1211" transform="translate(258,247)"/>
<path d="M0 0 C0.66 0.99 1.32 1.98 2 3 C1.125 6.1875 1.125 6.1875 0 9 C-0.99 9 -1.98 9 -3 9 C-2.01 6.03 -1.02 3.06 0 0 Z " fill="#873F3E" transform="translate(183,177)"/>
<path d="M0 0 C2.33524782 2.25740623 4.18705073 4.2805761 6 7 C5.67 7.99 5.34 8.98 5 10 C4.15801693 8.90241493 3.32669329 7.79664683 2.5 6.6875 C2.0359375 6.07261719 1.571875 5.45773438 1.09375 4.82421875 C0 3 0 3 0 0 Z " fill="#792424" transform="translate(193,141)"/>
<path d="M0 0 C2 3 2 3 1.625 5.6875 C1.41875 6.450625 1.2125 7.21375 1 8 C0.01 7.67 -0.98 7.34 -2 7 C-1.34 4.69 -0.68 2.38 0 0 Z " fill="#782625" transform="translate(286,182)"/>
<path d="M0 0 C0.33 0.99 0.66 1.98 1 3 C-2.28696233 3.79953138 -3.71023192 4.09658936 -7 3 C-3.375 0 -3.375 0 0 0 Z " fill="#8A5972" transform="translate(316,85)"/>
</svg>
